<?xml version="1.0" encoding="UTF-8"?>
<!DOCTYPE svg PUBLIC "-//W3C//DTD SVG 1.1//EN" "http://www.w3.org/Graphics/SVG/1.1/DTD/svg11.dtd">
<!-- Creator: CorelDRAW 2019 (64-Bit) -->
<svg xmlns="http://www.w3.org/2000/svg" xml:space="preserve" width="200px" height="100px" version="1.1" style="shape-rendering:geometricPrecision; text-rendering:geometricPrecision; image-rendering:optimizeQuality; fill-rule:evenodd; clip-rule:evenodd"
viewBox="0 0 200 100"
 xmlns:xlink="http://www.w3.org/1999/xlink"
 xmlns:xodm="http://www.corel.com/coreldraw/odm/2003">
 <defs>
  <style type="text/css">
   <![CDATA[
    .fil0 {fill:black;fill-rule:nonzero}
   ]]>
  </style>
 </defs>
 <g id="Layer_x0020_1">
  <metadata id="CorelCorpID_0Corel-Layer"/>
  <g id="_2368901702848">
   <g>
    <path class="fil0" d="M113.163 16.163c-0.296,0.29 -0.771,0.285 -1.061,-0.011 -0.29,-0.295 -0.285,-0.77 0.01,-1.06l1.051 1.071zm-1.192 -2.747l0.694 -1.329 0 0 0.23 0.129 0.212 0.14 0.192 0.149 0.173 0.158 0.153 0.169 0.133 0.178 0.111 0.186 0.089 0.191 0.067 0.194 0.045 0.195 0.025 0.194 0.006 0.187 -0.01 0.18 -0.023 0.173 -0.035 0.166 -0.045 0.156 -0.052 0.148 -0.058 0.139 -0.061 0.131 -0.065 0.123 -0.067 0.114 -0.066 0.106 -0.066 0.098 -0.065 0.09 -0.061 0.079 -0.057 0.071 -0.052 0.064 -0.047 0.053 -0.039 0.043 -0.033 0.034 -0.022 0.024 -0.014 0.014 -1.051 -1.071 -0.004 0.003 0.007 -0.006 0.014 -0.015 0.022 -0.024 0.027 -0.031 0.031 -0.037 0.036 -0.045 0.038 -0.05 0.039 -0.054 0.04 -0.059 0.04 -0.063 0.038 -0.065 0.035 -0.066 0.032 -0.068 0.028 -0.068 0.024 -0.067 0.018 -0.064 0.013 -0.061 0.008 -0.058 0.003 -0.055 -0.001 -0.05 -0.006 -0.046 -0.011 -0.047 -0.016 -0.047 -0.022 -0.049 -0.032 -0.053 -0.045 -0.059 -0.058 -0.065 -0.077 -0.07 -0.097 -0.076 -0.12 -0.079 -0.145 -0.082 0 0zm-56.753 34.819l-1.476 -0.267 0 0 0.47 -2.158 0.622 -2.161 0.769 -2.157 0.908 -2.147 1.041 -2.129 1.166 -2.105 1.286 -2.075 1.399 -2.036 1.506 -1.991 1.606 -1.94 1.701 -1.881 1.788 -1.815 1.87 -1.742 1.946 -1.662 2.014 -1.575 2.078 -1.481 2.134 -1.379 2.186 -1.271 2.23 -1.154 2.269 -1.032 2.3 -0.9 2.328 -0.763 2.348 -0.616 2.361 -0.463 2.369 -0.302 2.371 -0.133 2.365 0.044 2.352 0.229 2.333 0.421 2.306 0.621 2.272 0.829 2.229 1.043 -0.694 1.329 -2.111 -0.987 -2.149 -0.783 -2.182 -0.588 -2.21 -0.399 -2.233 -0.217 -2.25 -0.042 -2.261 0.127 -2.267 0.289 -2.266 0.444 -2.258 0.593 -2.245 0.735 -2.224 0.871 -2.197 0.999 -2.164 1.12 -2.123 1.235 -2.077 1.341 -2.022 1.442 -1.963 1.535 -1.896 1.619 -1.823 1.699 -1.743 1.769 -1.657 1.833 -1.565 1.889 -1.465 1.938 -1.36 1.979 -1.248 2.013 -1.13 2.039 -1.006 2.058 -0.875 2.069 -0.739 2.073 -0.596 2.069 -0.448 2.057 0 0zm73.494 17.829l1.367 0.619 0 0 -1.938 3.812 -2.184 3.455 -2.406 3.105 -2.609 2.762 -2.789 2.424 -2.947 2.092 -3.082 1.77 -3.196 1.453 -3.287 1.145 -3.357 0.844 -3.405 0.552 -3.431 0.267 -3.436 -0.008 -3.421 -0.277 -3.385 -0.536 -3.327 -0.789 -3.249 -1.034 -3.15 -1.271 -3.03 -1.5 -2.889 -1.723 -2.727 -1.938 -2.543 -2.145 -2.339 -2.346 -2.112 -2.54 -1.864 -2.725 -1.593 -2.903 -1.299 -3.073 -0.985 -3.233 -0.648 -3.385 -0.289 -3.528 0.09 -3.66 0.49 -3.782 1.476 0.267 -0.47 3.632 -0.087 3.501 0.277 3.368 0.617 3.228 0.939 3.082 1.24 2.93 1.521 2.771 1.782 2.606 2.024 2.433 2.245 2.253 2.447 2.063 2.627 1.867 2.787 1.662 2.927 1.449 3.044 1.229 3.141 0.999 3.218 0.763 3.272 0.519 3.305 0.267 3.318 0.008 3.309 -0.258 3.28 -0.531 3.23 -0.813 3.159 -1.1 3.069 -1.395 2.958 -1.698 2.828 -2.008 2.678 -2.327 2.508 -2.654 2.317 -2.991 2.108 -3.335 1.876 -3.691 0 0zm0.837 -12.72l1.398 -0.544 0 0 0.145 0.401 0.127 0.413 0.113 0.424 0.097 0.434 0.083 0.443 0.069 0.452 0.056 0.459 0.044 0.465 0.031 0.47 0.02 0.475 0.008 0.478 -0.002 0.481 -0.012 0.481 -0.022 0.482 -0.032 0.481 -0.04 0.479 -0.049 0.476 -0.057 0.472 -0.064 0.467 -0.072 0.461 -0.08 0.454 -0.085 0.446 -0.092 0.436 -0.098 0.427 -0.103 0.415 -0.108 0.403 -0.114 0.389 -0.117 0.376 -0.123 0.361 -0.126 0.344 -0.131 0.328 -0.134 0.31 -1.367 -0.619 0.116 -0.266 0.114 -0.288 0.114 -0.309 0.11 -0.326 0.108 -0.344 0.105 -0.36 0.101 -0.375 0.096 -0.387 0.092 -0.4 0.086 -0.411 0.081 -0.42 0.074 -0.428 0.068 -0.436 0.062 -0.441 0.053 -0.446 0.046 -0.449 0.038 -0.451 0.03 -0.453 0.021 -0.452 0.011 -0.45 0.002 -0.447 -0.008 -0.444 -0.018 -0.439 -0.029 -0.432 -0.039 -0.424 -0.051 -0.415 -0.062 -0.404 -0.073 -0.393 -0.085 -0.38 -0.097 -0.366 -0.109 -0.35 -0.12 -0.334 0 0zm-8.695 -7.619l0.467 -1.425 0 0 0.456 0.155 0.445 0.161 0.434 0.169 0.425 0.175 0.414 0.183 0.404 0.19 0.394 0.197 0.384 0.204 0.374 0.211 0.364 0.219 0.354 0.226 0.344 0.233 0.335 0.241 0.324 0.248 0.314 0.255 0.305 0.263 0.294 0.269 0.286 0.278 0.275 0.284 0.265 0.292 0.256 0.298 0.246 0.307 0.236 0.313 0.226 0.32 0.217 0.327 0.208 0.334 0.197 0.341 0.189 0.348 0.179 0.355 0.17 0.361 0.16 0.368 0.152 0.375 -1.398 0.544 -0.137 -0.337 -0.144 -0.331 -0.152 -0.323 -0.159 -0.316 -0.168 -0.31 -0.176 -0.303 -0.183 -0.296 -0.192 -0.289 -0.201 -0.283 -0.208 -0.277 -0.217 -0.27 -0.226 -0.264 -0.234 -0.258 -0.244 -0.251 -0.252 -0.246 -0.261 -0.239 -0.271 -0.233 -0.28 -0.228 -0.29 -0.221 -0.3 -0.216 -0.309 -0.21 -0.32 -0.203 -0.329 -0.199 -0.34 -0.192 -0.351 -0.186 -0.36 -0.18 -0.372 -0.175 -0.382 -0.168 -0.393 -0.163 -0.404 -0.156 -0.415 -0.151 -0.425 -0.145 0 0zm-15.074 5.428l-0.132 1.495 0 0 -0.782 -0.102 -0.676 -0.161 -0.58 -0.226 -0.49 -0.31 -0.385 -0.417 -0.235 -0.516 -0.05 -0.552 0.107 -0.525 0.22 -0.487 0.309 -0.459 0.383 -0.443 0.454 -0.434 0.521 -0.427 0.584 -0.42 0.642 -0.411 0.697 -0.401 0.748 -0.387 0.795 -0.37 0.835 -0.349 0.874 -0.326 0.906 -0.298 0.934 -0.267 0.957 -0.232 0.977 -0.192 0.99 -0.15 1.001 -0.102 1.005 -0.051 1.005 0.004 1.001 0.064 0.992 0.129 0.977 0.198 0.957 0.272 -0.467 1.425 -0.844 -0.239 -0.869 -0.176 -0.89 -0.116 -0.908 -0.058 -0.919 -0.004 -0.926 0.047 -0.926 0.095 -0.922 0.14 -0.912 0.179 -0.897 0.218 -0.876 0.25 -0.85 0.28 -0.818 0.305 -0.782 0.327 -0.739 0.344 -0.691 0.357 -0.638 0.367 -0.578 0.37 -0.512 0.369 -0.441 0.361 -0.364 0.347 -0.279 0.321 -0.191 0.283 -0.103 0.223 -0.032 0.147 0.004 0.073 0.025 0.055 0.089 0.093 0.208 0.13 0.354 0.137 0.502 0.119 0.651 0.084 0 0zm31.98 1.261l1.415 -0.495 0 0 -0.17 0.891 -0.496 0.344 -0.509 0.158 -0.605 0.11 -0.727 0.085 -0.847 0.066 -0.964 0.048 -1.069 0.033 -1.166 0.019 -1.251 0.005 -1.325 -0.006 -1.388 -0.017 -1.439 -0.027 -1.479 -0.036 -1.506 -0.043 -1.523 -0.049 -1.528 -0.056 -1.521 -0.06 -1.502 -0.064 -1.472 -0.066 -1.43 -0.067 -1.376 -0.068 -1.31 -0.067 -1.233 -0.066 -1.144 -0.062 -1.043 -0.059 -0.931 -0.054 -0.807 -0.048 -0.671 -0.042 -0.524 -0.033 -0.366 -0.025 -0.205 -0.015 0.132 -1.495 0.178 0.014 0.358 0.024 0.521 0.033 0.668 0.041 0.804 0.048 0.928 0.054 1.041 0.059 1.142 0.063 1.23 0.065 1.308 0.067 1.372 0.068 1.427 0.067 1.468 0.066 1.498 0.063 1.516 0.06 1.523 0.056 1.518 0.049 1.5 0.043 1.471 0.036 1.43 0.026 1.378 0.017 1.312 0.006 1.236 -0.005 1.146 -0.019 1.044 -0.032 0.93 -0.047 0.799 -0.061 0.653 -0.076 0.481 -0.087 0.263 -0.078 -0.063 0.069 -0.101 0.572 0.001 0zm-16.25 -1.197l-0.276 -1.474 0.181 -0.012 0.049 0.003 0.141 0.008 0.229 0.014 0.308 0.019 0.382 0.023 0.451 0.028 0.513 0.033 0.568 0.036 0.619 0.041 0.662 0.044 0.7 0.047 0.731 0.051 0.756 0.054 0.776 0.057 0.789 0.059 0.796 0.061 0.797 0.064 0.792 0.065 0.78 0.068 0.763 0.068 0.741 0.07 0.711 0.071 0.676 0.071 0.635 0.073 0.588 0.073 0.537 0.073 0.48 0.074 0.42 0.075 0.361 0.078 0.309 0.088 0.3 0.132 0.4 0.467 -1.415 0.495 0.258 0.333 -0.024 -0.006 -0.185 -0.052 -0.292 -0.063 -0.377 -0.067 -0.45 -0.069 -0.515 -0.071 -0.572 -0.07 -0.622 -0.071 -0.666 -0.071 -0.702 -0.07 -0.733 -0.069 -0.757 -0.068 -0.776 -0.067 -0.787 -0.065 -0.792 -0.063 -0.793 -0.062 -0.786 -0.058 -0.773 -0.057 -0.754 -0.053 -0.728 -0.051 -0.698 -0.048 -0.66 -0.044 -0.617 -0.04 -0.567 -0.036 -0.511 -0.033 -0.449 -0.027 -0.382 -0.024 -0.307 -0.019 -0.227 -0.013 -0.14 -0.008 -0.048 -0.003 0.182 -0.012zm-0.837 -2.165l0.439 1.434 0.001 0 0.14 -0.061 0.075 -0.051 0.045 -0.04 0.029 -0.03 0.015 -0.02 0.007 -0.01 0.003 -0.006 0.004 -0.006 0 -0.002 0.002 -0.003 0.002 -0.005 0.001 -0.005 0.002 -0.01 0.002 -0.016 0.002 -0.021 -0.001 -0.03 -0.004 -0.037 -0.011 -0.049 -0.019 -0.056 -0.028 -0.056 -0.041 -0.059 -0.048 -0.052 -0.051 -0.041 -0.051 -0.031 -0.043 -0.018 -0.032 -0.01 -0.016 -0.004 0 0 0.013 0.001 0.027 -0.002 0.041 -0.004 0.056 -0.009 0.276 1.474 -0.128 0.021 -0.126 0.014 -0.125 0.006 -0.125 -0.003 -0.122 -0.013 -0.127 -0.024 -0.128 -0.039 -0.127 -0.056 -0.124 -0.075 -0.113 -0.091 -0.099 -0.107 -0.082 -0.119 -0.06 -0.121 -0.043 -0.123 -0.026 -0.12 -0.012 -0.11 -0.001 -0.103 0.007 -0.097 0.013 -0.09 0.019 -0.085 0.021 -0.077 0.027 -0.076 0.029 -0.071 0.031 -0.067 0.036 -0.067 0.037 -0.062 0.041 -0.06 0.051 -0.064 0.063 -0.069 0.079 -0.07 0.106 -0.073 0.171 -0.074 0 0zm19.009 -2.789l0.144 1.493 0 0 -0.423 0.041 -0.458 0.045 -0.488 0.049 -0.516 0.052 -0.543 0.055 -0.567 0.059 -0.588 0.063 -0.609 0.065 -0.625 0.069 -0.641 0.072 -0.653 0.075 -0.664 0.078 -0.672 0.08 -0.677 0.083 -0.682 0.086 -0.683 0.089 -0.682 0.09 -0.679 0.093 -0.674 0.096 -0.665 0.097 -0.656 0.1 -0.643 0.101 -0.629 0.104 -0.612 0.105 -0.592 0.106 -0.57 0.108 -0.546 0.11 -0.52 0.111 -0.489 0.111 -0.459 0.112 -0.423 0.112 -0.386 0.113 -0.439 -1.434 0.423 -0.124 0.455 -0.12 0.484 -0.119 0.512 -0.116 0.538 -0.115 0.563 -0.113 0.585 -0.111 0.605 -0.109 0.622 -0.107 0.639 -0.105 0.652 -0.103 0.664 -0.101 0.674 -0.098 0.68 -0.097 0.685 -0.093 0.688 -0.092 0.688 -0.089 0.686 -0.086 0.683 -0.084 0.676 -0.081 0.667 -0.078 0.658 -0.075 0.644 -0.073 0.628 -0.069 0.611 -0.066 0.591 -0.062 0.57 -0.06 0.545 -0.055 0.519 -0.053 0.49 -0.049 0.459 -0.045 0.425 -0.041 0 0zm0.928 0.205l-0.088 -1.497 0 0 0.148 0.002 0.135 0.018 0.121 0.031 0.108 0.037 0.104 0.045 0.101 0.052 0.093 0.058 0.093 0.064 0.09 0.074 0.084 0.079 0.083 0.089 0.078 0.101 0.072 0.112 0.064 0.127 0.052 0.144 0.034 0.159 0.011 0.173 -0.019 0.182 -0.05 0.181 -0.08 0.169 -0.102 0.149 -0.121 0.13 -0.131 0.11 -0.141 0.094 -0.15 0.08 -0.159 0.069 -0.169 0.06 -0.18 0.052 -0.194 0.045 -0.207 0.039 -0.223 0.033 -0.241 0.027 -0.144 -1.493 0.193 -0.022 0.169 -0.025 0.147 -0.027 0.123 -0.029 0.1 -0.029 0.079 -0.028 0.056 -0.024 0.034 -0.018 0.013 -0.009 -0.004 0.004 -0.02 0.022 -0.026 0.038 -0.027 0.056 -0.019 0.069 -0.007 0.069 0.003 0.062 0.011 0.048 0.012 0.036 0.011 0.022 0.006 0.01 0.003 0.004 -0.002 -0.002 -0.008 -0.008 -0.008 -0.006 -0.011 -0.007 -0.011 -0.008 -0.006 -0.003 -0.003 -0.001 0.004 0.001 0.02 0.005 0.038 0.005 0.058 0 0 0zm-17.351 0.99l-0.224 -1.483 0 0 0.647 -0.093 0.656 -0.087 0.666 -0.081 0.672 -0.074 0.677 -0.069 0.682 -0.063 0.683 -0.057 0.684 -0.053 0.682 -0.048 0.679 -0.043 0.675 -0.039 0.668 -0.035 0.66 -0.032 0.651 -0.028 0.639 -0.025 0.626 -0.022 0.612 -0.019 0.595 -0.016 0.578 -0.015 0.557 -0.012 0.535 -0.012 0.513 -0.009 0.488 -0.009 0.461 -0.007 0.432 -0.007 0.403 -0.006 0.37 -0.006 0.336 -0.006 0.301 -0.007 0.262 -0.007 0.221 -0.008 0.176 -0.009 0.088 1.497 -0.201 0.011 -0.237 0.008 -0.273 0.007 -0.306 0.007 -0.34 0.007 -0.373 0.006 -0.403 0.006 -0.432 0.007 -0.46 0.007 -0.486 0.009 -0.51 0.009 -0.533 0.011 -0.554 0.013 -0.573 0.014 -0.59 0.017 -0.607 0.019 -0.62 0.021 -0.634 0.025 -0.644 0.027 -0.653 0.032 -0.661 0.035 -0.666 0.038 -0.67 0.043 -0.673 0.047 -0.672 0.052 -0.672 0.057 -0.669 0.062 -0.664 0.067 -0.658 0.072 -0.649 0.079 -0.64 0.085 -0.628 0.09 0 0zm-38.475 8.41l-0.533 -1.402 0 0 0.846 -0.309 0.919 -0.312 0.986 -0.314 1.048 -0.316 1.107 -0.317 1.16 -0.319 1.209 -0.319 1.252 -0.318 1.291 -0.318 1.326 -0.317 1.354 -0.315 1.378 -0.312 1.397 -0.31 1.411 -0.305 1.421 -0.3 1.424 -0.296 1.424 -0.289 1.417 -0.284 1.406 -0.276 1.391 -0.268 1.37 -0.26 1.343 -0.251 1.313 -0.241 1.276 -0.231 1.235 -0.219 1.19 -0.208 1.139 -0.196 1.082 -0.183 1.021 -0.169 0.955 -0.155 0.884 -0.139 0.809 -0.125 0.224 1.483 -0.801 0.124 -0.879 0.139 -0.95 0.153 -1.016 0.169 -1.078 0.182 -1.134 0.195 -1.185 0.207 -1.231 0.219 -1.272 0.23 -1.309 0.24 -1.339 0.25 -1.365 0.259 -1.386 0.268 -1.401 0.275 -1.413 0.282 -1.418 0.289 -1.419 0.294 -1.413 0.299 -1.405 0.304 -1.39 0.307 -1.371 0.311 -1.345 0.312 -1.316 0.315 -1.281 0.316 -1.24 0.315 -1.195 0.316 -1.145 0.314 -1.089 0.313 -1.027 0.309 -0.962 0.306 -0.889 0.302 -0.811 0.296 0 0zm3.009 0.076l0.053 1.499 0 0 -0.551 0.016 -0.512 0.009 -0.474 0.002 -0.438 -0.005 -0.403 -0.012 -0.371 -0.018 -0.338 -0.025 -0.309 -0.03 -0.281 -0.038 -0.256 -0.043 -0.233 -0.052 -0.214 -0.06 -0.199 -0.072 -0.188 -0.091 -0.183 -0.118 -0.173 -0.163 -0.149 -0.221 -0.09 -0.276 -0.005 -0.284 0.063 -0.248 0.101 -0.198 0.116 -0.156 0.124 -0.129 0.129 -0.112 0.135 -0.101 0.14 -0.092 0.148 -0.087 0.153 -0.081 0.158 -0.078 0.164 -0.075 0.169 -0.071 0.172 -0.068 0.533 1.402 -0.139 0.055 -0.132 0.055 -0.125 0.057 -0.115 0.057 -0.104 0.055 -0.09 0.054 -0.075 0.049 -0.056 0.041 -0.036 0.03 -0.013 0.013 0.012 -0.015 0.028 -0.059 0.028 -0.111 -0.003 -0.151 -0.048 -0.146 -0.064 -0.096 -0.044 -0.041 -0.005 -0.004 0.039 0.018 0.08 0.029 0.12 0.034 0.157 0.034 0.193 0.033 0.229 0.03 0.265 0.027 0.302 0.022 0.337 0.016 0.375 0.011 0.414 0.005 0.453 -0.002 0.492 -0.008 0.534 -0.016 0 0zm48.283 -0.474l0.06 1.499 0 0 -0.754 0.026 -0.905 0.024 -1.047 0.022 -1.179 0.021 -1.301 0.02 -1.413 0.018 -1.515 0.017 -1.605 0.016 -1.686 0.015 -1.756 0.014 -1.816 0.013 -1.865 0.013 -1.903 0.012 -1.931 0.011 -1.949 0.011 -1.957 0.011 -1.953 0.011 -1.939 0.01 -1.915 0.01 -1.881 0.011 -1.834 0.01 -1.78 0.011 -1.713 0.012 -1.636 0.011 -1.549 0.013 -1.451 0.013 -1.343 0.014 -1.224 0.015 -1.095 0.015 -0.954 0.017 -0.802 0.018 -0.639 0.019 -0.053 -1.499 0.654 -0.02 0.811 -0.018 0.96 -0.017 1.098 -0.015 1.227 -0.015 1.345 -0.014 1.453 -0.013 1.551 -0.013 1.637 -0.012 1.714 -0.011 1.78 -0.011 1.835 -0.01 1.88 -0.011 1.916 -0.01 1.939 -0.011 1.953 -0.01 1.956 -0.011 1.949 -0.011 1.931 -0.011 1.903 -0.012 1.863 -0.013 1.815 -0.013 1.755 -0.014 1.685 -0.015 1.603 -0.016 1.512 -0.017 1.411 -0.018 1.298 -0.02 1.174 -0.02 1.041 -0.023 0.895 -0.024 0.739 -0.025 0 0zm39.51 1.79l-0.303 1.469 -0.923 -0.177 -0.997 -0.167 -1.065 -0.158 -1.127 -0.147 -1.183 -0.137 -1.234 -0.129 -1.28 -0.118 -1.319 -0.11 -1.355 -0.101 -1.384 -0.092 -1.408 -0.084 -1.427 -0.076 -1.44 -0.068 -1.449 -0.061 -1.453 -0.053 -1.45 -0.046 -1.443 -0.041 -1.43 -0.033 -1.412 -0.027 -1.39 -0.022 -1.362 -0.016 -1.328 -0.011 -1.289 -0.007 -1.246 -0.001 -1.196 0.003 -1.142 0.007 -1.082 0.011 -1.018 0.014 -0.948 0.018 -0.872 0.02 -0.79 0.023 -0.705 0.026 -0.06 -1.499 0.716 -0.026 0.8 -0.023 0.88 -0.021 0.955 -0.018 1.023 -0.014 1.089 -0.011 1.147 -0.007 1.202 -0.003 1.251 0.001 1.295 0.007 1.334 0.011 1.366 0.016 1.396 0.022 1.418 0.027 1.437 0.034 1.449 0.04 1.457 0.047 1.46 0.053 1.457 0.062 1.449 0.068 1.436 0.076 1.418 0.085 1.395 0.093 1.367 0.101 1.333 0.111 1.295 0.121 1.251 0.13 1.203 0.139 1.149 0.151 1.092 0.161 1.028 0.172 0.962 0.185zm0 0c0.405,0.083 0.666,0.48 0.583,0.886 -0.083,0.405 -0.48,0.667 -0.886,0.583l0.303 -1.469z"/>
   </g>
   <g>
    <path class="fil0" d="M181.729 57.803c0.014,-0.414 0.362,-0.737 0.776,-0.723 0.414,0.015 0.737,0.363 0.723,0.776l-1.499 -0.053zm0.49 1.37l-0.404 -1.444 -0.006 0.002 -0.006 0.002 -0.01 0.004 -0.012 0.007 -0.009 0.006 -0.008 0.005 -0.01 0.008 -0.008 0.008 -0.005 0.005 -0.006 0.007 -0.006 0.008 0 0 -0.001 0.002 -0.004 0.007 0 0.001 0.002 -0.006 0.001 -0.001 -0.001 0.002 0.001 -0.003 0 -0.001 0.001 -0.005 0.002 -0.005 0 -0.002 0.001 -0.003 -0.001 0 0.001 -0.001 -0.001 0.003 0 0.001 0 -0.004 0 0.002 -0.001 0.016 0 0.009 1.499 0.053 0 0.013 -0.002 0.024 -0.001 0.016 -0.002 0.014 -0.002 0.024 -0.004 0.03 -0.004 0.03 -0.006 0.035 -0.007 0.035 -0.008 0.039 -0.009 0.039 -0.011 0.04 -0.014 0.047 -0.015 0.047 -0.02 0.053 -0.021 0.051 -0.021 0.046 -0.027 0.054 -0.033 0.061 -0.034 0.055 -0.036 0.052 -0.045 0.059 -0.048 0.058 -0.051 0.054 -0.058 0.054 -0.064 0.054 -0.066 0.048 -0.071 0.045 -0.079 0.044 -0.082 0.037 -0.081 0.032 -0.087 0.027zm0 0c-0.399,0.111 -0.813,-0.121 -0.924,-0.52 -0.112,-0.399 0.121,-0.813 0.52,-0.924l0.404 1.444z"/>
   </g>
  </g>
 </g>
</svg>
