<?xml version="1.0" encoding="UTF-8"?>
<!DOCTYPE svg PUBLIC "-//W3C//DTD SVG 1.1//EN" "http://www.w3.org/Graphics/SVG/1.1/DTD/svg11.dtd">
<!-- Creator: CorelDRAW 2019 (64-Bit) -->
<svg xmlns="http://www.w3.org/2000/svg" xml:space="preserve" width="200px" height="100px" version="1.1" style="shape-rendering:geometricPrecision; text-rendering:geometricPrecision; image-rendering:optimizeQuality; fill-rule:evenodd; clip-rule:evenodd"
viewBox="0 0 200 100"
 xmlns:xlink="http://www.w3.org/1999/xlink"
 xmlns:xodm="http://www.corel.com/coreldraw/odm/2003">
 <defs>
  <style type="text/css">
   <![CDATA[
    .fil0 {fill:black;fill-rule:nonzero}
   ]]>
  </style>
 </defs>
 <g id="Layer_x0020_1">
  <metadata id="CorelCorpID_0Corel-Layer"/>
  <g id="_2368742842704">
   <g>
    <path class="fil0" d="M12.287 59.313c0.386,-0.15 0.821,0.042 0.97,0.428 0.15,0.386 -0.042,0.821 -0.428,0.971l-0.542 -1.399zm-4.905 3.062l0.353 1.458 0 0 -0.693 0.162 -0.58 0.124 -0.48 0.089 -0.39 0.056 -0.325 0.024 -0.326 -0.025 -0.523 -0.312 -0.085 -0.85 0.242 -0.314 0.218 -0.172 0.242 -0.153 0.279 -0.157 0.319 -0.167 0.355 -0.174 0.387 -0.184 0.414 -0.189 0.435 -0.195 0.452 -0.198 0.462 -0.199 0.466 -0.197 0.463 -0.193 0.456 -0.189 0.441 -0.181 0.422 -0.17 0.394 -0.159 0.362 -0.146 0.324 -0.128 0.278 -0.11 0.228 -0.09 0.17 -0.066 0.107 -0.042 0.038 -0.015 0.542 1.399 -0.036 0.014 -0.105 0.04 -0.168 0.066 -0.225 0.089 -0.276 0.11 -0.321 0.127 -0.359 0.143 -0.391 0.158 -0.417 0.169 -0.437 0.179 -0.451 0.187 -0.458 0.191 -0.459 0.194 -0.453 0.195 -0.442 0.194 -0.424 0.189 -0.399 0.183 -0.368 0.175 -0.33 0.162 -0.282 0.147 -0.226 0.127 -0.155 0.099 -0.059 0.043 0.097 -0.142 -0.084 -0.723 -0.365 -0.236 0.001 -0.004 0.184 -0.014 0.314 -0.045 0.431 -0.08 0.548 -0.118 0.668 -0.156 0 0zm30.271 -8.488l0.334 1.462 0 0 -0.534 0.127 -0.601 0.149 -0.662 0.171 -0.719 0.191 -0.772 0.21 -0.822 0.227 -0.866 0.243 -0.907 0.257 -0.945 0.27 -0.979 0.282 -1.008 0.293 -1.035 0.3 -1.057 0.309 -1.075 0.315 -1.091 0.319 -1.101 0.322 -1.109 0.325 -1.112 0.325 -1.112 0.324 -1.108 0.323 -1.101 0.318 -1.088 0.314 -1.074 0.308 -1.055 0.3 -1.033 0.291 -1.006 0.281 -0.976 0.268 -0.943 0.256 -0.905 0.242 -0.864 0.225 -0.82 0.209 -0.772 0.19 -0.353 -1.458 0.76 -0.187 0.81 -0.206 0.856 -0.223 0.898 -0.24 0.937 -0.255 0.971 -0.267 1.002 -0.28 1.029 -0.29 1.052 -0.299 1.071 -0.307 1.087 -0.313 1.099 -0.318 1.107 -0.322 1.11 -0.324 1.112 -0.325 1.108 -0.324 1.102 -0.323 1.09 -0.319 1.076 -0.315 1.058 -0.309 1.036 -0.301 1.011 -0.293 0.981 -0.282 0.948 -0.271 0.911 -0.259 0.871 -0.244 0.827 -0.229 0.779 -0.211 0.728 -0.194 0.674 -0.174 0.615 -0.153 0.555 -0.131 0 0zm32.136 -6.081l0.205 1.486 -0.923 0.13 -0.962 0.142 -0.998 0.154 -1.031 0.163 -1.061 0.174 -1.086 0.181 -1.108 0.19 -1.127 0.196 -1.142 0.203 -1.154 0.208 -1.163 0.213 -1.168 0.216 -1.169 0.22 -1.167 0.222 -1.162 0.223 -1.153 0.223 -1.14 0.224 -1.125 0.222 -1.106 0.22 -1.083 0.219 -1.057 0.214 -1.028 0.21 -0.995 0.205 -0.958 0.2 -0.918 0.192 -0.875 0.185 -0.829 0.177 -0.778 0.168 -0.725 0.157 -0.667 0.147 -0.606 0.136 -0.543 0.123 -0.334 -1.462 0.548 -0.124 0.61 -0.137 0.672 -0.148 0.728 -0.158 0.781 -0.169 0.831 -0.177 0.878 -0.186 0.921 -0.193 0.961 -0.2 0.997 -0.205 1.029 -0.211 1.06 -0.215 1.085 -0.218 1.109 -0.221 1.127 -0.223 1.144 -0.224 1.155 -0.224 1.165 -0.224 1.17 -0.222 1.172 -0.22 1.171 -0.217 1.166 -0.214 1.159 -0.209 1.146 -0.203 1.132 -0.197 1.113 -0.191 1.092 -0.183 1.067 -0.173 1.037 -0.165 1.007 -0.155 0.971 -0.143 0.932 -0.132zm0 0c0.41,-0.056 0.789,0.231 0.845,0.641 0.057,0.41 -0.23,0.789 -0.64,0.845l-0.205 -1.486z"/>
   </g>
   <g>
    <path class="fil0" d="M75.537 55.224c0.373,-0.179 0.821,-0.021 1.001,0.352 0.179,0.373 0.021,0.822 -0.352,1.001l-0.649 -1.353zm-4.484 2.805l0.538 1.4 0 0 -0.595 0.226 -0.498 0.182 -0.406 0.141 -0.324 0.104 -0.261 0.07 -0.251 0.042 -0.609 -0.191 -0.109 -1.047 0.209 -0.211 0.18 -0.13 0.207 -0.131 0.244 -0.143 0.279 -0.158 0.314 -0.171 0.342 -0.183 0.367 -0.193 0.385 -0.199 0.4 -0.204 0.408 -0.207 0.412 -0.207 0.41 -0.205 0.403 -0.2 0.39 -0.192 0.371 -0.183 0.349 -0.17 0.32 -0.156 0.285 -0.139 0.246 -0.119 0.2 -0.097 0.15 -0.073 0.095 -0.045 0.033 -0.016 0.649 1.353 -0.032 0.015 -0.093 0.045 -0.149 0.072 -0.2 0.096 -0.244 0.118 -0.283 0.138 -0.318 0.155 -0.347 0.17 -0.37 0.182 -0.387 0.191 -0.4 0.198 -0.406 0.203 -0.408 0.205 -0.403 0.205 -0.395 0.201 -0.379 0.196 -0.357 0.188 -0.332 0.177 -0.298 0.163 -0.259 0.146 -0.212 0.125 -0.155 0.097 -0.076 0.054 0.068 -0.078 -0.121 -0.969 -0.485 -0.173 0.021 -0.006 0.172 -0.046 0.277 -0.089 0.378 -0.131 0.478 -0.175 0.582 -0.221 0 0zm20.931 -10.161l1.174 0.934 0 0 -0.272 0.306 -0.319 0.301 -0.365 0.302 -0.411 0.308 -0.455 0.315 -0.497 0.322 -0.538 0.33 -0.576 0.336 -0.611 0.343 -0.644 0.349 -0.675 0.355 -0.702 0.358 -0.727 0.362 -0.749 0.365 -0.769 0.367 -0.785 0.367 -0.799 0.367 -0.809 0.367 -0.818 0.364 -0.822 0.362 -0.825 0.358 -0.824 0.353 -0.821 0.348 -0.815 0.341 -0.805 0.334 -0.793 0.325 -0.778 0.316 -0.759 0.306 -0.74 0.294 -0.715 0.282 -0.689 0.269 -0.66 0.255 -0.538 -1.4 0.655 -0.253 0.684 -0.267 0.711 -0.28 0.734 -0.293 0.755 -0.304 0.773 -0.314 0.788 -0.323 0.8 -0.332 0.809 -0.338 0.815 -0.346 0.818 -0.351 0.819 -0.355 0.816 -0.358 0.81 -0.362 0.802 -0.362 0.79 -0.364 0.776 -0.363 0.758 -0.361 0.737 -0.36 0.715 -0.355 0.688 -0.352 0.658 -0.345 0.626 -0.339 0.59 -0.331 0.551 -0.323 0.508 -0.311 0.463 -0.3 0.413 -0.286 0.36 -0.269 0.301 -0.249 0.238 -0.224 0.17 -0.191 0 0zm-4.007 -4.713l0.241 -1.481 0 0 0.468 0.083 0.451 0.094 0.433 0.105 0.415 0.115 0.397 0.126 0.379 0.136 0.361 0.147 0.342 0.157 0.325 0.167 0.307 0.178 0.288 0.187 0.269 0.199 0.25 0.209 0.231 0.22 0.21 0.231 0.189 0.242 0.167 0.252 0.144 0.263 0.119 0.272 0.094 0.28 0.067 0.287 0.041 0.292 0.013 0.295 -0.014 0.297 -0.041 0.296 -0.066 0.295 -0.092 0.292 -0.115 0.29 -0.14 0.286 -0.162 0.281 -0.184 0.279 -0.206 0.275 -1.174 -0.934 0.155 -0.206 0.133 -0.202 0.113 -0.197 0.093 -0.191 0.075 -0.185 0.055 -0.179 0.039 -0.172 0.023 -0.166 0.008 -0.161 -0.007 -0.157 -0.021 -0.153 -0.036 -0.151 -0.05 -0.15 -0.066 -0.15 -0.082 -0.151 -0.1 -0.149 -0.118 -0.152 -0.136 -0.15 -0.158 -0.149 -0.177 -0.149 -0.198 -0.145 -0.219 -0.144 -0.239 -0.138 -0.261 -0.134 -0.282 -0.129 -0.303 -0.123 -0.323 -0.117 -0.345 -0.109 -0.364 -0.101 -0.385 -0.093 -0.405 -0.085 -0.426 -0.075 0 0zm-19.368 -4.042l0.953 -1.16 0 0 0.118 0.083 0.201 0.108 0.272 0.123 0.335 0.13 0.39 0.133 0.44 0.136 0.486 0.136 0.527 0.137 0.564 0.137 0.598 0.136 0.628 0.136 0.654 0.134 0.677 0.134 0.696 0.132 0.712 0.13 0.726 0.128 0.734 0.126 0.74 0.125 0.744 0.121 0.742 0.12 0.739 0.116 0.731 0.114 0.722 0.11 0.707 0.108 0.69 0.104 0.67 0.101 0.646 0.097 0.62 0.093 0.589 0.09 0.557 0.085 0.52 0.081 0.481 0.077 -0.241 1.481 -0.474 -0.076 -0.515 -0.08 -0.554 -0.085 -0.588 -0.089 -0.618 -0.093 -0.646 -0.097 -0.671 -0.102 -0.691 -0.104 -0.709 -0.108 -0.724 -0.111 -0.734 -0.114 -0.743 -0.117 -0.747 -0.12 -0.748 -0.123 -0.746 -0.124 -0.741 -0.128 -0.733 -0.13 -0.721 -0.132 -0.707 -0.133 -0.688 -0.136 -0.668 -0.137 -0.643 -0.139 -0.616 -0.141 -0.586 -0.142 -0.553 -0.144 -0.518 -0.145 -0.479 -0.148 -0.441 -0.15 -0.399 -0.155 -0.359 -0.162 -0.321 -0.176 -0.287 -0.201 0 0zm3.833 -8.755l0.655 1.35 0 0 -0.583 0.292 -0.538 0.288 -0.493 0.283 -0.45 0.279 -0.408 0.273 -0.368 0.267 -0.328 0.261 -0.29 0.253 -0.254 0.247 -0.219 0.237 -0.186 0.228 -0.155 0.219 -0.125 0.208 -0.099 0.199 -0.076 0.187 -0.053 0.178 -0.034 0.169 -0.017 0.162 -0.001 0.156 0.013 0.154 0.027 0.149 0.04 0.15 0.054 0.148 0.067 0.147 0.08 0.147 0.092 0.146 0.105 0.144 0.114 0.142 0.125 0.139 0.135 0.135 0.142 0.132 0.148 0.126 -0.953 1.16 -0.193 -0.165 -0.187 -0.174 -0.182 -0.184 -0.175 -0.195 -0.166 -0.204 -0.155 -0.216 -0.144 -0.227 -0.129 -0.238 -0.113 -0.25 -0.095 -0.262 -0.074 -0.273 -0.05 -0.282 -0.025 -0.292 0.003 -0.299 0.032 -0.303 0.061 -0.307 0.093 -0.308 0.123 -0.308 0.153 -0.308 0.185 -0.306 0.215 -0.304 0.247 -0.304 0.279 -0.302 0.312 -0.302 0.346 -0.302 0.381 -0.303 0.417 -0.303 0.454 -0.304 0.493 -0.305 0.534 -0.307 0.575 -0.308 0.618 -0.31 0 0zm13.89 -2.606l-0.942 1.168 -0.001 -0.001 -0.108 -0.078 -0.127 -0.074 -0.146 -0.07 -0.167 -0.063 -0.187 -0.055 -0.208 -0.047 -0.23 -0.037 -0.249 -0.026 -0.268 -0.015 -0.288 -0.004 -0.307 0.009 -0.324 0.021 -0.342 0.034 -0.359 0.047 -0.375 0.059 -0.392 0.073 -0.408 0.087 -0.423 0.099 -0.438 0.114 -0.454 0.126 -0.468 0.141 -0.482 0.153 -0.495 0.168 -0.51 0.181 -0.523 0.195 -0.536 0.209 -0.549 0.223 -0.561 0.235 -0.574 0.251 -0.587 0.264 -0.598 0.277 -0.609 0.292 -0.655 -1.35 0.625 -0.299 0.614 -0.284 0.602 -0.272 0.591 -0.257 0.58 -0.244 0.567 -0.23 0.556 -0.217 0.543 -0.202 0.532 -0.189 0.519 -0.176 0.506 -0.161 0.495 -0.148 0.481 -0.135 0.468 -0.121 0.455 -0.107 0.442 -0.094 0.43 -0.08 0.416 -0.066 0.403 -0.053 0.39 -0.038 0.378 -0.025 0.363 -0.01 0.352 0.004 0.339 0.02 0.326 0.034 0.313 0.051 0.301 0.067 0.289 0.086 0.276 0.104 0.261 0.124 0.247 0.145 0.23 0.168 0 -0.001zm-10.458 11.676l-0.552 -1.395 0.987 -0.402 0.928 -0.403 0.871 -0.402 0.816 -0.401 0.762 -0.4 0.71 -0.397 0.658 -0.394 0.608 -0.39 0.56 -0.385 0.512 -0.38 0.466 -0.373 0.422 -0.365 0.378 -0.357 0.337 -0.348 0.296 -0.337 0.257 -0.326 0.22 -0.312 0.185 -0.3 0.152 -0.285 0.119 -0.268 0.09 -0.253 0.063 -0.235 0.039 -0.216 0.016 -0.198 -0.003 -0.179 -0.019 -0.16 -0.034 -0.143 -0.046 -0.128 -0.056 -0.112 -0.066 -0.099 -0.076 -0.088 -0.084 -0.077 0.942 -1.168 0.22 0.201 0.195 0.228 0.167 0.251 0.137 0.274 0.105 0.291 0.073 0.308 0.039 0.321 0.005 0.332 -0.028 0.342 -0.062 0.349 -0.095 0.355 -0.13 0.363 -0.164 0.368 -0.198 0.374 -0.234 0.379 -0.271 0.384 -0.307 0.389 -0.346 0.394 -0.385 0.397 -0.426 0.402 -0.468 0.405 -0.511 0.409 -0.555 0.412 -0.601 0.413 -0.648 0.416 -0.697 0.417 -0.746 0.418 -0.798 0.418 -0.85 0.418 -0.904 0.418 -0.959 0.416 -1.016 0.414zm0 0c-0.385,0.152 -0.821,-0.037 -0.973,-0.422 -0.153,-0.385 0.036,-0.821 0.421,-0.973l0.552 1.395z"/>
   </g>
   <g>
    <path class="fil0" d="M102.978 60.056c-0.078,0.406 -0.472,0.672 -0.879,0.594 -0.406,-0.079 -0.672,-0.472 -0.594,-0.879l1.473 0.285zm3.416 -22.47l1.432 0.446 0 0 -0.149 0.496 -0.159 0.563 -0.168 0.625 -0.175 0.682 -0.183 0.731 -0.188 0.776 -0.193 0.815 -0.197 0.848 -0.199 0.876 -0.202 0.899 -0.202 0.917 -0.202 0.928 -0.202 0.935 -0.199 0.936 -0.197 0.932 -0.193 0.923 -0.189 0.908 -0.183 0.888 -0.176 0.862 -0.169 0.832 -0.161 0.796 -0.152 0.754 -0.142 0.708 -0.13 0.656 -0.119 0.598 -0.105 0.537 -0.093 0.468 -0.077 0.395 -0.062 0.315 -0.045 0.233 -0.028 0.144 -0.009 0.048 -1.473 -0.285 0.01 -0.05 0.028 -0.143 0.045 -0.233 0.062 -0.318 0.078 -0.395 0.092 -0.469 0.106 -0.537 0.119 -0.6 0.13 -0.657 0.142 -0.709 0.152 -0.756 0.162 -0.798 0.169 -0.834 0.177 -0.864 0.183 -0.89 0.189 -0.91 0.194 -0.926 0.198 -0.934 0.2 -0.939 0.202 -0.939 0.203 -0.932 0.203 -0.92 0.202 -0.904 0.201 -0.882 0.198 -0.855 0.195 -0.822 0.19 -0.784 0.185 -0.742 0.179 -0.694 0.173 -0.642 0.165 -0.584 0.157 -0.523 0 0zm-0.826 -1.518l-1.126 -0.991 0 0 0.272 -0.305 0.26 -0.284 0.251 -0.263 0.239 -0.242 0.229 -0.221 0.22 -0.201 0.211 -0.18 0.204 -0.16 0.201 -0.142 0.201 -0.121 0.206 -0.102 0.221 -0.079 0.249 -0.047 0.282 0.009 0.297 0.091 0.262 0.179 0.186 0.228 0.115 0.237 0.066 0.233 0.034 0.232 0.011 0.237 -0.006 0.248 -0.021 0.263 -0.036 0.281 -0.049 0.301 -0.063 0.323 -0.076 0.346 -0.089 0.369 -0.103 0.394 -0.117 0.418 -0.129 0.444 -0.144 0.469 -1.432 -0.446 0.138 -0.453 0.125 -0.426 0.11 -0.397 0.097 -0.37 0.083 -0.34 0.068 -0.313 0.056 -0.282 0.041 -0.253 0.028 -0.222 0.015 -0.188 0.004 -0.152 -0.005 -0.113 -0.01 -0.068 -0.003 -0.016 0.018 0.037 0.064 0.076 0.113 0.077 0.122 0.038 0.081 0.004 0.022 -0.004 -0.031 0.012 -0.073 0.037 -0.103 0.063 -0.129 0.09 -0.15 0.118 -0.169 0.145 -0.186 0.169 -0.201 0.195 -0.217 0.219 -0.231 0.243 -0.245 0.266 -0.258 0.29 0 0zm-8.904 16.28l-1.476 -0.263 0 0 0.074 -0.346 0.102 -0.374 0.128 -0.404 0.153 -0.433 0.175 -0.462 0.198 -0.49 0.22 -0.516 0.238 -0.539 0.256 -0.559 0.273 -0.579 0.289 -0.595 0.302 -0.608 0.316 -0.62 0.326 -0.628 0.336 -0.635 0.345 -0.638 0.351 -0.639 0.357 -0.637 0.361 -0.633 0.364 -0.626 0.365 -0.616 0.365 -0.604 0.364 -0.59 0.361 -0.573 0.356 -0.553 0.351 -0.53 0.345 -0.505 0.336 -0.479 0.327 -0.449 0.318 -0.417 0.306 -0.383 0.296 -0.348 1.126 0.991 -0.264 0.31 -0.281 0.352 -0.297 0.391 -0.311 0.426 -0.323 0.459 -0.332 0.489 -0.341 0.514 -0.348 0.539 -0.352 0.559 -0.356 0.578 -0.358 0.593 -0.359 0.605 -0.358 0.616 -0.355 0.622 -0.351 0.627 -0.346 0.629 -0.339 0.627 -0.33 0.624 -0.321 0.618 -0.309 0.608 -0.296 0.596 -0.283 0.581 -0.266 0.563 -0.248 0.544 -0.23 0.519 -0.21 0.494 -0.187 0.463 -0.164 0.43 -0.139 0.394 -0.112 0.353 -0.084 0.306 -0.054 0.251 0 0zm3.862 1.931l0.537 1.401 0 0 -0.454 0.168 -0.431 0.149 -0.411 0.129 -0.391 0.11 -0.371 0.091 -0.353 0.073 -0.336 0.054 -0.322 0.035 -0.307 0.015 -0.293 -0.004 -0.283 -0.025 -0.271 -0.048 -0.259 -0.072 -0.246 -0.098 -0.232 -0.124 -0.212 -0.151 -0.189 -0.173 -0.165 -0.194 -0.139 -0.21 -0.113 -0.221 -0.09 -0.229 -0.069 -0.235 -0.049 -0.241 -0.033 -0.244 -0.02 -0.25 -0.006 -0.256 0.005 -0.26 0.016 -0.265 0.025 -0.271 0.034 -0.277 0.041 -0.282 0.049 -0.289 1.476 0.263 -0.043 0.259 -0.036 0.248 -0.029 0.237 -0.021 0.226 -0.013 0.212 -0.004 0.198 0.005 0.183 0.012 0.167 0.021 0.15 0.027 0.132 0.033 0.114 0.037 0.096 0.04 0.08 0.043 0.064 0.046 0.054 0.051 0.047 0.059 0.042 0.073 0.039 0.091 0.036 0.113 0.031 0.137 0.024 0.163 0.015 0.189 0.003 0.215 -0.011 0.241 -0.027 0.267 -0.043 0.293 -0.06 0.319 -0.078 0.344 -0.097 0.37 -0.117 0.396 -0.136 0.423 -0.157 0 0zm14.873 -12.291l1.316 0.721 0 0 -0.278 0.481 -0.306 0.484 -0.333 0.486 -0.358 0.488 -0.381 0.488 -0.404 0.489 -0.425 0.488 -0.444 0.488 -0.462 0.485 -0.478 0.482 -0.494 0.479 -0.507 0.475 -0.519 0.469 -0.529 0.463 -0.54 0.456 -0.546 0.448 -0.554 0.439 -0.558 0.429 -0.561 0.419 -0.564 0.406 -0.564 0.394 -0.563 0.381 -0.561 0.366 -0.557 0.351 -0.552 0.334 -0.546 0.316 -0.538 0.299 -0.529 0.28 -0.518 0.259 -0.507 0.239 -0.495 0.216 -0.481 0.194 -0.537 -1.401 0.437 -0.175 0.455 -0.2 0.472 -0.222 0.488 -0.244 0.5 -0.264 0.512 -0.284 0.522 -0.304 0.529 -0.32 0.536 -0.337 0.54 -0.353 0.544 -0.367 0.545 -0.381 0.545 -0.393 0.543 -0.405 0.54 -0.415 0.535 -0.425 0.529 -0.433 0.52 -0.44 0.511 -0.447 0.501 -0.453 0.488 -0.456 0.473 -0.459 0.457 -0.462 0.44 -0.462 0.422 -0.463 0.401 -0.46 0.379 -0.459 0.355 -0.455 0.33 -0.449 0.303 -0.443 0.275 -0.435 0.246 -0.426 0 0zm-2.412 -11.607l0.35 -1.459 0 0 0.639 0.174 0.598 0.204 0.557 0.235 0.518 0.264 0.478 0.292 0.438 0.32 0.398 0.347 0.359 0.372 0.318 0.394 0.278 0.413 0.24 0.432 0.201 0.448 0.164 0.461 0.129 0.471 0.095 0.481 0.063 0.489 0.033 0.494 0.004 0.501 -0.022 0.503 -0.048 0.508 -0.072 0.509 -0.094 0.51 -0.115 0.511 -0.135 0.51 -0.153 0.508 -0.171 0.506 -0.186 0.503 -0.202 0.498 -0.216 0.493 -0.228 0.486 -0.24 0.479 -0.25 0.471 -1.316 -0.721 0.233 -0.438 0.223 -0.446 0.212 -0.451 0.2 -0.455 0.185 -0.459 0.172 -0.461 0.155 -0.461 0.139 -0.461 0.121 -0.458 0.103 -0.455 0.082 -0.45 0.063 -0.444 0.041 -0.436 0.019 -0.427 -0.003 -0.417 -0.027 -0.405 -0.051 -0.393 -0.075 -0.379 -0.099 -0.365 -0.125 -0.351 -0.151 -0.335 -0.177 -0.321 -0.206 -0.306 -0.235 -0.291 -0.267 -0.277 -0.301 -0.261 -0.337 -0.247 -0.376 -0.23 -0.416 -0.212 -0.46 -0.193 -0.503 -0.173 -0.551 -0.149 0 0zm-19.245 6.299l-1.289 -0.768 0 0 0.261 -0.389 0.311 -0.38 0.356 -0.374 0.4 -0.37 0.441 -0.366 0.481 -0.363 0.517 -0.36 0.552 -0.355 0.585 -0.35 0.616 -0.344 0.644 -0.337 0.669 -0.328 0.692 -0.318 0.714 -0.307 0.731 -0.296 0.749 -0.281 0.761 -0.267 0.772 -0.25 0.781 -0.232 0.788 -0.213 0.79 -0.193 0.793 -0.17 0.791 -0.147 0.788 -0.122 0.782 -0.096 0.773 -0.067 0.764 -0.038 0.751 -0.006 0.735 0.028 0.72 0.062 0.699 0.1 0.677 0.139 -0.35 1.459 -0.584 -0.12 -0.613 -0.087 -0.641 -0.056 -0.665 -0.024 -0.686 0.005 -0.705 0.035 -0.719 0.062 -0.733 0.09 -0.741 0.114 -0.749 0.139 -0.752 0.162 -0.752 0.184 -0.751 0.203 -0.746 0.222 -0.738 0.239 -0.729 0.255 -0.715 0.269 -0.699 0.282 -0.681 0.293 -0.659 0.303 -0.635 0.312 -0.608 0.318 -0.578 0.323 -0.545 0.326 -0.51 0.328 -0.471 0.327 -0.429 0.324 -0.384 0.319 -0.336 0.311 -0.285 0.299 -0.231 0.282 -0.175 0.26 0 0zm1.697 3.209l-0.078 1.498 0 0 -0.148 -0.01 -0.156 -0.016 -0.163 -0.022 -0.17 -0.028 -0.176 -0.035 -0.182 -0.043 -0.186 -0.049 -0.189 -0.059 -0.192 -0.067 -0.192 -0.077 -0.193 -0.088 -0.192 -0.099 -0.189 -0.111 -0.186 -0.125 -0.18 -0.139 -0.173 -0.154 -0.164 -0.171 -0.151 -0.189 -0.138 -0.205 -0.119 -0.223 -0.099 -0.24 -0.076 -0.254 -0.051 -0.267 -0.024 -0.278 0.002 -0.288 0.029 -0.295 0.056 -0.304 0.084 -0.31 0.11 -0.319 0.139 -0.327 0.166 -0.337 0.195 -0.346 1.289 0.768 -0.158 0.28 -0.129 0.261 -0.102 0.241 -0.077 0.222 -0.054 0.201 -0.034 0.183 -0.016 0.164 -0.002 0.147 0.012 0.131 0.023 0.119 0.032 0.107 0.041 0.099 0.05 0.094 0.06 0.089 0.069 0.085 0.079 0.082 0.089 0.08 0.099 0.076 0.107 0.072 0.115 0.067 0.122 0.063 0.128 0.058 0.131 0.053 0.134 0.047 0.135 0.041 0.135 0.037 0.133 0.03 0.129 0.026 0.124 0.02 0.117 0.016 0.108 0.011 0.097 0.007 0 0zm2.426 0.643l-0.983 1.133 -0.084 -0.072 -0.074 -0.063 -0.067 -0.054 -0.06 -0.047 -0.05 -0.039 -0.043 -0.03 -0.033 -0.023 -0.024 -0.014 -0.017 -0.009 -0.006 -0.003 0.001 0 0.011 0.004 0.013 0.003 0.015 0.002 0.016 0.002 0.005 0 -0.004 0.001 -0.011 0 -0.021 0.003 -0.033 0.004 -0.043 0.006 -0.053 0.008 -0.063 0.009 -0.069 0.009 -0.078 0.009 -0.085 0.008 -0.091 0.007 -0.101 0.005 -0.108 0.003 -0.113 0.001 -0.122 -0.002 -0.129 -0.006 0.078 -1.498 0.096 0.004 0.088 0.002 0.079 -0.001 0.071 -0.002 0.064 -0.003 0.061 -0.005 0.056 -0.005 0.051 -0.006 0.052 -0.006 0.048 -0.008 0.051 -0.007 0.055 -0.008 0.058 -0.008 0.067 -0.007 0.073 -0.005 0.076 -0.002 0.085 0.003 0.096 0.009 0.094 0.017 0.094 0.023 0.094 0.031 0.089 0.036 0.085 0.041 0.08 0.045 0.08 0.049 0.078 0.052 0.077 0.055 0.079 0.06 0.08 0.063 0.085 0.07 0.09 0.075 0.094 0.081zm0 0c0.313,0.271 0.347,0.745 0.075,1.058 -0.271,0.313 -0.745,0.347 -1.058,0.075l0.983 -1.133z"/>
   </g>
   <g>
    <path class="fil0" d="M62.991 73.027c-0.369,0.105 -0.747,-0.134 -0.844,-0.535 -0.097,-0.402 0.123,-0.813 0.491,-0.919l0.353 1.454zm124.958 -19.753l0.044 1.503 0 0 -3.556 0.158 -3.798 0.233 -4.018 0.304 -4.217 0.369 -4.392 0.431 -4.546 0.486 -4.678 0.537 -4.787 0.584 -4.876 0.625 -4.943 0.661 -4.986 0.693 -5.008 0.719 -5.01 0.742 -4.988 0.758 -4.945 0.77 -4.88 0.777 -4.792 0.78 -4.685 0.777 -4.554 0.769 -4.401 0.757 -4.227 0.739 -4.031 0.717 -3.814 0.69 -3.573 0.658 -3.312 0.621 -3.029 0.58 -2.722 0.532 -2.395 0.481 -2.046 0.425 -1.672 0.362 -1.275 0.295 -0.846 0.22 -0.353 -1.454 0.899 -0.233 1.299 -0.301 1.685 -0.365 2.055 -0.426 2.402 -0.483 2.728 -0.533 3.033 -0.58 3.317 -0.623 3.577 -0.658 3.817 -0.691 4.035 -0.718 4.231 -0.74 4.405 -0.757 4.558 -0.77 4.688 -0.778 4.797 -0.78 4.884 -0.778 4.949 -0.771 4.993 -0.758 5.014 -0.743 5.015 -0.72 4.992 -0.693 4.949 -0.663 4.883 -0.626 4.796 -0.584 4.687 -0.539 4.557 -0.487 4.404 -0.432 4.23 -0.37 4.035 -0.305 3.818 -0.235 3.579 -0.159 0 0zm3.932 3.327l-0.301 -1.467 0.022 -0.005 0.074 -0.019 0.117 -0.03 0.152 -0.04 0.185 -0.05 0.21 -0.059 0.229 -0.066 0.242 -0.073 0.249 -0.078 0.251 -0.083 0.244 -0.085 0.23 -0.088 0.212 -0.088 0.183 -0.084 0.144 -0.076 0.091 -0.058 0.019 -0.014 -0.068 0.106 -0.051 0.344 0.133 0.322 0.086 0.079 -0.054 -0.023 -0.173 -0.049 -0.277 -0.052 -0.377 -0.048 -0.477 -0.041 -0.579 -0.031 -0.687 -0.02 -0.798 -0.007 -0.916 0.004 -1.037 0.02 -1.166 0.035 -0.044 -1.503 1.179 -0.035 1.052 -0.02 0.934 -0.005 0.82 0.008 0.714 0.021 0.615 0.033 0.522 0.044 0.439 0.057 0.367 0.069 0.312 0.089 0.284 0.129 0.287 0.241 0.21 0.496 -0.087 0.525 -0.205 0.294 -0.206 0.179 -0.212 0.137 -0.225 0.12 -0.239 0.11 -0.253 0.105 -0.264 0.1 -0.27 0.095 -0.27 0.089 -0.266 0.084 -0.257 0.077 -0.242 0.07 -0.22 0.061 -0.193 0.053 -0.162 0.042 -0.123 0.032 -0.078 0.02 -0.031 0.007zm0 0c-0.372,0.091 -0.741,-0.164 -0.824,-0.57 -0.083,-0.405 0.151,-0.807 0.523,-0.897l0.301 1.467z"/>
   </g>
  </g>
 </g>
</svg>
