<?xml version="1.0" encoding="UTF-8"?>
<!DOCTYPE svg PUBLIC "-//W3C//DTD SVG 1.1//EN" "http://www.w3.org/Graphics/SVG/1.1/DTD/svg11.dtd">
<!-- Creator: CorelDRAW 2019 (64-Bit) -->
<svg xmlns="http://www.w3.org/2000/svg" xml:space="preserve" width="200px" height="100px" version="1.1" style="shape-rendering:geometricPrecision; text-rendering:geometricPrecision; image-rendering:optimizeQuality; fill-rule:evenodd; clip-rule:evenodd"
viewBox="0 0 200 100"
 xmlns:xlink="http://www.w3.org/1999/xlink"
 xmlns:xodm="http://www.corel.com/coreldraw/odm/2003">
 <defs>
  <style type="text/css">
   <![CDATA[
    .fil0 {fill:black;fill-rule:nonzero}
   ]]>
  </style>
 </defs>
 <g id="Layer_x0020_1">
  <metadata id="CorelCorpID_0Corel-Layer"/>
  <g>
   <path class="fil0" d="M56.429 49.282c-0.413,0.027 -0.771,-0.286 -0.797,-0.699 -0.027,-0.414 0.286,-0.771 0.7,-0.798l0.097 1.497zm54.177 -23.998l1.061 1.06 0 0 -0.614 0.57 -0.746 0.615 -0.876 0.662 -1 0.707 -1.118 0.748 -1.231 0.787 -1.337 0.821 -1.437 0.85 -1.53 0.874 -1.617 0.896 -1.697 0.91 -1.769 0.922 -1.836 0.929 -1.895 0.93 -1.948 0.928 -1.993 0.919 -2.033 0.909 -2.064 0.89 -2.09 0.87 -2.109 0.843 -2.12 0.813 -2.125 0.777 -2.124 0.736 -2.114 0.691 -2.1 0.642 -2.077 0.587 -2.049 0.529 -2.014 0.464 -1.972 0.395 -1.924 0.322 -1.87 0.243 -1.809 0.159 -0.097 -1.497 1.743 -0.153 1.812 -0.236 1.873 -0.313 1.928 -0.387 1.974 -0.455 2.013 -0.519 2.046 -0.578 2.07 -0.633 2.088 -0.683 2.099 -0.728 2.103 -0.768 2.099 -0.805 2.089 -0.835 2.072 -0.862 2.046 -0.883 2.016 -0.9 1.977 -0.913 1.931 -0.92 1.879 -0.922 1.82 -0.92 1.753 -0.914 1.68 -0.902 1.6 -0.885 1.511 -0.865 1.417 -0.837 1.315 -0.807 1.206 -0.771 1.09 -0.73 0.964 -0.682 0.832 -0.629 0.691 -0.569 0.537 -0.497 0 0zm-3.114 -7.422l-0.368 -1.454 0 0 0.851 -0.199 0.804 -0.154 0.756 -0.109 0.71 -0.067 0.666 -0.023 0.623 0.018 0.582 0.061 0.541 0.103 0.501 0.146 0.461 0.191 0.417 0.236 0.373 0.282 0.322 0.325 0.266 0.365 0.208 0.397 0.149 0.422 0.091 0.44 0.038 0.454 -0.013 0.464 -0.06 0.474 -0.104 0.48 -0.146 0.489 -0.185 0.495 -0.225 0.501 -0.262 0.507 -0.299 0.513 -0.334 0.516 -0.37 0.52 -0.404 0.522 -0.438 0.523 -0.472 0.523 -0.504 0.521 -1.061 -1.06 0.469 -0.485 0.436 -0.484 0.402 -0.48 0.368 -0.475 0.333 -0.468 0.298 -0.46 0.262 -0.449 0.225 -0.436 0.188 -0.421 0.152 -0.403 0.115 -0.384 0.077 -0.36 0.043 -0.336 0.009 -0.308 -0.023 -0.28 -0.052 -0.252 -0.079 -0.225 -0.106 -0.202 -0.134 -0.184 -0.167 -0.169 -0.207 -0.156 -0.251 -0.142 -0.301 -0.125 -0.354 -0.103 -0.408 -0.077 -0.464 -0.048 -0.519 -0.016 -0.575 0.021 -0.63 0.058 -0.685 0.099 -0.74 0.142 -0.796 0.186 0 0zm-30.134 29.029l0.038 1.499 0 0 -4.263 0.03 -3.62 -0.14 -3.013 -0.3 -2.446 -0.456 -1.922 -0.613 -1.445 -0.79 -0.982 -1.016 -0.449 -1.24 0.116 -1.31 0.571 -1.284 0.931 -1.279 1.249 -1.299 1.536 -1.33 1.796 -1.36 2.027 -1.385 2.227 -1.403 2.397 -1.41 2.537 -1.41 2.644 -1.398 2.72 -1.379 2.765 -1.347 2.779 -1.306 2.76 -1.255 2.71 -1.193 2.628 -1.122 2.514 -1.039 2.369 -0.948 2.193 -0.845 1.984 -0.732 1.747 -0.61 1.479 -0.477 1.189 -0.336 0.368 1.454 -1.118 0.317 -1.439 0.464 -1.718 0.6 -1.962 0.724 -2.174 0.837 -2.353 0.941 -2.498 1.033 -2.612 1.115 -2.694 1.187 -2.743 1.247 -2.761 1.298 -2.746 1.337 -2.698 1.367 -2.618 1.385 -2.507 1.393 -2.363 1.39 -2.184 1.375 -1.974 1.349 -1.729 1.309 -1.449 1.254 -1.134 1.179 -0.785 1.073 -0.415 0.92 -0.074 0.726 0.219 0.606 0.609 0.621 1.132 0.616 1.705 0.541 2.296 0.428 2.907 0.289 3.542 0.137 4.204 -0.029 0 0zm36.373 -2.945l-0.716 1.319 0 0 -0.486 -0.214 -0.627 -0.187 -0.755 -0.15 -0.868 -0.111 -0.971 -0.073 -1.062 -0.035 -1.143 0.001 -1.214 0.034 -1.277 0.064 -1.33 0.094 -1.375 0.118 -1.412 0.142 -1.439 0.162 -1.458 0.179 -1.47 0.194 -1.472 0.206 -1.466 0.215 -1.453 0.222 -1.43 0.225 -1.4 0.227 -1.36 0.225 -1.314 0.22 -1.259 0.214 -1.196 0.203 -1.124 0.191 -1.045 0.175 -0.957 0.158 -0.864 0.137 -0.76 0.114 -0.654 0.088 -0.542 0.06 -0.436 0.027 -0.038 -1.499 0.339 -0.022 0.493 -0.055 0.626 -0.084 0.743 -0.111 0.853 -0.136 0.951 -0.156 1.041 -0.175 1.123 -0.191 1.196 -0.203 1.26 -0.214 1.317 -0.221 1.365 -0.226 1.405 -0.227 1.437 -0.227 1.461 -0.223 1.475 -0.216 1.483 -0.208 1.482 -0.195 1.473 -0.181 1.455 -0.164 1.431 -0.143 1.398 -0.121 1.357 -0.095 1.307 -0.066 1.252 -0.035 1.189 -0.001 1.117 0.037 1.041 0.078 0.959 0.123 0.872 0.174 0.782 0.234 0.69 0.305 0 0zm-3.758 8.173l-0.281 -1.473 0 0 0.626 -0.131 0.578 -0.141 0.533 -0.153 0.488 -0.162 0.444 -0.171 0.401 -0.177 0.358 -0.182 0.317 -0.187 0.278 -0.189 0.238 -0.189 0.202 -0.188 0.168 -0.185 0.135 -0.182 0.106 -0.176 0.08 -0.172 0.057 -0.167 0.035 -0.164 0.016 -0.164 -0.002 -0.163 -0.021 -0.165 -0.038 -0.168 -0.059 -0.17 -0.076 -0.173 -0.098 -0.174 -0.116 -0.175 -0.136 -0.173 -0.155 -0.171 -0.174 -0.167 -0.191 -0.162 -0.209 -0.154 -0.224 -0.148 -0.238 -0.138 0.716 -1.319 0.311 0.181 0.296 0.194 0.28 0.209 0.263 0.222 0.245 0.236 0.225 0.248 0.205 0.261 0.183 0.273 0.158 0.285 0.132 0.297 0.104 0.307 0.074 0.317 0.04 0.325 0.004 0.33 -0.033 0.332 -0.071 0.331 -0.111 0.326 -0.148 0.318 -0.185 0.31 -0.223 0.297 -0.257 0.285 -0.293 0.273 -0.328 0.26 -0.363 0.247 -0.399 0.235 -0.435 0.222 -0.472 0.209 -0.511 0.196 -0.55 0.183 -0.591 0.169 -0.633 0.155 -0.675 0.14 0 0zm-105.332 25.319l-1.436 -0.435 0 0 0.58 -0.903 0.953 -0.747 1.306 -0.731 1.662 -0.752 2.005 -0.783 2.33 -0.813 2.635 -0.843 2.916 -0.869 3.174 -0.893 3.409 -0.913 3.62 -0.93 3.807 -0.943 3.969 -0.953 4.109 -0.959 4.223 -0.963 4.313 -0.962 4.379 -0.958 4.421 -0.95 4.439 -0.938 4.432 -0.924 4.4 -0.906 4.346 -0.883 4.266 -0.858 4.161 -0.829 4.034 -0.796 3.88 -0.76 3.704 -0.72 3.502 -0.677 3.278 -0.63 3.027 -0.579 2.752 -0.525 2.455 -0.467 0.281 1.473 -2.454 0.467 -2.753 0.526 -3.026 0.579 -3.276 0.629 -3.5 0.677 -3.702 0.72 -3.879 0.759 -4.031 0.796 -4.159 0.828 -4.263 0.857 -4.342 0.883 -4.397 0.905 -4.428 0.923 -4.434 0.938 -4.416 0.948 -4.373 0.957 -4.307 0.96 -4.216 0.961 -4.1 0.958 -3.96 0.951 -3.795 0.94 -3.607 0.927 -3.392 0.908 -3.155 0.887 -2.89 0.862 -2.602 0.832 -2.287 0.798 -1.944 0.758 -1.571 0.712 -1.161 0.648 -0.701 0.541 -0.211 0.284 0 0zm102.485 -25.214l0.351 1.459 0 0 -1.252 0.309 -1.708 0.436 -2.13 0.551 -2.518 0.658 -2.874 0.753 -3.196 0.84 -3.486 0.917 -3.743 0.984 -3.969 1.042 -4.16 1.09 -4.321 1.128 -4.447 1.157 -4.543 1.177 -4.605 1.186 -4.634 1.186 -4.632 1.176 -4.596 1.158 -4.529 1.128 -4.429 1.091 -4.296 1.042 -4.131 0.984 -3.934 0.918 -3.705 0.841 -3.442 0.755 -3.149 0.659 -2.823 0.554 -2.468 0.44 -2.083 0.315 -1.675 0.182 -1.266 0.034 -0.973 -0.193 -0.555 -1.178 1.436 0.435 -0.233 -0.61 0.395 0.048 1.084 -0.032 1.591 -0.173 2.034 -0.308 2.436 -0.434 2.802 -0.55 3.132 -0.656 3.43 -0.752 3.695 -0.839 3.926 -0.916 4.125 -0.983 4.291 -1.041 4.424 -1.089 4.525 -1.128 4.593 -1.156 4.629 -1.176 4.632 -1.185 4.603 -1.186 4.541 -1.176 4.446 -1.157 4.319 -1.128 4.16 -1.089 3.968 -1.042 3.743 -0.984 3.486 -0.917 3.196 -0.839 2.875 -0.754 2.52 -0.658 2.134 -0.553 1.716 -0.437 1.267 -0.314 0 0zm5.348 -2.935l1.494 -0.138 0 0 0.007 0.221 -0.019 0.219 -0.043 0.211 -0.065 0.205 -0.084 0.196 -0.1 0.186 -0.115 0.179 -0.128 0.172 -0.14 0.166 -0.152 0.159 -0.164 0.155 -0.173 0.15 -0.185 0.147 -0.194 0.143 -0.204 0.138 -0.213 0.137 -0.224 0.133 -0.232 0.13 -0.241 0.127 -0.25 0.124 -0.258 0.121 -0.266 0.118 -0.275 0.115 -0.282 0.112 -0.288 0.108 -0.296 0.106 -0.303 0.102 -0.309 0.098 -0.315 0.094 -0.322 0.09 -0.326 0.087 -0.332 0.083 -0.351 -1.459 0.31 -0.077 0.304 -0.08 0.298 -0.085 0.292 -0.087 0.285 -0.091 0.279 -0.093 0.271 -0.097 0.264 -0.099 0.255 -0.101 0.247 -0.103 0.237 -0.106 0.229 -0.107 0.218 -0.109 0.209 -0.109 0.198 -0.111 0.186 -0.112 0.175 -0.111 0.164 -0.112 0.15 -0.11 0.138 -0.109 0.124 -0.107 0.111 -0.105 0.096 -0.102 0.083 -0.097 0.068 -0.091 0.055 -0.084 0.041 -0.078 0.029 -0.068 0.019 -0.059 0.011 -0.051 0.004 -0.044 -0.002 -0.04 0 0zm1.346 -2.609l-0.591 1.378 0 0 -0.063 -0.025 -0.047 -0.017 -0.027 -0.008 -0.003 -0.001 0.024 0.003 0.055 -0.001 0.092 -0.016 0.121 -0.046 0.126 -0.087 0.095 -0.109 0.056 -0.102 0.025 -0.076 0.008 -0.045 0.002 -0.018 0 0.005 0.001 0.024 0.006 0.04 0.007 0.052 0.011 0.063 0.014 0.072 0.016 0.081 0.019 0.088 0.02 0.096 0.021 0.103 0.022 0.108 0.022 0.114 0.023 0.12 0.022 0.126 0.02 0.13 0.02 0.136 0.017 0.139 0.014 0.144 -1.494 0.138 -0.011 -0.114 -0.014 -0.111 -0.015 -0.109 -0.018 -0.108 -0.018 -0.106 -0.019 -0.103 -0.02 -0.103 -0.02 -0.099 -0.021 -0.098 -0.02 -0.096 -0.019 -0.094 -0.019 -0.092 -0.017 -0.092 -0.017 -0.092 -0.013 -0.093 -0.011 -0.093 -0.008 -0.099 -0.002 -0.108 0.008 -0.119 0.023 -0.134 0.05 -0.154 0.091 -0.168 0.141 -0.161 0.184 -0.127 0.192 -0.074 0.175 -0.029 0.154 -0.001 0.136 0.017 0.125 0.027 0.118 0.035 0.115 0.041 0.116 0.048 0 0zm1.603 3.286l-1.467 -0.312 -0.001 0.001 0.015 -0.074 0.011 -0.072 0.009 -0.071 0.006 -0.069 0.003 -0.068 0.002 -0.067 -0.002 -0.065 -0.004 -0.063 -0.006 -0.06 -0.009 -0.059 -0.011 -0.059 -0.012 -0.055 -0.015 -0.053 -0.017 -0.053 -0.019 -0.051 -0.021 -0.049 -0.023 -0.047 -0.025 -0.047 -0.027 -0.044 -0.029 -0.043 -0.031 -0.042 -0.033 -0.04 -0.037 -0.041 -0.038 -0.038 -0.039 -0.036 -0.045 -0.037 -0.047 -0.036 -0.049 -0.034 -0.054 -0.033 -0.055 -0.031 -0.06 -0.03 -0.064 -0.03 0.591 -1.378 0.121 0.054 0.117 0.06 0.115 0.064 0.11 0.069 0.106 0.073 0.101 0.076 0.097 0.081 0.095 0.086 0.088 0.089 0.083 0.093 0.079 0.095 0.074 0.1 0.069 0.103 0.064 0.105 0.058 0.107 0.053 0.11 0.048 0.113 0.043 0.113 0.038 0.116 0.032 0.117 0.027 0.119 0.022 0.119 0.018 0.12 0.012 0.122 0.008 0.121 0.003 0.122 -0.002 0.123 -0.006 0.123 -0.011 0.123 -0.015 0.123 -0.02 0.124 -0.024 0.123 0 0zm0.739 -1.123l1.139 0.977 0 0 -0.086 0.096 -0.09 0.093 -0.094 0.09 -0.097 0.087 -0.099 0.084 -0.103 0.081 -0.104 0.078 -0.107 0.075 -0.109 0.072 -0.109 0.068 -0.112 0.065 -0.113 0.061 -0.114 0.056 -0.115 0.053 -0.116 0.048 -0.118 0.043 -0.12 0.037 -0.124 0.031 -0.128 0.024 -0.133 0.014 -0.142 0.003 -0.154 -0.014 -0.164 -0.038 -0.172 -0.07 -0.17 -0.108 -0.151 -0.149 -0.116 -0.176 -0.075 -0.186 -0.038 -0.184 -0.01 -0.175 0.011 -0.165 0.027 -0.16 1.467 0.312 -0.005 0.027 0 0.002 -0.002 -0.029 -0.012 -0.056 -0.031 -0.077 -0.056 -0.085 -0.076 -0.075 -0.08 -0.051 -0.068 -0.028 -0.05 -0.012 -0.027 -0.003 -0.005 0 0.013 -0.002 0.026 -0.004 0.037 -0.01 0.048 -0.015 0.055 -0.02 0.062 -0.025 0.065 -0.03 0.069 -0.034 0.071 -0.039 0.072 -0.042 0.074 -0.046 0.073 -0.047 0.072 -0.051 0.071 -0.053 0.067 -0.053 0.064 -0.054 0.061 -0.055 0.056 -0.053 0.05 -0.053 0.045 -0.05 0 0zm0.725 -1.866l1.316 0.721 0 0 -0.02 0.038 -0.018 0.038 -0.016 0.036 -0.014 0.037 -0.014 0.04 -0.014 0.041 -0.012 0.04 -0.012 0.044 -0.012 0.048 -0.011 0.047 -0.011 0.05 -0.012 0.056 -0.013 0.058 -0.012 0.06 -0.014 0.065 -0.016 0.067 -0.016 0.07 -0.019 0.074 -0.022 0.076 -0.024 0.08 -0.027 0.08 -0.03 0.084 -0.035 0.085 -0.038 0.087 -0.043 0.088 -0.047 0.09 -0.051 0.089 -0.056 0.09 -0.061 0.091 -0.065 0.09 -0.071 0.092 -0.076 0.091 -1.139 -0.977 0.045 -0.054 0.04 -0.051 0.035 -0.049 0.031 -0.047 0.029 -0.046 0.025 -0.044 0.022 -0.041 0.02 -0.041 0.018 -0.041 0.016 -0.041 0.015 -0.04 0.014 -0.044 0.013 -0.042 0.013 -0.044 0.012 -0.047 0.011 -0.049 0.012 -0.052 0.012 -0.053 0.012 -0.058 0.013 -0.058 0.013 -0.062 0.015 -0.067 0.016 -0.071 0.018 -0.069 0.02 -0.075 0.024 -0.079 0.025 -0.078 0.029 -0.08 0.033 -0.084 0.038 -0.087 0.041 -0.086 0.045 -0.086 0 0zm2.717 1.549l-1.436 -0.431 -0.001 0 0.013 -0.047 0.007 -0.04 0.003 -0.033 0 -0.027 -0.002 -0.022 -0.003 -0.019 -0.004 -0.015 -0.004 -0.012 -0.006 -0.011 -0.007 -0.012 -0.006 -0.009 -0.008 -0.009 -0.009 -0.009 -0.01 -0.009 -0.01 -0.007 -0.012 -0.008 -0.011 -0.006 -0.011 -0.004 -0.007 -0.002 -0.007 -0.002 -0.006 -0.001 -0.001 0 0.004 0 0.008 -0.001 0.011 -0.003 0.016 -0.005 0.017 -0.008 0.021 -0.013 0.021 -0.016 0.017 -0.016 0.013 -0.016 0.009 -0.015 -1.316 -0.721 0.084 -0.134 0.098 -0.121 0.109 -0.108 0.122 -0.094 0.13 -0.077 0.134 -0.06 0.136 -0.045 0.136 -0.029 0.136 -0.015 0.135 -0.003 0.131 0.01 0.127 0.019 0.126 0.031 0.124 0.041 0.119 0.05 0.115 0.06 0.109 0.067 0.108 0.079 0.1 0.087 0.095 0.096 0.089 0.106 0.08 0.115 0.071 0.123 0.061 0.131 0.051 0.14 0.038 0.144 0.026 0.149 0.012 0.154 -0.001 0.157 -0.015 0.159 -0.028 0.159 -0.041 0.158 0 0zm1.289 2.434l-0.441 1.434 0 0 -0.166 -0.058 -0.159 -0.068 -0.155 -0.078 -0.148 -0.087 -0.14 -0.095 -0.135 -0.102 -0.129 -0.108 -0.123 -0.115 -0.116 -0.119 -0.112 -0.125 -0.105 -0.129 -0.101 -0.133 -0.094 -0.138 -0.089 -0.14 -0.083 -0.143 -0.078 -0.146 -0.073 -0.149 -0.066 -0.151 -0.061 -0.152 -0.055 -0.155 -0.049 -0.156 -0.042 -0.157 -0.036 -0.158 -0.029 -0.159 -0.022 -0.158 -0.015 -0.161 -0.007 -0.16 0.002 -0.16 0.01 -0.162 0.02 -0.159 0.03 -0.159 0.042 -0.159 1.436 0.431 -0.014 0.055 -0.012 0.063 -0.008 0.069 -0.005 0.074 -0.001 0.081 0.004 0.084 0.008 0.089 0.013 0.094 0.018 0.095 0.022 0.098 0.027 0.1 0.031 0.1 0.036 0.101 0.04 0.101 0.044 0.1 0.048 0.098 0.052 0.097 0.055 0.095 0.058 0.092 0.061 0.088 0.063 0.084 0.066 0.08 0.067 0.075 0.069 0.071 0.069 0.065 0.07 0.058 0.07 0.054 0.07 0.047 0.069 0.041 0.068 0.034 0.066 0.029 0.065 0.022 0 0zm2.638 -2.214l1.461 0.341 0 0 -0.056 0.213 -0.064 0.208 -0.075 0.203 -0.083 0.197 -0.091 0.191 -0.099 0.184 -0.106 0.179 -0.113 0.172 -0.119 0.166 -0.125 0.159 -0.131 0.152 -0.135 0.145 -0.141 0.138 -0.145 0.131 -0.149 0.123 -0.152 0.117 -0.157 0.109 -0.159 0.1 -0.163 0.093 -0.165 0.085 -0.168 0.076 -0.169 0.068 -0.173 0.058 -0.174 0.05 -0.175 0.039 -0.178 0.029 -0.179 0.018 -0.179 0.007 -0.18 -0.005 -0.181 -0.019 -0.178 -0.032 -0.178 -0.047 0.441 -1.434 0.06 0.016 0.065 0.011 0.07 0.008 0.075 0.002 0.081 -0.003 0.084 -0.009 0.09 -0.015 0.094 -0.021 0.096 -0.027 0.099 -0.033 0.101 -0.041 0.103 -0.047 0.103 -0.053 0.104 -0.059 0.104 -0.066 0.103 -0.071 0.102 -0.078 0.1 -0.083 0.098 -0.089 0.096 -0.093 0.092 -0.099 0.089 -0.104 0.086 -0.109 0.081 -0.113 0.076 -0.116 0.073 -0.121 0.066 -0.125 0.062 -0.129 0.055 -0.132 0.05 -0.135 0.043 -0.138 0.037 -0.142 0 0zm-0.932 -4.775l0.964 -1.15 0 0 0.135 0.123 0.125 0.131 0.117 0.14 0.109 0.148 0.102 0.154 0.096 0.162 0.091 0.167 0.086 0.173 0.081 0.18 0.076 0.185 0.071 0.189 0.068 0.195 0.062 0.2 0.058 0.203 0.053 0.207 0.049 0.211 0.045 0.214 0.039 0.215 0.034 0.218 0.03 0.221 0.024 0.221 0.019 0.222 0.013 0.222 0.008 0.223 0.003 0.223 -0.004 0.222 -0.01 0.221 -0.016 0.22 -0.023 0.218 -0.03 0.214 -0.037 0.214 -0.045 0.21 -1.461 -0.341 0.033 -0.154 0.027 -0.159 0.023 -0.167 0.018 -0.17 0.013 -0.174 0.008 -0.178 0.004 -0.181 -0.002 -0.183 -0.007 -0.184 -0.011 -0.186 -0.016 -0.187 -0.021 -0.185 -0.024 -0.185 -0.029 -0.184 -0.033 -0.181 -0.037 -0.178 -0.041 -0.175 -0.044 -0.171 -0.047 -0.166 -0.051 -0.161 -0.053 -0.155 -0.056 -0.149 -0.058 -0.141 -0.06 -0.132 -0.061 -0.125 -0.063 -0.114 -0.062 -0.105 -0.062 -0.093 -0.06 -0.082 -0.058 -0.069 -0.054 -0.057 -0.048 -0.044 0 0zm-2.324 31.576l-1.473 0.281 0 0 -0.108 -0.704 -0.076 -0.802 -0.05 -0.895 -0.024 -0.983 -0.001 -1.064 0.02 -1.138 0.04 -1.202 0.059 -1.26 0.077 -1.308 0.093 -1.348 0.108 -1.379 0.122 -1.401 0.133 -1.415 0.145 -1.42 0.154 -1.416 0.163 -1.403 0.17 -1.381 0.176 -1.352 0.18 -1.312 0.184 -1.264 0.186 -1.207 0.186 -1.143 0.186 -1.068 0.185 -0.987 0.182 -0.896 0.179 -0.798 0.174 -0.695 0.172 -0.587 0.176 -0.482 0.205 -0.404 0.43 -0.405 0.935 0.112 -0.964 1.15 0.695 0.082 0.164 -0.124 -0.081 0.168 -0.132 0.365 -0.152 0.517 -0.163 0.648 -0.171 0.765 -0.177 0.871 -0.18 0.966 -0.184 1.052 -0.183 1.127 -0.184 1.195 -0.182 1.252 -0.179 1.301 -0.175 1.341 -0.168 1.371 -0.162 1.393 -0.153 1.406 -0.144 1.408 -0.133 1.404 -0.12 1.389 -0.107 1.366 -0.092 1.334 -0.076 1.292 -0.058 1.241 -0.04 1.181 -0.019 1.111 0.001 1.032 0.023 0.944 0.047 0.843 0.07 0.73 0.091 0.605 0 0zm-3.499 -1.883l1.44 -0.42 0 0 0.082 0.268 0.085 0.262 0.088 0.252 0.091 0.244 0.093 0.235 0.094 0.225 0.095 0.213 0.095 0.201 0.095 0.189 0.093 0.176 0.091 0.161 0.088 0.146 0.084 0.129 0.078 0.112 0.071 0.092 0.061 0.072 0.047 0.048 0.025 0.022 -0.008 -0.004 -0.059 -0.027 -0.139 -0.028 -0.218 0.026 -0.207 0.112 -0.116 0.132 -0.041 0.083 -0.006 0.021 0.004 -0.034 0.002 -0.078 -0.005 -0.117 -0.014 -0.152 -0.026 -0.183 -0.037 -0.214 1.473 -0.281 0.046 0.261 0.034 0.242 0.021 0.222 0.008 0.207 -0.005 0.199 -0.024 0.194 -0.053 0.204 -0.105 0.222 -0.198 0.227 -0.305 0.165 -0.329 0.038 -0.265 -0.055 -0.197 -0.094 -0.157 -0.107 -0.135 -0.118 -0.123 -0.126 -0.116 -0.136 -0.114 -0.148 -0.112 -0.16 -0.112 -0.173 -0.112 -0.185 -0.111 -0.197 -0.111 -0.208 -0.11 -0.221 -0.11 -0.232 -0.108 -0.244 -0.107 -0.253 -0.103 -0.263 -0.102 -0.273 -0.099 -0.282 -0.094 -0.291 -0.091 -0.298 0 0zm-12.553 -8.334l-0.129 -1.494 0 0 0.976 -0.064 0.932 -0.02 0.889 0.021 0.845 0.063 0.805 0.1 0.763 0.137 0.724 0.172 0.685 0.204 0.647 0.235 0.611 0.264 0.574 0.291 0.539 0.314 0.503 0.337 0.471 0.356 0.437 0.373 0.406 0.387 0.376 0.399 0.346 0.409 0.319 0.416 0.292 0.42 0.268 0.423 0.244 0.423 0.222 0.421 0.201 0.417 0.183 0.41 0.165 0.4 0.149 0.391 0.134 0.377 0.12 0.361 0.11 0.345 0.098 0.324 0.088 0.302 -1.44 0.42 -0.086 -0.293 -0.094 -0.31 -0.102 -0.323 -0.113 -0.337 -0.123 -0.347 -0.136 -0.356 -0.149 -0.364 -0.164 -0.368 -0.18 -0.372 -0.197 -0.373 -0.214 -0.371 -0.234 -0.37 -0.253 -0.365 -0.275 -0.359 -0.298 -0.351 -0.321 -0.342 -0.346 -0.33 -0.373 -0.318 -0.4 -0.302 -0.429 -0.287 -0.461 -0.269 -0.493 -0.25 -0.528 -0.228 -0.564 -0.205 -0.602 -0.18 -0.642 -0.152 -0.683 -0.123 -0.727 -0.09 -0.771 -0.057 -0.817 -0.02 -0.864 0.019 -0.914 0.059 0 0zm-46.667 12.855l-0.483 -1.421 0 0 1.23 -0.417 1.289 -0.434 1.345 -0.45 1.396 -0.464 1.442 -0.476 1.484 -0.486 1.522 -0.495 1.555 -0.502 1.584 -0.506 1.608 -0.508 1.628 -0.51 1.643 -0.509 1.654 -0.507 1.661 -0.501 1.662 -0.496 1.66 -0.487 1.654 -0.477 1.642 -0.466 1.626 -0.452 1.607 -0.435 1.581 -0.419 1.553 -0.4 1.52 -0.378 1.482 -0.355 1.44 -0.331 1.394 -0.304 1.343 -0.276 1.288 -0.245 1.23 -0.214 1.167 -0.179 1.1 -0.144 1.031 -0.105 0.129 1.494 -0.986 0.101 -1.063 0.139 -1.136 0.174 -1.203 0.209 -1.266 0.242 -1.324 0.271 -1.376 0.301 -1.425 0.327 -1.469 0.352 -1.508 0.376 -1.542 0.396 -1.572 0.417 -1.597 0.433 -1.619 0.45 -1.634 0.463 -1.647 0.475 -1.654 0.486 -1.657 0.494 -1.655 0.5 -1.65 0.505 -1.638 0.507 -1.624 0.509 -1.604 0.507 -1.58 0.505 -1.551 0.5 -1.518 0.494 -1.482 0.485 -1.439 0.475 -1.392 0.463 -1.342 0.45 -1.287 0.433 -1.227 0.416 0 0zm-32.58 5.909l0.093 -1.497 0 0 0.576 0.029 0.619 0.015 0.662 0.002 0.701 -0.011 0.739 -0.025 0.775 -0.038 0.811 -0.051 0.843 -0.065 0.875 -0.079 0.906 -0.092 0.934 -0.106 0.96 -0.119 0.986 -0.134 1.011 -0.146 1.033 -0.161 1.054 -0.174 1.073 -0.188 1.092 -0.203 1.108 -0.215 1.123 -0.23 1.137 -0.243 1.149 -0.258 1.16 -0.271 1.169 -0.285 1.176 -0.299 1.183 -0.314 1.189 -0.327 1.191 -0.341 1.193 -0.354 1.194 -0.37 1.192 -0.383 1.19 -0.397 0.483 1.421 -1.206 0.402 -1.208 0.388 -1.209 0.374 -1.209 0.359 -1.206 0.346 -1.202 0.331 -1.198 0.317 -1.191 0.302 -1.183 0.289 -1.173 0.274 -1.163 0.261 -1.151 0.247 -1.137 0.232 -1.121 0.219 -1.106 0.204 -1.087 0.191 -1.069 0.177 -1.047 0.162 -1.025 0.149 -1.001 0.136 -0.978 0.121 -0.95 0.108 -0.922 0.094 -0.894 0.08 -0.863 0.066 -0.831 0.053 -0.798 0.039 -0.764 0.025 -0.729 0.012 -0.691 -0.002 -0.653 -0.016 -0.615 -0.031 0 0zm75.434 -22.538l0.35 1.458 0 0 -2.243 0.542 -2.434 0.594 -2.61 0.642 -2.765 0.686 -2.902 0.724 -3.02 0.759 -3.121 0.789 -3.202 0.814 -3.265 0.835 -3.309 0.852 -3.335 0.863 -3.344 0.871 -3.331 0.874 -3.303 0.873 -3.254 0.866 -3.188 0.856 -3.103 0.841 -2.999 0.821 -2.877 0.798 -2.736 0.769 -2.577 0.735 -2.399 0.699 -2.202 0.655 -1.986 0.609 -1.751 0.558 -1.496 0.5 -1.219 0.438 -0.917 0.367 -0.571 0.275 -0.087 0.032 -0.202 -0.933 0.057 -0.021 -0.093 1.497 -0.717 -0.178 -0.253 -1.254 0.551 -0.445 0.717 -0.349 0.985 -0.394 1.258 -0.453 1.522 -0.509 1.769 -0.563 1.999 -0.613 2.213 -0.659 2.406 -0.7 2.584 -0.738 2.742 -0.77 2.881 -0.799 3.004 -0.822 3.106 -0.842 3.191 -0.857 3.258 -0.867 3.305 -0.873 3.334 -0.875 3.345 -0.872 3.338 -0.864 3.311 -0.852 3.268 -0.836 3.204 -0.814 3.122 -0.79 3.023 -0.759 2.904 -0.725 2.767 -0.686 2.612 -0.643 2.439 -0.595 2.246 -0.542 0 0zm94.724 -17.66l0.008 1.5 0 0 -1.94 0.047 -2.144 0.118 -2.332 0.185 -2.507 0.25 -2.667 0.309 -2.814 0.366 -2.946 0.419 -3.064 0.466 -3.17 0.511 -3.261 0.552 -3.339 0.588 -3.403 0.62 -3.455 0.649 -3.491 0.674 -3.515 0.695 -3.525 0.712 -3.522 0.724 -3.506 0.733 -3.475 0.739 -3.432 0.739 -3.374 0.737 -3.304 0.729 -3.22 0.72 -3.122 0.704 -3.012 0.686 -2.887 0.663 -2.749 0.636 -2.598 0.606 -2.433 0.572 -2.254 0.533 -2.063 0.492 -1.858 0.444 -0.35 -1.458 1.859 -0.446 2.065 -0.492 2.257 -0.533 2.435 -0.573 2.6 -0.606 2.752 -0.637 2.89 -0.664 3.014 -0.686 3.125 -0.705 3.223 -0.72 3.308 -0.731 3.378 -0.737 3.436 -0.74 3.48 -0.739 3.51 -0.735 3.528 -0.725 3.53 -0.713 3.522 -0.696 3.498 -0.675 3.461 -0.651 3.412 -0.622 3.349 -0.59 3.272 -0.553 3.181 -0.513 3.079 -0.469 2.962 -0.42 2.832 -0.369 2.69 -0.312 2.534 -0.252 2.365 -0.188 2.185 -0.12 1.992 -0.048 0 0zm-3.076 -1.266l0.258 -1.478 0.194 0.04 0.198 0.053 0.203 0.062 0.21 0.073 0.216 0.082 0.22 0.089 0.224 0.098 0.226 0.104 0.228 0.111 0.227 0.116 0.226 0.121 0.221 0.125 0.217 0.128 0.211 0.131 0.204 0.134 0.194 0.136 0.184 0.138 0.173 0.141 0.161 0.145 0.15 0.151 0.136 0.162 0.125 0.184 0.104 0.219 0.065 0.275 -0.02 0.333 -0.143 0.326 -0.225 0.239 -0.245 0.149 -0.248 0.088 -0.25 0.052 -0.268 0.029 -0.292 0.01 -0.008 -1.5 0.198 -0.007 0.144 -0.015 0.084 -0.017 0.016 -0.005 -0.052 0.033 -0.097 0.104 -0.075 0.172 -0.011 0.163 0.019 0.088 0.008 0.02 -0.02 -0.028 -0.05 -0.059 -0.078 -0.078 -0.102 -0.092 -0.122 -0.099 -0.142 -0.106 -0.156 -0.11 -0.169 -0.111 -0.18 -0.112 -0.189 -0.112 -0.195 -0.109 -0.198 -0.107 -0.201 -0.102 -0.201 -0.098 -0.198 -0.091 -0.194 -0.084 -0.186 -0.077 -0.178 -0.067 -0.165 -0.057 -0.15 -0.047 -0.13 -0.034 -0.106 -0.022zm0 0c-0.408,-0.071 -0.681,-0.46 -0.61,-0.868 0.071,-0.408 0.46,-0.681 0.868,-0.61l-0.258 1.478z"/>
  </g>
 </g>
</svg>
