<?xml version="1.0" encoding="UTF-8"?>
<!DOCTYPE svg PUBLIC "-//W3C//DTD SVG 1.1//EN" "http://www.w3.org/Graphics/SVG/1.1/DTD/svg11.dtd">
<!-- Creator: CorelDRAW 2019 (64-Bit) -->
<svg xmlns="http://www.w3.org/2000/svg" xml:space="preserve" width="200px" height="100px" version="1.1" style="shape-rendering:geometricPrecision; text-rendering:geometricPrecision; image-rendering:optimizeQuality; fill-rule:evenodd; clip-rule:evenodd"
viewBox="0 0 200 100"
 xmlns:xlink="http://www.w3.org/1999/xlink"
 xmlns:xodm="http://www.corel.com/coreldraw/odm/2003">
 <defs>
  <style type="text/css">
   <![CDATA[
    .str0 {stroke:black;stroke-width:1.5;stroke-linecap:round;stroke-linejoin:round;stroke-miterlimit:2.61313}
    .fil0 {fill:none}
   ]]>
  </style>
 </defs>
 <g id="Layer_x0020_1">
  <metadata id="CorelCorpID_0Corel-Layer"/>
  <g>
   <path class="fil0 str0" d="M53.807 80.416c0,0 -0.947,2.725 2.133,2.784 19.194,0.37 79.94,-46.145 91.343,-59.415 28.95,-33.688 -59.112,4.201 -87.435,51.063 -13.033,21.562 -1.067,16.705 7.937,10.071 9.005,-6.635 23.399,-20.911 25.354,-22.215 1.955,-1.303 5.035,0.83 0.474,5.036 -4.562,4.205 -12.026,11.61 -4.976,11.966 7.049,0.355 17.594,-6.458 20.2,-7.228 2.606,-0.77 2.251,1.422 1.303,3.495 -0.948,2.074 1.007,3.258 4.502,1.185 3.495,-2.073 6.872,-3.199 9.952,-2.014 3.08,1.185 5.486,1.602 7.523,0.356 2.037,-1.247 15.224,-1.185 15.224,-1.185"/>
  </g>
 </g>
</svg>
