<?xml version="1.0" encoding="UTF-8"?>
<!DOCTYPE svg PUBLIC "-//W3C//DTD SVG 1.1//EN" "http://www.w3.org/Graphics/SVG/1.1/DTD/svg11.dtd">
<!-- Creator: CorelDRAW 2019 (64-Bit) -->
<svg xmlns="http://www.w3.org/2000/svg" xml:space="preserve" width="200px" height="100px" version="1.1" style="shape-rendering:geometricPrecision; text-rendering:geometricPrecision; image-rendering:optimizeQuality; fill-rule:evenodd; clip-rule:evenodd"
viewBox="0 0 200 100"
 xmlns:xlink="http://www.w3.org/1999/xlink"
 xmlns:xodm="http://www.corel.com/coreldraw/odm/2003">
 <defs>
  <style type="text/css">
   <![CDATA[
    .fil0 {fill:black;fill-rule:nonzero}
   ]]>
  </style>
 </defs>
 <g id="Layer_x0020_1">
  <metadata id="CorelCorpID_0Corel-Layer"/>
  <g id="_2368901912080">
   <g>
    <path class="fil0" d="M104.865 30.471c-0.059,-0.514 0.306,-0.979 0.814,-1.038 0.508,-0.059 0.968,0.309 1.027,0.823l-1.841 0.215zm0.509 11.662l-1.803 -0.437 0 0 0.158 -0.682 0.145 -0.662 0.133 -0.641 0.121 -0.621 0.111 -0.6 0.1 -0.58 0.09 -0.558 0.081 -0.538 0.071 -0.517 0.063 -0.496 0.055 -0.474 0.047 -0.453 0.04 -0.432 0.034 -0.41 0.027 -0.388 0.022 -0.366 0.017 -0.345 0.013 -0.323 0.008 -0.3 0.004 -0.278 0.002 -0.256 -0.001 -0.233 -0.004 -0.211 -0.004 -0.188 -0.007 -0.165 -0.006 -0.142 -0.007 -0.12 -0.007 -0.096 -0.006 -0.074 -0.004 -0.049 -0.003 -0.027 0.001 0 1.841 -0.215 0.002 0.023 0.005 0.044 0.006 0.07 0.007 0.091 0.008 0.115 0.008 0.139 0.008 0.162 0.006 0.185 0.006 0.208 0.003 0.231 0.002 0.253 -0.002 0.276 -0.005 0.299 -0.009 0.321 -0.013 0.343 -0.018 0.365 -0.023 0.387 -0.029 0.409 -0.035 0.431 -0.042 0.452 -0.05 0.474 -0.057 0.495 -0.065 0.517 -0.075 0.537 -0.084 0.559 -0.093 0.58 -0.104 0.601 -0.114 0.621 -0.126 0.641 -0.137 0.663 -0.15 0.682 -0.162 0.703 0 0zm-4.468 17.191l-1.827 -0.321 0 0 0.065 -0.359 0.073 -0.372 0.081 -0.385 0.088 -0.398 0.096 -0.41 0.102 -0.424 0.108 -0.436 0.115 -0.448 0.12 -0.461 0.126 -0.474 0.131 -0.486 0.136 -0.497 0.141 -0.509 0.144 -0.521 0.149 -0.532 0.152 -0.544 0.156 -0.554 0.158 -0.566 0.161 -0.576 0.164 -0.586 0.165 -0.597 0.167 -0.606 0.169 -0.616 0.17 -0.626 0.17 -0.635 0.171 -0.644 0.17 -0.654 0.171 -0.661 0.17 -0.671 0.169 -0.678 0.168 -0.686 0.166 -0.695 1.803 0.437 -0.169 0.703 -0.17 0.694 -0.171 0.687 -0.172 0.677 -0.172 0.668 -0.172 0.66 -0.172 0.65 -0.172 0.64 -0.17 0.63 -0.17 0.621 -0.168 0.609 -0.166 0.6 -0.165 0.588 -0.161 0.577 -0.159 0.566 -0.155 0.555 -0.152 0.542 -0.148 0.531 -0.144 0.517 -0.14 0.506 -0.134 0.493 -0.13 0.479 -0.124 0.466 -0.118 0.452 -0.112 0.438 -0.105 0.423 -0.099 0.409 -0.091 0.394 -0.084 0.378 -0.076 0.363 -0.068 0.346 -0.059 0.329 0 0zm-1.247 6.298l-1.805 -0.429 0.002 -0.007 0.006 -0.024 0.007 -0.034 0.012 -0.05 0.015 -0.068 0.018 -0.079 0.021 -0.092 0.023 -0.107 0.027 -0.119 0.029 -0.133 0.031 -0.144 0.034 -0.157 0.036 -0.168 0.038 -0.179 0.04 -0.192 0.043 -0.202 0.044 -0.211 0.046 -0.222 0.047 -0.233 0.048 -0.241 0.051 -0.251 0.051 -0.26 0.052 -0.268 0.054 -0.277 0.054 -0.285 0.055 -0.291 0.056 -0.3 0.057 -0.307 0.057 -0.313 0.057 -0.319 0.057 -0.326 0.057 -0.331 1.827 0.321 -0.058 0.336 -0.059 0.331 -0.058 0.324 -0.057 0.318 -0.058 0.311 -0.056 0.303 -0.056 0.297 -0.055 0.288 -0.054 0.281 -0.054 0.272 -0.052 0.264 -0.051 0.254 -0.049 0.245 -0.048 0.235 -0.046 0.226 -0.045 0.216 -0.043 0.204 -0.041 0.194 -0.039 0.183 -0.036 0.171 -0.035 0.16 -0.032 0.147 -0.03 0.135 -0.026 0.122 -0.025 0.109 -0.021 0.097 -0.019 0.082 -0.015 0.066 -0.012 0.055 -0.01 0.041 -0.005 0.022 -0.002 0.009zm0 0c-0.117,0.503 -0.617,0.815 -1.115,0.697 -0.498,-0.119 -0.807,-0.623 -0.69,-1.126l1.805 0.429z"/>
   </g>
   <g>
    <path class="fil0" d="M98.554 51.359c0.511,0.016 0.913,0.448 0.897,0.965 -0.015,0.517 -0.443,0.923 -0.955,0.907l0.058 -1.872zm-9.291 -11.98l1.84 0.233 0 0 -0.107 1.088 -0.047 1.015 0.01 0.944 0.061 0.877 0.109 0.811 0.152 0.748 0.19 0.688 0.225 0.633 0.254 0.579 0.282 0.528 0.306 0.483 0.326 0.438 0.344 0.398 0.358 0.36 0.369 0.324 0.378 0.29 0.383 0.258 0.385 0.229 0.384 0.2 0.378 0.174 0.369 0.149 0.357 0.126 0.339 0.105 0.319 0.085 0.294 0.068 0.267 0.052 0.233 0.039 0.197 0.027 0.155 0.017 0.113 0.01 0.065 0.004 0.003 0 -0.058 1.872 -0.053 -0.002 -0.1 -0.007 -0.153 -0.013 -0.201 -0.022 -0.245 -0.034 -0.286 -0.047 -0.322 -0.064 -0.354 -0.081 -0.384 -0.103 -0.408 -0.127 -0.429 -0.151 -0.447 -0.181 -0.46 -0.212 -0.469 -0.245 -0.474 -0.281 -0.475 -0.321 -0.47 -0.361 -0.463 -0.406 -0.449 -0.451 -0.431 -0.5 -0.408 -0.549 -0.381 -0.601 -0.348 -0.653 -0.312 -0.707 -0.27 -0.762 -0.226 -0.817 -0.177 -0.874 -0.125 -0.933 -0.069 -0.992 -0.011 -1.054 0.051 -1.118 0.116 -1.183 0 0zm19.5 15.73l-1.012 -1.569 0 0 5.399 -3.772 4.636 -3.669 3.909 -3.553 3.222 -3.424 2.571 -3.277 1.96 -3.117 1.392 -2.941 0.865 -2.752 0.384 -2.551 -0.051 -2.345 -0.444 -2.136 -0.8 -1.931 -1.124 -1.723 -1.421 -1.511 -1.689 -1.286 -1.926 -1.047 -2.128 -0.793 -2.295 -0.522 -2.426 -0.239 -2.517 0.059 -2.572 0.37 -2.591 0.692 -2.572 1.028 -2.519 1.375 -2.428 1.735 -2.304 2.107 -2.143 2.495 -1.948 2.897 -1.715 3.313 -1.445 3.745 -1.137 4.192 -0.791 4.653 -1.84 -0.233 0.821 -4.823 1.186 -4.374 1.518 -3.932 1.811 -3.5 2.069 -3.078 2.288 -2.663 2.469 -2.26 2.61 -1.865 2.713 -1.481 2.776 -1.11 2.802 -0.749 2.788 -0.401 2.738 -0.064 2.651 0.261 2.527 0.575 2.364 0.881 2.164 1.178 1.924 1.465 1.639 1.744 1.31 2.009 0.934 2.257 0.515 2.482 0.058 2.681 -0.43 2.856 -0.947 3.014 -1.494 3.16 -2.072 3.293 -2.682 3.42 -3.328 3.536 -4.01 3.645 -4.728 3.743 -5.484 3.83 0 0zm6.653 -3.376l0.976 1.593 0 0 -0.354 0.212 -0.391 0.221 -0.425 0.228 -0.457 0.233 -0.484 0.238 -0.506 0.241 -0.524 0.243 -0.538 0.241 -0.547 0.238 -0.551 0.233 -0.55 0.226 -0.545 0.217 -0.535 0.206 -0.521 0.193 -0.501 0.178 -0.479 0.161 -0.453 0.143 -0.422 0.121 -0.391 0.099 -0.361 0.074 -0.338 0.047 -0.342 0.008 -0.42 -0.084 -0.549 -0.448 -0.131 -0.779 0.193 -0.457 0.24 -0.303 0.287 -0.281 0.356 -0.301 0.439 -0.334 0.529 -0.376 0.63 -0.424 1.012 1.569 -0.596 0.401 -0.486 0.346 -0.38 0.29 -0.273 0.229 -0.163 0.159 -0.043 0.05 0.07 -0.185 -0.104 -0.584 -0.383 -0.327 -0.125 -0.031 0.073 -0.004 0.187 -0.026 0.264 -0.055 0.325 -0.082 0.372 -0.107 0.414 -0.131 0.447 -0.15 0.476 -0.169 0.498 -0.184 0.514 -0.199 0.526 -0.209 0.532 -0.219 0.533 -0.225 0.529 -0.231 0.519 -0.232 0.505 -0.234 0.486 -0.231 0.46 -0.227 0.43 -0.219 0.393 -0.211 0.351 -0.197 0.302 -0.182 0 0zm12.132 -8.94l0 1.873 0 0 -0.062 0.007 -0.124 0.03 -0.178 0.064 -0.219 0.1 -0.252 0.133 -0.28 0.166 -0.305 0.196 -0.324 0.224 -0.341 0.248 -0.358 0.272 -0.371 0.291 -0.382 0.31 -0.393 0.325 -0.401 0.338 -0.408 0.35 -0.414 0.358 -0.418 0.366 -0.421 0.37 -0.422 0.372 -0.422 0.373 -0.421 0.371 -0.419 0.368 -0.416 0.361 -0.41 0.354 -0.405 0.344 -0.398 0.332 -0.39 0.318 -0.38 0.303 -0.371 0.285 -0.361 0.265 -0.351 0.245 -0.339 0.221 -0.976 -1.593 0.286 -0.186 0.307 -0.215 0.327 -0.24 0.344 -0.264 0.359 -0.286 0.372 -0.303 0.384 -0.321 0.394 -0.335 0.402 -0.346 0.409 -0.356 0.415 -0.364 0.419 -0.369 0.422 -0.373 0.424 -0.374 0.423 -0.372 0.423 -0.37 0.421 -0.365 0.418 -0.358 0.413 -0.348 0.407 -0.337 0.401 -0.324 0.393 -0.309 0.385 -0.292 0.376 -0.274 0.367 -0.253 0.357 -0.23 0.348 -0.206 0.342 -0.181 0.338 -0.152 0.339 -0.122 0.349 -0.083 0.368 -0.032 0 0zm0.505 6.855l-1.744 -0.636 0 0 0.15 -0.416 0.146 -0.397 0.141 -0.376 0.134 -0.357 0.129 -0.338 0.122 -0.319 0.115 -0.301 0.107 -0.281 0.099 -0.263 0.09 -0.244 0.08 -0.226 0.071 -0.206 0.06 -0.187 0.049 -0.166 0.038 -0.146 0.027 -0.121 0.015 -0.095 0.007 -0.067 0.001 -0.036 0 -0.001 0.008 0.03 0.022 0.055 0.039 0.062 0.05 0.054 0.043 0.033 0.021 0.012 -0.01 -0.003 -0.042 -0.011 -0.074 -0.013 -0.105 -0.012 -0.134 -0.007 -0.16 -0.003 0 -1.873 0.227 0.004 0.219 0.012 0.212 0.024 0.21 0.037 0.209 0.057 0.211 0.081 0.21 0.114 0.202 0.154 0.179 0.195 0.14 0.223 0.097 0.238 0.055 0.236 0.023 0.226 -0.002 0.215 -0.02 0.209 -0.034 0.207 -0.045 0.207 -0.054 0.209 -0.064 0.218 -0.073 0.225 -0.08 0.234 -0.088 0.247 -0.095 0.259 -0.103 0.272 -0.109 0.286 -0.115 0.302 -0.122 0.318 -0.127 0.334 -0.132 0.351 -0.138 0.369 -0.142 0.386 -0.146 0.406 0 0zm5.007 -4.381l1.217 1.413 0 0 -0.227 0.202 -0.248 0.223 -0.264 0.24 -0.279 0.255 -0.291 0.268 -0.303 0.277 -0.311 0.283 -0.317 0.288 -0.322 0.29 -0.325 0.289 -0.326 0.286 -0.326 0.28 -0.322 0.272 -0.32 0.262 -0.313 0.249 -0.307 0.234 -0.299 0.218 -0.292 0.199 -0.284 0.178 -0.281 0.156 -0.282 0.133 -0.295 0.104 -0.329 0.064 -0.393 -0.013 -0.446 -0.17 -0.367 -0.36 -0.182 -0.417 -0.052 -0.386 0.02 -0.366 0.065 -0.371 0.106 -0.398 0.144 -0.437 1.744 0.636 -0.114 0.345 -0.072 0.269 -0.033 0.187 -0.006 0.088 -0.006 -0.033 -0.072 -0.157 -0.193 -0.19 -0.215 -0.085 -0.107 -0.006 0.008 -0.003 0.088 -0.033 0.145 -0.068 0.185 -0.104 0.216 -0.135 0.239 -0.164 0.259 -0.188 0.276 -0.211 0.288 -0.229 0.298 -0.244 0.306 -0.258 0.312 -0.269 0.315 -0.276 0.316 -0.281 0.316 -0.283 0.312 -0.284 0.308 -0.28 0.3 -0.276 0.292 -0.268 0.282 -0.257 0.269 -0.245 0.255 -0.23 0.24 -0.213 0 0zm4.962 -1.069l-0.829 1.676 0 0 -0.162 -0.083 -0.15 -0.078 -0.137 -0.073 -0.125 -0.067 -0.114 -0.06 -0.102 -0.052 -0.089 -0.044 -0.076 -0.036 -0.064 -0.027 -0.049 -0.019 -0.036 -0.011 -0.022 -0.005 -0.011 -0.002 -0.004 -0.001 0 0 -0.003 0.001 -0.011 0.002 -0.021 0.007 -0.035 0.013 -0.049 0.023 -0.064 0.035 -0.077 0.046 -0.091 0.061 -0.105 0.074 -0.117 0.087 -0.13 0.102 -0.145 0.116 -0.157 0.13 -0.17 0.145 -0.185 0.159 -0.2 0.174 -0.215 0.189 -1.217 -1.413 0.219 -0.193 0.207 -0.179 0.194 -0.167 0.184 -0.156 0.174 -0.145 0.164 -0.132 0.159 -0.124 0.153 -0.115 0.149 -0.104 0.146 -0.097 0.147 -0.088 0.148 -0.08 0.153 -0.072 0.159 -0.061 0.164 -0.05 0.168 -0.035 0.173 -0.021 0.173 -0.004 0.168 0.011 0.162 0.026 0.154 0.036 0.143 0.045 0.136 0.051 0.128 0.054 0.125 0.058 0.123 0.061 0.122 0.063 0.123 0.065 0.128 0.068 0.132 0.07 0.138 0.072 0.146 0.075 0 -0.001zm4.426 -1.933l1.132 1.484 -0.015 0.011 -0.037 0.028 -0.056 0.043 -0.074 0.055 -0.093 0.068 -0.109 0.078 -0.126 0.089 -0.141 0.098 -0.154 0.105 -0.167 0.112 -0.18 0.116 -0.19 0.12 -0.201 0.124 -0.209 0.124 -0.218 0.125 -0.226 0.125 -0.232 0.122 -0.238 0.119 -0.243 0.115 -0.248 0.109 -0.252 0.102 -0.255 0.095 -0.258 0.084 -0.262 0.074 -0.265 0.06 -0.268 0.046 -0.272 0.028 -0.276 0.008 -0.279 -0.016 -0.282 -0.045 -0.284 -0.079 -0.277 -0.118 0.829 -1.676 0.052 0.023 0.068 0.018 0.089 0.014 0.109 0.006 0.127 -0.004 0.144 -0.015 0.16 -0.027 0.171 -0.04 0.181 -0.051 0.189 -0.062 0.195 -0.072 0.2 -0.081 0.201 -0.088 0.202 -0.096 0.202 -0.101 0.2 -0.105 0.196 -0.108 0.192 -0.111 0.186 -0.11 0.179 -0.11 0.171 -0.108 0.161 -0.105 0.151 -0.1 0.139 -0.095 0.126 -0.087 0.112 -0.08 0.098 -0.071 0.082 -0.059 0.065 -0.049 0.045 -0.034 0.026 -0.02 0.007 -0.005zm0 0c0.405,-0.316 0.988,-0.24 1.3,0.17 0.312,0.41 0.237,0.998 -0.168,1.314l-1.132 -1.484z"/>
   </g>
   <g>
    <path class="fil0" d="M87.894 69.582c0.49,-0.151 1.008,0.128 1.158,0.622 0.149,0.495 -0.126,1.019 -0.616,1.17l-0.542 -1.792zm-55.639 20.169l-0.774 -1.702 0 0 0.668 -0.295 0.818 -0.334 0.962 -0.374 1.101 -0.411 1.233 -0.448 1.355 -0.481 1.47 -0.513 1.576 -0.541 1.674 -0.568 1.764 -0.592 1.844 -0.613 1.916 -0.632 1.98 -0.649 2.034 -0.662 2.08 -0.673 2.117 -0.682 2.145 -0.688 2.166 -0.692 2.176 -0.693 2.179 -0.691 2.173 -0.687 2.157 -0.68 2.133 -0.67 2.102 -0.66 2.059 -0.644 2.01 -0.628 1.951 -0.608 1.884 -0.586 1.808 -0.561 1.722 -0.534 1.63 -0.505 1.526 -0.472 0.542 1.792 -1.526 0.472 -1.628 0.504 -1.722 0.534 -1.807 0.56 -1.883 0.586 -1.95 0.608 -2.009 0.627 -2.059 0.645 -2.1 0.658 -2.132 0.671 -2.156 0.679 -2.171 0.687 -2.177 0.69 -2.174 0.692 -2.164 0.691 -2.143 0.688 -2.115 0.681 -2.077 0.673 -2.032 0.661 -1.975 0.647 -1.913 0.631 -1.839 0.612 -1.758 0.59 -1.669 0.566 -1.569 0.539 -1.461 0.509 -1.344 0.478 -1.218 0.442 -1.083 0.404 -0.937 0.364 -0.78 0.319 -0.61 0.269 0 0zm137.196 -36.417l0.419 1.825 -3.237 0.777 -3.728 0.925 -4.178 1.061 -4.583 1.183 -4.946 1.292 -5.267 1.389 -5.547 1.473 -5.784 1.543 -5.978 1.602 -6.131 1.647 -6.242 1.679 -6.311 1.699 -6.337 1.706 -6.321 1.7 -6.265 1.681 -6.164 1.65 -6.023 1.605 -5.84 1.548 -5.614 1.478 -5.346 1.395 -5.037 1.3 -4.686 1.192 -4.293 1.07 -3.859 0.937 -3.383 0.791 -2.868 0.632 -2.316 0.461 -1.738 0.279 -1.198 0.079 -1.236 -1.121 0.814 -1.11 1.253 -0.653 0.774 1.702 -1.048 0.542 0.059 -0.386 -0.531 -0.845 0.884 -0.067 1.637 -0.263 2.267 -0.452 2.84 -0.626 3.364 -0.786 3.846 -0.934 4.283 -1.068 4.679 -1.19 5.032 -1.298 5.342 -1.394 5.611 -1.478 5.836 -1.547 6.022 -1.605 6.162 -1.649 6.264 -1.68 6.321 -1.7 6.336 -1.706 6.311 -1.699 6.242 -1.68 6.132 -1.647 5.98 -1.602 5.786 -1.544 5.549 -1.473 5.271 -1.39 4.951 -1.293 4.589 -1.185 4.185 -1.063 3.74 -0.928 3.254 -0.781zm0 0c0.499,-0.117 0.997,0.196 1.113,0.7 0.115,0.504 -0.195,1.008 -0.694,1.125l-0.419 -1.825z"/>
   </g>
  </g>
 </g>
</svg>
