<?xml version="1.0" encoding="UTF-8"?>
<!DOCTYPE svg PUBLIC "-//W3C//DTD SVG 1.1//EN" "http://www.w3.org/Graphics/SVG/1.1/DTD/svg11.dtd">
<!-- Creator: CorelDRAW 2019 (64-Bit) -->
<svg xmlns="http://www.w3.org/2000/svg" xml:space="preserve" width="200px" height="100px" version="1.1" style="shape-rendering:geometricPrecision; text-rendering:geometricPrecision; image-rendering:optimizeQuality; fill-rule:evenodd; clip-rule:evenodd"
viewBox="0 0 200 100"
 xmlns:xlink="http://www.w3.org/1999/xlink"
 xmlns:xodm="http://www.corel.com/coreldraw/odm/2003">
 <defs>
  <style type="text/css">
   <![CDATA[
    .fil0 {fill:black;fill-rule:nonzero}
   ]]>
  </style>
 </defs>
 <g id="Layer_x0020_1">
  <metadata id="CorelCorpID_0Corel-Layer"/>
  <g>
   <path class="fil0" d="M69.139 34.764c-0.434,-0.018 -0.771,-0.385 -0.753,-0.819 0.018,-0.435 0.385,-0.772 0.819,-0.754l-0.066 1.573zm16.894 -13.818l1.493 0.502 0 0 -0.229 0.613 -0.271 0.612 -0.31 0.611 -0.349 0.608 -0.383 0.604 -0.417 0.599 -0.449 0.594 -0.478 0.587 -0.506 0.579 -0.53 0.57 -0.556 0.56 -0.576 0.547 -0.596 0.534 -0.615 0.52 -0.631 0.503 -0.645 0.486 -0.658 0.468 -0.668 0.447 -0.677 0.425 -0.684 0.403 -0.69 0.377 -0.693 0.352 -0.696 0.324 -0.695 0.294 -0.695 0.264 -0.691 0.232 -0.686 0.197 -0.681 0.161 -0.673 0.124 -0.664 0.083 -0.654 0.041 -0.641 -0.003 0.066 -1.573 0.529 0.003 0.551 -0.035 0.572 -0.072 0.59 -0.108 0.605 -0.143 0.619 -0.178 0.628 -0.211 0.637 -0.242 0.643 -0.272 0.647 -0.301 0.647 -0.329 0.647 -0.354 0.644 -0.378 0.638 -0.402 0.632 -0.422 0.621 -0.442 0.61 -0.46 0.597 -0.476 0.58 -0.49 0.563 -0.504 0.543 -0.516 0.521 -0.525 0.497 -0.533 0.471 -0.539 0.443 -0.544 0.413 -0.547 0.38 -0.547 0.347 -0.547 0.311 -0.542 0.274 -0.538 0.234 -0.53 0.194 -0.521 0 0zm-38.478 25.354l-1.546 -0.293 0 0 0.681 -2.998 0.877 -2.898 1.057 -2.792 1.222 -2.683 1.37 -2.57 1.502 -2.452 1.619 -2.331 1.719 -2.205 1.804 -2.075 1.874 -1.942 1.929 -1.805 1.966 -1.664 1.991 -1.518 1.998 -1.369 1.992 -1.217 1.97 -1.059 1.935 -0.898 1.884 -0.731 1.821 -0.562 1.745 -0.386 1.655 -0.203 1.555 -0.013 1.443 0.19 1.314 0.407 1.161 0.642 0.969 0.885 0.739 1.118 0.482 1.328 0.216 1.522 -0.051 1.71 -0.322 1.904 -0.6 2.106 -1.493 -0.502 0.559 -1.958 0.29 -1.713 0.045 -1.469 -0.174 -1.228 -0.361 -1 -0.527 -0.797 -0.687 -0.625 -0.858 -0.473 -1.033 -0.319 -1.203 -0.156 -1.357 0.011 -1.493 0.184 -1.609 0.356 -1.707 0.527 -1.785 0.693 -1.847 0.858 -1.892 1.016 -1.92 1.173 -1.931 1.323 -1.927 1.47 -1.907 1.613 -1.87 1.75 -1.818 1.884 -1.75 2.013 -1.667 2.137 -1.568 2.258 -1.454 2.374 -1.325 2.484 -1.18 2.592 -1.02 2.694 -0.846 2.793 -0.656 2.889 0 0zm13.238 15.929l1.163 1.061 0 0 -1.108 1.155 -1.08 1.005 -1.051 0.86 -1.025 0.719 -0.999 0.58 -0.975 0.445 -0.952 0.31 -0.928 0.177 -0.901 0.042 -0.868 -0.092 -0.825 -0.221 -0.776 -0.344 -0.72 -0.456 -0.663 -0.56 -0.604 -0.652 -0.547 -0.738 -0.494 -0.817 -0.441 -0.89 -0.39 -0.959 -0.341 -1.024 -0.291 -1.085 -0.243 -1.141 -0.194 -1.194 -0.146 -1.242 -0.097 -1.286 -0.049 -1.326 0.001 -1.362 0.051 -1.392 0.101 -1.42 0.151 -1.442 0.203 -1.46 0.254 -1.473 1.546 0.293 -0.245 1.422 -0.196 1.408 -0.145 1.39 -0.097 1.366 -0.049 1.338 -0.001 1.304 0.046 1.266 0.093 1.223 0.138 1.175 0.182 1.122 0.227 1.064 0.268 1 0.31 0.932 0.349 0.859 0.386 0.779 0.421 0.697 0.452 0.61 0.48 0.519 0.507 0.428 0.53 0.337 0.557 0.247 0.587 0.158 0.625 0.065 0.67 -0.031 0.72 -0.137 0.773 -0.252 0.824 -0.376 0.875 -0.509 0.922 -0.646 0.967 -0.792 1.011 -0.941 1.051 -1.096 0 0zm2.503 -10.212l1.571 -0.094 0 0 0.011 0.209 0.007 0.229 0.004 0.25 0 0.27 -0.004 0.287 -0.008 0.305 -0.012 0.32 -0.018 0.336 -0.022 0.349 -0.028 0.361 -0.035 0.373 -0.04 0.381 -0.047 0.391 -0.054 0.397 -0.061 0.404 -0.069 0.407 -0.077 0.411 -0.086 0.413 -0.095 0.413 -0.104 0.413 -0.113 0.411 -0.124 0.408 -0.135 0.404 -0.146 0.398 -0.158 0.391 -0.17 0.383 -0.184 0.374 -0.198 0.362 -0.212 0.351 -0.227 0.338 -0.245 0.322 -0.261 0.306 -1.163 -1.061 0.198 -0.232 0.19 -0.25 0.182 -0.27 0.173 -0.287 0.165 -0.303 0.156 -0.317 0.147 -0.331 0.138 -0.342 0.13 -0.353 0.12 -0.361 0.112 -0.369 0.104 -0.374 0.095 -0.378 0.087 -0.382 0.079 -0.382 0.072 -0.382 0.065 -0.381 0.057 -0.378 0.051 -0.373 0.044 -0.367 0.038 -0.36 0.032 -0.35 0.027 -0.341 0.021 -0.329 0.016 -0.315 0.012 -0.301 0.007 -0.284 0.004 -0.266 0 -0.248 -0.004 -0.225 -0.006 -0.203 -0.009 -0.178 0 0zm-2.091 1.074l-1.574 -0.037 0 0 0.02 -0.35 0.043 -0.335 0.066 -0.318 0.087 -0.299 0.109 -0.282 0.129 -0.263 0.148 -0.243 0.167 -0.223 0.183 -0.2 0.197 -0.178 0.21 -0.155 0.219 -0.132 0.227 -0.107 0.232 -0.085 0.236 -0.062 0.238 -0.039 0.237 -0.018 0.236 0.004 0.234 0.024 0.23 0.046 0.224 0.065 0.216 0.086 0.21 0.107 0.199 0.127 0.186 0.148 0.173 0.168 0.155 0.189 0.136 0.209 0.112 0.225 0.087 0.242 0.06 0.255 0.03 0.263 -1.571 0.094 -0.01 -0.089 -0.019 -0.077 -0.025 -0.07 -0.031 -0.063 -0.039 -0.058 -0.044 -0.055 -0.053 -0.051 -0.061 -0.048 -0.067 -0.043 -0.074 -0.038 -0.082 -0.032 -0.086 -0.025 -0.09 -0.018 -0.093 -0.01 -0.096 -0.001 -0.097 0.007 -0.096 0.016 -0.095 0.025 -0.094 0.034 -0.092 0.043 -0.089 0.053 -0.086 0.063 -0.083 0.076 -0.08 0.087 -0.077 0.103 -0.072 0.117 -0.066 0.136 -0.06 0.155 -0.051 0.175 -0.041 0.197 -0.028 0.221 -0.014 0.244 0 0zm4.776 7.041l0.854 1.322 0 0 -0.324 0.17 -0.345 0.106 -0.352 0.041 -0.346 -0.016 -0.336 -0.065 -0.324 -0.105 -0.312 -0.14 -0.304 -0.169 -0.296 -0.196 -0.289 -0.22 -0.284 -0.242 -0.278 -0.263 -0.273 -0.282 -0.268 -0.299 -0.26 -0.315 -0.255 -0.33 -0.246 -0.343 -0.238 -0.355 -0.229 -0.364 -0.218 -0.373 -0.208 -0.38 -0.195 -0.385 -0.181 -0.39 -0.168 -0.392 -0.152 -0.393 -0.136 -0.395 -0.117 -0.392 -0.099 -0.391 -0.078 -0.387 -0.056 -0.383 -0.031 -0.379 -0.006 -0.373 1.574 0.037 0.004 0.258 0.023 0.276 0.043 0.294 0.062 0.309 0.081 0.32 0.099 0.329 0.115 0.336 0.132 0.341 0.147 0.343 0.16 0.344 0.173 0.341 0.184 0.337 0.194 0.332 0.203 0.323 0.211 0.313 0.216 0.302 0.222 0.288 0.224 0.271 0.227 0.253 0.226 0.234 0.225 0.212 0.22 0.188 0.213 0.163 0.204 0.134 0.191 0.107 0.174 0.078 0.152 0.05 0.129 0.026 0.103 0.005 0.081 -0.009 0.069 -0.021 0.069 -0.036 0 0zm0.562 -6.109l1.572 -0.083 0 0 0.01 0.151 0.014 0.165 0.02 0.18 0.022 0.193 0.025 0.203 0.027 0.214 0.029 0.224 0.029 0.231 0.029 0.239 0.028 0.245 0.027 0.249 0.024 0.256 0.02 0.259 0.017 0.262 0.011 0.265 0.006 0.266 -0.001 0.268 -0.008 0.268 -0.017 0.269 -0.027 0.268 -0.038 0.267 -0.05 0.266 -0.064 0.262 -0.078 0.26 -0.095 0.256 -0.114 0.251 -0.132 0.242 -0.154 0.235 -0.177 0.224 -0.199 0.209 -0.221 0.193 -0.243 0.174 -0.854 -1.322 0.121 -0.087 0.108 -0.094 0.099 -0.104 0.088 -0.112 0.081 -0.124 0.075 -0.136 0.066 -0.147 0.059 -0.159 0.051 -0.171 0.043 -0.181 0.037 -0.191 0.028 -0.2 0.021 -0.208 0.014 -0.215 0.007 -0.221 0 -0.226 -0.005 -0.229 -0.01 -0.232 -0.015 -0.234 -0.018 -0.235 -0.023 -0.235 -0.024 -0.234 -0.027 -0.232 -0.028 -0.23 -0.029 -0.226 -0.028 -0.223 -0.028 -0.218 -0.026 -0.213 -0.024 -0.207 -0.021 -0.201 -0.017 -0.196 -0.013 -0.188 0 0zm4.374 0.005l-1.53 0.371 0 0 -0.047 -0.17 -0.052 -0.152 -0.056 -0.134 -0.06 -0.118 -0.061 -0.101 -0.063 -0.087 -0.062 -0.073 -0.062 -0.061 -0.058 -0.049 -0.058 -0.039 -0.055 -0.031 -0.052 -0.022 -0.051 -0.017 -0.046 -0.01 -0.045 -0.005 -0.042 0 -0.041 0.003 -0.038 0.007 -0.037 0.011 -0.034 0.014 -0.033 0.018 -0.031 0.021 -0.03 0.026 -0.029 0.03 -0.026 0.033 -0.025 0.04 -0.023 0.046 -0.02 0.053 -0.017 0.063 -0.013 0.071 -0.006 0.081 0.001 0.093 -1.572 0.083 -0.002 -0.227 0.017 -0.223 0.037 -0.215 0.056 -0.208 0.075 -0.199 0.094 -0.187 0.109 -0.175 0.127 -0.162 0.141 -0.146 0.153 -0.13 0.166 -0.112 0.175 -0.095 0.185 -0.076 0.19 -0.057 0.196 -0.038 0.199 -0.017 0.201 0.003 0.201 0.024 0.2 0.044 0.196 0.063 0.192 0.083 0.184 0.103 0.178 0.121 0.169 0.14 0.159 0.157 0.147 0.174 0.137 0.189 0.124 0.205 0.111 0.22 0.099 0.235 0.085 0.248 0.073 0.263 0 0zm5.856 2.96l-0.174 1.565 0 0 -0.271 -0.032 -0.273 -0.035 -0.275 -0.039 -0.276 -0.043 -0.277 -0.047 -0.277 -0.052 -0.278 -0.056 -0.277 -0.061 -0.275 -0.066 -0.273 -0.071 -0.271 -0.078 -0.27 -0.083 -0.265 -0.089 -0.262 -0.097 -0.258 -0.102 -0.254 -0.11 -0.248 -0.119 -0.243 -0.126 -0.237 -0.134 -0.23 -0.144 -0.223 -0.154 -0.214 -0.162 -0.206 -0.175 -0.196 -0.185 -0.185 -0.196 -0.174 -0.208 -0.16 -0.219 -0.146 -0.232 -0.13 -0.244 -0.114 -0.254 -0.097 -0.266 -0.077 -0.275 1.53 -0.371 0.046 0.165 0.057 0.157 0.067 0.151 0.078 0.145 0.088 0.139 0.099 0.136 0.11 0.132 0.121 0.127 0.131 0.124 0.142 0.12 0.153 0.116 0.163 0.112 0.173 0.108 0.182 0.104 0.192 0.1 0.199 0.094 0.208 0.091 0.215 0.085 0.222 0.082 0.228 0.076 0.232 0.072 0.238 0.068 0.243 0.063 0.246 0.059 0.248 0.055 0.251 0.051 0.253 0.047 0.255 0.043 0.254 0.04 0.255 0.036 0.255 0.033 0.252 0.029 0 0zm45.746 10.08l-1.574 -0.036 0 0 -0.063 -0.479 -0.217 -0.476 -0.4 -0.499 -0.595 -0.512 -0.786 -0.508 -0.964 -0.492 -1.125 -0.469 -1.27 -0.443 -1.4 -0.416 -1.517 -0.388 -1.618 -0.362 -1.707 -0.336 -1.781 -0.311 -1.843 -0.287 -1.892 -0.263 -1.927 -0.243 -1.949 -0.222 -1.96 -0.202 -1.956 -0.185 -1.94 -0.168 -1.912 -0.153 -1.87 -0.14 -1.816 -0.127 -1.749 -0.115 -1.669 -0.106 -1.578 -0.097 -1.472 -0.09 -1.355 -0.084 -1.226 -0.079 -1.085 -0.077 -0.933 -0.075 -0.771 -0.075 0.174 -1.565 0.735 0.072 0.913 0.074 1.073 0.075 1.219 0.079 1.352 0.084 1.473 0.09 1.579 0.097 1.673 0.106 1.754 0.116 1.822 0.127 1.878 0.14 1.922 0.154 1.951 0.169 1.969 0.187 1.975 0.204 1.966 0.223 1.947 0.245 1.914 0.267 1.87 0.291 1.812 0.316 1.743 0.343 1.662 0.372 1.568 0.402 1.464 0.435 1.349 0.47 1.223 0.51 1.087 0.556 0.942 0.61 0.786 0.679 0.609 0.768 0.392 0.87 0.124 0.949 0 0zm-110.668 23.881l0.319 -1.542 0 0 1.071 0.123 1.62 0.032 2.1 -0.066 2.532 -0.159 2.926 -0.249 3.282 -0.334 3.602 -0.414 3.887 -0.489 4.137 -0.56 4.352 -0.624 4.532 -0.685 4.677 -0.74 4.787 -0.791 4.863 -0.837 4.904 -0.877 4.91 -0.914 4.882 -0.944 4.818 -0.971 4.72 -0.991 4.586 -1.009 4.419 -1.019 4.216 -1.025 3.978 -1.027 3.704 -1.023 3.396 -1.014 3.05 -0.998 2.668 -0.978 2.247 -0.948 1.782 -0.906 1.266 -0.838 0.693 -0.698 0.168 -0.402 1.574 0.036 -0.441 1.252 -1.011 1.041 -1.465 0.974 -1.908 0.971 -2.33 0.984 -2.729 0.999 -3.095 1.014 -3.43 1.024 -3.733 1.031 -4.002 1.033 -4.235 1.03 -4.436 1.023 -4.602 1.011 -4.733 0.995 -4.83 0.973 -4.893 0.947 -4.921 0.915 -4.915 0.88 -4.873 0.838 -4.798 0.793 -4.687 0.742 -4.544 0.686 -4.364 0.626 -4.15 0.561 -3.903 0.491 -3.62 0.417 -3.305 0.336 -2.956 0.251 -2.573 0.162 -2.162 0.067 -1.728 -0.034 -1.296 -0.152 0 0zm168.646 -31.623l0.036 1.574 0 0 -6.259 0.212 -6.522 0.346 -6.754 0.471 -6.952 0.588 -7.116 0.697 -7.248 0.795 -7.348 0.887 -7.413 0.968 -7.448 1.042 -7.447 1.106 -7.416 1.161 -7.351 1.209 -7.254 1.247 -7.122 1.276 -6.96 1.297 -6.764 1.308 -6.536 1.312 -6.274 1.306 -5.979 1.292 -5.653 1.269 -5.293 1.236 -4.899 1.196 -4.473 1.146 -4.014 1.087 -3.521 1.019 -2.992 0.941 -2.426 0.853 -1.818 0.749 -1.141 0.609 -0.329 0.258 -0.108 -0.521 0.467 0.145 -0.319 1.542 -1.154 -0.477 -0.291 -1.398 0.861 -0.859 1.355 -0.728 1.921 -0.792 2.487 -0.875 3.034 -0.954 3.55 -1.028 4.037 -1.093 4.493 -1.151 4.915 -1.2 5.307 -1.239 5.665 -1.272 5.992 -1.294 6.285 -1.309 6.546 -1.314 6.775 -1.311 6.971 -1.299 7.133 -1.278 7.265 -1.248 7.362 -1.211 7.428 -1.163 7.461 -1.108 7.461 -1.044 7.428 -0.97 7.363 -0.888 7.266 -0.798 7.136 -0.698 6.973 -0.59 6.779 -0.473 6.551 -0.348 6.291 -0.213 0 0zm17.453 0.29l-0.106 1.57 -0.488 -0.032 -0.492 -0.03 -0.495 -0.029 -0.5 -0.027 -0.503 -0.026 -0.506 -0.025 -0.51 -0.022 -0.513 -0.022 -0.517 -0.019 -0.521 -0.018 -0.524 -0.017 -0.527 -0.016 -0.531 -0.013 -0.534 -0.012 -0.537 -0.011 -0.541 -0.01 -0.544 -0.008 -0.547 -0.006 -0.55 -0.005 -0.554 -0.004 -0.556 -0.002 -0.56 -0.001 -0.563 0.001 -0.566 0.002 -0.568 0.004 -0.572 0.004 -0.575 0.007 -0.578 0.007 -0.58 0.009 -0.584 0.011 -0.586 0.011 -0.589 0.013 -0.036 -1.574 0.592 -0.013 0.59 -0.011 0.587 -0.011 0.584 -0.009 0.581 -0.007 0.578 -0.006 0.576 -0.005 0.572 -0.004 0.57 -0.002 0.567 0 0.564 0 0.56 0.002 0.558 0.004 0.554 0.005 0.552 0.007 0.548 0.008 0.545 0.009 0.542 0.011 0.539 0.012 0.535 0.014 0.532 0.015 0.529 0.017 0.525 0.019 0.522 0.02 0.519 0.021 0.515 0.023 0.512 0.025 0.508 0.026 0.504 0.027 0.501 0.03 0.498 0.03 0.494 0.033zm0 0c0.434,0.029 0.762,0.405 0.732,0.838 -0.029,0.433 -0.404,0.761 -0.838,0.732l0.106 -1.57z"/>
  </g>
 </g>
</svg>
