<?xml version="1.0" encoding="UTF-8"?>
<!DOCTYPE svg PUBLIC "-//W3C//DTD SVG 1.1//EN" "http://www.w3.org/Graphics/SVG/1.1/DTD/svg11.dtd">
<!-- Creator: CorelDRAW 2019 (64-Bit) -->
<svg xmlns="http://www.w3.org/2000/svg" xml:space="preserve" width="200px" height="100px" version="1.1" style="shape-rendering:geometricPrecision; text-rendering:geometricPrecision; image-rendering:optimizeQuality; fill-rule:evenodd; clip-rule:evenodd"
viewBox="0 0 200 100"
 xmlns:xlink="http://www.w3.org/1999/xlink"
 xmlns:xodm="http://www.corel.com/coreldraw/odm/2003">
 <defs>
  <style type="text/css">
   <![CDATA[
    .fil0 {fill:black;fill-rule:nonzero}
   ]]>
  </style>
 </defs>
 <g id="Layer_x0020_1">
  <metadata id="CorelCorpID_0Corel-Layer"/>
  <g id="_2368943067888">
   <g>
    <path class="fil0" d="M75.556 28c-0.263,0.32 -0.736,0.366 -1.056,0.103 -0.32,-0.262 -0.366,-0.735 -0.104,-1.055l1.16 0.952zm10.955 -16.032l0.744 -1.302 0 0 0.429 0.347 0.287 0.47 0.116 0.514 -0.015 0.511 -0.109 0.508 -0.181 0.514 -0.243 0.53 -0.298 0.551 -0.35 0.573 -0.396 0.593 -0.439 0.612 -0.476 0.629 -0.509 0.642 -0.537 0.654 -0.561 0.662 -0.579 0.666 -0.594 0.668 -0.603 0.665 -0.607 0.659 -0.607 0.649 -0.601 0.637 -0.591 0.62 -0.576 0.6 -0.556 0.576 -0.531 0.548 -0.5 0.518 -0.466 0.482 -0.425 0.444 -0.379 0.4 -0.328 0.353 -0.27 0.299 -0.204 0.24 -1.16 -0.952 0.238 -0.279 0.29 -0.321 0.34 -0.367 0.387 -0.409 0.43 -0.448 0.468 -0.484 0.501 -0.519 0.53 -0.547 0.554 -0.574 0.573 -0.597 0.587 -0.616 0.596 -0.631 0.6 -0.643 0.6 -0.65 0.594 -0.656 0.584 -0.656 0.568 -0.652 0.546 -0.646 0.522 -0.634 0.49 -0.62 0.455 -0.6 0.413 -0.577 0.366 -0.547 0.314 -0.514 0.257 -0.474 0.194 -0.423 0.129 -0.363 0.062 -0.286 0.008 -0.191 -0.017 -0.09 -0.015 -0.028 -0.049 -0.038 0 0zm-40.925 11.833l-1.416 -0.493 0 0 0.413 -0.857 0.602 -0.803 0.765 -0.761 0.914 -0.728 1.05 -0.702 1.178 -0.68 1.294 -0.66 1.4 -0.641 1.495 -0.621 1.579 -0.6 1.65 -0.58 1.712 -0.556 1.76 -0.534 1.798 -0.51 1.822 -0.483 1.837 -0.457 1.837 -0.429 1.828 -0.399 1.805 -0.368 1.771 -0.336 1.726 -0.303 1.667 -0.268 1.598 -0.232 1.516 -0.194 1.424 -0.156 1.32 -0.116 1.205 -0.073 1.081 -0.031 0.949 0.016 0.814 0.064 0.686 0.126 0.589 0.23 -0.744 1.302 -0.227 -0.081 -0.49 -0.088 -0.695 -0.055 -0.87 -0.014 -1.024 0.029 -1.162 0.071 -1.284 0.113 -1.394 0.152 -1.491 0.192 -1.574 0.228 -1.645 0.264 -1.705 0.3 -1.751 0.332 -1.785 0.364 -1.807 0.395 -1.817 0.423 -1.814 0.452 -1.8 0.477 -1.772 0.502 -1.733 0.526 -1.68 0.547 -1.617 0.567 -1.539 0.585 -1.45 0.602 -1.347 0.617 -1.231 0.628 -1.102 0.636 -0.959 0.641 -0.802 0.638 -0.632 0.627 -0.452 0.601 -0.274 0.562 0 0zm6.854 7.99l-0.571 1.387 -0.001 0 -0.534 -0.227 -0.518 -0.235 -0.501 -0.242 -0.484 -0.249 -0.466 -0.256 -0.449 -0.262 -0.431 -0.268 -0.414 -0.275 -0.396 -0.28 -0.378 -0.286 -0.359 -0.292 -0.341 -0.296 -0.323 -0.302 -0.303 -0.306 -0.285 -0.311 -0.265 -0.316 -0.245 -0.321 -0.226 -0.325 -0.204 -0.329 -0.185 -0.333 -0.162 -0.337 -0.142 -0.341 -0.118 -0.344 -0.096 -0.347 -0.071 -0.349 -0.048 -0.351 -0.023 -0.352 0.002 -0.351 0.028 -0.351 0.054 -0.349 0.079 -0.345 0.106 -0.342 1.416 0.493 -0.073 0.238 -0.055 0.239 -0.037 0.24 -0.019 0.241 -0.002 0.243 0.017 0.245 0.033 0.249 0.052 0.251 0.07 0.253 0.088 0.257 0.107 0.259 0.127 0.261 0.145 0.263 0.164 0.264 0.185 0.266 0.203 0.266 0.224 0.266 0.242 0.265 0.263 0.265 0.281 0.264 0.301 0.261 0.32 0.26 0.339 0.256 0.358 0.254 0.376 0.249 0.395 0.246 0.414 0.242 0.431 0.236 0.45 0.232 0.467 0.225 0.485 0.221 0.503 0.213 0 0zm22.17 7.281l-0.591 1.378 0 0 -0.44 -0.182 -0.483 -0.19 -0.523 -0.196 -0.56 -0.201 -0.594 -0.207 -0.625 -0.211 -0.654 -0.216 -0.68 -0.22 -0.703 -0.224 -0.725 -0.226 -0.742 -0.23 -0.759 -0.232 -0.771 -0.235 -0.783 -0.237 -0.79 -0.238 -0.797 -0.239 -0.8 -0.241 -0.8 -0.242 -0.799 -0.242 -0.795 -0.242 -0.788 -0.242 -0.779 -0.242 -0.767 -0.241 -0.754 -0.241 -0.737 -0.238 -0.718 -0.237 -0.697 -0.236 -0.674 -0.234 -0.648 -0.231 -0.619 -0.229 -0.59 -0.226 -0.556 -0.224 0.571 -1.387 0.533 0.214 0.57 0.219 0.603 0.223 0.634 0.226 0.661 0.229 0.687 0.233 0.71 0.234 0.729 0.236 0.747 0.238 0.762 0.24 0.775 0.24 0.784 0.241 0.792 0.242 0.797 0.241 0.799 0.242 0.8 0.24 0.796 0.24 0.792 0.238 0.784 0.238 0.775 0.235 0.761 0.234 0.747 0.23 0.73 0.229 0.71 0.225 0.688 0.223 0.664 0.219 0.636 0.215 0.608 0.212 0.576 0.207 0.543 0.203 0.507 0.2 0.47 0.195 0 0zm9.379 7.873l-1.489 0.186 0 0 -0.031 -0.187 -0.048 -0.192 -0.066 -0.195 -0.083 -0.201 -0.1 -0.205 -0.119 -0.209 -0.136 -0.212 -0.155 -0.215 -0.172 -0.218 -0.189 -0.219 -0.206 -0.221 -0.222 -0.222 -0.238 -0.223 -0.252 -0.222 -0.267 -0.222 -0.282 -0.222 -0.294 -0.221 -0.307 -0.22 -0.32 -0.219 -0.331 -0.217 -0.342 -0.215 -0.352 -0.214 -0.363 -0.211 -0.371 -0.209 -0.38 -0.207 -0.389 -0.204 -0.396 -0.201 -0.402 -0.198 -0.409 -0.195 -0.415 -0.192 -0.42 -0.188 -0.424 -0.185 0.591 -1.378 0.439 0.191 0.436 0.195 0.43 0.199 0.426 0.203 0.42 0.206 0.413 0.21 0.406 0.214 0.4 0.217 0.391 0.22 0.383 0.223 0.374 0.227 0.365 0.23 0.355 0.233 0.345 0.236 0.334 0.239 0.322 0.242 0.311 0.245 0.298 0.248 0.286 0.252 0.272 0.255 0.258 0.258 0.244 0.262 0.229 0.265 0.213 0.27 0.196 0.274 0.18 0.279 0.161 0.284 0.142 0.289 0.122 0.294 0.1 0.3 0.076 0.304 0.052 0.309 0 0zm-38.311 17.036l-0.277 -1.474 0 0 0.578 -0.11 0.732 -0.141 0.873 -0.172 1.002 -0.203 1.121 -0.233 1.229 -0.262 1.324 -0.291 1.407 -0.319 1.481 -0.346 1.541 -0.373 1.591 -0.399 1.629 -0.424 1.655 -0.449 1.67 -0.473 1.673 -0.496 1.665 -0.519 1.644 -0.54 1.613 -0.562 1.569 -0.581 1.514 -0.602 1.447 -0.619 1.367 -0.636 1.275 -0.652 1.172 -0.666 1.056 -0.677 0.926 -0.685 0.785 -0.687 0.632 -0.684 0.471 -0.671 0.308 -0.65 0.151 -0.629 -0.002 -0.625 1.489 -0.186 0.003 0.985 -0.227 0.956 -0.428 0.907 -0.6 0.858 -0.753 0.815 -0.89 0.781 -1.015 0.751 -1.131 0.725 -1.235 0.703 -1.33 0.679 -1.413 0.658 -1.486 0.636 -1.548 0.615 -1.6 0.593 -1.639 0.571 -1.668 0.548 -1.686 0.526 -1.691 0.501 -1.687 0.478 -1.671 0.453 -1.643 0.428 -1.603 0.402 -1.553 0.375 -1.491 0.349 -1.418 0.321 -1.333 0.293 -1.236 0.264 -1.129 0.234 -1.01 0.205 -0.879 0.173 -0.737 0.143 -0.584 0.11 0 0zm-4.48 -4.365l0.745 1.302 0 0 -0.6 0.352 -0.525 0.327 -0.454 0.302 -0.383 0.275 -0.313 0.249 -0.244 0.219 -0.177 0.184 -0.11 0.141 -0.049 0.085 -0.005 0.011 0.002 -0.067 -0.027 -0.099 -0.042 -0.064 -0.005 -0.007 0.058 0.03 0.119 0.044 0.177 0.045 0.226 0.04 0.267 0.031 0.303 0.02 0.336 0.009 0.363 -0.002 0.389 -0.013 0.411 -0.022 0.43 -0.033 0.445 -0.043 0.459 -0.051 0.47 -0.06 0.478 -0.068 0.484 -0.075 0.487 -0.082 0.488 -0.089 0.277 1.474 -0.506 0.092 -0.506 0.085 -0.503 0.079 -0.498 0.07 -0.492 0.063 -0.483 0.054 -0.472 0.045 -0.458 0.035 -0.444 0.025 -0.427 0.014 -0.408 0.002 -0.389 -0.011 -0.368 -0.024 -0.347 -0.04 -0.326 -0.058 -0.308 -0.079 -0.293 -0.11 -0.279 -0.155 -0.261 -0.222 -0.211 -0.313 -0.106 -0.381 0.019 -0.382 0.111 -0.341 0.172 -0.304 0.221 -0.284 0.268 -0.281 0.32 -0.286 0.374 -0.298 0.433 -0.312 0.496 -0.329 0.561 -0.35 0.63 -0.369 0 0zm27.918 -10.644l0.474 1.423 0 0 -0.498 0.166 -0.558 0.183 -0.614 0.201 -0.667 0.218 -0.716 0.234 -0.761 0.25 -0.803 0.264 -0.841 0.278 -0.876 0.291 -0.908 0.303 -0.934 0.314 -0.958 0.325 -0.979 0.335 -0.995 0.345 -1.007 0.352 -1.017 0.36 -1.023 0.366 -1.024 0.373 -1.023 0.377 -1.017 0.382 -1.008 0.385 -0.995 0.388 -0.979 0.389 -0.959 0.391 -0.934 0.391 -0.907 0.39 -0.876 0.388 -0.84 0.386 -0.801 0.382 -0.758 0.378 -0.711 0.373 -0.66 0.365 -0.745 -1.302 0.694 -0.384 0.739 -0.387 0.783 -0.391 0.823 -0.392 0.859 -0.395 0.892 -0.396 0.922 -0.396 0.948 -0.397 0.97 -0.395 0.99 -0.394 1.005 -0.391 1.017 -0.389 1.025 -0.385 1.03 -0.38 1.031 -0.375 1.028 -0.368 1.023 -0.362 1.013 -0.354 0.999 -0.346 0.983 -0.336 0.962 -0.327 0.938 -0.316 0.91 -0.303 0.878 -0.292 0.844 -0.279 0.804 -0.264 0.763 -0.25 0.716 -0.235 0.666 -0.218 0.613 -0.2 0.556 -0.183 0.494 -0.164 0 0zm16.303 -3.994l0.281 1.473 0 0 -0.142 0.028 -0.192 0.038 -0.239 0.048 -0.282 0.058 -0.323 0.067 -0.361 0.075 -0.397 0.084 -0.431 0.091 -0.461 0.099 -0.489 0.106 -0.514 0.112 -0.538 0.118 -0.558 0.125 -0.577 0.129 -0.592 0.135 -0.606 0.138 -0.616 0.144 -0.624 0.146 -0.629 0.15 -0.633 0.153 -0.633 0.155 -0.632 0.157 -0.626 0.159 -0.62 0.16 -0.61 0.161 -0.598 0.161 -0.583 0.161 -0.566 0.16 -0.546 0.159 -0.524 0.158 -0.498 0.156 -0.47 0.153 -0.474 -1.423 0.489 -0.159 0.514 -0.161 0.536 -0.162 0.559 -0.163 0.576 -0.163 0.592 -0.163 0.607 -0.164 0.617 -0.162 0.627 -0.162 0.633 -0.16 0.637 -0.159 0.638 -0.157 0.638 -0.154 0.634 -0.151 0.628 -0.147 0.62 -0.144 0.609 -0.14 0.595 -0.135 0.58 -0.13 0.562 -0.125 0.541 -0.119 0.517 -0.113 0.492 -0.107 0.463 -0.099 0.433 -0.092 0.4 -0.084 0.364 -0.076 0.326 -0.067 0.285 -0.059 0.243 -0.048 0.197 -0.04 0.151 -0.029 0 0zm1.939 -1.991l-0.95 -1.161 0 0 0.377 -0.288 0.374 -0.243 0.368 -0.199 0.363 -0.157 0.357 -0.115 0.35 -0.072 0.342 -0.03 0.333 0.015 0.32 0.06 0.302 0.108 0.279 0.155 0.247 0.201 0.204 0.242 0.158 0.275 0.105 0.299 0.051 0.312 0 0.319 -0.05 0.319 -0.095 0.315 -0.139 0.309 -0.182 0.302 -0.222 0.293 -0.262 0.282 -0.303 0.273 -0.345 0.26 -0.386 0.248 -0.429 0.234 -0.472 0.218 -0.518 0.202 -0.564 0.183 -0.611 0.164 -0.66 0.141 -0.281 -1.473 0.591 -0.127 0.537 -0.144 0.485 -0.158 0.435 -0.169 0.386 -0.178 0.338 -0.185 0.293 -0.187 0.248 -0.188 0.206 -0.185 0.166 -0.179 0.129 -0.169 0.093 -0.156 0.064 -0.141 0.037 -0.122 0.015 -0.101 0 -0.081 -0.01 -0.063 -0.015 -0.045 -0.021 -0.036 -0.027 -0.032 -0.036 -0.03 -0.053 -0.029 -0.076 -0.027 -0.1 -0.019 -0.129 -0.005 -0.158 0.013 -0.185 0.039 -0.211 0.067 -0.235 0.103 -0.257 0.139 -0.277 0.18 -0.294 0.224 0 0zm2.46 1.746l0.745 1.302 0 0 -0.279 0.143 -0.284 0.114 -0.286 0.084 -0.287 0.057 -0.285 0.029 -0.281 0.003 -0.276 -0.021 -0.269 -0.044 -0.26 -0.064 -0.252 -0.084 -0.242 -0.101 -0.231 -0.118 -0.22 -0.132 -0.209 -0.147 -0.195 -0.158 -0.183 -0.171 -0.17 -0.181 -0.155 -0.192 -0.139 -0.201 -0.123 -0.211 -0.106 -0.22 -0.086 -0.229 -0.066 -0.236 -0.041 -0.244 -0.016 -0.25 0.014 -0.254 0.045 -0.254 0.08 -0.252 0.113 -0.242 0.148 -0.229 0.179 -0.212 0.207 -0.192 0.95 1.161 -0.076 0.07 -0.055 0.065 -0.04 0.063 -0.029 0.062 -0.02 0.063 -0.012 0.069 -0.004 0.075 0.006 0.083 0.015 0.09 0.027 0.098 0.039 0.103 0.052 0.107 0.063 0.108 0.076 0.11 0.087 0.107 0.097 0.104 0.107 0.099 0.115 0.094 0.123 0.086 0.129 0.078 0.135 0.068 0.138 0.059 0.142 0.047 0.144 0.036 0.146 0.024 0.146 0.011 0.148 -0.002 0.149 -0.015 0.149 -0.029 0.152 -0.045 0.154 -0.062 0.157 -0.08 0 0zm4.579 -2.707l-0.475 1.423 0 0 -0.138 -0.042 -0.118 -0.028 -0.099 -0.016 -0.08 -0.006 -0.062 0 -0.048 0.006 -0.038 0.008 -0.033 0.012 -0.034 0.016 -0.036 0.021 -0.043 0.031 -0.049 0.041 -0.054 0.053 -0.061 0.066 -0.068 0.079 -0.073 0.091 -0.079 0.102 -0.084 0.111 -0.091 0.122 -0.097 0.13 -0.105 0.135 -0.113 0.143 -0.122 0.147 -0.132 0.151 -0.143 0.153 -0.154 0.155 -0.166 0.156 -0.179 0.155 -0.193 0.153 -0.208 0.151 -0.222 0.147 -0.237 0.143 -0.745 -1.302 0.182 -0.109 0.167 -0.111 0.155 -0.113 0.144 -0.115 0.133 -0.115 0.125 -0.117 0.117 -0.118 0.11 -0.118 0.104 -0.119 0.1 -0.12 0.096 -0.121 0.093 -0.121 0.091 -0.12 0.09 -0.121 0.092 -0.122 0.093 -0.121 0.097 -0.12 0.101 -0.119 0.111 -0.118 0.12 -0.116 0.132 -0.111 0.145 -0.104 0.16 -0.094 0.173 -0.08 0.187 -0.064 0.196 -0.043 0.203 -0.023 0.206 -0.002 0.208 0.016 0.212 0.035 0.215 0.05 0.221 0.067 0 0zm1.057 7.73l-1.266 -0.806 0 0 0.195 -0.318 0.177 -0.308 0.158 -0.298 0.14 -0.29 0.122 -0.279 0.106 -0.269 0.09 -0.259 0.074 -0.249 0.059 -0.239 0.045 -0.228 0.031 -0.217 0.019 -0.207 0.006 -0.196 -0.005 -0.186 -0.015 -0.176 -0.025 -0.166 -0.034 -0.156 -0.043 -0.147 -0.051 -0.138 -0.059 -0.13 -0.066 -0.123 -0.072 -0.115 -0.08 -0.108 -0.088 -0.103 -0.094 -0.096 -0.101 -0.09 -0.108 -0.083 -0.116 -0.079 -0.122 -0.071 -0.13 -0.066 -0.136 -0.059 -0.143 -0.052 0.475 -1.423 0.223 0.082 0.218 0.094 0.21 0.106 0.204 0.12 0.196 0.132 0.187 0.145 0.177 0.157 0.167 0.17 0.155 0.183 0.144 0.194 0.13 0.206 0.116 0.216 0.102 0.226 0.087 0.236 0.071 0.246 0.056 0.254 0.04 0.262 0.023 0.268 0.007 0.276 -0.009 0.282 -0.026 0.29 -0.043 0.295 -0.059 0.301 -0.076 0.308 -0.093 0.313 -0.111 0.32 -0.128 0.326 -0.146 0.332 -0.163 0.338 -0.182 0.344 -0.201 0.35 -0.219 0.358 0 0zm-10.23 4.237l0.671 -1.342 0 0 0.133 0.059 0.154 0.053 0.174 0.045 0.192 0.036 0.211 0.027 0.226 0.015 0.24 0.005 0.254 -0.008 0.265 -0.02 0.274 -0.032 0.284 -0.045 0.29 -0.057 0.297 -0.071 0.302 -0.083 0.305 -0.095 0.309 -0.109 0.309 -0.121 0.309 -0.134 0.309 -0.147 0.307 -0.159 0.303 -0.172 0.3 -0.184 0.294 -0.196 0.288 -0.209 0.281 -0.221 0.273 -0.233 0.263 -0.244 0.253 -0.257 0.242 -0.268 0.231 -0.281 0.217 -0.292 0.204 -0.303 1.266 0.806 -0.245 0.364 -0.261 0.35 -0.275 0.335 -0.288 0.319 -0.3 0.303 -0.31 0.288 -0.319 0.273 -0.328 0.258 -0.335 0.243 -0.342 0.228 -0.346 0.213 -0.351 0.198 -0.354 0.184 -0.356 0.169 -0.358 0.155 -0.358 0.141 -0.357 0.126 -0.356 0.111 -0.354 0.097 -0.35 0.083 -0.346 0.069 -0.342 0.054 -0.335 0.039 -0.33 0.025 -0.322 0.01 -0.315 -0.006 -0.307 -0.021 -0.297 -0.038 -0.289 -0.054 -0.279 -0.073 -0.268 -0.092 -0.257 -0.114 0 0zm2.124 -9.533l0.149 1.492 -0.209 0.035 -0.196 0.058 -0.185 0.082 -0.179 0.105 -0.173 0.131 -0.168 0.155 -0.161 0.18 -0.153 0.204 -0.144 0.226 -0.135 0.245 -0.123 0.264 -0.111 0.279 -0.098 0.292 -0.085 0.302 -0.072 0.31 -0.058 0.316 -0.044 0.317 -0.03 0.317 -0.016 0.315 -0.002 0.308 0.012 0.301 0.025 0.289 0.037 0.275 0.051 0.258 0.061 0.238 0.072 0.215 0.08 0.188 0.085 0.159 0.085 0.128 0.084 0.096 0.078 0.067 0.07 0.044 -0.671 1.342 -0.286 -0.176 -0.25 -0.215 -0.215 -0.245 -0.182 -0.269 -0.153 -0.287 -0.129 -0.304 -0.106 -0.318 -0.086 -0.331 -0.067 -0.344 -0.049 -0.354 -0.032 -0.363 -0.014 -0.37 0.002 -0.376 0.02 -0.38 0.036 -0.382 0.053 -0.383 0.07 -0.38 0.088 -0.379 0.105 -0.372 0.123 -0.366 0.142 -0.357 0.162 -0.346 0.181 -0.332 0.204 -0.318 0.226 -0.3 0.25 -0.279 0.276 -0.255 0.302 -0.227 0.328 -0.194 0.354 -0.155 0.376 -0.112 0.395 -0.064zm0 0c0.412,-0.042 0.78,0.259 0.821,0.671 0.041,0.413 -0.26,0.78 -0.672,0.821l-0.149 -1.492z"/>
   </g>
   <g>
    <path class="fil0" d="M95.83 54.634c-0.177,0.374 -0.624,0.535 -0.998,0.358 -0.375,-0.176 -0.535,-0.624 -0.359,-0.998l1.357 0.64zm9.493 -23.861l1.368 0.615 0 0 -0.229 0.506 -0.263 0.577 -0.295 0.643 -0.323 0.703 -0.351 0.758 -0.373 0.807 -0.395 0.851 -0.413 0.887 -0.428 0.92 -0.441 0.945 -0.451 0.965 -0.458 0.98 -0.463 0.988 -0.464 0.991 -0.463 0.988 -0.46 0.979 -0.453 0.965 -0.443 0.944 -0.432 0.919 -0.417 0.886 -0.399 0.849 -0.379 0.805 -0.356 0.756 -0.33 0.701 -0.301 0.64 -0.271 0.574 -0.236 0.501 -0.199 0.423 -0.16 0.339 -0.117 0.249 -0.073 0.155 -0.025 0.052 -1.357 -0.64 0.026 -0.053 0.072 -0.153 0.117 -0.25 0.16 -0.339 0.2 -0.423 0.236 -0.501 0.27 -0.573 0.301 -0.64 0.33 -0.701 0.356 -0.756 0.379 -0.805 0.399 -0.848 0.416 -0.887 0.432 -0.917 0.443 -0.945 0.453 -0.964 0.459 -0.979 0.464 -0.988 0.464 -0.99 0.462 -0.988 0.458 -0.979 0.45 -0.965 0.441 -0.944 0.428 -0.919 0.413 -0.887 0.394 -0.849 0.373 -0.805 0.35 -0.757 0.322 -0.701 0.294 -0.641 0.261 -0.573 0.227 -0.501 0 0zm3.91 -9.799l1.403 0.532 0 0 -0.043 0.116 -0.049 0.132 -0.054 0.146 -0.058 0.16 -0.063 0.175 -0.069 0.19 -0.074 0.202 -0.078 0.215 -0.084 0.23 -0.088 0.241 -0.094 0.254 -0.098 0.267 -0.104 0.278 -0.109 0.29 -0.113 0.302 -0.12 0.314 -0.124 0.324 -0.13 0.335 -0.135 0.346 -0.141 0.356 -0.146 0.367 -0.151 0.376 -0.157 0.387 -0.162 0.395 -0.168 0.405 -0.173 0.415 -0.179 0.423 -0.185 0.432 -0.191 0.44 -0.195 0.448 -0.202 0.457 -0.208 0.464 -1.368 -0.615 0.205 -0.458 0.199 -0.451 0.194 -0.443 0.188 -0.435 0.182 -0.426 0.177 -0.418 0.171 -0.409 0.166 -0.4 0.16 -0.391 0.155 -0.382 0.149 -0.372 0.145 -0.361 0.138 -0.352 0.134 -0.342 0.128 -0.331 0.123 -0.32 0.118 -0.31 0.112 -0.298 0.108 -0.287 0.103 -0.275 0.097 -0.264 0.093 -0.252 0.088 -0.239 0.082 -0.228 0.078 -0.214 0.074 -0.202 0.068 -0.189 0.064 -0.176 0.059 -0.164 0.056 -0.15 0.05 -0.136 0.046 -0.124 0 0zm2.958 5.043l-1.453 -0.375 0.123 -0.502 0.1 -0.468 0.079 -0.434 0.06 -0.401 0.04 -0.367 0.024 -0.336 0.008 -0.305 -0.006 -0.272 -0.018 -0.242 -0.029 -0.211 -0.037 -0.182 -0.043 -0.152 -0.046 -0.124 -0.047 -0.098 -0.044 -0.071 -0.038 -0.05 -0.032 -0.031 -0.023 -0.017 -0.014 -0.009 -0.007 -0.002 -0.005 -0.001 -0.003 0 -0.004 0 -0.01 0.002 -0.012 0.004 -0.015 0.008 -0.019 0.012 -0.019 0.016 -0.019 0.019 -0.017 0.023 -0.016 0.025 -0.013 0.03 -1.403 -0.532 0.084 -0.187 0.104 -0.176 0.123 -0.16 0.139 -0.144 0.154 -0.127 0.168 -0.108 0.182 -0.088 0.195 -0.065 0.204 -0.04 0.213 -0.012 0.217 0.018 0.216 0.05 0.21 0.082 0.198 0.113 0.184 0.141 0.165 0.165 0.148 0.188 0.128 0.209 0.109 0.227 0.092 0.246 0.074 0.264 0.058 0.284 0.042 0.305 0.025 0.326 0.007 0.35 -0.01 0.373 -0.028 0.398 -0.047 0.425 -0.067 0.453 -0.088 0.481 -0.109 0.511 -0.132 0.541zm0 0c-0.104,0.401 -0.513,0.642 -0.914,0.539 -0.401,-0.104 -0.642,-0.513 -0.539,-0.914l1.453 0.375z"/>
   </g>
   <g>
    <path class="fil0" d="M110.476 38.163c0.198,-0.363 0.655,-0.497 1.018,-0.298 0.363,0.198 0.496,0.655 0.298,1.018l-1.316 -0.72zm-4.361 7.513l-1.044 -1.077 0 0 0.371 -0.363 0.355 -0.355 0.341 -0.347 0.326 -0.338 0.311 -0.33 0.297 -0.32 0.282 -0.311 0.269 -0.302 0.255 -0.292 0.242 -0.282 0.228 -0.272 0.216 -0.261 0.202 -0.251 0.19 -0.24 0.178 -0.228 0.166 -0.217 0.153 -0.206 0.142 -0.193 0.13 -0.182 0.12 -0.17 0.108 -0.156 0.097 -0.143 0.086 -0.131 0.077 -0.117 0.067 -0.105 0.055 -0.089 0.046 -0.075 0.037 -0.062 0.029 -0.048 0.018 -0.032 0.011 -0.019 0 0.001 1.316 0.72 -0.009 0.016 -0.016 0.027 -0.025 0.044 -0.034 0.057 -0.043 0.072 -0.054 0.089 -0.064 0.102 -0.073 0.114 -0.084 0.129 -0.094 0.142 -0.105 0.155 -0.116 0.168 -0.127 0.181 -0.139 0.193 -0.15 0.205 -0.162 0.216 -0.174 0.229 -0.187 0.24 -0.199 0.251 -0.211 0.262 -0.225 0.272 -0.237 0.283 -0.252 0.293 -0.264 0.303 -0.279 0.312 -0.292 0.322 -0.307 0.331 -0.321 0.34 -0.336 0.349 -0.351 0.357 -0.366 0.366 -0.381 0.373 0 0zm-9.064 6.35l-0.363 -1.456 0 0 0.063 -0.017 0.087 -0.029 0.107 -0.04 0.127 -0.051 0.143 -0.062 0.159 -0.072 0.173 -0.084 0.186 -0.093 0.2 -0.105 0.213 -0.115 0.225 -0.126 0.236 -0.136 0.247 -0.148 0.258 -0.157 0.267 -0.169 0.278 -0.18 0.287 -0.19 0.296 -0.202 0.304 -0.212 0.312 -0.224 0.319 -0.234 0.327 -0.245 0.333 -0.258 0.34 -0.267 0.346 -0.28 0.351 -0.29 0.356 -0.302 0.361 -0.314 0.365 -0.324 0.369 -0.337 0.372 -0.348 0.376 -0.36 1.044 1.077 -0.389 0.373 -0.386 0.36 -0.382 0.349 -0.379 0.337 -0.374 0.325 -0.37 0.314 -0.365 0.301 -0.359 0.291 -0.353 0.279 -0.348 0.267 -0.34 0.256 -0.334 0.245 -0.326 0.233 -0.318 0.223 -0.31 0.211 -0.302 0.201 -0.293 0.189 -0.283 0.178 -0.274 0.168 -0.264 0.157 -0.253 0.147 -0.243 0.136 -0.231 0.125 -0.221 0.115 -0.21 0.106 -0.197 0.094 -0.185 0.085 -0.175 0.076 -0.163 0.066 -0.153 0.057 -0.145 0.047 -0.138 0.039 -0.001 0zm0.758 -4.081l0.106 1.496 0 0 -0.154 0.017 -0.135 0.025 -0.119 0.033 -0.102 0.038 -0.089 0.042 -0.078 0.046 -0.067 0.049 -0.058 0.051 -0.051 0.055 -0.044 0.058 -0.039 0.059 -0.032 0.062 -0.028 0.066 -0.022 0.066 -0.016 0.068 -0.011 0.068 -0.006 0.067 -0.001 0.064 0.004 0.061 0.008 0.056 0.011 0.048 0.013 0.04 0.012 0.029 0.009 0.018 0.004 0.006 -0.005 -0.005 -0.017 -0.014 -0.033 -0.02 -0.046 -0.018 -0.052 -0.01 -0.048 -0.001 -0.035 0.005 0.363 1.456 -0.216 0.035 -0.222 -0.004 -0.216 -0.043 -0.201 -0.079 -0.176 -0.108 -0.151 -0.127 -0.125 -0.141 -0.103 -0.149 -0.085 -0.156 -0.067 -0.16 -0.052 -0.164 -0.038 -0.169 -0.024 -0.172 -0.011 -0.175 0.002 -0.178 0.016 -0.179 0.029 -0.181 0.044 -0.182 0.061 -0.181 0.075 -0.178 0.093 -0.177 0.111 -0.172 0.127 -0.164 0.146 -0.156 0.164 -0.145 0.181 -0.132 0.197 -0.117 0.213 -0.101 0.228 -0.084 0.24 -0.066 0.253 -0.047 0.265 -0.029 0 0zm5.963 2.224l-0.657 1.349 0 0 -0.158 -0.08 -0.158 -0.083 -0.157 -0.086 -0.156 -0.088 -0.155 -0.09 -0.156 -0.092 -0.155 -0.093 -0.155 -0.093 -0.156 -0.094 -0.156 -0.093 -0.156 -0.093 -0.157 -0.091 -0.157 -0.09 -0.157 -0.088 -0.16 -0.085 -0.159 -0.083 -0.159 -0.079 -0.162 -0.077 -0.161 -0.072 -0.162 -0.067 -0.164 -0.064 -0.164 -0.057 -0.165 -0.053 -0.166 -0.047 -0.167 -0.041 -0.169 -0.035 -0.171 -0.029 -0.172 -0.021 -0.174 -0.015 -0.175 -0.007 -0.179 0 -0.182 0.009 -0.106 -1.496 0.248 -0.012 0.246 -0.001 0.241 0.01 0.238 0.019 0.233 0.03 0.228 0.038 0.224 0.046 0.22 0.055 0.215 0.06 0.211 0.068 0.206 0.073 0.202 0.077 0.197 0.083 0.194 0.086 0.189 0.089 0.186 0.092 0.181 0.095 0.178 0.095 0.174 0.097 0.171 0.098 0.166 0.097 0.164 0.097 0.16 0.096 0.157 0.094 0.154 0.093 0.15 0.089 0.147 0.087 0.143 0.084 0.141 0.079 0.136 0.075 0.133 0.07 0.13 0.065 0 0zm5.856 -0.793l0.78 1.281 0 0 -0.188 0.11 -0.196 0.105 -0.203 0.099 -0.209 0.096 -0.216 0.09 -0.221 0.086 -0.225 0.081 -0.231 0.077 -0.235 0.072 -0.238 0.067 -0.242 0.063 -0.243 0.057 -0.246 0.053 -0.247 0.047 -0.249 0.043 -0.248 0.037 -0.249 0.031 -0.248 0.026 -0.247 0.02 -0.245 0.014 -0.243 0.007 -0.241 0.002 -0.238 -0.006 -0.234 -0.012 -0.231 -0.02 -0.226 -0.027 -0.222 -0.036 -0.217 -0.044 -0.212 -0.053 -0.207 -0.063 -0.201 -0.075 -0.195 -0.086 0.657 -1.349 0.102 0.045 0.116 0.043 0.129 0.04 0.142 0.035 0.153 0.031 0.163 0.026 0.172 0.021 0.18 0.015 0.188 0.01 0.194 0.005 0.2 -0.002 0.205 -0.006 0.208 -0.012 0.213 -0.017 0.214 -0.022 0.215 -0.027 0.217 -0.033 0.217 -0.037 0.216 -0.041 0.215 -0.046 0.213 -0.051 0.21 -0.054 0.206 -0.058 0.202 -0.062 0.197 -0.066 0.191 -0.068 0.184 -0.072 0.177 -0.074 0.168 -0.076 0.16 -0.079 0.15 -0.08 0.139 -0.081 0 0zm4.177 -3.794l1.107 1.012 -0.008 0.009 -0.025 0.027 -0.038 0.041 -0.05 0.055 -0.066 0.07 -0.077 0.081 -0.087 0.093 -0.1 0.104 -0.109 0.115 -0.12 0.124 -0.129 0.133 -0.137 0.139 -0.144 0.146 -0.152 0.153 -0.158 0.156 -0.164 0.161 -0.17 0.165 -0.174 0.167 -0.177 0.168 -0.181 0.169 -0.185 0.169 -0.186 0.168 -0.187 0.166 -0.189 0.164 -0.189 0.16 -0.189 0.155 -0.189 0.151 -0.187 0.146 -0.187 0.138 -0.185 0.132 -0.183 0.123 -0.182 0.115 -0.78 -1.281 0.141 -0.09 0.15 -0.1 0.157 -0.112 0.162 -0.12 0.166 -0.129 0.171 -0.137 0.173 -0.143 0.175 -0.148 0.176 -0.152 0.177 -0.157 0.176 -0.159 0.175 -0.16 0.173 -0.161 0.17 -0.162 0.167 -0.16 0.163 -0.157 0.158 -0.156 0.153 -0.152 0.146 -0.147 0.141 -0.142 0.132 -0.135 0.124 -0.128 0.116 -0.119 0.106 -0.111 0.096 -0.101 0.086 -0.091 0.074 -0.078 0.06 -0.065 0.05 -0.054 0.036 -0.038 0.019 -0.021 0.008 -0.009zm0 0c0.279,-0.305 0.754,-0.326 1.059,-0.047 0.306,0.279 0.327,0.754 0.048,1.059l-1.107 -1.012z"/>
   </g>
   <g>
    <path class="fil0" d="M126.606 21.247c0.203,-0.361 0.661,-0.489 1.022,-0.286 0.361,0.203 0.489,0.66 0.286,1.021l-1.308 -0.735zm-13.736 27.665l-1.483 0.226 0 0 0.013 -0.484 0.113 -0.456 0.179 -0.514 0.243 -0.593 0.304 -0.674 0.36 -0.751 0.412 -0.825 0.46 -0.891 0.504 -0.95 0.543 -1.003 0.576 -1.049 0.607 -1.088 0.63 -1.119 0.651 -1.143 0.666 -1.161 0.676 -1.169 0.681 -1.172 0.683 -1.167 0.678 -1.155 0.669 -1.135 0.655 -1.108 0.637 -1.073 0.614 -1.032 0.585 -0.983 0.552 -0.926 0.515 -0.862 0.471 -0.791 0.424 -0.712 0.372 -0.626 0.313 -0.532 0.251 -0.43 0.182 -0.317 1.308 0.735 -0.191 0.334 -0.256 0.437 -0.316 0.537 -0.373 0.628 -0.425 0.714 -0.472 0.791 -0.514 0.862 -0.552 0.927 -0.585 0.981 -0.613 1.031 -0.636 1.072 -0.655 1.106 -0.667 1.133 -0.677 1.152 -0.681 1.164 -0.68 1.169 -0.673 1.166 -0.664 1.156 -0.648 1.138 -0.627 1.114 -0.602 1.08 -0.572 1.041 -0.538 0.994 -0.497 0.938 -0.452 0.875 -0.402 0.804 -0.347 0.724 -0.287 0.636 -0.219 0.534 -0.146 0.417 -0.067 0.265 -0.01 0.01 0 0zm3.96 1.389l0.683 1.335 0 0 -0.194 0.095 -0.199 0.089 -0.205 0.082 -0.21 0.076 -0.213 0.068 -0.218 0.062 -0.221 0.053 -0.224 0.045 -0.226 0.035 -0.229 0.026 -0.23 0.016 -0.232 0.005 -0.232 -0.006 -0.233 -0.019 -0.232 -0.032 -0.231 -0.046 -0.229 -0.061 -0.227 -0.077 -0.222 -0.093 -0.218 -0.112 -0.211 -0.129 -0.202 -0.147 -0.193 -0.166 -0.181 -0.185 -0.168 -0.202 -0.154 -0.22 -0.139 -0.236 -0.124 -0.253 -0.107 -0.268 -0.091 -0.284 -0.074 -0.3 -0.057 -0.314 1.483 -0.226 0.041 0.226 0.051 0.205 0.059 0.186 0.067 0.168 0.074 0.151 0.079 0.134 0.084 0.12 0.09 0.108 0.094 0.095 0.098 0.085 0.105 0.076 0.11 0.068 0.115 0.059 0.123 0.051 0.129 0.044 0.134 0.036 0.141 0.028 0.146 0.02 0.151 0.012 0.156 0.004 0.159 -0.003 0.161 -0.012 0.164 -0.018 0.165 -0.026 0.165 -0.033 0.165 -0.04 0.163 -0.046 0.162 -0.052 0.159 -0.057 0.154 -0.062 0.151 -0.068 0.145 -0.07 0 0zm10.23 -5.362l1.061 1.061 0 0 -0.164 0.147 -0.18 0.138 -0.204 0.141 -0.23 0.15 -0.256 0.157 -0.281 0.167 -0.305 0.175 -0.326 0.183 -0.346 0.19 -0.364 0.196 -0.38 0.202 -0.393 0.206 -0.405 0.21 -0.413 0.213 -0.42 0.214 -0.425 0.215 -0.427 0.215 -0.426 0.213 -0.425 0.211 -0.419 0.209 -0.413 0.204 -0.403 0.198 -0.392 0.193 -0.378 0.185 -0.361 0.178 -0.343 0.168 -0.321 0.158 -0.299 0.146 -0.272 0.135 -0.244 0.121 -0.213 0.107 -0.18 0.091 -0.683 -1.335 0.188 -0.096 0.219 -0.109 0.247 -0.123 0.275 -0.136 0.3 -0.148 0.323 -0.158 0.342 -0.168 0.361 -0.177 0.377 -0.185 0.391 -0.193 0.402 -0.198 0.411 -0.203 0.418 -0.207 0.422 -0.21 0.424 -0.212 0.423 -0.213 0.421 -0.213 0.416 -0.212 0.409 -0.211 0.399 -0.207 0.387 -0.203 0.372 -0.197 0.355 -0.192 0.336 -0.184 0.314 -0.176 0.288 -0.166 0.262 -0.155 0.231 -0.142 0.195 -0.127 0.157 -0.109 0.112 -0.085 0.053 -0.047 0 0zm-1.657 -1.409l-0.504 -1.413 0 0 0.315 -0.102 0.304 -0.08 0.294 -0.058 0.286 -0.035 0.274 -0.012 0.266 0.009 0.256 0.033 0.245 0.055 0.233 0.077 0.219 0.099 0.202 0.12 0.185 0.137 0.167 0.153 0.146 0.167 0.126 0.175 0.108 0.185 0.088 0.191 0.071 0.194 0.053 0.197 0.037 0.197 0.022 0.198 0.008 0.198 -0.006 0.196 -0.02 0.195 -0.033 0.192 -0.046 0.188 -0.06 0.184 -0.074 0.179 -0.088 0.175 -0.103 0.167 -0.118 0.159 -0.135 0.15 -1.061 -1.061 0.036 -0.039 0.036 -0.049 0.035 -0.057 0.033 -0.066 0.03 -0.074 0.026 -0.079 0.021 -0.086 0.015 -0.088 0.009 -0.089 0.003 -0.091 -0.003 -0.09 -0.01 -0.088 -0.016 -0.086 -0.022 -0.08 -0.027 -0.075 -0.031 -0.069 -0.037 -0.062 -0.041 -0.058 -0.045 -0.051 -0.05 -0.046 -0.057 -0.043 -0.064 -0.038 -0.074 -0.033 -0.087 -0.03 -0.102 -0.022 -0.119 -0.015 -0.137 -0.005 -0.156 0.007 -0.176 0.022 -0.195 0.038 -0.216 0.057 -0.236 0.076 0 0zm-3.613 6.639l-0.802 1.268 0 0 -0.373 -0.261 -0.33 -0.285 -0.285 -0.308 -0.239 -0.329 -0.191 -0.348 -0.142 -0.362 -0.094 -0.37 -0.048 -0.375 -0.004 -0.374 0.035 -0.371 0.071 -0.365 0.102 -0.36 0.131 -0.353 0.156 -0.346 0.18 -0.34 0.201 -0.332 0.22 -0.324 0.238 -0.316 0.253 -0.309 0.268 -0.299 0.28 -0.289 0.29 -0.279 0.3 -0.267 0.308 -0.256 0.315 -0.243 0.319 -0.229 0.323 -0.214 0.325 -0.199 0.326 -0.182 0.327 -0.164 0.326 -0.145 0.323 -0.126 0.504 1.413 -0.25 0.097 -0.259 0.116 -0.268 0.134 -0.272 0.153 -0.276 0.168 -0.277 0.184 -0.276 0.197 -0.272 0.21 -0.267 0.222 -0.26 0.233 -0.251 0.24 -0.24 0.248 -0.227 0.254 -0.213 0.259 -0.196 0.261 -0.178 0.263 -0.159 0.262 -0.138 0.26 -0.116 0.256 -0.093 0.249 -0.068 0.241 -0.045 0.231 -0.021 0.22 0.002 0.209 0.025 0.198 0.048 0.19 0.072 0.183 0.099 0.181 0.131 0.18 0.167 0.181 0.209 0.18 0.256 0.179 0 0zm6.823 -2.134l1.347 0.66 0 0 -0.117 0.223 -0.129 0.224 -0.143 0.223 -0.156 0.222 -0.169 0.221 -0.181 0.219 -0.193 0.215 -0.205 0.211 -0.216 0.206 -0.229 0.201 -0.239 0.193 -0.25 0.185 -0.261 0.176 -0.272 0.167 -0.282 0.155 -0.292 0.142 -0.302 0.129 -0.312 0.114 -0.321 0.098 -0.329 0.08 -0.338 0.06 -0.345 0.041 -0.353 0.019 -0.358 -0.004 -0.364 -0.028 -0.368 -0.053 -0.372 -0.079 -0.373 -0.107 -0.376 -0.134 -0.376 -0.163 -0.376 -0.193 -0.375 -0.221 0.802 -1.268 0.297 0.176 0.293 0.149 0.287 0.125 0.283 0.101 0.278 0.079 0.273 0.059 0.268 0.038 0.265 0.021 0.26 0.003 0.256 -0.014 0.253 -0.03 0.249 -0.045 0.244 -0.059 0.241 -0.073 0.235 -0.087 0.231 -0.098 0.225 -0.11 0.219 -0.12 0.213 -0.131 0.207 -0.14 0.199 -0.147 0.19 -0.154 0.182 -0.16 0.173 -0.165 0.165 -0.169 0.153 -0.171 0.143 -0.173 0.132 -0.173 0.121 -0.172 0.109 -0.169 0.095 -0.166 0.084 -0.159 0 0zm4.831 -6.082l0.118 1.495 0 0 0.029 -0.004 -0.008 0.003 -0.041 0.02 -0.064 0.04 -0.082 0.06 -0.096 0.08 -0.108 0.098 -0.116 0.114 -0.123 0.13 -0.128 0.145 -0.133 0.157 -0.137 0.169 -0.139 0.18 -0.141 0.188 -0.143 0.198 -0.144 0.205 -0.144 0.211 -0.145 0.217 -0.143 0.22 -0.142 0.224 -0.142 0.227 -0.138 0.227 -0.136 0.228 -0.134 0.228 -0.13 0.226 -0.126 0.224 -0.121 0.219 -0.117 0.216 -0.112 0.21 -0.106 0.203 -0.099 0.196 -0.093 0.188 -1.347 -0.66 0.099 -0.201 0.106 -0.209 0.112 -0.216 0.118 -0.221 0.123 -0.226 0.128 -0.231 0.132 -0.234 0.136 -0.237 0.139 -0.238 0.143 -0.24 0.146 -0.239 0.149 -0.238 0.15 -0.237 0.152 -0.235 0.154 -0.23 0.155 -0.227 0.156 -0.221 0.155 -0.215 0.157 -0.209 0.156 -0.202 0.156 -0.193 0.156 -0.184 0.155 -0.175 0.157 -0.166 0.156 -0.154 0.157 -0.143 0.16 -0.132 0.166 -0.12 0.174 -0.107 0.188 -0.091 0.207 -0.071 0.234 -0.04 -0.001 0zm2.574 3.137l-1.391 -0.562 0 -0.001 0.05 -0.133 0.038 -0.119 0.027 -0.107 0.018 -0.093 0.009 -0.081 0.002 -0.068 -0.003 -0.056 -0.005 -0.044 -0.008 -0.035 -0.01 -0.028 -0.011 -0.024 -0.012 -0.021 -0.014 -0.019 -0.018 -0.021 -0.021 -0.02 -0.028 -0.022 -0.034 -0.023 -0.039 -0.023 -0.047 -0.023 -0.053 -0.022 -0.058 -0.02 -0.065 -0.019 -0.068 -0.017 -0.073 -0.015 -0.077 -0.012 -0.079 -0.01 -0.08 -0.006 -0.082 -0.005 -0.082 -0.002 -0.082 0.001 -0.081 0.003 -0.079 0.005 -0.118 -1.495 0.122 -0.008 0.123 -0.005 0.126 -0.001 0.128 0.003 0.13 0.007 0.131 0.011 0.133 0.017 0.133 0.021 0.134 0.027 0.135 0.033 0.135 0.04 0.135 0.048 0.134 0.056 0.132 0.066 0.131 0.075 0.127 0.087 0.124 0.099 0.117 0.113 0.109 0.124 0.099 0.138 0.086 0.15 0.073 0.159 0.056 0.168 0.041 0.176 0.025 0.18 0.008 0.184 -0.007 0.188 -0.021 0.189 -0.036 0.193 -0.05 0.196 -0.063 0.2 -0.076 0.203 0 0zm-2.3 2.974l-0.926 1.18 0 0 -0.164 -0.16 -0.129 -0.202 -0.076 -0.22 -0.026 -0.21 0.011 -0.19 0.034 -0.167 0.047 -0.149 0.057 -0.137 0.064 -0.129 0.069 -0.126 0.075 -0.122 0.078 -0.123 0.085 -0.124 0.087 -0.125 0.09 -0.126 0.094 -0.127 0.096 -0.131 0.098 -0.132 0.1 -0.135 0.1 -0.137 0.1 -0.138 0.101 -0.141 0.099 -0.143 0.098 -0.144 0.095 -0.145 0.092 -0.147 0.089 -0.147 0.084 -0.148 0.08 -0.148 0.075 -0.148 0.069 -0.148 0.063 -0.147 1.391 0.562 -0.084 0.196 -0.089 0.191 -0.095 0.188 -0.098 0.183 -0.103 0.179 -0.105 0.174 -0.107 0.171 -0.109 0.166 -0.109 0.161 -0.109 0.156 -0.108 0.152 -0.107 0.149 -0.105 0.143 -0.102 0.137 -0.098 0.132 -0.093 0.126 -0.088 0.121 -0.083 0.115 -0.075 0.107 -0.067 0.098 -0.058 0.092 -0.05 0.081 -0.037 0.068 -0.027 0.055 -0.016 0.036 -0.004 0.013 0.002 -0.016 0.003 -0.05 -0.011 -0.081 -0.036 -0.104 -0.062 -0.097 -0.07 -0.068 0 0zm1.829 -0.912l1.287 0.771 0 0 -0.093 0.146 -0.1 0.141 -0.105 0.132 -0.108 0.125 -0.114 0.118 -0.119 0.112 -0.122 0.105 -0.124 0.098 -0.128 0.091 -0.128 0.084 -0.131 0.078 -0.134 0.071 -0.133 0.065 -0.135 0.058 -0.136 0.053 -0.136 0.046 -0.135 0.04 -0.136 0.035 -0.137 0.028 -0.135 0.021 -0.134 0.016 -0.134 0.009 -0.133 0.003 -0.132 -0.003 -0.131 -0.011 -0.132 -0.019 -0.131 -0.027 -0.129 -0.036 -0.128 -0.046 -0.127 -0.058 -0.123 -0.07 -0.119 -0.084 0.926 -1.18 -0.005 -0.004 0.003 0.002 0.01 0.004 0.019 0.007 0.027 0.007 0.033 0.007 0.041 0.006 0.049 0.004 0.054 0.001 0.059 -0.001 0.063 -0.004 0.068 -0.009 0.071 -0.011 0.071 -0.015 0.075 -0.019 0.078 -0.022 0.077 -0.027 0.079 -0.03 0.078 -0.034 0.079 -0.039 0.077 -0.041 0.076 -0.045 0.077 -0.05 0.073 -0.052 0.072 -0.056 0.069 -0.06 0.066 -0.062 0.064 -0.067 0.062 -0.071 0.059 -0.074 0.054 -0.076 0.051 -0.081 0 0zm3.581 -2.761l-0.086 1.498 0 0 -0.091 -0.003 -0.086 0.003 -0.081 0.007 -0.077 0.011 -0.073 0.015 -0.069 0.019 -0.069 0.024 -0.067 0.027 -0.065 0.031 -0.065 0.035 -0.065 0.041 -0.065 0.044 -0.065 0.05 -0.066 0.054 -0.065 0.06 -0.066 0.063 -0.066 0.069 -0.066 0.074 -0.066 0.078 -0.066 0.083 -0.067 0.087 -0.066 0.091 -0.067 0.095 -0.066 0.098 -0.067 0.101 -0.066 0.104 -0.068 0.107 -0.067 0.11 -0.068 0.111 -0.068 0.114 -0.07 0.115 -0.069 0.116 -1.287 -0.771 0.07 -0.116 0.07 -0.117 0.071 -0.117 0.071 -0.118 0.074 -0.119 0.074 -0.118 0.075 -0.118 0.078 -0.118 0.079 -0.117 0.081 -0.115 0.085 -0.116 0.086 -0.113 0.09 -0.112 0.093 -0.11 0.096 -0.108 0.101 -0.105 0.106 -0.103 0.109 -0.099 0.115 -0.094 0.119 -0.091 0.125 -0.086 0.131 -0.081 0.137 -0.074 0.142 -0.068 0.147 -0.06 0.152 -0.052 0.158 -0.043 0.162 -0.034 0.167 -0.024 0.169 -0.015 0.172 -0.005 0.176 0.005 0 0zm-0.463 4.945l-0.4 -1.446 0 0 0.198 -0.061 0.176 -0.068 0.157 -0.073 0.138 -0.076 0.12 -0.08 0.105 -0.082 0.09 -0.082 0.076 -0.083 0.064 -0.083 0.052 -0.083 0.043 -0.082 0.034 -0.083 0.026 -0.083 0.017 -0.081 0.011 -0.081 0.003 -0.081 -0.004 -0.08 -0.009 -0.077 -0.016 -0.075 -0.022 -0.072 -0.026 -0.067 -0.031 -0.063 -0.036 -0.057 -0.038 -0.052 -0.04 -0.045 -0.041 -0.039 -0.044 -0.033 -0.043 -0.027 -0.042 -0.02 -0.045 -0.016 -0.046 -0.011 -0.05 -0.005 0.086 -1.498 0.216 0.025 0.21 0.048 0.199 0.07 0.19 0.09 0.175 0.107 0.16 0.123 0.148 0.137 0.133 0.15 0.118 0.16 0.103 0.169 0.089 0.178 0.073 0.185 0.057 0.192 0.042 0.197 0.025 0.202 0.009 0.204 -0.009 0.208 -0.027 0.21 -0.046 0.21 -0.064 0.207 -0.084 0.205 -0.105 0.201 -0.124 0.195 -0.143 0.187 -0.163 0.177 -0.182 0.168 -0.199 0.155 -0.218 0.144 -0.236 0.131 -0.253 0.117 -0.27 0.104 -0.287 0.089 0 0zm1.4 0.903l0.97 1.144 0 0 -0.237 0.178 -0.249 0.147 -0.26 0.113 -0.263 0.081 -0.265 0.051 -0.263 0.021 -0.259 -0.004 -0.252 -0.029 -0.245 -0.05 -0.237 -0.07 -0.227 -0.087 -0.217 -0.103 -0.206 -0.119 -0.195 -0.131 -0.183 -0.146 -0.169 -0.157 -0.156 -0.171 -0.139 -0.183 -0.123 -0.196 -0.102 -0.211 -0.079 -0.226 -0.049 -0.241 -0.014 -0.252 0.027 -0.259 0.073 -0.258 0.118 -0.245 0.161 -0.225 0.195 -0.196 0.224 -0.168 0.25 -0.143 0.273 -0.118 0.298 -0.096 0.4 1.446 -0.173 0.056 -0.133 0.057 -0.096 0.054 -0.061 0.046 -0.035 0.035 -0.014 0.02 -0.005 0.01 -0.002 0.007 0 0.011 0.001 0.022 0.008 0.036 0.018 0.05 0.029 0.06 0.044 0.07 0.057 0.075 0.07 0.076 0.082 0.077 0.092 0.073 0.102 0.069 0.108 0.062 0.113 0.054 0.117 0.045 0.117 0.034 0.119 0.025 0.115 0.013 0.113 0.002 0.109 -0.009 0.104 -0.019 0.103 -0.032 0.099 -0.043 0.099 -0.058 0.1 -0.075 0 0zm3.481 4.474l-1.398 -0.542 0 0 0.1 -0.276 0.084 -0.265 0.067 -0.254 0.053 -0.242 0.038 -0.229 0.024 -0.218 0.012 -0.204 0 -0.191 -0.01 -0.177 -0.02 -0.163 -0.029 -0.148 -0.036 -0.135 -0.042 -0.118 -0.047 -0.105 -0.05 -0.09 -0.052 -0.076 -0.053 -0.063 -0.052 -0.051 -0.052 -0.041 -0.051 -0.031 -0.053 -0.024 -0.053 -0.018 -0.056 -0.012 -0.062 -0.005 -0.068 0.001 -0.076 0.011 -0.085 0.02 -0.093 0.033 -0.102 0.046 -0.11 0.062 -0.117 0.078 -0.122 0.097 -0.97 -1.144 0.207 -0.164 0.213 -0.143 0.218 -0.123 0.224 -0.101 0.227 -0.08 0.232 -0.055 0.233 -0.032 0.235 -0.006 0.232 0.021 0.229 0.047 0.219 0.073 0.209 0.097 0.197 0.121 0.182 0.143 0.166 0.161 0.149 0.178 0.132 0.193 0.115 0.207 0.098 0.219 0.081 0.231 0.065 0.24 0.049 0.251 0.033 0.262 0.016 0.27 0 0.279 -0.017 0.288 -0.033 0.296 -0.051 0.305 -0.068 0.313 -0.085 0.32 -0.104 0.328 -0.122 0.335 0 0zm-39.133 11.336l0.879 1.215 0 0 -1.26 1.01 -0.924 0.948 -0.61 0.868 -0.327 0.769 -0.092 0.665 0.101 0.592 0.288 0.566 0.495 0.553 0.712 0.527 0.92 0.477 1.113 0.41 1.287 0.328 1.44 0.237 1.576 0.139 1.693 0.032 1.793 -0.08 1.874 -0.198 1.941 -0.323 1.988 -0.453 2.02 -0.588 2.035 -0.728 2.034 -0.874 2.016 -1.026 1.983 -1.182 1.933 -1.344 1.868 -1.512 1.786 -1.684 1.69 -1.863 1.578 -2.047 1.45 -2.238 1.307 -2.435 1.148 -2.639 1.398 0.542 -1.196 2.75 -1.365 2.545 -1.517 2.341 -1.652 2.143 -1.769 1.951 -1.871 1.763 -1.954 1.582 -2.02 1.405 -2.071 1.235 -2.105 1.071 -2.121 0.912 -2.122 0.759 -2.106 0.613 -2.075 0.473 -2.028 0.337 -1.964 0.208 -1.886 0.084 -1.792 -0.034 -1.683 -0.148 -1.56 -0.257 -1.423 -0.364 -1.272 -0.469 -1.109 -0.576 -0.928 -0.689 -0.724 -0.815 -0.477 -0.945 -0.177 -1.047 0.149 -1.093 0.465 -1.097 0.767 -1.094 1.07 -1.098 1.383 -1.11 0 0zm69.001 -6.171l-1.349 0.658 0 0 -0.427 -0.612 -0.691 -0.585 -0.965 -0.542 -1.224 -0.481 -1.461 -0.41 -1.677 -0.335 -1.872 -0.26 -2.047 -0.186 -2.204 -0.113 -2.344 -0.045 -2.465 0.022 -2.568 0.086 -2.655 0.146 -2.724 0.205 -2.777 0.258 -2.811 0.31 -2.83 0.357 -2.831 0.403 -2.816 0.445 -2.783 0.483 -2.733 0.519 -2.667 0.552 -2.584 0.58 -2.483 0.606 -2.365 0.628 -2.231 0.647 -2.077 0.663 -1.908 0.675 -1.72 0.682 -1.512 0.684 -1.285 0.68 -1.036 0.666 -0.879 -1.215 1.162 -0.748 1.38 -0.731 1.586 -0.717 1.778 -0.706 1.956 -0.692 2.119 -0.675 2.266 -0.659 2.396 -0.636 2.511 -0.613 2.61 -0.586 2.691 -0.556 2.757 -0.524 2.806 -0.487 2.838 -0.448 2.854 -0.406 2.853 -0.361 2.836 -0.312 2.803 -0.261 2.752 -0.206 2.686 -0.148 2.603 -0.087 2.504 -0.023 2.389 0.046 2.257 0.116 2.112 0.192 1.951 0.27 1.775 0.355 1.588 0.446 1.388 0.547 1.176 0.663 0.946 0.806 0.672 0.97 0 0zm-161.018 28.508l-1.302 -0.744 0 0 1.215 -1.19 1.949 -0.999 2.676 -0.949 3.377 -0.928 4.032 -0.916 4.634 -0.908 5.181 -0.9 5.673 -0.894 6.106 -0.888 6.482 -0.883 6.8 -0.878 7.061 -0.873 7.263 -0.869 7.407 -0.865 7.493 -0.861 7.52 -0.858 7.491 -0.854 7.402 -0.852 7.254 -0.85 7.05 -0.847 6.786 -0.845 6.464 -0.844 6.082 -0.842 5.644 -0.841 5.144 -0.84 4.587 -0.838 3.967 -0.837 3.283 -0.832 2.53 -0.821 1.683 -0.783 0.709 -0.591 0.026 -0.13 1.349 -0.658 -0.09 1.562 -1.212 1.098 -1.929 0.903 -2.655 0.863 -3.358 0.851 -4.015 0.847 -4.62 0.844 -5.169 0.844 -5.661 0.843 -6.096 0.845 -6.473 0.845 -6.794 0.846 -7.055 0.848 -7.259 0.85 -7.403 0.852 -7.491 0.855 -7.521 0.858 -7.491 0.86 -7.403 0.865 -7.258 0.868 -7.053 0.872 -6.792 0.877 -6.47 0.881 -6.091 0.886 -5.652 0.891 -5.154 0.895 -4.597 0.901 -3.979 0.904 -3.295 0.906 -2.54 0.899 -1.697 0.863 -0.745 0.686 0 0zm26.563 0.701l0.146 1.493 0 0 -1.732 0.165 -1.682 0.153 -1.635 0.141 -1.584 0.129 -1.535 0.116 -1.483 0.103 -1.431 0.09 -1.378 0.077 -1.326 0.063 -1.27 0.049 -1.216 0.036 -1.161 0.021 -1.104 0.006 -1.048 -0.008 -0.99 -0.025 -0.932 -0.039 -0.875 -0.055 -0.816 -0.072 -0.757 -0.089 -0.698 -0.107 -0.641 -0.125 -0.584 -0.146 -0.529 -0.169 -0.475 -0.197 -0.423 -0.231 -0.372 -0.277 -0.312 -0.338 -0.229 -0.404 -0.117 -0.456 0.006 -0.469 0.116 -0.452 0.202 -0.428 1.302 0.744 -0.096 0.203 -0.038 0.142 -0.002 0.087 0.016 0.063 0.045 0.077 0.102 0.108 0.179 0.132 0.263 0.143 0.345 0.143 0.425 0.135 0.5 0.125 0.573 0.112 0.642 0.098 0.71 0.084 0.776 0.068 0.84 0.053 0.903 0.038 0.965 0.023 1.025 0.009 1.085 -0.006 1.143 -0.021 1.201 -0.035 1.256 -0.049 1.313 -0.062 1.367 -0.076 1.421 -0.09 1.474 -0.102 1.525 -0.116 1.577 -0.128 1.627 -0.14 1.677 -0.153 1.724 -0.164 0 0zm159.047 -4.374l-0.105 1.497 -5.383 -0.339 -5.546 -0.279 -5.689 -0.221 -5.814 -0.167 -5.918 -0.115 -6.005 -0.068 -6.072 -0.021 -6.121 0.021 -6.15 0.061 -6.161 0.098 -6.152 0.13 -6.126 0.162 -6.079 0.19 -6.013 0.214 -5.931 0.236 -5.826 0.255 -5.705 0.271 -5.565 0.283 -5.404 0.294 -5.227 0.3 -5.029 0.305 -4.813 0.305 -4.577 0.304 -4.323 0.298 -4.05 0.291 -3.759 0.279 -3.447 0.266 -3.118 0.249 -2.769 0.23 -2.402 0.206 -2.014 0.18 -1.608 0.152 -0.146 -1.493 1.617 -0.153 2.02 -0.181 2.407 -0.206 2.773 -0.23 3.122 -0.249 3.452 -0.266 3.762 -0.28 4.054 -0.291 4.328 -0.299 4.581 -0.303 4.817 -0.306 5.034 -0.305 5.231 -0.301 5.409 -0.293 5.57 -0.285 5.711 -0.27 5.832 -0.256 5.936 -0.236 6.02 -0.215 6.086 -0.189 6.133 -0.162 6.16 -0.132 6.17 -0.097 6.159 -0.061 6.131 -0.021 6.083 0.021 6.017 0.067 5.932 0.116 5.828 0.168 5.705 0.222 5.563 0.279 5.404 0.34zm0 0c0.413,0.029 0.724,0.388 0.696,0.801 -0.029,0.413 -0.387,0.725 -0.801,0.696l0.105 -1.497z"/>
   </g>
  </g>
 </g>
</svg>
