<?xml version="1.0" encoding="UTF-8"?>
<!DOCTYPE svg PUBLIC "-//W3C//DTD SVG 1.1//EN" "http://www.w3.org/Graphics/SVG/1.1/DTD/svg11.dtd">
<!-- Creator: CorelDRAW 2019 (64-Bit) -->
<svg xmlns="http://www.w3.org/2000/svg" xml:space="preserve" width="2.77777in" height="1.38888in" version="1.1" style="shape-rendering:geometricPrecision; text-rendering:geometricPrecision; image-rendering:optimizeQuality; fill-rule:evenodd; clip-rule:evenodd"
viewBox="0 0 2777.77 1388.88"
 xmlns:xlink="http://www.w3.org/1999/xlink"
 xmlns:xodm="http://www.corel.com/coreldraw/odm/2003">
 <defs>
  <style type="text/css">
   <![CDATA[
    .str9 {stroke:black;stroke-width:24.21;stroke-linecap:round;stroke-linejoin:round;stroke-miterlimit:2.61313}
    .str8 {stroke:black;stroke-width:24.21;stroke-linecap:round;stroke-linejoin:round;stroke-miterlimit:2.61313}
    .str0 {stroke:black;stroke-width:24.21;stroke-linecap:round;stroke-linejoin:round;stroke-miterlimit:2.61313}
    .str3 {stroke:black;stroke-width:24.21;stroke-linecap:round;stroke-linejoin:round;stroke-miterlimit:2.61313}
    .str4 {stroke:black;stroke-width:24.21;stroke-linecap:round;stroke-linejoin:round;stroke-miterlimit:2.61313}
    .str2 {stroke:black;stroke-width:24.21;stroke-linecap:round;stroke-linejoin:round;stroke-miterlimit:2.61313}
    .str5 {stroke:black;stroke-width:24.21;stroke-linecap:round;stroke-linejoin:round;stroke-miterlimit:2.61313}
    .str1 {stroke:black;stroke-width:24.21;stroke-linecap:round;stroke-linejoin:round;stroke-miterlimit:2.61313}
    .str6 {stroke:black;stroke-width:24.21;stroke-linecap:round;stroke-linejoin:round;stroke-miterlimit:2.61313}
    .str7 {stroke:black;stroke-width:24.21;stroke-linecap:round;stroke-linejoin:round;stroke-miterlimit:2.61313}
    .fil1 {fill:none}
    .fil0 {fill:black;fill-rule:nonzero}
   ]]>
  </style>
 </defs>
 <g id="Layer_x0020_1">
  <metadata id="CorelCorpID_0Corel-Layer"/>
  <g>
   <path class="fil0" d="M39.13 729.22c-7.47,0.51 -14,-4.47 -14.57,-11.13 -0.57,-6.66 5.01,-12.49 12.48,-13l2.09 24.13zm718.73 -91.92l3.61 23.99 -22.97 2.74 -22.88 2.69 -22.8 2.65 -22.72 2.6 -22.66 2.56 -22.59 2.51 -22.54 2.47 -22.5 2.43 -22.44 2.38 -22.41 2.35 -22.38 2.3 -22.35 2.26 -22.33 2.22 -22.32 2.19 -22.31 2.15 -22.31 2.11 -22.31 2.07 -22.33 2.04 -22.34 2 -22.37 1.98 -22.4 1.93 -22.43 1.91 -22.48 1.87 -22.52 1.84 -22.58 1.81 -22.63 1.78 -22.7 1.75 -22.78 1.72 -22.85 1.69 -22.93 1.67 -23.03 1.64 -23.12 1.61 -2.09 -24.13 23.08 -1.61 22.98 -1.64 22.89 -1.66 22.81 -1.69 22.73 -1.72 22.66 -1.75 22.59 -1.77 22.53 -1.81 22.48 -1.83 22.42 -1.87 22.39 -1.9 22.35 -1.93 22.32 -1.97 22.3 -2 22.28 -2.04 22.27 -2.07 22.26 -2.11 22.26 -2.14 22.27 -2.19 22.28 -2.22 22.3 -2.26 22.33 -2.3 22.36 -2.34 22.4 -2.38 22.44 -2.42 22.49 -2.46 22.55 -2.51 22.61 -2.55 22.68 -2.59 22.76 -2.64 22.83 -2.69 22.92 -2.73zm0 0c7.43,-0.89 14.26,3.76 15.25,10.39 1,6.62 -4.21,12.72 -11.64,13.61l-3.61 -23.99z"/>
  </g>
  <g>
   <path class="fil1 str0" d="M931.07 542.05c35.49,-19.17 71.77,50.62 26.1,88.54 -82.81,68.76 -174.55,-12.85 -62.42,-132.24"/>
  </g>
  <g>
   <path class="fil1 str1" d="M723.24 465.34c80.17,15.31 246.57,23.75 316.8,-146.31"/>
  </g>
  <g>
   <path class="fil1 str2" d="M1240.03 437.08c-136.38,-84.06 31.02,-67.54 70.37,-67.54 35.18,0 88.53,-9.66 142.44,-33.49 95.36,-42.15 173.4,5.51 148.12,105.58"/>
  </g>
  <g>
   <path class="fil1 str3" d="M1415.01 548.33c-21.17,33.39 -53.33,65.95 -73.4,52.21 -20.07,-13.74 21,-122.59 35.19,-148.12 27.8,-50.05 171.45,-37.3 97.61,119.74"/>
  </g>
  <g>
   <path class="fil1 str4" d="M1228.67 1123.21c0,0 123.72,-335.97 219.06,-432.45"/>
  </g>
  <g>
   <path class="fil1 str5" d="M1685.48 706.65c0,0 95.72,31.59 95.72,141.88 0,110.28 -261.95,71.45 -130.91,-56.75 131.04,-128.2 359.64,-87.87 449.47,62.43"/>
  </g>
  <g>
   <path class="fil1 str6" d="M1686.62 454.12c0,0 -48.24,80.59 -60.72,96.48 -7.53,9.59 -71.13,-91.45 82.29,-20.43 105.8,48.98 51.38,-127.53 17.02,-175.4 -92.95,-129.52 160.02,-116.58 131.67,30.08 -16.46,85.13 -31.24,112.96 -43.73,135.1 -12.49,22.13 23.83,36.32 73.2,9.65 49.38,-26.67 114.05,-56.76 224.15,-60.16 177.99,-5.5 356.08,-21.02 535.38,-36.51"/>
  </g>
  <g>
   <path class="fil1 str7" d="M2702.21 425c2.3,-0.08 3.91,-0.15 6.84,-0.22"/>
  </g>
  <g>
   <path class="fil1 str8" d="M2285.54 831.24c2.3,-0.08 3.91,-0.15 6.84,-0.22"/>
  </g>
  <g>
   <path class="fil1 str9" d="M1108.46 578.64c2.3,-0.08 3.91,-0.15 6.84,-0.22"/>
  </g>
 </g>
</svg>
