<?xml version="1.0" encoding="UTF-8"?>
<!DOCTYPE svg PUBLIC "-//W3C//DTD SVG 1.1//EN" "http://www.w3.org/Graphics/SVG/1.1/DTD/svg11.dtd">
<!-- Creator: CorelDRAW 2019 (64-Bit) -->
<svg xmlns="http://www.w3.org/2000/svg" xml:space="preserve" width="200px" height="100px" version="1.1" style="shape-rendering:geometricPrecision; text-rendering:geometricPrecision; image-rendering:optimizeQuality; fill-rule:evenodd; clip-rule:evenodd"
viewBox="0 0 200 100"
 xmlns:xlink="http://www.w3.org/1999/xlink"
 xmlns:xodm="http://www.corel.com/coreldraw/odm/2003">
 <defs>
  <style type="text/css">
   <![CDATA[
    .fil0 {fill:black;fill-rule:nonzero}
   ]]>
  </style>
 </defs>
 <g id="Layer_x0020_1">
  <metadata id="CorelCorpID_0Corel-Layer"/>
  <g id="_2203978288176">
   <g>
    <path class="fil0" d="M28.595 43.113c0.35,0.253 0.43,0.742 0.177,1.093 -0.252,0.35 -0.741,0.43 -1.092,0.177l0.915 -1.27zm-5.669 -15.513l1.507 0.423 0 0 -0.239 0.939 -0.183 0.908 -0.13 0.876 -0.082 0.845 -0.036 0.813 0.007 0.783 0.046 0.751 0.082 0.722 0.115 0.692 0.145 0.661 0.171 0.633 0.195 0.603 0.215 0.574 0.233 0.544 0.248 0.516 0.258 0.486 0.267 0.457 0.273 0.428 0.274 0.399 0.273 0.369 0.269 0.339 0.262 0.31 0.251 0.28 0.237 0.251 0.221 0.22 0.199 0.19 0.177 0.159 0.15 0.131 0.12 0.099 0.086 0.069 0.051 0.039 0.007 0.004 -0.915 1.27 -0.036 -0.026 -0.072 -0.055 -0.11 -0.088 -0.145 -0.12 -0.175 -0.152 -0.203 -0.184 -0.228 -0.217 -0.249 -0.248 -0.266 -0.282 -0.281 -0.313 -0.292 -0.346 -0.3 -0.379 -0.305 -0.412 -0.306 -0.444 -0.303 -0.477 -0.297 -0.509 -0.289 -0.543 -0.276 -0.575 -0.26 -0.608 -0.241 -0.641 -0.217 -0.674 -0.191 -0.705 -0.162 -0.739 -0.128 -0.77 -0.091 -0.802 -0.051 -0.833 -0.007 -0.865 0.039 -0.895 0.089 -0.926 0.142 -0.956 0.199 -0.985 0.258 -1.014 0 0zm49.918 -12.187l-0.93 1.259 0 0 -1.341 -0.92 -1.421 -0.841 -1.494 -0.761 -1.561 -0.681 -1.621 -0.601 -1.673 -0.519 -1.718 -0.437 -1.757 -0.355 -1.787 -0.273 -1.811 -0.19 -1.827 -0.106 -1.836 -0.023 -1.838 0.06 -1.832 0.144 -1.82 0.229 -1.799 0.311 -1.773 0.396 -1.738 0.479 -1.696 0.564 -1.647 0.646 -1.592 0.73 -1.529 0.814 -1.458 0.896 -1.383 0.979 -1.299 1.061 -1.21 1.143 -1.112 1.226 -1.012 1.309 -0.902 1.391 -0.788 1.474 -0.667 1.56 -0.539 1.646 -1.507 -0.423 0.582 -1.774 0.72 -1.685 0.851 -1.593 0.974 -1.501 1.088 -1.409 1.195 -1.316 1.294 -1.223 1.384 -1.132 1.468 -1.039 1.544 -0.949 1.612 -0.857 1.673 -0.768 1.728 -0.678 1.774 -0.589 1.814 -0.5 1.847 -0.413 1.873 -0.324 1.891 -0.237 1.904 -0.15 1.909 -0.063 1.908 0.024 1.898 0.111 1.884 0.197 1.86 0.284 1.832 0.37 1.795 0.457 1.752 0.544 1.702 0.63 1.644 0.718 1.58 0.805 1.509 0.893 1.429 0.98 0 0zm-32.415 43.205l-0.427 -1.506 0 0 1.288 -0.39 1.449 -0.488 1.588 -0.58 1.711 -0.669 1.813 -0.754 1.899 -0.835 1.967 -0.912 2.016 -0.985 2.048 -1.054 2.062 -1.12 2.059 -1.18 2.038 -1.239 1.999 -1.291 1.943 -1.341 1.868 -1.385 1.776 -1.426 1.666 -1.462 1.539 -1.492 1.394 -1.518 1.232 -1.539 1.052 -1.552 0.857 -1.56 0.649 -1.562 0.426 -1.558 0.192 -1.553 -0.053 -1.55 -0.313 -1.553 -0.594 -1.56 -0.899 -1.573 -1.228 -1.582 -1.579 -1.589 -1.953 -1.588 0.93 -1.259 2.07 1.683 1.705 1.716 1.353 1.745 1.013 1.774 0.684 1.796 0.365 1.806 0.063 1.804 -0.221 1.787 -0.481 1.763 -0.719 1.732 -0.933 1.699 -1.128 1.664 -1.303 1.628 -1.459 1.591 -1.6 1.551 -1.721 1.51 -1.826 1.466 -1.914 1.419 -1.984 1.37 -2.037 1.315 -2.073 1.26 -2.092 1.2 -2.094 1.136 -2.078 1.07 -2.045 0.999 -1.995 0.925 -1.927 0.847 -1.843 0.766 -1.742 0.682 -1.624 0.593 -1.49 0.502 -1.339 0.406 0 0zm-30.399 -0.373l0.959 -1.237 0 0 0.09 0.053 0.226 0.099 0.335 0.116 0.43 0.122 0.512 0.125 0.59 0.124 0.66 0.123 0.725 0.119 0.786 0.115 0.842 0.109 0.893 0.102 0.939 0.095 0.983 0.086 1.019 0.075 1.054 0.066 1.083 0.054 1.109 0.041 1.13 0.027 1.145 0.014 1.159 -0.003 1.166 -0.019 1.171 -0.035 1.17 -0.054 1.165 -0.073 1.157 -0.094 1.143 -0.114 1.125 -0.136 1.103 -0.158 1.076 -0.182 1.046 -0.206 1.01 -0.23 0.971 -0.257 0.427 1.506 -1.024 0.27 -1.059 0.242 -1.089 0.214 -1.117 0.189 -1.14 0.164 -1.158 0.14 -1.174 0.117 -1.185 0.095 -1.192 0.075 -1.195 0.055 -1.194 0.037 -1.189 0.019 -1.18 0.002 -1.167 -0.013 -1.149 -0.028 -1.128 -0.042 -1.103 -0.055 -1.073 -0.066 -1.04 -0.078 -1.002 -0.087 -0.96 -0.097 -0.915 -0.105 -0.866 -0.112 -0.812 -0.118 -0.755 -0.125 -0.695 -0.128 -0.631 -0.134 -0.565 -0.137 -0.499 -0.143 -0.433 -0.15 -0.375 -0.165 -0.335 -0.209 0 0zm73.047 5.004l-0.725 1.386 -1.869 -0.895 -2.112 -0.865 -2.332 -0.831 -2.528 -0.795 -2.704 -0.757 -2.855 -0.718 -2.987 -0.676 -3.094 -0.635 -3.182 -0.591 -3.248 -0.548 -3.292 -0.501 -3.314 -0.456 -3.316 -0.409 -3.295 -0.36 -3.253 -0.312 -3.191 -0.261 -3.106 -0.21 -2.999 -0.159 -2.872 -0.106 -2.723 -0.052 -2.551 0.003 -2.357 0.058 -2.141 0.113 -1.901 0.169 -1.636 0.226 -1.34 0.276 -1.009 0.319 -0.626 0.322 -0.215 0.207 -0.01 0.032 0.139 0.257 0.556 0.528 -0.959 1.237 -0.832 -0.804 -0.445 -0.946 0.17 -1.042 0.686 -0.742 0.952 -0.501 1.206 -0.383 1.467 -0.304 1.722 -0.237 1.965 -0.175 2.192 -0.116 2.397 -0.059 2.585 -0.002 2.752 0.052 2.898 0.107 3.024 0.16 3.128 0.211 3.212 0.264 3.275 0.313 3.316 0.363 3.337 0.411 3.337 0.459 3.315 0.505 3.272 0.552 3.209 0.596 3.125 0.641 3.02 0.684 2.894 0.727 2.747 0.77 2.58 0.811 2.393 0.853 2.187 0.896 1.961 0.94zm0 0c0.383,0.2 0.531,0.673 0.331,1.056 -0.2,0.382 -0.674,0.531 -1.056,0.33l0.725 -1.386z"/>
   </g>
   <g>
    <path class="fil0" d="M35.518 90.449c-0.148,0.406 -0.597,0.614 -1.003,0.466 -0.406,-0.148 -0.614,-0.598 -0.466,-1.004l1.469 0.538zm20.543 -59.333l1.429 0.638 0 0.001 -0.267 0.618 -0.337 0.812 -0.399 0.99 -0.458 1.156 -0.513 1.311 -0.563 1.454 -0.609 1.587 -0.652 1.708 -0.69 1.818 -0.725 1.918 -0.755 2.007 -0.782 2.084 -0.805 2.151 -0.824 2.207 -0.838 2.252 -0.85 2.286 -0.856 2.309 -0.86 2.322 -0.86 2.323 -0.855 2.314 -0.845 2.293 -0.834 2.262 -0.818 2.22 -0.797 2.167 -0.773 2.104 -0.745 2.028 -0.713 1.943 -0.677 1.847 -0.637 1.739 -0.594 1.62 -0.546 1.492 -0.495 1.352 -1.469 -0.538 0.495 -1.352 0.546 -1.492 0.593 -1.621 0.638 -1.739 0.677 -1.847 0.713 -1.943 0.745 -2.029 0.773 -2.104 0.798 -2.167 0.817 -2.221 0.834 -2.262 0.847 -2.294 0.855 -2.314 0.859 -2.324 0.86 -2.322 0.857 -2.31 0.85 -2.287 0.839 -2.253 0.824 -2.208 0.805 -2.153 0.783 -2.085 0.756 -2.009 0.726 -1.92 0.691 -1.821 0.652 -1.711 0.611 -1.59 0.564 -1.459 0.515 -1.316 0.462 -1.164 0.404 -1.001 0.343 -0.829 0.28 -0.648 0 0zm5.179 -3.183l-1.545 0.254 0.002 0.011 -0.003 -0.014 -0.005 -0.027 -0.009 -0.035 -0.012 -0.044 -0.015 -0.046 -0.018 -0.048 -0.019 -0.046 -0.018 -0.038 -0.017 -0.028 -0.01 -0.014 0.003 0.001 0.017 0.014 0.039 0.023 0.06 0.021 0.064 0.009 0.05 -0.004 0.02 -0.005 -0.015 0.007 -0.051 0.032 -0.083 0.065 -0.109 0.102 -0.132 0.144 -0.15 0.187 -0.169 0.232 -0.186 0.279 -0.201 0.329 -0.218 0.381 -0.232 0.433 -0.247 0.49 -0.263 0.548 -0.278 0.608 -1.429 -0.638 0.29 -0.633 0.276 -0.575 0.262 -0.521 0.252 -0.469 0.239 -0.42 0.229 -0.373 0.22 -0.331 0.211 -0.291 0.207 -0.255 0.202 -0.22 0.202 -0.191 0.207 -0.162 0.217 -0.133 0.233 -0.102 0.25 -0.063 0.26 -0.015 0.255 0.037 0.234 0.085 0.196 0.118 0.159 0.133 0.128 0.141 0.101 0.14 0.082 0.137 0.065 0.131 0.052 0.123 0.043 0.115 0.033 0.105 0.026 0.092 0.02 0.08 0.014 0.061 0.008 0.042 0.006 0.031zm0 0c0.07,0.427 -0.219,0.829 -0.646,0.899 -0.426,0.07 -0.829,-0.218 -0.899,-0.645l1.545 -0.254z"/>
   </g>
   <g>
    <path class="fil0" d="M97.435 49.059c-0.192,0.386 -0.662,0.544 -1.049,0.352 -0.387,-0.192 -0.544,-0.662 -0.352,-1.049l1.401 0.697zm-2.442 -4.203l0.472 -1.492 0 0 0.347 0.123 0.321 0.144 0.296 0.162 0.271 0.182 0.244 0.199 0.217 0.215 0.19 0.228 0.163 0.238 0.136 0.245 0.11 0.25 0.087 0.252 0.064 0.251 0.045 0.25 0.027 0.245 0.012 0.241 -0.002 0.234 -0.012 0.227 -0.023 0.22 -0.031 0.211 -0.037 0.202 -0.043 0.192 -0.046 0.181 -0.048 0.168 -0.049 0.156 -0.049 0.143 -0.046 0.128 -0.044 0.112 -0.04 0.096 -0.033 0.078 -0.027 0.058 -0.018 0.039 -0.012 0.025 -1.401 -0.697 -0.002 0.004 0.01 -0.021 0.018 -0.039 0.023 -0.055 0.029 -0.069 0.032 -0.084 0.036 -0.096 0.037 -0.108 0.037 -0.118 0.036 -0.128 0.035 -0.135 0.031 -0.141 0.027 -0.146 0.022 -0.15 0.015 -0.151 0.009 -0.152 0.001 -0.151 -0.007 -0.149 -0.016 -0.145 -0.025 -0.141 -0.035 -0.136 -0.044 -0.13 -0.056 -0.125 -0.066 -0.12 -0.078 -0.116 -0.093 -0.112 -0.11 -0.108 -0.13 -0.106 -0.152 -0.103 -0.179 -0.098 -0.207 -0.092 -0.239 -0.085 0 0zm-15.699 5.562l-1.024 -1.183 0 0 0.394 -0.328 0.424 -0.324 0.449 -0.321 0.475 -0.318 0.497 -0.314 0.518 -0.31 0.538 -0.304 0.554 -0.299 0.569 -0.293 0.583 -0.286 0.594 -0.277 0.603 -0.27 0.61 -0.259 0.614 -0.25 0.618 -0.238 0.619 -0.227 0.618 -0.213 0.615 -0.2 0.61 -0.186 0.603 -0.171 0.593 -0.154 0.584 -0.138 0.57 -0.119 0.557 -0.101 0.541 -0.081 0.523 -0.06 0.505 -0.038 0.484 -0.014 0.465 0.011 0.444 0.038 0.422 0.069 0.402 0.104 -0.472 1.492 -0.248 -0.064 -0.295 -0.048 -0.336 -0.029 -0.375 -0.008 -0.409 0.012 -0.439 0.033 -0.466 0.053 -0.49 0.074 -0.513 0.092 -0.53 0.112 -0.547 0.129 -0.561 0.145 -0.571 0.162 -0.581 0.177 -0.587 0.191 -0.591 0.205 -0.593 0.217 -0.593 0.229 -0.59 0.239 -0.585 0.249 -0.577 0.258 -0.569 0.266 -0.557 0.273 -0.542 0.278 -0.526 0.284 -0.507 0.288 -0.487 0.291 -0.463 0.292 -0.438 0.293 -0.409 0.292 -0.378 0.29 -0.346 0.287 0 0zm4.844 3.639l0.577 1.454 0 0 -0.571 0.21 -0.56 0.173 -0.549 0.137 -0.534 0.101 -0.521 0.068 -0.506 0.036 -0.489 0.002 -0.472 -0.028 -0.455 -0.058 -0.435 -0.088 -0.415 -0.117 -0.393 -0.145 -0.371 -0.173 -0.345 -0.2 -0.32 -0.226 -0.291 -0.252 -0.26 -0.277 -0.228 -0.302 -0.19 -0.323 -0.152 -0.343 -0.11 -0.36 -0.067 -0.373 -0.021 -0.381 0.025 -0.388 0.07 -0.388 0.116 -0.387 0.159 -0.383 0.204 -0.378 0.245 -0.371 0.288 -0.363 0.331 -0.355 0.372 -0.344 1.024 1.183 -0.292 0.271 -0.25 0.267 -0.208 0.262 -0.169 0.256 -0.132 0.246 -0.099 0.236 -0.067 0.225 -0.039 0.214 -0.013 0.204 0.011 0.195 0.033 0.186 0.055 0.179 0.077 0.173 0.099 0.169 0.123 0.163 0.148 0.157 0.173 0.15 0.198 0.14 0.224 0.13 0.25 0.116 0.274 0.101 0.299 0.085 0.323 0.065 0.345 0.044 0.369 0.022 0.388 -0.002 0.41 -0.028 0.428 -0.057 0.447 -0.085 0.463 -0.115 0.481 -0.148 0.495 -0.182 0 0zm25.885 -7.77l-0.877 -1.297 0 0 0.657 -0.461 0.438 -0.344 0.206 -0.195 -0.062 0.172 0.372 0.743 0.16 0.052 -0.245 0.036 -0.446 0.108 -0.596 0.176 -0.723 0.238 -0.834 0.295 -0.933 0.346 -1.019 0.39 -1.094 0.429 -1.159 0.464 -1.211 0.493 -1.254 0.517 -1.286 0.535 -1.307 0.548 -1.318 0.557 -1.317 0.559 -1.307 0.557 -1.285 0.55 -1.253 0.536 -1.211 0.519 -1.157 0.496 -1.094 0.468 -1.02 0.434 -0.935 0.396 -0.84 0.353 -0.736 0.303 -0.622 0.251 -0.577 -1.454 0.607 -0.245 0.726 -0.3 0.835 -0.35 0.931 -0.394 1.017 -0.434 1.092 -0.467 1.157 -0.495 1.211 -0.519 1.254 -0.537 1.286 -0.55 1.308 -0.558 1.32 -0.56 1.321 -0.558 1.31 -0.55 1.291 -0.537 1.26 -0.519 1.219 -0.496 1.167 -0.467 1.105 -0.434 1.034 -0.396 0.951 -0.352 0.86 -0.304 0.761 -0.251 0.656 -0.194 0.552 -0.132 0.481 -0.064 0.589 0.103 0.484 0.955 -0.287 0.554 -0.379 0.37 -0.526 0.413 -0.708 0.498 0 0zm-0.101 2.821l0.449 1.498 0 0 -0.467 0.129 -0.434 0.097 -0.405 0.066 -0.378 0.035 -0.354 0.003 -0.336 -0.031 -0.317 -0.07 -0.3 -0.113 -0.276 -0.163 -0.239 -0.211 -0.191 -0.253 -0.134 -0.277 -0.079 -0.285 -0.032 -0.283 0.005 -0.279 0.037 -0.271 0.06 -0.266 0.083 -0.264 0.101 -0.26 0.118 -0.257 0.134 -0.255 0.148 -0.252 0.161 -0.247 0.173 -0.244 0.183 -0.239 0.194 -0.232 0.202 -0.225 0.21 -0.215 0.218 -0.207 0.224 -0.195 0.23 -0.183 0.236 -0.169 0.877 1.297 -0.17 0.121 -0.172 0.137 -0.172 0.15 -0.171 0.162 -0.167 0.172 -0.162 0.179 -0.155 0.186 -0.147 0.19 -0.136 0.193 -0.125 0.193 -0.111 0.189 -0.098 0.186 -0.082 0.178 -0.065 0.168 -0.048 0.153 -0.032 0.137 -0.015 0.114 -0.003 0.087 0.007 0.059 0.007 0.031 0.004 0.009 0.001 0.002 0.008 0.007 0.03 0.017 0.068 0.026 0.114 0.025 0.162 0.014 0.212 -0.002 0.259 -0.024 0.306 -0.05 0.353 -0.079 0.399 -0.109 0 0zm23.339 -7.377l-1.497 -0.455 0 0 0.011 0.291 0.274 0.341 0.105 0.042 -0.143 0.005 -0.3 0.046 -0.412 0.096 -0.504 0.144 -0.581 0.187 -0.651 0.227 -0.713 0.263 -0.766 0.295 -0.814 0.324 -0.856 0.349 -0.89 0.37 -0.918 0.388 -0.942 0.402 -0.958 0.414 -0.968 0.421 -0.973 0.424 -0.971 0.425 -0.964 0.422 -0.95 0.415 -0.932 0.405 -0.906 0.392 -0.875 0.375 -0.838 0.354 -0.796 0.331 -0.748 0.303 -0.694 0.274 -0.637 0.239 -0.574 0.203 -0.509 0.163 -0.449 -1.498 0.457 -0.147 0.538 -0.191 0.611 -0.23 0.676 -0.266 0.734 -0.298 0.786 -0.326 0.831 -0.351 0.869 -0.372 0.902 -0.39 0.928 -0.404 0.949 -0.415 0.964 -0.421 0.972 -0.426 0.974 -0.425 0.971 -0.422 0.962 -0.415 0.947 -0.405 0.926 -0.392 0.899 -0.373 0.867 -0.354 0.828 -0.329 0.785 -0.303 0.736 -0.271 0.682 -0.238 0.624 -0.2 0.564 -0.161 0.505 -0.117 0.454 -0.069 0.436 -0.006 0.498 0.143 0.469 0.56 -0.005 0.637 0 0zm-1.646 2.99l0.476 1.49 0 0.001 -0.439 0.133 -0.391 0.106 -0.349 0.079 -0.316 0.053 -0.291 0.025 -0.284 -0.008 -0.299 -0.063 -0.322 -0.168 -0.273 -0.316 -0.117 -0.378 0.011 -0.321 0.069 -0.255 0.094 -0.218 0.111 -0.202 0.124 -0.197 0.138 -0.197 0.149 -0.199 0.158 -0.203 0.166 -0.206 0.171 -0.209 0.175 -0.211 0.175 -0.211 0.173 -0.212 0.169 -0.209 0.162 -0.207 0.153 -0.201 0.14 -0.194 0.124 -0.184 0.106 -0.171 0.085 -0.156 0.063 -0.133 0.038 -0.103 1.497 0.455 -0.091 0.251 -0.112 0.241 -0.129 0.234 -0.143 0.232 -0.155 0.23 -0.165 0.228 -0.172 0.227 -0.177 0.225 -0.179 0.223 -0.18 0.219 -0.177 0.214 -0.172 0.208 -0.165 0.201 -0.154 0.192 -0.141 0.18 -0.124 0.166 -0.104 0.149 -0.081 0.127 -0.054 0.098 -0.024 0.053 0.002 -0.013 0.001 -0.111 -0.065 -0.203 -0.154 -0.179 -0.132 -0.071 -0.032 -0.009 0.065 0.001 0.145 -0.013 0.213 -0.036 0.277 -0.062 0.337 -0.091 0.396 -0.121 0 0zm17.523 -4.164l-0.167 1.557 0 0 -0.62 -0.056 -0.612 -0.034 -0.605 -0.012 -0.597 0.007 -0.589 0.026 -0.583 0.044 -0.576 0.062 -0.57 0.076 -0.563 0.092 -0.558 0.106 -0.551 0.119 -0.545 0.13 -0.54 0.142 -0.534 0.151 -0.529 0.161 -0.524 0.168 -0.518 0.175 -0.514 0.181 -0.509 0.186 -0.504 0.189 -0.499 0.192 -0.495 0.195 -0.491 0.194 -0.487 0.195 -0.482 0.192 -0.479 0.19 -0.475 0.187 -0.472 0.182 -0.469 0.176 -0.466 0.169 -0.463 0.161 -0.461 0.151 -0.476 -1.49 0.435 -0.144 0.441 -0.153 0.448 -0.163 0.455 -0.17 0.46 -0.178 0.468 -0.183 0.475 -0.189 0.481 -0.192 0.489 -0.195 0.495 -0.196 0.502 -0.197 0.51 -0.196 0.516 -0.195 0.525 -0.191 0.531 -0.187 0.539 -0.183 0.548 -0.175 0.554 -0.169 0.563 -0.159 0.571 -0.15 0.58 -0.139 0.587 -0.126 0.596 -0.113 0.605 -0.098 0.613 -0.083 0.621 -0.066 0.631 -0.048 0.639 -0.028 0.648 -0.008 0.657 0.014 0.665 0.036 0.675 0.06 0 0zm23.715 -4.63l0.156 1.558 0 0 -0.664 0.076 -0.68 0.098 -0.694 0.117 -0.709 0.135 -0.721 0.151 -0.732 0.166 -0.743 0.18 -0.752 0.19 -0.76 0.2 -0.767 0.208 -0.774 0.214 -0.779 0.219 -0.782 0.222 -0.786 0.223 -0.789 0.222 -0.789 0.22 -0.79 0.216 -0.79 0.211 -0.788 0.203 -0.787 0.194 -0.783 0.183 -0.779 0.17 -0.774 0.156 -0.769 0.14 -0.762 0.122 -0.755 0.102 -0.748 0.081 -0.738 0.057 -0.73 0.031 -0.719 0.004 -0.709 -0.025 -0.696 -0.057 0.167 -1.557 0.621 0.051 0.641 0.024 0.657 -0.004 0.673 -0.029 0.689 -0.053 0.703 -0.076 0.715 -0.097 0.728 -0.116 0.737 -0.134 0.747 -0.151 0.756 -0.165 0.763 -0.179 0.769 -0.189 0.774 -0.2 0.778 -0.208 0.782 -0.213 0.784 -0.219 0.785 -0.221 0.785 -0.223 0.785 -0.222 0.783 -0.22 0.78 -0.217 0.777 -0.21 0.773 -0.204 0.768 -0.194 0.761 -0.184 0.755 -0.171 0.748 -0.157 0.739 -0.14 0.73 -0.123 0.72 -0.104 0.709 -0.082 0 0zm16.722 -4.304l0.728 1.385 -0.314 0.161 -0.332 0.161 -0.352 0.163 -0.371 0.163 -0.388 0.164 -0.406 0.164 -0.423 0.166 -0.441 0.164 -0.457 0.165 -0.472 0.164 -0.487 0.163 -0.504 0.162 -0.517 0.161 -0.53 0.158 -0.544 0.157 -0.557 0.154 -0.569 0.152 -0.58 0.149 -0.592 0.145 -0.602 0.142 -0.613 0.137 -0.621 0.134 -0.631 0.128 -0.639 0.124 -0.647 0.119 -0.655 0.113 -0.661 0.107 -0.668 0.101 -0.673 0.095 -0.678 0.088 -0.683 0.079 -0.687 0.074 -0.156 -1.558 0.669 -0.071 0.665 -0.078 0.661 -0.085 0.657 -0.092 0.651 -0.099 0.645 -0.104 0.638 -0.111 0.632 -0.115 0.623 -0.121 0.616 -0.126 0.607 -0.13 0.597 -0.134 0.587 -0.139 0.577 -0.141 0.566 -0.145 0.554 -0.148 0.542 -0.15 0.528 -0.152 0.516 -0.155 0.501 -0.155 0.486 -0.157 0.471 -0.158 0.456 -0.158 0.439 -0.158 0.421 -0.157 0.404 -0.158 0.386 -0.156 0.367 -0.155 0.346 -0.153 0.327 -0.151 0.305 -0.147 0.282 -0.145zm0 0c0.383,-0.201 0.856,-0.054 1.057,0.329 0.201,0.382 0.054,0.855 -0.329,1.056l-0.728 -1.385z"/>
   </g>
  </g>
 </g>
</svg>
