<?xml version="1.0" encoding="UTF-8"?>
<!DOCTYPE svg PUBLIC "-//W3C//DTD SVG 1.1//EN" "http://www.w3.org/Graphics/SVG/1.1/DTD/svg11.dtd">
<!-- Creator: CorelDRAW 2019 (64-Bit) -->
<svg xmlns="http://www.w3.org/2000/svg" xml:space="preserve" width="200px" height="100px" version="1.1" style="shape-rendering:geometricPrecision; text-rendering:geometricPrecision; image-rendering:optimizeQuality; fill-rule:evenodd; clip-rule:evenodd"
viewBox="0 0 200 100"
 xmlns:xlink="http://www.w3.org/1999/xlink"
 xmlns:xodm="http://www.corel.com/coreldraw/odm/2003">
 <defs>
  <style type="text/css">
   <![CDATA[
    .fil0 {fill:black;fill-rule:nonzero}
   ]]>
  </style>
 </defs>
 <g id="Layer_x0020_1">
  <metadata id="CorelCorpID_0Corel-Layer"/>
  <g id="_2204054710032">
   <g>
    <path class="fil0" d="M71.494 60.908c0.413,0.021 0.732,0.373 0.711,0.787 -0.021,0.414 -0.374,0.732 -0.787,0.711l0.076 -1.498zm-2.337 -4.191l0.659 1.348 0 0 -0.648 0.332 -0.545 0.308 -0.448 0.284 -0.353 0.257 -0.261 0.226 -0.175 0.188 -0.095 0.137 -0.033 0.075 -0.003 0.014 -0.001 -0.017 0 -0.003 0.028 0.035 0.074 0.068 0.125 0.087 0.172 0.095 0.211 0.094 0.243 0.091 0.269 0.085 0.287 0.078 0.298 0.071 0.305 0.063 0.306 0.055 0.301 0.049 0.29 0.041 0.275 0.034 0.254 0.029 0.228 0.022 0.198 0.018 0.161 0.013 0.12 0.008 0.075 0.005 0.02 0.001 -0.076 1.498 -0.036 -0.002 -0.084 -0.005 -0.132 -0.009 -0.174 -0.014 -0.213 -0.019 -0.245 -0.024 -0.273 -0.031 -0.297 -0.037 -0.315 -0.045 -0.33 -0.053 -0.338 -0.061 -0.344 -0.071 -0.344 -0.081 -0.341 -0.094 -0.333 -0.105 -0.324 -0.121 -0.311 -0.14 -0.295 -0.163 -0.276 -0.195 -0.253 -0.238 -0.214 -0.298 -0.147 -0.363 -0.044 -0.406 0.07 -0.403 0.162 -0.373 0.236 -0.342 0.301 -0.325 0.368 -0.318 0.441 -0.323 0.52 -0.33 0.606 -0.342 0.698 -0.358 0 0zm35.829 -19.299l0.869 1.223 0 0 -0.547 0.375 -0.642 0.417 -0.731 0.457 -0.817 0.496 -0.896 0.532 -0.971 0.565 -1.038 0.595 -1.101 0.623 -1.157 0.647 -1.207 0.668 -1.251 0.688 -1.29 0.702 -1.322 0.715 -1.347 0.725 -1.367 0.731 -1.381 0.734 -1.389 0.735 -1.39 0.732 -1.386 0.727 -1.374 0.719 -1.358 0.706 -1.335 0.692 -1.305 0.673 -1.271 0.654 -1.23 0.629 -1.181 0.603 -1.129 0.573 -1.068 0.54 -1.003 0.504 -0.931 0.465 -0.854 0.424 -0.77 0.378 -0.659 -1.348 0.765 -0.376 0.849 -0.421 0.928 -0.464 1 -0.502 1.065 -0.539 1.126 -0.572 1.18 -0.601 1.227 -0.628 1.268 -0.652 1.304 -0.673 1.333 -0.691 1.356 -0.705 1.372 -0.717 1.383 -0.725 1.387 -0.731 1.387 -0.734 1.378 -0.733 1.364 -0.729 1.344 -0.723 1.318 -0.714 1.286 -0.7 1.246 -0.684 1.202 -0.666 1.152 -0.644 1.094 -0.619 1.03 -0.591 0.961 -0.559 0.885 -0.524 0.801 -0.487 0.713 -0.446 0.615 -0.399 0.51 -0.35 0 0zm26.541 -19.105l0.623 1.365 0 0 -0.702 0.336 -0.739 0.384 -0.774 0.429 -0.805 0.471 -0.833 0.509 -0.857 0.545 -0.878 0.577 -0.897 0.606 -0.913 0.631 -0.925 0.654 -0.935 0.674 -0.943 0.69 -0.947 0.703 -0.948 0.713 -0.947 0.721 -0.943 0.723 -0.936 0.726 -0.926 0.722 -0.914 0.717 -0.899 0.709 -0.881 0.697 -0.861 0.682 -0.837 0.664 -0.811 0.644 -0.783 0.62 -0.752 0.592 -0.718 0.563 -0.681 0.53 -0.642 0.494 -0.6 0.455 -0.557 0.413 -0.511 0.369 -0.869 -1.223 0.493 -0.356 0.543 -0.403 0.591 -0.448 0.634 -0.488 0.676 -0.525 0.714 -0.56 0.749 -0.59 0.781 -0.619 0.81 -0.643 0.838 -0.665 0.862 -0.683 0.883 -0.698 0.901 -0.71 0.917 -0.719 0.93 -0.726 0.94 -0.728 0.948 -0.729 0.953 -0.724 0.955 -0.719 0.954 -0.709 0.952 -0.696 0.945 -0.681 0.937 -0.662 0.926 -0.641 0.912 -0.616 0.896 -0.588 0.877 -0.557 0.857 -0.524 0.832 -0.487 0.807 -0.448 0.779 -0.404 0.749 -0.359 0 0zm16.124 -3.91l-0.285 1.472 0 0 -0.214 -0.036 -0.235 -0.03 -0.256 -0.022 -0.275 -0.016 -0.294 -0.006 -0.312 0.002 -0.331 0.011 -0.348 0.02 -0.366 0.029 -0.383 0.039 -0.399 0.05 -0.416 0.06 -0.432 0.07 -0.449 0.081 -0.463 0.092 -0.479 0.103 -0.494 0.115 -0.508 0.126 -0.524 0.139 -0.538 0.15 -0.552 0.163 -0.566 0.175 -0.58 0.188 -0.594 0.201 -0.606 0.214 -0.62 0.227 -0.633 0.241 -0.645 0.255 -0.658 0.269 -0.67 0.283 -0.682 0.298 -0.694 0.312 -0.623 -1.365 0.709 -0.319 0.698 -0.305 0.686 -0.289 0.674 -0.276 0.663 -0.261 0.649 -0.248 0.638 -0.234 0.624 -0.22 0.612 -0.207 0.598 -0.194 0.586 -0.181 0.572 -0.169 0.558 -0.156 0.545 -0.144 0.53 -0.132 0.517 -0.12 0.503 -0.108 0.488 -0.097 0.473 -0.085 0.459 -0.075 0.445 -0.064 0.429 -0.053 0.415 -0.043 0.399 -0.032 0.384 -0.022 0.369 -0.012 0.354 -0.002 0.34 0.007 0.324 0.018 0.308 0.028 0.295 0.037 0.28 0.048 0 0zm-5.054 9.035l-0.679 -1.338 0.487 -0.256 0.468 -0.263 0.449 -0.27 0.43 -0.276 0.409 -0.28 0.39 -0.284 0.369 -0.285 0.349 -0.288 0.327 -0.288 0.306 -0.286 0.284 -0.285 0.261 -0.281 0.239 -0.277 0.216 -0.27 0.192 -0.264 0.17 -0.255 0.145 -0.243 0.121 -0.231 0.097 -0.217 0.074 -0.2 0.051 -0.18 0.03 -0.156 0.01 -0.132 -0.004 -0.106 -0.014 -0.078 -0.018 -0.054 -0.022 -0.039 -0.028 -0.034 -0.041 -0.035 -0.065 -0.038 -0.098 -0.039 -0.136 -0.035 0.285 -1.472 0.313 0.08 0.295 0.118 0.272 0.161 0.24 0.203 0.2 0.242 0.153 0.272 0.102 0.289 0.054 0.298 0.012 0.299 -0.024 0.3 -0.056 0.301 -0.085 0.301 -0.111 0.302 -0.137 0.305 -0.161 0.308 -0.185 0.311 -0.208 0.313 -0.231 0.316 -0.254 0.318 -0.276 0.32 -0.298 0.321 -0.321 0.32 -0.341 0.321 -0.363 0.318 -0.384 0.317 -0.405 0.314 -0.426 0.31 -0.446 0.305 -0.466 0.299 -0.486 0.292 -0.506 0.285 -0.525 0.276zm0 0c-0.369,0.187 -0.821,0.04 -1.008,-0.329 -0.187,-0.37 -0.04,-0.822 0.329,-1.009l0.679 1.338z"/>
   </g>
   <g>
    <path class="fil0" d="M52.768 74.255c-0.388,0.145 -0.821,-0.052 -0.966,-0.44 -0.146,-0.387 0.051,-0.82 0.439,-0.965l0.527 1.405zm25.602 -14.472l0.774 1.285 0 0 -1.351 0.806 -1.334 0.781 -1.315 0.756 -1.295 0.73 -1.272 0.705 -1.248 0.68 -1.223 0.655 -1.195 0.629 -1.167 0.604 -1.136 0.579 -1.103 0.553 -1.07 0.528 -1.034 0.503 -0.996 0.477 -0.958 0.451 -0.917 0.426 -0.874 0.4 -0.831 0.375 -0.784 0.35 -0.738 0.323 -0.688 0.298 -0.637 0.273 -0.585 0.246 -0.531 0.221 -0.475 0.195 -0.416 0.169 -0.359 0.144 -0.298 0.118 -0.234 0.092 -0.17 0.065 -0.104 0.04 -0.038 0.015 -0.527 -1.405 0.03 -0.012 0.1 -0.038 0.165 -0.064 0.23 -0.089 0.291 -0.115 0.352 -0.142 0.411 -0.167 0.469 -0.192 0.524 -0.218 0.579 -0.244 0.63 -0.27 0.682 -0.295 0.73 -0.32 0.777 -0.347 0.824 -0.371 0.867 -0.397 0.909 -0.423 0.95 -0.447 0.988 -0.473 1.026 -0.499 1.061 -0.524 1.095 -0.549 1.128 -0.574 1.157 -0.6 1.186 -0.624 1.214 -0.65 1.238 -0.675 1.263 -0.7 1.284 -0.724 1.305 -0.75 1.324 -0.775 1.34 -0.799 0 0zm22.448 -16.239l1.165 0.946 0 0 -0.225 0.269 -0.247 0.281 -0.271 0.295 -0.296 0.309 -0.322 0.323 -0.348 0.337 -0.376 0.352 -0.404 0.368 -0.433 0.383 -0.463 0.399 -0.494 0.415 -0.525 0.431 -0.559 0.448 -0.591 0.464 -0.625 0.482 -0.661 0.499 -0.696 0.517 -0.733 0.534 -0.77 0.553 -0.809 0.57 -0.848 0.589 -0.888 0.608 -0.928 0.626 -0.971 0.646 -1.012 0.665 -1.056 0.684 -1.1 0.705 -1.144 0.724 -1.191 0.745 -1.237 0.765 -1.284 0.786 -1.332 0.806 -0.774 -1.285 1.326 -0.803 1.279 -0.782 1.23 -0.761 1.184 -0.741 1.138 -0.72 1.093 -0.7 1.048 -0.679 1.005 -0.661 0.963 -0.64 0.92 -0.621 0.879 -0.602 0.84 -0.583 0.799 -0.564 0.761 -0.546 0.723 -0.527 0.686 -0.509 0.65 -0.491 0.614 -0.473 0.58 -0.455 0.546 -0.438 0.512 -0.42 0.48 -0.404 0.449 -0.386 0.418 -0.37 0.387 -0.353 0.359 -0.336 0.33 -0.32 0.302 -0.303 0.276 -0.287 0.249 -0.271 0.223 -0.255 0.199 -0.238 0 0zm-15.379 -6.982l0.09 -1.498 0 0 1.509 0.104 1.425 0.124 1.343 0.143 1.264 0.163 1.187 0.179 1.112 0.197 1.039 0.212 0.968 0.227 0.9 0.242 0.833 0.255 0.769 0.268 0.707 0.28 0.647 0.292 0.59 0.303 0.534 0.315 0.481 0.325 0.428 0.337 0.378 0.348 0.328 0.358 0.278 0.37 0.229 0.38 0.179 0.388 0.129 0.394 0.078 0.396 0.03 0.395 -0.018 0.388 -0.061 0.378 -0.102 0.365 -0.137 0.349 -0.17 0.334 -0.199 0.317 -0.224 0.3 -1.165 -0.946 0.153 -0.203 0.13 -0.208 0.107 -0.21 0.083 -0.21 0.058 -0.211 0.035 -0.21 0.01 -0.211 -0.016 -0.213 -0.044 -0.219 -0.073 -0.225 -0.108 -0.234 -0.146 -0.242 -0.189 -0.251 -0.236 -0.259 -0.287 -0.264 -0.341 -0.268 -0.398 -0.269 -0.456 -0.269 -0.518 -0.266 -0.58 -0.262 -0.646 -0.256 -0.713 -0.248 -0.781 -0.239 -0.851 -0.228 -0.924 -0.217 -0.998 -0.204 -1.074 -0.19 -1.152 -0.175 -1.232 -0.158 -1.313 -0.14 -1.397 -0.122 -1.481 -0.101 -0.001 0zm-69.229 18.713l-0.921 -1.184 0 0 1.612 -1.19 1.724 -1.155 1.829 -1.119 1.926 -1.083 2.016 -1.047 2.099 -1.012 2.173 -0.975 2.241 -0.939 2.302 -0.903 2.354 -0.865 2.399 -0.828 2.437 -0.79 2.468 -0.752 2.49 -0.713 2.506 -0.674 2.512 -0.634 2.514 -0.594 2.506 -0.553 2.491 -0.513 2.469 -0.47 2.439 -0.429 2.402 -0.386 2.357 -0.343 2.305 -0.299 2.245 -0.256 2.177 -0.21 2.103 -0.166 2.022 -0.119 1.932 -0.074 1.836 -0.026 1.732 0.021 1.622 0.069 -0.09 1.498 -1.572 -0.068 -1.69 -0.02 -1.798 0.026 -1.899 0.072 -1.991 0.118 -2.075 0.163 -2.152 0.208 -2.221 0.253 -2.281 0.296 -2.335 0.34 -2.38 0.382 -2.417 0.425 -2.448 0.467 -2.47 0.508 -2.485 0.549 -2.492 0.588 -2.49 0.629 -2.483 0.668 -2.466 0.706 -2.443 0.744 -2.411 0.782 -2.372 0.818 -2.325 0.855 -2.27 0.89 -2.208 0.925 -2.138 0.959 -2.06 0.994 -1.974 1.025 -1.88 1.057 -1.779 1.089 -1.67 1.118 -1.554 1.147 0 0zm5.213 26.065l-0.189 1.489 0 0 -2.251 -0.321 -2.096 -0.37 -1.943 -0.419 -1.794 -0.467 -1.647 -0.515 -1.504 -0.562 -1.364 -0.608 -1.225 -0.655 -1.09 -0.703 -0.956 -0.751 -0.822 -0.799 -0.689 -0.848 -0.552 -0.894 -0.415 -0.936 -0.276 -0.973 -0.14 -1.002 -0.007 -1.024 0.121 -1.042 0.243 -1.058 0.36 -1.069 0.471 -1.083 0.579 -1.095 0.684 -1.106 0.783 -1.12 0.882 -1.13 0.977 -1.143 1.07 -1.152 1.161 -1.163 1.248 -1.172 1.334 -1.179 1.416 -1.187 1.497 -1.192 0.921 1.184 -1.469 1.17 -1.387 1.162 -1.302 1.152 -1.214 1.139 -1.124 1.127 -1.031 1.11 -0.936 1.094 -0.837 1.073 -0.737 1.052 -0.634 1.028 -0.53 1.001 -0.423 0.97 -0.316 0.939 -0.208 0.904 -0.101 0.869 0.005 0.834 0.111 0.8 0.219 0.771 0.331 0.746 0.448 0.724 0.572 0.704 0.702 0.683 0.839 0.658 0.98 0.632 1.125 0.602 1.272 0.567 1.422 0.531 1.575 0.492 1.728 0.45 1.885 0.407 2.044 0.361 2.204 0.313 0 0zm72.53 -6.042l0.455 1.43 0 0 -1.112 0.335 -1.257 0.346 -1.394 0.353 -1.527 0.36 -1.653 0.366 -1.771 0.367 -1.883 0.369 -1.988 0.368 -2.085 0.365 -2.176 0.359 -2.26 0.353 -2.336 0.344 -2.404 0.332 -2.467 0.32 -2.522 0.304 -2.57 0.287 -2.61 0.268 -2.643 0.246 -2.67 0.223 -2.689 0.197 -2.701 0.17 -2.705 0.141 -2.703 0.109 -2.694 0.075 -2.677 0.04 -2.653 0.002 -2.622 -0.038 -2.585 -0.08 -2.539 -0.123 -2.487 -0.17 -2.429 -0.218 -2.362 -0.269 0.189 -1.489 2.325 0.265 2.395 0.215 2.456 0.168 2.512 0.123 2.559 0.078 2.598 0.038 2.631 -0.002 2.657 -0.04 2.675 -0.074 2.685 -0.108 2.688 -0.141 2.685 -0.168 2.673 -0.197 2.655 -0.222 2.63 -0.245 2.596 -0.266 2.557 -0.286 2.509 -0.302 2.454 -0.318 2.391 -0.33 2.323 -0.342 2.247 -0.351 2.162 -0.357 2.071 -0.363 1.973 -0.365 1.867 -0.365 1.754 -0.365 1.633 -0.361 1.504 -0.354 1.369 -0.347 1.225 -0.337 1.071 -0.323 0 0zm17.379 -14.375l1.467 0.317 0 0 -0.144 0.6 -0.171 0.596 -0.199 0.591 -0.227 0.585 -0.254 0.579 -0.282 0.574 -0.31 0.566 -0.337 0.561 -0.365 0.553 -0.393 0.546 -0.42 0.539 -0.448 0.53 -0.475 0.523 -0.503 0.514 -0.531 0.506 -0.558 0.497 -0.587 0.489 -0.614 0.479 -0.642 0.471 -0.67 0.461 -0.699 0.451 -0.726 0.441 -0.754 0.432 -0.783 0.421 -0.812 0.411 -0.84 0.401 -0.869 0.389 -0.897 0.379 -0.926 0.368 -0.956 0.357 -0.985 0.344 -1.014 0.334 -0.455 -1.43 0.987 -0.324 0.957 -0.335 0.926 -0.346 0.897 -0.356 0.868 -0.366 0.837 -0.376 0.809 -0.385 0.778 -0.395 0.75 -0.403 0.72 -0.412 0.692 -0.42 0.662 -0.429 0.635 -0.436 0.605 -0.443 0.577 -0.451 0.55 -0.457 0.521 -0.464 0.493 -0.47 0.466 -0.477 0.438 -0.482 0.412 -0.487 0.384 -0.493 0.357 -0.497 0.332 -0.502 0.305 -0.507 0.279 -0.511 0.253 -0.516 0.228 -0.519 0.203 -0.523 0.177 -0.527 0.153 -0.531 0.128 -0.535 0 0zm-4.961 -10.969l0.89 -1.208 0 0 0.168 0.127 0.186 0.146 0.202 0.164 0.217 0.184 0.23 0.203 0.241 0.221 0.25 0.239 0.258 0.258 0.265 0.275 0.269 0.293 0.272 0.31 0.272 0.328 0.271 0.344 0.269 0.361 0.264 0.377 0.257 0.393 0.249 0.41 0.239 0.426 0.226 0.441 0.213 0.456 0.196 0.471 0.178 0.487 0.159 0.5 0.136 0.515 0.112 0.529 0.086 0.542 0.058 0.555 0.027 0.566 -0.005 0.578 -0.039 0.589 -0.075 0.599 -0.113 0.607 -1.467 -0.317 0.097 -0.521 0.065 -0.511 0.033 -0.502 0.004 -0.493 -0.023 -0.483 -0.049 -0.473 -0.074 -0.463 -0.096 -0.454 -0.118 -0.445 -0.137 -0.434 -0.156 -0.424 -0.172 -0.413 -0.187 -0.402 -0.201 -0.391 -0.212 -0.378 -0.223 -0.366 -0.231 -0.354 -0.238 -0.34 -0.243 -0.326 -0.246 -0.312 -0.248 -0.298 -0.247 -0.282 -0.246 -0.268 -0.241 -0.251 -0.236 -0.235 -0.229 -0.218 -0.218 -0.201 -0.208 -0.183 -0.195 -0.166 -0.18 -0.147 -0.163 -0.128 -0.143 -0.107 0 0zm9.757 -3.241l0.08 1.499 0 0 -0.846 0.045 -0.802 0.044 -0.758 0.043 -0.716 0.043 -0.674 0.041 -0.633 0.041 -0.593 0.042 -0.552 0.04 -0.513 0.042 -0.476 0.041 -0.437 0.042 -0.401 0.043 -0.363 0.043 -0.326 0.044 -0.291 0.045 -0.254 0.045 -0.216 0.046 -0.179 0.045 -0.139 0.042 -0.096 0.037 -0.05 0.024 0.002 -0.002 0.046 -0.047 0.068 -0.114 0.038 -0.163 -0.012 -0.145 -0.029 -0.083 -0.011 -0.02 0.02 0.023 0.053 0.051 0.082 0.071 0.111 0.085 -0.89 1.208 -0.163 -0.126 -0.152 -0.129 -0.141 -0.139 -0.131 -0.158 -0.118 -0.193 -0.091 -0.245 -0.025 -0.301 0.073 -0.311 0.152 -0.254 0.183 -0.182 0.193 -0.13 0.197 -0.097 0.206 -0.079 0.223 -0.069 0.243 -0.061 0.268 -0.057 0.293 -0.052 0.322 -0.05 0.353 -0.048 0.384 -0.045 0.417 -0.045 0.452 -0.043 0.486 -0.042 0.524 -0.042 0.56 -0.042 0.599 -0.041 0.639 -0.042 0.678 -0.042 0.719 -0.042 0.762 -0.044 0.804 -0.044 0.848 -0.046 0 0zm81.318 -2.642l0.017 1.5 -2.555 0.032 -2.552 0.035 -2.55 0.038 -2.547 0.042 -2.545 0.045 -2.541 0.048 -2.541 0.051 -2.538 0.054 -2.537 0.058 -2.535 0.061 -2.534 0.064 -2.533 0.068 -2.532 0.07 -2.531 0.074 -2.532 0.078 -2.53 0.08 -2.531 0.084 -2.531 0.088 -2.531 0.09 -2.532 0.094 -2.532 0.097 -2.534 0.101 -2.534 0.103 -2.536 0.108 -2.538 0.11 -2.539 0.114 -2.541 0.117 -2.544 0.121 -2.546 0.124 -2.548 0.127 -2.551 0.131 -2.554 0.134 -0.08 -1.499 2.556 -0.134 2.553 -0.13 2.551 -0.128 2.547 -0.124 2.545 -0.12 2.544 -0.118 2.541 -0.114 2.539 -0.11 2.538 -0.108 2.537 -0.103 2.535 -0.101 2.535 -0.097 2.534 -0.094 2.533 -0.091 2.532 -0.087 2.533 -0.084 2.533 -0.081 2.533 -0.077 2.533 -0.074 2.534 -0.071 2.535 -0.067 2.536 -0.065 2.537 -0.061 2.539 -0.058 2.54 -0.054 2.542 -0.052 2.544 -0.047 2.547 -0.045 2.548 -0.042 2.552 -0.038 2.554 -0.035 2.558 -0.032zm0 0c0.414,-0.005 0.754,0.327 0.759,0.741 0.004,0.415 -0.328,0.754 -0.742,0.759l-0.017 -1.5z"/>
   </g>
   <g>
    <path class="fil0" d="M51.334 79.49c-0.403,0.093 -0.806,-0.158 -0.9,-0.562 -0.093,-0.403 0.159,-0.806 0.562,-0.899l0.338 1.461zm87.629 -13.171l0.023 1.5 -3.493 0.076 -3.504 0.121 -3.51 0.164 -3.508 0.203 -3.501 0.241 -3.489 0.274 -3.469 0.307 -3.445 0.336 -3.414 0.362 -3.377 0.386 -3.335 0.408 -3.286 0.426 -3.231 0.443 -3.17 0.455 -3.104 0.466 -3.032 0.474 -2.953 0.48 -2.868 0.483 -2.778 0.482 -2.682 0.481 -2.58 0.474 -2.471 0.468 -2.357 0.457 -2.237 0.443 -2.111 0.428 -1.979 0.41 -1.841 0.388 -1.697 0.365 -1.547 0.339 -1.392 0.309 -1.229 0.278 -1.062 0.244 -0.338 -1.461 1.067 -0.245 1.234 -0.28 1.397 -0.31 1.552 -0.34 1.703 -0.366 1.846 -0.39 1.985 -0.41 2.117 -0.43 2.243 -0.445 2.364 -0.458 2.478 -0.468 2.587 -0.477 2.689 -0.481 2.786 -0.484 2.876 -0.484 2.962 -0.481 3.04 -0.476 3.113 -0.467 3.181 -0.457 3.241 -0.444 3.297 -0.428 3.345 -0.408 3.39 -0.388 3.426 -0.364 3.458 -0.337 3.484 -0.308 3.503 -0.276 3.517 -0.241 3.524 -0.204 3.527 -0.165 3.522 -0.122 3.513 -0.076zm0 0c0.415,-0.006 0.756,0.325 0.762,0.739 0.006,0.414 -0.325,0.755 -0.739,0.761l-0.023 -1.5z"/>
   </g>
   <g>
    <path class="fil0" d="M88.693 32.544c-0.099,-0.402 0.147,-0.809 0.549,-0.908 0.402,-0.099 0.808,0.147 0.907,0.549l-1.456 0.359zm3.749 41.9l-1.447 -0.394 0.267 -1.062 0.236 -1.106 0.207 -1.146 0.177 -1.185 0.149 -1.22 0.121 -1.252 0.095 -1.282 0.069 -1.308 0.044 -1.331 0.02 -1.352 -0.003 -1.37 -0.025 -1.385 -0.047 -1.397 -0.067 -1.406 -0.085 -1.413 -0.105 -1.417 -0.121 -1.417 -0.138 -1.415 -0.153 -1.411 -0.168 -1.403 -0.181 -1.393 -0.193 -1.379 -0.205 -1.363 -0.216 -1.345 -0.224 -1.324 -0.234 -1.298 -0.241 -1.272 -0.247 -1.242 -0.253 -1.209 -0.257 -1.174 -0.261 -1.135 -0.263 -1.094 1.456 -0.359 0.268 1.11 0.264 1.15 0.26 1.188 0.256 1.223 0.25 1.256 0.244 1.285 0.236 1.313 0.227 1.338 0.217 1.358 0.208 1.379 0.195 1.394 0.183 1.408 0.169 1.418 0.155 1.427 0.14 1.432 0.123 1.435 0.105 1.435 0.087 1.433 0.068 1.426 0.047 1.419 0.026 1.409 0.003 1.394 -0.02 1.379 -0.045 1.36 -0.071 1.338 -0.097 1.314 -0.124 1.288 -0.154 1.259 -0.184 1.227 -0.215 1.192 -0.247 1.156 -0.281 1.116zm0 0c-0.109,0.399 -0.521,0.635 -0.921,0.526 -0.399,-0.108 -0.635,-0.521 -0.526,-0.92l1.447 0.394z"/>
   </g>
   <g>
    <path class="fil0" d="M82.405 68.222c-0.371,0.185 -0.821,0.034 -1.005,-0.337 -0.185,-0.371 -0.034,-0.821 0.337,-1.006l0.668 1.343zm33.792 -27.685l1.499 0.062 0 0 -0.129 1.559 -0.252 1.491 -0.369 1.427 -0.48 1.362 -0.585 1.299 -0.683 1.236 -0.775 1.177 -0.861 1.119 -0.939 1.065 -1.012 1.012 -1.078 0.962 -1.139 0.917 -1.193 0.873 -1.243 0.833 -1.287 0.796 -1.324 0.761 -1.358 0.73 -1.384 0.702 -1.407 0.676 -1.422 0.652 -1.435 0.633 -1.439 0.614 -1.44 0.599 -1.435 0.587 -1.424 0.577 -1.407 0.569 -1.386 0.564 -1.358 0.562 -1.326 0.562 -1.286 0.564 -1.242 0.568 -1.193 0.575 -0.668 -1.343 1.223 -0.59 1.267 -0.58 1.306 -0.572 1.339 -0.568 1.368 -0.566 1.392 -0.566 1.408 -0.57 1.422 -0.576 1.428 -0.583 1.429 -0.595 1.425 -0.609 1.416 -0.624 1.401 -0.642 1.38 -0.663 1.354 -0.687 1.323 -0.711 1.285 -0.739 1.243 -0.769 1.194 -0.8 1.141 -0.835 1.082 -0.87 1.018 -0.909 0.949 -0.949 0.875 -0.991 0.796 -1.035 0.713 -1.083 0.625 -1.132 0.535 -1.184 0.437 -1.242 0.337 -1.301 0.23 -1.366 0.119 -1.435 0 0zm-26.394 -1.609l-1.416 -0.495 0 0 0.546 -1.388 0.652 -1.353 0.747 -1.314 0.836 -1.268 0.916 -1.218 0.988 -1.161 1.051 -1.1 1.107 -1.031 1.156 -0.959 1.196 -0.879 1.229 -0.794 1.256 -0.702 1.273 -0.606 1.286 -0.501 1.29 -0.391 1.287 -0.272 1.277 -0.147 1.26 -0.013 1.233 0.13 1.197 0.281 1.148 0.44 1.087 0.607 1.013 0.776 0.926 0.948 0.828 1.122 0.724 1.295 0.612 1.473 0.495 1.653 0.373 1.84 0.244 2.032 0.109 2.23 -0.033 2.436 -1.499 -0.062 0.032 -2.349 -0.104 -2.132 -0.231 -1.919 -0.347 -1.715 -0.453 -1.514 -0.549 -1.321 -0.635 -1.137 -0.711 -0.962 -0.778 -0.797 -0.841 -0.644 -0.898 -0.501 -0.953 -0.366 -1.006 -0.235 -1.053 -0.111 -1.095 0.012 -1.13 0.13 -1.155 0.245 -1.173 0.355 -1.181 0.461 -1.18 0.561 -1.17 0.655 -1.152 0.744 -1.125 0.826 -1.088 0.903 -1.044 0.973 -0.991 1.036 -0.93 1.094 -0.861 1.145 -0.784 1.189 -0.698 1.226 -0.605 1.257 -0.505 1.282 0 0zm1.492 27.505l-1.283 0.777 -0.412 -0.709 -0.388 -0.731 -0.364 -0.751 -0.343 -0.771 -0.318 -0.791 -0.296 -0.808 -0.273 -0.825 -0.25 -0.841 -0.226 -0.856 -0.204 -0.869 -0.181 -0.884 -0.157 -0.895 -0.134 -0.907 -0.111 -0.917 -0.088 -0.927 -0.065 -0.935 -0.041 -0.943 -0.018 -0.949 0.005 -0.955 0.029 -0.96 0.053 -0.964 0.076 -0.966 0.1 -0.969 0.124 -0.969 0.148 -0.97 0.171 -0.97 0.196 -0.967 0.22 -0.965 0.244 -0.961 0.268 -0.957 0.293 -0.95 0.317 -0.945 1.416 0.495 -0.305 0.909 -0.282 0.915 -0.258 0.92 -0.235 0.925 -0.211 0.929 -0.189 0.932 -0.165 0.933 -0.142 0.934 -0.119 0.934 -0.097 0.933 -0.073 0.93 -0.051 0.928 -0.027 0.923 -0.006 0.918 0.017 0.913 0.04 0.905 0.062 0.897 0.084 0.888 0.107 0.878 0.128 0.867 0.15 0.855 0.173 0.842 0.194 0.828 0.215 0.814 0.237 0.797 0.258 0.781 0.279 0.763 0.3 0.744 0.321 0.724 0.342 0.704 0.362 0.682 0.383 0.66zm0 0c0.214,0.354 0.101,0.815 -0.253,1.03 -0.354,0.215 -0.816,0.101 -1.03,-0.253l1.283 -0.777z"/>
   </g>
  </g>
 </g>
</svg>
