<?xml version="1.0" encoding="UTF-8"?>
<!DOCTYPE svg PUBLIC "-//W3C//DTD SVG 1.1//EN" "http://www.w3.org/Graphics/SVG/1.1/DTD/svg11.dtd">
<!-- Creator: CorelDRAW 2019 (64-Bit) -->
<svg xmlns="http://www.w3.org/2000/svg" xml:space="preserve" width="200px" height="100px" version="1.1" style="shape-rendering:geometricPrecision; text-rendering:geometricPrecision; image-rendering:optimizeQuality; fill-rule:evenodd; clip-rule:evenodd"
viewBox="0 0 200 100"
 xmlns:xlink="http://www.w3.org/1999/xlink"
 xmlns:xodm="http://www.corel.com/coreldraw/odm/2003">
 <defs>
  <style type="text/css">
   <![CDATA[
    .fil0 {fill:black;fill-rule:nonzero}
   ]]>
  </style>
 </defs>
 <g id="Layer_x0020_1">
  <metadata id="CorelCorpID_0Corel-Layer"/>
  <g>
   <path class="fil0" d="M86.333 27.239c0.387,-0.147 0.821,0.047 0.968,0.434 0.147,0.387 -0.047,0.821 -0.434,0.968l-0.534 -1.402zm11.868 9.437l0.557 1.393 0 0 -1.374 0.508 -1.318 0.404 -1.259 0.303 -1.203 0.209 -1.144 0.118 -1.086 0.032 -1.027 -0.049 -0.968 -0.127 -0.909 -0.199 -0.847 -0.266 -0.785 -0.33 -0.721 -0.387 -0.656 -0.44 -0.59 -0.487 -0.524 -0.528 -0.455 -0.564 -0.387 -0.594 -0.317 -0.618 -0.247 -0.636 -0.176 -0.648 -0.105 -0.656 -0.032 -0.656 0.04 -0.653 0.113 -0.641 0.188 -0.625 0.262 -0.6 0.337 -0.569 0.412 -0.531 0.484 -0.485 0.555 -0.432 0.625 -0.374 0.689 -0.309 0.534 1.402 -0.532 0.239 -0.469 0.28 -0.409 0.319 -0.352 0.352 -0.296 0.383 -0.243 0.41 -0.189 0.433 -0.137 0.454 -0.083 0.471 -0.029 0.484 0.025 0.492 0.079 0.496 0.135 0.495 0.189 0.49 0.247 0.48 0.302 0.464 0.359 0.446 0.417 0.42 0.475 0.392 0.533 0.357 0.594 0.319 0.655 0.275 0.717 0.226 0.78 0.171 0.843 0.11 0.908 0.044 0.973 -0.029 1.039 -0.107 1.103 -0.192 1.169 -0.281 1.233 -0.378 1.298 -0.48 0 0zm8.07 -26.646l0.019 -1.5 0 0 2.006 0.086 1.829 0.198 1.658 0.308 1.491 0.412 1.328 0.515 1.168 0.615 1.008 0.711 0.848 0.805 0.684 0.89 0.519 0.966 0.354 1.027 0.192 1.077 0.038 1.113 -0.108 1.142 -0.246 1.164 -0.377 1.181 -0.502 1.193 -0.621 1.202 -0.735 1.206 -0.845 1.204 -0.95 1.2 -1.052 1.189 -1.149 1.174 -1.242 1.152 -1.332 1.127 -1.418 1.095 -1.498 1.058 -1.577 1.014 -1.65 0.966 -1.72 0.912 -1.786 0.852 -1.847 0.785 -0.557 -1.393 1.788 -0.76 1.728 -0.824 1.664 -0.883 1.596 -0.933 1.522 -0.981 1.447 -1.02 1.365 -1.055 1.28 -1.083 1.191 -1.105 1.098 -1.12 0.999 -1.131 0.898 -1.133 0.793 -1.13 0.682 -1.12 0.57 -1.102 0.453 -1.077 0.334 -1.046 0.214 -1.007 0.091 -0.961 -0.031 -0.909 -0.153 -0.857 -0.275 -0.802 -0.403 -0.751 -0.539 -0.699 -0.683 -0.649 -0.84 -0.593 -1.006 -0.529 -1.178 -0.457 -1.357 -0.375 -1.539 -0.285 -1.725 -0.187 -1.914 -0.082 0 0zm-43.293 69.381l-0.274 1.475 0 0 -2.083 -0.619 -1.726 -1.013 -1.35 -1.378 -0.966 -1.688 -0.601 -1.948 -0.267 -2.171 0.037 -2.372 0.318 -2.553 0.579 -2.715 0.823 -2.859 1.051 -2.98 1.261 -3.081 1.458 -3.159 1.639 -3.214 1.805 -3.246 1.955 -3.254 2.091 -3.241 2.21 -3.203 2.316 -3.142 2.405 -3.057 2.48 -2.95 2.541 -2.817 2.585 -2.663 2.617 -2.483 2.633 -2.282 2.634 -2.056 2.624 -1.806 2.599 -1.532 2.563 -1.235 2.516 -0.91 2.456 -0.556 2.383 -0.173 -0.019 1.5 -2.139 0.156 -2.256 0.512 -2.357 0.853 -2.438 1.175 -2.5 1.474 -2.544 1.752 -2.569 2.004 -2.578 2.234 -2.57 2.44 -2.545 2.621 -2.504 2.778 -2.448 2.91 -2.376 3.02 -2.288 3.104 -2.184 3.165 -2.064 3.201 -1.93 3.213 -1.78 3.2 -1.613 3.164 -1.432 3.103 -1.236 3.015 -1.023 2.904 -0.797 2.767 -0.555 2.601 -0.301 2.41 -0.035 2.188 0.237 1.938 0.512 1.664 0.786 1.378 1.071 1.095 1.394 0.818 1.769 0.524 0 0zm23.049 -13.681l0.738 1.306 0 0 -0.676 0.4 -0.681 0.439 -0.686 0.473 -0.69 0.504 -0.694 0.532 -0.698 0.555 -0.702 0.577 -0.706 0.592 -0.71 0.606 -0.713 0.616 -0.717 0.621 -0.722 0.624 -0.725 0.623 -0.729 0.618 -0.734 0.609 -0.738 0.598 -0.743 0.582 -0.749 0.562 -0.753 0.541 -0.76 0.513 -0.767 0.484 -0.773 0.45 -0.781 0.412 -0.789 0.37 -0.798 0.326 -0.807 0.275 -0.815 0.22 -0.825 0.162 -0.834 0.098 -0.842 0.03 -0.849 -0.043 -0.855 -0.119 0.274 -1.475 0.722 0.101 0.719 0.036 0.716 -0.026 0.716 -0.084 0.717 -0.141 0.718 -0.194 0.72 -0.245 0.72 -0.294 0.722 -0.34 0.723 -0.381 0.723 -0.421 0.724 -0.456 0.723 -0.49 0.724 -0.518 0.722 -0.543 0.723 -0.566 0.721 -0.584 0.721 -0.599 0.72 -0.609 0.719 -0.618 0.719 -0.622 0.717 -0.622 0.718 -0.619 0.717 -0.612 0.717 -0.603 0.718 -0.588 0.718 -0.572 0.719 -0.55 0.72 -0.526 0.722 -0.498 0.724 -0.467 0.727 -0.43 0 0zm4.655 -4.994l1.42 0.485 0 0 -0.138 0.392 -0.137 0.369 -0.138 0.347 -0.138 0.328 -0.139 0.307 -0.14 0.289 -0.142 0.272 -0.144 0.255 -0.147 0.239 -0.149 0.226 -0.153 0.21 -0.156 0.197 -0.159 0.186 -0.163 0.173 -0.165 0.161 -0.168 0.149 -0.172 0.141 -0.173 0.13 -0.175 0.122 -0.177 0.114 -0.177 0.108 -0.179 0.103 -0.181 0.098 -0.181 0.095 -0.183 0.094 -0.185 0.094 -0.188 0.094 -0.19 0.096 -0.193 0.099 -0.198 0.103 -0.202 0.109 -0.207 0.115 -0.738 -1.306 0.226 -0.126 0.219 -0.117 0.211 -0.111 0.202 -0.103 0.196 -0.099 0.187 -0.094 0.179 -0.091 0.172 -0.088 0.165 -0.086 0.156 -0.086 0.149 -0.085 0.144 -0.087 0.137 -0.089 0.131 -0.091 0.127 -0.096 0.123 -0.1 0.12 -0.107 0.119 -0.115 0.117 -0.125 0.116 -0.135 0.117 -0.148 0.117 -0.161 0.117 -0.177 0.118 -0.193 0.119 -0.211 0.121 -0.23 0.121 -0.251 0.123 -0.272 0.124 -0.294 0.126 -0.318 0.127 -0.341 0.129 -0.367 0 0zm1.512 -10.492l0.233 1.482 0 0 -0.09 0.021 -0.049 0.021 -0.028 0.02 -0.025 0.027 -0.031 0.048 -0.035 0.081 -0.034 0.119 -0.029 0.156 -0.018 0.192 -0.008 0.222 0.004 0.251 0.015 0.275 0.024 0.297 0.032 0.317 0.039 0.335 0.044 0.352 0.047 0.366 0.049 0.379 0.048 0.39 0.046 0.402 0.042 0.411 0.036 0.418 0.028 0.426 0.019 0.432 0.007 0.436 -0.007 0.441 -0.023 0.443 -0.041 0.445 -0.061 0.445 -0.083 0.445 -0.108 0.443 -0.135 0.439 -1.42 -0.485 0.108 -0.352 0.088 -0.361 0.069 -0.368 0.052 -0.376 0.034 -0.382 0.02 -0.386 0.007 -0.391 -0.007 -0.392 -0.016 -0.394 -0.027 -0.394 -0.034 -0.392 -0.039 -0.389 -0.045 -0.386 -0.047 -0.381 -0.048 -0.375 -0.047 -0.368 -0.045 -0.361 -0.041 -0.352 -0.035 -0.343 -0.027 -0.333 -0.017 -0.325 -0.005 -0.315 0.011 -0.307 0.029 -0.299 0.054 -0.294 0.085 -0.288 0.125 -0.281 0.173 -0.265 0.227 -0.237 0.274 -0.191 0.309 -0.136 0.327 -0.078 0 0zm2.378 11.204l-1.465 -0.327 0 0 0.171 -0.785 0.154 -0.747 0.136 -0.707 0.12 -0.67 0.103 -0.633 0.087 -0.597 0.072 -0.561 0.056 -0.526 0.04 -0.491 0.027 -0.457 0.012 -0.424 -0.001 -0.389 -0.014 -0.358 -0.026 -0.324 -0.037 -0.292 -0.047 -0.26 -0.056 -0.228 -0.063 -0.197 -0.068 -0.167 -0.072 -0.138 -0.072 -0.112 -0.073 -0.089 -0.073 -0.071 -0.074 -0.056 -0.079 -0.046 -0.086 -0.037 -0.099 -0.03 -0.112 -0.022 -0.128 -0.011 -0.145 -0.002 -0.16 0.01 -0.173 0.022 -0.233 -1.482 0.264 -0.034 0.263 -0.016 0.262 0.003 0.261 0.025 0.26 0.05 0.254 0.077 0.248 0.108 0.237 0.137 0.219 0.167 0.201 0.195 0.179 0.22 0.158 0.242 0.136 0.263 0.115 0.283 0.097 0.302 0.079 0.323 0.063 0.343 0.047 0.366 0.031 0.39 0.016 0.415 0.002 0.441 -0.014 0.469 -0.029 0.497 -0.044 0.527 -0.059 0.558 -0.075 0.59 -0.091 0.623 -0.107 0.656 -0.123 0.692 -0.141 0.727 -0.157 0.764 -0.174 0.801 0 0zm-3.963 14.28l-0.065 1.499 0 0 -0.351 -0.05 -0.343 -0.131 -0.303 -0.222 -0.227 -0.289 -0.143 -0.316 -0.077 -0.323 -0.03 -0.326 0.006 -0.335 0.033 -0.347 0.057 -0.366 0.078 -0.386 0.096 -0.408 0.115 -0.432 0.13 -0.454 0.145 -0.477 0.158 -0.501 0.17 -0.524 0.181 -0.547 0.19 -0.568 0.197 -0.59 0.204 -0.611 0.21 -0.631 0.213 -0.65 0.215 -0.67 0.216 -0.688 0.216 -0.705 0.214 -0.722 0.21 -0.738 0.206 -0.754 0.201 -0.768 0.192 -0.782 0.184 -0.795 1.465 0.327 -0.189 0.817 -0.198 0.801 -0.205 0.787 -0.211 0.77 -0.215 0.754 -0.218 0.735 -0.219 0.718 -0.22 0.698 -0.217 0.677 -0.216 0.658 -0.21 0.635 -0.205 0.613 -0.198 0.59 -0.189 0.566 -0.178 0.54 -0.167 0.515 -0.154 0.487 -0.139 0.459 -0.123 0.428 -0.106 0.398 -0.086 0.364 -0.066 0.328 -0.046 0.29 -0.023 0.247 -0.004 0.198 0.012 0.143 0.018 0.081 0.009 0.022 -0.017 -0.02 -0.031 -0.022 -0.005 -0.004 0.053 0.007 0 0zm5.369 -10.687l1.434 0.441 0 0 -0.085 0.27 -0.095 0.302 -0.108 0.332 -0.118 0.36 -0.13 0.384 -0.139 0.406 -0.149 0.424 -0.158 0.442 -0.167 0.456 -0.175 0.466 -0.183 0.475 -0.19 0.482 -0.197 0.485 -0.203 0.485 -0.209 0.484 -0.214 0.478 -0.22 0.472 -0.225 0.463 -0.229 0.45 -0.233 0.436 -0.237 0.419 -0.241 0.4 -0.246 0.378 -0.25 0.356 -0.257 0.329 -0.262 0.302 -0.273 0.273 -0.287 0.241 -0.306 0.205 -0.333 0.16 -0.362 0.103 -0.387 0.027 0.065 -1.499 0.057 -0.005 0.087 -0.025 0.122 -0.06 0.152 -0.103 0.175 -0.147 0.191 -0.191 0.202 -0.233 0.209 -0.269 0.214 -0.303 0.216 -0.334 0.218 -0.362 0.219 -0.385 0.217 -0.407 0.216 -0.424 0.213 -0.439 0.21 -0.451 0.206 -0.46 0.202 -0.466 0.197 -0.47 0.19 -0.471 0.185 -0.468 0.178 -0.463 0.171 -0.456 0.163 -0.445 0.155 -0.431 0.145 -0.417 0.137 -0.397 0.126 -0.375 0.116 -0.351 0.105 -0.324 0.094 -0.294 0.081 -0.261 0 0zm2.178 -10.141l1.462 -0.335 0.001 0 0.035 0.219 0.014 0.219 -0.001 0.229 -0.011 0.245 -0.022 0.262 -0.03 0.281 -0.039 0.299 -0.046 0.316 -0.053 0.332 -0.06 0.347 -0.066 0.361 -0.072 0.372 -0.077 0.383 -0.082 0.392 -0.086 0.399 -0.089 0.404 -0.093 0.409 -0.095 0.41 -0.097 0.411 -0.099 0.41 -0.101 0.407 -0.101 0.403 -0.101 0.396 -0.1 0.388 -0.1 0.379 -0.099 0.368 -0.097 0.354 -0.094 0.34 -0.092 0.324 -0.088 0.306 -0.085 0.286 -0.08 0.266 -1.434 -0.441 0.077 -0.255 0.082 -0.277 0.086 -0.297 0.089 -0.317 0.093 -0.333 0.095 -0.348 0.097 -0.362 0.098 -0.372 0.099 -0.382 0.1 -0.391 0.1 -0.397 0.098 -0.4 0.098 -0.404 0.096 -0.404 0.093 -0.404 0.091 -0.4 0.088 -0.397 0.084 -0.39 0.079 -0.382 0.075 -0.372 0.069 -0.36 0.064 -0.346 0.057 -0.331 0.05 -0.313 0.043 -0.293 0.035 -0.271 0.027 -0.246 0.017 -0.219 0.01 -0.186 0 -0.149 -0.006 -0.101 -0.006 -0.042 0 0zm1.003 11.111l-0.896 1.203 0 0 -0.512 -0.435 -0.45 -0.492 -0.39 -0.537 -0.332 -0.577 -0.279 -0.607 -0.23 -0.634 -0.185 -0.653 -0.143 -0.67 -0.105 -0.681 -0.069 -0.687 -0.037 -0.69 -0.005 -0.686 0.021 -0.679 0.047 -0.668 0.071 -0.651 0.091 -0.63 0.111 -0.605 0.128 -0.574 0.143 -0.54 0.157 -0.503 0.171 -0.46 0.184 -0.417 0.201 -0.373 0.225 -0.329 0.27 -0.288 0.363 -0.233 0.495 -0.096 0.509 0.146 0.358 0.309 0.237 0.369 0.173 0.425 0.137 0.497 -1.462 0.335 -0.099 -0.36 -0.091 -0.226 -0.053 -0.087 0.051 0.038 0.184 0.053 0.16 -0.027 0.02 -0.008 -0.074 0.081 -0.118 0.175 -0.136 0.254 -0.143 0.323 -0.141 0.383 -0.137 0.434 -0.127 0.48 -0.115 0.517 -0.1 0.549 -0.084 0.576 -0.064 0.596 -0.044 0.611 -0.019 0.62 0.005 0.623 0.033 0.621 0.061 0.613 0.092 0.599 0.124 0.58 0.157 0.555 0.19 0.524 0.224 0.489 0.259 0.449 0.293 0.404 0.328 0.36 0.367 0.312 0 0zm14.637 -7.726l1.238 0.848 0 0 -0.39 0.542 -0.421 0.53 -0.448 0.519 -0.473 0.507 -0.496 0.494 -0.516 0.482 -0.536 0.467 -0.552 0.453 -0.566 0.437 -0.578 0.421 -0.589 0.404 -0.596 0.386 -0.602 0.368 -0.605 0.349 -0.607 0.327 -0.606 0.307 -0.604 0.285 -0.6 0.262 -0.592 0.238 -0.584 0.213 -0.574 0.188 -0.562 0.16 -0.548 0.133 -0.533 0.104 -0.517 0.073 -0.499 0.042 -0.482 0.007 -0.463 -0.03 -0.443 -0.071 -0.424 -0.118 -0.398 -0.17 -0.367 -0.228 0.896 -1.203 0.16 0.098 0.201 0.086 0.248 0.068 0.292 0.047 0.333 0.021 0.372 -0.006 0.405 -0.033 0.436 -0.062 0.462 -0.09 0.485 -0.118 0.506 -0.145 0.523 -0.171 0.538 -0.196 0.55 -0.221 0.558 -0.244 0.566 -0.266 0.569 -0.289 0.572 -0.309 0.571 -0.328 0.568 -0.347 0.562 -0.365 0.555 -0.381 0.545 -0.396 0.532 -0.411 0.517 -0.424 0.5 -0.437 0.481 -0.447 0.458 -0.457 0.435 -0.466 0.408 -0.473 0.38 -0.479 0.349 -0.485 0 0zm-10.98 -6.286l-1.48 -0.243 0 0 0.226 -0.957 0.349 -0.893 0.458 -0.825 0.554 -0.752 0.637 -0.679 0.709 -0.605 0.769 -0.532 0.819 -0.459 0.858 -0.386 0.89 -0.313 0.91 -0.241 0.923 -0.167 0.926 -0.091 0.922 -0.016 0.907 0.061 0.885 0.142 0.853 0.225 0.812 0.311 0.76 0.401 0.695 0.496 0.618 0.592 0.523 0.689 0.414 0.783 0.29 0.871 0.156 0.951 0.016 1.028 -0.13 1.101 -0.281 1.173 -0.438 1.249 -0.602 1.326 -0.775 1.406 -0.955 1.488 -1.238 -0.848 0.905 -1.41 0.723 -1.311 0.551 -1.213 0.391 -1.114 0.243 -1.014 0.108 -0.914 -0.013 -0.817 -0.119 -0.725 -0.213 -0.64 -0.298 -0.564 -0.378 -0.497 -0.454 -0.434 -0.525 -0.374 -0.592 -0.312 -0.653 -0.25 -0.703 -0.185 -0.745 -0.119 -0.776 -0.053 -0.796 0.014 -0.806 0.08 -0.806 0.146 -0.794 0.209 -0.773 0.273 -0.741 0.333 -0.7 0.392 -0.648 0.448 -0.588 0.502 -0.52 0.553 -0.445 0.603 -0.362 0.652 -0.274 0.701 -0.179 0.754 0 0zm7.606 16.573l-0.784 1.28 0 0 -0.49 -0.313 -0.483 -0.336 -0.475 -0.356 -0.468 -0.378 -0.458 -0.397 -0.449 -0.418 -0.437 -0.436 -0.427 -0.455 -0.414 -0.472 -0.401 -0.491 -0.387 -0.507 -0.372 -0.523 -0.357 -0.538 -0.341 -0.555 -0.323 -0.569 -0.306 -0.583 -0.286 -0.596 -0.267 -0.609 -0.246 -0.622 -0.225 -0.634 -0.202 -0.645 -0.179 -0.656 -0.155 -0.665 -0.129 -0.675 -0.104 -0.684 -0.076 -0.693 -0.049 -0.699 -0.02 -0.707 0.009 -0.714 0.04 -0.718 0.072 -0.725 0.103 -0.727 1.48 0.243 -0.094 0.664 -0.065 0.66 -0.036 0.655 -0.009 0.65 0.018 0.645 0.045 0.639 0.07 0.632 0.094 0.625 0.119 0.618 0.142 0.61 0.164 0.601 0.185 0.591 0.207 0.582 0.226 0.572 0.245 0.56 0.264 0.549 0.282 0.537 0.298 0.524 0.314 0.511 0.328 0.497 0.344 0.482 0.356 0.467 0.369 0.451 0.381 0.435 0.392 0.418 0.401 0.4 0.411 0.382 0.418 0.363 0.426 0.344 0.432 0.324 0.437 0.303 0.442 0.282 0 0zm16.405 12.472l-1.372 0.605 0 0 -0.135 -0.267 -0.181 -0.293 -0.226 -0.315 -0.27 -0.333 -0.31 -0.348 -0.349 -0.361 -0.384 -0.373 -0.418 -0.381 -0.448 -0.389 -0.475 -0.396 -0.501 -0.401 -0.524 -0.405 -0.544 -0.409 -0.562 -0.411 -0.578 -0.412 -0.59 -0.411 -0.602 -0.412 -0.61 -0.41 -0.616 -0.407 -0.62 -0.404 -0.62 -0.399 -0.62 -0.395 -0.617 -0.388 -0.611 -0.381 -0.603 -0.373 -0.592 -0.365 -0.58 -0.355 -0.565 -0.345 -0.548 -0.334 -0.528 -0.321 -0.507 -0.308 -0.483 -0.295 0.784 -1.28 0.48 0.294 0.506 0.308 0.528 0.321 0.548 0.334 0.567 0.346 0.583 0.357 0.595 0.366 0.607 0.376 0.616 0.384 0.622 0.392 0.626 0.398 0.628 0.404 0.627 0.409 0.625 0.413 0.62 0.416 0.612 0.419 0.603 0.42 0.591 0.422 0.577 0.421 0.56 0.421 0.543 0.42 0.521 0.418 0.499 0.415 0.474 0.412 0.447 0.408 0.418 0.405 0.387 0.401 0.354 0.397 0.319 0.394 0.282 0.393 0.242 0.392 0.198 0.396 0 0zm-40.117 5.263l1.162 -0.949 0 0 0.444 0.432 0.638 0.429 0.822 0.409 0.989 0.377 1.138 0.34 1.271 0.298 1.388 0.256 1.489 0.213 1.575 0.169 1.648 0.125 1.706 0.081 1.749 0.038 1.779 -0.005 1.795 -0.048 1.796 -0.09 1.785 -0.133 1.759 -0.174 1.719 -0.216 1.664 -0.256 1.597 -0.297 1.513 -0.335 1.417 -0.374 1.305 -0.411 1.177 -0.445 1.033 -0.476 0.874 -0.502 0.698 -0.519 0.511 -0.519 0.323 -0.505 0.153 -0.488 0.001 -0.506 -0.173 -0.577 1.372 -0.605 0.284 0.957 -0.001 0.957 -0.278 0.899 -0.511 0.806 -0.7 0.716 -0.86 0.64 -1.007 0.58 -1.142 0.527 -1.265 0.478 -1.378 0.435 -1.479 0.39 -1.569 0.347 -1.644 0.306 -1.708 0.263 -1.759 0.221 -1.796 0.178 -1.821 0.135 -1.832 0.092 -1.831 0.049 -1.815 0.005 -1.788 -0.038 -1.745 -0.084 -1.692 -0.128 -1.625 -0.174 -1.545 -0.221 -1.452 -0.268 -1.349 -0.317 -1.234 -0.368 -1.108 -0.424 -0.973 -0.485 -0.828 -0.559 -0.666 -0.652 0 0zm59.113 -14.982l-0.208 1.486 -0.638 -0.058 -0.978 -0.041 -1.272 -0.018 -1.539 0.005 -1.778 0.031 -1.994 0.056 -2.185 0.084 -2.353 0.111 -2.496 0.14 -2.616 0.171 -2.712 0.201 -2.785 0.232 -2.833 0.266 -2.859 0.299 -2.86 0.333 -2.838 0.37 -2.792 0.405 -2.722 0.443 -2.627 0.481 -2.51 0.519 -2.366 0.559 -2.2 0.598 -2.007 0.637 -1.789 0.675 -1.542 0.71 -1.269 0.738 -0.967 0.752 -0.645 0.742 -0.332 0.705 -0.059 0.698 0.226 0.784 0.594 0.919 -1.162 0.949 -0.789 -1.23 -0.361 -1.263 0.102 -1.248 0.53 -1.142 0.871 -1.009 1.157 -0.904 1.415 -0.824 1.655 -0.762 1.874 -0.708 2.075 -0.659 2.254 -0.613 2.411 -0.569 2.547 -0.527 2.659 -0.486 2.749 -0.447 2.815 -0.41 2.859 -0.371 2.879 -0.336 2.876 -0.301 2.849 -0.267 2.799 -0.234 2.726 -0.202 2.629 -0.171 2.51 -0.141 2.366 -0.112 2.199 -0.084 2.009 -0.057 1.797 -0.031 1.562 -0.005 1.305 0.019 1.031 0.042 0.753 0.07zm0 0c0.41,0.057 0.696,0.436 0.639,0.847 -0.057,0.41 -0.437,0.696 -0.847,0.639l0.208 -1.486z"/>
  </g>
 </g>
</svg>
