<?xml version="1.0" encoding="UTF-8"?>
<!DOCTYPE svg PUBLIC "-//W3C//DTD SVG 1.1//EN" "http://www.w3.org/Graphics/SVG/1.1/DTD/svg11.dtd">
<!-- Creator: CorelDRAW 2019 (64-Bit) -->
<svg xmlns="http://www.w3.org/2000/svg" xml:space="preserve" width="200px" height="100px" version="1.1" style="shape-rendering:geometricPrecision; text-rendering:geometricPrecision; image-rendering:optimizeQuality; fill-rule:evenodd; clip-rule:evenodd"
viewBox="0 0 200 100"
 xmlns:xlink="http://www.w3.org/1999/xlink"
 xmlns:xodm="http://www.corel.com/coreldraw/odm/2003">
 <defs>
  <style type="text/css">
   <![CDATA[
    .fil0 {fill:black;fill-rule:nonzero}
   ]]>
  </style>
 </defs>
 <g id="Layer_x0020_1">
  <metadata id="CorelCorpID_0Corel-Layer"/>
  <g id="_2204227218528">
   <g>
    <path class="fil0" d="M8.273 88.658c-0.386,0.151 -0.821,-0.04 -0.972,-0.425 -0.15,-0.386 0.04,-0.822 0.426,-0.972l0.546 1.397zm98.193 -24.581l0.121 1.496 -0.863 0.1 -1.273 0.195 -1.642 0.283 -1.984 0.365 -2.297 0.443 -2.587 0.514 -2.851 0.58 -3.09 0.642 -3.304 0.697 -3.495 0.748 -3.659 0.793 -3.799 0.832 -3.915 0.868 -4.007 0.896 -4.073 0.921 -4.114 0.94 -4.132 0.953 -4.124 0.961 -4.092 0.964 -4.035 0.963 -3.954 0.954 -3.848 0.941 -3.717 0.924 -3.562 0.9 -3.381 0.872 -3.176 0.837 -2.947 0.798 -2.692 0.753 -2.412 0.703 -2.105 0.646 -1.773 0.585 -1.411 0.514 -0.546 -1.397 1.467 -0.535 1.808 -0.597 2.131 -0.654 2.429 -0.708 2.706 -0.757 2.957 -0.801 3.186 -0.839 3.388 -0.873 3.568 -0.902 3.723 -0.925 3.853 -0.943 3.958 -0.955 4.039 -0.963 4.096 -0.966 4.127 -0.962 4.135 -0.953 4.118 -0.941 4.076 -0.921 4.01 -0.898 3.918 -0.867 3.803 -0.834 3.663 -0.794 3.498 -0.748 3.309 -0.698 3.095 -0.643 2.857 -0.582 2.594 -0.516 2.308 -0.444 1.998 -0.368 1.664 -0.287 1.31 -0.2 0.947 -0.11zm0 0c0.413,-0.033 0.775,0.274 0.809,0.687 0.033,0.413 -0.275,0.775 -0.688,0.809l-0.121 -1.496z"/>
   </g>
   <g>
    <path class="fil0" d="M84.138 65.843c-0.003,0.414 -0.341,0.747 -0.756,0.744 -0.414,-0.003 -0.747,-0.342 -0.744,-0.756l1.5 0.012zm-0.89 -32.118l1.497 0.094 0 0 -0.037 0.655 -0.036 0.761 -0.035 0.858 -0.033 0.947 -0.033 1.026 -0.031 1.097 -0.031 1.161 -0.028 1.215 -0.028 1.262 -0.027 1.3 -0.026 1.331 -0.024 1.353 -0.023 1.366 -0.022 1.372 -0.021 1.369 -0.02 1.358 -0.018 1.34 -0.017 1.312 -0.016 1.277 -0.015 1.233 -0.014 1.182 -0.012 1.122 -0.011 1.054 -0.011 0.978 -0.008 0.893 -0.008 0.8 -0.007 0.7 -0.005 0.591 -0.004 0.474 -0.003 0.348 -0.002 0.215 -0.001 0.074 -1.5 -0.012 0.001 -0.074 0.002 -0.216 0.003 -0.348 0.004 -0.474 0.005 -0.592 0.007 -0.7 0.008 -0.801 0.008 -0.894 0.011 -0.978 0.011 -1.054 0.012 -1.123 0.014 -1.182 0.015 -1.235 0.016 -1.277 0.017 -1.313 0.018 -1.341 0.02 -1.359 0.021 -1.371 0.022 -1.373 0.023 -1.368 0.024 -1.354 0.026 -1.332 0.026 -1.303 0.028 -1.264 0.029 -1.219 0.031 -1.164 0.031 -1.102 0.033 -1.031 0.034 -0.953 0.036 -0.866 0.036 -0.773 0.038 -0.672 0 0zm3.329 -21.17l-1.405 0.527 0 0 -0.134 -0.317 -0.072 -0.123 0.133 0.094 0.491 0.003 0.195 -0.148 -0.027 0.065 -0.073 0.239 -0.08 0.367 -0.077 0.472 -0.071 0.562 -0.065 0.642 -0.059 0.714 -0.053 0.776 -0.047 0.832 -0.043 0.88 -0.038 0.922 -0.033 0.956 -0.03 0.983 -0.027 1.003 -0.024 1.017 -0.023 1.024 -0.021 1.024 -0.02 1.016 -0.019 1.004 -0.02 0.982 -0.021 0.956 -0.022 0.921 -0.023 0.881 -0.026 0.834 -0.029 0.781 -0.032 0.72 -0.037 0.655 -1.497 -0.094 0.035 -0.636 0.032 -0.707 0.029 -0.77 0.025 -0.826 0.024 -0.876 0.021 -0.917 0.021 -0.953 0.019 -0.982 0.02 -1.002 0.02 -1.018 0.021 -1.025 0.023 -1.026 0.024 -1.021 0.027 -1.008 0.03 -0.99 0.034 -0.963 0.038 -0.931 0.043 -0.892 0.049 -0.848 0.054 -0.795 0.061 -0.737 0.068 -0.675 0.077 -0.606 0.087 -0.535 0.102 -0.465 0.126 -0.404 0.19 -0.375 0.434 -0.374 0.75 0.008 0.416 0.341 0.233 0.38 0.196 0.458 0 0zm2.148 22.442l-1.441 -0.418 0 0 0.179 -0.667 0.155 -0.682 0.13 -0.694 0.109 -0.706 0.086 -0.716 0.065 -0.725 0.045 -0.731 0.024 -0.738 0.007 -0.742 -0.011 -0.745 -0.028 -0.746 -0.045 -0.747 -0.059 -0.746 -0.074 -0.743 -0.087 -0.739 -0.099 -0.734 -0.111 -0.728 -0.121 -0.719 -0.131 -0.71 -0.14 -0.698 -0.147 -0.687 -0.154 -0.673 -0.16 -0.658 -0.165 -0.642 -0.169 -0.625 -0.172 -0.605 -0.174 -0.584 -0.174 -0.563 -0.175 -0.539 -0.174 -0.515 -0.173 -0.489 -0.169 -0.461 1.405 -0.527 0.176 0.48 0.179 0.507 0.18 0.533 0.181 0.557 0.18 0.581 0.179 0.602 0.177 0.623 0.174 0.642 0.169 0.661 0.165 0.677 0.159 0.693 0.151 0.707 0.144 0.72 0.135 0.732 0.125 0.743 0.115 0.751 0.103 0.759 0.09 0.766 0.076 0.772 0.062 0.775 0.046 0.778 0.029 0.78 0.012 0.78 -0.006 0.779 -0.027 0.776 -0.047 0.773 -0.069 0.769 -0.092 0.762 -0.116 0.755 -0.14 0.746 -0.167 0.738 -0.195 0.725 0 0zm-11.342 32.857l-1.383 -0.583 0 0 0.238 -0.573 0.262 -0.653 0.284 -0.724 0.305 -0.793 0.324 -0.855 0.341 -0.914 0.357 -0.966 0.371 -1.014 0.384 -1.057 0.394 -1.095 0.403 -1.129 0.41 -1.157 0.415 -1.182 0.42 -1.2 0.422 -1.214 0.423 -1.224 0.423 -1.229 0.419 -1.228 0.416 -1.224 0.409 -1.213 0.402 -1.199 0.394 -1.18 0.382 -1.156 0.37 -1.126 0.356 -1.093 0.34 -1.054 0.323 -1.01 0.304 -0.962 0.284 -0.91 0.261 -0.85 0.237 -0.788 0.211 -0.72 1.441 0.418 -0.214 0.73 -0.24 0.796 -0.263 0.858 -0.285 0.915 -0.306 0.967 -0.325 1.015 -0.341 1.058 -0.357 1.096 -0.371 1.13 -0.384 1.159 -0.394 1.183 -0.403 1.201 -0.41 1.216 -0.417 1.226 -0.42 1.232 -0.423 1.23 -0.424 1.227 -0.423 1.217 -0.421 1.203 -0.417 1.184 -0.411 1.161 -0.404 1.132 -0.395 1.099 -0.385 1.061 -0.372 1.018 -0.359 0.971 -0.344 0.919 -0.327 0.862 -0.307 0.801 -0.289 0.735 -0.267 0.664 -0.244 0.591 0 0zm-11.774 13.329l1.06 -1.061 0 0 0.217 0.186 0.197 0.116 0.181 0.063 0.18 0.023 0.198 -0.016 0.225 -0.058 0.256 -0.109 0.282 -0.164 0.302 -0.22 0.32 -0.275 0.33 -0.324 0.339 -0.373 0.345 -0.416 0.349 -0.456 0.35 -0.491 0.352 -0.524 0.35 -0.552 0.35 -0.577 0.346 -0.597 0.343 -0.616 0.338 -0.629 0.333 -0.64 0.326 -0.646 0.319 -0.65 0.312 -0.65 0.302 -0.646 0.293 -0.639 0.283 -0.629 0.272 -0.615 0.26 -0.597 0.248 -0.577 0.233 -0.553 1.383 0.583 -0.237 0.558 -0.25 0.584 -0.263 0.605 -0.275 0.623 -0.288 0.639 -0.297 0.649 -0.309 0.658 -0.317 0.662 -0.326 0.664 -0.334 0.662 -0.342 0.656 -0.348 0.648 -0.355 0.636 -0.36 0.622 -0.365 0.603 -0.369 0.581 -0.374 0.557 -0.377 0.529 -0.382 0.499 -0.386 0.465 -0.39 0.429 -0.396 0.389 -0.404 0.346 -0.413 0.3 -0.428 0.248 -0.445 0.19 -0.466 0.119 -0.482 0.034 -0.486 -0.062 -0.47 -0.163 -0.44 -0.259 -0.4 -0.342 0 0zm3.457 -18.907l1.248 0.832 0 0 -0.276 0.427 -0.28 0.459 -0.283 0.488 -0.284 0.514 -0.283 0.539 -0.28 0.561 -0.277 0.579 -0.271 0.597 -0.264 0.611 -0.256 0.622 -0.246 0.632 -0.235 0.64 -0.222 0.643 -0.208 0.646 -0.192 0.646 -0.175 0.643 -0.158 0.638 -0.137 0.63 -0.116 0.619 -0.095 0.607 -0.07 0.59 -0.046 0.573 -0.021 0.55 0.006 0.527 0.034 0.499 0.061 0.47 0.089 0.436 0.116 0.401 0.142 0.363 0.168 0.325 0.194 0.287 0.22 0.252 -1.06 1.061 -0.349 -0.397 -0.295 -0.438 -0.245 -0.471 -0.196 -0.501 -0.152 -0.525 -0.112 -0.548 -0.074 -0.568 -0.04 -0.588 -0.007 -0.604 0.023 -0.62 0.051 -0.633 0.077 -0.646 0.102 -0.656 0.125 -0.664 0.146 -0.671 0.167 -0.675 0.184 -0.677 0.202 -0.679 0.218 -0.676 0.232 -0.673 0.245 -0.666 0.256 -0.659 0.266 -0.648 0.276 -0.636 0.282 -0.622 0.289 -0.605 0.293 -0.586 0.297 -0.565 0.299 -0.542 0.299 -0.517 0.3 -0.49 0.298 -0.461 0 0zm17.137 -1.175l-0.96 1.153 0 0 -0.713 -0.574 -0.695 -0.519 -0.676 -0.464 -0.657 -0.413 -0.639 -0.362 -0.62 -0.314 -0.601 -0.267 -0.582 -0.221 -0.564 -0.179 -0.546 -0.138 -0.529 -0.098 -0.511 -0.062 -0.495 -0.026 -0.479 0.008 -0.464 0.04 -0.451 0.071 -0.437 0.099 -0.425 0.129 -0.414 0.154 -0.402 0.182 -0.392 0.206 -0.382 0.23 -0.372 0.253 -0.361 0.276 -0.351 0.296 -0.341 0.315 -0.331 0.335 -0.321 0.351 -0.31 0.367 -0.3 0.381 -0.289 0.393 -0.279 0.405 -1.248 -0.832 0.304 -0.443 0.318 -0.432 0.332 -0.421 0.345 -0.409 0.36 -0.394 0.375 -0.379 0.391 -0.362 0.407 -0.342 0.422 -0.321 0.438 -0.3 0.456 -0.274 0.472 -0.248 0.488 -0.22 0.505 -0.189 0.522 -0.157 0.538 -0.123 0.553 -0.086 0.568 -0.049 0.583 -0.01 0.596 0.032 0.61 0.073 0.623 0.116 0.635 0.16 0.647 0.205 0.661 0.252 0.672 0.298 0.686 0.347 0.699 0.396 0.712 0.447 0.725 0.499 0.74 0.552 0.754 0.607 0 0zm11.672 9.703l0.86 1.229 0 0 -0.343 0.217 -0.35 0.173 -0.36 0.127 -0.368 0.075 -0.37 0.023 -0.367 -0.031 -0.357 -0.08 -0.344 -0.124 -0.332 -0.16 -0.322 -0.193 -0.316 -0.223 -0.314 -0.25 -0.315 -0.276 -0.32 -0.301 -0.326 -0.326 -0.335 -0.348 -0.347 -0.371 -0.36 -0.394 -0.375 -0.414 -0.392 -0.435 -0.41 -0.454 -0.43 -0.473 -0.452 -0.491 -0.475 -0.507 -0.5 -0.523 -0.526 -0.538 -0.553 -0.552 -0.583 -0.564 -0.613 -0.577 -0.645 -0.586 -0.679 -0.597 -0.713 -0.606 0.96 -1.153 0.734 0.623 0.698 0.614 0.664 0.604 0.63 0.592 0.598 0.58 0.568 0.566 0.539 0.551 0.511 0.535 0.484 0.517 0.459 0.499 0.436 0.478 0.412 0.457 0.392 0.435 0.371 0.41 0.352 0.384 0.334 0.358 0.317 0.33 0.3 0.299 0.284 0.268 0.268 0.235 0.253 0.201 0.235 0.166 0.218 0.132 0.2 0.097 0.181 0.065 0.165 0.037 0.156 0.014 0.153 -0.01 0.163 -0.033 0.178 -0.063 0.199 -0.099 0.22 -0.139 0 0zm15.859 -42.359l1.412 0.506 0 0 -0.205 0.582 -0.257 0.749 -0.305 0.903 -0.35 1.043 -0.392 1.173 -0.43 1.291 -0.465 1.397 -0.497 1.491 -0.526 1.574 -0.551 1.645 -0.575 1.705 -0.593 1.753 -0.609 1.791 -0.622 1.815 -0.632 1.829 -0.638 1.832 -0.642 1.822 -0.642 1.802 -0.639 1.769 -0.633 1.726 -0.624 1.671 -0.611 1.605 -0.596 1.527 -0.578 1.438 -0.557 1.339 -0.532 1.227 -0.506 1.107 -0.478 0.975 -0.448 0.837 -0.421 0.692 -0.409 0.551 -0.448 0.421 -0.86 -1.229 0.169 -0.169 0.298 -0.404 0.367 -0.603 0.416 -0.778 0.457 -0.934 0.492 -1.075 0.522 -1.205 0.549 -1.319 0.572 -1.423 0.591 -1.515 0.608 -1.594 0.62 -1.662 0.63 -1.719 0.637 -1.763 0.64 -1.796 0.64 -1.817 0.637 -1.827 0.631 -1.826 0.621 -1.812 0.608 -1.787 0.592 -1.751 0.573 -1.704 0.551 -1.644 0.526 -1.572 0.497 -1.491 0.465 -1.396 0.43 -1.291 0.393 -1.175 0.35 -1.046 0.307 -0.907 0.26 -0.757 0.21 -0.597 0 0zm-5.779 10.305l-1.44 -0.419 0 0 0.273 -0.894 0.293 -0.87 0.31 -0.846 0.326 -0.819 0.338 -0.792 0.349 -0.763 0.358 -0.733 0.364 -0.702 0.368 -0.67 0.371 -0.635 0.371 -0.601 0.368 -0.564 0.365 -0.526 0.359 -0.488 0.352 -0.449 0.341 -0.408 0.332 -0.366 0.321 -0.325 0.31 -0.283 0.301 -0.24 0.297 -0.199 0.308 -0.155 0.343 -0.101 0.414 0 0.441 0.192 0.301 0.357 0.129 0.381 0.028 0.368 -0.031 0.379 -0.078 0.41 -0.123 0.455 -0.168 0.507 -1.412 -0.506 0.145 -0.436 0.097 -0.361 0.054 -0.28 0.016 -0.189 -0.005 -0.079 0.021 0.05 0.121 0.141 0.195 0.087 0.105 0.003 -0.023 0.01 -0.113 0.058 -0.172 0.115 -0.214 0.172 -0.246 0.224 -0.27 0.274 -0.291 0.322 -0.309 0.367 -0.322 0.411 -0.332 0.453 -0.342 0.493 -0.347 0.531 -0.35 0.567 -0.352 0.604 -0.351 0.637 -0.347 0.669 -0.341 0.699 -0.334 0.729 -0.323 0.757 -0.311 0.783 -0.296 0.808 -0.28 0.832 -0.262 0.854 0 0zm5.058 21.556l-1.003 1.116 0 0 -0.654 -0.605 -0.621 -0.609 -0.587 -0.614 -0.553 -0.618 -0.52 -0.623 -0.487 -0.628 -0.453 -0.635 -0.422 -0.642 -0.389 -0.648 -0.357 -0.656 -0.324 -0.663 -0.294 -0.671 -0.262 -0.68 -0.23 -0.688 -0.2 -0.695 -0.169 -0.705 -0.14 -0.714 -0.11 -0.723 -0.08 -0.732 -0.053 -0.743 -0.024 -0.752 0.004 -0.762 0.03 -0.773 0.057 -0.784 0.083 -0.795 0.108 -0.808 0.133 -0.82 0.157 -0.833 0.181 -0.847 0.204 -0.86 0.227 -0.875 0.25 -0.89 1.44 0.419 -0.241 0.863 -0.22 0.845 -0.197 0.829 -0.174 0.812 -0.15 0.796 -0.126 0.781 -0.103 0.765 -0.077 0.75 -0.054 0.736 -0.028 0.722 -0.004 0.709 0.023 0.696 0.048 0.684 0.074 0.672 0.1 0.661 0.128 0.651 0.154 0.642 0.182 0.633 0.209 0.625 0.238 0.617 0.267 0.611 0.296 0.605 0.326 0.6 0.358 0.595 0.388 0.591 0.42 0.588 0.452 0.584 0.486 0.582 0.519 0.58 0.553 0.578 0.588 0.577 0.623 0.576 0 0zm31.305 4.494l0.317 1.466 0 0 -1.573 0.328 -1.523 0.295 -1.474 0.262 -1.427 0.23 -1.382 0.197 -1.337 0.165 -1.295 0.133 -1.254 0.102 -1.215 0.07 -1.176 0.038 -1.139 0.007 -1.105 -0.023 -1.07 -0.055 -1.039 -0.085 -1.007 -0.116 -0.978 -0.147 -0.949 -0.176 -0.922 -0.207 -0.897 -0.236 -0.871 -0.266 -0.848 -0.295 -0.827 -0.324 -0.805 -0.352 -0.785 -0.381 -0.767 -0.408 -0.749 -0.436 -0.734 -0.463 -0.719 -0.489 -0.706 -0.515 -0.693 -0.541 -0.684 -0.565 -0.675 -0.591 1.003 -1.116 0.645 0.564 0.65 0.539 0.658 0.512 0.667 0.487 0.676 0.46 0.689 0.435 0.702 0.408 0.717 0.382 0.733 0.355 0.752 0.33 0.771 0.302 0.794 0.276 0.816 0.249 0.842 0.222 0.867 0.194 0.897 0.167 0.926 0.138 0.958 0.11 0.991 0.082 1.025 0.052 1.061 0.023 1.1 -0.007 1.137 -0.037 1.179 -0.068 1.22 -0.099 1.264 -0.13 1.308 -0.161 1.354 -0.193 1.402 -0.226 1.451 -0.258 1.501 -0.29 1.552 -0.324 0 0zm16.29 -9.483l0.208 -1.486 0 0 1.303 0.204 1.147 0.223 1 0.245 0.859 0.267 0.727 0.295 0.607 0.33 0.495 0.386 0.375 0.472 0.207 0.571 -0.011 0.602 -0.202 0.548 -0.329 0.479 -0.428 0.435 -0.519 0.414 -0.607 0.403 -0.693 0.4 -0.779 0.397 -0.861 0.398 -0.94 0.398 -1.015 0.398 -1.087 0.399 -1.154 0.397 -1.216 0.397 -1.276 0.394 -1.33 0.392 -1.38 0.387 -1.425 0.384 -1.466 0.378 -1.502 0.372 -1.535 0.365 -1.562 0.357 -1.584 0.348 -0.317 -1.466 1.573 -0.346 1.549 -0.354 1.522 -0.362 1.489 -0.369 1.451 -0.374 1.41 -0.38 1.363 -0.382 1.311 -0.387 1.255 -0.387 1.194 -0.389 1.128 -0.389 1.057 -0.387 0.981 -0.385 0.9 -0.381 0.812 -0.376 0.72 -0.367 0.621 -0.357 0.514 -0.341 0.399 -0.318 0.278 -0.282 0.156 -0.221 0.052 -0.134 0.003 -0.059 -0.026 -0.068 -0.117 -0.144 -0.264 -0.204 -0.429 -0.232 -0.594 -0.24 -0.758 -0.235 -0.921 -0.226 -1.086 -0.211 -1.253 -0.196 0 0zm-108.652 8.521l-0.244 -1.48 0 0 1.8 -0.283 2.124 -0.307 2.429 -0.329 2.711 -0.351 2.971 -0.368 3.209 -0.383 3.426 -0.395 3.619 -0.406 3.79 -0.412 3.939 -0.417 4.065 -0.419 4.169 -0.418 4.252 -0.414 4.31 -0.408 4.347 -0.399 4.362 -0.387 4.354 -0.373 4.324 -0.356 4.271 -0.337 4.195 -0.314 4.099 -0.289 3.979 -0.262 3.837 -0.232 3.672 -0.198 3.486 -0.163 3.277 -0.124 3.047 -0.084 2.794 -0.039 2.521 0.007 2.226 0.057 1.914 0.109 1.585 0.167 -0.208 1.486 -1.495 -0.157 -1.856 -0.106 -2.186 -0.056 -2.492 -0.007 -2.771 0.04 -3.029 0.082 -3.263 0.124 -3.475 0.162 -3.662 0.198 -3.828 0.231 -3.971 0.261 -4.092 0.289 -4.189 0.314 -4.266 0.336 -4.318 0.356 -4.349 0.373 -4.358 0.387 -4.343 0.398 -4.306 0.408 -4.247 0.414 -4.165 0.417 -4.061 0.418 -3.935 0.416 -3.786 0.412 -3.614 0.405 -3.419 0.395 -3.204 0.383 -2.964 0.366 -2.702 0.35 -2.418 0.328 -2.109 0.305 -1.779 0.279 0 0zm-33.589 1.374l0.37 1.454 0 0 -0.99 0.263 -0.755 0.225 -0.519 0.183 -0.259 0.119 0.112 -0.142 -0.156 -0.847 -0.105 -0.071 0.271 0.035 0.486 0.021 0.656 -0.001 0.807 -0.025 0.944 -0.048 1.07 -0.07 1.185 -0.091 1.292 -0.11 1.387 -0.128 1.473 -0.146 1.55 -0.162 1.618 -0.178 1.675 -0.19 1.725 -0.204 1.763 -0.215 1.794 -0.225 1.814 -0.234 1.826 -0.243 1.828 -0.249 1.819 -0.255 1.804 -0.26 1.777 -0.263 1.743 -0.265 1.697 -0.266 1.643 -0.266 0.244 1.48 -1.651 0.267 -1.704 0.267 -1.749 0.267 -1.783 0.264 -1.81 0.26 -1.825 0.256 -1.833 0.25 -1.831 0.243 -1.82 0.235 -1.798 0.226 -1.77 0.216 -1.73 0.204 -1.682 0.192 -1.624 0.177 -1.558 0.163 -1.482 0.147 -1.397 0.13 -1.303 0.111 -1.201 0.092 -1.089 0.071 -0.969 0.049 -0.842 0.026 -0.711 0.002 -0.58 -0.027 -0.474 -0.065 -0.513 -0.227 -0.205 -1.06 0.438 -0.415 0.46 -0.216 0.614 -0.218 0.809 -0.241 1.024 -0.272 0 0zm105.709 -17.215l0.215 1.484 0 0 -1.406 0.206 -1.778 0.263 -2.126 0.317 -2.449 0.367 -2.745 0.414 -3.018 0.456 -3.265 0.496 -3.487 0.532 -3.684 0.564 -3.856 0.593 -4.004 0.617 -4.126 0.639 -4.223 0.656 -4.295 0.671 -4.342 0.682 -4.364 0.688 -4.361 0.692 -4.334 0.692 -4.28 0.688 -4.203 0.68 -4.099 0.67 -3.972 0.655 -3.819 0.637 -3.64 0.615 -3.438 0.589 -3.209 0.561 -2.956 0.527 -2.677 0.492 -2.372 0.452 -2.042 0.407 -1.686 0.36 -1.298 0.307 -0.37 -1.454 1.341 -0.317 1.71 -0.365 2.058 -0.411 2.384 -0.454 2.685 -0.493 2.962 -0.529 3.214 -0.561 3.442 -0.59 3.644 -0.616 3.822 -0.637 3.973 -0.655 4.102 -0.671 4.205 -0.68 4.282 -0.688 4.335 -0.692 4.363 -0.693 4.365 -0.688 4.344 -0.682 4.296 -0.671 4.223 -0.657 4.127 -0.639 4.004 -0.617 3.858 -0.593 3.684 -0.564 3.489 -0.532 3.265 -0.496 3.019 -0.457 2.746 -0.414 2.45 -0.367 2.127 -0.317 1.781 -0.263 1.409 -0.206 0 0zm22.128 -1.821l0.302 -1.47 0 0 0.464 0.106 0.379 0.113 0.33 0.145 0.364 0.326 0.062 0.822 -0.372 0.401 -0.317 0.148 -0.335 0.101 -0.39 0.089 -0.455 0.083 -0.524 0.081 -0.59 0.081 -0.657 0.081 -0.718 0.081 -0.778 0.083 -0.833 0.085 -0.885 0.087 -0.934 0.09 -0.978 0.093 -1.02 0.097 -1.056 0.1 -1.09 0.104 -1.119 0.11 -1.145 0.115 -1.166 0.12 -1.185 0.127 -1.198 0.133 -1.209 0.139 -1.216 0.147 -1.217 0.154 -1.216 0.163 -1.211 0.17 -0.215 -1.484 1.222 -0.173 1.226 -0.164 1.227 -0.155 1.224 -0.148 1.216 -0.14 1.205 -0.134 1.19 -0.127 1.171 -0.121 1.149 -0.115 1.122 -0.11 1.092 -0.105 1.058 -0.1 1.019 -0.097 0.977 -0.092 0.932 -0.09 0.881 -0.087 0.827 -0.084 0.769 -0.082 0.706 -0.08 0.64 -0.079 0.567 -0.078 0.491 -0.076 0.407 -0.074 0.312 -0.07 0.198 -0.059 0.041 -0.015 -0.196 0.234 0.046 0.652 0.149 0.15 -0.091 -0.037 -0.256 -0.076 -0.393 -0.089 0 0zm-48.241 2.549l-0.119 -1.496 0 0 0.851 -0.068 0.998 -0.081 1.134 -0.091 1.26 -0.102 1.376 -0.11 1.48 -0.118 1.575 -0.125 1.659 -0.129 1.733 -0.134 1.797 -0.137 1.849 -0.139 1.893 -0.139 1.925 -0.14 1.947 -0.137 1.959 -0.134 1.961 -0.131 1.951 -0.126 1.933 -0.12 1.902 -0.112 1.864 -0.104 1.813 -0.094 1.752 -0.083 1.682 -0.071 1.602 -0.059 1.51 -0.044 1.409 -0.028 1.3 -0.012 1.178 0.006 1.05 0.025 0.913 0.047 0.772 0.069 0.634 0.098 -0.302 1.47 -0.508 -0.078 -0.698 -0.063 -0.866 -0.043 -1.016 -0.025 -1.154 -0.006 -1.28 0.012 -1.395 0.029 -1.498 0.043 -1.592 0.058 -1.673 0.071 -1.746 0.083 -1.807 0.093 -1.857 0.104 -1.899 0.112 -1.928 0.119 -1.948 0.126 -1.957 0.13 -1.956 0.135 -1.945 0.137 -1.923 0.139 -1.89 0.139 -1.848 0.139 -1.795 0.137 -1.732 0.134 -1.658 0.129 -1.573 0.124 -1.48 0.118 -1.374 0.111 -1.26 0.101 -1.134 0.092 -0.999 0.081 -0.852 0.068 0 0zm-35.12 4.617l-0.102 -1.496 0 0 0.79 -0.06 0.848 -0.075 0.904 -0.09 0.954 -0.104 1.001 -0.116 1.044 -0.128 1.083 -0.138 1.117 -0.148 1.149 -0.157 1.176 -0.164 1.199 -0.171 1.219 -0.175 1.234 -0.181 1.246 -0.184 1.255 -0.186 1.258 -0.187 1.259 -0.188 1.255 -0.187 1.248 -0.186 1.238 -0.182 1.222 -0.179 1.204 -0.174 1.182 -0.169 1.155 -0.162 1.126 -0.154 1.093 -0.144 1.055 -0.136 1.013 -0.124 0.97 -0.112 0.922 -0.1 0.869 -0.085 0.815 -0.071 0.119 1.496 -0.795 0.069 -0.854 0.084 -0.909 0.098 -0.959 0.111 -1.005 0.123 -1.048 0.134 -1.086 0.144 -1.12 0.153 -1.151 0.161 -1.179 0.168 -1.201 0.174 -1.22 0.179 -1.236 0.183 -1.247 0.185 -1.255 0.187 -1.259 0.188 -1.259 0.187 -1.255 0.187 -1.248 0.184 -1.237 0.18 -1.221 0.177 -1.203 0.171 -1.18 0.164 -1.154 0.158 -1.124 0.148 -1.09 0.14 -1.052 0.129 -1.011 0.117 -0.967 0.105 -0.918 0.091 -0.866 0.077 -0.811 0.061 0 0zm-2.086 -3.424l0.113 1.496 0 0 -0.347 0.032 -0.335 0.041 -0.322 0.05 -0.305 0.057 -0.288 0.064 -0.269 0.069 -0.246 0.074 -0.222 0.077 -0.195 0.077 -0.164 0.076 -0.131 0.072 -0.093 0.06 -0.049 0.039 -0.004 0.003 0.034 -0.062 0.032 -0.145 -0.024 -0.185 -0.069 -0.132 -0.045 -0.046 0.019 0.011 0.087 0.038 0.15 0.048 0.21 0.051 0.267 0.046 0.324 0.04 0.379 0.032 0.434 0.022 0.492 0.011 0.548 -0.001 0.608 -0.015 0.667 -0.029 0.728 -0.043 0.102 1.496 -0.753 0.046 -0.693 0.03 -0.638 0.015 -0.583 0.001 -0.531 -0.012 -0.481 -0.024 -0.433 -0.037 -0.389 -0.048 -0.347 -0.06 -0.311 -0.074 -0.28 -0.091 -0.257 -0.115 -0.239 -0.154 -0.222 -0.22 -0.168 -0.315 -0.049 -0.375 0.079 -0.34 0.149 -0.26 0.177 -0.197 0.195 -0.161 0.209 -0.138 0.227 -0.123 0.246 -0.114 0.264 -0.105 0.284 -0.098 0.303 -0.091 0.321 -0.083 0.337 -0.075 0.354 -0.066 0.368 -0.057 0.381 -0.047 0.394 -0.036 0 0zm36.803 -6.473l0.377 1.452 0 0 -0.793 0.199 -0.885 0.209 -0.97 0.22 -1.049 0.229 -1.122 0.236 -1.187 0.243 -1.246 0.249 -1.297 0.253 -1.343 0.258 -1.38 0.26 -1.411 0.261 -1.435 0.262 -1.452 0.261 -1.461 0.259 -1.464 0.256 -1.461 0.252 -1.449 0.248 -1.431 0.241 -1.405 0.234 -1.374 0.226 -1.334 0.216 -1.288 0.205 -1.236 0.194 -1.174 0.182 -1.108 0.167 -1.033 0.153 -0.953 0.136 -0.865 0.12 -0.771 0.102 -0.67 0.082 -0.564 0.063 -0.456 0.041 -0.113 -1.496 0.417 -0.038 0.541 -0.06 0.655 -0.08 0.76 -0.1 0.857 -0.119 0.946 -0.136 1.028 -0.152 1.102 -0.166 1.171 -0.181 1.231 -0.193 1.285 -0.205 1.33 -0.216 1.371 -0.225 1.403 -0.234 1.427 -0.24 1.446 -0.247 1.457 -0.252 1.462 -0.256 1.458 -0.258 1.448 -0.261 1.431 -0.261 1.407 -0.26 1.375 -0.259 1.337 -0.256 1.292 -0.253 1.24 -0.248 1.179 -0.241 1.113 -0.235 1.038 -0.226 0.958 -0.216 0.867 -0.206 0.771 -0.193 0 0zm100.53 -12.704l-0.179 1.49 -2.009 -0.18 -2.303 -0.096 -2.572 -0.017 -2.816 0.06 -3.038 0.131 -3.239 0.198 -3.417 0.259 -3.573 0.316 -3.708 0.368 -3.822 0.415 -3.913 0.458 -3.984 0.495 -4.033 0.528 -4.06 0.555 -4.067 0.578 -4.052 0.597 -4.016 0.609 -3.957 0.618 -3.879 0.62 -3.779 0.62 -3.657 0.613 -3.514 0.602 -3.35 0.586 -3.165 0.564 -2.957 0.539 -2.73 0.508 -2.479 0.472 -2.209 0.432 -1.916 0.386 -1.6 0.335 -1.263 0.28 -0.897 0.217 -0.377 -1.452 0.938 -0.227 1.283 -0.284 1.615 -0.339 1.925 -0.388 2.216 -0.433 2.487 -0.474 2.735 -0.509 2.963 -0.539 3.17 -0.566 3.355 -0.587 3.52 -0.602 3.662 -0.614 3.784 -0.62 3.885 -0.622 3.964 -0.619 4.022 -0.61 4.058 -0.597 4.074 -0.58 4.069 -0.556 4.042 -0.529 3.994 -0.497 3.925 -0.459 3.834 -0.416 3.723 -0.37 3.591 -0.317 3.437 -0.261 3.263 -0.199 3.068 -0.132 2.854 -0.061 2.617 0.017 2.364 0.099 2.093 0.187zm0 0c0.411,0.049 0.704,0.423 0.655,0.834 -0.049,0.411 -0.423,0.705 -0.834,0.656l0.179 -1.49z"/>
   </g>
  </g>
 </g>
</svg>
