<?xml version="1.0" encoding="UTF-8"?>
<!DOCTYPE svg PUBLIC "-//W3C//DTD SVG 1.1//EN" "http://www.w3.org/Graphics/SVG/1.1/DTD/svg11.dtd">
<!-- Creator: CorelDRAW 2019 (64-Bit) -->
<svg xmlns="http://www.w3.org/2000/svg" xml:space="preserve" width="200px" height="100px" version="1.1" style="shape-rendering:geometricPrecision; text-rendering:geometricPrecision; image-rendering:optimizeQuality; fill-rule:evenodd; clip-rule:evenodd"
viewBox="0 0 200 100"
 xmlns:xlink="http://www.w3.org/1999/xlink"
 xmlns:xodm="http://www.corel.com/coreldraw/odm/2003">
 <defs>
  <style type="text/css">
   <![CDATA[
    .fil0 {fill:black;fill-rule:nonzero}
   ]]>
  </style>
 </defs>
 <g id="Layer_x0020_1">
  <metadata id="CorelCorpID_0Corel-Layer"/>
  <g>
   <path class="fil0" d="M65.103 81.39c0.303,-0.282 0.779,-0.264 1.06,0.04 0.282,0.304 0.263,0.779 -0.04,1.06l-1.02 -1.1zm-10.258 9.013l-0.507 -1.412 0 0 0.381 -0.147 0.398 -0.173 0.412 -0.197 0.425 -0.219 0.435 -0.238 0.442 -0.257 0.448 -0.273 0.452 -0.287 0.454 -0.299 0.453 -0.309 0.452 -0.316 0.448 -0.323 0.443 -0.326 0.436 -0.327 0.427 -0.328 0.416 -0.325 0.404 -0.321 0.39 -0.315 0.375 -0.306 0.357 -0.296 0.338 -0.284 0.317 -0.269 0.294 -0.253 0.271 -0.235 0.245 -0.215 0.218 -0.192 0.188 -0.167 0.158 -0.142 0.125 -0.113 0.09 -0.083 0.056 -0.051 0.017 -0.015 1.02 1.1 -0.022 0.02 -0.058 0.053 -0.095 0.087 -0.129 0.117 -0.162 0.145 -0.193 0.172 -0.222 0.196 -0.25 0.219 -0.276 0.239 -0.301 0.259 -0.324 0.274 -0.344 0.29 -0.365 0.302 -0.382 0.313 -0.398 0.321 -0.414 0.328 -0.426 0.333 -0.437 0.336 -0.448 0.337 -0.456 0.336 -0.462 0.332 -0.468 0.328 -0.472 0.321 -0.473 0.312 -0.474 0.301 -0.474 0.288 -0.471 0.274 -0.467 0.257 -0.464 0.238 -0.457 0.218 -0.451 0.196 -0.443 0.171 0 0zm48.033 -52.439l0.091 1.498 0 0 -2.418 0.291 -2.471 0.572 -2.514 0.836 -2.543 1.081 -2.562 1.307 -2.568 1.514 -2.563 1.701 -2.545 1.866 -2.516 2.012 -2.476 2.138 -2.425 2.242 -2.363 2.326 -2.289 2.39 -2.206 2.432 -2.111 2.455 -2.005 2.457 -1.889 2.437 -1.761 2.397 -1.624 2.337 -1.474 2.255 -1.315 2.152 -1.145 2.027 -0.963 1.88 -0.769 1.71 -0.567 1.513 -0.353 1.284 -0.137 1.012 0.057 0.678 0.151 0.316 0.225 0.133 0.552 0.022 0.956 -0.244 0.507 1.412 -1.281 0.321 -1.132 -0.064 -0.931 -0.564 -0.498 -0.948 -0.105 -1.115 0.168 -1.268 0.395 -1.443 0.606 -1.619 0.805 -1.788 0.994 -1.94 1.172 -2.076 1.34 -2.193 1.499 -2.292 1.646 -2.37 1.785 -2.429 1.912 -2.468 2.029 -2.486 2.137 -2.484 2.232 -2.462 2.319 -2.421 2.395 -2.358 2.462 -2.275 2.516 -2.173 2.563 -2.049 2.598 -1.906 2.625 -1.741 2.642 -1.557 2.649 -1.352 2.648 -1.125 2.637 -0.877 2.618 -0.606 2.588 -0.311 0 0zm5.217 11.779l-0.954 -1.158 0 0 0.85 -0.729 0.743 -0.693 0.638 -0.657 0.539 -0.62 0.443 -0.583 0.352 -0.542 0.266 -0.502 0.187 -0.46 0.115 -0.417 0.052 -0.375 -0.003 -0.338 -0.051 -0.309 -0.094 -0.286 -0.14 -0.272 -0.184 -0.262 -0.232 -0.252 -0.279 -0.243 -0.325 -0.23 -0.367 -0.216 -0.406 -0.199 -0.44 -0.182 -0.47 -0.164 -0.496 -0.145 -0.517 -0.125 -0.533 -0.106 -0.545 -0.086 -0.553 -0.068 -0.556 -0.049 -0.554 -0.03 -0.549 -0.012 -0.539 0.006 -0.524 0.023 -0.091 -1.498 0.575 -0.025 0.588 -0.006 0.597 0.013 0.604 0.032 0.606 0.054 0.605 0.074 0.6 0.095 0.592 0.118 0.581 0.141 0.565 0.165 0.547 0.19 0.525 0.217 0.499 0.246 0.47 0.277 0.437 0.31 0.399 0.347 0.353 0.386 0.302 0.428 0.239 0.47 0.168 0.508 0.088 0.539 0.005 0.564 -0.08 0.582 -0.165 0.597 -0.248 0.611 -0.332 0.627 -0.418 0.645 -0.506 0.665 -0.598 0.688 -0.693 0.714 -0.792 0.739 -0.896 0.768 0 0zm-32.449 23.731l-0.798 -1.27 0 0 0.595 -0.378 0.653 -0.422 0.708 -0.465 0.759 -0.505 0.809 -0.543 0.854 -0.579 0.895 -0.613 0.936 -0.644 0.97 -0.674 1.004 -0.701 1.033 -0.726 1.06 -0.749 1.083 -0.771 1.104 -0.79 1.121 -0.806 1.135 -0.821 1.146 -0.834 1.155 -0.845 1.159 -0.852 1.161 -0.86 1.16 -0.863 1.155 -0.866 1.149 -0.866 1.137 -0.863 1.125 -0.86 1.107 -0.853 1.087 -0.845 1.065 -0.835 1.039 -0.821 1.009 -0.808 0.978 -0.79 0.942 -0.771 0.954 1.158 -0.949 0.777 -0.985 0.796 -1.015 0.812 -1.045 0.826 -1.07 0.839 -1.092 0.848 -1.112 0.857 -1.128 0.863 -1.142 0.867 -1.152 0.868 -1.159 0.869 -1.164 0.866 -1.164 0.862 -1.163 0.855 -1.157 0.847 -1.15 0.836 -1.139 0.824 -1.124 0.808 -1.106 0.792 -1.087 0.773 -1.064 0.752 -1.036 0.729 -1.008 0.704 -0.974 0.676 -0.939 0.648 -0.901 0.615 -0.858 0.582 -0.815 0.548 -0.766 0.509 -0.716 0.47 -0.663 0.429 -0.606 0.384 0 0zm12.962 -5.82l0.77 1.288 0 0 -0.936 0.55 -0.933 0.529 -0.929 0.508 -0.919 0.485 -0.908 0.463 -0.893 0.439 -0.876 0.417 -0.856 0.392 -0.833 0.367 -0.807 0.343 -0.778 0.317 -0.747 0.292 -0.713 0.264 -0.676 0.239 -0.636 0.211 -0.595 0.183 -0.551 0.155 -0.505 0.126 -0.46 0.097 -0.414 0.068 -0.375 0.035 -0.348 -0.002 -0.356 -0.064 -0.412 -0.234 -0.281 -0.549 0.072 -0.51 0.196 -0.335 0.248 -0.277 0.308 -0.277 0.38 -0.295 0.458 -0.322 0.545 -0.353 0.798 1.27 -0.505 0.328 -0.408 0.286 -0.311 0.242 -0.212 0.189 -0.108 0.119 -0.001 -0.006 0.028 -0.248 -0.179 -0.355 -0.169 -0.105 0.021 0 0.159 0 0.255 -0.025 0.333 -0.054 0.399 -0.085 0.458 -0.114 0.512 -0.144 0.563 -0.174 0.607 -0.201 0.651 -0.229 0.69 -0.256 0.725 -0.283 0.757 -0.309 0.788 -0.334 0.813 -0.359 0.837 -0.384 0.858 -0.407 0.874 -0.431 0.889 -0.453 0.9 -0.475 0.908 -0.497 0.914 -0.517 0.916 -0.539 0 0zm47.421 -19.483l-0.83 1.25 0 0 -0.474 -0.23 -0.643 -0.155 -0.808 -0.065 -0.957 0.034 -1.089 0.134 -1.207 0.229 -1.313 0.321 -1.407 0.405 -1.491 0.485 -1.566 0.557 -1.629 0.624 -1.684 0.684 -1.731 0.737 -1.767 0.785 -1.796 0.826 -1.814 0.86 -1.824 0.888 -1.826 0.91 -1.818 0.926 -1.802 0.935 -1.777 0.938 -1.744 0.934 -1.701 0.925 -1.649 0.908 -1.589 0.886 -1.522 0.857 -1.443 0.822 -1.357 0.78 -1.262 0.733 -1.159 0.678 -1.046 0.619 -0.926 0.551 -0.77 -1.288 0.93 -0.554 1.051 -0.621 1.164 -0.681 1.268 -0.736 1.362 -0.784 1.449 -0.825 1.527 -0.86 1.596 -0.89 1.656 -0.912 1.709 -0.928 1.751 -0.939 1.786 -0.943 1.812 -0.94 1.829 -0.93 1.837 -0.917 1.838 -0.895 1.829 -0.867 1.813 -0.833 1.786 -0.794 1.753 -0.746 1.71 -0.695 1.66 -0.635 1.601 -0.57 1.535 -0.499 1.461 -0.421 1.38 -0.337 1.293 -0.245 1.202 -0.147 1.106 -0.039 1.011 0.082 0.913 0.224 0.803 0.394 0 0zm-52.699 16.465l0.348 -1.459 0 0 0.883 0.144 1.123 0.066 1.334 -0.016 1.522 -0.094 1.687 -0.169 1.835 -0.241 1.964 -0.305 2.074 -0.366 2.169 -0.422 2.245 -0.474 2.306 -0.518 2.348 -0.56 2.373 -0.595 2.383 -0.627 2.375 -0.652 2.35 -0.673 2.308 -0.689 2.25 -0.7 2.175 -0.705 2.082 -0.706 1.973 -0.702 1.847 -0.692 1.702 -0.677 1.541 -0.656 1.361 -0.629 1.162 -0.595 0.94 -0.551 0.693 -0.49 0.412 -0.391 0.119 -0.179 0.019 0.12 -0.034 -0.012 0.83 -1.25 0.577 0.658 0.048 0.906 -0.403 0.714 -0.625 0.601 -0.828 0.587 -1.029 0.604 -1.225 0.628 -1.409 0.651 -1.579 0.672 -1.733 0.689 -1.872 0.701 -1.995 0.71 -2.102 0.713 -2.193 0.711 -2.267 0.705 -2.324 0.694 -2.366 0.677 -2.39 0.657 -2.399 0.631 -2.391 0.599 -2.365 0.564 -2.325 0.524 -2.267 0.477 -2.192 0.427 -2.103 0.371 -1.997 0.311 -1.875 0.245 -1.737 0.174 -1.587 0.098 -1.424 0.017 -1.25 -0.074 -1.072 -0.177 0 0zm79.366 -55.369l0.319 1.466 -2.648 0.67 -2.821 0.888 -2.974 1.094 -3.107 1.282 -3.222 1.457 -3.317 1.615 -3.395 1.757 -3.455 1.885 -3.495 1.998 -3.518 2.092 -3.523 2.174 -3.51 2.238 -3.478 2.288 -3.43 2.322 -3.364 2.34 -3.278 2.344 -3.176 2.33 -3.055 2.302 -2.917 2.258 -2.761 2.199 -2.586 2.123 -2.393 2.033 -2.184 1.925 -1.953 1.801 -1.706 1.662 -1.439 1.504 -1.151 1.325 -0.842 1.121 -0.506 0.872 -0.167 0.516 -0.024 0.024 0.058 0.005 -0.348 1.459 -0.918 -0.574 -0.263 -1.045 0.298 -1.011 0.625 -1.083 0.923 -1.231 1.208 -1.391 1.482 -1.548 1.739 -1.694 1.98 -1.827 2.206 -1.945 2.414 -2.05 2.604 -2.138 2.777 -2.212 2.933 -2.27 3.071 -2.314 3.191 -2.341 3.294 -2.355 3.378 -2.351 3.447 -2.333 3.496 -2.299 3.528 -2.25 3.543 -2.186 3.539 -2.105 3.52 -2.011 3.481 -1.9 3.426 -1.774 3.353 -1.632 3.264 -1.476 3.157 -1.303 3.035 -1.115 2.895 -0.912 2.74 -0.693zm0 0c0.405,-0.088 0.804,0.169 0.892,0.574 0.088,0.405 -0.169,0.805 -0.573,0.892l-0.319 -1.466z"/>
  </g>
 </g>
</svg>
