<?xml version="1.0" encoding="UTF-8"?>
<!DOCTYPE svg PUBLIC "-//W3C//DTD SVG 1.1//EN" "http://www.w3.org/Graphics/SVG/1.1/DTD/svg11.dtd">
<!-- Creator: CorelDRAW 2019 (64-Bit) -->
<svg xmlns="http://www.w3.org/2000/svg" xml:space="preserve" width="200px" height="100px" version="1.1" style="shape-rendering:geometricPrecision; text-rendering:geometricPrecision; image-rendering:optimizeQuality; fill-rule:evenodd; clip-rule:evenodd"
viewBox="0 0 200 100"
 xmlns:xlink="http://www.w3.org/1999/xlink"
 xmlns:xodm="http://www.corel.com/coreldraw/odm/2003">
 <defs>
  <style type="text/css">
   <![CDATA[
    .fil0 {fill:black;fill-rule:nonzero}
   ]]>
  </style>
 </defs>
 <g id="Layer_x0020_1">
  <metadata id="CorelCorpID_0Corel-Layer"/>
  <g id="_2204184037104">
   <g>
    <path class="fil0" d="M51.455 69.923c-0.091,0.404 -0.493,0.657 -0.897,0.566 -0.404,-0.091 -0.658,-0.493 -0.567,-0.897l1.464 0.331zm-3.603 -2.025l-0.07 -1.498 0 0 0.357 -0.008 0.337 0.01 0.318 0.028 0.3 0.046 0.282 0.063 0.264 0.08 0.247 0.096 0.23 0.112 0.213 0.126 0.193 0.14 0.174 0.151 0.155 0.162 0.135 0.168 0.117 0.173 0.099 0.175 0.082 0.176 0.067 0.174 0.053 0.171 0.041 0.166 0.03 0.161 0.02 0.154 0.013 0.146 0.006 0.138 0.001 0.128 -0.004 0.118 -0.007 0.107 -0.008 0.095 -0.011 0.084 -0.01 0.067 -0.008 0.051 -0.008 0.039 -0.005 0.026 -1.464 -0.331 -0.002 0.011 0.002 -0.008 0.003 -0.023 0.006 -0.034 0.005 -0.041 0.005 -0.052 0.004 -0.061 0.002 -0.066 -0.001 -0.073 -0.003 -0.076 -0.007 -0.08 -0.011 -0.082 -0.015 -0.081 -0.02 -0.082 -0.024 -0.081 -0.03 -0.078 -0.036 -0.076 -0.041 -0.073 -0.047 -0.071 -0.055 -0.067 -0.063 -0.066 -0.072 -0.063 -0.086 -0.062 -0.1 -0.06 -0.116 -0.056 -0.135 -0.053 -0.156 -0.047 -0.179 -0.04 -0.203 -0.031 -0.228 -0.02 -0.254 -0.008 -0.282 0.006 0 0zm-19.465 8.867l-0.895 -1.205 0 0 0.669 -0.486 0.681 -0.478 0.691 -0.467 0.702 -0.458 0.71 -0.446 0.716 -0.436 0.721 -0.425 0.725 -0.413 0.727 -0.402 0.727 -0.39 0.727 -0.377 0.724 -0.364 0.72 -0.351 0.715 -0.337 0.708 -0.323 0.7 -0.309 0.69 -0.294 0.679 -0.28 0.666 -0.264 0.652 -0.248 0.635 -0.232 0.619 -0.215 0.601 -0.199 0.581 -0.181 0.56 -0.164 0.538 -0.146 0.514 -0.128 0.49 -0.109 0.464 -0.09 0.439 -0.07 0.412 -0.05 0.387 -0.028 0.07 1.498 -0.31 0.023 -0.35 0.042 -0.386 0.062 -0.42 0.081 -0.452 0.101 -0.48 0.119 -0.508 0.138 -0.533 0.157 -0.556 0.173 -0.578 0.192 -0.598 0.207 -0.616 0.225 -0.632 0.241 -0.647 0.257 -0.661 0.271 -0.673 0.287 -0.682 0.302 -0.691 0.315 -0.698 0.329 -0.703 0.343 -0.708 0.355 -0.709 0.368 -0.71 0.38 -0.71 0.392 -0.706 0.404 -0.703 0.414 -0.698 0.424 -0.689 0.435 -0.682 0.444 -0.671 0.453 -0.659 0.462 -0.646 0.471 0 0zm0.005 12.452l-0.112 1.496 0 0 -1.066 -0.104 -0.982 -0.145 -0.9 -0.186 -0.821 -0.226 -0.744 -0.266 -0.671 -0.305 -0.599 -0.347 -0.526 -0.387 -0.453 -0.429 -0.377 -0.468 -0.3 -0.503 -0.22 -0.532 -0.141 -0.552 -0.066 -0.566 0.005 -0.574 0.071 -0.578 0.13 -0.581 0.185 -0.581 0.235 -0.582 0.284 -0.583 0.328 -0.582 0.37 -0.581 0.409 -0.579 0.446 -0.576 0.48 -0.571 0.512 -0.566 0.543 -0.559 0.57 -0.552 0.595 -0.541 0.618 -0.53 0.64 -0.518 0.657 -0.503 0.895 1.205 -0.625 0.478 -0.607 0.49 -0.585 0.503 -0.562 0.51 -0.536 0.519 -0.508 0.524 -0.477 0.526 -0.443 0.528 -0.407 0.526 -0.37 0.522 -0.328 0.517 -0.287 0.508 -0.241 0.496 -0.196 0.482 -0.148 0.464 -0.099 0.444 -0.052 0.421 -0.004 0.396 0.043 0.372 0.09 0.351 0.137 0.331 0.189 0.318 0.247 0.307 0.313 0.296 0.386 0.284 0.464 0.268 0.546 0.249 0.633 0.226 0.721 0.198 0.811 0.167 0.903 0.133 0.997 0.098 0 0zm130.023 -6.4l-0.231 1.483 -4.862 -0.685 -4.94 -0.557 -5.005 -0.434 -5.056 -0.319 -5.096 -0.212 -5.121 -0.111 -5.133 -0.019 -5.133 0.068 -5.12 0.147 -5.093 0.219 -5.054 0.282 -5.002 0.341 -4.937 0.39 -4.858 0.433 -4.767 0.468 -4.664 0.497 -4.546 0.518 -4.416 0.532 -4.274 0.539 -4.118 0.538 -3.95 0.53 -3.768 0.515 -3.574 0.493 -3.367 0.463 -3.148 0.427 -2.915 0.383 -2.672 0.332 -2.415 0.274 -2.147 0.208 -1.87 0.135 -1.585 0.054 -1.298 -0.036 0.112 -1.496 1.176 0.032 1.513 -0.052 1.824 -0.132 2.118 -0.205 2.395 -0.272 2.658 -0.33 2.908 -0.382 3.143 -0.426 3.365 -0.463 3.575 -0.494 3.771 -0.515 3.954 -0.531 4.124 -0.539 4.281 -0.539 4.425 -0.533 4.557 -0.519 4.675 -0.498 4.78 -0.47 4.873 -0.434 4.952 -0.392 5.019 -0.341 5.073 -0.284 5.113 -0.219 5.143 -0.148 5.157 -0.068 5.159 0.018 5.15 0.113 5.126 0.213 5.09 0.321 5.041 0.438 4.98 0.56 4.905 0.691zm0 0c0.409,0.064 0.689,0.448 0.626,0.857 -0.064,0.409 -0.448,0.689 -0.857,0.626l0.231 -1.483z"/>
   </g>
   <g>
    <path class="fil0" d="M64.667 43.756c-0.412,0.041 -0.78,-0.26 -0.82,-0.672 -0.041,-0.412 0.26,-0.78 0.672,-0.82l0.148 1.492zm8.485 -3.221l0.58 1.384 0 0 -0.298 0.118 -0.312 0.114 -0.325 0.108 -0.336 0.104 -0.346 0.1 -0.355 0.096 -0.362 0.091 -0.367 0.087 -0.372 0.084 -0.375 0.08 -0.375 0.077 -0.375 0.072 -0.373 0.069 -0.369 0.066 -0.364 0.061 -0.357 0.059 -0.348 0.054 -0.338 0.051 -0.326 0.048 -0.312 0.044 -0.297 0.041 -0.28 0.036 -0.261 0.034 -0.241 0.03 -0.22 0.027 -0.196 0.022 -0.17 0.02 -0.143 0.016 -0.116 0.012 -0.084 0.009 -0.051 0.005 -0.021 0.002 -0.148 -1.492 0.014 -0.002 0.051 -0.005 0.081 -0.009 0.11 -0.011 0.139 -0.016 0.166 -0.019 0.191 -0.022 0.214 -0.026 0.236 -0.029 0.256 -0.033 0.274 -0.037 0.29 -0.039 0.305 -0.043 0.319 -0.046 0.329 -0.05 0.34 -0.054 0.347 -0.056 0.354 -0.06 0.358 -0.064 0.362 -0.067 0.362 -0.07 0.361 -0.074 0.359 -0.076 0.355 -0.08 0.349 -0.083 0.341 -0.086 0.331 -0.089 0.319 -0.092 0.306 -0.095 0.29 -0.097 0.272 -0.099 0.252 -0.1 0 0zm-3.998 -1.162l-0.405 -1.444 0 0 0.703 -0.187 0.661 -0.156 0.62 -0.126 0.58 -0.096 0.542 -0.069 0.505 -0.042 0.469 -0.016 0.436 0.009 0.404 0.033 0.374 0.057 0.346 0.083 0.319 0.109 0.292 0.137 0.265 0.167 0.235 0.202 0.197 0.233 0.153 0.262 0.102 0.282 0.05 0.292 0 0.288 -0.043 0.28 -0.08 0.267 -0.113 0.255 -0.14 0.242 -0.164 0.228 -0.188 0.217 -0.209 0.206 -0.23 0.193 -0.249 0.181 -0.267 0.167 -0.286 0.154 -0.301 0.138 -0.58 -1.384 0.215 -0.098 0.199 -0.107 0.181 -0.114 0.164 -0.119 0.145 -0.122 0.125 -0.122 0.104 -0.121 0.083 -0.115 0.062 -0.107 0.042 -0.094 0.024 -0.08 0.01 -0.063 0.001 -0.046 -0.006 -0.033 -0.01 -0.028 -0.018 -0.032 -0.035 -0.041 -0.06 -0.051 -0.094 -0.059 -0.133 -0.063 -0.175 -0.059 -0.217 -0.052 -0.262 -0.04 -0.305 -0.025 -0.349 -0.007 -0.393 0.014 -0.437 0.036 -0.481 0.061 -0.526 0.088 -0.571 0.115 -0.617 0.145 -0.664 0.177 0 0zm-12.676 10.087l0.116 1.496 0 0 -1.712 0.104 -1.454 0.028 -1.215 -0.045 -0.996 -0.119 -0.808 -0.2 -0.658 -0.316 -0.503 -0.512 -0.204 -0.708 0.136 -0.671 0.33 -0.571 0.459 -0.53 0.573 -0.524 0.68 -0.532 0.778 -0.542 0.866 -0.553 0.94 -0.562 1.005 -0.566 1.056 -0.567 1.094 -0.564 1.12 -0.557 1.131 -0.545 1.132 -0.529 1.117 -0.509 1.09 -0.484 1.049 -0.454 0.997 -0.421 0.929 -0.383 0.85 -0.34 0.758 -0.294 0.654 -0.242 0.539 -0.188 0.422 -0.131 0.405 1.444 -0.354 0.111 -0.503 0.175 -0.631 0.234 -0.74 0.286 -0.835 0.335 -0.917 0.377 -0.984 0.416 -1.037 0.449 -1.077 0.478 -1.104 0.503 -1.116 0.522 -1.116 0.538 -1.101 0.548 -1.074 0.553 -1.031 0.554 -0.975 0.55 -0.906 0.539 -0.82 0.525 -0.721 0.503 -0.605 0.472 -0.47 0.428 -0.317 0.363 -0.152 0.253 -0.024 0.075 -0.017 -0.049 0.058 0.05 0.306 0.142 0.583 0.143 0.849 0.101 1.114 0.041 1.382 -0.027 1.659 -0.101 0 0zm2.309 14.957l-0.671 -1.342 0 0 0.878 -0.459 0.856 -0.485 0.828 -0.509 0.797 -0.53 0.761 -0.546 0.722 -0.56 0.679 -0.57 0.631 -0.577 0.579 -0.58 0.523 -0.579 0.465 -0.574 0.401 -0.564 0.334 -0.549 0.263 -0.529 0.193 -0.503 0.12 -0.47 0.05 -0.435 -0.017 -0.396 -0.081 -0.363 -0.147 -0.339 -0.222 -0.325 -0.311 -0.315 -0.416 -0.303 -0.529 -0.285 -0.651 -0.257 -0.776 -0.223 -0.905 -0.181 -1.036 -0.134 -1.17 -0.082 -1.307 -0.027 -1.445 0.033 -1.589 0.097 -0.116 -1.496 1.641 -0.1 1.506 -0.034 1.376 0.028 1.251 0.088 1.13 0.146 1.015 0.204 0.905 0.259 0.798 0.317 0.697 0.375 0.596 0.435 0.49 0.497 0.38 0.555 0.262 0.601 0.142 0.633 0.028 0.648 -0.074 0.652 -0.166 0.654 -0.249 0.651 -0.324 0.651 -0.394 0.648 -0.459 0.646 -0.519 0.642 -0.576 0.637 -0.63 0.63 -0.679 0.621 -0.725 0.609 -0.767 0.595 -0.806 0.579 -0.841 0.559 -0.873 0.536 -0.901 0.512 -0.925 0.483 0 0zm-3.18 -2.163l0.802 1.267 0 0 -0.147 0.098 -0.124 0.092 -0.103 0.086 -0.082 0.077 -0.06 0.066 -0.041 0.053 -0.021 0.034 -0.006 0.012 0.004 -0.014 0.005 -0.041 -0.003 -0.063 -0.02 -0.075 -0.034 -0.069 -0.04 -0.05 -0.032 -0.028 -0.013 -0.009 0.009 0.004 0.034 0.01 0.059 0.012 0.079 0.008 0.101 0.004 0.119 -0.004 0.137 -0.012 0.154 -0.022 0.17 -0.033 0.184 -0.044 0.198 -0.056 0.212 -0.069 0.224 -0.082 0.236 -0.096 0.248 -0.11 0.26 -0.125 0.671 1.342 -0.3 0.144 -0.292 0.13 -0.283 0.115 -0.274 0.1 -0.264 0.085 -0.256 0.073 -0.246 0.059 -0.237 0.046 -0.229 0.033 -0.22 0.019 -0.212 0.007 -0.206 -0.007 -0.198 -0.022 -0.193 -0.038 -0.189 -0.057 -0.185 -0.081 -0.177 -0.109 -0.167 -0.144 -0.144 -0.181 -0.108 -0.213 -0.06 -0.232 -0.011 -0.231 0.03 -0.22 0.062 -0.203 0.087 -0.185 0.108 -0.172 0.123 -0.16 0.139 -0.153 0.156 -0.147 0.172 -0.143 0.188 -0.14 0.206 -0.136 0 0zm11.987 -4.214l0.601 1.374 0 0 -0.322 0.137 -0.339 0.136 -0.355 0.135 -0.37 0.136 -0.383 0.135 -0.395 0.136 -0.407 0.135 -0.415 0.136 -0.424 0.135 -0.429 0.135 -0.435 0.134 -0.438 0.135 -0.441 0.134 -0.44 0.134 -0.44 0.134 -0.437 0.133 -0.434 0.133 -0.427 0.131 -0.42 0.132 -0.412 0.13 -0.401 0.129 -0.389 0.128 -0.376 0.127 -0.36 0.126 -0.343 0.124 -0.324 0.122 -0.303 0.12 -0.281 0.118 -0.255 0.114 -0.228 0.11 -0.198 0.105 -0.165 0.098 -0.802 -1.267 0.233 -0.139 0.254 -0.135 0.273 -0.132 0.293 -0.131 0.31 -0.13 0.329 -0.13 0.344 -0.13 0.361 -0.131 0.375 -0.131 0.388 -0.131 0.399 -0.131 0.41 -0.132 0.418 -0.133 0.425 -0.132 0.432 -0.134 0.436 -0.133 0.438 -0.133 0.44 -0.134 0.44 -0.134 0.439 -0.133 0.435 -0.134 0.43 -0.134 0.424 -0.133 0.416 -0.132 0.406 -0.133 0.395 -0.131 0.383 -0.131 0.368 -0.13 0.352 -0.129 0.334 -0.128 0.315 -0.126 0.292 -0.124 0 0zm8.938 -5.512l1.48 0.247 0 0 -0.076 0.285 -0.116 0.258 -0.145 0.238 -0.169 0.227 -0.191 0.22 -0.211 0.216 -0.232 0.216 -0.251 0.216 -0.269 0.217 -0.286 0.218 -0.302 0.219 -0.317 0.22 -0.33 0.22 -0.343 0.221 -0.353 0.221 -0.362 0.22 -0.371 0.219 -0.377 0.218 -0.381 0.215 -0.385 0.212 -0.387 0.21 -0.388 0.206 -0.386 0.201 -0.385 0.197 -0.38 0.191 -0.375 0.185 -0.367 0.178 -0.359 0.172 -0.35 0.164 -0.337 0.155 -0.325 0.147 -0.311 0.137 -0.601 -1.374 0.3 -0.133 0.314 -0.142 0.328 -0.151 0.34 -0.159 0.35 -0.167 0.358 -0.174 0.366 -0.181 0.371 -0.186 0.374 -0.192 0.377 -0.196 0.377 -0.2 0.377 -0.204 0.373 -0.206 0.369 -0.209 0.364 -0.209 0.355 -0.211 0.347 -0.211 0.336 -0.209 0.323 -0.209 0.31 -0.207 0.293 -0.203 0.275 -0.199 0.256 -0.195 0.234 -0.189 0.211 -0.182 0.185 -0.172 0.157 -0.16 0.127 -0.146 0.094 -0.125 0.061 -0.1 0.03 -0.065 0.006 -0.02 0 0zm-4.184 2.605l-0.982 -1.133 0 0 0.287 -0.245 0.286 -0.235 0.284 -0.225 0.28 -0.215 0.278 -0.205 0.274 -0.194 0.271 -0.184 0.266 -0.172 0.261 -0.163 0.257 -0.151 0.251 -0.14 0.245 -0.129 0.24 -0.118 0.234 -0.106 0.228 -0.095 0.223 -0.082 0.217 -0.071 0.212 -0.058 0.21 -0.045 0.205 -0.031 0.206 -0.014 0.208 0.004 0.211 0.03 0.213 0.059 0.213 0.1 0.2 0.145 0.169 0.187 0.126 0.218 0.079 0.232 0.036 0.231 0.001 0.225 -0.025 0.222 -1.48 -0.247 0.008 -0.061 0 -0.028 0.001 0.006 0.012 0.036 0.03 0.05 0.042 0.047 0.044 0.032 0.029 0.014 0.003 0.002 -0.026 -0.004 -0.054 -0.001 -0.079 0.006 -0.102 0.016 -0.122 0.026 -0.138 0.038 -0.155 0.05 -0.167 0.062 -0.18 0.075 -0.191 0.086 -0.201 0.099 -0.211 0.111 -0.219 0.122 -0.226 0.134 -0.234 0.145 -0.24 0.156 -0.245 0.167 -0.251 0.177 -0.256 0.189 -0.259 0.198 -0.263 0.208 -0.266 0.219 -0.268 0.228 0 0zm8.225 -0.56l1.191 0.911 0 0 -0.757 0.939 -0.785 0.874 -0.805 0.811 -0.821 0.747 -0.832 0.683 -0.836 0.621 -0.837 0.559 -0.831 0.496 -0.82 0.435 -0.805 0.373 -0.785 0.313 -0.761 0.251 -0.731 0.191 -0.7 0.129 -0.666 0.067 -0.627 0.002 -0.59 -0.067 -0.549 -0.146 -0.502 -0.236 -0.436 -0.341 -0.34 -0.448 -0.208 -0.53 -0.068 -0.577 0.062 -0.6 0.178 -0.622 0.287 -0.649 0.396 -0.683 0.509 -0.723 0.626 -0.767 0.748 -0.814 0.877 -0.861 1.011 -0.911 0.982 1.133 -0.966 0.871 -0.827 0.813 -0.694 0.754 -0.564 0.691 -0.44 0.626 -0.324 0.558 -0.213 0.481 -0.115 0.398 -0.032 0.307 0.024 0.219 0.06 0.154 0.095 0.123 0.15 0.115 0.23 0.107 0.314 0.082 0.396 0.045 0.469 -0.002 0.532 -0.053 0.587 -0.109 0.633 -0.165 0.673 -0.223 0.705 -0.28 0.731 -0.339 0.751 -0.399 0.766 -0.457 0.774 -0.517 0.777 -0.576 0.774 -0.637 0.765 -0.696 0.752 -0.756 0.733 -0.817 0.709 -0.878 0 0zm0.107 -0.903l-1.136 -0.98 0 0 0.149 -0.163 0.155 -0.149 0.159 -0.133 0.163 -0.118 0.169 -0.104 0.173 -0.087 0.178 -0.072 0.182 -0.053 0.186 -0.035 0.191 -0.014 0.193 0.01 0.193 0.035 0.188 0.063 0.18 0.09 0.167 0.118 0.146 0.142 0.123 0.162 0.098 0.177 0.072 0.185 0.048 0.193 0.025 0.197 0.005 0.198 -0.015 0.202 -0.033 0.204 -0.05 0.206 -0.067 0.209 -0.083 0.212 -0.1 0.216 -0.118 0.219 -0.134 0.224 -0.152 0.228 -0.171 0.232 -1.191 -0.911 0.133 -0.182 0.114 -0.171 0.097 -0.161 0.08 -0.15 0.064 -0.137 0.049 -0.125 0.036 -0.112 0.023 -0.096 0.013 -0.081 0.005 -0.066 -0.001 -0.05 -0.004 -0.032 -0.004 -0.015 -0.001 -0.004 0.005 0.009 0.011 0.015 0.017 0.016 0.021 0.015 0.02 0.01 0.015 0.005 0.007 0.002 -0.005 0 -0.016 0.001 -0.028 0.005 -0.041 0.012 -0.05 0.02 -0.06 0.031 -0.068 0.041 -0.075 0.054 -0.079 0.067 -0.084 0.081 -0.087 0.095 0 0zm-5.645 9.042l-1.469 -0.309 0 0 0.091 -0.386 0.107 -0.385 0.123 -0.384 0.138 -0.381 0.151 -0.38 0.164 -0.377 0.174 -0.373 0.185 -0.371 0.194 -0.368 0.202 -0.362 0.209 -0.359 0.215 -0.353 0.22 -0.349 0.225 -0.342 0.227 -0.335 0.229 -0.329 0.23 -0.322 0.231 -0.313 0.229 -0.305 0.228 -0.296 0.225 -0.287 0.22 -0.276 0.216 -0.266 0.209 -0.254 0.203 -0.243 0.195 -0.231 0.185 -0.217 0.175 -0.203 0.164 -0.19 0.152 -0.175 0.139 -0.159 0.123 -0.142 1.136 0.98 -0.127 0.146 -0.138 0.159 -0.151 0.173 -0.162 0.187 -0.172 0.201 -0.181 0.212 -0.189 0.224 -0.196 0.235 -0.204 0.247 -0.208 0.257 -0.213 0.266 -0.216 0.276 -0.218 0.284 -0.22 0.292 -0.22 0.299 -0.22 0.307 -0.218 0.312 -0.214 0.318 -0.212 0.323 -0.207 0.326 -0.201 0.331 -0.195 0.333 -0.186 0.336 -0.178 0.337 -0.169 0.338 -0.157 0.337 -0.147 0.338 -0.133 0.335 -0.121 0.334 -0.106 0.33 -0.091 0.326 -0.075 0.323 0 0zm11.074 -6.625l1.347 0.659 0 0 -0.209 0.374 -0.26 0.387 -0.311 0.405 -0.356 0.425 -0.399 0.441 -0.438 0.457 -0.473 0.468 -0.505 0.476 -0.532 0.481 -0.555 0.481 -0.573 0.478 -0.587 0.47 -0.598 0.458 -0.604 0.443 -0.605 0.423 -0.604 0.399 -0.598 0.371 -0.587 0.339 -0.575 0.303 -0.56 0.263 -0.542 0.218 -0.525 0.169 -0.51 0.113 -0.5 0.048 -0.494 -0.038 -0.484 -0.154 -0.436 -0.297 -0.328 -0.425 -0.193 -0.503 -0.075 -0.551 0.021 -0.601 0.105 -0.664 1.469 0.309 -0.082 0.508 -0.014 0.386 0.034 0.258 0.051 0.138 0.042 0.055 0.051 0.033 0.11 0.032 0.199 0.013 0.283 -0.027 0.353 -0.079 0.41 -0.133 0.454 -0.183 0.491 -0.231 0.519 -0.274 0.542 -0.312 0.559 -0.347 0.57 -0.377 0.576 -0.402 0.577 -0.423 0.572 -0.439 0.565 -0.451 0.55 -0.458 0.532 -0.462 0.508 -0.46 0.48 -0.453 0.448 -0.442 0.409 -0.427 0.366 -0.405 0.317 -0.378 0.263 -0.343 0.202 -0.3 0.137 -0.242 0 0zm3.731 -9.401l1.018 1.102 0 0.001 -0.115 0.115 -0.116 0.135 -0.115 0.153 -0.114 0.172 -0.113 0.189 -0.11 0.206 -0.108 0.222 -0.106 0.237 -0.103 0.25 -0.101 0.263 -0.099 0.275 -0.097 0.285 -0.095 0.293 -0.093 0.303 -0.093 0.31 -0.092 0.317 -0.092 0.322 -0.092 0.327 -0.092 0.33 -0.093 0.334 -0.094 0.335 -0.097 0.336 -0.098 0.337 -0.102 0.336 -0.104 0.335 -0.108 0.333 -0.112 0.329 -0.118 0.327 -0.123 0.321 -0.129 0.316 -0.135 0.31 -0.143 0.304 -1.347 -0.659 0.123 -0.263 0.12 -0.274 0.115 -0.284 0.112 -0.293 0.108 -0.301 0.105 -0.307 0.103 -0.314 0.099 -0.32 0.098 -0.323 0.095 -0.327 0.094 -0.329 0.093 -0.331 0.093 -0.331 0.093 -0.332 0.092 -0.33 0.094 -0.329 0.095 -0.326 0.096 -0.322 0.099 -0.319 0.101 -0.314 0.105 -0.308 0.109 -0.302 0.113 -0.295 0.119 -0.287 0.124 -0.279 0.132 -0.27 0.14 -0.261 0.148 -0.251 0.16 -0.239 0.17 -0.227 0.185 -0.214 0.198 -0.199 0 0zm5.875 10.242l-0.958 -1.155 0 0 0.704 -0.621 0.62 -0.624 0.539 -0.623 0.463 -0.618 0.388 -0.611 0.318 -0.6 0.251 -0.587 0.187 -0.57 0.127 -0.551 0.07 -0.529 0.017 -0.506 -0.033 -0.479 -0.078 -0.451 -0.123 -0.42 -0.161 -0.388 -0.199 -0.355 -0.233 -0.319 -0.265 -0.284 -0.295 -0.247 -0.324 -0.207 -0.353 -0.168 -0.379 -0.125 -0.407 -0.079 -0.435 -0.032 -0.461 0.021 -0.486 0.078 -0.512 0.139 -0.533 0.205 -0.553 0.275 -0.571 0.35 -0.585 0.429 -0.597 0.512 -1.018 -1.102 0.68 -0.584 0.682 -0.499 0.68 -0.417 0.676 -0.337 0.671 -0.257 0.662 -0.18 0.649 -0.104 0.634 -0.029 0.613 0.045 0.589 0.115 0.558 0.183 0.523 0.249 0.484 0.309 0.439 0.367 0.391 0.418 0.339 0.466 0.285 0.509 0.228 0.546 0.168 0.58 0.107 0.609 0.043 0.634 -0.022 0.655 -0.089 0.673 -0.159 0.686 -0.228 0.697 -0.301 0.704 -0.375 0.708 -0.451 0.709 -0.528 0.706 -0.609 0.703 -0.69 0.694 -0.774 0.684 0 0zm-11.013 9.366l-1.119 -0.999 0 0 0.182 -0.197 0.202 -0.209 0.223 -0.222 0.243 -0.233 0.262 -0.246 0.279 -0.257 0.297 -0.268 0.313 -0.278 0.327 -0.287 0.341 -0.295 0.353 -0.304 0.365 -0.311 0.375 -0.317 0.383 -0.322 0.391 -0.326 0.398 -0.331 0.403 -0.334 0.407 -0.336 0.409 -0.337 0.412 -0.337 0.411 -0.337 0.411 -0.336 0.409 -0.333 0.405 -0.331 0.401 -0.327 0.394 -0.322 0.389 -0.317 0.379 -0.311 0.37 -0.303 0.359 -0.295 0.347 -0.286 0.334 -0.277 0.958 1.155 -0.336 0.278 -0.349 0.288 -0.361 0.297 -0.372 0.304 -0.38 0.311 -0.389 0.318 -0.395 0.322 -0.4 0.327 -0.406 0.331 -0.408 0.333 -0.41 0.335 -0.41 0.336 -0.41 0.337 -0.408 0.335 -0.406 0.335 -0.4 0.331 -0.395 0.329 -0.389 0.324 -0.38 0.32 -0.37 0.313 -0.36 0.307 -0.349 0.299 -0.335 0.291 -0.32 0.281 -0.305 0.271 -0.287 0.259 -0.27 0.247 -0.249 0.234 -0.227 0.219 -0.205 0.203 -0.179 0.186 -0.153 0.165 0 0zm-5.819 20.533l-1.499 0.068 0 0 0.001 -0.375 0.029 -0.423 0.054 -0.48 0.077 -0.535 0.098 -0.589 0.118 -0.638 0.137 -0.685 0.154 -0.726 0.17 -0.763 0.184 -0.794 0.198 -0.821 0.21 -0.843 0.221 -0.861 0.23 -0.873 0.238 -0.879 0.244 -0.881 0.25 -0.878 0.254 -0.871 0.256 -0.857 0.258 -0.839 0.257 -0.816 0.257 -0.788 0.253 -0.756 0.25 -0.717 0.245 -0.675 0.238 -0.628 0.231 -0.576 0.224 -0.522 0.217 -0.463 0.21 -0.404 0.209 -0.347 0.227 -0.297 1.119 0.999 -0.099 0.133 -0.146 0.242 -0.174 0.335 -0.193 0.414 -0.208 0.484 -0.22 0.547 -0.229 0.605 -0.237 0.655 -0.244 0.701 -0.249 0.74 -0.252 0.775 -0.254 0.805 -0.254 0.828 -0.253 0.847 -0.251 0.861 -0.247 0.868 -0.242 0.873 -0.236 0.87 -0.227 0.863 -0.218 0.85 -0.208 0.833 -0.195 0.81 -0.182 0.782 -0.166 0.748 -0.151 0.71 -0.133 0.665 -0.113 0.616 -0.094 0.559 -0.071 0.496 -0.048 0.426 -0.024 0.345 -0.001 0.247 0 0zm2.448 -1.272l1.308 0.734 0 0 -0.158 0.27 -0.163 0.255 -0.169 0.241 -0.173 0.226 -0.177 0.212 -0.18 0.198 -0.184 0.183 -0.188 0.169 -0.19 0.154 -0.193 0.14 -0.195 0.125 -0.197 0.111 -0.2 0.095 -0.201 0.08 -0.205 0.063 -0.206 0.047 -0.207 0.028 -0.209 0.009 -0.209 -0.012 -0.206 -0.035 -0.204 -0.058 -0.196 -0.082 -0.186 -0.107 -0.172 -0.129 -0.155 -0.151 -0.135 -0.168 -0.116 -0.185 -0.095 -0.196 -0.074 -0.207 -0.056 -0.215 -0.037 -0.224 -0.019 -0.231 1.499 -0.068 0.01 0.116 0.016 0.1 0.021 0.083 0.024 0.066 0.025 0.052 0.024 0.039 0.023 0.029 0.022 0.021 0.022 0.017 0.024 0.013 0.028 0.012 0.035 0.01 0.043 0.007 0.054 0.003 0.063 -0.003 0.075 -0.01 0.084 -0.019 0.094 -0.029 0.102 -0.041 0.109 -0.052 0.116 -0.065 0.12 -0.077 0.125 -0.091 0.129 -0.105 0.131 -0.118 0.133 -0.132 0.134 -0.147 0.135 -0.161 0.134 -0.175 0.133 -0.19 0.131 -0.205 0.129 -0.22 0 0zm6.146 -30.558l1.266 0.806 0 0 -0.519 0.871 -0.469 0.9 -0.423 0.927 -0.379 0.951 -0.338 0.974 -0.298 0.994 -0.263 1.012 -0.23 1.027 -0.199 1.04 -0.171 1.05 -0.147 1.057 -0.125 1.063 -0.106 1.066 -0.089 1.065 -0.077 1.063 -0.065 1.059 -0.059 1.051 -0.055 1.041 -0.053 1.029 -0.055 1.014 -0.06 0.998 -0.068 0.978 -0.079 0.957 -0.093 0.933 -0.111 0.907 -0.131 0.88 -0.156 0.85 -0.185 0.818 -0.216 0.784 -0.252 0.748 -0.294 0.711 -0.339 0.668 -1.308 -0.734 0.283 -0.559 0.252 -0.611 0.223 -0.662 0.196 -0.709 0.17 -0.754 0.146 -0.796 0.125 -0.836 0.106 -0.87 0.09 -0.905 0.077 -0.934 0.067 -0.961 0.059 -0.986 0.055 -1.008 0.053 -1.028 0.055 -1.044 0.059 -1.059 0.067 -1.07 0.077 -1.079 0.092 -1.086 0.108 -1.09 0.128 -1.092 0.151 -1.091 0.178 -1.088 0.207 -1.083 0.241 -1.074 0.276 -1.064 0.316 -1.051 0.359 -1.036 0.405 -1.017 0.454 -0.997 0.508 -0.972 0.563 -0.946 0 0zm32.284 -41.715l-1.496 -0.109 0 0 -0.009 -0.542 0.01 -0.038 0.243 0.116 -0.128 0.058 -0.462 0.312 -0.648 0.575 -0.782 0.811 -0.894 1.022 -0.99 1.21 -1.074 1.381 -1.148 1.532 -1.21 1.666 -1.262 1.781 -1.306 1.88 -1.339 1.96 -1.363 2.024 -1.376 2.069 -1.38 2.098 -1.375 2.11 -1.36 2.103 -1.336 2.08 -1.301 2.04 -1.257 1.981 -1.204 1.908 -1.141 1.814 -1.069 1.705 -0.987 1.579 -0.896 1.435 -0.794 1.273 -0.684 1.096 -0.564 0.901 -0.436 0.69 -1.266 -0.806 0.432 -0.683 0.562 -0.898 0.683 -1.094 0.795 -1.274 0.896 -1.435 0.987 -1.58 1.07 -1.707 1.142 -1.816 1.206 -1.91 1.259 -1.984 1.304 -2.043 1.338 -2.085 1.362 -2.107 1.379 -2.115 1.384 -2.104 1.381 -2.076 1.367 -2.031 1.346 -1.969 1.313 -1.89 1.271 -1.795 1.222 -1.681 1.162 -1.552 1.093 -1.406 1.018 -1.243 0.933 -1.067 0.846 -0.876 0.763 -0.677 0.712 -0.47 0.789 -0.22 0.886 0.377 0.358 0.796 0.025 0.9 0 0zm-11.677 33.911l-1.387 -0.571 0 0 0.357 -0.87 0.377 -0.926 0.396 -0.977 0.412 -1.025 0.427 -1.067 0.439 -1.105 0.449 -1.139 0.458 -1.169 0.464 -1.193 0.469 -1.214 0.471 -1.229 0.471 -1.242 0.47 -1.248 0.465 -1.251 0.46 -1.249 0.452 -1.243 0.443 -1.232 0.431 -1.217 0.417 -1.198 0.401 -1.173 0.383 -1.145 0.364 -1.111 0.341 -1.073 0.318 -1.032 0.292 -0.984 0.263 -0.932 0.233 -0.876 0.201 -0.813 0.167 -0.746 0.131 -0.674 0.093 -0.593 0.053 -0.503 1.496 0.109 -0.062 0.592 -0.102 0.655 -0.14 0.721 -0.175 0.783 -0.209 0.843 -0.239 0.9 -0.269 0.951 -0.297 1.002 -0.322 1.045 -0.346 1.086 -0.366 1.122 -0.387 1.154 -0.404 1.181 -0.42 1.206 -0.433 1.224 -0.444 1.238 -0.455 1.249 -0.462 1.254 -0.468 1.256 -0.47 1.253 -0.473 1.245 -0.473 1.234 -0.47 1.217 -0.465 1.197 -0.459 1.172 -0.451 1.142 -0.441 1.109 -0.427 1.07 -0.414 1.027 -0.397 0.981 -0.379 0.929 -0.358 0.873 0 0zm-4.674 16.539l-0.493 1.417 0 0 -0.368 -0.167 -0.327 -0.232 -0.273 -0.289 -0.214 -0.331 -0.155 -0.359 -0.105 -0.38 -0.063 -0.399 -0.027 -0.417 0.006 -0.437 0.034 -0.458 0.061 -0.479 0.086 -0.503 0.108 -0.524 0.13 -0.547 0.152 -0.57 0.171 -0.591 0.189 -0.613 0.207 -0.634 0.224 -0.653 0.239 -0.673 0.253 -0.691 0.267 -0.71 0.28 -0.725 0.291 -0.742 0.301 -0.757 0.31 -0.772 0.319 -0.784 0.327 -0.797 0.332 -0.809 0.338 -0.818 0.342 -0.829 0.345 -0.837 1.387 0.571 -0.345 0.838 -0.343 0.829 -0.337 0.818 -0.332 0.806 -0.325 0.795 -0.317 0.78 -0.308 0.766 -0.299 0.751 -0.287 0.734 -0.277 0.717 -0.262 0.697 -0.249 0.679 -0.234 0.657 -0.217 0.636 -0.2 0.612 -0.182 0.588 -0.162 0.562 -0.143 0.535 -0.121 0.508 -0.098 0.476 -0.076 0.445 -0.052 0.41 -0.028 0.374 -0.005 0.334 0.019 0.292 0.038 0.246 0.054 0.199 0.065 0.151 0.07 0.11 0.075 0.08 0.088 0.062 0.116 0.052 0 0zm14.121 -11.928l-0.074 1.498 0 0 -0.53 0.007 -0.517 0.071 -0.51 0.133 -0.504 0.193 -0.501 0.249 -0.496 0.304 -0.492 0.353 -0.487 0.4 -0.481 0.442 -0.473 0.479 -0.467 0.511 -0.459 0.536 -0.451 0.558 -0.443 0.574 -0.436 0.584 -0.428 0.589 -0.421 0.59 -0.415 0.584 -0.409 0.574 -0.404 0.559 -0.399 0.538 -0.396 0.514 -0.394 0.485 -0.394 0.45 -0.397 0.412 -0.403 0.368 -0.415 0.322 -0.436 0.265 -0.462 0.198 -0.493 0.113 -0.515 0.007 -0.512 -0.115 0.493 -1.417 0.176 0.039 0.175 -0.002 0.204 -0.049 0.24 -0.104 0.275 -0.169 0.302 -0.233 0.323 -0.297 0.339 -0.352 0.353 -0.404 0.365 -0.448 0.375 -0.487 0.386 -0.52 0.395 -0.547 0.405 -0.57 0.416 -0.585 0.426 -0.596 0.437 -0.602 0.449 -0.601 0.461 -0.597 0.475 -0.586 0.488 -0.572 0.503 -0.55 0.52 -0.525 0.537 -0.494 0.556 -0.457 0.578 -0.415 0.6 -0.366 0.624 -0.311 0.65 -0.247 0.674 -0.176 0.698 -0.096 0.716 -0.009 0 0zm-1.724 8.925l-1.249 -0.833 0 0 0.239 -0.356 0.241 -0.355 0.241 -0.353 0.24 -0.351 0.238 -0.347 0.234 -0.343 0.228 -0.338 0.223 -0.332 0.215 -0.327 0.207 -0.32 0.196 -0.31 0.184 -0.302 0.171 -0.293 0.158 -0.281 0.141 -0.268 0.124 -0.254 0.106 -0.238 0.086 -0.221 0.067 -0.201 0.045 -0.176 0.026 -0.15 0.009 -0.118 -0.005 -0.085 -0.01 -0.052 -0.011 -0.027 -0.01 -0.016 -0.019 -0.019 -0.045 -0.03 -0.082 -0.039 -0.13 -0.039 -0.18 -0.033 -0.228 -0.02 0.074 -1.498 0.354 0.031 0.33 0.062 0.31 0.094 0.289 0.135 0.263 0.18 0.226 0.228 0.176 0.265 0.117 0.287 0.063 0.294 0.018 0.294 -0.02 0.287 -0.048 0.285 -0.073 0.285 -0.095 0.285 -0.113 0.29 -0.13 0.294 -0.147 0.3 -0.16 0.305 -0.174 0.31 -0.186 0.317 -0.196 0.322 -0.207 0.328 -0.214 0.332 -0.222 0.336 -0.228 0.341 -0.232 0.343 -0.237 0.347 -0.238 0.348 -0.239 0.349 -0.239 0.351 -0.238 0.35 -0.234 0.35 0 0zm-0.534 3.768l0.678 1.338 0 0 -0.249 0.118 -0.245 0.097 -0.244 0.077 -0.243 0.055 -0.241 0.032 -0.242 0.006 -0.241 -0.023 -0.238 -0.056 -0.228 -0.09 -0.214 -0.127 -0.191 -0.158 -0.162 -0.185 -0.131 -0.205 -0.101 -0.217 -0.073 -0.227 -0.047 -0.234 -0.026 -0.24 -0.006 -0.247 0.013 -0.253 0.031 -0.261 0.048 -0.269 0.064 -0.277 0.081 -0.285 0.098 -0.295 0.114 -0.303 0.131 -0.312 0.147 -0.322 0.165 -0.33 0.183 -0.339 0.2 -0.349 0.218 -0.355 0.236 -0.365 1.249 0.833 -0.216 0.332 -0.197 0.323 -0.18 0.311 -0.161 0.3 -0.144 0.288 -0.127 0.276 -0.11 0.264 -0.094 0.249 -0.078 0.235 -0.062 0.22 -0.048 0.204 -0.033 0.186 -0.02 0.169 -0.008 0.149 0.003 0.129 0.012 0.107 0.016 0.084 0.02 0.062 0.019 0.041 0.014 0.023 0.01 0.011 0.007 0.006 0.007 0.004 0.017 0.007 0.031 0.007 0.051 0.004 0.072 -0.001 0.095 -0.013 0.115 -0.026 0.134 -0.043 0.152 -0.06 0.169 -0.08 0 0zm11.774 -14.516l1.478 0.258 0 0 -0.101 0.479 -0.137 0.493 -0.169 0.505 -0.201 0.517 -0.23 0.528 -0.257 0.538 -0.284 0.547 -0.308 0.555 -0.332 0.561 -0.352 0.566 -0.373 0.569 -0.391 0.571 -0.408 0.571 -0.423 0.569 -0.438 0.566 -0.45 0.562 -0.461 0.553 -0.47 0.546 -0.478 0.536 -0.485 0.524 -0.49 0.51 -0.493 0.496 -0.496 0.478 -0.496 0.459 -0.496 0.439 -0.494 0.417 -0.491 0.393 -0.486 0.368 -0.481 0.34 -0.475 0.311 -0.468 0.281 -0.46 0.248 -0.678 -1.338 0.395 -0.213 0.413 -0.248 0.427 -0.28 0.441 -0.312 0.451 -0.341 0.459 -0.368 0.466 -0.393 0.47 -0.416 0.473 -0.437 0.474 -0.458 0.473 -0.474 0.47 -0.491 0.467 -0.504 0.46 -0.515 0.453 -0.526 0.444 -0.535 0.434 -0.54 0.42 -0.544 0.407 -0.547 0.391 -0.547 0.373 -0.546 0.355 -0.542 0.335 -0.536 0.312 -0.529 0.288 -0.519 0.263 -0.507 0.236 -0.492 0.207 -0.476 0.177 -0.456 0.146 -0.435 0.114 -0.409 0.08 -0.38 0 0zm-4.994 7.394l-1.345 -0.663 0 0 0.237 -0.465 0.247 -0.453 0.255 -0.442 0.263 -0.429 0.269 -0.416 0.274 -0.404 0.277 -0.39 0.281 -0.376 0.282 -0.362 0.283 -0.348 0.282 -0.333 0.28 -0.318 0.278 -0.302 0.274 -0.286 0.269 -0.271 0.263 -0.254 0.257 -0.237 0.248 -0.22 0.24 -0.202 0.231 -0.185 0.221 -0.167 0.211 -0.15 0.2 -0.131 0.192 -0.115 0.187 -0.097 0.186 -0.081 0.203 -0.062 0.247 -0.032 0.342 0.058 0.38 0.283 0.165 0.406 -0.007 0.308 -1.478 -0.258 -0.001 0.152 0.123 0.295 0.29 0.218 0.208 0.038 0.071 -0.007 -0.013 0.005 -0.066 0.029 -0.102 0.053 -0.129 0.077 -0.151 0.1 -0.17 0.12 -0.186 0.141 -0.2 0.16 -0.213 0.18 -0.223 0.197 -0.233 0.215 -0.241 0.232 -0.247 0.249 -0.253 0.265 -0.257 0.28 -0.261 0.295 -0.262 0.31 -0.264 0.324 -0.263 0.337 -0.261 0.351 -0.258 0.362 -0.255 0.376 -0.25 0.387 -0.244 0.397 -0.236 0.409 -0.228 0.419 -0.219 0.428 0 0zm5.161 0.046l-0.173 1.49 0 0 -0.113 -0.005 -0.157 0.009 -0.194 0.025 -0.223 0.042 -0.247 0.058 -0.266 0.071 -0.283 0.082 -0.294 0.092 -0.304 0.098 -0.31 0.102 -0.314 0.104 -0.316 0.104 -0.317 0.101 -0.314 0.095 -0.311 0.088 -0.305 0.077 -0.301 0.066 -0.296 0.049 -0.292 0.031 -0.292 0.005 -0.296 -0.029 -0.302 -0.079 -0.303 -0.15 -0.273 -0.241 -0.198 -0.313 -0.105 -0.344 -0.027 -0.35 0.033 -0.353 0.08 -0.365 0.125 -0.389 0.168 -0.42 0.214 -0.46 1.345 0.663 -0.183 0.394 -0.134 0.335 -0.088 0.274 -0.046 0.209 -0.014 0.137 0.004 0.062 -0.002 -0.007 -0.029 -0.045 -0.041 -0.038 -0.013 -0.008 0.041 0.009 0.096 0.009 0.144 -0.003 0.184 -0.02 0.215 -0.036 0.24 -0.052 0.262 -0.067 0.278 -0.079 0.29 -0.088 0.301 -0.096 0.308 -0.101 0.314 -0.104 0.315 -0.104 0.316 -0.102 0.314 -0.097 0.311 -0.091 0.307 -0.082 0.301 -0.07 0.297 -0.055 0.291 -0.038 0.29 -0.015 0.292 0.015 0 0zm-2.962 7.724l-1.367 -0.618 0 0 0.141 -0.293 0.157 -0.293 0.169 -0.292 0.182 -0.291 0.191 -0.29 0.199 -0.288 0.205 -0.287 0.21 -0.285 0.213 -0.282 0.215 -0.278 0.214 -0.275 0.212 -0.269 0.208 -0.263 0.203 -0.257 0.195 -0.249 0.185 -0.241 0.175 -0.231 0.161 -0.22 0.146 -0.207 0.129 -0.193 0.108 -0.176 0.088 -0.156 0.064 -0.131 0.038 -0.099 0.017 -0.058 0.001 -0.003 0.008 0.059 0.041 0.103 0.075 0.093 0.063 0.044 0.006 0.003 -0.063 -0.011 0.173 -1.49 0.281 0.053 0.279 0.106 0.268 0.183 0.217 0.268 0.122 0.312 0.03 0.3 -0.029 0.268 -0.065 0.243 -0.089 0.23 -0.108 0.222 -0.124 0.223 -0.14 0.226 -0.153 0.229 -0.165 0.235 -0.176 0.24 -0.185 0.245 -0.194 0.251 -0.2 0.256 -0.204 0.259 -0.208 0.264 -0.21 0.266 -0.209 0.267 -0.207 0.27 -0.205 0.269 -0.198 0.269 -0.191 0.267 -0.183 0.265 -0.171 0.26 -0.159 0.256 -0.145 0.249 -0.129 0.242 -0.112 0.231 0 0zm6.649 -6.711l1.186 0.919 0 0 -0.222 0.275 -0.246 0.29 -0.269 0.302 -0.289 0.314 -0.309 0.324 -0.326 0.331 -0.34 0.338 -0.352 0.341 -0.362 0.343 -0.369 0.342 -0.374 0.34 -0.378 0.336 -0.378 0.329 -0.375 0.319 -0.372 0.309 -0.365 0.296 -0.357 0.28 -0.345 0.263 -0.334 0.244 -0.318 0.222 -0.304 0.201 -0.287 0.175 -0.273 0.15 -0.263 0.124 -0.265 0.095 -0.299 0.056 -0.389 -0.039 -0.44 -0.289 -0.202 -0.453 0.002 -0.369 0.077 -0.31 0.121 -0.305 1.367 0.618 -0.066 0.164 -0.016 0.06 -0.003 -0.093 -0.124 -0.269 -0.283 -0.19 -0.159 -0.021 0.001 -0.002 0.097 -0.036 0.159 -0.075 0.203 -0.112 0.237 -0.145 0.265 -0.175 0.289 -0.202 0.309 -0.226 0.325 -0.248 0.339 -0.266 0.349 -0.283 0.358 -0.297 0.363 -0.309 0.365 -0.318 0.366 -0.324 0.363 -0.33 0.357 -0.332 0.35 -0.332 0.34 -0.329 0.327 -0.324 0.311 -0.317 0.293 -0.307 0.272 -0.294 0.248 -0.28 0.222 -0.261 0.192 -0.238 0 0zm12.999 -17.95l1.206 0.892 0 0 -0.344 0.467 -0.365 0.497 -0.384 0.526 -0.402 0.552 -0.417 0.576 -0.432 0.597 -0.445 0.615 -0.455 0.631 -0.464 0.645 -0.471 0.656 -0.477 0.664 -0.481 0.671 -0.483 0.674 -0.484 0.675 -0.483 0.674 -0.481 0.67 -0.475 0.663 -0.47 0.655 -0.462 0.644 -0.453 0.629 -0.441 0.614 -0.429 0.595 -0.414 0.574 -0.398 0.55 -0.381 0.524 -0.36 0.495 -0.34 0.465 -0.317 0.432 -0.293 0.395 -0.267 0.358 -0.24 0.318 -0.211 0.276 -1.186 -0.919 0.203 -0.266 0.234 -0.31 0.263 -0.352 0.289 -0.391 0.315 -0.428 0.338 -0.462 0.359 -0.493 0.379 -0.523 0.397 -0.548 0.414 -0.573 0.427 -0.594 0.441 -0.612 0.452 -0.63 0.462 -0.643 0.47 -0.654 0.475 -0.663 0.48 -0.67 0.483 -0.674 0.484 -0.675 0.484 -0.675 0.481 -0.671 0.478 -0.664 0.472 -0.657 0.464 -0.646 0.456 -0.631 0.445 -0.617 0.433 -0.598 0.418 -0.577 0.404 -0.554 0.386 -0.529 0.367 -0.5 0.346 -0.47 0 0zm13.296 -24.024l1.425 0.468 0 0 -0.277 0.815 -0.301 0.827 -0.324 0.837 -0.344 0.846 -0.363 0.853 -0.381 0.859 -0.397 0.864 -0.413 0.867 -0.426 0.867 -0.438 0.868 -0.449 0.867 -0.459 0.863 -0.466 0.858 -0.472 0.852 -0.478 0.845 -0.481 0.835 -0.484 0.825 -0.484 0.811 -0.484 0.798 -0.482 0.783 -0.478 0.765 -0.474 0.746 -0.467 0.726 -0.46 0.705 -0.45 0.681 -0.44 0.657 -0.428 0.629 -0.415 0.602 -0.401 0.573 -0.384 0.541 -0.367 0.508 -0.348 0.475 -1.206 -0.892 0.341 -0.465 0.36 -0.499 0.378 -0.532 0.394 -0.564 0.409 -0.594 0.423 -0.622 0.435 -0.648 0.445 -0.674 0.455 -0.696 0.462 -0.719 0.468 -0.738 0.473 -0.756 0.477 -0.774 0.478 -0.789 0.479 -0.803 0.478 -0.814 0.475 -0.825 0.472 -0.834 0.466 -0.84 0.46 -0.847 0.451 -0.85 0.442 -0.853 0.431 -0.853 0.418 -0.852 0.405 -0.85 0.389 -0.846 0.372 -0.839 0.354 -0.832 0.335 -0.822 0.313 -0.811 0.291 -0.799 0.267 -0.784 0 0zm-2.18 0.169l-1.346 -0.663 0 0 0.406 -0.81 0.393 -0.756 0.378 -0.7 0.364 -0.647 0.35 -0.593 0.335 -0.539 0.32 -0.488 0.306 -0.437 0.293 -0.386 0.28 -0.338 0.271 -0.292 0.267 -0.247 0.272 -0.205 0.295 -0.162 0.346 -0.102 0.411 0.01 0.401 0.178 0.281 0.291 0.16 0.317 0.087 0.322 0.042 0.337 0.011 0.363 -0.017 0.396 -0.043 0.434 -0.067 0.475 -0.093 0.517 -0.117 0.561 -0.143 0.604 -0.169 0.648 -0.196 0.693 -0.223 0.737 -0.25 0.781 -1.425 -0.468 0.243 -0.759 0.215 -0.712 0.188 -0.666 0.161 -0.617 0.135 -0.57 0.109 -0.519 0.084 -0.469 0.059 -0.417 0.036 -0.361 0.013 -0.304 -0.007 -0.239 -0.02 -0.167 -0.022 -0.084 0.007 0.009 0.085 0.085 0.162 0.071 0.13 0.006 0.024 -0.005 -0.067 0.038 -0.129 0.098 -0.172 0.161 -0.206 0.221 -0.232 0.28 -0.257 0.339 -0.277 0.396 -0.298 0.452 -0.315 0.509 -0.334 0.566 -0.35 0.622 -0.366 0.678 -0.382 0.735 -0.397 0.792 0 0zm-17.653 40.421l-1.397 -0.548 0 0 0.272 -0.688 0.317 -0.787 0.358 -0.88 0.397 -0.967 0.434 -1.048 0.467 -1.124 0.499 -1.191 0.527 -1.254 0.553 -1.311 0.577 -1.36 0.597 -1.404 0.616 -1.442 0.631 -1.472 0.644 -1.498 0.655 -1.516 0.662 -1.529 0.667 -1.535 0.669 -1.535 0.67 -1.529 0.666 -1.516 0.661 -1.498 0.653 -1.472 0.642 -1.441 0.629 -1.404 0.613 -1.36 0.595 -1.31 0.573 -1.253 0.55 -1.192 0.523 -1.123 0.495 -1.048 0.463 -0.968 0.429 -0.881 1.346 0.663 -0.424 0.871 -0.46 0.958 -0.49 1.042 -0.521 1.117 -0.548 1.187 -0.571 1.249 -0.593 1.307 -0.611 1.356 -0.628 1.401 -0.641 1.438 -0.652 1.47 -0.66 1.495 -0.666 1.514 -0.668 1.527 -0.669 1.533 -0.666 1.534 -0.661 1.527 -0.654 1.515 -0.643 1.495 -0.631 1.472 -0.615 1.439 -0.596 1.403 -0.576 1.358 -0.553 1.308 -0.526 1.252 -0.497 1.189 -0.467 1.12 -0.432 1.045 -0.395 0.963 -0.356 0.876 -0.314 0.78 -0.269 0.68 0 0zm-5.961 9.646l-0.28 -1.474 0 0 -0.028 0.007 0.004 -0.001 0.028 -0.015 0.049 -0.032 0.066 -0.048 0.078 -0.064 0.091 -0.082 0.101 -0.1 0.111 -0.117 0.12 -0.135 0.129 -0.153 0.135 -0.172 0.143 -0.19 0.151 -0.209 0.157 -0.229 0.163 -0.248 0.17 -0.268 0.176 -0.288 0.182 -0.309 0.187 -0.33 0.192 -0.351 0.199 -0.373 0.203 -0.395 0.208 -0.418 0.213 -0.44 0.218 -0.464 0.222 -0.488 0.227 -0.512 0.231 -0.536 0.236 -0.561 0.239 -0.587 0.243 -0.612 1.397 0.548 -0.248 0.624 -0.245 0.6 -0.241 0.575 -0.237 0.55 -0.233 0.526 -0.23 0.502 -0.225 0.48 -0.221 0.456 -0.216 0.434 -0.212 0.413 -0.207 0.39 -0.203 0.37 -0.199 0.349 -0.193 0.329 -0.189 0.31 -0.183 0.29 -0.179 0.271 -0.174 0.253 -0.169 0.236 -0.164 0.218 -0.16 0.202 -0.155 0.185 -0.151 0.17 -0.146 0.154 -0.143 0.141 -0.14 0.127 -0.14 0.114 -0.138 0.101 -0.14 0.089 -0.148 0.078 -0.157 0.063 -0.175 0.046 0 0zm1.199 -8.089l1.097 1.024 0 0 -0.092 0.107 -0.099 0.134 -0.105 0.16 -0.109 0.183 -0.109 0.202 -0.11 0.221 -0.109 0.235 -0.106 0.249 -0.105 0.26 -0.101 0.268 -0.098 0.275 -0.093 0.28 -0.09 0.283 -0.084 0.283 -0.079 0.283 -0.073 0.279 -0.068 0.275 -0.06 0.267 -0.054 0.258 -0.047 0.247 -0.039 0.234 -0.031 0.217 -0.024 0.199 -0.014 0.177 -0.007 0.152 0 0.12 0.006 0.081 0.004 0.027 -0.017 -0.045 -0.096 -0.138 -0.26 -0.162 -0.307 -0.02 0.28 1.474 -0.434 -0.026 -0.365 -0.231 -0.178 -0.265 -0.079 -0.228 -0.037 -0.207 -0.016 -0.203 -0.001 -0.208 0.009 -0.218 0.02 -0.23 0.028 -0.243 0.036 -0.255 0.045 -0.266 0.052 -0.275 0.06 -0.285 0.066 -0.293 0.073 -0.299 0.08 -0.303 0.085 -0.305 0.092 -0.307 0.097 -0.308 0.102 -0.305 0.107 -0.302 0.112 -0.297 0.117 -0.291 0.121 -0.282 0.127 -0.274 0.13 -0.263 0.136 -0.251 0.142 -0.239 0.148 -0.225 0.157 -0.21 0.167 -0.195 0 0zm29.563 -10.665l0.14 1.494 -1.303 0.14 -1.298 0.174 -1.292 0.206 -1.283 0.236 -1.273 0.263 -1.259 0.289 -1.244 0.312 -1.226 0.333 -1.207 0.352 -1.185 0.368 -1.161 0.382 -1.135 0.394 -1.106 0.403 -1.076 0.411 -1.043 0.415 -1.008 0.419 -0.972 0.419 -0.931 0.417 -0.891 0.413 -0.847 0.406 -0.801 0.398 -0.752 0.387 -0.703 0.373 -0.65 0.357 -0.595 0.339 -0.537 0.318 -0.478 0.295 -0.415 0.268 -0.348 0.239 -0.278 0.204 -0.2 0.162 -0.109 0.103 -1.097 -1.024 0.222 -0.211 0.27 -0.219 0.325 -0.24 0.385 -0.263 0.444 -0.288 0.503 -0.31 0.56 -0.332 0.616 -0.351 0.669 -0.367 0.721 -0.383 0.772 -0.396 0.818 -0.407 0.865 -0.415 0.909 -0.421 0.95 -0.426 0.99 -0.427 1.028 -0.426 1.063 -0.424 1.096 -0.418 1.128 -0.412 1.158 -0.401 1.184 -0.39 1.21 -0.376 1.232 -0.359 1.254 -0.34 1.273 -0.319 1.289 -0.296 1.305 -0.27 1.317 -0.243 1.328 -0.211 1.336 -0.179 1.343 -0.145zm0 0c0.413,-0.038 0.779,0.265 0.817,0.678 0.038,0.412 -0.265,0.778 -0.677,0.816l-0.14 -1.494z"/>
   </g>
   <g>
    <path class="fil0" d="M49.314 55.313c-0.412,0.04 -0.779,-0.262 -0.819,-0.674 -0.041,-0.412 0.261,-0.779 0.673,-0.82l0.146 1.494zm1.599 -0.846l-1.098 1.022 -0.016 -0.016 -0.016 -0.014 -0.017 -0.014 -0.017 -0.013 -0.017 -0.012 -0.019 -0.012 -0.02 -0.011 -0.02 -0.01 -0.021 -0.01 -0.022 -0.009 -0.022 -0.008 -0.022 -0.007 -0.022 -0.007 -0.025 -0.007 -0.024 -0.005 -0.021 -0.005 -0.024 -0.004 -0.021 -0.003 -0.02 -0.003 -0.021 -0.002 -0.021 -0.002 -0.019 -0.001 -0.012 -0.001 -0.014 0 -0.013 0 -0.012 0 -0.012 0 0.003 0 -0.002 0 -0.015 0.001 0.008 0 0.015 -0.001 -0.146 -1.494 0.02 -0.001 0.018 -0.002 0.005 0 0.024 -0.001 0.035 -0.002 0.027 0 0.032 0 0.037 0 0.041 0.001 0.049 0.002 0.045 0.003 0.049 0.005 0.053 0.005 0.056 0.007 0.059 0.009 0.059 0.011 0.064 0.013 0.064 0.015 0.065 0.018 0.069 0.02 0.072 0.024 0.071 0.027 0.072 0.03 0.074 0.034 0.075 0.038 0.074 0.042 0.074 0.046 0.076 0.052 0.073 0.056 0.073 0.06 0.071 0.066 0.069 0.07zm0 0c0.282,0.303 0.265,0.778 -0.038,1.06 -0.303,0.282 -0.778,0.265 -1.06,-0.038l1.098 -1.022z"/>
   </g>
   <g>
    <path class="fil0" d="M177.298 80.637c0.277,-0.307 0.752,-0.331 1.059,-0.053 0.307,0.278 0.331,0.752 0.053,1.06l-1.112 -1.007zm0.685 1.621l-1.452 -0.379 0.014 -0.051 0.014 -0.045 0.017 -0.049 0.017 -0.045 0.017 -0.044 0.02 -0.046 0.02 -0.044 0.021 -0.044 0.021 -0.041 0.021 -0.04 0.022 -0.04 0.024 -0.041 0.024 -0.039 0.024 -0.039 0.025 -0.039 0.024 -0.036 0.025 -0.038 0.027 -0.038 0.026 -0.037 0.026 -0.035 0.026 -0.036 0.028 -0.037 0.027 -0.035 0.028 -0.034 0.029 -0.036 0.028 -0.035 0.027 -0.032 0.028 -0.033 0.03 -0.035 0.029 -0.033 0.028 -0.032 0.03 -0.033 1.112 1.007 -0.022 0.024 -0.023 0.026 -0.021 0.025 -0.02 0.023 -0.022 0.026 -0.022 0.026 -0.021 0.025 -0.018 0.023 -0.02 0.025 -0.019 0.024 -0.017 0.023 -0.018 0.024 -0.017 0.023 -0.016 0.023 -0.015 0.021 -0.014 0.021 -0.016 0.024 -0.013 0.02 -0.012 0.02 -0.011 0.019 -0.01 0.017 -0.01 0.019 -0.01 0.017 -0.009 0.017 -0.006 0.014 -0.006 0.013 -0.005 0.011 -0.004 0.012 -0.004 0.01 -0.003 0.007 -0.002 0.009 -0.001 0.003zm0 0c-0.105,0.401 -0.515,0.641 -0.916,0.537 -0.4,-0.105 -0.641,-0.515 -0.536,-0.916l1.452 0.379z"/>
   </g>
  </g>
 </g>
</svg>
