<?xml version="1.0" encoding="UTF-8"?>
<!DOCTYPE svg PUBLIC "-//W3C//DTD SVG 1.1//EN" "http://www.w3.org/Graphics/SVG/1.1/DTD/svg11.dtd">
<!-- Creator: CorelDRAW 2019 (64-Bit) -->
<svg xmlns="http://www.w3.org/2000/svg" xml:space="preserve" width="200px" height="100px" version="1.1" style="shape-rendering:geometricPrecision; text-rendering:geometricPrecision; image-rendering:optimizeQuality; fill-rule:evenodd; clip-rule:evenodd"
viewBox="0 0 200 100"
 xmlns:xlink="http://www.w3.org/1999/xlink"
 xmlns:xodm="http://www.corel.com/coreldraw/odm/2003">
 <defs>
  <style type="text/css">
   <![CDATA[
    .fil0 {fill:black;fill-rule:nonzero}
   ]]>
  </style>
 </defs>
 <g id="Layer_x0020_1">
  <metadata id="CorelCorpID_0Corel-Layer"/>
  <g id="_2204234301312">
   <g>
    <path class="fil0" d="M41.983 89.736c-0.406,0.079 -0.8,-0.186 -0.88,-0.592 -0.08,-0.407 0.185,-0.801 0.592,-0.881l0.288 1.473zm73.896 -18.48l0.29 1.472 0 0 -2.422 0.484 -2.405 0.495 -2.389 0.503 -2.374 0.512 -2.36 0.519 -2.346 0.527 -2.334 0.533 -2.324 0.539 -2.314 0.545 -2.305 0.548 -2.296 0.552 -2.291 0.555 -2.285 0.558 -2.28 0.559 -2.276 0.561 -2.275 0.561 -2.272 0.56 -2.272 0.559 -2.273 0.558 -2.275 0.555 -2.278 0.552 -2.281 0.548 -2.286 0.544 -2.293 0.539 -2.299 0.533 -2.308 0.526 -2.316 0.519 -2.327 0.512 -2.338 0.502 -2.35 0.493 -2.364 0.484 -2.378 0.473 -0.288 -1.473 2.37 -0.471 2.355 -0.482 2.343 -0.491 2.331 -0.502 2.321 -0.509 2.31 -0.518 2.303 -0.525 2.294 -0.532 2.288 -0.538 2.283 -0.543 2.278 -0.547 2.275 -0.552 2.273 -0.554 2.272 -0.558 2.271 -0.559 2.273 -0.56 2.274 -0.561 2.277 -0.561 2.282 -0.559 2.287 -0.558 2.292 -0.556 2.301 -0.553 2.308 -0.549 2.318 -0.546 2.328 -0.54 2.34 -0.534 2.352 -0.528 2.366 -0.521 2.38 -0.513 2.396 -0.505 2.413 -0.496 2.43 -0.486 0 0zm15.941 -3.339l1.381 -0.585 0 0 0.094 0.393 -0.047 0.407 -0.161 0.343 -0.22 0.264 -0.251 0.21 -0.278 0.179 -0.307 0.162 -0.339 0.151 -0.371 0.144 -0.404 0.14 -0.436 0.136 -0.469 0.134 -0.5 0.132 -0.529 0.131 -0.558 0.13 -0.584 0.13 -0.61 0.13 -0.635 0.13 -0.656 0.13 -0.677 0.131 -0.695 0.132 -0.713 0.132 -0.728 0.134 -0.742 0.135 -0.754 0.137 -0.764 0.138 -0.772 0.141 -0.779 0.143 -0.784 0.145 -0.787 0.148 -0.788 0.15 -0.788 0.154 -0.29 -1.472 0.794 -0.154 0.793 -0.152 0.791 -0.148 0.787 -0.146 0.781 -0.143 0.774 -0.141 0.764 -0.139 0.753 -0.137 0.74 -0.135 0.726 -0.133 0.709 -0.132 0.691 -0.131 0.67 -0.129 0.648 -0.128 0.624 -0.128 0.598 -0.128 0.57 -0.126 0.541 -0.126 0.508 -0.126 0.473 -0.126 0.438 -0.125 0.398 -0.124 0.356 -0.123 0.311 -0.121 0.262 -0.116 0.208 -0.109 0.147 -0.095 0.082 -0.067 0.018 -0.019 -0.024 0.056 -0.012 0.116 0.022 0.096 0 0zm-10.437 -1.717l0.355 -1.457 0 0 0.435 0.101 0.44 0.091 0.442 0.083 0.446 0.076 0.446 0.068 0.446 0.062 0.446 0.056 0.444 0.051 0.441 0.046 0.437 0.043 0.433 0.04 0.426 0.038 0.42 0.036 0.413 0.035 0.404 0.035 0.394 0.036 0.385 0.037 0.373 0.04 0.362 0.043 0.349 0.046 0.336 0.052 0.324 0.058 0.31 0.064 0.296 0.074 0.283 0.085 0.268 0.097 0.257 0.113 0.244 0.135 0.228 0.16 0.21 0.193 0.183 0.231 0.142 0.264 -1.381 0.585 -0.013 -0.022 -0.026 -0.033 -0.051 -0.046 -0.083 -0.058 -0.116 -0.063 -0.149 -0.066 -0.181 -0.065 -0.209 -0.062 -0.236 -0.059 -0.261 -0.055 -0.284 -0.05 -0.304 -0.047 -0.323 -0.043 -0.342 -0.04 -0.358 -0.038 -0.373 -0.037 -0.387 -0.035 -0.4 -0.035 -0.411 -0.035 -0.423 -0.036 -0.431 -0.038 -0.44 -0.041 -0.447 -0.044 -0.454 -0.047 -0.458 -0.053 -0.463 -0.058 -0.467 -0.065 -0.469 -0.071 -0.469 -0.08 -0.471 -0.088 -0.47 -0.098 -0.468 -0.109 0 0zm-4.118 -8.399l0.717 1.317 0 0 -0.393 0.228 -0.339 0.226 -0.286 0.22 -0.236 0.214 -0.188 0.203 -0.143 0.193 -0.103 0.179 -0.069 0.167 -0.041 0.156 -0.017 0.149 0.005 0.15 0.026 0.154 0.051 0.162 0.076 0.172 0.105 0.181 0.133 0.187 0.163 0.193 0.191 0.195 0.218 0.197 0.244 0.195 0.269 0.194 0.291 0.191 0.313 0.185 0.332 0.18 0.35 0.174 0.365 0.167 0.38 0.159 0.393 0.15 0.404 0.141 0.414 0.131 0.421 0.122 0.427 0.11 -0.355 1.457 -0.467 -0.12 -0.461 -0.133 -0.453 -0.144 -0.445 -0.155 -0.434 -0.166 -0.424 -0.177 -0.41 -0.187 -0.397 -0.198 -0.381 -0.206 -0.364 -0.217 -0.347 -0.227 -0.329 -0.236 -0.307 -0.247 -0.286 -0.257 -0.262 -0.269 -0.238 -0.282 -0.209 -0.295 -0.179 -0.31 -0.145 -0.326 -0.105 -0.34 -0.061 -0.354 -0.011 -0.362 0.041 -0.366 0.095 -0.361 0.146 -0.351 0.196 -0.339 0.241 -0.325 0.287 -0.311 0.33 -0.3 0.375 -0.289 0.42 -0.279 0.466 -0.27 0 0zm26.028 -10.268l0.455 1.429 0 0 -0.787 0.253 -0.811 0.266 -0.833 0.277 -0.852 0.289 -0.869 0.298 -0.885 0.308 -0.896 0.316 -0.907 0.323 -0.915 0.331 -0.921 0.336 -0.924 0.341 -0.926 0.346 -0.924 0.348 -0.921 0.351 -0.916 0.353 -0.907 0.354 -0.897 0.353 -0.885 0.353 -0.87 0.351 -0.854 0.348 -0.833 0.345 -0.812 0.341 -0.789 0.335 -0.762 0.33 -0.733 0.322 -0.703 0.315 -0.669 0.306 -0.635 0.296 -0.596 0.286 -0.555 0.275 -0.512 0.262 -0.467 0.248 -0.717 -1.317 0.49 -0.261 0.532 -0.272 0.573 -0.283 0.61 -0.293 0.647 -0.303 0.68 -0.311 0.713 -0.319 0.743 -0.327 0.77 -0.333 0.796 -0.339 0.819 -0.343 0.841 -0.348 0.859 -0.35 0.876 -0.354 0.89 -0.354 0.903 -0.356 0.912 -0.356 0.921 -0.355 0.926 -0.352 0.929 -0.351 0.93 -0.347 0.93 -0.343 0.926 -0.338 0.92 -0.332 0.912 -0.326 0.903 -0.318 0.889 -0.309 0.876 -0.301 0.859 -0.291 0.84 -0.279 0.818 -0.269 0.795 -0.255 0 0zm15.309 -3.337l-0.883 1.213 0.093 0.052 0.01 0.004 -0.057 -0.009 -0.108 -0.006 -0.15 0 -0.188 0.009 -0.22 0.018 -0.252 0.028 -0.28 0.038 -0.308 0.048 -0.335 0.057 -0.361 0.067 -0.387 0.077 -0.411 0.086 -0.435 0.096 -0.458 0.105 -0.482 0.114 -0.503 0.123 -0.526 0.133 -0.547 0.142 -0.568 0.15 -0.588 0.159 -0.609 0.169 -0.627 0.176 -0.648 0.186 -0.665 0.193 -0.684 0.203 -0.701 0.21 -0.719 0.22 -0.736 0.227 -0.752 0.235 -0.769 0.243 -0.455 -1.429 0.773 -0.245 0.758 -0.237 0.741 -0.229 0.724 -0.221 0.708 -0.212 0.689 -0.204 0.672 -0.196 0.654 -0.187 0.634 -0.179 0.616 -0.17 0.596 -0.161 0.576 -0.153 0.556 -0.144 0.534 -0.135 0.515 -0.126 0.492 -0.116 0.47 -0.108 0.449 -0.099 0.426 -0.089 0.403 -0.08 0.381 -0.071 0.358 -0.061 0.334 -0.052 0.312 -0.042 0.289 -0.032 0.268 -0.022 0.248 -0.011 0.23 0 0.218 0.013 0.214 0.033 0.223 0.065 0.248 0.134zm0 0c0.335,0.243 0.409,0.713 0.165,1.048 -0.243,0.334 -0.713,0.408 -1.048,0.165l0.883 -1.213z"/>
   </g>
   <g>
    <path class="fil0" d="M151.823 23.153c0.236,-0.341 0.703,-0.425 1.044,-0.189 0.34,0.235 0.425,0.703 0.189,1.043l-1.233 -0.854zm-29.898 25.293l1.484 0.217 0 0 -0.33 2.767 -0.12 2.252 0.073 1.752 0.239 1.261 0.344 0.776 0.361 0.358 0.409 0.116 0.626 -0.088 0.855 -0.368 1.026 -0.659 1.153 -0.93 1.254 -1.17 1.332 -1.383 1.394 -1.566 1.441 -1.721 1.472 -1.85 1.49 -1.95 1.495 -2.023 1.484 -2.071 1.462 -2.089 1.426 -2.083 1.376 -2.049 1.314 -1.988 1.237 -1.901 1.148 -1.787 1.046 -1.646 0.93 -1.479 0.802 -1.285 0.659 -1.065 0.504 -0.819 0.337 -0.547 0.175 -0.275 1.233 0.854 -0.134 0.213 -0.334 0.542 -0.505 0.82 -0.662 1.069 -0.803 1.289 -0.934 1.485 -1.049 1.652 -1.153 1.794 -1.243 1.909 -1.319 1.997 -1.383 2.059 -1.434 2.094 -1.472 2.104 -1.496 2.085 -1.507 2.042 -1.507 1.971 -1.493 1.876 -1.467 1.753 -1.428 1.605 -1.38 1.432 -1.322 1.233 -1.258 1.013 -1.195 0.766 -1.151 0.488 -1.138 0.144 -1.085 -0.327 -0.839 -0.814 -0.533 -1.179 -0.291 -1.53 -0.082 -1.927 0.125 -2.369 0.341 -2.85 0 0zm10.668 -34.09l1.309 0.732 0 0 -0.273 0.515 -0.297 0.611 -0.317 0.7 -0.336 0.78 -0.351 0.854 -0.366 0.923 -0.377 0.986 -0.386 1.041 -0.395 1.092 -0.402 1.138 -0.406 1.176 -0.409 1.211 -0.41 1.237 -0.41 1.261 -0.408 1.277 -0.404 1.288 -0.398 1.293 -0.391 1.293 -0.382 1.287 -0.371 1.276 -0.359 1.259 -0.345 1.235 -0.329 1.208 -0.312 1.173 -0.292 1.133 -0.272 1.088 -0.249 1.037 -0.225 0.979 -0.198 0.917 -0.171 0.847 -0.141 0.771 -0.111 0.689 -1.484 -0.217 0.116 -0.727 0.147 -0.8 0.176 -0.871 0.203 -0.936 0.228 -0.995 0.252 -1.051 0.275 -1.1 0.295 -1.144 0.314 -1.183 0.332 -1.217 0.347 -1.244 0.361 -1.267 0.374 -1.283 0.384 -1.294 0.393 -1.301 0.4 -1.3 0.407 -1.296 0.41 -1.284 0.412 -1.268 0.413 -1.247 0.412 -1.218 0.41 -1.186 0.405 -1.148 0.399 -1.104 0.392 -1.054 0.382 -1 0.372 -0.94 0.36 -0.875 0.347 -0.806 0.331 -0.73 0.317 -0.651 0.301 -0.57 0.001 0zm4.713 -0.106l-1.473 -0.286 0 0 0.061 -0.333 0.05 -0.314 0.04 -0.292 0.029 -0.272 0.018 -0.248 0.009 -0.224 -0.001 -0.197 -0.009 -0.169 -0.017 -0.137 -0.02 -0.102 -0.018 -0.06 -0.007 -0.017 0.018 0.025 0.061 0.054 0.099 0.051 0.106 0.02 0.069 -0.003 0.014 -0.004 -0.034 0.017 -0.073 0.047 -0.103 0.082 -0.126 0.115 -0.146 0.151 -0.163 0.186 -0.178 0.221 -0.193 0.255 -0.205 0.29 -0.219 0.325 -0.23 0.361 -0.242 0.395 -0.255 0.432 -0.266 0.469 -1.309 -0.732 0.276 -0.487 0.267 -0.453 0.257 -0.42 0.248 -0.387 0.238 -0.354 0.229 -0.323 0.22 -0.293 0.214 -0.264 0.206 -0.235 0.203 -0.209 0.2 -0.184 0.202 -0.159 0.211 -0.135 0.227 -0.109 0.254 -0.073 0.288 -0.019 0.303 0.059 0.275 0.141 0.213 0.195 0.151 0.215 0.103 0.223 0.07 0.227 0.047 0.232 0.029 0.242 0.014 0.253 0.002 0.268 -0.011 0.284 -0.023 0.299 -0.033 0.315 -0.045 0.332 -0.056 0.348 -0.066 0.365 0 0zm-17.769 34.858l-1.368 -0.615 0 0 0.251 -0.538 0.318 -0.648 0.379 -0.751 0.438 -0.848 0.49 -0.939 0.54 -1.022 0.583 -1.097 0.623 -1.164 0.657 -1.224 0.686 -1.276 0.712 -1.32 0.731 -1.356 0.747 -1.384 0.756 -1.404 0.762 -1.416 0.762 -1.421 0.757 -1.418 0.749 -1.406 0.734 -1.387 0.715 -1.36 0.691 -1.324 0.662 -1.281 0.628 -1.229 0.59 -1.171 0.546 -1.102 0.497 -1.027 0.443 -0.943 0.385 -0.849 0.319 -0.747 0.25 -0.631 0.173 -0.502 0.09 -0.344 1.473 0.286 -0.129 0.498 -0.201 0.584 -0.269 0.682 -0.334 0.78 -0.395 0.872 -0.451 0.96 -0.504 1.041 -0.551 1.113 -0.594 1.179 -0.632 1.236 -0.665 1.287 -0.693 1.329 -0.717 1.363 -0.736 1.39 -0.75 1.409 -0.759 1.42 -0.763 1.422 -0.762 1.418 -0.757 1.405 -0.746 1.384 -0.732 1.356 -0.711 1.319 -0.686 1.275 -0.656 1.222 -0.621 1.162 -0.582 1.094 -0.537 1.017 -0.487 0.932 -0.433 0.839 -0.373 0.738 -0.307 0.627 -0.236 0.505 0 0zm-3.456 4.478l-1.039 -1.083 0 0 0.112 -0.1 0.117 -0.088 0.118 -0.076 0.117 -0.062 0.111 -0.049 0.101 -0.037 0.09 -0.029 0.076 -0.022 0.062 -0.017 0.049 -0.014 0.039 -0.013 0.032 -0.012 0.028 -0.013 0.03 -0.016 0.036 -0.023 0.041 -0.03 0.05 -0.042 0.061 -0.058 0.07 -0.073 0.079 -0.093 0.089 -0.113 0.099 -0.136 0.108 -0.16 0.117 -0.185 0.127 -0.211 0.137 -0.24 0.146 -0.268 0.156 -0.299 0.166 -0.331 0.177 -0.365 0.187 -0.399 0.199 -0.436 1.368 0.615 -0.205 0.451 -0.195 0.415 -0.186 0.382 -0.176 0.351 -0.167 0.321 -0.16 0.293 -0.152 0.267 -0.145 0.241 -0.139 0.22 -0.134 0.198 -0.13 0.179 -0.126 0.16 -0.125 0.145 -0.123 0.13 -0.121 0.116 -0.123 0.103 -0.124 0.091 -0.121 0.077 -0.12 0.065 -0.117 0.053 -0.107 0.042 -0.097 0.032 -0.082 0.024 -0.068 0.02 -0.053 0.014 -0.037 0.012 -0.027 0.01 -0.017 0.007 -0.014 0.007 -0.015 0.01 -0.02 0.015 -0.03 0.027 0 0zm-3.264 4.439l-0.294 -1.471 0 0 -0.014 0.004 0.008 -0.005 0.027 -0.017 0.045 -0.035 0.059 -0.053 0.067 -0.07 0.074 -0.087 0.078 -0.101 0.082 -0.115 0.086 -0.127 0.086 -0.137 0.088 -0.146 0.089 -0.154 0.089 -0.16 0.09 -0.166 0.09 -0.17 0.089 -0.172 0.09 -0.175 0.089 -0.176 0.089 -0.176 0.088 -0.174 0.088 -0.173 0.089 -0.169 0.087 -0.166 0.088 -0.161 0.088 -0.156 0.089 -0.151 0.091 -0.144 0.092 -0.138 0.098 -0.133 0.104 -0.126 0.116 -0.122 1.039 1.083 -0.03 0.031 -0.044 0.055 -0.055 0.074 -0.062 0.092 -0.067 0.108 -0.072 0.121 -0.075 0.133 -0.078 0.144 -0.081 0.152 -0.083 0.161 -0.085 0.166 -0.087 0.171 -0.089 0.176 -0.091 0.178 -0.092 0.181 -0.094 0.182 -0.096 0.181 -0.097 0.181 -0.1 0.178 -0.101 0.176 -0.104 0.172 -0.107 0.169 -0.109 0.162 -0.112 0.158 -0.119 0.152 -0.124 0.144 -0.131 0.137 -0.141 0.128 -0.155 0.12 -0.173 0.106 -0.194 0.088 -0.216 0.062 0 0zm-0.588 -5.348l0.944 1.166 0 0 -0.065 0.058 -0.063 0.068 -0.063 0.079 -0.061 0.091 -0.058 0.101 -0.055 0.111 -0.05 0.12 -0.047 0.128 -0.04 0.133 -0.035 0.138 -0.03 0.143 -0.024 0.144 -0.017 0.145 -0.012 0.146 -0.005 0.143 -0.001 0.141 0.006 0.135 0.011 0.13 0.016 0.122 0.021 0.113 0.024 0.102 0.026 0.088 0.028 0.073 0.026 0.056 0.021 0.038 0.013 0.019 -0.001 -0.001 -0.02 -0.015 -0.04 -0.021 -0.054 -0.016 -0.059 -0.005 -0.042 0.004 0.294 1.471 -0.238 0.025 -0.245 -0.023 -0.229 -0.069 -0.204 -0.108 -0.173 -0.134 -0.142 -0.15 -0.116 -0.158 -0.096 -0.164 -0.079 -0.17 -0.066 -0.174 -0.053 -0.179 -0.044 -0.183 -0.034 -0.188 -0.025 -0.192 -0.017 -0.195 -0.008 -0.2 -0.001 -0.201 0.009 -0.204 0.016 -0.206 0.025 -0.207 0.034 -0.206 0.043 -0.206 0.052 -0.205 0.062 -0.204 0.073 -0.201 0.084 -0.197 0.095 -0.193 0.108 -0.187 0.122 -0.181 0.137 -0.174 0.153 -0.163 0.169 -0.151 0 0zm1.888 -1.184l1.29 0.765 0 0 -0.059 0.096 -0.06 0.09 -0.063 0.086 -0.066 0.083 -0.069 0.078 -0.071 0.072 -0.075 0.068 -0.079 0.063 -0.078 0.056 -0.078 0.049 -0.077 0.043 -0.074 0.037 -0.07 0.033 -0.066 0.028 -0.063 0.024 -0.06 0.024 -0.057 0.022 -0.054 0.02 -0.054 0.021 -0.052 0.021 -0.054 0.024 -0.058 0.026 -0.059 0.029 -0.061 0.031 -0.066 0.036 -0.071 0.041 -0.075 0.046 -0.08 0.053 -0.088 0.059 -0.092 0.067 -0.099 0.075 -0.106 0.084 -0.944 -1.166 0.131 -0.103 0.126 -0.096 0.121 -0.087 0.116 -0.08 0.112 -0.073 0.109 -0.067 0.104 -0.06 0.099 -0.055 0.097 -0.049 0.09 -0.044 0.085 -0.038 0.08 -0.035 0.077 -0.031 0.069 -0.027 0.063 -0.024 0.055 -0.021 0.047 -0.018 0.041 -0.017 0.033 -0.014 0.026 -0.011 0.019 -0.01 0.013 -0.007 0.011 -0.007 0.009 -0.007 0.007 -0.005 0.011 -0.01 0.014 -0.014 0.016 -0.018 0.021 -0.026 0.024 -0.034 0.029 -0.043 0.033 -0.053 0 0zm-2.674 2.285l-1.421 -0.482 0 0 0.132 -0.353 0.147 -0.33 0.162 -0.306 0.175 -0.282 0.188 -0.259 0.199 -0.237 0.209 -0.213 0.217 -0.191 0.225 -0.168 0.229 -0.146 0.232 -0.125 0.235 -0.104 0.235 -0.084 0.233 -0.065 0.231 -0.047 0.227 -0.03 0.222 -0.013 0.216 0.001 0.209 0.016 0.202 0.03 0.196 0.044 0.187 0.058 0.178 0.071 0.171 0.088 0.164 0.107 0.154 0.131 0.139 0.159 0.12 0.199 0.081 0.239 0.023 0.267 -0.047 0.268 -0.106 0.237 -1.29 -0.765 -0.036 0.082 -0.02 0.112 0.009 0.113 0.03 0.088 0.031 0.053 0.018 0.021 0 0.001 -0.02 -0.013 -0.04 -0.02 -0.058 -0.024 -0.071 -0.022 -0.085 -0.018 -0.096 -0.015 -0.105 -0.008 -0.113 -0.001 -0.119 0.007 -0.123 0.016 -0.128 0.026 -0.13 0.037 -0.132 0.047 -0.132 0.058 -0.134 0.072 -0.133 0.085 -0.133 0.099 -0.131 0.115 -0.13 0.133 -0.127 0.151 -0.124 0.172 -0.12 0.193 -0.115 0.216 -0.107 0.241 -0.1 0.268 0 0zm-4.09 5.872l0.144 -1.493 0 0 -0.011 0 -0.006 0 0.005 -0.001 0.017 -0.007 0.029 -0.014 0.042 -0.025 0.053 -0.037 0.061 -0.051 0.068 -0.062 0.074 -0.076 0.079 -0.09 0.084 -0.103 0.087 -0.115 0.09 -0.128 0.093 -0.14 0.095 -0.151 0.097 -0.163 0.099 -0.176 0.099 -0.186 0.102 -0.196 0.102 -0.208 0.103 -0.218 0.105 -0.228 0.104 -0.238 0.106 -0.248 0.106 -0.258 0.106 -0.268 0.107 -0.277 0.107 -0.285 0.107 -0.295 0.108 -0.304 0.107 -0.313 1.421 0.482 -0.112 0.324 -0.112 0.317 -0.111 0.308 -0.113 0.3 -0.112 0.291 -0.113 0.282 -0.112 0.274 -0.113 0.265 -0.112 0.257 -0.113 0.247 -0.113 0.238 -0.113 0.23 -0.114 0.22 -0.113 0.211 -0.114 0.202 -0.114 0.193 -0.116 0.184 -0.115 0.174 -0.117 0.166 -0.119 0.156 -0.12 0.148 -0.123 0.138 -0.126 0.131 -0.132 0.12 -0.135 0.111 -0.142 0.101 -0.15 0.089 -0.16 0.077 -0.171 0.061 -0.18 0.043 -0.189 0.02 -0.191 -0.006 0 0zm0.035 -4.112l1.211 0.886 0 0 -0.101 0.14 -0.096 0.138 -0.091 0.134 -0.085 0.13 -0.08 0.128 -0.075 0.124 -0.068 0.119 -0.064 0.116 -0.058 0.111 -0.051 0.105 -0.046 0.101 -0.039 0.094 -0.034 0.088 -0.028 0.081 -0.022 0.073 -0.015 0.064 -0.011 0.054 -0.006 0.046 -0.002 0.032 0 0.02 0 0.007 -0.001 -0.007 -0.006 -0.017 -0.013 -0.029 -0.02 -0.032 -0.028 -0.032 -0.03 -0.027 -0.026 -0.017 -0.023 -0.012 -0.008 -0.003 0.005 0.001 0.02 0.003 -0.144 1.493 -0.152 -0.021 -0.15 -0.036 -0.15 -0.053 -0.148 -0.074 -0.139 -0.092 -0.127 -0.113 -0.11 -0.13 -0.09 -0.141 -0.068 -0.149 -0.047 -0.149 -0.03 -0.149 -0.013 -0.145 -0.002 -0.142 0.01 -0.139 0.018 -0.136 0.026 -0.136 0.034 -0.135 0.04 -0.134 0.046 -0.135 0.052 -0.137 0.058 -0.137 0.062 -0.138 0.069 -0.141 0.074 -0.142 0.079 -0.144 0.084 -0.146 0.09 -0.148 0.094 -0.15 0.099 -0.152 0.104 -0.155 0.109 -0.155 0.113 -0.157 0 -0.001zm0.712 -0.776l-1.166 -0.944 0 0 0.151 -0.179 0.148 -0.161 0.145 -0.144 0.146 -0.129 0.149 -0.113 0.155 -0.098 0.17 -0.083 0.188 -0.063 0.214 -0.032 0.237 0.015 0.239 0.076 0.212 0.133 0.162 0.168 0.109 0.176 0.071 0.175 0.043 0.168 0.022 0.162 0.007 0.161 -0.005 0.158 -0.015 0.16 -0.025 0.161 -0.034 0.163 -0.044 0.167 -0.051 0.167 -0.06 0.171 -0.07 0.173 -0.077 0.174 -0.086 0.176 -0.096 0.177 -0.104 0.176 -0.113 0.176 -0.123 0.175 -1.211 -0.886 0.089 -0.126 0.082 -0.127 0.075 -0.127 0.068 -0.126 0.061 -0.124 0.054 -0.122 0.047 -0.117 0.039 -0.112 0.033 -0.108 0.026 -0.099 0.019 -0.091 0.013 -0.081 0.007 -0.068 0.001 -0.054 -0.001 -0.035 -0.002 -0.014 0.003 0.011 0.016 0.039 0.04 0.062 0.077 0.08 0.111 0.069 0.125 0.04 0.106 0.007 0.069 -0.01 0.027 -0.009 -0.005 0.003 -0.035 0.022 -0.056 0.043 -0.073 0.065 -0.09 0.088 -0.101 0.11 -0.113 0.135 0 0zm-4.287 1.539l1.379 0.591 0 0 -0.037 0.093 -0.019 0.057 -0.002 0.008 0.004 -0.058 -0.027 -0.16 -0.149 -0.251 -0.275 -0.176 -0.222 -0.031 -0.105 0.015 -0.028 0.009 0.018 -0.009 0.046 -0.026 0.068 -0.046 0.083 -0.059 0.094 -0.073 0.106 -0.085 0.114 -0.096 0.121 -0.107 0.127 -0.116 0.132 -0.124 0.137 -0.131 0.14 -0.138 0.142 -0.144 0.145 -0.149 0.145 -0.152 0.145 -0.157 0.145 -0.159 0.144 -0.161 0.143 -0.162 0.139 -0.163 0.136 -0.162 0.132 -0.161 1.166 0.944 -0.143 0.175 -0.147 0.174 -0.15 0.175 -0.152 0.174 -0.154 0.173 -0.155 0.17 -0.156 0.167 -0.156 0.164 -0.156 0.16 -0.154 0.156 -0.153 0.151 -0.15 0.144 -0.147 0.138 -0.144 0.131 -0.141 0.125 -0.138 0.116 -0.133 0.108 -0.13 0.1 -0.127 0.091 -0.126 0.082 -0.131 0.076 -0.14 0.068 -0.165 0.057 -0.221 0.036 -0.314 -0.043 -0.344 -0.218 -0.192 -0.327 -0.043 -0.27 0.015 -0.205 0.039 -0.174 0.054 -0.166 0.067 -0.169 0 0zm2.288 -3.16l0.556 -1.393 0 0 0.244 0.142 0.196 0.218 0.111 0.243 0.041 0.22 0 0.191 -0.022 0.167 -0.035 0.151 -0.046 0.147 -0.053 0.143 -0.059 0.143 -0.066 0.144 -0.071 0.146 -0.076 0.15 -0.081 0.152 -0.085 0.155 -0.089 0.158 -0.091 0.159 -0.094 0.162 -0.096 0.163 -0.096 0.164 -0.097 0.165 -0.097 0.164 -0.096 0.164 -0.094 0.162 -0.092 0.161 -0.089 0.158 -0.085 0.154 -0.081 0.152 -0.076 0.146 -0.07 0.14 -0.064 0.134 -0.056 0.126 -1.379 -0.591 0.072 -0.161 0.078 -0.163 0.082 -0.165 0.086 -0.166 0.09 -0.168 0.092 -0.169 0.095 -0.168 0.097 -0.169 0.098 -0.169 0.098 -0.168 0.098 -0.166 0.097 -0.164 0.096 -0.163 0.093 -0.159 0.09 -0.155 0.087 -0.151 0.082 -0.145 0.076 -0.14 0.071 -0.133 0.064 -0.125 0.056 -0.116 0.048 -0.105 0.039 -0.093 0.028 -0.077 0.018 -0.058 0.009 -0.035 0 -0.001 0.001 0.042 0.018 0.093 0.064 0.137 0.122 0.136 0.143 0.084 0 0zm-4.681 6.423l-1.462 -0.337 0 0 0.102 -0.398 0.122 -0.392 0.139 -0.385 0.156 -0.377 0.17 -0.37 0.183 -0.362 0.194 -0.353 0.206 -0.345 0.215 -0.335 0.222 -0.325 0.229 -0.316 0.234 -0.305 0.239 -0.295 0.241 -0.283 0.243 -0.272 0.244 -0.259 0.243 -0.247 0.241 -0.235 0.238 -0.22 0.235 -0.207 0.229 -0.193 0.224 -0.178 0.216 -0.164 0.209 -0.148 0.202 -0.133 0.194 -0.118 0.187 -0.102 0.185 -0.086 0.186 -0.071 0.204 -0.052 0.246 -0.019 0.321 0.066 -0.556 1.393 0.185 0.04 0.072 -0.004 -0.009 0.003 -0.059 0.023 -0.094 0.044 -0.12 0.065 -0.14 0.085 -0.156 0.103 -0.171 0.121 -0.182 0.138 -0.193 0.154 -0.2 0.168 -0.208 0.184 -0.212 0.197 -0.217 0.21 -0.218 0.222 -0.22 0.234 -0.219 0.245 -0.217 0.255 -0.215 0.265 -0.21 0.273 -0.204 0.282 -0.198 0.29 -0.19 0.296 -0.18 0.303 -0.17 0.308 -0.158 0.312 -0.146 0.316 -0.131 0.32 -0.117 0.322 -0.1 0.324 -0.084 0.325 0 0zm0.543 0.834l1.327 0.701 0 -0.001 -0.102 0.184 -0.109 0.178 -0.114 0.17 -0.12 0.163 -0.125 0.155 -0.131 0.147 -0.135 0.138 -0.139 0.129 -0.146 0.119 -0.151 0.108 -0.158 0.097 -0.168 0.085 -0.18 0.069 -0.193 0.05 -0.208 0.024 -0.224 -0.011 -0.229 -0.054 -0.219 -0.101 -0.197 -0.143 -0.161 -0.175 -0.126 -0.192 -0.093 -0.204 -0.067 -0.214 -0.046 -0.223 -0.027 -0.234 -0.012 -0.248 0.004 -0.264 0.018 -0.282 0.034 -0.302 0.048 -0.323 0.064 -0.346 0.08 -0.371 1.462 0.337 -0.071 0.329 -0.055 0.299 -0.041 0.27 -0.026 0.24 -0.014 0.212 -0.003 0.18 0.007 0.15 0.014 0.119 0.017 0.086 0.017 0.052 0.009 0.021 -0.005 -0.007 -0.025 -0.027 -0.045 -0.033 -0.056 -0.026 -0.052 -0.012 -0.038 -0.002 -0.012 0.001 0.01 -0.003 0.03 -0.012 0.046 -0.024 0.059 -0.036 0.069 -0.049 0.074 -0.062 0.08 -0.073 0.082 -0.084 0.083 -0.093 0.083 -0.103 0.081 -0.11 0.079 -0.118 0.075 -0.122 0.071 -0.128 0 -0.001zm-1.707 -1.601l-1.287 -0.771 0 0 0.16 -0.239 0.18 -0.213 0.201 -0.187 0.218 -0.156 0.233 -0.123 0.244 -0.089 0.249 -0.054 0.248 -0.02 0.243 0.011 0.236 0.038 0.228 0.061 0.217 0.083 0.207 0.1 0.198 0.117 0.188 0.131 0.178 0.144 0.168 0.157 0.157 0.167 0.146 0.178 0.136 0.188 0.123 0.197 0.11 0.206 0.097 0.213 0.081 0.222 0.064 0.23 0.045 0.235 0.026 0.241 0.002 0.246 -0.023 0.25 -0.05 0.25 -0.08 0.248 -0.109 0.241 -1.327 -0.701 0.037 -0.081 0.027 -0.084 0.017 -0.089 0.009 -0.094 -0.001 -0.099 -0.011 -0.107 -0.022 -0.111 -0.032 -0.114 -0.042 -0.116 -0.053 -0.117 -0.063 -0.116 -0.07 -0.113 -0.078 -0.109 -0.086 -0.103 -0.09 -0.096 -0.094 -0.088 -0.095 -0.078 -0.097 -0.067 -0.095 -0.056 -0.092 -0.045 -0.088 -0.033 -0.079 -0.022 -0.072 -0.012 -0.065 -0.003 -0.057 0.005 -0.05 0.01 -0.05 0.018 -0.053 0.028 -0.057 0.041 -0.063 0.059 -0.069 0.081 -0.073 0.11 0 0zm-8.811 7.362l0.772 -1.286 0 0 -0.176 -0.065 -0.075 -0.003 0.025 -0.007 0.094 -0.035 0.141 -0.069 0.177 -0.1 0.203 -0.129 0.226 -0.155 0.245 -0.18 0.26 -0.202 0.274 -0.221 0.284 -0.239 0.293 -0.254 0.301 -0.268 0.305 -0.28 0.307 -0.289 0.31 -0.297 0.308 -0.303 0.307 -0.306 0.302 -0.309 0.296 -0.309 0.289 -0.307 0.279 -0.303 0.268 -0.298 0.254 -0.291 0.241 -0.281 0.223 -0.268 0.204 -0.255 0.184 -0.239 0.16 -0.219 0.136 -0.197 0.107 -0.169 1.287 0.771 -0.143 0.226 -0.164 0.239 -0.184 0.251 -0.204 0.264 -0.221 0.276 -0.239 0.287 -0.253 0.297 -0.267 0.304 -0.279 0.311 -0.291 0.316 -0.299 0.318 -0.307 0.32 -0.313 0.319 -0.316 0.318 -0.32 0.314 -0.322 0.308 -0.32 0.301 -0.319 0.292 -0.315 0.282 -0.311 0.269 -0.304 0.255 -0.296 0.24 -0.288 0.223 -0.278 0.204 -0.269 0.186 -0.259 0.163 -0.25 0.142 -0.248 0.119 -0.252 0.093 -0.276 0.06 -0.328 -0.002 -0.376 -0.133 0 0zm2.877 -7.513l1.293 0.762 0 0 -0.081 0.132 -0.092 0.149 -0.104 0.165 -0.114 0.178 -0.124 0.193 -0.133 0.206 -0.14 0.216 -0.146 0.227 -0.151 0.236 -0.155 0.243 -0.157 0.25 -0.159 0.254 -0.159 0.257 -0.157 0.259 -0.154 0.258 -0.151 0.258 -0.145 0.255 -0.139 0.249 -0.131 0.244 -0.121 0.236 -0.111 0.225 -0.098 0.214 -0.085 0.199 -0.07 0.181 -0.054 0.16 -0.036 0.134 -0.02 0.102 -0.006 0.058 -0.001 0.003 -0.018 -0.062 -0.068 -0.113 -0.118 -0.101 -0.772 1.286 -0.266 -0.229 -0.169 -0.287 -0.074 -0.279 -0.014 -0.255 0.021 -0.237 0.044 -0.229 0.062 -0.229 0.078 -0.232 0.091 -0.237 0.104 -0.242 0.115 -0.249 0.125 -0.255 0.134 -0.26 0.141 -0.264 0.148 -0.267 0.154 -0.27 0.158 -0.27 0.161 -0.269 0.163 -0.269 0.163 -0.265 0.163 -0.26 0.161 -0.255 0.158 -0.248 0.153 -0.239 0.147 -0.229 0.141 -0.218 0.132 -0.204 0.122 -0.19 0.112 -0.174 0.098 -0.155 0.084 -0.135 0.067 -0.112 0 0zm12.667 -16.193l0.872 1.221 0 0 -0.169 0.136 -0.234 0.214 -0.282 0.282 -0.323 0.343 -0.359 0.398 -0.388 0.447 -0.417 0.491 -0.44 0.529 -0.461 0.565 -0.477 0.595 -0.492 0.62 -0.504 0.641 -0.511 0.658 -0.516 0.671 -0.518 0.678 -0.517 0.682 -0.513 0.681 -0.505 0.676 -0.496 0.666 -0.482 0.652 -0.466 0.634 -0.448 0.611 -0.424 0.585 -0.4 0.552 -0.372 0.517 -0.339 0.476 -0.306 0.432 -0.268 0.383 -0.227 0.327 -0.183 0.269 -0.134 0.202 -0.075 0.121 -1.293 -0.762 0.108 -0.174 0.149 -0.224 0.191 -0.281 0.233 -0.337 0.273 -0.388 0.309 -0.437 0.343 -0.481 0.374 -0.52 0.402 -0.556 0.427 -0.588 0.45 -0.614 0.468 -0.637 0.485 -0.656 0.498 -0.669 0.509 -0.68 0.515 -0.684 0.52 -0.686 0.522 -0.683 0.52 -0.675 0.515 -0.664 0.508 -0.647 0.497 -0.627 0.485 -0.603 0.468 -0.574 0.449 -0.541 0.428 -0.504 0.403 -0.463 0.378 -0.419 0.349 -0.371 0.32 -0.321 0.294 -0.269 0.277 -0.22 0 0zm-0.204 6.549l-0.934 -1.173 0 0 0.244 -0.206 0.23 -0.215 0.216 -0.223 0.202 -0.232 0.188 -0.237 0.175 -0.242 0.16 -0.245 0.145 -0.246 0.132 -0.246 0.118 -0.246 0.103 -0.241 0.089 -0.236 0.074 -0.229 0.06 -0.22 0.047 -0.209 0.032 -0.195 0.02 -0.18 0.006 -0.16 -0.004 -0.138 -0.013 -0.113 -0.018 -0.083 -0.017 -0.051 -0.007 -0.015 0.011 0.013 0.036 0.029 0.052 0.026 0.047 0.01 0.018 0.001 -0.026 0.005 -0.067 0.025 -0.105 0.054 -0.138 0.09 -0.872 -1.221 0.252 -0.164 0.256 -0.131 0.266 -0.097 0.279 -0.053 0.293 -0.001 0.294 0.066 0.27 0.133 0.226 0.187 0.171 0.218 0.122 0.233 0.084 0.239 0.054 0.244 0.029 0.249 0.007 0.257 -0.011 0.262 -0.029 0.27 -0.046 0.277 -0.063 0.284 -0.079 0.29 -0.096 0.294 -0.112 0.299 -0.129 0.302 -0.146 0.304 -0.162 0.304 -0.18 0.303 -0.197 0.302 -0.214 0.297 -0.233 0.293 -0.25 0.286 -0.268 0.278 -0.287 0.268 -0.305 0.256 0 0zm-21.199 16.588l-1.107 -1.012 0 0 0.638 -0.681 0.666 -0.68 0.69 -0.676 0.712 -0.673 0.732 -0.668 0.75 -0.663 0.764 -0.657 0.776 -0.651 0.786 -0.643 0.793 -0.634 0.797 -0.626 0.8 -0.615 0.799 -0.605 0.796 -0.593 0.791 -0.581 0.782 -0.567 0.772 -0.553 0.759 -0.538 0.743 -0.522 0.724 -0.505 0.704 -0.488 0.68 -0.469 0.654 -0.451 0.626 -0.429 0.593 -0.408 0.56 -0.386 0.523 -0.363 0.484 -0.339 0.441 -0.313 0.396 -0.286 0.346 -0.258 0.295 -0.228 0.934 1.173 -0.321 0.249 -0.366 0.273 -0.41 0.297 -0.45 0.32 -0.491 0.343 -0.527 0.366 -0.563 0.387 -0.595 0.41 -0.625 0.429 -0.653 0.449 -0.678 0.467 -0.7 0.486 -0.721 0.503 -0.738 0.519 -0.753 0.534 -0.766 0.548 -0.775 0.562 -0.783 0.575 -0.787 0.587 -0.79 0.597 -0.789 0.608 -0.787 0.616 -0.78 0.625 -0.773 0.633 -0.762 0.638 -0.749 0.644 -0.733 0.649 -0.714 0.652 -0.693 0.654 -0.67 0.656 -0.643 0.657 -0.614 0.655 0 0zm-16.205 12.424l0.054 -1.499 0 0 0.432 0.001 0.425 -0.026 0.421 -0.054 0.417 -0.081 0.415 -0.107 0.413 -0.134 0.414 -0.161 0.415 -0.186 0.417 -0.213 0.419 -0.239 0.422 -0.264 0.425 -0.29 0.429 -0.315 0.434 -0.339 0.438 -0.362 0.443 -0.386 0.449 -0.408 0.456 -0.43 0.462 -0.452 0.47 -0.472 0.477 -0.492 0.486 -0.511 0.495 -0.53 0.505 -0.547 0.515 -0.565 0.526 -0.581 0.538 -0.596 0.55 -0.612 0.563 -0.627 0.576 -0.639 0.591 -0.653 0.606 -0.666 1.107 1.012 -0.602 0.662 -0.588 0.65 -0.575 0.638 -0.562 0.625 -0.551 0.613 -0.539 0.599 -0.53 0.584 -0.519 0.57 -0.511 0.554 -0.503 0.538 -0.496 0.521 -0.489 0.505 -0.484 0.486 -0.479 0.467 -0.475 0.449 -0.472 0.429 -0.47 0.409 -0.468 0.387 -0.468 0.366 -0.469 0.344 -0.47 0.32 -0.473 0.296 -0.476 0.271 -0.48 0.246 -0.485 0.218 -0.491 0.19 -0.497 0.161 -0.503 0.13 -0.51 0.099 -0.517 0.066 -0.523 0.033 -0.53 -0.002 0 0zm29.217 -67.391l0.547 1.396 0 0 -1.468 0.703 -1.565 0.992 -1.643 1.264 -1.704 1.517 -1.75 1.749 -1.782 1.959 -1.801 2.148 -1.808 2.316 -1.802 2.463 -1.785 2.59 -1.757 2.697 -1.716 2.781 -1.664 2.847 -1.602 2.89 -1.526 2.914 -1.44 2.917 -1.343 2.899 -1.234 2.86 -1.113 2.801 -0.982 2.72 -0.839 2.618 -0.685 2.494 -0.52 2.348 -0.345 2.179 -0.16 1.986 0.032 1.765 0.227 1.518 0.416 1.247 0.595 0.965 0.775 0.698 0.997 0.455 1.282 0.196 -0.054 1.499 -1.646 -0.254 -1.398 -0.639 -1.11 -0.997 -0.802 -1.293 -0.515 -1.534 -0.262 -1.742 -0.036 -1.935 0.17 -2.115 0.361 -2.28 0.537 -2.429 0.704 -2.561 0.856 -2.673 0.999 -2.768 1.131 -2.843 1.25 -2.898 1.359 -2.935 1.456 -2.949 1.543 -2.945 1.618 -2.921 1.682 -2.877 1.735 -2.813 1.777 -2.728 1.809 -2.623 1.829 -2.5 1.838 -2.355 1.837 -2.191 1.826 -2.007 1.805 -1.804 1.776 -1.58 1.739 -1.339 1.698 -1.075 1.651 -0.788 0 0zm1.256 7.111l-1.105 -1.015 0 0 0.292 -0.33 0.266 -0.324 0.24 -0.318 0.217 -0.311 0.191 -0.304 0.169 -0.296 0.146 -0.286 0.124 -0.275 0.103 -0.264 0.082 -0.252 0.062 -0.238 0.044 -0.224 0.026 -0.208 0.01 -0.19 -0.004 -0.174 -0.018 -0.154 -0.029 -0.136 -0.037 -0.117 -0.044 -0.099 -0.049 -0.082 -0.052 -0.067 -0.057 -0.056 -0.063 -0.047 -0.071 -0.039 -0.082 -0.033 -0.098 -0.025 -0.115 -0.015 -0.134 -0.002 -0.153 0.013 -0.172 0.03 -0.19 0.051 -0.208 0.072 -0.547 -1.396 0.312 -0.11 0.307 -0.081 0.303 -0.054 0.299 -0.025 0.293 0.006 0.285 0.038 0.276 0.07 0.264 0.103 0.246 0.137 0.224 0.168 0.199 0.195 0.172 0.22 0.143 0.239 0.114 0.255 0.086 0.269 0.059 0.279 0.033 0.289 0.009 0.298 -0.017 0.305 -0.039 0.313 -0.062 0.319 -0.086 0.327 -0.109 0.333 -0.131 0.339 -0.156 0.345 -0.179 0.35 -0.202 0.355 -0.227 0.359 -0.252 0.364 -0.277 0.366 -0.303 0.369 -0.328 0.371 0 0zm-19.796 37.912l-1.499 0.052 0 0 0.012 -0.991 0.098 -1.049 0.177 -1.104 0.251 -1.156 0.32 -1.205 0.384 -1.25 0.444 -1.29 0.5 -1.326 0.552 -1.357 0.6 -1.384 0.643 -1.405 0.682 -1.422 0.717 -1.434 0.748 -1.44 0.775 -1.441 0.797 -1.438 0.817 -1.428 0.83 -1.415 0.841 -1.396 0.847 -1.371 0.849 -1.341 0.847 -1.307 0.84 -1.267 0.83 -1.221 0.817 -1.172 0.796 -1.115 0.775 -1.056 0.749 -0.991 0.717 -0.919 0.684 -0.844 0.646 -0.764 0.605 -0.68 1.105 1.015 -0.576 0.647 -0.624 0.738 -0.665 0.821 -0.702 0.9 -0.736 0.972 -0.762 1.04 -0.787 1.101 -0.806 1.157 -0.82 1.207 -0.832 1.254 -0.838 1.293 -0.84 1.328 -0.838 1.357 -0.833 1.381 -0.821 1.399 -0.807 1.413 -0.789 1.421 -0.765 1.423 -0.738 1.421 -0.706 1.412 -0.671 1.398 -0.631 1.379 -0.586 1.355 -0.539 1.324 -0.486 1.288 -0.429 1.246 -0.369 1.198 -0.303 1.144 -0.235 1.082 -0.163 1.016 -0.088 0.94 -0.011 0.857 0 0zm9.658 1.741l0.839 1.244 0 0 -0.512 0.326 -0.515 0.293 -0.517 0.261 -0.518 0.227 -0.517 0.196 -0.516 0.165 -0.513 0.134 -0.509 0.104 -0.503 0.076 -0.497 0.047 -0.49 0.02 -0.481 -0.007 -0.471 -0.032 -0.46 -0.058 -0.448 -0.083 -0.434 -0.107 -0.421 -0.13 -0.405 -0.153 -0.389 -0.175 -0.371 -0.197 -0.351 -0.218 -0.331 -0.239 -0.31 -0.259 -0.286 -0.279 -0.261 -0.299 -0.235 -0.317 -0.205 -0.335 -0.175 -0.351 -0.143 -0.367 -0.107 -0.381 -0.071 -0.393 -0.034 -0.402 1.499 -0.052 0.022 0.258 0.045 0.251 0.069 0.243 0.092 0.236 0.115 0.231 0.137 0.223 0.159 0.215 0.182 0.207 0.203 0.198 0.224 0.188 0.245 0.177 0.265 0.164 0.283 0.151 0.302 0.136 0.318 0.12 0.334 0.103 0.35 0.086 0.363 0.067 0.376 0.047 0.387 0.027 0.399 0.006 0.407 -0.016 0.417 -0.04 0.423 -0.064 0.431 -0.088 0.435 -0.114 0.44 -0.141 0.444 -0.167 0.446 -0.197 0.448 -0.225 0.448 -0.255 0.449 -0.286 0 0zm11.884 -14.736l1.43 0.452 0 0 -0.13 0.377 -0.156 0.395 -0.182 0.415 -0.206 0.434 -0.23 0.451 -0.252 0.468 -0.274 0.484 -0.295 0.497 -0.315 0.51 -0.333 0.522 -0.352 0.53 -0.368 0.539 -0.384 0.545 -0.399 0.549 -0.412 0.553 -0.425 0.555 -0.438 0.554 -0.448 0.552 -0.458 0.548 -0.467 0.543 -0.475 0.537 -0.481 0.528 -0.488 0.518 -0.493 0.505 -0.497 0.493 -0.499 0.476 -0.503 0.461 -0.503 0.441 -0.504 0.422 -0.504 0.399 -0.503 0.376 -0.501 0.351 -0.839 -1.244 0.461 -0.322 0.466 -0.349 0.472 -0.375 0.476 -0.397 0.478 -0.419 0.479 -0.439 0.478 -0.457 0.478 -0.473 0.475 -0.487 0.47 -0.5 0.466 -0.511 0.461 -0.519 0.452 -0.527 0.445 -0.533 0.435 -0.536 0.425 -0.538 0.413 -0.538 0.4 -0.537 0.387 -0.533 0.372 -0.528 0.356 -0.52 0.338 -0.512 0.321 -0.501 0.301 -0.489 0.281 -0.473 0.259 -0.457 0.237 -0.439 0.213 -0.417 0.187 -0.395 0.162 -0.368 0.134 -0.34 0.106 -0.307 0 0zm-2.932 -9.865l0.281 -1.473 0 0 0.524 0.12 0.494 0.157 0.463 0.19 0.431 0.223 0.4 0.254 0.368 0.283 0.335 0.31 0.303 0.332 0.272 0.354 0.24 0.371 0.211 0.387 0.183 0.4 0.156 0.412 0.131 0.421 0.108 0.428 0.086 0.435 0.065 0.439 0.046 0.444 0.028 0.445 0.012 0.445 -0.005 0.446 -0.018 0.443 -0.032 0.441 -0.044 0.437 -0.055 0.43 -0.066 0.424 -0.075 0.415 -0.083 0.405 -0.09 0.394 -0.097 0.383 -0.103 0.368 -0.107 0.354 -1.43 -0.452 0.097 -0.32 0.093 -0.335 0.089 -0.35 0.082 -0.36 0.076 -0.371 0.069 -0.379 0.059 -0.386 0.051 -0.391 0.04 -0.395 0.028 -0.397 0.017 -0.396 0.004 -0.396 -0.01 -0.391 -0.025 -0.387 -0.039 -0.38 -0.055 -0.372 -0.072 -0.362 -0.088 -0.35 -0.105 -0.338 -0.122 -0.323 -0.141 -0.307 -0.158 -0.291 -0.177 -0.274 -0.196 -0.255 -0.217 -0.238 -0.238 -0.22 -0.261 -0.201 -0.286 -0.182 -0.314 -0.162 -0.344 -0.142 -0.377 -0.119 -0.412 -0.095 0 0zm-12.032 35.762l-1.491 -0.164 0.073 -0.669 0.087 -0.809 0.102 -0.937 0.119 -1.055 0.135 -1.162 0.152 -1.257 0.17 -1.341 0.189 -1.416 0.208 -1.479 0.229 -1.531 0.249 -1.573 0.27 -1.603 0.294 -1.624 0.316 -1.634 0.339 -1.633 0.365 -1.621 0.39 -1.599 0.416 -1.566 0.444 -1.523 0.472 -1.47 0.501 -1.406 0.533 -1.332 0.565 -1.25 0.601 -1.155 0.639 -1.053 0.681 -0.941 0.731 -0.817 0.787 -0.68 0.851 -0.526 0.917 -0.348 0.973 -0.142 1.006 0.081 -0.281 1.473 -0.679 -0.054 -0.641 0.094 -0.628 0.24 -0.626 0.388 -0.624 0.541 -0.615 0.689 -0.601 0.83 -0.582 0.958 -0.559 1.077 -0.535 1.181 -0.509 1.276 -0.484 1.357 -0.459 1.428 -0.433 1.486 -0.407 1.534 -0.384 1.571 -0.358 1.597 -0.336 1.61 -0.312 1.614 -0.29 1.607 -0.268 1.588 -0.247 1.558 -0.226 1.519 -0.207 1.467 -0.187 1.406 -0.169 1.332 -0.151 1.249 -0.135 1.155 -0.117 1.05 -0.103 0.934 -0.087 0.808 -0.073 0.672zm0 0c-0.045,0.412 -0.416,0.709 -0.827,0.664 -0.412,-0.046 -0.709,-0.416 -0.664,-0.828l1.491 0.164z"/>
   </g>
  </g>
 </g>
</svg>
