<?xml version="1.0" encoding="UTF-8"?>
<!DOCTYPE svg PUBLIC "-//W3C//DTD SVG 1.1//EN" "http://www.w3.org/Graphics/SVG/1.1/DTD/svg11.dtd">
<!-- Creator: CorelDRAW 2019 (64-Bit) -->
<svg xmlns="http://www.w3.org/2000/svg" xml:space="preserve" width="200px" height="100px" version="1.1" style="shape-rendering:geometricPrecision; text-rendering:geometricPrecision; image-rendering:optimizeQuality; fill-rule:evenodd; clip-rule:evenodd"
viewBox="0 0 200 100"
 xmlns:xlink="http://www.w3.org/1999/xlink"
 xmlns:xodm="http://www.corel.com/coreldraw/odm/2003">
 <defs>
  <style type="text/css">
   <![CDATA[
    .str2 {stroke:black;stroke-width:1.5;stroke-linecap:round;stroke-linejoin:round;stroke-miterlimit:2.61313}
    .str0 {stroke:black;stroke-width:1.5;stroke-linecap:round;stroke-linejoin:round;stroke-miterlimit:2.61313}
    .str1 {stroke:black;stroke-width:1.5;stroke-linecap:round;stroke-linejoin:round;stroke-miterlimit:2.61313}
    .str4 {stroke:black;stroke-width:1.5;stroke-linecap:round;stroke-linejoin:round;stroke-miterlimit:2.61313}
    .str3 {stroke:black;stroke-width:1.5;stroke-linecap:round;stroke-linejoin:round;stroke-miterlimit:2.61313}
    .fil0 {fill:none}
   ]]>
  </style>
 </defs>
 <g id="Layer_x0020_1">
  <metadata id="CorelCorpID_0Corel-Layer"/>
  <g id="_2204184085520">
   <g>
    <path class="fil0 str0" d="M109.127 38.343c-2.747,2.155 -11.048,22.044 -4.052,21.241"/>
   </g>
   <g>
    <path class="fil0 str1" d="M107.64 55.663c0,0 -1.996,2.254 -2.264,3.664 -0.267,1.411 0.581,3.199 2.232,2.119 1.652,-1.081 2.25,-2.968 2.394,-3.976 0.143,-1.009 -1.567,-2.346 -2.362,-1.807z"/>
   </g>
   <g>
    <path class="fil0 str2" d="M111.659 64.348c1.553,-3.169 2.289,-6.829 -2.066,-5.352"/>
   </g>
   <g>
    <path class="fil0 str3" d="M100.763 60.515c0,0 -1.403,2.063 -2.802,2.853 -4.163,2.353 -1.749,-10.268 0.131,-10.54 5.466,-0.793 -6.788,24.234 -6.671,18.066 0.053,-2.788 2.978,-15.879 3.449,-17.848 2.857,-11.931 4.557,-17.132 -8.807,-11.144 -4.647,2.082 -47.901,21.815 -84.311,44.926"/>
   </g>
   <g>
    <path class="fil0 str4" d="M107.042 36.179c0,0 -5.884,-0.206 -15.779,5.61 -1.315,0.773 -21.034,12.509 -7.115,6.777 6.59,-2.715 18.678,-9.314 20.081,-10.139 1.746,-1.025 4.828,-3.777 6.807,-4.94 1.978,-1.164 5.015,-1.006 5.346,0.302 0.331,1.309 3.557,-1.998 7.788,-3.858 4.231,-1.861 13.047,-3.066 6.569,1.369 -6.478,4.435 -40.813,22.016 -51.483,27.099 -10.671,5.082 -56.694,29.754 -56.694,29.754 0,0 81.763,-45.302 175.686,-76.306"/>
   </g>
  </g>
 </g>
</svg>
