<?xml version="1.0" encoding="UTF-8"?>
<!DOCTYPE svg PUBLIC "-//W3C//DTD SVG 1.1//EN" "http://www.w3.org/Graphics/SVG/1.1/DTD/svg11.dtd">
<!-- Creator: CorelDRAW 2019 (64-Bit) -->
<svg xmlns="http://www.w3.org/2000/svg" xml:space="preserve" width="200px" height="100px" version="1.1" style="shape-rendering:geometricPrecision; text-rendering:geometricPrecision; image-rendering:optimizeQuality; fill-rule:evenodd; clip-rule:evenodd"
viewBox="0 0 200 100"
 xmlns:xlink="http://www.w3.org/1999/xlink"
 xmlns:xodm="http://www.corel.com/coreldraw/odm/2003">
 <defs>
  <style type="text/css">
   <![CDATA[
    .str0 {stroke:black;stroke-width:1.5;stroke-miterlimit:2.61313}
    .fil0 {fill:none}
   ]]>
  </style>
 </defs>
 <g id="Layer_x0020_1">
  <metadata id="CorelCorpID_0Corel-Layer"/>
  <path class="fil0 str0" d="M65.055 19.664c2.367,-0.289 8.4,-7.025 -1.441,-9.493 -5.162,-1.295 -21.616,4.658 -5.967,21.376 6.408,6.845 17.081,16 7.383,25.569 -13.8,13.618 -36.791,-2.912 -16.368,-3.8 7.977,-0.346 19.597,1.908 24.799,4.509 5.202,2.6 8.623,5.029 13.305,0 4.681,-5.029 11.877,-19.249 13.264,-26.011 1.387,-6.762 -3.728,-4.595 -6.242,2.514 -2.514,7.11 -4.509,19.594 -2.341,23.062 2.168,3.468 6.966,4.888 11.473,-1.092 11.098,-14.728 3.664,-13.302 -0.2,-8.227 -4.33,5.684 -0.089,16.249 5.286,9.666 0.746,-0.914 9.825,-12.942 8.238,-3.812 -0.693,3.986 0.096,1.524 2.35,-0.817 2.255,-2.341 5.851,2.2 3.864,5.615 -1.986,3.414 -4.826,8.4 -2.833,8.747 1.993,0.346 6.094,-5.236 7.195,-2.861 1.102,2.375 -8.541,5.092 -10.708,7.432 -2.169,2.34 -2.729,5.429 1.779,7.25 4.508,1.82 12.573,3.378 16.301,5.112 3.728,1.734 27.569,5.114 28.089,5.375 0.52,0.26 -17.982,-0.624 -27.432,-0.191 -9.451,0.434 -53.257,0.747 -56.75,-0.242 -3.493,-0.988 17.6,-1.647 23.755,-1.82 6.155,-0.174 50.036,-2.095 55.845,-2.701 0.641,-0.066 1.14,-0.937 -0.717,-1.057 -12.702,-0.816 -78.839,-1.878 -110.354,-1.878 -11.964,0 -8.67,-1.907 23.58,-3.988 32.25,-2.081 120.379,-0.664 124.061,-0.781 3.682,-0.117 3.595,-1.691 -2.557,-2.781"/>
 </g>
</svg>
