<?xml version="1.0" encoding="UTF-8"?>
<!DOCTYPE svg PUBLIC "-//W3C//DTD SVG 1.1//EN" "http://www.w3.org/Graphics/SVG/1.1/DTD/svg11.dtd">
<!-- Creator: CorelDRAW 2019 (64-Bit) -->
<svg xmlns="http://www.w3.org/2000/svg" xml:space="preserve" width="200px" height="100px" version="1.1" style="shape-rendering:geometricPrecision; text-rendering:geometricPrecision; image-rendering:optimizeQuality; fill-rule:evenodd; clip-rule:evenodd"
viewBox="0 0 200 100"
 xmlns:xlink="http://www.w3.org/1999/xlink"
 xmlns:xodm="http://www.corel.com/coreldraw/odm/2003">
 <defs>
  <style type="text/css">
   <![CDATA[
    .fil0 {fill:black;fill-rule:nonzero}
   ]]>
  </style>
 </defs>
 <g id="Layer_x0020_1">
  <metadata id="CorelCorpID_0Corel-Layer"/>
  <g>
   <path class="fil0" d="M64.531 48.97c-0.224,0.349 -0.688,0.45 -1.037,0.226 -0.348,-0.224 -0.449,-0.689 -0.225,-1.037l1.262 0.811zm-0.715 -7.847l1.177 -0.93 0 0 0.256 0.353 0.222 0.363 0.187 0.371 0.154 0.377 0.123 0.381 0.094 0.382 0.067 0.382 0.042 0.38 0.019 0.376 -0.001 0.373 -0.021 0.366 -0.037 0.36 -0.051 0.353 -0.065 0.344 -0.076 0.334 -0.085 0.324 -0.093 0.312 -0.098 0.301 -0.103 0.287 -0.106 0.272 -0.106 0.258 -0.106 0.241 -0.104 0.223 -0.1 0.207 -0.094 0.186 -0.088 0.165 -0.079 0.144 -0.069 0.122 -0.057 0.098 -0.044 0.074 -0.029 0.046 -0.014 0.022 -1.262 -0.811 0.003 -0.005 0.021 -0.034 0.034 -0.057 0.048 -0.081 0.059 -0.103 0.068 -0.125 0.077 -0.145 0.083 -0.164 0.088 -0.181 0.091 -0.198 0.094 -0.212 0.094 -0.227 0.092 -0.239 0.09 -0.25 0.085 -0.261 0.08 -0.269 0.073 -0.277 0.064 -0.282 0.054 -0.287 0.043 -0.29 0.03 -0.293 0.016 -0.293 0.002 -0.293 -0.015 -0.291 -0.032 -0.288 -0.05 -0.285 -0.069 -0.28 -0.089 -0.276 -0.111 -0.27 -0.133 -0.266 -0.158 -0.26 -0.185 -0.254 0 0zm-20.5 5.184l-0.893 -1.205 0 0 0.483 -0.339 0.532 -0.343 0.58 -0.344 0.622 -0.346 0.663 -0.346 0.7 -0.345 0.733 -0.342 0.762 -0.338 0.787 -0.333 0.81 -0.325 0.827 -0.316 0.842 -0.306 0.852 -0.293 0.858 -0.279 0.861 -0.263 0.86 -0.246 0.855 -0.227 0.846 -0.205 0.833 -0.183 0.818 -0.159 0.798 -0.131 0.775 -0.104 0.749 -0.073 0.72 -0.041 0.688 -0.006 0.654 0.031 0.617 0.074 0.58 0.119 0.541 0.171 0.498 0.234 0.447 0.307 0.379 0.388 -1.177 0.93 -0.163 -0.166 -0.226 -0.154 -0.3 -0.14 -0.373 -0.118 -0.442 -0.09 -0.504 -0.06 -0.56 -0.026 -0.609 0.005 -0.654 0.037 -0.692 0.068 -0.726 0.097 -0.755 0.125 -0.779 0.151 -0.799 0.175 -0.815 0.198 -0.826 0.219 -0.832 0.238 -0.835 0.256 -0.834 0.271 -0.828 0.285 -0.818 0.296 -0.804 0.308 -0.785 0.316 -0.763 0.322 -0.737 0.326 -0.705 0.33 -0.671 0.33 -0.63 0.329 -0.587 0.326 -0.538 0.32 -0.484 0.311 -0.426 0.299 0 0zm29.289 21.855l-0.923 1.183 0 0 -0.841 -0.611 -0.971 -0.628 -1.089 -0.639 -1.192 -0.651 -1.282 -0.661 -1.361 -0.669 -1.425 -0.677 -1.478 -0.685 -1.519 -0.691 -1.547 -0.698 -1.563 -0.705 -1.568 -0.71 -1.56 -0.717 -1.54 -0.722 -1.508 -0.727 -1.465 -0.734 -1.411 -0.74 -1.344 -0.745 -1.266 -0.753 -1.177 -0.76 -1.078 -0.769 -0.966 -0.781 -0.845 -0.797 -0.712 -0.819 -0.563 -0.849 -0.393 -0.89 -0.193 -0.93 0.041 -0.952 0.287 -0.94 0.527 -0.903 0.757 -0.861 0.986 -0.829 0.893 1.205 -0.836 0.703 -0.59 0.669 -0.367 0.626 -0.179 0.587 -0.024 0.571 0.125 0.59 0.279 0.627 0.441 0.664 0.6 0.69 0.75 0.706 0.888 0.718 1.014 0.723 1.125 0.726 1.223 0.726 1.309 0.727 1.383 0.725 1.443 0.722 1.491 0.719 1.527 0.717 1.551 0.712 1.563 0.709 1.562 0.703 1.549 0.7 1.526 0.694 1.489 0.69 1.442 0.684 1.381 0.68 1.311 0.675 1.228 0.671 1.136 0.668 1.032 0.667 0.917 0.666 0 0zm-3.658 10.595l0 -1.5 0 0 0.853 -0.011 0.797 -0.033 0.742 -0.053 0.688 -0.074 0.631 -0.093 0.576 -0.111 0.519 -0.129 0.463 -0.143 0.407 -0.158 0.35 -0.168 0.293 -0.176 0.239 -0.18 0.187 -0.182 0.142 -0.181 0.103 -0.182 0.069 -0.187 0.04 -0.201 0.009 -0.221 -0.023 -0.248 -0.062 -0.274 -0.103 -0.303 -0.147 -0.328 -0.194 -0.351 -0.241 -0.373 -0.288 -0.392 -0.335 -0.41 -0.382 -0.425 -0.428 -0.44 -0.474 -0.453 -0.521 -0.466 -0.565 -0.478 -0.61 -0.488 0.923 -1.183 0.64 0.513 0.597 0.504 0.554 0.496 0.511 0.489 0.469 0.481 0.425 0.473 0.381 0.467 0.338 0.46 0.293 0.454 0.248 0.451 0.201 0.447 0.151 0.446 0.1 0.445 0.042 0.445 -0.02 0.44 -0.085 0.43 -0.152 0.411 -0.217 0.386 -0.275 0.352 -0.328 0.317 -0.376 0.284 -0.42 0.253 -0.465 0.224 -0.509 0.197 -0.554 0.172 -0.599 0.148 -0.647 0.125 -0.693 0.102 -0.742 0.08 -0.792 0.057 -0.842 0.034 -0.892 0.012 0 0zm-25.542 -3.908l1.117 -1.002 0 0 0.115 0.105 0.2 0.138 0.28 0.155 0.352 0.161 0.418 0.166 0.479 0.166 0.536 0.164 0.587 0.161 0.636 0.159 0.681 0.155 0.722 0.151 0.761 0.146 0.797 0.141 0.828 0.136 0.857 0.131 0.884 0.125 0.906 0.119 0.927 0.114 0.944 0.106 0.959 0.1 0.969 0.094 0.979 0.086 0.984 0.079 0.986 0.072 0.986 0.064 0.984 0.056 0.977 0.048 0.968 0.04 0.956 0.031 0.941 0.023 0.923 0.013 0.903 0.005 0 1.5 -0.918 -0.004 -0.937 -0.014 -0.955 -0.023 -0.969 -0.032 -0.98 -0.041 -0.989 -0.048 -0.995 -0.057 -0.998 -0.065 -0.998 -0.072 -0.995 -0.08 -0.99 -0.087 -0.982 -0.095 -0.971 -0.101 -0.957 -0.109 -0.941 -0.114 -0.92 -0.121 -0.899 -0.128 -0.874 -0.133 -0.846 -0.139 -0.816 -0.145 -0.783 -0.15 -0.747 -0.156 -0.709 -0.162 -0.669 -0.166 -0.626 -0.173 -0.58 -0.178 -0.535 -0.185 -0.487 -0.192 -0.439 -0.203 -0.392 -0.217 -0.345 -0.24 -0.3 -0.278 0 0zm1.993 -5.26l0.412 1.442 -0.113 0.035 -0.116 0.04 -0.119 0.046 -0.119 0.051 -0.119 0.057 -0.12 0.062 -0.116 0.066 -0.115 0.071 -0.111 0.075 -0.105 0.078 -0.1 0.08 -0.094 0.084 -0.087 0.086 -0.078 0.086 -0.071 0.088 -0.061 0.088 -0.054 0.088 -0.044 0.087 -0.035 0.086 -0.028 0.086 -0.019 0.085 -0.011 0.087 -0.003 0.089 0.005 0.093 0.016 0.099 0.027 0.106 0.04 0.114 0.054 0.123 0.072 0.131 0.091 0.142 0.111 0.149 0.134 0.158 -1.117 1.002 -0.191 -0.226 -0.17 -0.228 -0.147 -0.229 -0.127 -0.233 -0.105 -0.235 -0.082 -0.236 -0.06 -0.237 -0.037 -0.237 -0.014 -0.235 0.008 -0.23 0.028 -0.225 0.049 -0.218 0.066 -0.208 0.082 -0.199 0.096 -0.19 0.108 -0.179 0.119 -0.169 0.129 -0.16 0.136 -0.151 0.143 -0.141 0.148 -0.133 0.155 -0.126 0.159 -0.116 0.161 -0.109 0.164 -0.102 0.167 -0.094 0.167 -0.087 0.168 -0.08 0.17 -0.072 0.168 -0.066 0.168 -0.058 0.167 -0.051zm0 0c0.398,-0.114 0.813,0.117 0.927,0.515 0.113,0.398 -0.117,0.814 -0.515,0.927l-0.412 -1.442z"/>
  </g>
  <g>
   <path class="fil0" d="M6.161 66.79c0.405,0.087 0.662,0.487 0.575,0.892 -0.087,0.404 -0.487,0.661 -0.892,0.574l0.317 -1.466zm5.003 -3.069l0.237 1.482 0 0 -0.763 0.126 -0.708 0.124 -0.657 0.124 -0.605 0.121 -0.555 0.12 -0.506 0.117 -0.458 0.116 -0.412 0.113 -0.366 0.109 -0.32 0.106 -0.276 0.102 -0.232 0.097 -0.188 0.089 -0.143 0.079 -0.098 0.066 -0.051 0.042 -0.007 0.007 0.024 -0.042 0.031 -0.1 0.002 -0.132 -0.031 -0.114 -0.035 -0.064 -0.014 -0.015 0.021 0.015 0.053 0.035 0.086 0.045 0.112 0.05 0.135 0.052 0.156 0.053 0.175 0.051 0.188 0.049 0.202 0.046 -0.317 1.466 -0.24 -0.055 -0.233 -0.061 -0.223 -0.065 -0.214 -0.071 -0.204 -0.079 -0.195 -0.088 -0.185 -0.098 -0.178 -0.116 -0.171 -0.141 -0.159 -0.179 -0.136 -0.233 -0.08 -0.288 0.005 -0.313 0.09 -0.284 0.141 -0.233 0.171 -0.189 0.191 -0.159 0.211 -0.141 0.236 -0.131 0.263 -0.125 0.294 -0.123 0.328 -0.121 0.365 -0.121 0.403 -0.121 0.444 -0.121 0.487 -0.123 0.531 -0.123 0.577 -0.125 0.624 -0.125 0.674 -0.126 0.725 -0.128 0.778 -0.129 0 0zm84.892 -9.179l0.041 1.499 -1.561 0.057 -1.784 0.091 -1.991 0.122 -2.182 0.154 -2.357 0.181 -2.518 0.208 -2.663 0.232 -2.793 0.255 -2.908 0.276 -3.007 0.294 -3.092 0.311 -3.162 0.325 -3.216 0.339 -3.256 0.35 -3.28 0.358 -3.29 0.366 -3.284 0.371 -3.263 0.374 -3.228 0.375 -3.177 0.375 -3.111 0.372 -3.03 0.368 -2.935 0.362 -2.823 0.353 -2.698 0.343 -2.557 0.33 -2.4 0.317 -2.229 0.3 -2.043 0.283 -1.842 0.262 -1.624 0.241 -1.392 0.217 -0.237 -1.482 1.404 -0.218 1.634 -0.242 1.848 -0.264 2.049 -0.283 2.234 -0.301 2.404 -0.317 2.561 -0.331 2.7 -0.343 2.827 -0.354 2.937 -0.362 3.033 -0.368 3.113 -0.373 3.18 -0.375 3.23 -0.376 3.266 -0.374 3.286 -0.371 3.293 -0.366 3.282 -0.359 3.259 -0.35 3.22 -0.339 3.165 -0.325 3.096 -0.312 3.011 -0.294 2.913 -0.277 2.798 -0.255 2.67 -0.233 2.525 -0.208 2.367 -0.182 2.193 -0.154 2.005 -0.124 1.803 -0.092 1.586 -0.057zm0 0c0.414,-0.011 0.759,0.315 0.77,0.729 0.011,0.414 -0.315,0.759 -0.729,0.77l-0.041 -1.499z"/>
  </g>
  <g>
   <path class="fil0" d="M12.956 73.87c0.31,0.275 0.338,0.75 0.063,1.059 -0.275,0.31 -0.749,0.338 -1.059,0.063l0.996 -1.122zm6.758 -3.079l0.298 1.471 0 0 -0.606 0.125 -0.575 0.122 -0.545 0.12 -0.515 0.118 -0.486 0.115 -0.457 0.113 -0.429 0.111 -0.401 0.108 -0.375 0.105 -0.348 0.103 -0.322 0.101 -0.296 0.097 -0.271 0.094 -0.247 0.092 -0.222 0.088 -0.197 0.084 -0.174 0.08 -0.149 0.076 -0.126 0.069 -0.101 0.062 -0.076 0.054 -0.053 0.043 -0.027 0.026 -0.004 0.004 0.014 -0.022 0.022 -0.055 0.018 -0.088 -0.001 -0.104 -0.024 -0.098 -0.035 -0.074 -0.031 -0.043 -0.017 -0.018 -0.996 1.122 -0.124 -0.126 -0.115 -0.157 -0.093 -0.193 -0.054 -0.222 -0.003 -0.232 0.045 -0.222 0.081 -0.192 0.105 -0.165 0.119 -0.143 0.131 -0.126 0.141 -0.114 0.154 -0.109 0.167 -0.103 0.183 -0.102 0.198 -0.099 0.217 -0.1 0.235 -0.101 0.255 -0.101 0.276 -0.102 0.298 -0.104 0.32 -0.105 0.343 -0.107 0.368 -0.109 0.392 -0.11 0.418 -0.113 0.444 -0.115 0.471 -0.116 0.499 -0.118 0.527 -0.121 0.556 -0.122 0.585 -0.125 0.615 -0.127 0 0zm93.116 -15.397l0.212 1.485 -0.843 0.124 -1.204 0.183 -1.539 0.237 -1.852 0.289 -2.143 0.336 -2.41 0.38 -2.655 0.42 -2.878 0.458 -3.078 0.491 -3.256 0.521 -3.412 0.548 -3.544 0.57 -3.655 0.59 -3.743 0.606 -3.808 0.619 -3.852 0.628 -3.872 0.632 -3.87 0.635 -3.846 0.633 -3.8 0.628 -3.731 0.619 -3.638 0.608 -3.525 0.591 -3.389 0.572 -3.229 0.55 -3.048 0.523 -2.844 0.494 -2.617 0.46 -2.368 0.424 -2.097 0.383 -1.801 0.34 -1.483 0.291 -0.298 -1.471 1.498 -0.294 1.811 -0.341 2.103 -0.384 2.373 -0.425 2.621 -0.461 2.847 -0.494 3.05 -0.524 3.232 -0.55 3.39 -0.572 3.526 -0.592 3.64 -0.607 3.732 -0.62 3.8 -0.628 3.848 -0.633 3.871 -0.635 3.873 -0.633 3.852 -0.628 3.809 -0.618 3.744 -0.606 3.655 -0.591 3.545 -0.57 3.412 -0.548 3.257 -0.521 3.079 -0.491 2.879 -0.458 2.656 -0.421 2.411 -0.38 2.144 -0.336 1.854 -0.289 1.542 -0.238 1.208 -0.183 0.854 -0.126zm0 0c0.41,-0.058 0.79,0.227 0.848,0.637 0.059,0.41 -0.226,0.79 -0.636,0.848l-0.212 -1.485z"/>
  </g>
  <g>
   <path class="fil0" d="M85.767 57.582c-0.117,0.397 -0.535,0.624 -0.932,0.507 -0.397,-0.117 -0.624,-0.534 -0.507,-0.931l1.439 0.424zm7.922 -30.39l1.41 0.51 0 0 -0.268 0.755 -0.29 0.835 -0.309 0.908 -0.325 0.974 -0.34 1.033 -0.353 1.085 -0.364 1.13 -0.373 1.168 -0.381 1.2 -0.385 1.225 -0.389 1.243 -0.39 1.255 -0.389 1.258 -0.387 1.257 -0.383 1.248 -0.377 1.232 -0.368 1.209 -0.359 1.181 -0.346 1.144 -0.333 1.102 -0.317 1.052 -0.299 0.997 -0.28 0.933 -0.258 0.864 -0.235 0.787 -0.21 0.704 -0.183 0.614 -0.154 0.518 -0.123 0.414 -0.09 0.304 -0.056 0.188 -0.018 0.063 -1.439 -0.424 0.019 -0.065 0.056 -0.188 0.09 -0.304 0.123 -0.415 0.154 -0.519 0.183 -0.614 0.21 -0.705 0.235 -0.788 0.259 -0.865 0.28 -0.934 0.3 -0.997 0.317 -1.053 0.333 -1.103 0.347 -1.146 0.359 -1.181 0.369 -1.211 0.377 -1.234 0.383 -1.249 0.388 -1.258 0.39 -1.261 0.39 -1.257 0.39 -1.245 0.386 -1.227 0.381 -1.203 0.374 -1.172 0.366 -1.134 0.354 -1.09 0.342 -1.038 0.327 -0.981 0.312 -0.916 0.293 -0.845 0.274 -0.768 0 0zm-4.308 6.332l-1.462 -0.338 0 0 0.251 -1.022 0.271 -0.973 0.287 -0.925 0.302 -0.875 0.314 -0.825 0.324 -0.776 0.332 -0.725 0.338 -0.675 0.342 -0.624 0.345 -0.573 0.345 -0.523 0.344 -0.472 0.342 -0.421 0.339 -0.371 0.336 -0.321 0.337 -0.271 0.34 -0.221 0.353 -0.166 0.375 -0.103 0.406 -0.012 0.413 0.111 0.361 0.242 0.26 0.329 0.162 0.37 0.09 0.397 0.034 0.426 -0.014 0.465 -0.058 0.508 -0.103 0.555 -0.148 0.608 -0.195 0.662 -0.245 0.717 -1.41 -0.51 0.226 -0.663 0.176 -0.598 0.13 -0.532 0.086 -0.465 0.045 -0.395 0.01 -0.321 -0.019 -0.243 -0.034 -0.156 -0.029 -0.068 0.006 0.005 0.05 0.033 0.048 0.014 -0.009 0.002 -0.083 0.024 -0.146 0.07 -0.193 0.126 -0.229 0.185 -0.256 0.243 -0.275 0.301 -0.289 0.357 -0.301 0.413 -0.308 0.467 -0.313 0.521 -0.315 0.575 -0.314 0.626 -0.311 0.678 -0.305 0.73 -0.297 0.781 -0.286 0.831 -0.274 0.881 -0.258 0.93 -0.241 0.98 0 0zm2.821 13.887l0.347 1.459 0 0 -0.396 0.076 -0.397 0.037 -0.394 -0.004 -0.39 -0.044 -0.382 -0.087 -0.371 -0.128 -0.358 -0.171 -0.34 -0.209 -0.322 -0.248 -0.302 -0.285 -0.28 -0.319 -0.26 -0.353 -0.239 -0.386 -0.217 -0.418 -0.197 -0.45 -0.175 -0.482 -0.153 -0.513 -0.133 -0.546 -0.111 -0.578 -0.088 -0.61 -0.066 -0.643 -0.043 -0.676 -0.019 -0.71 0.005 -0.743 0.03 -0.778 0.055 -0.812 0.082 -0.846 0.109 -0.881 0.137 -0.916 0.165 -0.951 0.195 -0.987 0.225 -1.023 1.462 0.338 -0.218 0.991 -0.188 0.954 -0.16 0.917 -0.131 0.88 -0.105 0.843 -0.078 0.805 -0.052 0.769 -0.029 0.731 -0.004 0.694 0.017 0.658 0.04 0.62 0.059 0.583 0.08 0.546 0.097 0.508 0.115 0.471 0.13 0.435 0.144 0.397 0.157 0.36 0.168 0.323 0.178 0.287 0.185 0.252 0.192 0.218 0.196 0.185 0.201 0.155 0.205 0.126 0.208 0.099 0.214 0.075 0.221 0.05 0.229 0.026 0.239 0.002 0.25 -0.023 0.261 -0.05 0 0zm12.546 -24.192l1.5 0.044 0 0 -0.047 0.634 -0.101 0.687 -0.149 0.739 -0.196 0.789 -0.238 0.836 -0.278 0.878 -0.315 0.917 -0.349 0.949 -0.381 0.978 -0.411 1.001 -0.437 1.019 -0.46 1.032 -0.481 1.039 -0.499 1.04 -0.515 1.038 -0.528 1.028 -0.537 1.015 -0.545 0.995 -0.55 0.969 -0.552 0.94 -0.551 0.904 -0.549 0.864 -0.542 0.817 -0.535 0.766 -0.525 0.711 -0.514 0.649 -0.5 0.584 -0.488 0.515 -0.476 0.442 -0.47 0.365 -0.476 0.282 -0.504 0.185 -0.347 -1.459 0.192 -0.074 0.283 -0.169 0.347 -0.27 0.394 -0.366 0.429 -0.453 0.457 -0.534 0.481 -0.608 0.498 -0.674 0.513 -0.736 0.525 -0.79 0.533 -0.839 0.538 -0.882 0.54 -0.919 0.538 -0.95 0.535 -0.977 0.528 -0.996 0.519 -1.011 0.506 -1.019 0.49 -1.023 0.473 -1.02 0.451 -1.012 0.428 -0.998 0.401 -0.978 0.371 -0.952 0.339 -0.922 0.304 -0.883 0.266 -0.841 0.225 -0.79 0.182 -0.732 0.135 -0.669 0.087 -0.595 0.038 -0.51 0 0zm-11.54 40.22l-1.329 0.696 0 0 -0.387 -0.988 -0.232 -1.138 -0.106 -1.279 0.007 -1.413 0.107 -1.539 0.199 -1.652 0.283 -1.751 0.359 -1.838 0.428 -1.909 0.489 -1.965 0.544 -2.006 0.592 -2.032 0.631 -2.041 0.664 -2.037 0.69 -2.015 0.709 -1.978 0.72 -1.926 0.725 -1.858 0.722 -1.774 0.713 -1.675 0.696 -1.561 0.672 -1.43 0.643 -1.286 0.607 -1.129 0.568 -0.957 0.528 -0.778 0.503 -0.598 0.556 -0.431 0.867 -0.095 0.657 0.603 0.187 0.721 0.028 0.883 -1.5 -0.044 -0.019 -0.669 -0.052 -0.249 0.238 0.182 0.282 0.002 -0.177 0.152 -0.367 0.439 -0.462 0.682 -0.529 0.893 -0.582 1.082 -0.625 1.25 -0.659 1.402 -0.685 1.535 -0.703 1.652 -0.713 1.753 -0.717 1.838 -0.713 1.907 -0.702 1.958 -0.683 1.995 -0.657 2.015 -0.625 2.019 -0.584 2.006 -0.536 1.978 -0.481 1.933 -0.42 1.872 -0.35 1.793 -0.275 1.698 -0.191 1.585 -0.101 1.453 -0.007 1.301 0.093 1.128 0.188 0.929 0.274 0.706 0 0zm20.236 -11.8l1.297 0.753 0 0 -0.523 0.858 -0.569 0.85 -0.609 0.841 -0.647 0.83 -0.682 0.816 -0.713 0.801 -0.741 0.782 -0.765 0.762 -0.787 0.739 -0.805 0.714 -0.819 0.686 -0.831 0.657 -0.838 0.623 -0.844 0.589 -0.846 0.551 -0.844 0.511 -0.84 0.469 -0.833 0.424 -0.823 0.376 -0.81 0.325 -0.796 0.273 -0.778 0.217 -0.759 0.157 -0.738 0.093 -0.715 0.025 -0.69 -0.05 -0.661 -0.131 -0.626 -0.22 -0.581 -0.315 -0.523 -0.411 -0.453 -0.506 -0.373 -0.593 1.329 -0.696 0.244 0.389 0.281 0.313 0.318 0.251 0.363 0.196 0.413 0.144 0.466 0.092 0.518 0.037 0.568 -0.02 0.612 -0.078 0.653 -0.135 0.687 -0.191 0.716 -0.246 0.742 -0.299 0.763 -0.348 0.78 -0.397 0.791 -0.441 0.801 -0.485 0.805 -0.525 0.806 -0.562 0.803 -0.597 0.796 -0.629 0.787 -0.659 0.772 -0.685 0.755 -0.71 0.735 -0.732 0.71 -0.749 0.682 -0.766 0.651 -0.779 0.615 -0.789 0.578 -0.797 0.535 -0.8 0.49 -0.803 0 0zm-18.402 -2.028l-1.297 -0.754 0.962 -1.547 1.007 -1.419 1.045 -1.291 1.079 -1.166 1.106 -1.043 1.126 -0.923 1.14 -0.804 1.148 -0.688 1.15 -0.574 1.146 -0.463 1.135 -0.353 1.118 -0.245 1.095 -0.139 1.065 -0.036 1.03 0.068 0.987 0.167 0.937 0.268 0.88 0.365 0.815 0.463 0.741 0.557 0.657 0.648 0.565 0.737 0.463 0.818 0.353 0.895 0.237 0.963 0.115 1.027 -0.011 1.085 -0.142 1.138 -0.276 1.188 -0.414 1.236 -0.558 1.28 -0.705 1.323 -1.297 -0.753 0.652 -1.224 0.508 -1.167 0.371 -1.106 0.243 -1.042 0.121 -0.977 0.01 -0.907 -0.095 -0.84 -0.189 -0.771 -0.277 -0.703 -0.361 -0.636 -0.437 -0.571 -0.513 -0.505 -0.583 -0.438 -0.651 -0.37 -0.715 -0.297 -0.775 -0.22 -0.829 -0.142 -0.879 -0.057 -0.922 0.031 -0.959 0.122 -0.99 0.217 -1.015 0.316 -1.033 0.417 -1.046 0.522 -1.05 0.63 -1.051 0.741 -1.044 0.854 -1.03 0.973 -1.011 1.092 -0.985 1.216 -0.952 1.342 -0.915 1.472zm0 0c-0.207,0.358 -0.667,0.48 -1.025,0.272 -0.358,-0.208 -0.479,-0.667 -0.272,-1.026l1.297 0.754z"/>
  </g>
  <g>
   <path class="fil0" d="M115.678 60.851c0.353,-0.215 0.815,-0.103 1.03,0.25 0.215,0.354 0.103,0.816 -0.25,1.031l-0.78 -1.281zm-9.891 -12.125l1.103 1.016 0 0 -0.331 0.396 -0.346 0.483 -0.35 0.561 -0.348 0.628 -0.34 0.686 -0.325 0.733 -0.306 0.772 -0.282 0.802 -0.253 0.821 -0.219 0.833 -0.181 0.834 -0.139 0.826 -0.091 0.809 -0.041 0.782 0.013 0.745 0.07 0.697 0.127 0.639 0.184 0.573 0.241 0.5 0.296 0.423 0.353 0.35 0.423 0.281 0.509 0.21 0.613 0.133 0.731 0.04 0.857 -0.069 0.985 -0.191 1.117 -0.327 1.25 -0.473 1.384 -0.628 1.523 -0.793 1.664 -0.967 0.78 1.281 -1.719 0.999 -1.589 0.828 -1.465 0.665 -1.348 0.509 -1.238 0.363 -1.136 0.22 -1.04 0.083 -0.95 -0.053 -0.861 -0.186 -0.768 -0.318 -0.666 -0.441 -0.556 -0.549 -0.444 -0.634 -0.339 -0.7 -0.244 -0.754 -0.158 -0.795 -0.083 -0.83 -0.016 -0.857 0.046 -0.88 0.101 -0.893 0.15 -0.901 0.196 -0.901 0.235 -0.894 0.271 -0.88 0.301 -0.857 0.328 -0.827 0.351 -0.79 0.369 -0.745 0.384 -0.692 0.395 -0.633 0.406 -0.568 0.416 -0.495 0 0zm14.936 -8.149l0 1.5 0 0 -0.496 0.01 -0.492 0.029 -0.487 0.049 -0.482 0.067 -0.479 0.085 -0.474 0.102 -0.47 0.12 -0.467 0.136 -0.462 0.153 -0.459 0.169 -0.454 0.184 -0.451 0.199 -0.447 0.213 -0.443 0.227 -0.439 0.241 -0.435 0.254 -0.432 0.266 -0.427 0.279 -0.423 0.29 -0.419 0.301 -0.415 0.312 -0.411 0.322 -0.406 0.332 -0.402 0.34 -0.398 0.349 -0.394 0.357 -0.389 0.364 -0.385 0.372 -0.381 0.378 -0.376 0.383 -0.371 0.389 -0.367 0.393 -1.103 -1.016 0.379 -0.407 0.385 -0.402 0.389 -0.398 0.396 -0.392 0.4 -0.387 0.407 -0.38 0.411 -0.373 0.418 -0.366 0.422 -0.358 0.429 -0.35 0.434 -0.34 0.44 -0.33 0.445 -0.32 0.451 -0.31 0.457 -0.298 0.464 -0.286 0.468 -0.274 0.475 -0.26 0.48 -0.246 0.487 -0.233 0.493 -0.217 0.498 -0.202 0.505 -0.185 0.51 -0.169 0.517 -0.151 0.522 -0.133 0.528 -0.114 0.535 -0.095 0.539 -0.075 0.545 -0.054 0.551 -0.033 0.556 -0.011 0 0zm8.891 10.589l-1.463 -0.33 0 0 0.088 -0.448 0.062 -0.44 0.037 -0.434 0.013 -0.427 -0.012 -0.419 -0.035 -0.412 -0.057 -0.403 -0.08 -0.393 -0.103 -0.385 -0.123 -0.374 -0.143 -0.364 -0.164 -0.353 -0.184 -0.342 -0.204 -0.33 -0.222 -0.317 -0.241 -0.305 -0.259 -0.291 -0.277 -0.277 -0.294 -0.262 -0.311 -0.247 -0.327 -0.231 -0.344 -0.215 -0.36 -0.197 -0.375 -0.18 -0.39 -0.161 -0.405 -0.142 -0.42 -0.122 -0.433 -0.102 -0.447 -0.08 -0.46 -0.058 -0.473 -0.036 -0.485 -0.012 0 -1.5 0.56 0.014 0.548 0.041 0.537 0.068 0.524 0.094 0.51 0.12 0.497 0.145 0.481 0.168 0.466 0.193 0.45 0.215 0.433 0.238 0.415 0.259 0.397 0.28 0.378 0.3 0.359 0.32 0.337 0.338 0.317 0.356 0.295 0.373 0.273 0.389 0.249 0.405 0.226 0.419 0.201 0.433 0.177 0.446 0.15 0.458 0.124 0.469 0.098 0.479 0.07 0.489 0.042 0.497 0.014 0.506 -0.015 0.511 -0.044 0.517 -0.074 0.523 -0.104 0.526 0 0zm-8.05 10.175l0 -1.5 0 0 0.217 -0.01 0.221 -0.029 0.225 -0.05 0.229 -0.069 0.232 -0.09 0.236 -0.109 0.238 -0.131 0.241 -0.151 0.242 -0.172 0.242 -0.191 0.243 -0.21 0.242 -0.23 0.24 -0.248 0.238 -0.266 0.235 -0.283 0.231 -0.299 0.228 -0.316 0.223 -0.33 0.218 -0.345 0.212 -0.358 0.206 -0.372 0.2 -0.383 0.193 -0.396 0.185 -0.406 0.178 -0.417 0.17 -0.426 0.161 -0.435 0.151 -0.443 0.143 -0.451 0.133 -0.457 0.122 -0.464 0.112 -0.468 1.463 0.33 -0.12 0.504 -0.132 0.498 -0.143 0.492 -0.152 0.485 -0.164 0.477 -0.174 0.469 -0.183 0.46 -0.192 0.451 -0.201 0.441 -0.21 0.431 -0.219 0.419 -0.226 0.407 -0.234 0.395 -0.242 0.383 -0.248 0.368 -0.256 0.355 -0.263 0.339 -0.269 0.325 -0.276 0.308 -0.282 0.291 -0.289 0.275 -0.295 0.256 -0.301 0.237 -0.307 0.218 -0.314 0.196 -0.32 0.176 -0.326 0.152 -0.333 0.128 -0.338 0.102 -0.343 0.075 -0.348 0.046 -0.35 0.016 0 0zm13.514 -22.782l0.059 1.499 0 0 -1.296 0.107 -1.264 0.212 -1.232 0.311 -1.198 0.403 -1.16 0.488 -1.12 0.566 -1.078 0.638 -1.031 0.702 -0.983 0.759 -0.93 0.809 -0.876 0.852 -0.817 0.885 -0.756 0.914 -0.692 0.932 -0.625 0.944 -0.555 0.947 -0.482 0.943 -0.407 0.93 -0.329 0.908 -0.248 0.878 -0.167 0.838 -0.083 0.789 -0.001 0.73 0.08 0.663 0.157 0.588 0.232 0.511 0.305 0.436 0.383 0.367 0.475 0.301 0.583 0.23 0.706 0.149 0.836 0.053 0 1.5 -1.033 -0.066 -0.935 -0.198 -0.832 -0.329 -0.721 -0.456 -0.601 -0.573 -0.47 -0.672 -0.341 -0.749 -0.218 -0.81 -0.104 -0.859 0.001 -0.899 0.099 -0.934 0.191 -0.963 0.279 -0.986 0.363 -1.004 0.445 -1.016 0.522 -1.021 0.597 -1.02 0.67 -1.012 0.739 -0.996 0.808 -0.975 0.872 -0.945 0.934 -0.909 0.995 -0.865 1.053 -0.813 1.108 -0.754 1.161 -0.688 1.212 -0.612 1.259 -0.529 1.305 -0.439 1.347 -0.34 1.387 -0.233 1.422 -0.117 0 0zm5.941 10.521l-1.224 -0.868 0 0 0.309 -0.458 0.273 -0.449 0.237 -0.439 0.203 -0.43 0.169 -0.419 0.135 -0.406 0.104 -0.394 0.073 -0.38 0.043 -0.367 0.014 -0.353 -0.013 -0.338 -0.04 -0.323 -0.065 -0.309 -0.09 -0.295 -0.115 -0.282 -0.139 -0.269 -0.164 -0.256 -0.188 -0.244 -0.214 -0.231 -0.24 -0.219 -0.266 -0.205 -0.292 -0.191 -0.32 -0.176 -0.346 -0.16 -0.375 -0.142 -0.4 -0.125 -0.428 -0.104 -0.453 -0.084 -0.48 -0.062 -0.506 -0.039 -0.53 -0.015 -0.554 0.01 -0.059 -1.499 0.621 -0.011 0.601 0.017 0.58 0.045 0.558 0.072 0.536 0.099 0.513 0.125 0.49 0.152 0.466 0.178 0.441 0.203 0.417 0.229 0.389 0.255 0.361 0.279 0.333 0.303 0.302 0.327 0.27 0.35 0.236 0.37 0.202 0.39 0.166 0.407 0.129 0.424 0.093 0.436 0.056 0.45 0.017 0.46 -0.019 0.469 -0.055 0.478 -0.093 0.484 -0.129 0.491 -0.166 0.496 -0.202 0.501 -0.238 0.505 -0.275 0.509 -0.311 0.512 -0.348 0.516 0 0zm-18.446 11.251l0 -1.5 0 0 0.14 -0.01 0.229 -0.04 0.298 -0.071 0.356 -0.102 0.407 -0.132 0.451 -0.161 0.492 -0.188 0.528 -0.214 0.56 -0.238 0.589 -0.263 0.613 -0.284 0.635 -0.305 0.653 -0.326 0.668 -0.344 0.678 -0.361 0.686 -0.377 0.691 -0.393 0.691 -0.406 0.689 -0.419 0.682 -0.431 0.674 -0.44 0.66 -0.449 0.645 -0.457 0.625 -0.463 0.602 -0.468 0.576 -0.471 0.546 -0.473 0.512 -0.474 0.475 -0.472 0.436 -0.469 0.391 -0.463 0.344 -0.455 1.224 0.868 -0.397 0.524 -0.44 0.521 -0.48 0.517 -0.516 0.513 -0.549 0.508 -0.58 0.502 -0.606 0.497 -0.631 0.49 -0.652 0.483 -0.669 0.474 -0.684 0.465 -0.695 0.455 -0.704 0.443 -0.708 0.431 -0.711 0.418 -0.708 0.403 -0.705 0.387 -0.696 0.371 -0.685 0.353 -0.672 0.335 -0.654 0.315 -0.633 0.293 -0.61 0.272 -0.584 0.248 -0.554 0.225 -0.522 0.199 -0.487 0.174 -0.451 0.146 -0.414 0.119 -0.376 0.089 -0.346 0.059 -0.327 0.022 0 0zm-7.04 2.218l-0.557 -1.393 0 0 0.197 -0.079 0.202 -0.083 0.208 -0.086 0.213 -0.087 0.218 -0.091 0.222 -0.093 0.227 -0.093 0.23 -0.095 0.234 -0.096 0.236 -0.096 0.239 -0.095 0.242 -0.096 0.244 -0.095 0.246 -0.094 0.247 -0.092 0.249 -0.09 0.249 -0.088 0.251 -0.085 0.251 -0.082 0.25 -0.079 0.251 -0.075 0.25 -0.071 0.25 -0.066 0.249 -0.061 0.248 -0.056 0.247 -0.05 0.246 -0.044 0.243 -0.037 0.242 -0.03 0.241 -0.022 0.239 -0.013 0.236 -0.005 0 1.5 -0.178 0.004 -0.186 0.01 -0.191 0.018 -0.199 0.025 -0.204 0.03 -0.208 0.037 -0.214 0.044 -0.218 0.049 -0.222 0.055 -0.224 0.059 -0.228 0.064 -0.23 0.069 -0.232 0.073 -0.234 0.076 -0.234 0.081 -0.236 0.083 -0.236 0.085 -0.236 0.088 -0.236 0.09 -0.235 0.092 -0.235 0.092 -0.233 0.094 -0.232 0.094 -0.229 0.094 -0.228 0.093 -0.224 0.093 -0.221 0.092 -0.22 0.091 -0.215 0.089 -0.211 0.087 -0.208 0.085 -0.203 0.082 0 0zm6.913 -0.931l0.255 1.478 0 0 -0.262 0.041 -0.283 0.037 -0.301 0.034 -0.318 0.03 -0.333 0.026 -0.347 0.023 -0.357 0.02 -0.365 0.016 -0.372 0.013 -0.376 0.01 -0.378 0.006 -0.376 0.002 -0.374 -0.001 -0.368 -0.005 -0.361 -0.008 -0.351 -0.012 -0.337 -0.017 -0.324 -0.02 -0.308 -0.024 -0.289 -0.029 -0.271 -0.033 -0.251 -0.039 -0.232 -0.046 -0.216 -0.057 -0.211 -0.075 -0.226 -0.123 -0.26 -0.263 -0.137 -0.526 0.174 -0.456 0.23 -0.225 0.221 -0.134 0.234 -0.105 0.557 1.393 -0.108 0.048 -0.019 0.01 0.086 -0.088 0.121 -0.329 -0.102 -0.407 -0.145 -0.153 -0.034 -0.021 0.053 0.018 0.113 0.03 0.16 0.031 0.198 0.031 0.23 0.028 0.256 0.025 0.281 0.023 0.301 0.018 0.318 0.016 0.332 0.011 0.344 0.008 0.353 0.005 0.359 0.001 0.363 -0.002 0.363 -0.006 0.362 -0.009 0.357 -0.013 0.351 -0.015 0.341 -0.019 0.328 -0.022 0.313 -0.025 0.295 -0.027 0.273 -0.031 0.249 -0.032 0.221 -0.035 0 0zm22.959 -3.954l0.266 1.477 0 0 -0.8 0.143 -0.819 0.146 -0.836 0.149 -0.85 0.15 -0.862 0.151 -0.871 0.153 -0.878 0.153 -0.883 0.153 -0.885 0.153 -0.884 0.153 -0.882 0.152 -0.876 0.151 -0.868 0.148 -0.859 0.147 -0.845 0.145 -0.831 0.141 -0.814 0.139 -0.792 0.134 -0.771 0.131 -0.746 0.127 -0.719 0.121 -0.689 0.117 -0.656 0.111 -0.622 0.105 -0.585 0.099 -0.545 0.092 -0.504 0.085 -0.458 0.078 -0.412 0.07 -0.362 0.061 -0.311 0.053 -0.255 0.044 -0.255 -1.478 0.258 -0.044 0.311 -0.053 0.363 -0.062 0.412 -0.07 0.459 -0.078 0.504 -0.085 0.545 -0.092 0.585 -0.099 0.622 -0.105 0.656 -0.111 0.689 -0.117 0.718 -0.121 0.746 -0.127 0.77 -0.131 0.793 -0.134 0.813 -0.138 0.83 -0.142 0.846 -0.144 0.857 -0.147 0.868 -0.149 0.876 -0.151 0.881 -0.151 0.883 -0.153 0.885 -0.153 0.882 -0.153 0.877 -0.153 0.87 -0.152 0.861 -0.152 0.849 -0.15 0.834 -0.147 0.818 -0.146 0.798 -0.144 0 0zm49.489 -8.229l0.212 1.485 -1.532 0.221 -1.536 0.224 -1.539 0.228 -1.543 0.231 -1.546 0.235 -1.548 0.237 -1.55 0.241 -1.552 0.244 -1.554 0.246 -1.555 0.249 -1.556 0.252 -1.558 0.254 -1.557 0.256 -1.558 0.258 -1.558 0.26 -1.557 0.262 -1.557 0.264 -1.556 0.264 -1.555 0.267 -1.553 0.268 -1.551 0.268 -1.55 0.27 -1.547 0.271 -1.544 0.271 -1.541 0.272 -1.538 0.272 -1.535 0.273 -1.53 0.273 -1.527 0.273 -1.522 0.273 -1.518 0.272 -1.512 0.272 -0.266 -1.477 1.513 -0.272 1.518 -0.272 1.523 -0.273 1.527 -0.273 1.532 -0.273 1.535 -0.272 1.539 -0.273 1.542 -0.272 1.545 -0.272 1.548 -0.271 1.551 -0.27 1.553 -0.268 1.554 -0.269 1.556 -0.266 1.558 -0.266 1.558 -0.263 1.559 -0.263 1.56 -0.26 1.56 -0.258 1.559 -0.257 1.559 -0.254 1.559 -0.252 1.557 -0.249 1.556 -0.247 1.555 -0.244 1.552 -0.241 1.551 -0.238 1.548 -0.235 1.545 -0.232 1.543 -0.228 1.539 -0.225 1.535 -0.221zm0 0c0.41,-0.058 0.79,0.227 0.849,0.637 0.058,0.41 -0.227,0.79 -0.637,0.848l-0.212 -1.485z"/>
  </g>
 </g>
</svg>
