<?xml version="1.0" encoding="UTF-8"?>
<!DOCTYPE svg PUBLIC "-//W3C//DTD SVG 1.1//EN" "http://www.w3.org/Graphics/SVG/1.1/DTD/svg11.dtd">
<!-- Creator: CorelDRAW 2019 (64-Bit) -->
<svg xmlns="http://www.w3.org/2000/svg" xml:space="preserve" width="200px" height="100px" version="1.1" style="shape-rendering:geometricPrecision; text-rendering:geometricPrecision; image-rendering:optimizeQuality; fill-rule:evenodd; clip-rule:evenodd"
viewBox="0 0 200 100"
 xmlns:xlink="http://www.w3.org/1999/xlink"
 xmlns:xodm="http://www.corel.com/coreldraw/odm/2003">
 <defs>
  <style type="text/css">
   <![CDATA[
    .fil0 {fill:black;fill-rule:nonzero}
   ]]>
  </style>
 </defs>
 <g id="Layer_x0020_1">
  <metadata id="CorelCorpID_0Corel-Layer"/>
  <g id="_2204234278992">
   <g>
    <path class="fil0" d="M61.034 84.184c0.28,-0.305 0.755,-0.324 1.059,-0.044 0.305,0.28 0.324,0.755 0.044,1.06l-1.103 -1.016zm-1.096 4.136l-1.399 -0.54 0 0 0.064 -0.158 0.072 -0.158 0.076 -0.157 0.082 -0.157 0.087 -0.156 0.09 -0.155 0.094 -0.154 0.097 -0.154 0.1 -0.151 0.101 -0.15 0.103 -0.148 0.103 -0.145 0.105 -0.143 0.104 -0.139 0.103 -0.136 0.102 -0.132 0.1 -0.127 0.098 -0.122 0.095 -0.117 0.091 -0.112 0.088 -0.105 0.083 -0.098 0.077 -0.091 0.072 -0.085 0.067 -0.076 0.059 -0.068 0.052 -0.059 0.043 -0.047 0.036 -0.04 0.027 -0.03 0.016 -0.018 0.008 -0.008 1.103 1.016 -0.003 0.003 -0.014 0.016 -0.022 0.024 -0.032 0.036 -0.041 0.046 -0.048 0.053 -0.054 0.063 -0.062 0.07 -0.066 0.078 -0.073 0.086 -0.078 0.092 -0.082 0.099 -0.085 0.103 -0.088 0.109 -0.092 0.114 -0.093 0.118 -0.094 0.122 -0.095 0.125 -0.095 0.128 -0.095 0.129 -0.094 0.132 -0.092 0.133 -0.09 0.132 -0.087 0.133 -0.084 0.132 -0.079 0.131 -0.076 0.129 -0.069 0.126 -0.064 0.122 -0.058 0.118 -0.05 0.112 -0.044 0.106 0 0zm0.688 0.742l0.853 1.233 0 0 -0.162 0.104 -0.165 0.091 -0.168 0.076 -0.171 0.062 -0.174 0.047 -0.174 0.03 -0.174 0.015 -0.173 -0.002 -0.171 -0.019 -0.167 -0.035 -0.161 -0.05 -0.152 -0.065 -0.145 -0.078 -0.134 -0.09 -0.124 -0.1 -0.115 -0.11 -0.104 -0.118 -0.094 -0.124 -0.084 -0.133 -0.073 -0.137 -0.062 -0.141 -0.053 -0.147 -0.042 -0.15 -0.031 -0.153 -0.022 -0.156 -0.011 -0.159 0 -0.16 0.01 -0.163 0.022 -0.163 0.034 -0.163 0.044 -0.162 0.056 -0.162 1.399 0.54 -0.023 0.066 -0.018 0.066 -0.013 0.064 -0.008 0.063 -0.004 0.061 0 0.06 0.004 0.058 0.008 0.056 0.011 0.053 0.014 0.05 0.016 0.045 0.019 0.043 0.021 0.039 0.02 0.033 0.023 0.03 0.022 0.025 0.022 0.021 0.023 0.019 0.021 0.014 0.021 0.011 0.021 0.009 0.021 0.007 0.023 0.005 0.025 0.002 0.03 0.001 0.036 -0.003 0.041 -0.008 0.048 -0.012 0.054 -0.02 0.063 -0.029 0.07 -0.038 0.077 -0.049 0 0zm36.663 -77.643l1.296 -0.754 0 0 0.472 1.202 0.211 1.433 -0.002 1.658 -0.193 1.881 -0.366 2.093 -0.528 2.294 -0.679 2.477 -0.82 2.644 -0.95 2.793 -1.07 2.922 -1.18 3.034 -1.279 3.125 -1.369 3.198 -1.447 3.252 -1.515 3.286 -1.574 3.3 -1.621 3.296 -1.66 3.272 -1.686 3.227 -1.703 3.165 -1.71 3.083 -1.706 2.98 -1.693 2.86 -1.669 2.718 -1.635 2.56 -1.591 2.38 -1.536 2.182 -1.475 1.966 -1.403 1.731 -1.324 1.48 -1.242 1.211 -1.163 0.927 -0.853 -1.233 1.018 -0.814 1.154 -1.126 1.267 -1.416 1.362 -1.682 1.445 -1.925 1.513 -2.15 1.573 -2.352 1.619 -2.535 1.655 -2.697 1.681 -2.839 1.696 -2.963 1.701 -3.065 1.694 -3.148 1.678 -3.212 1.651 -3.255 1.613 -3.279 1.566 -3.284 1.507 -3.268 1.439 -3.232 1.359 -3.178 1.27 -3.102 1.169 -3.008 1.059 -2.892 0.938 -2.757 0.807 -2.601 0.665 -2.424 0.513 -2.226 0.35 -2.003 0.18 -1.755 0.004 -1.477 -0.169 -1.163 -0.314 -0.815 0 0zm-22.691 22.635l-1.385 -0.578 0 0 0.655 -1.516 0.692 -1.496 0.726 -1.473 0.757 -1.447 0.784 -1.418 0.81 -1.386 0.831 -1.35 0.85 -1.312 0.867 -1.27 0.879 -1.226 0.89 -1.178 0.897 -1.128 0.903 -1.074 0.903 -1.017 0.904 -0.958 0.899 -0.895 0.894 -0.83 0.886 -0.76 0.875 -0.689 0.863 -0.615 0.848 -0.536 0.833 -0.455 0.817 -0.37 0.801 -0.28 0.785 -0.184 0.768 -0.079 0.748 0.035 0.719 0.161 0.676 0.293 0.614 0.426 0.539 0.55 0.459 0.666 -1.296 0.754 -0.324 -0.47 -0.348 -0.356 -0.375 -0.26 -0.408 -0.176 -0.452 -0.101 -0.506 -0.022 -0.561 0.058 -0.616 0.144 -0.663 0.233 -0.706 0.319 -0.742 0.406 -0.773 0.489 -0.8 0.569 -0.822 0.647 -0.839 0.722 -0.854 0.792 -0.864 0.86 -0.872 0.924 -0.875 0.985 -0.876 1.043 -0.874 1.098 -0.867 1.148 -0.858 1.197 -0.847 1.241 -0.831 1.282 -0.813 1.321 -0.792 1.355 -0.767 1.387 -0.74 1.416 -0.71 1.44 -0.676 1.462 -0.64 1.482 0 0zm3.072 35.009l-0.584 1.382 0 0 -0.944 -0.453 -0.885 -0.532 -0.824 -0.608 -0.763 -0.68 -0.703 -0.747 -0.642 -0.81 -0.583 -0.87 -0.525 -0.925 -0.469 -0.977 -0.413 -1.026 -0.358 -1.072 -0.306 -1.115 -0.254 -1.156 -0.204 -1.192 -0.154 -1.228 -0.105 -1.259 -0.058 -1.289 -0.011 -1.315 0.035 -1.34 0.081 -1.361 0.124 -1.379 0.168 -1.396 0.21 -1.409 0.254 -1.42 0.294 -1.427 0.335 -1.433 0.375 -1.435 0.414 -1.435 0.454 -1.431 0.49 -1.426 0.529 -1.417 0.565 -1.406 1.385 0.578 -0.552 1.37 -0.515 1.381 -0.478 1.39 -0.442 1.396 -0.404 1.398 -0.365 1.398 -0.326 1.394 -0.287 1.389 -0.245 1.378 -0.205 1.368 -0.163 1.352 -0.12 1.334 -0.077 1.313 -0.034 1.289 0.011 1.263 0.055 1.232 0.1 1.2 0.146 1.164 0.192 1.125 0.238 1.083 0.285 1.038 0.331 0.99 0.378 0.94 0.425 0.887 0.472 0.831 0.519 0.774 0.566 0.714 0.614 0.652 0.661 0.59 0.712 0.525 0.763 0.46 0.817 0.391 0 0zm9.644 -6.515l1.324 0.705 0 0 -0.343 0.617 -0.353 0.586 -0.364 0.556 -0.372 0.526 -0.381 0.497 -0.387 0.467 -0.393 0.44 -0.398 0.412 -0.402 0.385 -0.405 0.359 -0.407 0.333 -0.408 0.307 -0.408 0.283 -0.406 0.258 -0.405 0.235 -0.402 0.212 -0.398 0.19 -0.392 0.168 -0.387 0.147 -0.38 0.126 -0.372 0.107 -0.364 0.087 -0.354 0.068 -0.345 0.051 -0.333 0.032 -0.322 0.015 -0.31 -0.002 -0.298 -0.019 -0.285 -0.036 -0.272 -0.053 -0.26 -0.071 -0.246 -0.091 0.584 -1.382 0.118 0.044 0.144 0.039 0.167 0.033 0.189 0.024 0.21 0.013 0.228 0.001 0.245 -0.011 0.26 -0.025 0.275 -0.04 0.288 -0.056 0.299 -0.072 0.31 -0.088 0.32 -0.107 0.329 -0.125 0.336 -0.143 0.343 -0.164 0.347 -0.183 0.353 -0.205 0.356 -0.227 0.359 -0.248 0.361 -0.272 0.36 -0.295 0.362 -0.32 0.36 -0.344 0.357 -0.37 0.355 -0.398 0.351 -0.424 0.346 -0.451 0.34 -0.481 0.334 -0.509 0.325 -0.54 0.317 -0.571 0 0zm9.178 -24.703l1.482 0.227 0 0 -0.113 0.68 -0.134 0.704 -0.153 0.725 -0.172 0.746 -0.19 0.764 -0.207 0.781 -0.223 0.796 -0.238 0.811 -0.252 0.822 -0.265 0.833 -0.278 0.842 -0.29 0.849 -0.299 0.854 -0.31 0.858 -0.319 0.86 -0.326 0.86 -0.333 0.859 -0.34 0.856 -0.344 0.851 -0.349 0.844 -0.353 0.836 -0.355 0.826 -0.356 0.814 -0.357 0.8 -0.358 0.785 -0.356 0.769 -0.354 0.749 -0.352 0.729 -0.347 0.707 -0.344 0.683 -0.337 0.658 -0.332 0.63 -1.324 -0.705 0.325 -0.617 0.331 -0.645 0.338 -0.672 0.342 -0.695 0.346 -0.719 0.35 -0.74 0.351 -0.758 0.353 -0.775 0.353 -0.791 0.352 -0.804 0.351 -0.817 0.348 -0.826 0.345 -0.834 0.341 -0.841 0.336 -0.845 0.329 -0.849 0.322 -0.849 0.314 -0.849 0.305 -0.846 0.296 -0.842 0.285 -0.835 0.273 -0.828 0.26 -0.817 0.248 -0.807 0.232 -0.792 0.218 -0.778 0.201 -0.759 0.184 -0.741 0.167 -0.72 0.147 -0.696 0.127 -0.672 0.108 -0.644 0 0zm-0.104 -3.174l-1.418 -0.489 0 0 0.191 -0.543 0.183 -0.494 0.176 -0.448 0.168 -0.404 0.162 -0.361 0.156 -0.319 0.153 -0.281 0.151 -0.246 0.158 -0.218 0.18 -0.195 0.232 -0.175 0.346 -0.128 0.445 0.035 0.354 0.217 0.196 0.257 0.109 0.244 0.068 0.243 0.047 0.255 0.032 0.277 0.019 0.301 0.01 0.329 -0.002 0.359 -0.01 0.389 -0.02 0.418 -0.029 0.448 -0.039 0.477 -0.049 0.507 -0.058 0.534 -0.067 0.563 -0.076 0.59 -0.086 0.617 -0.096 0.642 -1.482 -0.227 0.093 -0.63 0.084 -0.602 0.075 -0.576 0.065 -0.546 0.056 -0.518 0.047 -0.486 0.036 -0.456 0.029 -0.423 0.018 -0.39 0.01 -0.354 0 -0.317 -0.007 -0.28 -0.016 -0.237 -0.022 -0.193 -0.025 -0.14 -0.022 -0.08 0.001 -0.002 0.069 0.087 0.209 0.125 0.283 0.023 0.164 -0.058 0.034 -0.023 -0.037 0.041 -0.076 0.106 -0.101 0.163 -0.118 0.218 -0.132 0.27 -0.143 0.32 -0.155 0.371 -0.165 0.42 -0.175 0.472 -0.183 0.521 0 0zm-2.195 18.694l0.993 1.123 0 0 -0.506 0.398 -0.504 0.284 -0.535 0.155 -0.569 -0.027 -0.516 -0.242 -0.373 -0.386 -0.246 -0.452 -0.165 -0.5 -0.108 -0.55 -0.066 -0.603 -0.03 -0.657 0.002 -0.71 0.031 -0.757 0.057 -0.803 0.082 -0.84 0.104 -0.875 0.124 -0.903 0.142 -0.925 0.159 -0.942 0.174 -0.951 0.186 -0.956 0.197 -0.954 0.205 -0.947 0.213 -0.933 0.217 -0.912 0.221 -0.886 0.222 -0.854 0.221 -0.816 0.219 -0.771 0.215 -0.721 0.209 -0.666 0.202 -0.604 1.418 0.489 -0.193 0.576 -0.201 0.643 -0.209 0.702 -0.215 0.753 -0.217 0.8 -0.218 0.839 -0.216 0.871 -0.214 0.898 -0.21 0.918 -0.202 0.931 -0.194 0.939 -0.182 0.939 -0.17 0.933 -0.156 0.921 -0.139 0.902 -0.121 0.878 -0.1 0.845 -0.078 0.806 -0.055 0.76 -0.028 0.707 -0.002 0.646 0.026 0.574 0.054 0.495 0.077 0.399 0.095 0.291 0.086 0.165 0.039 0.046 -0.021 -0.008 0.012 -0.001 0.137 -0.043 0.261 -0.149 0.359 -0.282 0 0zm6.689 -14.941l-1.434 -0.437 0 0 0.1 -0.282 0.171 -0.293 0.733 -0.309 0.627 0.457 0.101 0.31 0.037 0.274 0.016 0.307 0.001 0.354 -0.013 0.404 -0.028 0.455 -0.043 0.502 -0.059 0.545 -0.076 0.585 -0.093 0.622 -0.112 0.653 -0.131 0.681 -0.151 0.705 -0.173 0.724 -0.193 0.739 -0.217 0.751 -0.241 0.758 -0.265 0.759 -0.291 0.758 -0.317 0.752 -0.345 0.743 -0.374 0.727 -0.404 0.709 -0.436 0.687 -0.469 0.659 -0.503 0.627 -0.538 0.59 -0.576 0.548 -0.993 -1.123 0.497 -0.474 0.47 -0.516 0.446 -0.556 0.421 -0.592 0.395 -0.623 0.371 -0.65 0.345 -0.673 0.322 -0.691 0.297 -0.704 0.273 -0.714 0.251 -0.718 0.228 -0.718 0.206 -0.714 0.185 -0.705 0.165 -0.691 0.144 -0.673 0.125 -0.65 0.107 -0.624 0.089 -0.591 0.072 -0.555 0.056 -0.513 0.039 -0.467 0.026 -0.415 0.011 -0.358 0 -0.291 -0.012 -0.215 -0.014 -0.113 0.028 0.067 0.532 0.364 0.621 -0.242 0.039 -0.057 -0.046 0.131 0 0zm-0.089 6.47l-0.337 1.461 0 0 -0.297 -0.108 -0.252 -0.167 -0.199 -0.201 -0.155 -0.218 -0.122 -0.229 -0.099 -0.238 -0.081 -0.249 -0.068 -0.26 -0.055 -0.27 -0.045 -0.281 -0.035 -0.29 -0.028 -0.298 -0.021 -0.307 -0.014 -0.312 -0.007 -0.318 -0.001 -0.321 0.004 -0.322 0.009 -0.323 0.013 -0.321 0.018 -0.319 0.022 -0.314 0.025 -0.307 0.029 -0.299 0.031 -0.29 0.033 -0.279 0.036 -0.265 0.038 -0.252 0.039 -0.236 0.041 -0.219 0.042 -0.201 0.043 -0.185 0.048 -0.169 1.434 0.437 -0.028 0.105 -0.033 0.137 -0.035 0.166 -0.035 0.188 -0.034 0.21 -0.035 0.229 -0.033 0.245 -0.031 0.259 -0.029 0.271 -0.026 0.28 -0.024 0.289 -0.021 0.294 -0.016 0.298 -0.013 0.301 -0.009 0.301 -0.003 0.298 0.001 0.294 0.006 0.288 0.013 0.28 0.018 0.27 0.024 0.256 0.03 0.241 0.035 0.223 0.041 0.202 0.046 0.178 0.049 0.15 0.048 0.118 0.043 0.082 0.03 0.043 0.007 0.007 -0.026 -0.016 -0.049 -0.017 0 0zm2.174 -5.338l1.461 0.337 0 0 -0.043 0.186 -0.049 0.199 -0.053 0.211 -0.058 0.222 -0.062 0.231 -0.067 0.24 -0.071 0.248 -0.075 0.253 -0.079 0.258 -0.083 0.261 -0.087 0.264 -0.091 0.265 -0.095 0.264 -0.098 0.263 -0.102 0.26 -0.106 0.257 -0.109 0.251 -0.113 0.246 -0.117 0.239 -0.122 0.23 -0.125 0.222 -0.132 0.213 -0.137 0.201 -0.145 0.19 -0.155 0.179 -0.168 0.166 -0.184 0.151 -0.205 0.131 -0.23 0.106 -0.256 0.07 -0.276 0.02 -0.279 -0.035 0.337 -1.461 -0.022 -0.003 -0.02 0.001 -0.002 0 0.023 -0.011 0.045 -0.029 0.063 -0.053 0.077 -0.076 0.086 -0.1 0.093 -0.122 0.097 -0.142 0.099 -0.16 0.1 -0.177 0.1 -0.191 0.1 -0.203 0.099 -0.214 0.097 -0.223 0.095 -0.232 0.093 -0.237 0.09 -0.242 0.088 -0.246 0.085 -0.247 0.082 -0.247 0.079 -0.247 0.074 -0.243 0.071 -0.241 0.068 -0.234 0.063 -0.228 0.059 -0.22 0.055 -0.211 0.05 -0.199 0.046 -0.188 0.041 -0.173 0 0zm0.883 -0.168l-1.449 -0.384 0 0 0.047 -0.172 0.05 -0.162 0.05 -0.151 0.051 -0.141 0.053 -0.132 0.056 -0.124 0.059 -0.116 0.063 -0.11 0.072 -0.107 0.083 -0.104 0.106 -0.106 0.148 -0.107 0.204 -0.088 0.27 -0.034 0.289 0.063 0.229 0.14 0.147 0.162 0.088 0.15 0.055 0.138 0.035 0.128 0.022 0.121 0.014 0.124 0.008 0.126 0.001 0.128 -0.003 0.134 -0.009 0.14 -0.014 0.147 -0.019 0.154 -0.023 0.161 -0.03 0.168 -0.034 0.176 -0.041 0.183 -1.461 -0.337 0.033 -0.152 0.029 -0.144 0.023 -0.134 0.018 -0.124 0.014 -0.113 0.01 -0.102 0.005 -0.09 0.002 -0.079 0 -0.066 -0.003 -0.048 -0.004 -0.032 -0.003 -0.015 0.004 0.011 0.017 0.043 0.045 0.075 0.097 0.106 0.175 0.107 0.229 0.05 0.207 -0.026 0.136 -0.059 0.076 -0.054 0.032 -0.031 0.005 -0.007 -0.008 0.012 -0.018 0.033 -0.026 0.05 -0.029 0.066 -0.033 0.082 -0.036 0.097 -0.037 0.112 -0.038 0.125 -0.039 0.139 0 0zm1.397 1.94l1.151 0.962 0 0 -0.191 0.212 -0.2 0.187 -0.21 0.162 -0.22 0.135 -0.231 0.107 -0.241 0.074 -0.246 0.041 -0.245 0.005 -0.24 -0.029 -0.228 -0.06 -0.213 -0.087 -0.197 -0.109 -0.181 -0.127 -0.165 -0.141 -0.151 -0.154 -0.138 -0.165 -0.126 -0.174 -0.115 -0.182 -0.104 -0.189 -0.093 -0.196 -0.083 -0.201 -0.072 -0.206 -0.064 -0.211 -0.052 -0.214 -0.042 -0.217 -0.03 -0.22 -0.02 -0.221 -0.007 -0.221 0.005 -0.223 0.02 -0.223 0.033 -0.22 0.05 -0.219 1.449 0.384 -0.025 0.112 -0.018 0.121 -0.011 0.127 -0.003 0.133 0.005 0.139 0.012 0.142 0.02 0.143 0.028 0.143 0.034 0.142 0.041 0.138 0.048 0.135 0.054 0.129 0.057 0.121 0.062 0.112 0.064 0.103 0.067 0.092 0.066 0.079 0.065 0.066 0.06 0.053 0.057 0.039 0.049 0.028 0.041 0.016 0.035 0.01 0.03 0.004 0.032 -0.001 0.037 -0.006 0.048 -0.015 0.061 -0.028 0.076 -0.047 0.091 -0.069 0.101 -0.096 0.113 -0.125 0 0zm1.907 -7.596l1.497 -0.096 0 0 0.009 0.186 0.004 0.198 0 0.21 -0.004 0.222 -0.009 0.234 -0.013 0.244 -0.018 0.255 -0.023 0.264 -0.026 0.273 -0.032 0.28 -0.037 0.287 -0.041 0.293 -0.046 0.298 -0.051 0.302 -0.057 0.305 -0.061 0.307 -0.067 0.309 -0.073 0.309 -0.078 0.308 -0.084 0.307 -0.09 0.305 -0.096 0.301 -0.102 0.298 -0.109 0.293 -0.115 0.287 -0.123 0.28 -0.13 0.274 -0.138 0.265 -0.146 0.255 -0.156 0.247 -0.165 0.235 -0.176 0.223 -1.151 -0.962 0.123 -0.156 0.121 -0.172 0.118 -0.187 0.116 -0.202 0.112 -0.215 0.108 -0.227 0.104 -0.238 0.1 -0.248 0.095 -0.256 0.09 -0.264 0.086 -0.27 0.081 -0.276 0.076 -0.279 0.072 -0.282 0.067 -0.284 0.061 -0.285 0.057 -0.284 0.053 -0.284 0.048 -0.28 0.042 -0.277 0.039 -0.272 0.033 -0.267 0.03 -0.259 0.025 -0.252 0.02 -0.243 0.016 -0.231 0.012 -0.222 0.008 -0.208 0.004 -0.194 0 -0.179 -0.003 -0.161 -0.007 -0.142 0 0zm-1.586 -0.222l-0.489 -1.418 0 0 0.269 -0.093 0.252 -0.086 0.233 -0.078 0.217 -0.072 0.202 -0.065 0.188 -0.057 0.174 -0.05 0.164 -0.044 0.156 -0.038 0.15 -0.03 0.145 -0.022 0.146 -0.014 0.152 -0.001 0.162 0.016 0.175 0.042 0.179 0.076 0.17 0.115 0.142 0.146 0.103 0.157 0.068 0.151 0.043 0.142 0.027 0.13 0.015 0.121 0.01 0.116 0.005 0.114 0.003 0.114 0.002 0.116 0.002 0.117 0.002 0.123 0.003 0.127 0.005 0.132 0.008 0.139 -1.497 0.096 -0.009 -0.164 -0.006 -0.155 -0.004 -0.143 -0.002 -0.131 -0.002 -0.119 -0.001 -0.106 -0.003 -0.09 -0.004 -0.076 -0.004 -0.056 -0.004 -0.035 -0.002 -0.01 0.006 0.018 0.02 0.042 0.042 0.064 0.068 0.07 0.081 0.055 0.072 0.03 0.05 0.013 0.018 0.002 -0.013 0 -0.043 0.004 -0.067 0.011 -0.089 0.018 -0.109 0.026 -0.13 0.035 -0.15 0.043 -0.168 0.052 -0.187 0.06 -0.207 0.068 -0.226 0.076 -0.246 0.084 -0.267 0.092 0 0zm-4.118 -1.563l1.177 0.93 0 0.001 -0.152 0.196 -0.126 0.174 -0.102 0.151 -0.076 0.124 -0.05 0.095 -0.027 0.061 -0.006 0.017 0.005 -0.042 -0.008 -0.109 -0.059 -0.157 -0.114 -0.142 -0.12 -0.079 -0.075 -0.027 -0.019 -0.004 0.028 0.001 0.064 -0.005 0.092 -0.012 0.118 -0.022 0.137 -0.031 0.156 -0.039 0.171 -0.048 0.186 -0.056 0.199 -0.062 0.21 -0.069 0.222 -0.074 0.232 -0.08 0.242 -0.084 0.25 -0.087 0.258 -0.091 0.266 -0.093 0.272 -0.095 0.278 -0.097 0.489 1.418 -0.273 0.095 -0.27 0.094 -0.264 0.093 -0.259 0.091 -0.253 0.089 -0.246 0.085 -0.24 0.082 -0.232 0.078 -0.225 0.074 -0.217 0.067 -0.208 0.063 -0.201 0.056 -0.193 0.049 -0.186 0.041 -0.181 0.034 -0.178 0.023 -0.178 0.012 -0.184 -0.004 -0.202 -0.031 -0.225 -0.077 -0.236 -0.155 -0.197 -0.242 -0.105 -0.285 -0.019 -0.265 0.033 -0.227 0.061 -0.199 0.081 -0.187 0.099 -0.187 0.116 -0.19 0.134 -0.199 0.154 -0.213 0.176 -0.228 0 0zm11.301 -6.732l0.548 1.396 0 0 -0.264 0.105 -0.285 0.117 -0.303 0.127 -0.32 0.137 -0.335 0.147 -0.348 0.156 -0.36 0.164 -0.371 0.173 -0.38 0.18 -0.387 0.186 -0.393 0.193 -0.398 0.2 -0.401 0.204 -0.402 0.21 -0.402 0.214 -0.4 0.218 -0.398 0.222 -0.393 0.225 -0.386 0.226 -0.38 0.229 -0.37 0.23 -0.359 0.23 -0.346 0.231 -0.333 0.23 -0.317 0.228 -0.3 0.227 -0.281 0.224 -0.26 0.22 -0.238 0.214 -0.214 0.209 -0.188 0.2 -0.16 0.19 -1.177 -0.93 0.216 -0.257 0.239 -0.254 0.258 -0.252 0.278 -0.251 0.295 -0.249 0.313 -0.249 0.328 -0.249 0.343 -0.247 0.356 -0.246 0.368 -0.244 0.378 -0.243 0.388 -0.241 0.396 -0.239 0.401 -0.236 0.408 -0.232 0.411 -0.229 0.413 -0.225 0.413 -0.221 0.414 -0.216 0.412 -0.21 0.407 -0.204 0.404 -0.199 0.398 -0.191 0.389 -0.185 0.38 -0.176 0.371 -0.169 0.358 -0.16 0.345 -0.152 0.331 -0.142 0.314 -0.131 0.297 -0.122 0.279 -0.111 0 0zm3.21 1.378l-1.35 -0.653 0.044 -0.093 0.041 -0.088 0.035 -0.078 0.028 -0.068 0.023 -0.06 0.016 -0.047 0.009 -0.031 0.004 -0.015 -0.001 0.01 -0.001 0.041 0.009 0.068 0.03 0.097 0.063 0.111 0.093 0.1 0.097 0.066 0.076 0.031 0.047 0.011 0.015 0.002 -0.014 0 -0.039 0.003 -0.062 0.008 -0.081 0.016 -0.1 0.022 -0.117 0.03 -0.134 0.038 -0.15 0.046 -0.166 0.054 -0.183 0.063 -0.199 0.07 -0.215 0.08 -0.232 0.087 -0.248 0.097 -0.548 -1.396 0.259 -0.101 0.244 -0.092 0.229 -0.085 0.215 -0.077 0.201 -0.068 0.19 -0.062 0.178 -0.055 0.167 -0.047 0.159 -0.041 0.15 -0.033 0.144 -0.026 0.14 -0.019 0.14 -0.011 0.144 0.001 0.15 0.015 0.164 0.038 0.171 0.071 0.176 0.118 0.152 0.164 0.106 0.187 0.057 0.186 0.021 0.168 -0.004 0.151 -0.018 0.133 -0.026 0.118 -0.032 0.111 -0.036 0.108 -0.04 0.103 -0.044 0.106 -0.047 0.104 -0.048 0.105 -0.052 0.108zm0 0c-0.18,0.372 -0.629,0.529 -1.001,0.348 -0.373,-0.18 -0.529,-0.629 -0.349,-1.001l1.35 0.653z"/>
   </g>
   <g>
    <path class="fil0" d="M72.673 82.409c-0.297,0.288 -0.772,0.28 -1.06,-0.018 -0.288,-0.297 -0.28,-0.772 0.018,-1.06l1.042 1.078zm29.706 -30.553l1.016 1.103 0 0 -0.558 0.517 -0.667 0.624 -0.769 0.724 -0.861 0.814 -0.945 0.897 -1.021 0.971 -1.089 1.038 -1.148 1.096 -1.198 1.146 -1.241 1.188 -1.275 1.222 -1.301 1.248 -1.319 1.266 -1.327 1.276 -1.329 1.277 -1.321 1.271 -1.306 1.256 -1.281 1.234 -1.249 1.203 -1.209 1.165 -1.159 1.118 -1.102 1.063 -1.037 1 -0.963 0.929 -0.881 0.85 -0.79 0.763 -0.691 0.667 -0.584 0.565 -0.469 0.453 -0.346 0.333 -0.213 0.206 -0.073 0.07 -1.042 -1.078 0.073 -0.071 0.213 -0.206 0.346 -0.333 0.468 -0.453 0.585 -0.565 0.691 -0.668 0.791 -0.763 0.881 -0.85 0.962 -0.929 1.037 -1 1.103 -1.063 1.16 -1.118 1.208 -1.165 1.25 -1.203 1.281 -1.234 1.306 -1.257 1.321 -1.271 1.329 -1.278 1.328 -1.276 1.319 -1.266 1.301 -1.249 1.276 -1.222 1.242 -1.189 1.199 -1.147 1.149 -1.096 1.089 -1.039 1.023 -0.973 0.947 -0.898 0.863 -0.816 0.771 -0.726 0.672 -0.629 0.564 -0.522 0 0zm11.75 -11.143l1.185 0.92 -0.001 0.001 -0.081 0.094 -0.086 0.091 -0.113 0.115 -0.141 0.142 -0.171 0.169 -0.198 0.195 -0.226 0.22 -0.251 0.245 -0.276 0.268 -0.3 0.29 -0.323 0.311 -0.343 0.33 -0.364 0.349 -0.382 0.366 -0.4 0.382 -0.415 0.397 -0.432 0.41 -0.444 0.423 -0.457 0.433 -0.468 0.444 -0.479 0.453 -0.487 0.459 -0.495 0.466 -0.501 0.471 -0.506 0.475 -0.51 0.477 -0.512 0.479 -0.514 0.479 -0.514 0.478 -0.512 0.475 -0.511 0.472 -0.506 0.467 -1.016 -1.103 0.505 -0.466 0.508 -0.47 0.512 -0.475 0.512 -0.476 0.512 -0.477 0.511 -0.478 0.509 -0.477 0.505 -0.473 0.5 -0.47 0.494 -0.465 0.486 -0.459 0.477 -0.451 0.468 -0.443 0.456 -0.433 0.444 -0.421 0.43 -0.41 0.415 -0.395 0.398 -0.382 0.381 -0.365 0.363 -0.347 0.342 -0.329 0.321 -0.31 0.298 -0.289 0.275 -0.266 0.249 -0.242 0.223 -0.218 0.194 -0.192 0.166 -0.164 0.134 -0.134 0.101 -0.103 0.062 -0.065 0 0.002 -0.001 0zm0.445 3.273l-1.4 -0.538 0 0 0.049 -0.129 0.05 -0.13 0.05 -0.129 0.049 -0.129 0.049 -0.128 0.048 -0.126 0.047 -0.124 0.046 -0.124 0.046 -0.121 0.044 -0.117 0.043 -0.115 0.041 -0.112 0.039 -0.108 0.038 -0.103 0.035 -0.098 0.033 -0.094 0.031 -0.088 0.028 -0.081 0.024 -0.075 0.022 -0.068 0.019 -0.061 0.015 -0.05 0.01 -0.037 0.006 -0.025 0.002 -0.005 -0.004 0.031 -0.001 0.104 0.092 0.299 0.634 0.375 0.415 -0.122 0.112 -0.093 0.028 -0.032 -1.185 -0.92 0.069 -0.081 0.144 -0.121 0.439 -0.131 0.649 0.385 0.099 0.327 -0.002 0.15 -0.013 0.094 -0.015 0.074 -0.017 0.07 -0.02 0.072 -0.022 0.074 -0.024 0.076 -0.026 0.081 -0.029 0.087 -0.031 0.092 -0.034 0.096 -0.035 0.1 -0.037 0.104 -0.039 0.108 -0.041 0.112 -0.043 0.115 -0.044 0.118 -0.045 0.121 -0.046 0.122 -0.047 0.125 -0.048 0.127 -0.049 0.128 -0.049 0.129 -0.05 0.13 -0.05 0.129 -0.05 0.131 -0.049 0.129 0 0zm-4.572 10.243l-1.301 -0.747 0 0 0.087 -0.155 0.101 -0.19 0.113 -0.221 0.123 -0.248 0.134 -0.273 0.141 -0.296 0.15 -0.316 0.156 -0.334 0.161 -0.35 0.167 -0.364 0.17 -0.376 0.173 -0.385 0.176 -0.393 0.177 -0.398 0.177 -0.401 0.178 -0.403 0.175 -0.402 0.174 -0.399 0.171 -0.395 0.168 -0.387 0.162 -0.379 0.157 -0.367 0.151 -0.354 0.144 -0.339 0.135 -0.322 0.127 -0.302 0.117 -0.281 0.107 -0.258 0.095 -0.231 0.082 -0.204 0.069 -0.172 0.055 -0.139 1.4 0.538 -0.06 0.152 -0.072 0.182 -0.085 0.209 -0.097 0.237 -0.109 0.261 -0.118 0.284 -0.128 0.306 -0.137 0.324 -0.144 0.341 -0.152 0.357 -0.158 0.369 -0.164 0.381 -0.168 0.39 -0.172 0.396 -0.175 0.402 -0.177 0.405 -0.178 0.405 -0.179 0.404 -0.178 0.402 -0.177 0.395 -0.175 0.389 -0.172 0.38 -0.169 0.368 -0.164 0.355 -0.159 0.341 -0.152 0.323 -0.146 0.304 -0.138 0.284 -0.131 0.261 -0.121 0.237 -0.113 0.212 -0.104 0.187 0 0zm-0.002 -5.255l1.176 0.932 0 0 -0.143 0.188 -0.136 0.196 -0.131 0.205 -0.125 0.212 -0.119 0.218 -0.112 0.221 -0.105 0.223 -0.098 0.225 -0.092 0.224 -0.083 0.223 -0.077 0.219 -0.069 0.215 -0.062 0.208 -0.054 0.2 -0.046 0.191 -0.039 0.179 -0.031 0.166 -0.023 0.151 -0.016 0.132 -0.008 0.112 -0.002 0.084 0.002 0.051 0 0.006 -0.02 -0.062 -0.096 -0.154 -0.284 -0.192 -0.362 -0.022 -0.195 0.081 -0.06 0.046 0.007 -0.009 0.042 -0.058 0.062 -0.103 1.301 0.747 -0.108 0.177 -0.114 0.16 -0.131 0.149 -0.182 0.148 -0.301 0.128 -0.453 -0.027 -0.358 -0.245 -0.154 -0.253 -0.062 -0.205 -0.026 -0.179 -0.008 -0.171 0.004 -0.174 0.014 -0.181 0.022 -0.189 0.031 -0.2 0.039 -0.209 0.047 -0.22 0.055 -0.228 0.064 -0.236 0.072 -0.243 0.08 -0.248 0.089 -0.254 0.097 -0.258 0.106 -0.26 0.114 -0.262 0.123 -0.262 0.133 -0.262 0.142 -0.259 0.151 -0.255 0.16 -0.252 0.172 -0.246 0.18 -0.239 0 0zm5.597 -3.167l-0.382 1.451 0 0 0.016 0.003 -0.009 -0.001 -0.032 0 -0.05 0.003 -0.065 0.007 -0.077 0.012 -0.089 0.019 -0.101 0.024 -0.109 0.03 -0.116 0.037 -0.123 0.043 -0.13 0.05 -0.137 0.056 -0.141 0.063 -0.147 0.07 -0.15 0.076 -0.153 0.083 -0.157 0.089 -0.16 0.097 -0.161 0.103 -0.165 0.111 -0.164 0.117 -0.165 0.124 -0.166 0.131 -0.166 0.137 -0.165 0.145 -0.164 0.152 -0.163 0.159 -0.161 0.166 -0.159 0.174 -0.157 0.18 -0.153 0.188 -1.176 -0.932 0.182 -0.222 0.184 -0.213 0.187 -0.204 0.19 -0.196 0.192 -0.187 0.194 -0.179 0.195 -0.171 0.195 -0.163 0.196 -0.154 0.196 -0.147 0.195 -0.139 0.194 -0.13 0.193 -0.124 0.191 -0.115 0.189 -0.109 0.187 -0.1 0.184 -0.094 0.181 -0.086 0.177 -0.078 0.173 -0.072 0.17 -0.065 0.165 -0.058 0.162 -0.05 0.156 -0.044 0.152 -0.037 0.149 -0.03 0.146 -0.023 0.142 -0.016 0.14 -0.007 0.142 0.002 0.146 0.014 0.152 0.03 0 0zm1.563 3.002l-0.911 1.192 0 0 -0.129 -0.114 -0.106 -0.118 -0.088 -0.12 -0.075 -0.123 -0.063 -0.121 -0.057 -0.122 -0.05 -0.123 -0.046 -0.123 -0.042 -0.125 -0.038 -0.123 -0.037 -0.125 -0.035 -0.125 -0.033 -0.123 -0.032 -0.124 -0.032 -0.121 -0.03 -0.119 -0.031 -0.117 -0.03 -0.111 -0.029 -0.106 -0.03 -0.101 -0.03 -0.094 -0.029 -0.086 -0.029 -0.077 -0.027 -0.066 -0.025 -0.053 -0.022 -0.041 -0.014 -0.023 -0.004 -0.006 0.009 0.01 0.028 0.021 0.051 0.03 0.071 0.026 0.382 -1.451 0.192 0.071 0.167 0.098 0.135 0.11 0.112 0.119 0.093 0.122 0.076 0.121 0.064 0.119 0.058 0.122 0.05 0.122 0.046 0.122 0.042 0.123 0.039 0.124 0.036 0.124 0.035 0.124 0.033 0.124 0.032 0.122 0.032 0.121 0.031 0.119 0.03 0.116 0.03 0.113 0.03 0.108 0.03 0.103 0.03 0.096 0.03 0.088 0.029 0.079 0.028 0.069 0.026 0.057 0.024 0.045 0.016 0.028 0.01 0.013 -0.003 -0.003 -0.02 -0.017 0 0zm3.078 -5.636l1.464 0.327 0 0 -0.032 0.132 -0.041 0.154 -0.051 0.177 -0.061 0.201 -0.07 0.222 -0.079 0.242 -0.089 0.26 -0.097 0.274 -0.105 0.287 -0.114 0.299 -0.121 0.306 -0.128 0.312 -0.135 0.316 -0.142 0.317 -0.149 0.316 -0.155 0.313 -0.161 0.307 -0.167 0.3 -0.174 0.29 -0.181 0.279 -0.188 0.265 -0.196 0.251 -0.207 0.232 -0.219 0.214 -0.236 0.192 -0.257 0.165 -0.284 0.132 -0.313 0.085 -0.337 0.023 -0.343 -0.052 -0.326 -0.124 -0.295 -0.186 0.911 -1.192 0.062 0.04 0.033 0.012 0.018 0.003 0.023 -0.003 0.048 -0.013 0.075 -0.036 0.101 -0.065 0.119 -0.098 0.133 -0.13 0.141 -0.159 0.146 -0.187 0.149 -0.21 0.149 -0.231 0.149 -0.248 0.147 -0.263 0.144 -0.275 0.14 -0.283 0.137 -0.29 0.131 -0.293 0.126 -0.295 0.12 -0.292 0.114 -0.288 0.106 -0.28 0.1 -0.271 0.091 -0.259 0.083 -0.243 0.074 -0.226 0.065 -0.205 0.055 -0.183 0.045 -0.155 0.034 -0.124 0.02 -0.086 0 0zm-1.985 -1.853l0.143 -1.494 0 0 0.215 0.028 0.211 0.04 0.203 0.052 0.197 0.063 0.189 0.074 0.181 0.082 0.174 0.091 0.166 0.099 0.158 0.105 0.151 0.112 0.143 0.117 0.135 0.121 0.127 0.125 0.121 0.128 0.113 0.131 0.105 0.133 0.099 0.135 0.091 0.136 0.085 0.135 0.078 0.137 0.071 0.136 0.064 0.135 0.058 0.134 0.05 0.135 0.045 0.132 0.037 0.133 0.03 0.131 0.022 0.132 0.015 0.135 0.004 0.135 -0.008 0.143 -0.024 0.149 -1.464 -0.327 -0.004 0.023 0 0.001 -0.001 -0.018 -0.003 -0.032 -0.008 -0.045 -0.013 -0.056 -0.017 -0.063 -0.023 -0.07 -0.029 -0.075 -0.034 -0.08 -0.04 -0.083 -0.045 -0.086 -0.049 -0.087 -0.055 -0.089 -0.06 -0.088 -0.064 -0.087 -0.069 -0.087 -0.073 -0.085 -0.077 -0.082 -0.081 -0.08 -0.085 -0.076 -0.088 -0.072 -0.092 -0.068 -0.095 -0.064 -0.098 -0.058 -0.102 -0.053 -0.105 -0.048 -0.107 -0.042 -0.112 -0.036 -0.114 -0.029 -0.119 -0.023 -0.123 -0.015 0 0zm-0.194 -4.2l0.706 1.323 0 0 -0.114 0.065 -0.107 0.067 -0.099 0.07 -0.092 0.072 -0.085 0.074 -0.077 0.074 -0.07 0.075 -0.063 0.074 -0.053 0.073 -0.047 0.073 -0.039 0.067 -0.031 0.065 -0.024 0.06 -0.017 0.055 -0.011 0.049 -0.006 0.041 -0.001 0.036 0.001 0.029 0.003 0.021 0.005 0.017 0.005 0.013 0.006 0.011 0.01 0.014 0.013 0.015 0.02 0.019 0.03 0.021 0.042 0.024 0.055 0.026 0.07 0.025 0.087 0.023 0.101 0.02 0.119 0.015 -0.143 1.494 -0.213 -0.027 -0.205 -0.041 -0.196 -0.053 -0.187 -0.067 -0.178 -0.083 -0.167 -0.097 -0.157 -0.113 -0.143 -0.129 -0.126 -0.143 -0.109 -0.155 -0.089 -0.166 -0.069 -0.174 -0.048 -0.177 -0.028 -0.18 -0.01 -0.178 0.008 -0.176 0.024 -0.174 0.039 -0.17 0.051 -0.166 0.064 -0.161 0.076 -0.158 0.087 -0.153 0.096 -0.148 0.107 -0.144 0.116 -0.139 0.125 -0.135 0.135 -0.13 0.143 -0.124 0.153 -0.119 0.161 -0.114 0.169 -0.106 0.177 -0.1 0 0zm9.96 -6.018l0.791 1.274 0 0 -0.205 0.127 -0.228 0.142 -0.251 0.155 -0.27 0.167 -0.289 0.179 -0.306 0.189 -0.322 0.198 -0.335 0.206 -0.347 0.214 -0.358 0.22 -0.366 0.224 -0.373 0.229 -0.379 0.231 -0.381 0.234 -0.385 0.235 -0.384 0.234 -0.383 0.233 -0.381 0.231 -0.375 0.227 -0.37 0.224 -0.361 0.217 -0.352 0.212 -0.341 0.204 -0.328 0.195 -0.313 0.186 -0.298 0.176 -0.279 0.163 -0.261 0.152 -0.24 0.138 -0.218 0.124 -0.195 0.108 -0.171 0.093 -0.706 -1.323 0.154 -0.084 0.183 -0.102 0.209 -0.118 0.234 -0.134 0.255 -0.149 0.275 -0.161 0.294 -0.174 0.311 -0.184 0.325 -0.194 0.338 -0.203 0.35 -0.21 0.36 -0.217 0.368 -0.222 0.375 -0.227 0.379 -0.23 0.382 -0.232 0.383 -0.234 0.383 -0.234 0.382 -0.233 0.378 -0.231 0.372 -0.229 0.365 -0.224 0.357 -0.219 0.346 -0.213 0.335 -0.206 0.321 -0.198 0.306 -0.189 0.288 -0.178 0.271 -0.167 0.249 -0.154 0.228 -0.142 0.204 -0.126 0 0zm5.241 -1.608l-0.94 1.169 0 0 0.028 0.02 0.021 0.011 0.013 0.004 -0.001 0 -0.016 -0.002 -0.029 -0.001 -0.045 0.002 -0.058 0.005 -0.068 0.01 -0.079 0.016 -0.089 0.021 -0.098 0.028 -0.106 0.034 -0.113 0.039 -0.12 0.045 -0.126 0.051 -0.132 0.056 -0.138 0.061 -0.142 0.067 -0.148 0.072 -0.152 0.076 -0.157 0.081 -0.161 0.085 -0.164 0.089 -0.168 0.094 -0.172 0.097 -0.174 0.1 -0.178 0.105 -0.181 0.107 -0.183 0.111 -0.186 0.113 -0.188 0.116 -0.791 -1.274 0.194 -0.12 0.193 -0.118 0.191 -0.115 0.188 -0.112 0.187 -0.109 0.184 -0.107 0.182 -0.103 0.18 -0.099 0.177 -0.097 0.175 -0.092 0.171 -0.089 0.17 -0.085 0.166 -0.081 0.164 -0.076 0.161 -0.072 0.159 -0.068 0.156 -0.062 0.153 -0.057 0.15 -0.053 0.149 -0.047 0.147 -0.041 0.146 -0.035 0.145 -0.029 0.146 -0.022 0.146 -0.014 0.146 -0.004 0.151 0.007 0.153 0.021 0.155 0.036 0.157 0.056 0.152 0.078 0.146 0.101 0.001 0zm0.091 3.06l-1.38 -0.587 -0.002 0.003 0.005 -0.011 0.008 -0.021 0.011 -0.027 0.012 -0.032 0.016 -0.039 0.017 -0.048 0.019 -0.054 0.02 -0.057 0.02 -0.062 0.021 -0.066 0.021 -0.069 0.021 -0.072 0.02 -0.074 0.019 -0.075 0.017 -0.075 0.015 -0.075 0.014 -0.074 0.011 -0.071 0.009 -0.069 0.006 -0.067 0.003 -0.058 0 -0.053 -0.001 -0.048 -0.004 -0.037 -0.005 -0.027 -0.003 -0.015 -0.001 -0.004 0.003 0.008 0.012 0.018 0.019 0.023 0.026 0.024 0.94 -1.169 0.129 0.12 0.109 0.134 0.087 0.14 0.065 0.141 0.049 0.14 0.034 0.136 0.023 0.133 0.013 0.131 0.005 0.125 -0.001 0.125 -0.006 0.123 -0.011 0.117 -0.014 0.116 -0.018 0.115 -0.02 0.111 -0.023 0.109 -0.024 0.105 -0.026 0.101 -0.026 0.099 -0.027 0.092 -0.027 0.091 -0.027 0.084 -0.026 0.079 -0.026 0.074 -0.023 0.065 -0.022 0.06 -0.02 0.054 -0.018 0.047 -0.015 0.037 -0.01 0.025 -0.008 0.018 -0.005 0.013zm0 0c-0.162,0.381 -0.603,0.558 -0.984,0.397 -0.381,-0.162 -0.558,-0.603 -0.396,-0.984l1.38 0.587z"/>
   </g>
   <g>
    <path class="fil0" d="M97.52 72.535c-0.326,0.255 -0.798,0.197 -1.053,-0.129 -0.254,-0.327 -0.196,-0.798 0.13,-1.053l0.923 1.182zm13.863 -13.432l1.026 1.094 0 0 -0.447 0.414 -0.476 0.433 -0.504 0.45 -0.528 0.466 -0.55 0.478 -0.569 0.49 -0.584 0.499 -0.598 0.506 -0.608 0.511 -0.615 0.513 -0.619 0.513 -0.62 0.512 -0.62 0.508 -0.614 0.502 -0.607 0.494 -0.597 0.484 -0.583 0.471 -0.568 0.456 -0.547 0.44 -0.526 0.421 -0.501 0.399 -0.472 0.377 -0.442 0.35 -0.408 0.323 -0.37 0.293 -0.331 0.261 -0.288 0.228 -0.243 0.191 -0.194 0.152 -0.142 0.111 -0.088 0.069 -0.03 0.023 -0.923 -1.182 0.029 -0.023 0.087 -0.068 0.141 -0.111 0.193 -0.151 0.242 -0.19 0.287 -0.226 0.33 -0.261 0.369 -0.292 0.407 -0.322 0.44 -0.35 0.472 -0.375 0.499 -0.398 0.524 -0.419 0.546 -0.439 0.565 -0.455 0.582 -0.469 0.594 -0.482 0.605 -0.492 0.612 -0.5 0.617 -0.506 0.617 -0.51 0.616 -0.511 0.612 -0.51 0.603 -0.507 0.594 -0.502 0.579 -0.495 0.563 -0.485 0.544 -0.473 0.521 -0.459 0.495 -0.442 0.466 -0.424 0.435 -0.403 0 0zm25.559 -18.706l0.212 1.484 -0.078 0.027 -0.261 0.114 -0.378 0.196 -0.471 0.27 -0.554 0.335 -0.627 0.397 -0.693 0.452 -0.753 0.504 -0.807 0.55 -0.854 0.592 -0.897 0.631 -0.932 0.663 -0.963 0.693 -0.987 0.717 -1.007 0.738 -1.02 0.753 -1.027 0.765 -1.029 0.773 -1.025 0.775 -1.016 0.774 -1 0.769 -0.98 0.758 -0.953 0.745 -0.921 0.725 -0.883 0.703 -0.84 0.675 -0.79 0.644 -0.734 0.606 -0.674 0.567 -0.606 0.521 -0.533 0.47 -0.452 0.414 -1.026 -1.094 0.476 -0.436 0.55 -0.486 0.62 -0.532 0.684 -0.576 0.744 -0.614 0.798 -0.65 0.846 -0.68 0.889 -0.708 0.926 -0.73 0.958 -0.748 0.984 -0.762 1.006 -0.772 1.02 -0.777 1.03 -0.779 1.033 -0.776 1.032 -0.769 1.024 -0.756 1.012 -0.742 0.992 -0.721 0.969 -0.697 0.939 -0.668 0.904 -0.635 0.863 -0.599 0.818 -0.557 0.765 -0.512 0.709 -0.463 0.648 -0.41 0.582 -0.352 0.513 -0.293 0.447 -0.232 0.389 -0.169 0.389 -0.105zm0 0c0.41,-0.059 0.79,0.226 0.848,0.636 0.059,0.41 -0.226,0.79 -0.636,0.848l-0.212 -1.484z"/>
   </g>
   <g>
    <path class="fil0" d="M139.575 44.644c0.234,-0.341 0.701,-0.428 1.042,-0.194 0.341,0.235 0.428,0.702 0.194,1.043l-1.236 -0.849zm-0.236 0.343l0.236 -0.343 1.236 0.849 -0.235 0.343 -1.237 -0.849zm1.237 0.849c-0.234,0.341 -0.702,0.428 -1.043,0.194 -0.341,-0.234 -0.428,-0.702 -0.194,-1.043l1.237 0.849z"/>
   </g>
  </g>
 </g>
</svg>
