<?xml version="1.0" encoding="UTF-8"?>
<!DOCTYPE svg PUBLIC "-//W3C//DTD SVG 1.1//EN" "http://www.w3.org/Graphics/SVG/1.1/DTD/svg11.dtd">
<!-- Creator: CorelDRAW 2019 (64-Bit) -->
<svg xmlns="http://www.w3.org/2000/svg" xml:space="preserve" width="200px" height="100px" version="1.1" style="shape-rendering:geometricPrecision; text-rendering:geometricPrecision; image-rendering:optimizeQuality; fill-rule:evenodd; clip-rule:evenodd"
viewBox="0 0 200 100"
 xmlns:xlink="http://www.w3.org/1999/xlink"
 xmlns:xodm="http://www.corel.com/coreldraw/odm/2003">
 <defs>
  <style type="text/css">
   <![CDATA[
    .fil0 {fill:black;fill-rule:nonzero}
   ]]>
  </style>
   <clipPath id="id0">
    <rect x="265.154" y="-3.182" width="204.195" height="100.364"/>
   </clipPath>
 </defs>
 <g id="Layer_x0020_1">
  <metadata id="CorelCorpID_0Corel-Layer"/>
  <g style="clip-path:url(#id0)">
   <image transform="matrix(6.56312E-15 -0.24781 0.24781 6.56312E-15 265.154 97.1815)" x="0" y="0" width="405.001" height="824.002" xlink:href="020_Images\020_ImgID1.png"/>
  </g>
  <g>
   <path class="fil0" d="M113.51 55.446c0.264,0.318 0.22,0.792 -0.098,1.056 -0.318,0.265 -0.792,0.221 -1.056,-0.097l1.154 -0.959zm-12.531 -2.089l-0.149 -1.493 0 0 0.438 -0.037 0.444 -0.026 0.449 -0.014 0.453 -0.003 0.456 0.008 0.459 0.018 0.46 0.029 0.462 0.039 0.461 0.049 0.46 0.059 0.458 0.068 0.455 0.077 0.452 0.086 0.447 0.096 0.442 0.104 0.436 0.113 0.429 0.121 0.421 0.129 0.412 0.138 0.403 0.145 0.391 0.153 0.382 0.162 0.368 0.169 0.356 0.177 0.343 0.185 0.327 0.193 0.313 0.201 0.297 0.209 0.279 0.219 0.262 0.228 0.242 0.238 0.223 0.249 -1.154 0.959 -0.153 -0.172 -0.176 -0.172 -0.198 -0.173 -0.22 -0.171 -0.24 -0.171 -0.26 -0.167 -0.279 -0.164 -0.296 -0.159 -0.312 -0.155 -0.327 -0.151 -0.342 -0.144 -0.355 -0.139 -0.366 -0.133 -0.378 -0.125 -0.387 -0.12 -0.396 -0.112 -0.404 -0.104 -0.411 -0.097 -0.416 -0.089 -0.421 -0.08 -0.425 -0.072 -0.428 -0.064 -0.428 -0.054 -0.43 -0.046 -0.428 -0.036 -0.428 -0.027 -0.425 -0.017 -0.421 -0.007 -0.417 0.003 -0.41 0.013 -0.404 0.023 -0.396 0.034 0 0zm-3.867 3.779l-0.628 1.362 0 0 -0.419 -0.207 -0.378 -0.216 -0.341 -0.225 -0.303 -0.238 -0.266 -0.251 -0.228 -0.267 -0.189 -0.286 -0.144 -0.304 -0.095 -0.318 -0.041 -0.327 0.015 -0.325 0.064 -0.315 0.111 -0.299 0.149 -0.279 0.18 -0.259 0.209 -0.243 0.234 -0.227 0.258 -0.213 0.28 -0.202 0.3 -0.189 0.322 -0.18 0.34 -0.169 0.359 -0.159 0.377 -0.148 0.394 -0.138 0.41 -0.128 0.425 -0.117 0.44 -0.105 0.453 -0.094 0.466 -0.081 0.477 -0.069 0.487 -0.056 0.149 1.493 -0.444 0.051 -0.433 0.062 -0.421 0.074 -0.408 0.084 -0.393 0.094 -0.377 0.104 -0.361 0.112 -0.341 0.12 -0.322 0.126 -0.301 0.134 -0.278 0.138 -0.254 0.141 -0.228 0.145 -0.202 0.145 -0.174 0.144 -0.144 0.139 -0.115 0.133 -0.087 0.124 -0.059 0.111 -0.036 0.097 -0.018 0.085 -0.004 0.077 0.01 0.079 0.026 0.088 0.05 0.103 0.079 0.12 0.117 0.137 0.158 0.149 0.203 0.159 0.249 0.165 0.297 0.169 0.344 0.17 0 0zm37.686 5.76l-0.39 1.449 0 0 -0.972 -0.244 -1.015 -0.222 -1.054 -0.202 -1.091 -0.183 -1.125 -0.166 -1.156 -0.152 -1.183 -0.137 -1.208 -0.126 -1.23 -0.117 -1.249 -0.108 -1.265 -0.102 -1.278 -0.098 -1.289 -0.095 -1.296 -0.095 -1.301 -0.096 -1.304 -0.099 -1.302 -0.104 -1.299 -0.112 -1.293 -0.12 -1.284 -0.131 -1.272 -0.144 -1.257 -0.158 -1.241 -0.175 -1.221 -0.193 -1.198 -0.215 -1.173 -0.236 -1.146 -0.262 -1.116 -0.288 -1.082 -0.318 -1.047 -0.348 -1.009 -0.383 -0.968 -0.418 0.628 -1.362 0.903 0.39 0.948 0.359 0.992 0.331 1.034 0.303 1.071 0.276 1.107 0.253 1.138 0.23 1.168 0.209 1.193 0.189 1.217 0.171 1.237 0.156 1.255 0.142 1.269 0.129 1.28 0.119 1.29 0.111 1.295 0.103 1.299 0.1 1.299 0.095 1.296 0.095 1.291 0.096 1.284 0.097 1.272 0.103 1.26 0.109 1.243 0.118 1.224 0.128 1.202 0.139 1.179 0.155 1.151 0.17 1.123 0.188 1.09 0.209 1.056 0.231 1.019 0.256 0.001 0zm2.486 2.945l-1.485 -0.215 0 0 0.002 -0.01 0.001 -0.016 0 -0.019 -0.001 -0.027 -0.002 -0.028 -0.004 -0.03 -0.006 -0.035 -0.008 -0.036 -0.011 -0.04 -0.012 -0.039 -0.015 -0.041 -0.018 -0.043 -0.021 -0.044 -0.024 -0.045 -0.027 -0.046 -0.031 -0.047 -0.034 -0.046 -0.039 -0.048 -0.043 -0.049 -0.047 -0.048 -0.052 -0.049 -0.058 -0.049 -0.064 -0.049 -0.069 -0.048 -0.075 -0.048 -0.082 -0.047 -0.089 -0.047 -0.097 -0.045 -0.104 -0.044 -0.112 -0.041 -0.12 -0.04 -0.129 -0.037 0.39 -1.449 0.181 0.053 0.174 0.057 0.168 0.063 0.159 0.066 0.153 0.072 0.146 0.076 0.138 0.079 0.132 0.084 0.125 0.088 0.118 0.091 0.111 0.094 0.103 0.096 0.098 0.1 0.089 0.101 0.083 0.103 0.078 0.105 0.069 0.106 0.064 0.106 0.056 0.106 0.051 0.106 0.044 0.107 0.04 0.106 0.032 0.106 0.028 0.102 0.023 0.102 0.017 0.099 0.013 0.101 0.007 0.097 0.004 0.094 -0.001 0.095 -0.006 0.092 -0.011 0.092 0 0zm-9.903 2.129l-0.016 -1.5 0 0 0.599 -0.006 0.574 -0.005 0.552 -0.005 0.528 -0.006 0.505 -0.005 0.482 -0.006 0.46 -0.007 0.438 -0.009 0.415 -0.01 0.394 -0.012 0.373 -0.014 0.351 -0.017 0.329 -0.019 0.308 -0.022 0.287 -0.026 0.265 -0.029 0.244 -0.032 0.223 -0.036 0.201 -0.039 0.179 -0.042 0.156 -0.045 0.134 -0.046 0.111 -0.047 0.089 -0.045 0.068 -0.043 0.051 -0.039 0.034 -0.033 0.025 -0.03 0.018 -0.03 0.016 -0.036 0.014 -0.044 0.011 -0.059 1.485 0.215 -0.042 0.215 -0.068 0.211 -0.092 0.202 -0.118 0.192 -0.14 0.175 -0.16 0.156 -0.175 0.135 -0.187 0.118 -0.199 0.102 -0.207 0.087 -0.219 0.075 -0.229 0.066 -0.241 0.056 -0.253 0.05 -0.267 0.043 -0.283 0.038 -0.297 0.032 -0.314 0.028 -0.33 0.024 -0.348 0.02 -0.366 0.017 -0.385 0.015 -0.405 0.013 -0.423 0.01 -0.445 0.008 -0.465 0.008 -0.485 0.006 -0.507 0.005 -0.529 0.006 -0.552 0.005 -0.574 0.005 -0.598 0.006 0 0zm-114.805 -11.571l0.445 1.433 0 0 -3.78 1.302 -2.605 1.172 -1.455 0.991 -0.382 0.57 0.152 0.308 0.973 0.645 1.901 0.691 2.697 0.638 3.398 0.569 4.021 0.499 4.573 0.432 5.055 0.367 5.47 0.307 5.818 0.252 6.1 0.2 6.314 0.153 6.462 0.11 6.543 0.071 6.559 0.037 6.508 0.007 6.391 -0.019 6.207 -0.04 5.957 -0.058 5.641 -0.07 5.26 -0.078 4.811 -0.082 4.296 -0.082 3.716 -0.077 3.069 -0.069 2.356 -0.055 1.578 -0.037 0.74 -0.016 0.016 1.5 -0.722 0.015 -1.577 0.038 -2.357 0.055 -3.071 0.068 -3.718 0.078 -4.299 0.081 -4.814 0.083 -5.263 0.078 -5.645 0.07 -5.962 0.058 -6.213 0.04 -6.396 0.019 -6.514 -0.007 -6.566 -0.037 -6.552 -0.071 -6.472 -0.11 -6.326 -0.153 -6.113 -0.201 -5.836 -0.252 -5.492 -0.309 -5.084 -0.369 -4.61 -0.436 -4.073 -0.505 -3.476 -0.583 -2.824 -0.668 -2.134 -0.781 -1.443 -0.999 -0.515 -1.517 0.834 -1.445 1.776 -1.224 2.774 -1.251 3.878 -1.336 0 0zm182.568 -4.636l-0.287 1.472 -4.428 -0.781 -4.804 -0.696 -5.15 -0.613 -5.467 -0.533 -5.753 -0.455 -6.01 -0.379 -6.238 -0.307 -6.435 -0.235 -6.604 -0.168 -6.743 -0.103 -6.853 -0.041 -6.933 0.02 -6.985 0.077 -7.007 0.131 -6.999 0.184 -6.962 0.233 -6.897 0.279 -6.802 0.324 -6.677 0.366 -6.524 0.404 -6.34 0.44 -6.128 0.474 -5.887 0.504 -5.615 0.533 -5.315 0.559 -4.986 0.58 -4.625 0.601 -4.236 0.619 -3.817 0.632 -3.366 0.644 -2.883 0.651 -2.367 0.653 -0.445 -1.433 2.45 -0.676 2.941 -0.664 3.408 -0.652 3.849 -0.637 4.261 -0.623 4.647 -0.603 5.004 -0.583 5.331 -0.561 5.63 -0.534 5.899 -0.505 6.14 -0.475 6.352 -0.441 6.535 -0.405 6.688 -0.365 6.812 -0.325 6.907 -0.28 6.974 -0.234 7.01 -0.183 7.018 -0.132 6.996 -0.077 6.946 -0.02 6.867 0.041 6.758 0.103 6.619 0.168 6.453 0.237 6.258 0.307 6.032 0.381 5.779 0.456 5.496 0.536 5.185 0.618 4.845 0.702 4.478 0.79zm0 0c0.406,0.079 0.671,0.473 0.592,0.88 -0.079,0.406 -0.473,0.671 -0.879,0.592l0.287 -1.472z"/>
  </g>
  <g>
   <path class="fil0" d="M66.135 45.562c0.404,-0.088 0.805,0.167 0.893,0.572 0.089,0.404 -0.166,0.805 -0.571,0.893l-0.322 -1.465zm-14.489 2.435l0.247 -1.48 0 0 0.524 0.078 0.543 0.064 0.557 0.049 0.571 0.035 0.581 0.022 0.59 0.01 0.595 -0.001 0.6 -0.011 0.6 -0.021 0.599 -0.031 0.596 -0.038 0.591 -0.045 0.583 -0.052 0.574 -0.057 0.561 -0.061 0.547 -0.066 0.53 -0.068 0.512 -0.07 0.491 -0.071 0.468 -0.071 0.443 -0.071 0.415 -0.069 0.386 -0.066 0.354 -0.063 0.32 -0.059 0.284 -0.054 0.246 -0.048 0.206 -0.042 0.163 -0.033 0.118 -0.025 0.074 -0.015 0.02 -0.005 0.322 1.465 -0.03 0.007 -0.076 0.016 -0.124 0.026 -0.17 0.035 -0.212 0.042 -0.253 0.05 -0.292 0.055 -0.329 0.061 -0.362 0.064 -0.394 0.069 -0.425 0.07 -0.453 0.072 -0.479 0.073 -0.502 0.073 -0.524 0.072 -0.543 0.069 -0.561 0.067 -0.576 0.063 -0.588 0.059 -0.6 0.053 -0.609 0.047 -0.616 0.039 -0.621 0.031 -0.624 0.023 -0.624 0.011 -0.623 0.002 -0.62 -0.011 -0.614 -0.024 -0.607 -0.038 -0.598 -0.052 -0.588 -0.069 -0.574 -0.085 0 0zm-5.699 -4.177l1.477 0.258 0 0 -0.009 0.071 -0.004 0.067 0.001 0.066 0.007 0.064 0.012 0.064 0.018 0.066 0.023 0.065 0.032 0.07 0.04 0.072 0.048 0.073 0.058 0.078 0.069 0.081 0.08 0.082 0.093 0.085 0.105 0.087 0.119 0.088 0.13 0.088 0.145 0.088 0.158 0.089 0.172 0.088 0.186 0.087 0.2 0.085 0.214 0.085 0.227 0.082 0.243 0.08 0.256 0.079 0.271 0.075 0.286 0.073 0.3 0.07 0.315 0.067 0.329 0.064 0.345 0.06 -0.247 1.48 -0.37 -0.065 -0.355 -0.069 -0.343 -0.073 -0.33 -0.077 -0.316 -0.081 -0.304 -0.084 -0.291 -0.089 -0.279 -0.093 -0.267 -0.096 -0.255 -0.1 -0.242 -0.104 -0.232 -0.109 -0.22 -0.112 -0.208 -0.117 -0.198 -0.121 -0.187 -0.126 -0.175 -0.13 -0.165 -0.136 -0.154 -0.141 -0.143 -0.147 -0.13 -0.152 -0.119 -0.158 -0.107 -0.164 -0.093 -0.169 -0.079 -0.175 -0.065 -0.18 -0.05 -0.182 -0.035 -0.185 -0.019 -0.187 -0.004 -0.186 0.011 -0.186 0.025 -0.183 0 0zm22.42 -3.726l-0.968 1.146 -0.355 -0.262 -0.427 -0.245 -0.496 -0.224 -0.558 -0.201 -0.615 -0.175 -0.665 -0.149 -0.71 -0.121 -0.749 -0.093 -0.781 -0.066 -0.809 -0.039 -0.831 -0.012 -0.847 0.015 -0.858 0.04 -0.863 0.066 -0.864 0.09 -0.859 0.114 -0.848 0.138 -0.833 0.16 -0.812 0.182 -0.786 0.203 -0.753 0.223 -0.717 0.242 -0.673 0.26 -0.625 0.276 -0.57 0.29 -0.51 0.303 -0.444 0.31 -0.372 0.315 -0.297 0.314 -0.22 0.306 -0.147 0.294 -0.081 0.284 -1.477 -0.258 0.159 -0.568 0.263 -0.53 0.349 -0.486 0.422 -0.447 0.488 -0.413 0.545 -0.383 0.6 -0.355 0.649 -0.332 0.695 -0.307 0.737 -0.284 0.773 -0.261 0.806 -0.239 0.834 -0.215 0.858 -0.192 0.877 -0.169 0.891 -0.145 0.901 -0.12 0.906 -0.094 0.906 -0.069 0.902 -0.042 0.893 -0.016 0.879 0.013 0.861 0.041 0.839 0.071 0.811 0.101 0.78 0.133 0.745 0.167 0.705 0.201 0.662 0.238 0.616 0.279 0.563 0.324 0.505 0.373zm0 0c0.316,0.267 0.356,0.741 0.089,1.057 -0.267,0.316 -0.74,0.356 -1.057,0.089l0.968 -1.146z"/>
  </g>
  <g>
   <path class="fil0" d="M69.655 37.865c0.06,-0.41 0.442,-0.693 0.851,-0.633 0.41,0.06 0.693,0.442 0.633,0.852l-1.484 -0.219zm-0.217 9.647l0.33 1.463 0 0 -0.685 -0.152 -0.279 -0.362 -0.086 -0.274 -0.04 -0.254 -0.021 -0.271 -0.007 -0.298 0.002 -0.327 0.011 -0.358 0.019 -0.385 0.027 -0.41 0.032 -0.432 0.039 -0.45 0.043 -0.466 0.047 -0.476 0.051 -0.484 0.054 -0.488 0.056 -0.488 0.058 -0.484 0.058 -0.477 0.058 -0.465 0.058 -0.451 0.056 -0.431 0.055 -0.409 0.051 -0.382 0.048 -0.351 0.044 -0.317 0.039 -0.279 0.034 -0.237 0.027 -0.192 0.021 -0.142 0.013 -0.087 0.004 -0.031 1.484 0.219 -0.004 0.028 -0.013 0.087 -0.02 0.14 -0.027 0.189 -0.034 0.235 -0.038 0.277 -0.044 0.314 -0.048 0.349 -0.051 0.379 -0.054 0.406 -0.056 0.428 -0.057 0.446 -0.057 0.461 -0.058 0.472 -0.057 0.479 -0.055 0.482 -0.053 0.481 -0.05 0.476 -0.047 0.467 -0.042 0.455 -0.038 0.437 -0.031 0.417 -0.025 0.391 -0.018 0.361 -0.01 0.326 -0.002 0.285 0.006 0.238 0.013 0.179 0.015 0.101 -0.01 -0.02 -0.177 -0.216 -0.559 -0.122 0 0zm10.172 -12.456l1.179 0.928 0 0.001 -0.211 0.267 -0.242 0.306 -0.271 0.343 -0.299 0.378 -0.323 0.407 -0.345 0.435 -0.365 0.459 -0.382 0.48 -0.398 0.498 -0.41 0.513 -0.42 0.524 -0.428 0.533 -0.433 0.538 -0.437 0.541 -0.437 0.54 -0.436 0.536 -0.432 0.528 -0.425 0.518 -0.417 0.506 -0.405 0.489 -0.392 0.469 -0.377 0.446 -0.358 0.422 -0.337 0.392 -0.316 0.361 -0.291 0.327 -0.265 0.291 -0.238 0.251 -0.211 0.213 -0.19 0.175 -0.191 0.15 -0.339 0.154 -0.33 -1.463 -0.176 0.07 0.052 -0.043 0.129 -0.12 0.177 -0.178 0.217 -0.23 0.25 -0.274 0.281 -0.315 0.307 -0.351 0.331 -0.385 0.354 -0.415 0.372 -0.442 0.388 -0.465 0.402 -0.485 0.414 -0.502 0.423 -0.516 0.43 -0.526 0.434 -0.534 0.436 -0.538 0.435 -0.538 0.432 -0.537 0.427 -0.532 0.42 -0.523 0.409 -0.511 0.396 -0.497 0.381 -0.48 0.365 -0.457 0.344 -0.434 0.322 -0.407 0.298 -0.376 0.271 -0.343 0.242 -0.306 0.21 -0.266 -0.001 0zm2.584 0.811l-1.499 -0.061 0 -0.001 0.003 -0.099 -0.002 -0.085 -0.004 -0.069 -0.006 -0.054 -0.007 -0.035 -0.005 -0.02 -0.001 -0.003 0.007 0.013 0.019 0.031 0.032 0.04 0.048 0.043 0.064 0.043 0.068 0.03 0.069 0.019 0.062 0.007 0.045 -0.001 0.033 -0.005 0.02 -0.004 0.007 -0.002 -0.005 0.002 -0.012 0.006 -0.017 0.01 -0.025 0.017 -0.029 0.021 -0.03 0.024 -0.034 0.029 -0.034 0.031 -0.035 0.035 -0.036 0.037 -0.034 0.038 -0.034 0.04 -0.033 0.04 -1.179 -0.928 0.059 -0.072 0.062 -0.072 0.063 -0.07 0.066 -0.068 0.068 -0.067 0.072 -0.066 0.072 -0.062 0.077 -0.061 0.08 -0.059 0.083 -0.055 0.09 -0.053 0.095 -0.049 0.1 -0.044 0.11 -0.038 0.121 -0.031 0.132 -0.018 0.141 -0.004 0.153 0.017 0.158 0.042 0.151 0.068 0.142 0.094 0.121 0.111 0.099 0.122 0.08 0.13 0.06 0.13 0.046 0.131 0.034 0.133 0.025 0.136 0.016 0.139 0.009 0.142 0.003 0.149 -0.004 0.156 0 0zm-1.408 10.16l-1.439 -0.425 0 0.001 0.01 -0.039 0.02 -0.092 0.028 -0.13 0.032 -0.162 0.036 -0.19 0.04 -0.218 0.044 -0.243 0.046 -0.265 0.049 -0.286 0.052 -0.305 0.053 -0.323 0.055 -0.338 0.056 -0.351 0.056 -0.362 0.057 -0.373 0.058 -0.381 0.057 -0.388 0.057 -0.392 0.055 -0.395 0.055 -0.396 0.053 -0.395 0.05 -0.392 0.049 -0.389 0.046 -0.383 0.044 -0.373 0.039 -0.365 0.037 -0.353 0.032 -0.339 0.028 -0.323 0.023 -0.306 0.018 -0.286 0.013 -0.264 1.499 0.061 -0.014 0.288 -0.02 0.306 -0.024 0.323 -0.029 0.337 -0.034 0.351 -0.037 0.364 -0.041 0.373 -0.044 0.383 -0.047 0.39 -0.049 0.394 -0.052 0.399 -0.054 0.401 -0.055 0.401 -0.057 0.4 -0.057 0.397 -0.058 0.392 -0.058 0.385 -0.057 0.377 -0.058 0.367 -0.057 0.356 -0.055 0.341 -0.054 0.327 -0.052 0.31 -0.05 0.291 -0.047 0.271 -0.045 0.249 -0.041 0.226 -0.039 0.201 -0.034 0.175 -0.032 0.148 -0.028 0.125 -0.029 0.111 0 0.001zm-3.702 0.448l0.866 -1.225 0 0 0.168 0.117 0.158 0.105 0.147 0.092 0.136 0.082 0.124 0.069 0.114 0.059 0.103 0.049 0.092 0.039 0.079 0.029 0.067 0.021 0.053 0.014 0.042 0.007 0.028 0.003 0.013 0 0.004 0 -0.007 0.002 -0.014 0.003 -0.017 0.008 -0.017 0.009 -0.012 0.008 -0.008 0.007 -0.003 0.003 0.003 -0.004 0.007 -0.011 0.012 -0.02 0.014 -0.027 0.016 -0.036 0.018 -0.044 0.018 -0.048 0.019 -0.055 0.02 -0.063 0.02 -0.066 1.439 0.425 -0.026 0.086 -0.028 0.086 -0.031 0.09 -0.034 0.094 -0.038 0.092 -0.044 0.095 -0.05 0.097 -0.058 0.098 -0.068 0.099 -0.078 0.097 -0.091 0.096 -0.104 0.09 -0.115 0.081 -0.129 0.072 -0.138 0.057 -0.143 0.041 -0.148 0.027 -0.148 0.011 -0.148 -0.003 -0.146 -0.015 -0.146 -0.026 -0.146 -0.036 -0.146 -0.046 -0.148 -0.055 -0.15 -0.064 -0.155 -0.073 -0.158 -0.082 -0.165 -0.092 -0.17 -0.102 -0.177 -0.111 -0.185 -0.123 -0.191 -0.133 0 0zm-5.587 -6.053l1.264 -0.808 -0.001 0 0.031 0.046 0.051 0.072 0.067 0.093 0.082 0.111 0.095 0.126 0.108 0.142 0.119 0.153 0.131 0.167 0.141 0.177 0.15 0.186 0.159 0.196 0.167 0.203 0.174 0.209 0.181 0.215 0.186 0.219 0.192 0.222 0.196 0.224 0.2 0.226 0.203 0.225 0.205 0.224 0.207 0.223 0.207 0.218 0.208 0.215 0.207 0.209 0.205 0.202 0.203 0.195 0.2 0.185 0.196 0.176 0.19 0.164 0.185 0.152 0.176 0.138 0.168 0.123 -0.866 1.225 -0.208 -0.152 -0.21 -0.165 -0.212 -0.175 -0.214 -0.184 -0.217 -0.194 -0.217 -0.203 -0.219 -0.209 -0.22 -0.216 -0.219 -0.222 -0.219 -0.226 -0.217 -0.23 -0.216 -0.232 -0.214 -0.233 -0.211 -0.234 -0.206 -0.233 -0.204 -0.232 -0.198 -0.23 -0.192 -0.226 -0.186 -0.221 -0.18 -0.216 -0.172 -0.209 -0.164 -0.202 -0.156 -0.194 -0.146 -0.183 -0.135 -0.173 -0.126 -0.162 -0.114 -0.149 -0.103 -0.136 -0.091 -0.123 -0.078 -0.108 -0.066 -0.095 -0.057 -0.085 0 -0.001zm2.885 -1.341l-0.754 1.296 0 0.001 -0.129 -0.073 -0.122 -0.063 -0.113 -0.055 -0.107 -0.047 -0.099 -0.039 -0.091 -0.032 -0.082 -0.025 -0.074 -0.018 -0.064 -0.013 -0.055 -0.008 -0.046 -0.004 -0.034 -0.001 -0.026 0.001 -0.015 0.002 -0.004 0.001 0.007 -0.002 0.015 -0.006 0.021 -0.012 0.028 -0.02 0.031 -0.029 0.03 -0.035 0.026 -0.041 0.021 -0.045 0.015 -0.046 0.008 -0.043 0.002 -0.035 -0.002 -0.032 -0.003 -0.023 -0.004 -0.015 -0.004 -0.009 -0.001 -0.002 0.004 0.005 -1.264 0.808 -0.063 -0.107 -0.055 -0.114 -0.045 -0.121 -0.034 -0.125 -0.022 -0.131 -0.007 -0.138 0.009 -0.138 0.025 -0.141 0.045 -0.14 0.063 -0.135 0.08 -0.124 0.095 -0.113 0.109 -0.099 0.117 -0.083 0.122 -0.068 0.127 -0.054 0.131 -0.04 0.132 -0.028 0.133 -0.016 0.133 -0.007 0.136 0.003 0.137 0.012 0.139 0.02 0.141 0.028 0.143 0.036 0.146 0.044 0.149 0.053 0.152 0.06 0.156 0.068 0.16 0.077 0.164 0.086 0.167 0.094 0 0zm9.592 3.774l-0.403 1.444 -0.217 -0.062 -0.236 -0.071 -0.255 -0.081 -0.273 -0.088 -0.288 -0.096 -0.304 -0.103 -0.319 -0.111 -0.33 -0.116 -0.34 -0.122 -0.351 -0.126 -0.358 -0.132 -0.365 -0.135 -0.369 -0.139 -0.372 -0.141 -0.375 -0.143 -0.374 -0.146 -0.373 -0.146 -0.371 -0.147 -0.366 -0.146 -0.36 -0.147 -0.353 -0.145 -0.344 -0.143 -0.334 -0.141 -0.322 -0.139 -0.309 -0.135 -0.295 -0.131 -0.277 -0.127 -0.261 -0.122 -0.242 -0.118 -0.224 -0.112 -0.203 -0.108 -0.183 -0.103 0.754 -1.296 0.145 0.081 0.174 0.092 0.2 0.101 0.224 0.108 0.246 0.116 0.265 0.121 0.283 0.126 0.299 0.131 0.314 0.135 0.326 0.138 0.337 0.14 0.347 0.143 0.354 0.143 0.361 0.145 0.365 0.144 0.368 0.145 0.369 0.143 0.369 0.142 0.368 0.139 0.364 0.137 0.359 0.133 0.353 0.129 0.344 0.125 0.335 0.12 0.323 0.113 0.31 0.108 0.296 0.1 0.279 0.093 0.261 0.085 0.241 0.075 0.219 0.067 0.194 0.056zm0 0c0.399,0.111 0.632,0.525 0.52,0.924 -0.111,0.398 -0.525,0.631 -0.923,0.52l0.403 -1.444z"/>
  </g>
  <g>
   <path class="fil0" d="M92.043 39.973c-0.067,0.409 -0.453,0.686 -0.862,0.619 -0.409,-0.067 -0.685,-0.453 -0.618,-0.862l1.48 0.243zm-1.598 -0.672l-0.573 -1.386 0 0 0.13 -0.05 0.13 -0.042 0.134 -0.035 0.132 -0.024 0.133 -0.015 0.136 -0.004 0.134 0.007 0.136 0.02 0.135 0.034 0.128 0.046 0.123 0.06 0.117 0.073 0.105 0.082 0.093 0.089 0.083 0.095 0.072 0.099 0.062 0.102 0.052 0.103 0.044 0.104 0.036 0.104 0.029 0.102 0.024 0.103 0.018 0.103 0.013 0.102 0.009 0.103 0.005 0.1 0.001 0.102 -0.002 0.1 -0.006 0.099 -0.009 0.099 -0.011 0.098 -0.015 0.099 -1.48 -0.243 0.008 -0.054 0.006 -0.055 0.005 -0.053 0.003 -0.052 0.001 -0.049 0 -0.047 -0.002 -0.045 -0.004 -0.04 -0.005 -0.037 -0.005 -0.033 -0.007 -0.028 -0.007 -0.024 -0.005 -0.017 -0.005 -0.011 -0.003 -0.006 0 0 0.003 0.004 0.008 0.009 0.01 0.01 0.016 0.012 0.019 0.012 0.018 0.008 0.016 0.006 0.013 0.003 0.008 0.002 -0.002 0 -0.01 0 -0.02 0.002 -0.031 0.006 -0.037 0.009 -0.05 0.017 -0.059 0.022 0 0zm-0.485 5.673l-1.403 0.53 0 0 -0.045 -0.133 -0.038 -0.14 -0.037 -0.154 -0.035 -0.169 -0.034 -0.185 -0.033 -0.201 -0.032 -0.215 -0.03 -0.23 -0.027 -0.242 -0.025 -0.254 -0.022 -0.263 -0.018 -0.272 -0.013 -0.278 -0.009 -0.284 -0.003 -0.288 0.003 -0.291 0.01 -0.293 0.017 -0.292 0.024 -0.292 0.034 -0.29 0.044 -0.285 0.054 -0.281 0.066 -0.277 0.079 -0.269 0.094 -0.262 0.11 -0.254 0.131 -0.244 0.154 -0.232 0.18 -0.217 0.209 -0.197 0.24 -0.17 0.267 -0.135 0.573 1.386 -0.064 0.033 -0.063 0.045 -0.067 0.063 -0.069 0.084 -0.071 0.108 -0.069 0.13 -0.067 0.152 -0.062 0.173 -0.056 0.191 -0.049 0.206 -0.042 0.22 -0.035 0.232 -0.028 0.24 -0.021 0.249 -0.015 0.253 -0.008 0.257 -0.003 0.258 0.003 0.258 0.008 0.256 0.012 0.252 0.016 0.247 0.019 0.239 0.023 0.229 0.025 0.219 0.027 0.205 0.028 0.191 0.029 0.175 0.029 0.155 0.027 0.134 0.025 0.106 0.021 0.077 0.012 0.036 0 0zm4.362 -8.667l1.468 0.307 0 -0.001 -0.037 0.154 -0.053 0.192 -0.071 0.244 -0.09 0.293 -0.107 0.339 -0.122 0.38 -0.139 0.416 -0.153 0.447 -0.167 0.473 -0.178 0.494 -0.19 0.51 -0.199 0.521 -0.21 0.526 -0.217 0.528 -0.224 0.524 -0.232 0.514 -0.236 0.501 -0.242 0.483 -0.246 0.46 -0.25 0.432 -0.256 0.402 -0.262 0.367 -0.271 0.331 -0.289 0.29 -0.318 0.246 -0.371 0.187 -0.438 0.09 -0.473 -0.065 -0.417 -0.222 -0.323 -0.322 -0.249 -0.389 -0.203 -0.455 1.403 -0.53 0.126 0.285 0.104 0.165 0.053 0.054 -0.024 -0.011 -0.06 -0.009 -0.011 -0.001 0.07 -0.038 0.132 -0.104 0.171 -0.173 0.196 -0.238 0.209 -0.294 0.218 -0.343 0.222 -0.384 0.225 -0.42 0.225 -0.449 0.223 -0.473 0.22 -0.49 0.215 -0.502 0.21 -0.509 0.202 -0.51 0.194 -0.505 0.185 -0.497 0.174 -0.481 0.162 -0.461 0.149 -0.435 0.134 -0.404 0.12 -0.369 0.102 -0.327 0.086 -0.278 0.066 -0.226 0.044 -0.162 0.02 -0.078 0 0zm2.297 0.045l-1.491 -0.168 0 0 0.017 -0.161 0.012 -0.149 0.008 -0.136 0.005 -0.124 0.001 -0.111 -0.002 -0.096 -0.004 -0.081 -0.007 -0.065 -0.007 -0.047 -0.004 -0.023 0.001 0.003 0.014 0.033 0.045 0.073 0.107 0.11 0.194 0.106 0.253 0.036 0.209 -0.046 0.123 -0.068 0.061 -0.052 0.02 -0.023 -0.002 0.004 -0.016 0.026 -0.024 0.048 -0.03 0.067 -0.033 0.083 -0.036 0.1 -0.038 0.115 -0.04 0.133 -0.041 0.146 -0.041 0.161 -0.041 0.177 -0.042 0.191 -1.468 -0.307 0.046 -0.215 0.048 -0.202 0.048 -0.191 0.05 -0.177 0.05 -0.165 0.051 -0.155 0.052 -0.144 0.054 -0.135 0.056 -0.125 0.06 -0.119 0.067 -0.114 0.077 -0.111 0.097 -0.113 0.134 -0.117 0.195 -0.108 0.275 -0.062 0.316 0.045 0.252 0.139 0.16 0.166 0.095 0.154 0.058 0.138 0.039 0.131 0.027 0.127 0.018 0.127 0.013 0.132 0.008 0.139 0.003 0.145 -0.002 0.153 -0.005 0.161 -0.011 0.172 -0.015 0.18 -0.019 0.189 0 0zm0.702 6.508l-1.259 0.815 0 0 -0.101 -0.169 -0.091 -0.178 -0.081 -0.185 -0.075 -0.193 -0.069 -0.202 -0.063 -0.21 -0.06 -0.217 -0.054 -0.224 -0.051 -0.231 -0.048 -0.239 -0.043 -0.244 -0.041 -0.247 -0.037 -0.254 -0.033 -0.257 -0.031 -0.26 -0.027 -0.263 -0.024 -0.264 -0.021 -0.265 -0.018 -0.265 -0.015 -0.264 -0.012 -0.264 -0.009 -0.261 -0.006 -0.258 -0.004 -0.255 0 -0.25 0.003 -0.245 0.005 -0.24 0.009 -0.232 0.011 -0.226 0.014 -0.218 0.017 -0.21 0.021 -0.201 1.491 0.168 -0.018 0.171 -0.015 0.183 -0.013 0.194 -0.01 0.203 -0.007 0.213 -0.006 0.22 -0.002 0.227 0 0.233 0.003 0.238 0.006 0.241 0.009 0.245 0.011 0.247 0.014 0.248 0.017 0.248 0.019 0.248 0.023 0.246 0.025 0.243 0.028 0.241 0.031 0.235 0.034 0.231 0.036 0.225 0.039 0.217 0.041 0.208 0.045 0.2 0.046 0.189 0.048 0.177 0.05 0.165 0.051 0.149 0.052 0.134 0.051 0.117 0.049 0.097 0.045 0.075 0 0zm5.807 -7.903l1.413 -0.504 0 0 0.161 0.535 0.107 0.546 0.058 0.553 0.012 0.556 -0.031 0.557 -0.072 0.556 -0.108 0.552 -0.142 0.546 -0.175 0.538 -0.203 0.528 -0.23 0.515 -0.255 0.502 -0.277 0.485 -0.298 0.466 -0.317 0.445 -0.334 0.421 -0.349 0.397 -0.363 0.368 -0.376 0.338 -0.387 0.305 -0.398 0.269 -0.409 0.23 -0.42 0.187 -0.43 0.139 -0.44 0.084 -0.448 0.023 -0.449 -0.048 -0.44 -0.125 -0.42 -0.204 -0.389 -0.279 -0.349 -0.349 -0.308 -0.414 1.259 -0.815 0.187 0.252 0.186 0.186 0.184 0.133 0.184 0.089 0.19 0.053 0.205 0.021 0.226 -0.012 0.247 -0.047 0.266 -0.087 0.283 -0.126 0.295 -0.166 0.303 -0.205 0.305 -0.241 0.306 -0.275 0.302 -0.306 0.295 -0.335 0.286 -0.362 0.273 -0.383 0.258 -0.404 0.241 -0.421 0.221 -0.434 0.199 -0.446 0.175 -0.453 0.148 -0.458 0.12 -0.46 0.09 -0.458 0.058 -0.453 0.025 -0.446 -0.009 -0.436 -0.044 -0.423 -0.08 -0.407 -0.118 -0.392 0 -0.001zm-0.402 1.943l-1.44 0.42 0 0 -0.066 -0.257 -0.05 -0.255 -0.032 -0.25 -0.016 -0.244 0 -0.239 0.015 -0.233 0.03 -0.224 0.043 -0.216 0.055 -0.209 0.068 -0.2 0.079 -0.189 0.09 -0.181 0.1 -0.17 0.109 -0.16 0.119 -0.149 0.128 -0.138 0.135 -0.125 0.145 -0.113 0.154 -0.099 0.163 -0.085 0.174 -0.069 0.183 -0.049 0.193 -0.026 0.201 0 0.204 0.031 0.203 0.064 0.19 0.096 0.173 0.125 0.152 0.151 0.127 0.169 0.104 0.183 0.082 0.194 -1.413 0.504 -0.018 -0.042 -0.011 -0.02 -0.004 -0.005 0.009 0.009 0.018 0.013 0.024 0.011 0.028 0.01 0.022 0.003 0.014 0 0.001 0.001 -0.011 0.002 -0.021 0.009 -0.031 0.016 -0.038 0.025 -0.045 0.035 -0.048 0.044 -0.049 0.053 -0.049 0.062 -0.05 0.073 -0.047 0.08 -0.045 0.089 -0.04 0.098 -0.036 0.105 -0.03 0.112 -0.024 0.121 -0.017 0.128 -0.009 0.134 0 0.141 0.01 0.149 0.02 0.155 0.031 0.163 0.044 0.169 0 0zm4.933 7.109l-0.53 1.403 0 0 -0.315 -0.131 -0.306 -0.149 -0.296 -0.168 -0.286 -0.183 -0.275 -0.198 -0.266 -0.211 -0.256 -0.223 -0.247 -0.235 -0.238 -0.245 -0.229 -0.254 -0.221 -0.262 -0.212 -0.27 -0.205 -0.276 -0.196 -0.281 -0.188 -0.286 -0.181 -0.289 -0.173 -0.292 -0.166 -0.294 -0.159 -0.296 -0.151 -0.295 -0.144 -0.296 -0.137 -0.293 -0.131 -0.291 -0.123 -0.288 -0.116 -0.284 -0.11 -0.279 -0.102 -0.273 -0.096 -0.266 -0.089 -0.259 -0.083 -0.251 -0.076 -0.242 -0.07 -0.232 1.44 -0.42 0.064 0.212 0.069 0.222 0.077 0.231 0.082 0.24 0.089 0.247 0.096 0.253 0.101 0.259 0.108 0.263 0.113 0.266 0.121 0.268 0.126 0.271 0.132 0.27 0.139 0.27 0.144 0.27 0.15 0.266 0.156 0.263 0.162 0.259 0.168 0.254 0.173 0.249 0.178 0.24 0.183 0.233 0.188 0.223 0.194 0.215 0.198 0.203 0.202 0.193 0.206 0.18 0.21 0.167 0.214 0.154 0.218 0.139 0.22 0.124 0.224 0.11 0.228 0.095 0 0zm1.919 -7.107l0.225 -1.483 0 0 0.44 0.111 0.41 0.185 0.379 0.244 0.35 0.293 0.327 0.333 0.304 0.371 0.282 0.403 0.261 0.431 0.239 0.456 0.215 0.476 0.192 0.493 0.164 0.507 0.137 0.516 0.106 0.521 0.074 0.524 0.038 0.522 0 0.517 -0.043 0.509 -0.089 0.498 -0.141 0.481 -0.199 0.459 -0.263 0.43 -0.331 0.389 -0.4 0.334 -0.463 0.269 -0.52 0.195 -0.569 0.117 -0.616 0.039 -0.663 -0.039 -0.711 -0.117 -0.764 -0.196 -0.82 -0.278 0.53 -1.403 0.721 0.244 0.644 0.166 0.57 0.094 0.494 0.029 0.421 -0.027 0.353 -0.072 0.292 -0.109 0.241 -0.14 0.203 -0.171 0.172 -0.203 0.147 -0.24 0.119 -0.278 0.092 -0.315 0.062 -0.349 0.032 -0.378 0 -0.4 -0.031 -0.418 -0.06 -0.428 -0.089 -0.434 -0.115 -0.434 -0.139 -0.427 -0.161 -0.416 -0.181 -0.4 -0.197 -0.377 -0.211 -0.349 -0.221 -0.315 -0.227 -0.278 -0.228 -0.233 -0.222 -0.185 -0.209 -0.136 -0.188 -0.086 -0.165 -0.042 0 0zm0.768 3.846l-0.877 1.216 -0.312 -0.238 -0.285 -0.247 -0.26 -0.254 -0.233 -0.26 -0.209 -0.266 -0.183 -0.271 -0.16 -0.274 -0.135 -0.277 -0.111 -0.278 -0.089 -0.278 -0.066 -0.276 -0.045 -0.274 -0.025 -0.27 -0.005 -0.265 0.013 -0.259 0.031 -0.252 0.048 -0.244 0.064 -0.235 0.078 -0.225 0.093 -0.216 0.106 -0.205 0.119 -0.193 0.132 -0.181 0.145 -0.168 0.157 -0.153 0.171 -0.138 0.184 -0.121 0.199 -0.1 0.212 -0.077 0.226 -0.05 0.235 -0.018 0.239 0.018 -0.225 1.483 -0.012 -0.001 -0.016 0.001 -0.025 0.006 -0.035 0.013 -0.045 0.023 -0.053 0.035 -0.058 0.047 -0.061 0.06 -0.063 0.072 -0.061 0.085 -0.06 0.096 -0.055 0.107 -0.05 0.116 -0.044 0.126 -0.036 0.133 -0.027 0.14 -0.018 0.147 -0.009 0.152 0.003 0.158 0.015 0.162 0.028 0.167 0.041 0.17 0.055 0.173 0.071 0.177 0.088 0.18 0.105 0.182 0.125 0.185 0.146 0.186 0.168 0.187 0.191 0.187 0.217 0.187 0.243 0.187zm0 0c0.336,0.242 0.412,0.711 0.17,1.047 -0.242,0.336 -0.712,0.411 -1.047,0.169l0.877 -1.216z"/>
  </g>
  <g>
   <path class="fil0" d="M116.15 40.256c-0.096,-0.403 0.154,-0.808 0.556,-0.903 0.403,-0.096 0.808,0.154 0.903,0.556l-1.459 0.347zm2.153 5.502l-1.5 0 -0.002 -0.255 -0.006 -0.255 -0.008 -0.255 -0.012 -0.254 -0.015 -0.252 -0.017 -0.251 -0.02 -0.247 -0.022 -0.244 -0.024 -0.24 -0.026 -0.237 -0.027 -0.231 -0.028 -0.226 -0.029 -0.219 -0.03 -0.214 -0.031 -0.206 -0.03 -0.198 -0.032 -0.191 -0.03 -0.182 -0.03 -0.173 -0.029 -0.164 -0.029 -0.153 -0.027 -0.141 -0.025 -0.131 -0.024 -0.119 -0.022 -0.107 -0.02 -0.094 -0.017 -0.081 -0.015 -0.066 -0.012 -0.053 -0.008 -0.036 -0.005 -0.021 -0.001 -0.006 1.459 -0.347 0.003 0.01 0.006 0.029 0.01 0.043 0.013 0.057 0.016 0.073 0.018 0.087 0.021 0.099 0.024 0.114 0.025 0.126 0.027 0.138 0.029 0.15 0.029 0.161 0.031 0.171 0.032 0.181 0.032 0.191 0.032 0.2 0.032 0.209 0.032 0.216 0.032 0.224 0.031 0.231 0.029 0.238 0.029 0.243 0.027 0.249 0.025 0.254 0.023 0.259 0.022 0.263 0.018 0.266 0.016 0.269 0.012 0.272 0.01 0.274 0.006 0.276 0.002 0.276zm0 0c0,0.415 -0.336,0.75 -0.75,0.75 -0.414,0 -0.75,-0.335 -0.75,-0.75l1.5 0z"/>
  </g>
  <g>
   <path class="fil0" d="M115.138 33.131c-0.092,-0.404 0.16,-0.806 0.564,-0.898 0.404,-0.092 0.806,0.16 0.898,0.564l-1.462 0.334zm4.147 4.913l-1.237 0.849 -0.217 -0.32 -0.205 -0.313 -0.196 -0.304 -0.186 -0.297 -0.175 -0.29 -0.167 -0.282 -0.156 -0.273 -0.148 -0.265 -0.139 -0.256 -0.131 -0.248 -0.121 -0.239 -0.115 -0.23 -0.106 -0.221 -0.098 -0.211 -0.091 -0.202 -0.084 -0.192 -0.077 -0.182 -0.071 -0.172 -0.064 -0.163 -0.058 -0.152 -0.052 -0.14 -0.046 -0.131 -0.041 -0.119 -0.037 -0.11 -0.03 -0.098 -0.026 -0.084 -0.022 -0.075 -0.017 -0.062 -0.014 -0.05 -0.01 -0.039 -0.007 -0.029 -0.003 -0.013 1.462 -0.334 0 -0.001 0.002 0.009 0.006 0.021 0.009 0.037 0.013 0.046 0.018 0.058 0.021 0.072 0.026 0.081 0.03 0.091 0.035 0.103 0.041 0.115 0.046 0.125 0.052 0.136 0.058 0.145 0.063 0.156 0.071 0.166 0.077 0.176 0.083 0.185 0.091 0.196 0.098 0.204 0.106 0.214 0.114 0.223 0.122 0.231 0.13 0.241 0.139 0.248 0.148 0.258 0.157 0.265 0.166 0.274 0.175 0.281 0.186 0.29 0.196 0.297 0.206 0.304zm0 0c0.234,0.342 0.147,0.809 -0.195,1.043 -0.341,0.234 -0.808,0.147 -1.042,-0.194l1.237 -0.849z"/>
  </g>
 </g>
</svg>
