<?xml version="1.0" encoding="UTF-8"?>
<!DOCTYPE svg PUBLIC "-//W3C//DTD SVG 1.1//EN" "http://www.w3.org/Graphics/SVG/1.1/DTD/svg11.dtd">
<!-- Creator: CorelDRAW 2019 (64-Bit) -->
<svg xmlns="http://www.w3.org/2000/svg" xml:space="preserve" width="200px" height="100px" version="1.1" style="shape-rendering:geometricPrecision; text-rendering:geometricPrecision; image-rendering:optimizeQuality; fill-rule:evenodd; clip-rule:evenodd"
viewBox="0 0 200 100"
 xmlns:xlink="http://www.w3.org/1999/xlink"
 xmlns:xodm="http://www.corel.com/coreldraw/odm/2003">
 <defs>
  <style type="text/css">
   <![CDATA[
    .fil0 {fill:black;fill-rule:nonzero}
   ]]>
  </style>
   <clipPath id="id0">
    <rect x="275.881" y="-16.802" width="118.239" height="141.604"/>
   </clipPath>
 </defs>
 <g id="Layer_x0020_1">
  <metadata id="CorelCorpID_0Corel-Layer"/>
  <g style="clip-path:url(#id0)">
   <image x="275.881" y="-16.802" width="118.239" height="141.603" xlink:href="021_Images\021_ImgID1.png"/>
  </g>
  <g id="_1348178752864">
   <g>
    <path class="fil0" d="M72.061 60.167c0.096,-0.403 0.502,-0.65 0.905,-0.553 0.402,0.097 0.65,0.502 0.553,0.905l-1.458 -0.352zm-14.952 -12.43l1.49 0.176 0 0 -0.228 2.29 -0.122 2.113 -0.026 1.942 0.066 1.775 0.15 1.613 0.227 1.454 0.298 1.301 0.36 1.152 0.415 1.009 0.463 0.87 0.502 0.74 0.534 0.615 0.561 0.5 0.582 0.394 0.601 0.295 0.617 0.204 0.632 0.117 0.644 0.036 0.653 -0.044 0.656 -0.121 0.655 -0.195 0.646 -0.265 0.631 -0.331 0.61 -0.394 0.582 -0.452 0.546 -0.506 0.506 -0.553 0.458 -0.596 0.405 -0.634 0.345 -0.666 0.281 -0.693 0.212 -0.716 1.458 0.352 -0.254 0.859 -0.335 0.826 -0.408 0.787 -0.476 0.746 -0.536 0.698 -0.592 0.648 -0.64 0.592 -0.683 0.531 -0.722 0.466 -0.754 0.396 -0.782 0.32 -0.803 0.239 -0.82 0.15 -0.83 0.056 -0.832 -0.046 -0.827 -0.154 -0.812 -0.269 -0.786 -0.387 -0.751 -0.508 -0.707 -0.631 -0.656 -0.755 -0.597 -0.879 -0.535 -1.007 -0.468 -1.136 -0.398 -1.271 -0.322 -1.409 -0.243 -1.552 -0.158 -1.701 -0.069 -1.854 0.027 -2.013 0.126 -2.178 0.233 -2.346 0 0zm42.307 -26.798l-1.473 -0.283 0 0 0.256 -1.876 0.017 -1.656 -0.199 -1.44 -0.393 -1.229 -0.567 -1.033 -0.728 -0.852 -0.885 -0.687 -1.04 -0.527 -1.19 -0.366 -1.333 -0.2 -1.46 -0.031 -1.572 0.141 -1.666 0.314 -1.745 0.487 -1.805 0.659 -1.85 0.829 -1.88 0.998 -1.893 1.164 -1.891 1.329 -1.873 1.491 -1.84 1.651 -1.792 1.808 -1.729 1.964 -1.652 2.118 -1.558 2.268 -1.451 2.417 -1.329 2.563 -1.192 2.709 -1.04 2.852 -0.874 2.992 -0.693 3.131 -0.497 3.269 -1.49 -0.176 0.512 -3.368 0.715 -3.228 0.901 -3.087 1.074 -2.944 1.231 -2.796 1.372 -2.648 1.499 -2.497 1.61 -2.343 1.706 -2.189 1.789 -2.03 1.854 -1.872 1.905 -1.71 1.943 -1.546 1.965 -1.381 1.972 -1.213 1.966 -1.043 1.945 -0.872 1.91 -0.697 1.862 -0.52 1.801 -0.339 1.726 -0.154 1.639 0.035 1.538 0.232 1.419 0.437 1.283 0.651 1.119 0.87 0.928 1.088 0.711 1.295 0.477 1.49 0.232 1.677 -0.019 1.86 -0.278 2.044 0 0zm-10.627 40.796l-1.411 -0.509 0 0 0.27 -0.762 0.282 -0.823 0.294 -0.879 0.304 -0.933 0.313 -0.985 0.322 -1.033 0.33 -1.079 0.337 -1.122 0.344 -1.163 0.348 -1.2 0.354 -1.235 0.357 -1.268 0.36 -1.297 0.362 -1.325 0.364 -1.349 0.364 -1.371 0.364 -1.39 0.363 -1.407 0.362 -1.421 0.358 -1.431 0.355 -1.441 0.352 -1.446 0.346 -1.45 0.34 -1.45 0.334 -1.449 0.327 -1.444 0.318 -1.436 0.309 -1.427 0.3 -1.414 0.289 -1.398 0.278 -1.381 0.265 -1.361 1.473 0.283 -0.267 1.369 -0.279 1.389 -0.291 1.406 -0.301 1.422 -0.311 1.433 -0.319 1.443 -0.328 1.45 -0.336 1.455 -0.341 1.455 -0.348 1.456 -0.353 1.452 -0.356 1.445 -0.36 1.438 -0.363 1.425 -0.364 1.412 -0.366 1.396 -0.365 1.376 -0.366 1.354 -0.363 1.33 -0.362 1.303 -0.359 1.273 -0.355 1.242 -0.35 1.206 -0.345 1.169 -0.339 1.129 -0.333 1.087 -0.324 1.041 -0.316 0.993 -0.308 0.944 -0.297 0.89 -0.287 0.835 -0.275 0.778 0 0zm-8.339 -5.019l1.414 0.501 0 0 -0.564 1.661 -0.489 1.577 -0.415 1.49 -0.345 1.402 -0.278 1.311 -0.212 1.22 -0.149 1.124 -0.09 1.027 -0.033 0.927 0.019 0.823 0.069 0.715 0.112 0.604 0.146 0.485 0.168 0.362 0.17 0.24 0.152 0.134 0.136 0.062 0.159 0.019 0.224 -0.036 0.304 -0.123 0.373 -0.231 0.428 -0.35 0.471 -0.473 0.503 -0.597 0.532 -0.723 0.552 -0.849 0.571 -0.976 0.584 -1.103 0.595 -1.232 0.603 -1.362 0.608 -1.493 0.61 -1.626 1.411 0.509 -0.624 1.663 -0.624 1.533 -0.622 1.405 -0.618 1.279 -0.612 1.156 -0.604 1.033 -0.596 0.914 -0.585 0.797 -0.576 0.683 -0.568 0.57 -0.563 0.46 -0.566 0.349 -0.58 0.23 -0.597 0.092 -0.596 -0.074 -0.547 -0.247 -0.454 -0.391 -0.356 -0.495 -0.27 -0.582 -0.201 -0.664 -0.139 -0.747 -0.08 -0.834 -0.022 -0.921 0.036 -1.009 0.096 -1.099 0.158 -1.187 0.221 -1.275 0.288 -1.362 0.357 -1.448 0.428 -1.533 0.5 -1.616 0.577 -1.699 0 0zm8.66 -12.003l-0.501 1.414 0 0 0.021 0.005 -0.009 0.001 -0.053 0.011 -0.095 0.036 -0.129 0.067 -0.157 0.1 -0.179 0.135 -0.196 0.167 -0.21 0.199 -0.223 0.23 -0.231 0.258 -0.241 0.285 -0.247 0.311 -0.252 0.336 -0.258 0.36 -0.262 0.381 -0.264 0.403 -0.266 0.423 -0.267 0.441 -0.268 0.459 -0.267 0.476 -0.266 0.49 -0.264 0.506 -0.261 0.518 -0.258 0.531 -0.254 0.541 -0.248 0.551 -0.243 0.561 -0.236 0.568 -0.229 0.575 -0.221 0.58 -0.212 0.585 -1.414 -0.501 0.221 -0.607 0.229 -0.602 0.237 -0.596 0.245 -0.588 0.251 -0.581 0.257 -0.571 0.263 -0.561 0.267 -0.55 0.271 -0.538 0.274 -0.525 0.277 -0.511 0.279 -0.496 0.28 -0.48 0.281 -0.463 0.28 -0.446 0.28 -0.427 0.279 -0.407 0.277 -0.387 0.275 -0.365 0.273 -0.343 0.27 -0.321 0.266 -0.296 0.264 -0.273 0.262 -0.247 0.261 -0.223 0.26 -0.195 0.265 -0.169 0.272 -0.139 0.285 -0.105 0.305 -0.062 0.324 -0.002 0.33 0.073 0 0zm-1.49 10.572l1.246 0.834 0 0 -0.224 0.32 -0.205 0.253 -0.245 0.222 -0.613 0.159 -0.648 -0.527 -0.063 -0.379 0.02 -0.279 0.047 -0.29 0.068 -0.324 0.087 -0.365 0.103 -0.402 0.116 -0.439 0.127 -0.469 0.135 -0.496 0.139 -0.518 0.143 -0.535 0.141 -0.546 0.138 -0.552 0.131 -0.553 0.123 -0.548 0.11 -0.537 0.095 -0.52 0.077 -0.498 0.056 -0.467 0.034 -0.431 0.009 -0.386 -0.016 -0.331 -0.039 -0.263 -0.051 -0.183 -0.046 -0.093 -0.014 -0.019 0.008 0.004 0.501 -1.414 0.427 0.238 0.317 0.346 0.204 0.393 0.122 0.415 0.064 0.433 0.023 0.457 -0.011 0.48 -0.039 0.503 -0.063 0.524 -0.084 0.541 -0.102 0.557 -0.115 0.565 -0.128 0.571 -0.136 0.571 -0.141 0.567 -0.145 0.557 -0.144 0.542 -0.14 0.522 -0.135 0.496 -0.126 0.465 -0.113 0.429 -0.099 0.384 -0.079 0.335 -0.058 0.274 -0.033 0.198 -0.008 0.087 -0.033 -0.143 -0.555 -0.433 -0.45 0.099 -0.007 0.001 0.115 -0.143 0.182 -0.259 0 0zm9.13 -5.54l-1.499 0.035 0 0 -0.029 -0.566 -0.054 -0.456 -0.074 -0.346 -0.08 -0.233 -0.066 -0.121 -0.021 -0.025 0.031 0.017 0.031 0.008 -0.032 0.006 -0.111 0.043 -0.171 0.097 -0.213 0.155 -0.244 0.209 -0.265 0.259 -0.282 0.301 -0.294 0.339 -0.303 0.372 -0.309 0.399 -0.313 0.422 -0.315 0.44 -0.315 0.453 -0.313 0.461 -0.309 0.465 -0.304 0.465 -0.296 0.459 -0.287 0.451 -0.277 0.436 -0.264 0.419 -0.251 0.396 -0.235 0.369 -0.219 0.339 -0.201 0.306 -1.246 -0.834 0.19 -0.29 0.213 -0.33 0.232 -0.364 0.249 -0.394 0.265 -0.419 0.278 -0.439 0.29 -0.455 0.301 -0.466 0.309 -0.474 0.317 -0.476 0.322 -0.475 0.326 -0.468 0.328 -0.459 0.33 -0.444 0.329 -0.426 0.329 -0.403 0.327 -0.378 0.325 -0.348 0.325 -0.315 0.325 -0.279 0.332 -0.239 0.347 -0.195 0.376 -0.138 0.42 -0.053 0.448 0.076 0.407 0.225 0.31 0.329 0.218 0.389 0.154 0.441 0.107 0.501 0.068 0.572 0.033 0.654 0 0zm-4.785 3.145l1.484 0.216 0 0 0 -0.131 -0.06 -0.19 -0.13 -0.168 -0.139 -0.09 -0.093 -0.03 -0.036 -0.005 0.008 0 0.04 -0.006 0.067 -0.016 0.084 -0.025 0.098 -0.036 0.11 -0.048 0.119 -0.057 0.125 -0.068 0.129 -0.078 0.132 -0.087 0.132 -0.096 0.132 -0.105 0.129 -0.112 0.126 -0.12 0.12 -0.127 0.115 -0.134 0.107 -0.138 0.098 -0.145 0.089 -0.149 0.079 -0.153 0.068 -0.158 0.056 -0.162 0.045 -0.165 0.031 -0.17 0.018 -0.175 0.003 -0.182 1.499 -0.035 -0.005 0.305 -0.03 0.297 -0.053 0.288 -0.073 0.277 -0.092 0.265 -0.109 0.254 -0.125 0.242 -0.136 0.229 -0.149 0.217 -0.157 0.205 -0.165 0.192 -0.172 0.181 -0.177 0.17 -0.181 0.157 -0.183 0.145 -0.185 0.134 -0.186 0.123 -0.184 0.111 -0.184 0.1 -0.181 0.088 -0.179 0.077 -0.177 0.065 -0.176 0.053 -0.175 0.04 -0.179 0.025 -0.188 0.007 -0.205 -0.022 -0.234 -0.073 -0.247 -0.158 -0.204 -0.261 -0.097 -0.31 0.003 -0.278 0 0zm3.339 -7.74l1.35 0.653 0 0 -0.057 0.118 -0.068 0.143 -0.079 0.166 -0.088 0.186 -0.097 0.205 -0.105 0.222 -0.112 0.239 -0.118 0.252 -0.123 0.264 -0.128 0.275 -0.131 0.285 -0.134 0.292 -0.137 0.297 -0.137 0.301 -0.138 0.304 -0.137 0.304 -0.136 0.303 -0.133 0.301 -0.131 0.296 -0.127 0.289 -0.122 0.283 -0.117 0.272 -0.11 0.261 -0.102 0.248 -0.095 0.233 -0.086 0.216 -0.075 0.196 -0.064 0.175 -0.052 0.15 -0.038 0.119 -0.022 0.081 -0.006 0.027 -1.484 -0.216 0.031 -0.16 0.043 -0.157 0.053 -0.167 0.062 -0.181 0.073 -0.198 0.082 -0.214 0.091 -0.229 0.099 -0.244 0.106 -0.258 0.114 -0.269 0.119 -0.278 0.125 -0.288 0.129 -0.295 0.132 -0.3 0.136 -0.304 0.137 -0.307 0.139 -0.308 0.139 -0.306 0.138 -0.304 0.138 -0.3 0.135 -0.293 0.132 -0.287 0.129 -0.277 0.124 -0.267 0.119 -0.254 0.112 -0.24 0.106 -0.224 0.098 -0.207 0.089 -0.188 0.08 -0.168 0.07 -0.146 0.059 -0.122 0 0zm3.183 3.055l-1.342 -0.671 0 0 0.027 -0.063 0.021 -0.065 0.014 -0.07 0.009 -0.074 0.001 -0.08 -0.005 -0.085 -0.013 -0.089 -0.02 -0.092 -0.027 -0.095 -0.034 -0.096 -0.041 -0.096 -0.047 -0.095 -0.051 -0.091 -0.057 -0.089 -0.06 -0.083 -0.061 -0.077 -0.063 -0.07 -0.063 -0.063 -0.061 -0.053 -0.056 -0.043 -0.049 -0.032 -0.04 -0.022 -0.027 -0.011 -0.011 -0.004 0.007 0.001 0.029 0 0.045 -0.007 0.051 -0.019 0.047 -0.028 0.033 -0.029 0.014 -0.017 -0.003 0.006 -1.35 -0.653 0.109 -0.191 0.142 -0.177 0.174 -0.153 0.202 -0.118 0.215 -0.076 0.219 -0.035 0.21 0.003 0.196 0.032 0.181 0.054 0.168 0.071 0.158 0.085 0.148 0.097 0.14 0.107 0.132 0.116 0.126 0.125 0.121 0.133 0.113 0.142 0.107 0.149 0.1 0.156 0.092 0.164 0.084 0.17 0.074 0.176 0.065 0.183 0.055 0.189 0.041 0.195 0.028 0.2 0.013 0.204 -0.005 0.21 -0.023 0.212 -0.045 0.212 -0.067 0.212 -0.09 0.208 0 0zm1.02 -0.968l1.373 0.603 0 0 -0.103 0.216 -0.114 0.204 -0.124 0.191 -0.132 0.178 -0.14 0.165 -0.147 0.15 -0.153 0.137 -0.157 0.124 -0.163 0.111 -0.165 0.096 -0.169 0.084 -0.17 0.069 -0.172 0.056 -0.173 0.043 -0.175 0.029 -0.175 0.013 -0.174 -0.001 -0.175 -0.019 -0.175 -0.037 -0.174 -0.059 -0.169 -0.082 -0.161 -0.108 -0.148 -0.136 -0.127 -0.161 -0.102 -0.183 -0.069 -0.197 -0.037 -0.204 -0.007 -0.206 0.02 -0.201 0.045 -0.196 0.065 -0.194 0.085 -0.188 1.342 0.671 -0.032 0.07 -0.018 0.052 -0.007 0.032 -0.001 0.012 -0.001 -0.008 -0.004 -0.023 -0.011 -0.032 -0.02 -0.036 -0.024 -0.03 -0.024 -0.023 -0.019 -0.013 -0.009 -0.004 0.001 0 0.014 0.002 0.026 0.003 0.038 0.001 0.046 -0.004 0.054 -0.009 0.061 -0.015 0.067 -0.022 0.071 -0.029 0.074 -0.037 0.077 -0.045 0.077 -0.052 0.079 -0.062 0.079 -0.07 0.077 -0.08 0.076 -0.088 0.073 -0.099 0.07 -0.108 0.067 -0.12 0.063 -0.131 0 0zm-0.19 -4.052l1.353 0.648 0 0 -0.07 0.155 -0.054 0.14 -0.038 0.122 -0.026 0.107 -0.016 0.095 -0.007 0.082 -0.001 0.071 0.005 0.065 0.01 0.062 0.014 0.06 0.019 0.062 0.024 0.063 0.031 0.069 0.036 0.074 0.042 0.081 0.048 0.087 0.053 0.094 0.057 0.103 0.059 0.112 0.059 0.121 0.058 0.131 0.054 0.145 0.048 0.154 0.038 0.167 0.026 0.177 0.012 0.184 -0.003 0.192 -0.02 0.198 -0.037 0.201 -0.053 0.207 -0.071 0.21 -0.087 0.216 -1.373 -0.603 0.054 -0.134 0.04 -0.118 0.026 -0.102 0.016 -0.089 0.008 -0.076 0.001 -0.067 -0.004 -0.061 -0.009 -0.057 -0.013 -0.055 -0.018 -0.059 -0.024 -0.062 -0.029 -0.067 -0.037 -0.074 -0.042 -0.079 -0.047 -0.087 -0.053 -0.095 -0.057 -0.103 -0.059 -0.111 -0.06 -0.123 -0.058 -0.134 -0.055 -0.145 -0.048 -0.155 -0.039 -0.167 -0.027 -0.178 -0.014 -0.186 0.002 -0.194 0.017 -0.199 0.034 -0.204 0.051 -0.21 0.068 -0.215 0.084 -0.22 0.102 -0.226 0 0zm2.92 1.363l1.298 0.75 0 0 -0.142 0.215 -0.185 0.198 -0.247 0.167 -0.309 0.099 -0.323 -0.002 -0.275 -0.084 -0.215 -0.124 -0.166 -0.138 -0.138 -0.142 -0.121 -0.149 -0.11 -0.151 -0.104 -0.155 -0.098 -0.156 -0.095 -0.158 -0.092 -0.156 -0.09 -0.152 -0.086 -0.145 -0.084 -0.138 -0.08 -0.124 -0.075 -0.109 -0.067 -0.088 -0.056 -0.065 -0.036 -0.036 -0.006 -0.005 0.041 0.019 0.096 0.023 0.131 -0.006 0.112 -0.039 0.055 -0.037 -0.002 0.003 -0.038 0.057 -0.06 0.113 -1.353 -0.648 0.128 -0.24 0.15 -0.216 0.186 -0.196 0.241 -0.166 0.299 -0.104 0.317 -0.012 0.282 0.07 0.226 0.117 0.178 0.134 0.147 0.143 0.129 0.148 0.115 0.153 0.108 0.155 0.102 0.159 0.097 0.158 0.094 0.158 0.091 0.155 0.088 0.149 0.084 0.139 0.081 0.129 0.075 0.112 0.068 0.094 0.056 0.069 0.039 0.041 0.011 0.01 -0.038 -0.021 -0.1 -0.029 -0.148 0 -0.134 0.043 -0.073 0.048 -0.01 0.01 0.031 -0.047 0 0zm1.48 -4.754l-1.035 1.085 0 0 -0.034 -0.03 0.03 0.019 0.15 0.053 0.332 -0.02 0.312 -0.209 0.108 -0.189 0.019 -0.075 0 0.005 0.001 0.054 0.007 0.09 0.013 0.118 0.018 0.14 0.023 0.157 0.026 0.173 0.03 0.186 0.03 0.199 0.032 0.208 0.031 0.217 0.03 0.224 0.027 0.23 0.024 0.235 0.019 0.238 0.014 0.241 0.007 0.243 -0.001 0.243 -0.011 0.243 -0.022 0.244 -0.036 0.242 -0.051 0.24 -0.069 0.238 -0.09 0.235 -0.116 0.227 -1.298 -0.75 0.043 -0.086 0.04 -0.103 0.035 -0.123 0.03 -0.14 0.022 -0.155 0.015 -0.169 0.008 -0.18 0.001 -0.19 -0.005 -0.195 -0.012 -0.202 -0.016 -0.205 -0.022 -0.206 -0.024 -0.207 -0.028 -0.207 -0.029 -0.203 -0.03 -0.199 -0.03 -0.195 -0.03 -0.188 -0.028 -0.182 -0.025 -0.174 -0.022 -0.166 -0.017 -0.159 -0.011 -0.157 -0.003 -0.157 0.013 -0.171 0.049 -0.213 0.157 -0.283 0.383 -0.26 0.426 -0.022 0.27 0.1 0.177 0.118 0.143 0.125 0 0zm1.91 -0.608l1.22 0.872 0 0 -0.083 0.113 -0.088 0.11 -0.091 0.107 -0.095 0.105 -0.099 0.101 -0.102 0.098 -0.106 0.095 -0.11 0.091 -0.113 0.087 -0.117 0.082 -0.12 0.077 -0.124 0.074 -0.129 0.067 -0.13 0.062 -0.136 0.056 -0.139 0.049 -0.141 0.042 -0.145 0.034 -0.149 0.025 -0.152 0.016 -0.153 0.007 -0.156 -0.004 -0.157 -0.014 -0.157 -0.027 -0.157 -0.038 -0.155 -0.05 -0.154 -0.062 -0.15 -0.074 -0.146 -0.085 -0.142 -0.097 -0.138 -0.108 -0.131 -0.118 1.035 -1.085 0.062 0.055 0.059 0.046 0.056 0.039 0.056 0.032 0.053 0.026 0.051 0.021 0.051 0.017 0.05 0.012 0.051 0.008 0.052 0.005 0.053 0.001 0.055 -0.002 0.057 -0.006 0.057 -0.01 0.061 -0.014 0.063 -0.019 0.064 -0.023 0.064 -0.026 0.068 -0.032 0.067 -0.035 0.067 -0.04 0.069 -0.045 0.068 -0.048 0.067 -0.051 0.067 -0.056 0.066 -0.058 0.064 -0.062 0.063 -0.065 0.061 -0.066 0.058 -0.069 0.056 -0.07 0.054 -0.073 0 0zm1.939 -2.533l1.011 1.109 0 0 -0.102 0.093 -0.094 0.089 -0.087 0.085 -0.081 0.08 -0.074 0.076 -0.068 0.073 -0.063 0.068 -0.059 0.067 -0.053 0.063 -0.049 0.06 -0.046 0.059 -0.043 0.057 -0.041 0.056 -0.039 0.056 -0.037 0.055 -0.036 0.055 -0.036 0.056 -0.035 0.058 -0.037 0.059 -0.036 0.062 -0.038 0.063 -0.038 0.067 -0.042 0.07 -0.043 0.073 -0.046 0.075 -0.047 0.079 -0.051 0.082 -0.054 0.085 -0.058 0.088 -0.062 0.092 -0.065 0.096 -0.07 0.099 -1.22 -0.872 0.058 -0.083 0.056 -0.081 0.051 -0.077 0.048 -0.074 0.046 -0.072 0.044 -0.07 0.041 -0.068 0.041 -0.068 0.04 -0.067 0.039 -0.066 0.039 -0.067 0.04 -0.069 0.042 -0.069 0.042 -0.069 0.043 -0.071 0.047 -0.073 0.048 -0.074 0.051 -0.075 0.053 -0.076 0.056 -0.078 0.06 -0.079 0.064 -0.081 0.068 -0.084 0.071 -0.084 0.075 -0.085 0.081 -0.088 0.085 -0.091 0.09 -0.092 0.096 -0.096 0.102 -0.099 0.108 -0.102 0.114 -0.105 0 0zm3.367 -3.899l1.239 0.845 -0.04 0.057 -0.045 0.062 -0.054 0.072 -0.061 0.081 -0.068 0.09 -0.078 0.1 -0.083 0.107 -0.09 0.115 -0.098 0.123 -0.103 0.129 -0.108 0.135 -0.114 0.141 -0.118 0.145 -0.123 0.149 -0.125 0.152 -0.13 0.155 -0.132 0.158 -0.135 0.159 -0.136 0.16 -0.138 0.16 -0.139 0.159 -0.139 0.159 -0.14 0.157 -0.139 0.155 -0.139 0.152 -0.137 0.148 -0.136 0.144 -0.135 0.139 -0.132 0.134 -0.13 0.129 -0.127 0.121 -0.123 0.116 -1.011 -1.109 0.104 -0.097 0.11 -0.105 0.115 -0.114 0.12 -0.121 0.123 -0.129 0.126 -0.133 0.13 -0.14 0.131 -0.143 0.133 -0.147 0.133 -0.15 0.134 -0.153 0.134 -0.154 0.133 -0.154 0.132 -0.155 0.131 -0.154 0.128 -0.153 0.126 -0.151 0.123 -0.149 0.119 -0.145 0.115 -0.142 0.11 -0.135 0.106 -0.132 0.099 -0.125 0.093 -0.118 0.088 -0.111 0.08 -0.103 0.072 -0.093 0.064 -0.083 0.055 -0.074 0.046 -0.06 0.034 -0.048 0.02 -0.028zm0 0c0.233,-0.343 0.7,-0.431 1.042,-0.197 0.342,0.233 0.431,0.7 0.197,1.042l-1.239 -0.845z"/>
   </g>
   <g>
    <path class="fil0" d="M84.727 32.997c0.135,-0.391 0.563,-0.598 0.954,-0.463 0.392,0.136 0.599,0.564 0.463,0.955l-1.417 -0.492zm-14.847 57.168l-1.463 -0.331 0.409 -1.797 0.413 -1.786 0.416 -1.774 0.419 -1.765 0.424 -1.756 0.428 -1.748 0.433 -1.741 0.438 -1.736 0.443 -1.731 0.45 -1.728 0.455 -1.725 0.462 -1.724 0.468 -1.723 0.476 -1.725 0.483 -1.726 0.491 -1.729 0.499 -1.733 0.508 -1.738 0.517 -1.743 0.526 -1.752 0.535 -1.759 0.545 -1.769 0.556 -1.778 0.566 -1.791 0.577 -1.803 0.588 -1.816 0.6 -1.83 0.612 -1.847 0.624 -1.863 0.636 -1.881 0.65 -1.9 0.663 -1.92 1.417 0.492 -0.661 1.916 -0.648 1.895 -0.636 1.876 -0.622 1.859 -0.61 1.842 -0.599 1.826 -0.586 1.811 -0.576 1.798 -0.564 1.785 -0.554 1.774 -0.544 1.763 -0.533 1.754 -0.525 1.746 -0.515 1.739 -0.506 1.732 -0.498 1.728 -0.49 1.723 -0.481 1.721 -0.474 1.719 -0.468 1.718 -0.46 1.718 -0.454 1.72 -0.447 1.723 -0.442 1.726 -0.437 1.73 -0.432 1.737 -0.427 1.743 -0.422 1.751 -0.418 1.76 -0.415 1.77 -0.412 1.781 -0.408 1.792zm0 0c-0.091,0.404 -0.493,0.658 -0.897,0.567 -0.404,-0.092 -0.657,-0.494 -0.566,-0.898l1.463 0.331z"/>
   </g>
   <g>
    <path class="fil0" d="M123.335 19.504c-0.359,0.205 -0.818,0.081 -1.024,-0.278 -0.206,-0.359 -0.081,-0.818 0.278,-1.024l0.746 1.302zm2.577 -5.823l1.44 -0.419 0 0 0.08 0.34 0.042 0.34 0.006 0.335 -0.027 0.329 -0.057 0.319 -0.083 0.31 -0.107 0.299 -0.126 0.287 -0.144 0.277 -0.159 0.267 -0.172 0.256 -0.182 0.246 -0.19 0.236 -0.198 0.226 -0.202 0.217 -0.205 0.206 -0.207 0.196 -0.207 0.186 -0.204 0.176 -0.201 0.165 -0.195 0.154 -0.187 0.142 -0.179 0.131 -0.168 0.12 -0.155 0.107 -0.141 0.094 -0.125 0.081 -0.108 0.069 -0.087 0.053 -0.065 0.04 -0.045 0.026 -0.019 0.012 -0.746 -1.302 0.006 -0.003 0.03 -0.018 0.055 -0.034 0.075 -0.046 0.092 -0.058 0.11 -0.072 0.125 -0.083 0.139 -0.095 0.149 -0.106 0.159 -0.117 0.167 -0.127 0.172 -0.136 0.177 -0.145 0.178 -0.154 0.179 -0.161 0.178 -0.168 0.174 -0.175 0.169 -0.18 0.161 -0.185 0.153 -0.19 0.142 -0.192 0.131 -0.194 0.116 -0.195 0.101 -0.195 0.086 -0.194 0.069 -0.192 0.051 -0.189 0.033 -0.186 0.015 -0.183 -0.003 -0.182 -0.022 -0.181 -0.044 -0.185 0 0zm-9.184 8.368l-0.278 1.474 0 0 -0.594 -0.17 -0.515 -0.289 -0.403 -0.419 -0.245 -0.515 -0.083 -0.545 0.045 -0.54 0.141 -0.535 0.217 -0.534 0.283 -0.541 0.342 -0.547 0.395 -0.555 0.441 -0.559 0.483 -0.559 0.52 -0.556 0.55 -0.55 0.576 -0.537 0.595 -0.521 0.61 -0.5 0.619 -0.473 0.623 -0.443 0.621 -0.407 0.615 -0.366 0.606 -0.321 0.592 -0.27 0.577 -0.213 0.562 -0.15 0.552 -0.076 0.544 0.017 0.532 0.139 0.487 0.294 0.379 0.441 0.235 0.539 -1.44 0.419 -0.073 -0.172 -0.07 -0.082 -0.091 -0.053 -0.16 -0.039 -0.254 -0.006 -0.338 0.048 -0.407 0.109 -0.461 0.171 -0.502 0.229 -0.534 0.283 -0.556 0.331 -0.57 0.374 -0.578 0.411 -0.578 0.442 -0.572 0.469 -0.559 0.489 -0.54 0.504 -0.515 0.513 -0.481 0.516 -0.443 0.513 -0.398 0.503 -0.347 0.487 -0.288 0.462 -0.225 0.427 -0.155 0.381 -0.085 0.319 -0.022 0.239 0.02 0.152 0.04 0.087 0.076 0.08 0.171 0.094 0.311 0.087 0 0zm12.701 -0.317l-1.498 -0.089 0 0 -0.003 -0.156 -0.016 -0.074 -0.009 -0.018 -0.005 -0.004 -0.033 -0.019 -0.089 -0.03 -0.155 -0.026 -0.215 -0.01 -0.267 0.013 -0.311 0.035 -0.348 0.059 -0.38 0.08 -0.407 0.098 -0.432 0.115 -0.452 0.128 -0.47 0.14 -0.484 0.148 -0.496 0.155 -0.505 0.157 -0.512 0.158 -0.516 0.155 -0.517 0.151 -0.518 0.143 -0.514 0.134 -0.51 0.12 -0.504 0.105 -0.496 0.087 -0.486 0.065 -0.476 0.041 -0.464 0.012 -0.453 -0.022 -0.438 -0.06 0.278 -1.474 0.295 0.04 0.332 0.016 0.366 -0.01 0.396 -0.034 0.42 -0.056 0.443 -0.078 0.461 -0.096 0.475 -0.112 0.487 -0.126 0.495 -0.138 0.502 -0.146 0.504 -0.152 0.506 -0.156 0.504 -0.157 0.499 -0.155 0.492 -0.151 0.485 -0.144 0.472 -0.134 0.461 -0.123 0.447 -0.108 0.432 -0.09 0.415 -0.07 0.4 -0.045 0.386 -0.018 0.375 0.018 0.368 0.064 0.36 0.127 0.339 0.212 0.286 0.305 0.193 0.374 0.094 0.407 0.011 0.419 0 0zm-6.144 9.656l-0.447 1.431 -0.42 -0.172 -0.37 -0.255 -0.293 -0.341 -0.183 -0.403 -0.069 -0.419 0.021 -0.408 0.087 -0.392 0.137 -0.385 0.177 -0.383 0.212 -0.386 0.243 -0.392 0.27 -0.398 0.294 -0.403 0.313 -0.409 0.33 -0.413 0.343 -0.416 0.352 -0.416 0.357 -0.417 0.358 -0.414 0.356 -0.409 0.349 -0.404 0.338 -0.394 0.325 -0.384 0.305 -0.371 0.282 -0.356 0.255 -0.336 0.223 -0.314 0.187 -0.287 0.145 -0.254 0.101 -0.212 0.054 -0.154 0.014 -0.079 1.498 0.089 -0.061 0.368 -0.118 0.347 -0.159 0.338 -0.195 0.34 -0.226 0.348 -0.254 0.358 -0.279 0.368 -0.301 0.379 -0.319 0.388 -0.334 0.396 -0.345 0.402 -0.352 0.406 -0.356 0.41 -0.355 0.41 -0.351 0.409 -0.342 0.406 -0.33 0.401 -0.314 0.392 -0.293 0.382 -0.268 0.369 -0.24 0.352 -0.206 0.332 -0.168 0.306 -0.128 0.275 -0.084 0.235 -0.042 0.185 -0.008 0.123 0.008 0.062 0.01 0.023 0.023 0.027 0.077 0.052 0.166 0.067zm0 0c0.395,0.123 0.615,0.544 0.492,0.939 -0.123,0.395 -0.544,0.616 -0.939,0.492l0.447 -1.431z"/>
   </g>
   <g>
    <path class="fil0" d="M145.281 21.222c-0.392,0.133 -0.818,-0.076 -0.952,-0.468 -0.134,-0.392 0.076,-0.818 0.467,-0.952l0.485 1.42zm1.568 2.38l-1.061 -1.06 0 0 0.382 -0.393 0.322 -0.352 0.263 -0.311 0.209 -0.271 0.155 -0.229 0.105 -0.183 0.059 -0.132 0.022 -0.072 0.001 -0.005 0.009 0.062 0.04 0.093 0.059 0.072 0.043 0.031 0 0.002 -0.047 -0.011 -0.086 -0.011 -0.115 -0.004 -0.139 0.004 -0.157 0.012 -0.166 0.02 -0.173 0.028 -0.176 0.032 -0.174 0.037 -0.169 0.04 -0.16 0.04 -0.149 0.04 -0.134 0.038 -0.114 0.034 -0.095 0.029 -0.071 0.023 -0.041 0.013 -0.01 0.004 -0.485 -1.42 0.024 -0.008 0.054 -0.017 0.081 -0.026 0.108 -0.034 0.133 -0.039 0.152 -0.043 0.17 -0.046 0.184 -0.046 0.197 -0.046 0.207 -0.044 0.214 -0.04 0.221 -0.034 0.223 -0.027 0.225 -0.018 0.228 -0.006 0.23 0.009 0.233 0.03 0.24 0.06 0.248 0.104 0.246 0.171 0.212 0.251 0.137 0.313 0.043 0.328 -0.033 0.31 -0.086 0.295 -0.129 0.289 -0.169 0.296 -0.212 0.312 -0.256 0.333 -0.304 0.36 -0.356 0.39 -0.412 0.423 0 0zm-66.736 56.468l-1.155 -0.956 2.891 -3.427 2.891 -3.297 2.885 -3.172 2.874 -3.046 2.859 -2.925 2.838 -2.805 2.811 -2.687 2.781 -2.571 2.745 -2.458 2.702 -2.347 2.657 -2.238 2.606 -2.131 2.548 -2.027 2.487 -1.924 2.42 -1.823 2.349 -1.726 2.271 -1.63 2.189 -1.536 2.101 -1.445 2.009 -1.356 1.912 -1.268 1.808 -1.183 1.701 -1.101 1.586 -1.02 1.469 -0.94 1.343 -0.864 1.214 -0.789 1.078 -0.715 0.936 -0.642 0.785 -0.57 0.627 -0.496 0.457 -0.413 1.061 1.06 -0.553 0.501 -0.688 0.545 -0.825 0.599 -0.961 0.66 -1.094 0.725 -1.222 0.795 -1.348 0.866 -1.468 0.941 -1.584 1.018 -1.696 1.097 -1.801 1.178 -1.902 1.263 -1.999 1.349 -2.09 1.437 -2.177 1.527 -2.258 1.62 -2.334 1.716 -2.405 1.813 -2.472 1.912 -2.533 2.013 -2.589 2.118 -2.639 2.224 -2.686 2.331 -2.727 2.443 -2.763 2.555 -2.794 2.669 -2.82 2.787 -2.84 2.906 -2.856 3.028 -2.866 3.151 -2.873 3.276 -2.873 3.405zm0 0c-0.263,0.319 -0.737,0.364 -1.055,0.1 -0.319,-0.264 -0.364,-0.737 -0.1,-1.056l1.155 0.956z"/>
   </g>
  </g>
 </g>
</svg>
