<?xml version="1.0" encoding="UTF-8"?>
<!DOCTYPE svg PUBLIC "-//W3C//DTD SVG 1.1//EN" "http://www.w3.org/Graphics/SVG/1.1/DTD/svg11.dtd">
<!-- Creator: CorelDRAW 2019 (64-Bit) -->
<svg xmlns="http://www.w3.org/2000/svg" xml:space="preserve" width="200px" height="100px" version="1.1" style="shape-rendering:geometricPrecision; text-rendering:geometricPrecision; image-rendering:optimizeQuality; fill-rule:evenodd; clip-rule:evenodd"
viewBox="0 0 200 100"
 xmlns:xlink="http://www.w3.org/1999/xlink"
 xmlns:xodm="http://www.corel.com/coreldraw/odm/2003">
 <defs>
  <style type="text/css">
   <![CDATA[
    .fil0 {fill:black;fill-rule:nonzero}
   ]]>
  </style>
 </defs>
 <g id="Layer_x0020_1">
  <metadata id="CorelCorpID_0Corel-Layer"/>
  <g id="_1386455815552">
   <g>
    <path class="fil0" d="M65.041 42.944c0.528,-0.125 1.06,0.202 1.185,0.731 0.125,0.529 -0.202,1.06 -0.731,1.185l-0.454 -1.916zm-10.749 11.77l-0.186 1.96 0 0 -0.964 -0.125 -0.842 -0.181 -0.732 -0.243 -0.634 -0.319 -0.534 -0.415 -0.41 -0.526 -0.243 -0.616 -0.055 -0.643 0.102 -0.616 0.218 -0.577 0.306 -0.55 0.381 -0.535 0.448 -0.527 0.508 -0.523 0.564 -0.521 0.615 -0.518 0.66 -0.516 0.7 -0.511 0.735 -0.504 0.764 -0.495 0.787 -0.483 0.805 -0.469 0.815 -0.452 0.822 -0.433 0.823 -0.411 0.816 -0.386 0.805 -0.358 0.789 -0.328 0.766 -0.294 0.739 -0.258 0.708 -0.219 0.673 -0.178 0.454 1.916 -0.583 0.154 -0.634 0.197 -0.678 0.237 -0.714 0.274 -0.741 0.308 -0.763 0.339 -0.776 0.367 -0.784 0.392 -0.785 0.413 -0.779 0.432 -0.767 0.447 -0.748 0.459 -0.722 0.468 -0.69 0.473 -0.651 0.475 -0.606 0.473 -0.553 0.467 -0.493 0.455 -0.426 0.438 -0.352 0.414 -0.27 0.379 -0.186 0.331 -0.102 0.265 -0.033 0.182 0.007 0.105 0.029 0.075 0.082 0.104 0.193 0.148 0.339 0.169 0.5 0.165 0.661 0.142 0.822 0.107 0 0zm9.353 3.147l-1.963 0.151 0 0 -0.019 -0.137 -0.029 -0.108 -0.038 -0.09 -0.047 -0.08 -0.059 -0.075 -0.077 -0.076 -0.098 -0.076 -0.124 -0.077 -0.148 -0.075 -0.173 -0.072 -0.197 -0.067 -0.22 -0.061 -0.24 -0.053 -0.259 -0.047 -0.275 -0.04 -0.289 -0.033 -0.301 -0.026 -0.312 -0.021 -0.321 -0.016 -0.329 -0.011 -0.334 -0.008 -0.339 -0.004 -0.341 -0.003 -0.344 -0.001 -0.344 -0.002 -0.343 -0.002 -0.34 -0.003 -0.338 -0.006 -0.333 -0.009 -0.328 -0.014 -0.323 -0.019 -0.314 -0.026 0.186 -1.96 0.267 0.022 0.283 0.017 0.297 0.012 0.309 0.008 0.32 0.006 0.329 0.003 0.337 0.002 0.343 0.001 0.347 0.001 0.352 0.004 0.353 0.004 0.354 0.009 0.355 0.012 0.352 0.017 0.351 0.023 0.347 0.031 0.344 0.039 0.338 0.049 0.333 0.06 0.326 0.074 0.321 0.088 0.313 0.106 0.304 0.127 0.295 0.151 0.283 0.177 0.267 0.209 0.245 0.243 0.218 0.277 0.182 0.309 0.141 0.337 0.096 0.358 0.051 0.371 0 0zm-16.388 12.468l-0.441 -1.919 0 0 0.378 -0.1 0.428 -0.136 0.471 -0.172 0.508 -0.206 0.54 -0.237 0.567 -0.266 0.59 -0.292 0.61 -0.318 0.624 -0.339 0.636 -0.36 0.644 -0.377 0.648 -0.394 0.648 -0.407 0.645 -0.418 0.639 -0.427 0.627 -0.435 0.614 -0.439 0.597 -0.442 0.575 -0.441 0.55 -0.44 0.522 -0.435 0.489 -0.427 0.454 -0.418 0.413 -0.404 0.368 -0.388 0.32 -0.368 0.268 -0.341 0.211 -0.309 0.151 -0.266 0.09 -0.21 0.036 -0.136 0.005 -0.05 1.963 -0.151 -0.022 0.506 -0.12 0.472 -0.189 0.446 -0.244 0.433 -0.293 0.43 -0.339 0.433 -0.382 0.437 -0.421 0.444 -0.46 0.45 -0.494 0.456 -0.526 0.46 -0.555 0.462 -0.581 0.464 -0.604 0.464 -0.623 0.461 -0.639 0.458 -0.654 0.452 -0.662 0.443 -0.67 0.434 -0.673 0.423 -0.673 0.409 -0.67 0.393 -0.664 0.375 -0.654 0.356 -0.643 0.334 -0.627 0.311 -0.608 0.285 -0.588 0.258 -0.565 0.229 -0.541 0.198 -0.515 0.163 -0.489 0.129 0 0zm18.651 -11.967l0.889 1.758 0 0 -0.665 0.333 -0.718 0.356 -0.765 0.376 -0.808 0.394 -0.844 0.41 -0.875 0.422 -0.9 0.434 -0.919 0.442 -0.933 0.449 -0.94 0.452 -0.942 0.453 -0.939 0.452 -0.928 0.449 -0.913 0.443 -0.892 0.435 -0.864 0.423 -0.831 0.411 -0.792 0.394 -0.746 0.377 -0.696 0.356 -0.638 0.332 -0.574 0.307 -0.503 0.276 -0.424 0.244 -0.336 0.205 -0.23 0.154 -0.094 0.073 0.134 -0.203 -0.3 -1.125 -0.455 -0.169 0.067 -0.009 0.282 -0.056 0.441 1.919 -0.422 0.083 -0.397 0.032 -0.692 -0.22 -0.32 -1.264 0.317 -0.426 0.284 -0.229 0.327 -0.221 0.392 -0.24 0.462 -0.265 0.53 -0.291 0.593 -0.317 0.653 -0.34 0.707 -0.362 0.756 -0.381 0.799 -0.398 0.836 -0.414 0.87 -0.426 0.895 -0.436 0.916 -0.444 0.93 -0.45 0.94 -0.453 0.944 -0.454 0.94 -0.452 0.932 -0.448 0.919 -0.442 0.898 -0.433 0.873 -0.421 0.84 -0.409 0.804 -0.392 0.76 -0.373 0.71 -0.352 0.655 -0.329 0 0zm7.737 -4.468l0.921 1.741 0 0 -0.179 0.096 -0.183 0.1 -0.186 0.105 -0.191 0.108 -0.194 0.113 -0.198 0.117 -0.202 0.12 -0.206 0.123 -0.209 0.127 -0.214 0.13 -0.218 0.133 -0.222 0.136 -0.225 0.138 -0.23 0.141 -0.235 0.144 -0.238 0.145 -0.243 0.148 -0.247 0.15 -0.251 0.151 -0.257 0.154 -0.26 0.154 -0.265 0.156 -0.27 0.157 -0.274 0.158 -0.279 0.159 -0.285 0.159 -0.288 0.16 -0.294 0.161 -0.299 0.16 -0.304 0.161 -0.309 0.16 -0.314 0.161 -0.889 -1.758 0.302 -0.154 0.296 -0.153 0.292 -0.155 0.287 -0.154 0.283 -0.155 0.279 -0.154 0.274 -0.154 0.27 -0.153 0.266 -0.153 0.261 -0.153 0.258 -0.152 0.255 -0.15 0.25 -0.15 0.247 -0.148 0.243 -0.148 0.239 -0.145 0.236 -0.145 0.233 -0.142 0.23 -0.141 0.226 -0.139 0.223 -0.137 0.221 -0.135 0.217 -0.132 0.215 -0.13 0.213 -0.127 0.21 -0.125 0.206 -0.121 0.205 -0.12 0.204 -0.115 0.2 -0.112 0.199 -0.11 0.197 -0.106 0 0zm3.809 -0.91l-1.423 1.362 0.003 0.003 0.142 0.12 0.132 0.077 0.114 0.044 0.107 0.026 0.081 0.011 0.05 0.002 0.045 -0.001 0.026 -0.003 0.012 -0.001 0.007 -0.001 -0.009 0.002 -0.02 0.005 -0.025 0.006 -0.034 0.011 -0.043 0.015 -0.051 0.018 -0.06 0.022 -0.068 0.026 -0.075 0.031 -0.083 0.035 -0.093 0.04 -0.101 0.044 -0.109 0.05 -0.119 0.055 -0.127 0.06 -0.137 0.066 -0.146 0.072 -0.157 0.079 -0.166 0.083 -0.176 0.091 -0.187 0.097 -0.198 0.104 -0.921 -1.741 0.206 -0.108 0.196 -0.101 0.186 -0.096 0.176 -0.089 0.167 -0.083 0.157 -0.078 0.15 -0.072 0.141 -0.067 0.132 -0.061 0.126 -0.057 0.117 -0.052 0.112 -0.048 0.104 -0.044 0.099 -0.04 0.093 -0.036 0.088 -0.033 0.084 -0.03 0.078 -0.026 0.077 -0.024 0.076 -0.021 0.07 -0.018 0.071 -0.016 0.078 -0.014 0.073 -0.01 0.08 -0.008 0.091 -0.002 0.091 0.004 0.113 0.014 0.135 0.033 0.135 0.053 0.149 0.086 0.154 0.131 0.004 0.003zm-2.681 3.685l-1.207 -1.556 0 0 0.178 -0.135 0.173 -0.128 0.171 -0.123 0.167 -0.115 0.161 -0.11 0.158 -0.104 0.152 -0.097 0.147 -0.093 0.141 -0.087 0.133 -0.082 0.127 -0.077 0.121 -0.074 0.113 -0.068 0.102 -0.062 0.095 -0.059 0.084 -0.053 0.073 -0.048 0.061 -0.042 0.049 -0.036 0.033 -0.026 0.018 -0.015 0 0 -0.017 0.021 -0.032 0.046 -0.041 0.082 -0.037 0.116 -0.018 0.143 0.012 0.152 0.035 0.129 0.044 0.092 0.039 0.058 0.023 0.028 1.423 -1.362 0.113 0.132 0.107 0.159 0.091 0.191 0.063 0.226 0.019 0.248 -0.03 0.238 -0.068 0.212 -0.091 0.177 -0.098 0.142 -0.101 0.119 -0.101 0.099 -0.099 0.086 -0.1 0.078 -0.099 0.073 -0.1 0.069 -0.104 0.068 -0.106 0.067 -0.108 0.067 -0.113 0.069 -0.116 0.07 -0.117 0.071 -0.123 0.074 -0.126 0.078 -0.129 0.08 -0.133 0.084 -0.136 0.088 -0.139 0.091 -0.142 0.096 -0.145 0.1 -0.147 0.106 -0.151 0.111 -0.152 0.116 0 0zm-4.841 4.392l-0.648 1.859 0 0 -0.291 -0.124 -0.278 -0.175 -0.251 -0.235 -0.2 -0.292 -0.128 -0.325 -0.054 -0.328 0.007 -0.311 0.052 -0.286 0.082 -0.266 0.106 -0.252 0.126 -0.243 0.142 -0.236 0.158 -0.235 0.173 -0.233 0.186 -0.234 0.2 -0.236 0.212 -0.236 0.223 -0.238 0.235 -0.24 0.244 -0.241 0.253 -0.242 0.26 -0.242 0.268 -0.243 0.273 -0.243 0.279 -0.242 0.283 -0.24 0.285 -0.239 0.288 -0.236 0.289 -0.235 0.288 -0.23 0.287 -0.226 0.285 -0.223 1.207 1.556 -0.276 0.215 -0.278 0.22 -0.279 0.223 -0.277 0.225 -0.276 0.227 -0.273 0.228 -0.269 0.229 -0.264 0.229 -0.258 0.228 -0.25 0.227 -0.242 0.225 -0.231 0.222 -0.221 0.217 -0.207 0.213 -0.195 0.207 -0.18 0.201 -0.163 0.192 -0.145 0.182 -0.126 0.171 -0.106 0.157 -0.085 0.14 -0.061 0.119 -0.04 0.093 -0.019 0.059 -0.004 0.021 -0.001 -0.023 -0.011 -0.063 -0.033 -0.083 -0.05 -0.074 -0.044 -0.041 -0.013 -0.009 0.036 0.015 0 0zm9.357 -4.96l1.952 0.261 0 -0.001 -0.081 0.369 -0.131 0.343 -0.169 0.323 -0.199 0.313 -0.229 0.306 -0.256 0.301 -0.28 0.3 -0.304 0.299 -0.327 0.297 -0.347 0.295 -0.367 0.293 -0.384 0.288 -0.399 0.284 -0.414 0.278 -0.427 0.27 -0.436 0.262 -0.446 0.252 -0.454 0.241 -0.458 0.228 -0.462 0.213 -0.464 0.198 -0.466 0.182 -0.464 0.162 -0.463 0.142 -0.459 0.12 -0.456 0.096 -0.451 0.069 -0.446 0.041 -0.44 0.009 -0.434 -0.028 -0.427 -0.07 -0.417 -0.117 0.648 -1.859 0.19 0.053 0.224 0.036 0.258 0.016 0.288 -0.006 0.314 -0.029 0.339 -0.052 0.357 -0.075 0.373 -0.098 0.387 -0.119 0.397 -0.138 0.403 -0.158 0.408 -0.174 0.411 -0.19 0.41 -0.204 0.407 -0.216 0.402 -0.227 0.394 -0.236 0.384 -0.244 0.371 -0.249 0.357 -0.253 0.34 -0.256 0.321 -0.256 0.299 -0.253 0.274 -0.25 0.248 -0.243 0.218 -0.234 0.187 -0.22 0.151 -0.202 0.115 -0.179 0.077 -0.147 0.041 -0.104 0.012 -0.052 0 -0.001zm-0.211 -1.017l0.754 -1.819 -0.002 -0.001 0.102 0.046 0.097 0.052 0.089 0.055 0.086 0.06 0.083 0.064 0.076 0.066 0.075 0.071 0.07 0.073 0.067 0.076 0.065 0.079 0.061 0.082 0.06 0.086 0.056 0.089 0.053 0.091 0.051 0.095 0.048 0.097 0.044 0.1 0.042 0.103 0.039 0.107 0.035 0.11 0.032 0.111 0.028 0.114 0.024 0.117 0.021 0.119 0.016 0.123 0.013 0.124 0.008 0.126 0.003 0.128 -0.001 0.131 -0.005 0.133 -0.011 0.134 -0.016 0.136 -1.952 -0.261 0.008 -0.066 0.005 -0.065 0.003 -0.06 0 -0.061 -0.001 -0.059 -0.004 -0.056 -0.005 -0.055 -0.008 -0.051 -0.008 -0.051 -0.011 -0.049 -0.011 -0.047 -0.013 -0.046 -0.013 -0.041 -0.015 -0.039 -0.015 -0.038 -0.016 -0.037 -0.017 -0.034 -0.017 -0.031 -0.016 -0.029 -0.016 -0.025 -0.015 -0.022 -0.016 -0.021 -0.015 -0.017 -0.013 -0.015 -0.01 -0.011 -0.007 -0.007 -0.007 -0.006 0 0 0.003 0.002 0.006 0.004 0.014 0.007 0.021 0.01 -0.002 -0.001zm3.523 -4.046l-0.872 1.766 0 0 -0.032 -0.014 -0.03 -0.008 -0.031 -0.004 -0.036 -0.002 -0.045 0.004 -0.055 0.009 -0.064 0.017 -0.071 0.025 -0.078 0.035 -0.083 0.044 -0.088 0.053 -0.088 0.06 -0.09 0.069 -0.088 0.075 -0.085 0.079 -0.082 0.083 -0.078 0.086 -0.071 0.087 -0.064 0.084 -0.057 0.083 -0.049 0.078 -0.038 0.069 -0.029 0.059 -0.017 0.044 -0.008 0.024 0.001 -0.004 0.003 -0.04 -0.006 -0.085 -0.036 -0.135 -0.09 -0.166 -0.149 -0.153 -0.163 -0.095 -0.754 1.819 -0.287 -0.166 -0.243 -0.25 -0.154 -0.287 -0.072 -0.277 -0.015 -0.248 0.02 -0.219 0.041 -0.197 0.057 -0.184 0.07 -0.174 0.08 -0.168 0.091 -0.163 0.098 -0.159 0.108 -0.158 0.118 -0.156 0.126 -0.152 0.134 -0.148 0.142 -0.145 0.152 -0.141 0.16 -0.134 0.168 -0.129 0.177 -0.122 0.186 -0.112 0.197 -0.103 0.206 -0.091 0.218 -0.077 0.228 -0.06 0.238 -0.04 0.25 -0.017 0.256 0.011 0.261 0.041 0.259 0.073 0.252 0.106 0.001 0zm0.88 4.802l-1.914 -0.462 0 -0.001 0.048 -0.204 0.042 -0.197 0.038 -0.188 0.032 -0.178 0.027 -0.171 0.023 -0.162 0.018 -0.153 0.014 -0.146 0.01 -0.136 0.007 -0.127 0.002 -0.12 -0.001 -0.111 -0.003 -0.103 -0.007 -0.094 -0.008 -0.085 -0.011 -0.079 -0.012 -0.069 -0.013 -0.06 -0.014 -0.053 -0.014 -0.045 -0.014 -0.037 -0.013 -0.031 -0.011 -0.021 -0.009 -0.016 -0.008 -0.012 -0.002 -0.002 -0.001 -0.002 0.002 0.002 0.006 0.006 0.009 0.006 0.011 0.008 0.014 0.007 0.872 -1.766 0.117 0.063 0.112 0.073 0.108 0.081 0.102 0.089 0.095 0.096 0.087 0.101 0.083 0.111 0.073 0.112 0.068 0.118 0.061 0.124 0.053 0.125 0.049 0.13 0.042 0.134 0.036 0.137 0.031 0.143 0.026 0.145 0.02 0.149 0.016 0.153 0.01 0.158 0.006 0.163 0.001 0.168 -0.004 0.173 -0.008 0.179 -0.014 0.184 -0.018 0.188 -0.023 0.196 -0.028 0.201 -0.034 0.208 -0.038 0.216 -0.045 0.221 -0.049 0.228 -0.055 0.235 0 0zm0.041 -1.105l1.79 0.82 0 0 -0.105 0.218 -0.109 0.206 -0.113 0.193 -0.117 0.18 -0.121 0.168 -0.126 0.157 -0.131 0.145 -0.137 0.134 -0.143 0.121 -0.151 0.11 -0.158 0.097 -0.166 0.082 -0.175 0.067 -0.183 0.049 -0.19 0.028 -0.193 0.006 -0.199 -0.02 -0.194 -0.045 -0.187 -0.071 -0.174 -0.094 -0.157 -0.114 -0.14 -0.133 -0.12 -0.146 -0.099 -0.156 -0.08 -0.162 -0.06 -0.168 -0.043 -0.171 -0.025 -0.173 -0.009 -0.171 0.005 -0.172 0.021 -0.172 0.034 -0.17 1.914 0.462 -0.004 0.019 -0.001 0.01 0 0.004 0 -0.003 -0.002 -0.012 -0.005 -0.021 -0.01 -0.028 -0.016 -0.032 -0.024 -0.038 -0.035 -0.041 -0.042 -0.04 -0.05 -0.037 -0.057 -0.031 -0.061 -0.023 -0.061 -0.014 -0.058 -0.006 -0.044 0.001 -0.037 0.006 -0.022 0.006 -0.01 0.004 0.004 -0.003 0.016 -0.009 0.026 -0.019 0.037 -0.031 0.044 -0.044 0.052 -0.058 0.058 -0.071 0.063 -0.087 0.066 -0.103 0.069 -0.118 0.072 -0.134 0.073 -0.152 0 0zm1.203 -4.08l1.698 0.999 0 -0.001 -0.023 0.042 -0.028 0.058 -0.032 0.071 -0.034 0.084 -0.035 0.095 -0.036 0.104 -0.037 0.112 -0.036 0.119 -0.037 0.126 -0.037 0.131 -0.036 0.135 -0.036 0.14 -0.036 0.143 -0.035 0.145 -0.035 0.146 -0.035 0.148 -0.034 0.149 -0.034 0.147 -0.033 0.148 -0.033 0.145 -0.033 0.143 -0.033 0.142 -0.033 0.138 -0.032 0.135 -0.033 0.131 -0.033 0.128 -0.033 0.122 -0.034 0.119 -0.037 0.117 -0.038 0.113 -0.042 0.112 -0.048 0.114 -1.79 -0.82 0.008 -0.021 0.016 -0.043 0.021 -0.06 0.022 -0.073 0.025 -0.087 0.027 -0.099 0.028 -0.107 0.028 -0.115 0.03 -0.123 0.031 -0.13 0.031 -0.134 0.032 -0.141 0.033 -0.144 0.033 -0.147 0.035 -0.151 0.035 -0.153 0.036 -0.154 0.037 -0.156 0.038 -0.156 0.039 -0.155 0.04 -0.156 0.042 -0.155 0.042 -0.153 0.044 -0.15 0.046 -0.148 0.048 -0.147 0.05 -0.143 0.052 -0.14 0.056 -0.138 0.06 -0.135 0.065 -0.134 0.073 -0.131 0 -0.001zm6.261 1.501l-1.697 -0.998 0 0 0.131 -0.242 0.093 -0.208 0.058 -0.172 0.03 -0.133 0.01 -0.094 -0.003 -0.057 -0.005 -0.024 -0.002 -0.004 0.001 0.002 -0.002 -0.002 -0.016 -0.013 -0.036 -0.02 -0.062 -0.025 -0.086 -0.024 -0.11 -0.019 -0.134 -0.011 -0.15 0 -0.165 0.012 -0.178 0.026 -0.186 0.04 -0.193 0.053 -0.197 0.068 -0.197 0.081 -0.194 0.094 -0.192 0.107 -0.185 0.12 -0.179 0.132 -0.168 0.142 -0.157 0.152 -0.144 0.162 -0.131 0.172 -0.117 0.181 -1.698 -0.999 0.203 -0.314 0.223 -0.293 0.242 -0.271 0.257 -0.25 0.27 -0.228 0.279 -0.206 0.289 -0.187 0.297 -0.166 0.301 -0.146 0.306 -0.125 0.306 -0.106 0.309 -0.086 0.309 -0.065 0.308 -0.045 0.306 -0.023 0.305 0 0.301 0.025 0.299 0.052 0.295 0.083 0.287 0.12 0.276 0.16 0.257 0.206 0.228 0.254 0.183 0.296 0.13 0.327 0.072 0.346 0.016 0.353 -0.034 0.354 -0.08 0.355 -0.121 0.356 -0.159 0.359 -0.199 0.366 0 0zm-3.037 3.843l-1.914 -0.464 0 0 0.053 -0.177 0.065 -0.163 0.072 -0.15 0.078 -0.141 0.085 -0.139 0.09 -0.136 0.095 -0.133 0.099 -0.134 0.105 -0.135 0.108 -0.136 0.112 -0.136 0.115 -0.137 0.118 -0.138 0.121 -0.139 0.122 -0.14 0.124 -0.141 0.125 -0.141 0.125 -0.141 0.125 -0.142 0.124 -0.141 0.122 -0.14 0.121 -0.14 0.117 -0.139 0.114 -0.137 0.111 -0.135 0.106 -0.132 0.101 -0.131 0.094 -0.125 0.088 -0.123 0.082 -0.117 0.072 -0.112 0.065 -0.106 1.697 0.998 -0.096 0.159 -0.103 0.157 -0.107 0.155 -0.111 0.155 -0.116 0.155 -0.119 0.152 -0.121 0.153 -0.124 0.152 -0.127 0.151 -0.127 0.15 -0.128 0.148 -0.129 0.148 -0.128 0.146 -0.127 0.144 -0.126 0.142 -0.123 0.14 -0.12 0.136 -0.118 0.135 -0.113 0.131 -0.109 0.127 -0.103 0.122 -0.097 0.119 -0.091 0.113 -0.081 0.106 -0.075 0.1 -0.065 0.092 -0.055 0.082 -0.042 0.069 -0.032 0.058 -0.02 0.04 -0.006 0.015 0.002 -0.009 0 0zm1.298 -1.134l1.06 1.659 0 0 -0.246 0.156 -0.236 0.146 -0.225 0.135 -0.215 0.125 -0.206 0.115 -0.197 0.105 -0.189 0.097 -0.181 0.087 -0.175 0.078 -0.17 0.069 -0.167 0.06 -0.165 0.052 -0.165 0.042 -0.17 0.031 -0.178 0.018 -0.19 0 -0.202 -0.024 -0.209 -0.057 -0.216 -0.098 -0.202 -0.143 -0.167 -0.172 -0.128 -0.191 -0.089 -0.195 -0.054 -0.185 -0.031 -0.176 -0.013 -0.166 0.001 -0.155 0.009 -0.152 0.018 -0.149 0.023 -0.145 0.029 -0.148 0.034 -0.149 1.914 0.464 -0.022 0.095 -0.016 0.085 -0.012 0.072 -0.007 0.056 -0.002 0.038 0 0.022 -0.001 -0.004 -0.005 -0.029 -0.016 -0.053 -0.036 -0.078 -0.061 -0.091 -0.086 -0.089 -0.104 -0.073 -0.104 -0.048 -0.08 -0.021 -0.056 -0.007 -0.027 0 0.003 -0.001 0.028 -0.005 0.052 -0.014 0.072 -0.022 0.088 -0.032 0.106 -0.043 0.121 -0.054 0.136 -0.065 0.149 -0.076 0.163 -0.088 0.177 -0.099 0.19 -0.11 0.203 -0.122 0.216 -0.133 0.229 -0.145 0 0zm6.566 -6.77l0.928 1.737 0 0 -0.078 0.046 -0.098 0.069 -0.115 0.091 -0.129 0.113 -0.14 0.133 -0.15 0.151 -0.158 0.167 -0.165 0.183 -0.171 0.197 -0.178 0.209 -0.183 0.221 -0.189 0.23 -0.193 0.238 -0.198 0.246 -0.202 0.252 -0.207 0.257 -0.211 0.26 -0.215 0.264 -0.219 0.265 -0.223 0.266 -0.226 0.264 -0.232 0.264 -0.234 0.261 -0.239 0.256 -0.243 0.252 -0.248 0.246 -0.252 0.239 -0.256 0.231 -0.262 0.222 -0.267 0.212 -0.273 0.2 -0.28 0.187 -1.06 -1.659 0.208 -0.139 0.21 -0.155 0.213 -0.169 0.215 -0.181 0.216 -0.195 0.216 -0.205 0.216 -0.216 0.217 -0.225 0.217 -0.232 0.215 -0.239 0.214 -0.244 0.213 -0.249 0.212 -0.252 0.21 -0.254 0.209 -0.256 0.206 -0.255 0.205 -0.255 0.202 -0.252 0.201 -0.249 0.198 -0.245 0.197 -0.24 0.194 -0.234 0.193 -0.226 0.191 -0.22 0.19 -0.21 0.189 -0.201 0.19 -0.192 0.191 -0.18 0.194 -0.169 0.198 -0.157 0.208 -0.145 0.218 -0.129 0 0zm1.345 7.999l-0.12 -1.965 0 0 0.219 -0.03 0.209 -0.059 0.206 -0.089 0.203 -0.12 0.201 -0.152 0.195 -0.182 0.186 -0.211 0.176 -0.237 0.162 -0.259 0.146 -0.277 0.128 -0.29 0.108 -0.3 0.087 -0.305 0.064 -0.303 0.042 -0.298 0.019 -0.285 -0.004 -0.269 -0.025 -0.246 -0.044 -0.219 -0.06 -0.186 -0.071 -0.152 -0.077 -0.117 -0.08 -0.088 -0.088 -0.066 -0.104 -0.052 -0.136 -0.04 -0.182 -0.021 -0.237 0.009 -0.298 0.051 -0.357 0.102 -0.414 0.163 -0.471 0.231 -0.928 -1.737 0.601 -0.294 0.575 -0.226 0.552 -0.158 0.532 -0.09 0.515 -0.018 0.494 0.056 0.466 0.136 0.426 0.212 0.373 0.28 0.31 0.334 0.245 0.369 0.187 0.394 0.132 0.41 0.086 0.421 0.045 0.428 0.006 0.435 -0.029 0.437 -0.062 0.438 -0.093 0.436 -0.123 0.432 -0.153 0.426 -0.183 0.416 -0.213 0.403 -0.242 0.387 -0.273 0.368 -0.305 0.344 -0.339 0.315 -0.372 0.281 -0.406 0.239 -0.441 0.191 -0.472 0.132 -0.494 0.065 0 0zm0.984 -6.731l1.053 1.664 0 0 -0.269 0.175 -0.263 0.181 -0.257 0.186 -0.248 0.189 -0.24 0.193 -0.229 0.194 -0.219 0.195 -0.205 0.195 -0.193 0.192 -0.177 0.19 -0.162 0.186 -0.145 0.179 -0.128 0.172 -0.108 0.161 -0.088 0.148 -0.068 0.133 -0.047 0.113 -0.029 0.087 -0.012 0.058 -0.002 0.025 -0.002 -0.009 -0.01 -0.036 -0.023 -0.047 -0.028 -0.038 -0.019 -0.017 0.011 0.006 0.05 0.022 0.098 0.028 0.145 0.026 0.192 0.018 0.237 0.006 0.281 -0.009 0.12 1.965 -0.388 0.013 -0.365 -0.008 -0.344 -0.034 -0.326 -0.059 -0.311 -0.091 -0.298 -0.13 -0.279 -0.174 -0.25 -0.225 -0.206 -0.273 -0.148 -0.307 -0.082 -0.318 -0.025 -0.312 0.022 -0.299 0.058 -0.284 0.087 -0.27 0.108 -0.259 0.129 -0.253 0.148 -0.248 0.163 -0.245 0.18 -0.242 0.194 -0.241 0.209 -0.239 0.222 -0.237 0.235 -0.236 0.247 -0.233 0.259 -0.231 0.268 -0.227 0.279 -0.224 0.288 -0.22 0.296 -0.214 0.304 -0.209 0.31 -0.202 0 0zm7.816 0.352l-1.609 -1.135 0 0 0.209 -0.314 0.144 -0.249 0.082 -0.176 0.028 -0.086 -0.001 0.031 0.027 0.162 0.124 0.216 0.17 0.138 0.102 0.041 -0.003 0.002 -0.091 0.003 -0.154 0.019 -0.203 0.041 -0.241 0.063 -0.271 0.083 -0.295 0.101 -0.313 0.117 -0.328 0.132 -0.338 0.143 -0.345 0.153 -0.349 0.161 -0.348 0.167 -0.345 0.169 -0.338 0.172 -0.329 0.17 -0.316 0.168 -0.299 0.162 -0.28 0.156 -0.256 0.145 -0.231 0.135 -0.2 0.12 -0.166 0.102 -1.053 -1.664 0.195 -0.121 0.223 -0.133 0.25 -0.146 0.274 -0.156 0.296 -0.164 0.316 -0.171 0.332 -0.177 0.346 -0.179 0.356 -0.181 0.365 -0.179 0.371 -0.177 0.373 -0.173 0.374 -0.166 0.371 -0.157 0.367 -0.147 0.36 -0.134 0.352 -0.121 0.342 -0.105 0.333 -0.086 0.327 -0.066 0.324 -0.04 0.33 -0.007 0.355 0.047 0.391 0.144 0.384 0.305 0.257 0.45 0.074 0.465 -0.049 0.41 -0.117 0.371 -0.169 0.364 -0.217 0.377 -0.27 0.405 0 0zm-3.083 4.164l-0.073 1.968 0 0 -0.252 -0.02 -0.25 -0.042 -0.251 -0.073 -0.253 -0.116 -0.244 -0.169 -0.215 -0.226 -0.162 -0.268 -0.098 -0.283 -0.04 -0.275 0.003 -0.256 0.033 -0.238 0.054 -0.224 0.07 -0.214 0.083 -0.211 0.096 -0.211 0.107 -0.212 0.117 -0.215 0.128 -0.222 0.138 -0.226 0.147 -0.232 0.156 -0.239 0.165 -0.246 0.173 -0.253 0.18 -0.26 0.188 -0.267 0.195 -0.275 0.201 -0.282 0.206 -0.288 0.212 -0.296 0.216 -0.303 0.22 -0.309 0.224 -0.316 1.609 1.135 -0.227 0.321 -0.222 0.312 -0.218 0.305 -0.212 0.296 -0.206 0.288 -0.198 0.278 -0.191 0.269 -0.182 0.26 -0.174 0.249 -0.163 0.24 -0.154 0.229 -0.142 0.217 -0.13 0.206 -0.118 0.194 -0.104 0.179 -0.091 0.166 -0.075 0.149 -0.059 0.131 -0.044 0.11 -0.028 0.086 -0.014 0.055 -0.003 0.02 0 -0.019 -0.01 -0.061 -0.032 -0.091 -0.06 -0.099 -0.075 -0.08 -0.067 -0.046 -0.035 -0.017 0.008 0.002 0.05 0.008 0.093 0.007 0 0zm19.62 -6.838l1.131 1.612 0 0 -0.801 0.545 -0.81 0.519 -0.815 0.492 -0.82 0.466 -0.823 0.441 -0.823 0.417 -0.822 0.394 -0.82 0.37 -0.815 0.347 -0.809 0.326 -0.8 0.305 -0.79 0.284 -0.779 0.264 -0.765 0.245 -0.75 0.226 -0.734 0.208 -0.714 0.19 -0.693 0.174 -0.671 0.157 -0.648 0.141 -0.622 0.126 -0.593 0.112 -0.565 0.098 -0.535 0.085 -0.502 0.071 -0.467 0.06 -0.432 0.048 -0.396 0.036 -0.358 0.027 -0.32 0.016 -0.282 0.007 -0.25 -0.003 0.073 -1.968 0.162 0.002 0.222 -0.006 0.271 -0.013 0.317 -0.024 0.36 -0.033 0.4 -0.045 0.437 -0.055 0.472 -0.068 0.505 -0.08 0.537 -0.093 0.566 -0.106 0.594 -0.121 0.619 -0.135 0.642 -0.15 0.665 -0.167 0.684 -0.182 0.703 -0.199 0.718 -0.217 0.734 -0.234 0.745 -0.253 0.756 -0.272 0.766 -0.291 0.773 -0.311 0.777 -0.332 0.782 -0.353 0.782 -0.374 0.783 -0.397 0.781 -0.418 0.776 -0.442 0.772 -0.465 0.764 -0.49 0.755 -0.514 0 0zm53.989 -38.234l0.711 1.837 -1.92 0.775 -1.879 0.821 -1.841 0.865 -1.806 0.907 -1.772 0.948 -1.741 0.987 -1.714 1.023 -1.688 1.057 -1.665 1.091 -1.644 1.121 -1.626 1.15 -1.61 1.177 -1.597 1.202 -1.586 1.225 -1.578 1.246 -1.572 1.264 -1.568 1.282 -1.567 1.297 -1.569 1.31 -1.572 1.32 -1.579 1.329 -1.587 1.336 -1.598 1.341 -1.612 1.343 -1.628 1.344 -1.646 1.342 -1.667 1.339 -1.691 1.333 -1.717 1.326 -1.745 1.315 -1.776 1.304 -1.808 1.289 -1.131 -1.612 1.785 -1.273 1.755 -1.288 1.726 -1.301 1.699 -1.312 1.676 -1.322 1.655 -1.328 1.636 -1.334 1.62 -1.338 1.606 -1.338 1.594 -1.337 1.586 -1.335 1.579 -1.33 1.576 -1.323 1.574 -1.314 1.575 -1.304 1.578 -1.29 1.585 -1.275 1.593 -1.258 1.605 -1.239 1.618 -1.218 1.633 -1.194 1.652 -1.169 1.674 -1.141 1.697 -1.111 1.723 -1.079 1.751 -1.046 1.782 -1.009 1.815 -0.971 1.851 -0.93 1.889 -0.888 1.929 -0.843 1.972 -0.796zm0 0c0.507,-0.196 1.078,0.056 1.274,0.564 0.196,0.507 -0.056,1.077 -0.563,1.273l-0.711 -1.837z"/>
   </g>
   <g>
    <path class="fil0" d="M65.298 82.656c0.54,-0.068 1.032,0.315 1.099,0.855 0.068,0.539 -0.315,1.032 -0.854,1.099l-0.245 -1.954zm-17.554 6.124l-1.515 -1.258 0 0 0.358 -0.355 0.409 -0.3 0.457 -0.267 0.507 -0.249 0.556 -0.235 0.603 -0.227 0.647 -0.219 0.687 -0.211 0.722 -0.205 0.752 -0.199 0.778 -0.193 0.797 -0.186 0.813 -0.18 0.823 -0.173 0.827 -0.166 0.825 -0.159 0.819 -0.152 0.806 -0.143 0.789 -0.136 0.765 -0.128 0.736 -0.118 0.702 -0.111 0.662 -0.101 0.616 -0.091 0.565 -0.083 0.508 -0.072 0.445 -0.062 0.378 -0.051 0.304 -0.041 0.224 -0.029 0.14 -0.018 0.049 -0.006 0.245 1.954 -0.045 0.006 -0.135 0.017 -0.22 0.029 -0.299 0.04 -0.372 0.05 -0.44 0.061 -0.502 0.072 -0.558 0.081 -0.609 0.091 -0.654 0.099 -0.693 0.109 -0.728 0.118 -0.755 0.126 -0.778 0.133 -0.794 0.142 -0.806 0.149 -0.81 0.156 -0.81 0.163 -0.804 0.169 -0.792 0.175 -0.774 0.181 -0.75 0.185 -0.72 0.191 -0.683 0.194 -0.641 0.198 -0.591 0.199 -0.535 0.201 -0.469 0.199 -0.396 0.194 -0.312 0.181 -0.215 0.156 -0.108 0.105 -0.001 0zm98.417 -25.624l0.538 1.894 -1.358 0.392 -1.811 0.533 -2.228 0.661 -2.612 0.778 -2.961 0.882 -3.277 0.975 -3.557 1.057 -3.805 1.127 -4.02 1.185 -4.199 1.231 -4.346 1.266 -4.458 1.289 -4.538 1.3 -4.583 1.301 -4.594 1.288 -4.573 1.266 -4.517 1.23 -4.428 1.183 -4.305 1.125 -4.149 1.056 -3.959 0.974 -3.737 0.88 -3.48 0.777 -3.193 0.66 -2.873 0.532 -2.523 0.393 -2.148 0.242 -1.76 0.077 -1.394 -0.122 -1.161 -0.508 -0.514 -1.389 0.591 -1.169 1.515 1.258 -0.162 0.225 -0.143 -0.416 0.266 0.07 1.022 0.082 1.578 -0.07 2.044 -0.231 2.456 -0.383 2.826 -0.524 3.158 -0.653 3.455 -0.77 3.716 -0.876 3.942 -0.97 4.135 -1.051 4.294 -1.123 4.418 -1.181 4.509 -1.228 4.565 -1.263 4.588 -1.287 4.578 -1.298 4.533 -1.3 4.454 -1.288 4.343 -1.264 4.196 -1.231 4.017 -1.184 3.803 -1.126 3.556 -1.056 3.276 -0.975 2.96 -0.883 2.613 -0.778 2.232 -0.662 1.818 -0.534 1.371 -0.396zm0 0c0.523,-0.149 1.068,0.155 1.217,0.678 0.148,0.523 -0.156,1.068 -0.679,1.216l-0.538 -1.894z"/>
   </g>
   <g>
    <path class="fil0" d="M151.261 63.166c-0.431,-0.331 -0.511,-0.95 -0.18,-1.381 0.331,-0.431 0.95,-0.511 1.381,-0.18l-1.201 1.561zm0.149 0.114l-0.149 -0.114 1.201 -1.561 0.148 0.114 -1.2 1.561zm1.2 -1.561c0.431,0.332 0.512,0.95 0.18,1.381 -0.331,0.431 -0.95,0.512 -1.38,0.18l1.2 -1.561z"/>
   </g>
  </g>
 </g>
</svg>
