<?xml version="1.0" encoding="UTF-8"?>
<!DOCTYPE svg PUBLIC "-//W3C//DTD SVG 1.1//EN" "http://www.w3.org/Graphics/SVG/1.1/DTD/svg11.dtd">
<!-- Creator: CorelDRAW 2019 (64-Bit) -->
<svg xmlns="http://www.w3.org/2000/svg" xml:space="preserve" width="200px" height="100px" version="1.1" style="shape-rendering:geometricPrecision; text-rendering:geometricPrecision; image-rendering:optimizeQuality; fill-rule:evenodd; clip-rule:evenodd"
viewBox="0 0 200 100"
 xmlns:xlink="http://www.w3.org/1999/xlink"
 xmlns:xodm="http://www.corel.com/coreldraw/odm/2003">
 <defs>
  <style type="text/css">
   <![CDATA[
    .fil0 {fill:black;fill-rule:nonzero}
   ]]>
  </style>
 </defs>
 <g id="Layer_x0020_1">
  <metadata id="CorelCorpID_0Corel-Layer"/>
  <g id="_1386455819072">
   <g>
    <path class="fil0" d="M71.483 42.028c-0.413,0.023 -0.767,-0.293 -0.79,-0.707 -0.023,-0.414 0.293,-0.768 0.707,-0.791l0.083 1.498zm15.08 -2.042l0.015 1.501 0 0 -0.62 0.007 -0.629 0.01 -0.638 0.012 -0.643 0.013 -0.647 0.016 -0.65 0.016 -0.649 0.019 -0.648 0.02 -0.644 0.02 -0.638 0.022 -0.631 0.023 -0.621 0.023 -0.609 0.023 -0.596 0.024 -0.581 0.024 -0.564 0.024 -0.544 0.024 -0.523 0.023 -0.5 0.023 -0.474 0.022 -0.448 0.021 -0.419 0.02 -0.389 0.02 -0.355 0.017 -0.321 0.017 -0.284 0.014 -0.246 0.013 -0.205 0.011 -0.164 0.009 -0.118 0.006 -0.072 0.004 -0.025 0.001 -0.083 -1.498 0.025 -0.001 0.073 -0.004 0.121 -0.007 0.163 -0.008 0.206 -0.011 0.247 -0.013 0.285 -0.015 0.322 -0.016 0.357 -0.018 0.389 -0.019 0.421 -0.021 0.449 -0.021 0.476 -0.022 0.502 -0.023 0.524 -0.023 0.546 -0.024 0.565 -0.024 0.583 -0.024 0.598 -0.024 0.611 -0.024 0.623 -0.023 0.633 -0.022 0.641 -0.022 0.647 -0.021 0.651 -0.019 0.652 -0.019 0.653 -0.017 0.651 -0.016 0.647 -0.013 0.642 -0.012 0.635 -0.01 0.625 -0.008 0 0zm16.152 1.598l-1.486 0.205 0 0 0.005 0.02 0.001 0.004 -0.032 -0.032 -0.085 -0.058 -0.144 -0.073 -0.198 -0.076 -0.25 -0.073 -0.296 -0.066 -0.337 -0.059 -0.375 -0.05 -0.409 -0.041 -0.441 -0.033 -0.47 -0.024 -0.497 -0.017 -0.521 -0.009 -0.543 -0.003 -0.563 0.002 -0.581 0.009 -0.596 0.012 -0.611 0.017 -0.622 0.019 -0.633 0.022 -0.64 0.024 -0.647 0.025 -0.65 0.026 -0.653 0.025 -0.654 0.024 -0.652 0.023 -0.649 0.02 -0.643 0.017 -0.637 0.014 -0.628 0.009 -0.015 -1.501 0.617 -0.008 0.627 -0.014 0.636 -0.016 0.643 -0.021 0.647 -0.022 0.651 -0.024 0.651 -0.025 0.651 -0.026 0.648 -0.025 0.643 -0.024 0.637 -0.022 0.628 -0.02 0.618 -0.017 0.607 -0.012 0.593 -0.009 0.578 -0.003 0.56 0.004 0.542 0.009 0.522 0.018 0.5 0.026 0.476 0.035 0.454 0.046 0.428 0.057 0.402 0.07 0.377 0.085 0.353 0.103 0.328 0.126 0.306 0.157 0.282 0.199 0.25 0.257 0.193 0.322 0.104 0.372 0 0zm0.142 15.869l-1.364 0.626 0 0 -0.105 -0.29 -0.072 -0.307 -0.055 -0.34 -0.044 -0.38 -0.036 -0.419 -0.028 -0.458 -0.021 -0.496 -0.016 -0.528 -0.01 -0.56 -0.004 -0.586 -0.001 -0.609 0.003 -0.63 0.007 -0.645 0.009 -0.658 0.012 -0.666 0.013 -0.669 0.015 -0.671 0.016 -0.667 0.016 -0.66 0.016 -0.649 0.016 -0.634 0.015 -0.614 0.013 -0.592 0.011 -0.564 0.009 -0.534 0.005 -0.498 0.003 -0.458 -0.002 -0.414 -0.006 -0.365 -0.011 -0.31 -0.015 -0.247 -0.017 -0.172 1.486 -0.205 0.027 0.258 0.018 0.297 0.012 0.342 0.006 0.387 0.002 0.43 -0.003 0.47 -0.005 0.506 -0.009 0.54 -0.011 0.568 -0.013 0.595 -0.015 0.616 -0.015 0.635 -0.017 0.649 -0.016 0.659 -0.016 0.666 -0.015 0.667 -0.013 0.667 -0.012 0.661 -0.009 0.652 -0.007 0.638 -0.003 0.621 0.001 0.6 0.004 0.574 0.01 0.544 0.015 0.51 0.02 0.471 0.027 0.428 0.031 0.379 0.038 0.323 0.042 0.259 0.041 0.18 0.027 0.077 0 0zm0.563 -5.454l1.444 0.407 0 0 -0.066 0.242 -0.065 0.254 -0.064 0.263 -0.064 0.271 -0.062 0.278 -0.062 0.283 -0.061 0.285 -0.061 0.289 -0.06 0.288 -0.059 0.287 -0.059 0.284 -0.059 0.28 -0.058 0.275 -0.058 0.268 -0.059 0.26 -0.059 0.251 -0.06 0.24 -0.06 0.229 -0.063 0.218 -0.065 0.205 -0.067 0.192 -0.074 0.183 -0.084 0.175 -0.102 0.17 -0.139 0.175 -0.218 0.176 -0.338 0.123 -0.397 -0.03 -0.303 -0.16 -0.191 -0.189 -0.131 -0.193 -0.103 -0.199 1.364 -0.626 0.035 0.07 0.004 0.008 -0.058 -0.055 -0.173 -0.09 -0.269 -0.02 -0.213 0.075 -0.094 0.074 -0.018 0.021 0.018 -0.033 0.036 -0.074 0.043 -0.108 0.049 -0.139 0.051 -0.162 0.053 -0.185 0.054 -0.203 0.055 -0.221 0.055 -0.235 0.056 -0.248 0.056 -0.259 0.058 -0.269 0.057 -0.276 0.059 -0.282 0.059 -0.288 0.061 -0.29 0.061 -0.292 0.062 -0.292 0.064 -0.291 0.065 -0.289 0.066 -0.284 0.069 -0.279 0.07 -0.273 0.072 -0.265 0 0zm6.354 -11.436l-0.95 1.161 0 0 0.078 0.043 0.129 0.021 0.078 -0.014 -0.01 0.008 -0.078 0.065 -0.118 0.125 -0.144 0.184 -0.159 0.234 -0.169 0.279 -0.177 0.318 -0.181 0.354 -0.185 0.385 -0.187 0.412 -0.187 0.434 -0.188 0.454 -0.186 0.47 -0.185 0.482 -0.183 0.492 -0.179 0.496 -0.176 0.499 -0.171 0.498 -0.166 0.493 -0.16 0.485 -0.152 0.474 -0.146 0.46 -0.138 0.441 -0.129 0.421 -0.119 0.396 -0.11 0.369 -0.099 0.336 -0.087 0.303 -0.076 0.265 -1.444 -0.407 0.077 -0.271 0.089 -0.309 0.101 -0.343 0.111 -0.374 0.122 -0.402 0.131 -0.427 0.14 -0.448 0.147 -0.467 0.156 -0.482 0.162 -0.493 0.169 -0.503 0.175 -0.508 0.179 -0.51 0.184 -0.509 0.188 -0.505 0.191 -0.498 0.194 -0.487 0.196 -0.475 0.197 -0.458 0.199 -0.438 0.2 -0.417 0.202 -0.393 0.202 -0.365 0.205 -0.337 0.209 -0.307 0.217 -0.277 0.233 -0.245 0.264 -0.213 0.32 -0.168 0.396 -0.082 0.432 0.066 0.366 0.209 0 0zm1.096 16.501l-1.379 0.591 0 0 -0.082 -0.285 -0.035 -0.262 -0.022 -0.298 -0.015 -0.348 -0.008 -0.398 -0.003 -0.447 0.001 -0.493 0.004 -0.535 0.007 -0.572 0.008 -0.605 0.01 -0.633 0.01 -0.657 0.01 -0.676 0.009 -0.691 0.007 -0.7 0.005 -0.705 0.001 -0.705 -0.002 -0.7 -0.007 -0.691 -0.013 -0.676 -0.018 -0.657 -0.025 -0.632 -0.032 -0.602 -0.04 -0.568 -0.048 -0.526 -0.057 -0.48 -0.066 -0.427 -0.073 -0.365 -0.077 -0.294 -0.076 -0.208 -0.055 -0.105 0.015 0.01 0.95 -1.161 0.28 0.313 0.183 0.338 0.135 0.367 0.107 0.402 0.089 0.444 0.075 0.485 0.062 0.525 0.052 0.562 0.042 0.595 0.033 0.626 0.026 0.651 0.018 0.673 0.013 0.689 0.007 0.702 0.002 0.709 -0.001 0.712 -0.005 0.712 -0.007 0.705 -0.009 0.693 -0.01 0.678 -0.01 0.658 -0.01 0.633 -0.008 0.602 -0.007 0.567 -0.004 0.527 -0.001 0.482 0.003 0.431 0.008 0.374 0.012 0.309 0.017 0.233 0.018 0.135 -0.014 -0.031 0 0zm2.326 -11.259l1.433 0.448 0 0 -0.098 0.316 -0.105 0.349 -0.111 0.377 -0.118 0.404 -0.123 0.426 -0.128 0.446 -0.131 0.464 -0.136 0.477 -0.138 0.488 -0.141 0.496 -0.143 0.502 -0.144 0.504 -0.144 0.503 -0.145 0.501 -0.144 0.494 -0.143 0.485 -0.141 0.473 -0.14 0.459 -0.136 0.441 -0.133 0.421 -0.13 0.399 -0.126 0.373 -0.121 0.346 -0.116 0.317 -0.112 0.285 -0.109 0.254 -0.108 0.226 -0.118 0.206 -0.16 0.207 -0.351 0.237 -0.727 -0.084 -0.318 -0.39 1.379 -0.591 -0.231 -0.269 -0.619 -0.075 -0.222 0.14 -0.013 0.013 0.048 -0.085 0.072 -0.151 0.088 -0.206 0.098 -0.25 0.107 -0.29 0.114 -0.326 0.12 -0.358 0.126 -0.386 0.13 -0.411 0.134 -0.433 0.137 -0.452 0.14 -0.467 0.141 -0.48 0.143 -0.49 0.144 -0.498 0.144 -0.501 0.143 -0.502 0.143 -0.501 0.14 -0.495 0.139 -0.489 0.135 -0.478 0.133 -0.465 0.128 -0.448 0.124 -0.43 0.119 -0.408 0.113 -0.384 0.108 -0.357 0.1 -0.327 0 0zm5.075 -4.605l-1.39 0.566 0 0 -0.04 -0.087 -0.028 -0.046 -0.007 -0.009 0.022 0.018 0.054 0.027 0.068 0.018 0.059 0.002 0.029 -0.005 -0.005 0.002 -0.035 0.02 -0.06 0.042 -0.077 0.065 -0.09 0.088 -0.099 0.109 -0.107 0.13 -0.112 0.148 -0.116 0.167 -0.119 0.182 -0.121 0.197 -0.121 0.21 -0.123 0.223 -0.121 0.235 -0.122 0.245 -0.12 0.254 -0.118 0.263 -0.116 0.27 -0.114 0.276 -0.11 0.282 -0.107 0.286 -0.103 0.29 -0.099 0.291 -0.094 0.294 -1.433 -0.448 0.102 -0.316 0.106 -0.314 0.111 -0.312 0.116 -0.308 0.119 -0.304 0.123 -0.298 0.126 -0.294 0.129 -0.286 0.131 -0.279 0.134 -0.27 0.137 -0.263 0.138 -0.252 0.14 -0.242 0.142 -0.232 0.143 -0.22 0.146 -0.208 0.147 -0.195 0.151 -0.183 0.155 -0.17 0.16 -0.157 0.169 -0.142 0.182 -0.127 0.199 -0.108 0.224 -0.084 0.248 -0.047 0.271 0.005 0.272 0.069 0.247 0.127 0.205 0.17 0.164 0.196 0.131 0.211 0.107 0.228 0 0zm-0.91 14.473l0.294 1.472 0.001 0 -0.672 -0.146 -0.307 -0.371 -0.111 -0.313 -0.059 -0.309 -0.036 -0.338 -0.02 -0.377 -0.008 -0.42 0.002 -0.46 0.01 -0.5 0.019 -0.535 0.025 -0.565 0.032 -0.593 0.035 -0.617 0.04 -0.635 0.042 -0.648 0.044 -0.659 0.045 -0.663 0.044 -0.665 0.044 -0.66 0.04 -0.652 0.038 -0.639 0.034 -0.62 0.028 -0.598 0.023 -0.57 0.015 -0.538 0.007 -0.5 -0.002 -0.456 -0.012 -0.406 -0.021 -0.35 -0.031 -0.282 -0.036 -0.2 -0.027 -0.094 1.39 -0.566 0.098 0.316 0.061 0.334 0.04 0.368 0.025 0.408 0.013 0.449 0.002 0.487 -0.007 0.524 -0.016 0.556 -0.023 0.585 -0.029 0.609 -0.034 0.629 -0.038 0.645 -0.041 0.657 -0.044 0.663 -0.044 0.666 -0.045 0.664 -0.044 0.657 -0.042 0.645 -0.039 0.63 -0.036 0.608 -0.03 0.584 -0.025 0.553 -0.018 0.517 -0.01 0.476 -0.002 0.43 0.007 0.377 0.017 0.316 0.025 0.243 0.028 0.151 0.002 0.015 -0.164 -0.182 -0.497 -0.107 0 0zm4.719 -16.497l1.033 1.087 0 0 -0.026 0.038 -0.095 0.163 -0.123 0.261 -0.138 0.341 -0.15 0.412 -0.157 0.472 -0.163 0.526 -0.168 0.573 -0.172 0.615 -0.176 0.65 -0.179 0.68 -0.181 0.704 -0.182 0.723 -0.183 0.737 -0.183 0.744 -0.183 0.748 -0.183 0.745 -0.181 0.737 -0.179 0.724 -0.176 0.706 -0.174 0.683 -0.17 0.654 -0.166 0.621 -0.162 0.582 -0.157 0.539 -0.153 0.493 -0.148 0.441 -0.145 0.39 -0.146 0.337 -0.159 0.296 -0.219 0.283 -0.481 0.264 -0.294 -1.472 -0.279 0.14 -0.001 -0.007 0.078 -0.148 0.107 -0.25 0.124 -0.332 0.135 -0.402 0.144 -0.464 0.151 -0.519 0.158 -0.566 0.162 -0.609 0.168 -0.645 0.172 -0.675 0.175 -0.701 0.178 -0.722 0.181 -0.736 0.182 -0.744 0.184 -0.749 0.184 -0.747 0.184 -0.74 0.183 -0.729 0.183 -0.711 0.181 -0.69 0.179 -0.662 0.177 -0.629 0.174 -0.593 0.171 -0.551 0.168 -0.506 0.165 -0.456 0.165 -0.405 0.168 -0.355 0.182 -0.311 0.236 -0.284 0 0.001zm4.286 8.533l-1.497 -0.102 0 0 0.005 -0.154 -0.003 -0.194 -0.013 -0.228 -0.022 -0.256 -0.032 -0.281 -0.041 -0.301 -0.05 -0.319 -0.057 -0.333 -0.067 -0.345 -0.073 -0.353 -0.079 -0.36 -0.087 -0.362 -0.092 -0.363 -0.097 -0.361 -0.103 -0.355 -0.107 -0.348 -0.11 -0.337 -0.114 -0.323 -0.115 -0.307 -0.118 -0.287 -0.117 -0.264 -0.117 -0.237 -0.114 -0.208 -0.108 -0.172 -0.097 -0.133 -0.078 -0.088 -0.047 -0.042 0.004 0.001 0.07 0.018 0.111 -0.005 0.09 -0.032 0.022 -0.015 -1.033 -1.087 0.279 -0.208 0.351 -0.129 0.376 -0.012 0.337 0.096 0.273 0.158 0.223 0.191 0.191 0.213 0.172 0.234 0.159 0.254 0.15 0.275 0.144 0.292 0.139 0.311 0.134 0.328 0.129 0.342 0.125 0.354 0.12 0.366 0.114 0.373 0.11 0.38 0.103 0.384 0.098 0.384 0.092 0.385 0.085 0.381 0.077 0.376 0.07 0.368 0.063 0.358 0.053 0.346 0.046 0.332 0.036 0.316 0.026 0.299 0.015 0.279 0.004 0.263 -0.008 0.245 0 -0.001zm-0.604 6.952l1.278 0.787 0 0 -0.207 0.243 -0.488 0.196 -0.527 -0.153 -0.233 -0.242 -0.11 -0.201 -0.071 -0.187 -0.057 -0.19 -0.049 -0.205 -0.045 -0.222 -0.042 -0.24 -0.04 -0.258 -0.036 -0.273 -0.035 -0.289 -0.033 -0.302 -0.031 -0.314 -0.029 -0.323 -0.026 -0.331 -0.025 -0.337 -0.022 -0.34 -0.02 -0.343 -0.018 -0.342 -0.016 -0.34 -0.013 -0.336 -0.011 -0.33 -0.008 -0.321 -0.005 -0.311 -0.003 -0.299 0 -0.284 0.002 -0.27 0.006 -0.252 0.009 -0.232 0.012 -0.213 1.497 0.102 -0.01 0.181 -0.008 0.208 -0.006 0.23 -0.002 0.252 0 0.27 0.003 0.287 0.005 0.299 0.008 0.31 0.011 0.319 0.012 0.326 0.015 0.331 0.018 0.332 0.019 0.332 0.022 0.331 0.024 0.326 0.025 0.319 0.028 0.31 0.029 0.299 0.031 0.285 0.033 0.269 0.034 0.251 0.035 0.23 0.035 0.204 0.036 0.176 0.034 0.143 0.03 0.103 0.018 0.048 -0.018 -0.03 -0.139 -0.139 -0.431 -0.121 -0.389 0.153 -0.106 0.118 0 0zm2.257 -12.182l1.379 0.589 0 0 -0.085 0.218 -0.088 0.261 -0.089 0.3 -0.089 0.333 -0.088 0.363 -0.086 0.39 -0.086 0.413 -0.083 0.434 -0.082 0.451 -0.08 0.465 -0.079 0.478 -0.077 0.486 -0.075 0.493 -0.074 0.496 -0.072 0.498 -0.071 0.495 -0.069 0.492 -0.068 0.485 -0.066 0.474 -0.065 0.464 -0.063 0.448 -0.063 0.432 -0.061 0.412 -0.06 0.389 -0.06 0.366 -0.058 0.34 -0.058 0.312 -0.059 0.283 -0.06 0.254 -0.063 0.228 -0.074 0.21 -0.107 0.217 -1.278 -0.787 -0.005 0.006 0.03 -0.089 0.043 -0.155 0.049 -0.206 0.051 -0.249 0.054 -0.288 0.056 -0.323 0.057 -0.353 0.059 -0.38 0.06 -0.405 0.061 -0.427 0.063 -0.445 0.065 -0.461 0.066 -0.475 0.068 -0.485 0.07 -0.494 0.07 -0.499 0.073 -0.502 0.075 -0.502 0.076 -0.499 0.078 -0.496 0.081 -0.487 0.082 -0.478 0.085 -0.465 0.087 -0.451 0.089 -0.434 0.093 -0.415 0.095 -0.393 0.099 -0.371 0.103 -0.345 0.108 -0.321 0.116 -0.295 0 0zm4.713 -1.696l-1.466 0.318 0 0.001 -0.058 -0.246 -0.061 -0.208 -0.06 -0.172 -0.057 -0.133 -0.05 -0.095 -0.038 -0.057 -0.019 -0.022 0.006 0.005 0.036 0.019 0.057 0.017 0.057 0.004 0.038 -0.004 0.009 -0.003 -0.019 0.01 -0.044 0.03 -0.062 0.05 -0.074 0.071 -0.085 0.092 -0.092 0.11 -0.097 0.127 -0.101 0.143 -0.104 0.157 -0.105 0.17 -0.107 0.181 -0.107 0.192 -0.107 0.2 -0.107 0.209 -0.106 0.215 -0.105 0.22 -0.104 0.225 -0.102 0.228 -0.1 0.231 -1.379 -0.589 0.106 -0.245 0.109 -0.244 0.111 -0.242 0.114 -0.239 0.116 -0.235 0.117 -0.229 0.121 -0.225 0.121 -0.218 0.124 -0.21 0.126 -0.203 0.128 -0.195 0.131 -0.185 0.134 -0.175 0.138 -0.165 0.144 -0.155 0.153 -0.144 0.162 -0.132 0.178 -0.117 0.199 -0.099 0.223 -0.073 0.25 -0.034 0.262 0.018 0.257 0.075 0.23 0.126 0.196 0.16 0.163 0.183 0.136 0.202 0.117 0.219 0.102 0.237 0.09 0.258 0.082 0.282 0.073 0.307 0 0.001zm0.673 10.384l-0.911 1.192 0 0 -0.235 -0.263 -0.109 -0.226 -0.067 -0.21 -0.048 -0.216 -0.04 -0.233 -0.034 -0.253 -0.03 -0.276 -0.026 -0.297 -0.023 -0.318 -0.021 -0.337 -0.019 -0.356 -0.017 -0.372 -0.017 -0.387 -0.015 -0.4 -0.015 -0.411 -0.015 -0.419 -0.015 -0.427 -0.017 -0.433 -0.016 -0.435 -0.018 -0.436 -0.02 -0.436 -0.022 -0.432 -0.024 -0.428 -0.026 -0.42 -0.03 -0.411 -0.033 -0.399 -0.036 -0.387 -0.04 -0.369 -0.044 -0.352 -0.048 -0.331 -0.052 -0.307 -0.056 -0.281 1.466 -0.318 0.066 0.328 0.058 0.346 0.053 0.363 0.048 0.378 0.042 0.393 0.038 0.405 0.034 0.416 0.03 0.425 0.028 0.432 0.024 0.437 0.022 0.44 0.02 0.443 0.019 0.441 0.017 0.439 0.016 0.434 0.015 0.428 0.015 0.419 0.015 0.409 0.015 0.395 0.017 0.381 0.017 0.364 0.018 0.345 0.02 0.323 0.022 0.298 0.024 0.272 0.026 0.242 0.027 0.208 0.029 0.169 0.027 0.121 0.018 0.06 -0.015 -0.028 -0.132 -0.142 0 0zm4.176 -11.05l-1.122 -0.996 -0.001 0 0.275 -0.273 0.352 -0.223 0.671 -0.015 0.488 0.485 0.089 0.402 -0.006 0.343 -0.046 0.362 -0.077 0.4 -0.104 0.445 -0.129 0.487 -0.152 0.527 -0.172 0.561 -0.19 0.591 -0.207 0.614 -0.219 0.633 -0.231 0.644 -0.239 0.652 -0.246 0.65 -0.249 0.645 -0.25 0.634 -0.25 0.615 -0.246 0.592 -0.24 0.562 -0.232 0.527 -0.221 0.485 -0.21 0.44 -0.196 0.389 -0.182 0.335 -0.172 0.283 -0.181 0.245 -0.301 0.256 -0.891 -0.055 0.911 -1.192 -0.752 -0.062 -0.107 0.077 0.067 -0.093 0.123 -0.203 0.155 -0.286 0.179 -0.354 0.197 -0.414 0.212 -0.465 0.225 -0.51 0.234 -0.547 0.24 -0.579 0.245 -0.604 0.246 -0.622 0.245 -0.634 0.241 -0.639 0.234 -0.639 0.227 -0.632 0.215 -0.619 0.201 -0.599 0.184 -0.572 0.166 -0.538 0.143 -0.5 0.12 -0.451 0.092 -0.394 0.063 -0.327 0.031 -0.242 0.004 -0.123 0.027 0.084 0.35 0.328 0.449 0.002 0.046 -0.021 -0.126 0.128 0 0zm-27.484 21.311l-1.042 -1.08 0 0 0.438 -0.406 0.526 -0.459 0.609 -0.512 0.687 -0.56 0.76 -0.607 0.827 -0.649 0.887 -0.687 0.942 -0.721 0.988 -0.751 1.029 -0.777 1.065 -0.799 1.092 -0.817 1.114 -0.83 1.128 -0.839 1.137 -0.845 1.139 -0.845 1.134 -0.842 1.124 -0.834 1.105 -0.823 1.08 -0.806 1.05 -0.786 1.012 -0.762 0.968 -0.733 0.916 -0.7 0.859 -0.663 0.795 -0.62 0.723 -0.575 0.645 -0.523 0.558 -0.467 0.465 -0.405 0.36 -0.334 0.242 -0.25 1.122 0.996 -0.318 0.329 -0.404 0.376 -0.493 0.43 -0.579 0.483 -0.659 0.536 -0.734 0.582 -0.803 0.628 -0.865 0.667 -0.922 0.704 -0.972 0.736 -1.015 0.764 -1.052 0.789 -1.083 0.807 -1.106 0.824 -1.124 0.835 -1.135 0.842 -1.138 0.845 -1.137 0.844 -1.128 0.839 -1.112 0.828 -1.09 0.815 -1.061 0.797 -1.026 0.775 -0.985 0.748 -0.935 0.717 -0.88 0.682 -0.819 0.642 -0.749 0.597 -0.673 0.55 -0.59 0.495 -0.499 0.436 -0.398 0.369 0 0zm-1.195 9.97l-0.415 1.441 0 0 -0.642 -0.205 -0.588 -0.23 -0.535 -0.255 -0.484 -0.281 -0.433 -0.306 -0.383 -0.334 -0.331 -0.359 -0.278 -0.383 -0.225 -0.405 -0.17 -0.421 -0.116 -0.433 -0.065 -0.441 -0.018 -0.445 0.027 -0.445 0.067 -0.445 0.103 -0.444 0.136 -0.443 0.168 -0.44 0.194 -0.439 0.22 -0.436 0.243 -0.434 0.265 -0.432 0.284 -0.428 0.302 -0.424 0.317 -0.421 0.332 -0.415 0.343 -0.41 0.353 -0.403 0.363 -0.396 0.368 -0.388 0.374 -0.38 0.377 -0.37 1.042 1.08 -0.359 0.352 -0.355 0.361 -0.35 0.367 -0.342 0.375 -0.332 0.378 -0.321 0.383 -0.307 0.386 -0.293 0.387 -0.275 0.387 -0.256 0.386 -0.236 0.384 -0.213 0.38 -0.188 0.374 -0.163 0.367 -0.136 0.357 -0.107 0.347 -0.078 0.334 -0.048 0.321 -0.019 0.304 0.012 0.29 0.04 0.275 0.07 0.261 0.101 0.251 0.135 0.244 0.173 0.237 0.216 0.235 0.264 0.23 0.316 0.224 0.373 0.216 0.432 0.205 0.494 0.193 0.557 0.179 0 0zm24.086 0.716l-0.069 1.499 0 0 -0.216 -0.006 -0.302 0.002 -0.377 0.008 -0.446 0.014 -0.509 0.019 -0.568 0.022 -0.622 0.026 -0.671 0.027 -0.718 0.03 -0.759 0.03 -0.797 0.029 -0.83 0.028 -0.86 0.027 -0.886 0.024 -0.907 0.019 -0.925 0.016 -0.939 0.01 -0.948 0.004 -0.955 -0.004 -0.956 -0.011 -0.954 -0.02 -0.949 -0.03 -0.939 -0.04 -0.925 -0.052 -0.908 -0.064 -0.887 -0.078 -0.862 -0.092 -0.834 -0.107 -0.802 -0.123 -0.766 -0.141 -0.729 -0.16 -0.686 -0.181 0.415 -1.441 0.622 0.163 0.674 0.148 0.72 0.132 0.762 0.117 0.799 0.103 0.832 0.089 0.86 0.075 0.885 0.063 0.905 0.05 0.92 0.04 0.932 0.029 0.94 0.02 0.943 0.011 0.943 0.004 0.938 -0.004 0.928 -0.01 0.917 -0.016 0.9 -0.02 0.879 -0.023 0.854 -0.026 0.826 -0.028 0.793 -0.03 0.756 -0.029 0.716 -0.03 0.672 -0.027 0.623 -0.026 0.571 -0.023 0.516 -0.019 0.457 -0.014 0.396 -0.008 0.333 -0.002 0.274 0.007 0 0zm-7.557 3.09l-0.154 -1.493 0 0 0.607 -0.063 0.586 -0.064 0.565 -0.065 0.544 -0.065 0.523 -0.065 0.5 -0.065 0.478 -0.065 0.454 -0.065 0.432 -0.064 0.408 -0.063 0.384 -0.063 0.359 -0.061 0.334 -0.06 0.309 -0.059 0.282 -0.057 0.256 -0.055 0.227 -0.053 0.198 -0.05 0.168 -0.046 0.136 -0.042 0.097 -0.034 0.053 -0.023 -0.006 0.005 -0.101 0.087 -0.164 0.347 0.129 0.533 0.21 0.185 0.07 0.03 -0.02 -0.004 -0.082 -0.012 -0.127 -0.012 -0.167 -0.01 0.069 -1.499 0.214 0.013 0.192 0.019 0.177 0.027 0.175 0.041 0.207 0.084 0.287 0.245 0.147 0.6 -0.205 0.421 -0.198 0.166 -0.161 0.088 -0.158 0.068 -0.168 0.06 -0.185 0.057 -0.206 0.057 -0.229 0.058 -0.253 0.058 -0.276 0.06 -0.3 0.06 -0.324 0.062 -0.348 0.063 -0.371 0.063 -0.396 0.065 -0.418 0.065 -0.441 0.065 -0.464 0.066 -0.487 0.066 -0.508 0.066 -0.53 0.066 -0.551 0.066 -0.573 0.066 -0.593 0.064 -0.613 0.065 0 0zm-83.242 1.83l0.174 -1.49 0 0 2.243 0.233 2.408 0.198 2.559 0.163 2.695 0.13 2.816 0.098 2.922 0.07 3.016 0.041 3.095 0.016 3.159 -0.009 3.208 -0.031 3.246 -0.052 3.267 -0.07 3.275 -0.088 3.269 -0.103 3.249 -0.116 3.214 -0.128 3.166 -0.139 3.104 -0.146 3.027 -0.152 2.937 -0.157 2.831 -0.16 2.714 -0.161 2.58 -0.161 2.433 -0.157 2.272 -0.153 2.098 -0.147 1.908 -0.139 1.705 -0.13 1.487 -0.118 1.256 -0.104 1.009 -0.089 0.746 -0.072 0.154 1.493 -0.763 0.073 -1.018 0.09 -1.262 0.105 -1.493 0.118 -1.71 0.13 -1.913 0.139 -2.101 0.147 -2.276 0.154 -2.438 0.158 -2.584 0.16 -2.717 0.161 -2.836 0.161 -2.941 0.157 -3.032 0.153 -3.108 0.146 -3.172 0.139 -3.22 0.128 -3.255 0.117 -3.276 0.103 -3.283 0.088 -3.275 0.07 -3.254 0.052 -3.219 0.031 -3.17 0.009 -3.107 -0.016 -3.029 -0.041 -2.939 -0.07 -2.834 -0.099 -2.716 -0.132 -2.584 -0.164 -2.438 -0.2 -2.279 -0.237 0 0zm2.117 -10.437l0.283 1.473 0 0 -1.872 0.364 -1.777 0.354 -1.68 0.345 -1.581 0.337 -1.48 0.328 -1.374 0.321 -1.268 0.312 -1.158 0.304 -1.045 0.297 -0.929 0.289 -0.809 0.28 -0.683 0.27 -0.552 0.256 -0.41 0.235 -0.258 0.194 -0.1 0.111 0.006 -0.033 -0.01 -0.104 0.016 0.015 0.166 0.139 0.342 0.197 0.509 0.222 0.67 0.232 0.826 0.238 0.98 0.241 1.134 0.243 1.29 0.244 1.445 0.245 1.603 0.247 1.763 0.248 1.923 0.25 2.087 0.253 -0.174 1.49 -2.099 -0.254 -1.939 -0.252 -1.779 -0.251 -1.624 -0.25 -1.471 -0.249 -1.32 -0.25 -1.174 -0.251 -1.03 -0.253 -0.892 -0.258 -0.761 -0.264 -0.636 -0.278 -0.527 -0.306 -0.428 -0.369 -0.307 -0.497 -0.069 -0.623 0.208 -0.557 0.357 -0.421 0.453 -0.345 0.545 -0.314 0.648 -0.301 0.753 -0.298 0.86 -0.298 0.97 -0.301 1.077 -0.306 1.183 -0.312 1.288 -0.317 1.392 -0.324 1.493 -0.331 1.593 -0.339 1.689 -0.347 1.785 -0.356 1.879 -0.365 0 0zm135.776 -10.05l-0.164 1.492 -1.821 -0.147 -2.276 -0.093 -2.698 -0.041 -3.086 0.009 -3.444 0.058 -3.773 0.102 -4.071 0.144 -4.341 0.185 -4.581 0.223 -4.793 0.257 -4.976 0.29 -5.13 0.32 -5.254 0.347 -5.35 0.372 -5.417 0.394 -5.455 0.414 -5.465 0.431 -5.444 0.445 -5.396 0.458 -5.319 0.467 -5.212 0.473 -5.077 0.478 -4.913 0.48 -4.72 0.479 -4.498 0.475 -4.247 0.47 -3.967 0.46 -3.658 0.45 -3.319 0.436 -2.952 0.419 -2.553 0.399 -2.123 0.377 -0.283 -1.473 2.16 -0.384 2.579 -0.403 2.969 -0.422 3.333 -0.438 3.669 -0.451 3.976 -0.461 4.255 -0.47 4.504 -0.477 4.726 -0.479 4.918 -0.48 5.083 -0.479 5.217 -0.474 5.323 -0.467 5.4 -0.458 5.449 -0.445 5.469 -0.432 5.46 -0.414 5.422 -0.395 5.355 -0.371 5.259 -0.348 5.135 -0.321 4.983 -0.29 4.8 -0.258 4.59 -0.223 4.35 -0.185 4.083 -0.145 3.787 -0.102 3.462 -0.058 3.109 -0.009 2.73 0.042 2.324 0.095 1.897 0.152zm0 0c0.412,0.045 0.709,0.416 0.664,0.827 -0.045,0.412 -0.416,0.71 -0.828,0.665l0.164 -1.492z"/>
   </g>
   <g>
    <path class="fil0" d="M86.733 42.182c0.102,-0.402 0.51,-0.645 0.912,-0.543 0.401,0.102 0.644,0.51 0.542,0.912l-1.454 -0.369zm-5.627 27.646l-1.401 -0.536 0 0 0.042 -0.131 0.089 -0.303 0.123 -0.437 0.152 -0.557 0.18 -0.667 0.204 -0.767 0.227 -0.857 0.246 -0.939 0.264 -1.009 0.279 -1.072 0.292 -1.124 0.302 -1.168 0.311 -1.201 0.316 -1.227 0.319 -1.241 0.321 -1.248 0.319 -1.244 0.315 -1.232 0.31 -1.209 0.301 -1.178 0.291 -1.138 0.278 -1.087 0.262 -1.029 0.245 -0.959 0.225 -0.882 0.202 -0.794 0.177 -0.698 0.151 -0.592 0.121 -0.476 0.09 -0.352 0.055 -0.218 0.019 -0.074 1.454 0.369 -0.019 0.075 -0.055 0.218 -0.09 0.352 -0.121 0.476 -0.151 0.592 -0.177 0.698 -0.203 0.795 -0.224 0.882 -0.245 0.959 -0.263 1.028 -0.277 1.088 -0.291 1.139 -0.301 1.178 -0.31 1.21 -0.316 1.231 -0.319 1.245 -0.321 1.248 -0.319 1.243 -0.316 1.226 -0.311 1.203 -0.303 1.168 -0.292 1.126 -0.279 1.073 -0.265 1.011 -0.246 0.94 -0.227 0.86 -0.206 0.77 -0.181 0.672 -0.154 0.565 -0.126 0.449 -0.097 0.33 -0.076 0.227 0 0zm-2.77 -3.354l1.493 -0.138 0.02 0.196 0.022 0.195 0.025 0.195 0.026 0.19 0.029 0.188 0.031 0.185 0.032 0.181 0.035 0.175 0.035 0.17 0.037 0.163 0.038 0.156 0.039 0.149 0.04 0.139 0.04 0.131 0.039 0.119 0.039 0.107 0.038 0.094 0.036 0.081 0.031 0.063 0.025 0.045 0.015 0.023 -0.001 -0.002 -0.03 -0.027 -0.073 -0.049 -0.136 -0.051 -0.189 -0.013 -0.183 0.046 -0.126 0.074 -0.062 0.06 -0.02 0.027 0.005 -0.01 0.019 -0.044 1.401 0.536 -0.065 0.154 -0.082 0.15 -0.108 0.151 -0.154 0.15 -0.218 0.131 -0.277 0.07 -0.284 -0.021 -0.232 -0.089 -0.17 -0.115 -0.127 -0.121 -0.099 -0.122 -0.083 -0.124 -0.071 -0.126 -0.065 -0.13 -0.06 -0.135 -0.057 -0.142 -0.054 -0.149 -0.052 -0.156 -0.049 -0.162 -0.048 -0.168 -0.046 -0.175 -0.044 -0.181 -0.043 -0.187 -0.04 -0.192 -0.038 -0.197 -0.036 -0.2 -0.035 -0.204 -0.032 -0.208 -0.029 -0.212 -0.027 -0.213 -0.024 -0.214 -0.021 -0.217zm0 0c-0.038,-0.412 0.265,-0.778 0.677,-0.816 0.413,-0.038 0.778,0.266 0.816,0.678l-1.493 0.138z"/>
   </g>
   <g>
    <path class="fil0" d="M29.016 31.308c0.412,0.039 0.715,0.405 0.676,0.817 -0.039,0.413 -0.406,0.716 -0.818,0.676l0.142 -1.493zm-2.316 -3.392l0.148 1.493 0 0 -1.427 0.152 -1.229 0.151 -1.039 0.151 -0.858 0.149 -0.684 0.146 -0.511 0.138 -0.338 0.123 -0.149 0.078 0.056 -0.069 0.076 -0.36 -0.103 -0.247 0.008 -0.002 0.161 0.084 0.276 0.107 0.364 0.116 0.433 0.115 0.488 0.114 0.532 0.11 0.563 0.105 0.584 0.1 0.595 0.095 0.596 0.088 0.585 0.082 0.565 0.074 0.537 0.068 0.496 0.059 0.446 0.051 0.388 0.043 0.318 0.033 0.239 0.025 0.15 0.015 0.05 0.005 -0.142 1.493 -0.055 -0.005 -0.155 -0.015 -0.243 -0.025 -0.323 -0.035 -0.394 -0.043 -0.454 -0.052 -0.504 -0.06 -0.545 -0.068 -0.576 -0.076 -0.598 -0.084 -0.609 -0.09 -0.611 -0.097 -0.605 -0.104 -0.588 -0.11 -0.563 -0.117 -0.53 -0.123 -0.488 -0.131 -0.443 -0.14 -0.395 -0.155 -0.354 -0.188 -0.332 -0.279 -0.25 -0.531 0.143 -0.648 0.358 -0.363 0.406 -0.22 0.489 -0.178 0.608 -0.165 0.749 -0.16 0.906 -0.158 1.075 -0.156 1.258 -0.155 1.449 -0.154 0 0zm152.069 -4.963l-0.591 1.379 -0.894 -0.228 -1.658 -0.213 -2.306 -0.167 -2.895 -0.118 -3.436 -0.071 -3.931 -0.028 -4.382 0.014 -4.791 0.053 -5.157 0.089 -5.48 0.123 -5.761 0.153 -5.998 0.181 -6.195 0.207 -6.347 0.229 -6.458 0.248 -6.527 0.266 -6.552 0.281 -6.536 0.291 -6.477 0.301 -6.376 0.306 -6.232 0.31 -6.047 0.311 -5.818 0.309 -5.547 0.303 -5.234 0.296 -4.879 0.286 -4.481 0.273 -4.04 0.257 -3.557 0.239 -3.03 0.217 -2.462 0.193 -1.846 0.166 -0.148 -1.493 1.87 -0.168 2.474 -0.194 3.039 -0.218 3.563 -0.239 4.044 -0.257 4.484 -0.274 4.882 -0.285 5.237 -0.297 5.55 -0.304 5.821 -0.308 6.049 -0.311 6.235 -0.31 6.378 -0.307 6.48 -0.301 6.538 -0.291 6.556 -0.281 6.53 -0.266 6.461 -0.249 6.351 -0.229 6.199 -0.206 6.004 -0.181 5.766 -0.154 5.487 -0.123 5.165 -0.089 4.802 -0.053 4.396 -0.014 3.948 0.028 3.46 0.072 2.933 0.12 2.368 0.171 1.779 0.229 1.22 0.326zm0 0c0.381,0.163 0.557,0.604 0.394,0.985 -0.163,0.38 -0.604,0.557 -0.985,0.394l0.591 -1.379z"/>
   </g>
  </g>
 </g>
</svg>
