<?xml version="1.0" encoding="UTF-8"?>
<!DOCTYPE svg PUBLIC "-//W3C//DTD SVG 1.1//EN" "http://www.w3.org/Graphics/SVG/1.1/DTD/svg11.dtd">
<!-- Creator: CorelDRAW 2019 (64-Bit) -->
<svg xmlns="http://www.w3.org/2000/svg" xml:space="preserve" width="200px" height="100px" version="1.1" style="shape-rendering:geometricPrecision; text-rendering:geometricPrecision; image-rendering:optimizeQuality; fill-rule:evenodd; clip-rule:evenodd"
viewBox="0 0 200 100"
 xmlns:xlink="http://www.w3.org/1999/xlink"
 xmlns:xodm="http://www.corel.com/coreldraw/odm/2003">
 <defs>
  <style type="text/css">
   <![CDATA[
    .fil0 {fill:black;fill-rule:nonzero}
   ]]>
  </style>
   <clipPath id="id0">
    <rect x="415.213" y="-333.972" width="759.578" height="1015.945"/>
   </clipPath>
 </defs>
 <g id="Layer_x0020_1">
  <metadata id="CorelCorpID_0Corel-Layer"/>
  <g style="clip-path:url(#id0)">
   <image x="415.213" y="-333.972" width="759.577" height="1015.944" xlink:href="024_Images\024_ImgID1.png"/>
  </g>
  <g>
   <path class="fil0" d="M59.656 58.197c0.222,-0.349 0.686,-0.452 1.036,-0.229 0.349,0.222 0.451,0.686 0.229,1.036l-1.265 -0.807zm-15.619 27.686l-1.315 -0.722 0 0 0.197 -0.347 0.268 -0.456 0.337 -0.559 0.399 -0.658 0.458 -0.746 0.512 -0.83 0.56 -0.902 0.603 -0.968 0.641 -1.026 0.674 -1.075 0.7 -1.116 0.723 -1.149 0.739 -1.173 0.751 -1.189 0.756 -1.197 0.757 -1.197 0.752 -1.189 0.742 -1.172 0.727 -1.147 0.706 -1.113 0.681 -1.072 0.649 -1.022 0.612 -0.964 0.571 -0.898 0.524 -0.823 0.47 -0.74 0.413 -0.648 0.35 -0.55 0.282 -0.442 0.207 -0.325 0.129 -0.202 0.044 -0.069 1.265 0.807 -0.044 0.068 -0.129 0.202 -0.207 0.325 -0.281 0.442 -0.35 0.549 -0.413 0.649 -0.471 0.74 -0.523 0.822 -0.571 0.898 -0.612 0.963 -0.649 1.022 -0.68 1.071 -0.706 1.114 -0.727 1.146 -0.742 1.171 -0.752 1.188 -0.756 1.197 -0.756 1.197 -0.75 1.188 -0.739 1.173 -0.722 1.147 -0.699 1.115 -0.673 1.074 -0.64 1.024 -0.602 0.966 -0.559 0.9 -0.509 0.826 -0.456 0.742 -0.396 0.652 -0.33 0.55 -0.26 0.44 -0.18 0.318 0 0zm-1.509 -19.303l-1.104 1.016 0 0 -0.021 -0.029 0.236 0.021 0.134 -0.06 -0.072 0.109 -0.136 0.315 -0.146 0.479 -0.136 0.612 -0.121 0.725 -0.105 0.821 -0.086 0.9 -0.067 0.966 -0.048 1.019 -0.029 1.057 -0.009 1.084 0.01 1.097 0.03 1.097 0.051 1.085 0.069 1.059 0.09 1.021 0.109 0.968 0.128 0.903 0.147 0.823 0.164 0.728 0.178 0.615 0.185 0.482 0.174 0.322 0.113 0.137 -0.036 -0.008 -0.105 0.004 0.066 -0.046 0.224 -0.251 0.307 -0.49 1.315 0.722 -0.415 0.658 -0.455 0.5 -0.57 0.331 -0.7 0.035 -0.588 -0.3 -0.399 -0.453 -0.296 -0.54 -0.243 -0.629 -0.209 -0.718 -0.181 -0.804 -0.157 -0.882 -0.135 -0.95 -0.114 -1.008 -0.093 -1.055 -0.071 -1.09 -0.052 -1.114 -0.03 -1.124 -0.012 -1.124 0.01 -1.111 0.03 -1.087 0.049 -1.05 0.07 -1.002 0.09 -0.942 0.111 -0.873 0.133 -0.792 0.157 -0.705 0.188 -0.614 0.233 -0.528 0.337 -0.458 0.581 -0.328 0.721 0.077 0.501 0.377 0 0zm22.937 22.084l-0.565 1.389 0 0 -0.572 -0.27 -0.61 -0.35 -0.65 -0.427 -0.693 -0.499 -0.734 -0.564 -0.771 -0.627 -0.806 -0.683 -0.836 -0.734 -0.862 -0.78 -0.884 -0.82 -0.902 -0.854 -0.916 -0.883 -0.925 -0.907 -0.929 -0.924 -0.93 -0.936 -0.925 -0.942 -0.917 -0.943 -0.902 -0.938 -0.886 -0.927 -0.863 -0.91 -0.836 -0.888 -0.805 -0.86 -0.769 -0.826 -0.728 -0.787 -0.684 -0.741 -0.634 -0.691 -0.58 -0.633 -0.521 -0.572 -0.458 -0.502 -0.39 -0.429 -0.318 -0.348 -0.24 -0.262 1.104 -1.016 0.244 0.266 0.319 0.35 0.39 0.429 0.457 0.502 0.52 0.57 0.579 0.632 0.632 0.688 0.682 0.739 0.725 0.784 0.767 0.824 0.802 0.856 0.832 0.885 0.86 0.906 0.881 0.923 0.899 0.932 0.911 0.938 0.92 0.937 0.923 0.93 0.922 0.917 0.917 0.898 0.906 0.875 0.891 0.844 0.872 0.808 0.848 0.766 0.818 0.718 0.783 0.665 0.744 0.605 0.699 0.538 0.648 0.465 0.588 0.387 0.52 0.299 0.438 0.208 0 0zm14.563 -5.781l1.375 0.599 0 0 -0.25 0.523 -0.285 0.506 -0.318 0.49 -0.349 0.472 -0.378 0.455 -0.405 0.436 -0.43 0.418 -0.453 0.4 -0.475 0.381 -0.495 0.362 -0.512 0.342 -0.529 0.322 -0.545 0.302 -0.557 0.282 -0.569 0.26 -0.579 0.238 -0.587 0.216 -0.595 0.194 -0.6 0.17 -0.604 0.147 -0.606 0.122 -0.606 0.098 -0.607 0.071 -0.604 0.045 -0.6 0.019 -0.595 -0.01 -0.588 -0.038 -0.58 -0.068 -0.57 -0.098 -0.558 -0.129 -0.545 -0.162 -0.529 -0.195 0.565 -1.389 0.437 0.16 0.454 0.136 0.472 0.109 0.488 0.084 0.501 0.058 0.513 0.033 0.524 0.009 0.532 -0.016 0.539 -0.041 0.544 -0.064 0.546 -0.088 0.548 -0.11 0.547 -0.133 0.545 -0.155 0.54 -0.176 0.534 -0.196 0.527 -0.217 0.516 -0.236 0.506 -0.255 0.491 -0.273 0.477 -0.291 0.46 -0.307 0.442 -0.323 0.421 -0.338 0.4 -0.352 0.376 -0.366 0.351 -0.379 0.325 -0.39 0.297 -0.401 0.267 -0.412 0.237 -0.421 0.206 -0.43 0 0zm-3.392 -13.871l0.862 -1.227 0 0 0.36 0.27 0.348 0.298 0.337 0.322 0.326 0.346 0.314 0.368 0.301 0.39 0.29 0.409 0.277 0.428 0.264 0.446 0.251 0.461 0.236 0.477 0.222 0.491 0.207 0.504 0.191 0.516 0.175 0.526 0.158 0.536 0.14 0.544 0.123 0.551 0.103 0.557 0.084 0.562 0.063 0.566 0.043 0.568 0.02 0.57 -0.001 0.57 -0.026 0.569 -0.049 0.567 -0.074 0.563 -0.101 0.559 -0.127 0.554 -0.154 0.546 -0.183 0.537 -0.213 0.526 -1.375 -0.599 0.182 -0.45 0.157 -0.461 0.133 -0.472 0.111 -0.481 0.088 -0.489 0.065 -0.496 0.044 -0.502 0.022 -0.506 0.002 -0.51 -0.019 -0.511 -0.038 -0.512 -0.058 -0.511 -0.076 -0.509 -0.094 -0.505 -0.11 -0.501 -0.128 -0.494 -0.144 -0.487 -0.158 -0.478 -0.174 -0.467 -0.187 -0.456 -0.199 -0.443 -0.213 -0.428 -0.224 -0.413 -0.234 -0.395 -0.244 -0.377 -0.253 -0.357 -0.261 -0.337 -0.267 -0.314 -0.273 -0.29 -0.278 -0.266 -0.281 -0.24 -0.283 -0.213 0 0zm-20.478 -16.9l1.395 -0.553 0 0 0.188 0.405 0.26 0.445 0.33 0.48 0.395 0.507 0.456 0.531 0.512 0.551 0.563 0.566 0.609 0.581 0.651 0.591 0.687 0.599 0.72 0.606 0.747 0.609 0.77 0.61 0.789 0.611 0.802 0.607 0.812 0.603 0.817 0.595 0.817 0.586 0.814 0.576 0.805 0.562 0.792 0.548 0.774 0.53 0.753 0.511 0.727 0.49 0.697 0.467 0.661 0.442 0.622 0.414 0.579 0.386 0.53 0.354 0.479 0.323 0.424 0.287 0.363 0.253 -0.862 1.227 -0.35 -0.242 -0.415 -0.283 -0.474 -0.318 -0.528 -0.353 -0.578 -0.386 -0.622 -0.415 -0.663 -0.442 -0.699 -0.469 -0.731 -0.492 -0.757 -0.515 -0.78 -0.533 -0.798 -0.552 -0.812 -0.567 -0.821 -0.581 -0.826 -0.593 -0.826 -0.602 -0.823 -0.611 -0.815 -0.616 -0.801 -0.621 -0.786 -0.622 -0.764 -0.623 -0.738 -0.621 -0.709 -0.618 -0.675 -0.614 -0.637 -0.607 -0.595 -0.598 -0.549 -0.59 -0.498 -0.581 -0.444 -0.57 -0.386 -0.562 -0.324 -0.553 -0.254 -0.55 0 0zm3.042 -12.951l0.551 1.395 0 0 -0.272 0.12 -0.259 0.14 -0.248 0.159 -0.237 0.179 -0.225 0.198 -0.214 0.216 -0.203 0.236 -0.191 0.253 -0.179 0.272 -0.167 0.288 -0.155 0.305 -0.142 0.321 -0.128 0.335 -0.115 0.35 -0.1 0.363 -0.086 0.375 -0.072 0.387 -0.057 0.397 -0.042 0.406 -0.026 0.415 -0.011 0.422 0.004 0.429 0.02 0.434 0.036 0.439 0.052 0.443 0.068 0.445 0.084 0.447 0.101 0.448 0.117 0.448 0.133 0.447 0.15 0.445 0.166 0.441 -1.395 0.553 -0.185 -0.491 -0.166 -0.495 -0.148 -0.496 -0.13 -0.498 -0.112 -0.499 -0.093 -0.498 -0.076 -0.496 -0.058 -0.495 -0.041 -0.492 -0.022 -0.488 -0.005 -0.483 0.012 -0.478 0.03 -0.472 0.048 -0.464 0.066 -0.457 0.083 -0.449 0.101 -0.438 0.118 -0.429 0.137 -0.417 0.155 -0.405 0.174 -0.392 0.191 -0.378 0.211 -0.363 0.229 -0.347 0.249 -0.33 0.268 -0.31 0.287 -0.291 0.306 -0.27 0.326 -0.246 0.345 -0.221 0.362 -0.195 0.38 -0.168 0 0zm16.549 23.038l-1.481 0.234 -0.345 -2.027 -0.37 -1.906 -0.395 -1.789 -0.417 -1.674 -0.438 -1.562 -0.456 -1.455 -0.472 -1.35 -0.487 -1.249 -0.5 -1.151 -0.51 -1.056 -0.518 -0.965 -0.525 -0.877 -0.53 -0.793 -0.531 -0.712 -0.532 -0.635 -0.53 -0.561 -0.526 -0.493 -0.52 -0.426 -0.514 -0.365 -0.504 -0.307 -0.494 -0.253 -0.482 -0.204 -0.47 -0.157 -0.456 -0.115 -0.44 -0.076 -0.425 -0.041 -0.408 -0.008 -0.388 0.02 -0.369 0.047 -0.346 0.07 -0.323 0.089 -0.296 0.104 -0.551 -1.395 0.399 -0.141 0.425 -0.117 0.452 -0.09 0.476 -0.06 0.498 -0.027 0.519 0.011 0.537 0.051 0.553 0.096 0.567 0.143 0.577 0.194 0.587 0.247 0.592 0.304 0.597 0.364 0.598 0.425 0.599 0.49 0.596 0.558 0.592 0.628 0.587 0.701 0.58 0.777 0.572 0.856 0.562 0.938 0.55 1.024 0.537 1.113 0.523 1.204 0.507 1.3 0.49 1.398 0.47 1.501 0.449 1.606 0.428 1.714 0.403 1.826 0.377 1.943 0.35 2.061zm0 0c0.065,0.409 -0.214,0.793 -0.623,0.858 -0.409,0.064 -0.793,-0.214 -0.858,-0.624l1.481 -0.234z"/>
  </g>
  <g>
   <path class="fil0" d="M73.638 80.898c0.125,-0.395 0.547,-0.614 0.941,-0.489 0.395,0.124 0.614,0.546 0.49,0.941l-1.431 -0.452zm-4.789 8.026l-0.594 -1.377 0 0 0.34 -0.159 0.328 -0.177 0.317 -0.193 0.306 -0.208 0.296 -0.223 0.283 -0.235 0.274 -0.247 0.262 -0.257 0.251 -0.265 0.24 -0.272 0.228 -0.277 0.217 -0.281 0.206 -0.283 0.195 -0.283 0.184 -0.282 0.172 -0.279 0.161 -0.275 0.15 -0.268 0.139 -0.261 0.128 -0.251 0.117 -0.241 0.106 -0.227 0.095 -0.213 0.085 -0.196 0.074 -0.179 0.063 -0.16 0.053 -0.139 0.043 -0.115 0.033 -0.093 0.023 -0.066 0.012 -0.037 0.002 -0.007 1.431 0.452 -0.008 0.023 -0.018 0.054 -0.027 0.079 -0.038 0.106 -0.049 0.133 -0.06 0.156 -0.07 0.177 -0.082 0.198 -0.093 0.217 -0.105 0.234 -0.116 0.249 -0.128 0.264 -0.141 0.275 -0.152 0.286 -0.165 0.296 -0.178 0.303 -0.19 0.308 -0.204 0.314 -0.218 0.315 -0.23 0.317 -0.245 0.316 -0.26 0.315 -0.273 0.31 -0.289 0.305 -0.304 0.298 -0.319 0.288 -0.335 0.278 -0.352 0.265 -0.367 0.25 -0.385 0.234 -0.4 0.216 -0.419 0.195 0 0zm-4.198 -16.688l0.128 1.494 0 0 -0.975 0.134 -0.867 0.218 -0.766 0.294 -0.671 0.36 -0.58 0.42 -0.499 0.474 -0.421 0.526 -0.348 0.572 -0.277 0.615 -0.208 0.654 -0.139 0.685 -0.072 0.711 -0.006 0.73 0.059 0.74 0.122 0.743 0.184 0.737 0.241 0.725 0.298 0.703 0.351 0.675 0.4 0.638 0.447 0.595 0.489 0.543 0.53 0.486 0.565 0.422 0.597 0.353 0.628 0.278 0.657 0.198 0.685 0.114 0.715 0.024 0.746 -0.074 0.779 -0.18 0.812 -0.296 0.594 1.377 -0.977 0.356 -0.962 0.223 -0.941 0.093 -0.913 -0.03 -0.878 -0.146 -0.838 -0.253 -0.792 -0.35 -0.744 -0.438 -0.691 -0.516 -0.637 -0.585 -0.582 -0.646 -0.525 -0.698 -0.467 -0.743 -0.405 -0.781 -0.344 -0.812 -0.279 -0.836 -0.212 -0.854 -0.142 -0.863 -0.069 -0.868 0.007 -0.865 0.087 -0.855 0.17 -0.837 0.259 -0.813 0.351 -0.778 0.447 -0.734 0.545 -0.68 0.645 -0.614 0.745 -0.538 0.842 -0.453 0.939 -0.359 1.034 -0.26 1.129 -0.155 0 0zm7.83 7.735l-1.495 -0.127 0 0 0.02 -0.362 -0.003 -0.351 -0.024 -0.34 -0.045 -0.332 -0.064 -0.321 -0.083 -0.312 -0.101 -0.302 -0.118 -0.292 -0.134 -0.283 -0.15 -0.273 -0.164 -0.264 -0.179 -0.253 -0.193 -0.242 -0.205 -0.232 -0.216 -0.221 -0.228 -0.209 -0.237 -0.197 -0.247 -0.185 -0.255 -0.173 -0.262 -0.16 -0.267 -0.146 -0.273 -0.133 -0.278 -0.119 -0.28 -0.105 -0.282 -0.091 -0.283 -0.076 -0.283 -0.061 -0.281 -0.046 -0.279 -0.031 -0.276 -0.016 -0.271 0 -0.266 0.014 -0.128 -1.494 0.354 -0.02 0.355 0.001 0.357 0.02 0.358 0.04 0.357 0.058 0.356 0.077 0.354 0.095 0.351 0.113 0.347 0.13 0.342 0.147 0.337 0.164 0.33 0.181 0.323 0.197 0.315 0.213 0.305 0.229 0.295 0.245 0.283 0.261 0.271 0.275 0.258 0.292 0.242 0.306 0.227 0.321 0.21 0.336 0.192 0.349 0.173 0.364 0.151 0.377 0.13 0.39 0.107 0.402 0.082 0.413 0.058 0.425 0.031 0.435 0.003 0.445 -0.024 0.454 0 0zm-6.901 8.453l-0.044 -1.5 0 0 0.249 -0.015 0.247 -0.031 0.244 -0.045 0.241 -0.061 0.237 -0.075 0.234 -0.09 0.232 -0.104 0.228 -0.119 0.224 -0.133 0.22 -0.147 0.216 -0.161 0.212 -0.175 0.206 -0.188 0.201 -0.201 0.196 -0.214 0.189 -0.227 0.182 -0.24 0.176 -0.252 0.168 -0.264 0.161 -0.275 0.152 -0.286 0.144 -0.296 0.135 -0.308 0.126 -0.317 0.116 -0.328 0.106 -0.336 0.096 -0.345 0.085 -0.354 0.074 -0.362 0.063 -0.369 0.051 -0.378 0.039 -0.384 1.495 0.127 -0.045 0.434 -0.057 0.426 -0.071 0.42 -0.085 0.412 -0.097 0.404 -0.11 0.395 -0.122 0.387 -0.134 0.378 -0.146 0.368 -0.157 0.358 -0.168 0.348 -0.18 0.337 -0.191 0.326 -0.201 0.315 -0.211 0.303 -0.221 0.29 -0.231 0.278 -0.241 0.264 -0.251 0.251 -0.259 0.237 -0.269 0.221 -0.277 0.207 -0.286 0.19 -0.294 0.175 -0.302 0.157 -0.309 0.14 -0.317 0.121 -0.323 0.102 -0.329 0.083 -0.334 0.062 -0.34 0.043 -0.343 0.021 0 0zm14.162 -23.738l-0.671 1.342 0 0 -0.912 -0.368 -0.914 -0.201 -0.92 -0.048 -0.93 0.097 -0.939 0.234 -0.945 0.367 -0.945 0.491 -0.939 0.607 -0.924 0.714 -0.904 0.809 -0.876 0.893 -0.843 0.966 -0.804 1.028 -0.758 1.077 -0.708 1.115 -0.653 1.141 -0.591 1.156 -0.525 1.157 -0.454 1.147 -0.377 1.124 -0.298 1.088 -0.212 1.041 -0.123 0.977 -0.033 0.9 0.059 0.807 0.148 0.701 0.23 0.584 0.305 0.465 0.383 0.357 0.481 0.262 0.614 0.164 0.772 0.044 0.044 1.5 -1.045 -0.061 -0.934 -0.251 -0.807 -0.439 -0.655 -0.609 -0.491 -0.744 -0.335 -0.843 -0.196 -0.923 -0.073 -0.989 0.038 -1.049 0.139 -1.099 0.233 -1.143 0.321 -1.178 0.404 -1.202 0.482 -1.218 0.554 -1.222 0.623 -1.218 0.687 -1.201 0.746 -1.175 0.8 -1.137 0.852 -1.089 0.898 -1.029 0.942 -0.959 0.98 -0.878 1.017 -0.785 1.051 -0.679 1.081 -0.562 1.109 -0.429 1.134 -0.283 1.152 -0.119 1.161 0.062 1.156 0.255 1.138 0.458 0 0zm6.767 12.432l-1.479 0.246 0 0 -0.073 -0.41 -0.082 -0.418 -0.091 -0.424 -0.101 -0.428 -0.109 -0.433 -0.119 -0.435 -0.127 -0.437 -0.136 -0.438 -0.143 -0.438 -0.152 -0.435 -0.16 -0.433 -0.167 -0.43 -0.175 -0.425 -0.182 -0.418 -0.188 -0.412 -0.196 -0.405 -0.202 -0.395 -0.208 -0.385 -0.214 -0.374 -0.22 -0.361 -0.225 -0.348 -0.229 -0.333 -0.235 -0.318 -0.238 -0.302 -0.242 -0.284 -0.245 -0.265 -0.247 -0.245 -0.249 -0.225 -0.251 -0.204 -0.251 -0.182 -0.252 -0.16 -0.25 -0.136 0.671 -1.342 0.341 0.186 0.332 0.211 0.323 0.233 0.313 0.255 0.304 0.275 0.296 0.293 0.287 0.311 0.28 0.328 0.271 0.343 0.263 0.358 0.256 0.371 0.248 0.384 0.241 0.395 0.232 0.407 0.226 0.416 0.217 0.425 0.209 0.433 0.202 0.44 0.194 0.447 0.185 0.451 0.178 0.455 0.169 0.459 0.161 0.461 0.152 0.462 0.143 0.462 0.134 0.462 0.125 0.461 0.116 0.458 0.107 0.455 0.097 0.45 0.088 0.445 0.077 0.44 0 0zm-9.713 7.922l1.478 -0.252 0 0 0.1 0.445 0.126 0.368 0.147 0.292 0.159 0.225 0.167 0.167 0.175 0.121 0.189 0.085 0.21 0.052 0.236 0.019 0.265 -0.018 0.291 -0.057 0.313 -0.1 0.331 -0.144 0.343 -0.186 0.349 -0.229 0.352 -0.269 0.351 -0.308 0.344 -0.346 0.335 -0.38 0.321 -0.412 0.305 -0.443 0.284 -0.472 0.261 -0.498 0.234 -0.522 0.205 -0.545 0.172 -0.564 0.137 -0.582 0.099 -0.599 0.057 -0.613 0.014 -0.626 -0.033 -0.637 -0.083 -0.648 1.479 -0.246 0.098 0.759 0.039 0.749 -0.016 0.735 -0.068 0.718 -0.114 0.701 -0.16 0.679 -0.2 0.657 -0.238 0.633 -0.272 0.606 -0.303 0.578 -0.331 0.548 -0.355 0.517 -0.377 0.484 -0.395 0.449 -0.412 0.413 -0.426 0.374 -0.436 0.334 -0.447 0.292 -0.455 0.247 -0.46 0.199 -0.466 0.149 -0.47 0.093 -0.472 0.03 -0.469 -0.039 -0.459 -0.115 -0.437 -0.197 -0.4 -0.278 -0.352 -0.352 -0.298 -0.421 -0.242 -0.482 -0.187 -0.54 -0.133 -0.598 0 0zm9.141 -16.513l1.069 1.052 0 0 -0.271 0.286 -0.292 0.331 -0.312 0.374 -0.328 0.41 -0.341 0.444 -0.354 0.476 -0.362 0.504 -0.369 0.527 -0.375 0.55 -0.379 0.568 -0.379 0.583 -0.38 0.596 -0.376 0.605 -0.373 0.611 -0.367 0.615 -0.358 0.614 -0.348 0.613 -0.337 0.606 -0.323 0.597 -0.307 0.586 -0.289 0.57 -0.271 0.552 -0.249 0.531 -0.225 0.506 -0.201 0.477 -0.173 0.444 -0.143 0.408 -0.113 0.365 -0.08 0.318 -0.047 0.259 -0.015 0.187 0.005 0.096 -1.478 0.252 -0.027 -0.365 0.028 -0.366 0.068 -0.382 0.102 -0.405 0.132 -0.431 0.162 -0.458 0.189 -0.485 0.214 -0.511 0.238 -0.534 0.26 -0.554 0.281 -0.573 0.299 -0.589 0.316 -0.603 0.332 -0.613 0.344 -0.621 0.356 -0.625 0.366 -0.628 0.374 -0.627 0.38 -0.624 0.385 -0.618 0.387 -0.608 0.388 -0.596 0.388 -0.582 0.384 -0.563 0.381 -0.544 0.374 -0.52 0.367 -0.494 0.358 -0.466 0.347 -0.435 0.336 -0.4 0.322 -0.366 0.31 -0.327 0 0zm8.179 -3.219l-1.347 0.659 0 0 -0.058 -0.103 -0.054 -0.075 -0.047 -0.05 -0.043 -0.033 -0.043 -0.024 -0.047 -0.018 -0.059 -0.013 -0.078 -0.006 -0.096 0.003 -0.117 0.016 -0.136 0.03 -0.153 0.048 -0.168 0.064 -0.182 0.08 -0.194 0.098 -0.206 0.115 -0.214 0.13 -0.223 0.145 -0.231 0.159 -0.238 0.173 -0.244 0.187 -0.249 0.198 -0.254 0.21 -0.259 0.22 -0.262 0.23 -0.266 0.24 -0.269 0.248 -0.271 0.255 -0.274 0.263 -0.275 0.269 -0.276 0.274 -0.277 0.279 -1.069 -1.052 0.285 -0.287 0.284 -0.283 0.284 -0.277 0.283 -0.273 0.283 -0.266 0.282 -0.259 0.279 -0.252 0.278 -0.244 0.276 -0.235 0.274 -0.226 0.272 -0.216 0.269 -0.204 0.265 -0.195 0.264 -0.182 0.26 -0.169 0.259 -0.157 0.256 -0.142 0.254 -0.129 0.254 -0.112 0.253 -0.096 0.253 -0.078 0.255 -0.057 0.259 -0.035 0.261 -0.008 0.263 0.023 0.262 0.058 0.256 0.097 0.24 0.135 0.219 0.172 0.194 0.202 0.164 0.228 0.139 0.248 0 0zm2.711 16.127l-1.436 -0.434 0 0 0.114 -0.43 0.093 -0.452 0.07 -0.475 0.049 -0.495 0.028 -0.51 0.008 -0.526 -0.011 -0.539 -0.029 -0.55 -0.045 -0.558 -0.061 -0.564 -0.076 -0.569 -0.089 -0.57 -0.101 -0.571 -0.112 -0.569 -0.122 -0.565 -0.131 -0.56 -0.137 -0.551 -0.144 -0.542 -0.149 -0.529 -0.152 -0.516 -0.154 -0.5 -0.155 -0.483 -0.155 -0.462 -0.153 -0.442 -0.15 -0.418 -0.147 -0.392 -0.14 -0.364 -0.134 -0.335 -0.126 -0.303 -0.116 -0.269 -0.104 -0.233 -0.091 -0.192 1.347 -0.659 0.106 0.223 0.115 0.257 0.125 0.289 0.133 0.322 0.141 0.352 0.147 0.381 0.152 0.408 0.156 0.433 0.159 0.457 0.16 0.48 0.161 0.5 0.16 0.517 0.157 0.535 0.154 0.549 0.149 0.562 0.144 0.573 0.136 0.583 0.127 0.59 0.118 0.597 0.106 0.6 0.094 0.603 0.08 0.603 0.065 0.602 0.049 0.6 0.031 0.596 0.012 0.589 -0.009 0.582 -0.032 0.574 -0.056 0.562 -0.081 0.55 -0.109 0.537 -0.139 0.521 0 0zm-8.125 9.466l-0.534 -1.401 0 0 0.161 -0.066 0.177 -0.08 0.192 -0.096 0.204 -0.11 0.216 -0.124 0.226 -0.139 0.235 -0.153 0.241 -0.166 0.249 -0.18 0.254 -0.193 0.259 -0.207 0.263 -0.219 0.264 -0.232 0.266 -0.244 0.267 -0.256 0.267 -0.269 0.265 -0.28 0.263 -0.292 0.26 -0.303 0.256 -0.315 0.251 -0.325 0.245 -0.336 0.239 -0.347 0.231 -0.357 0.222 -0.368 0.213 -0.377 0.203 -0.387 0.192 -0.397 0.18 -0.407 0.168 -0.415 0.154 -0.425 0.14 -0.434 1.436 0.434 -0.157 0.486 -0.172 0.475 -0.187 0.464 -0.201 0.452 -0.213 0.441 -0.225 0.43 -0.236 0.417 -0.246 0.406 -0.254 0.394 -0.262 0.381 -0.27 0.37 -0.275 0.357 -0.28 0.344 -0.285 0.332 -0.288 0.319 -0.29 0.307 -0.291 0.294 -0.292 0.28 -0.292 0.268 -0.291 0.255 -0.289 0.241 -0.286 0.228 -0.282 0.215 -0.277 0.201 -0.273 0.187 -0.267 0.173 -0.259 0.16 -0.253 0.146 -0.246 0.132 -0.236 0.118 -0.229 0.103 -0.221 0.091 0 -0.001zm-2.189 -8.346l1.412 0.507 0 0 -0.11 0.322 -0.099 0.325 -0.09 0.329 -0.08 0.332 -0.069 0.331 -0.061 0.333 -0.05 0.329 -0.04 0.327 -0.031 0.323 -0.021 0.317 -0.012 0.31 -0.002 0.302 0.007 0.293 0.016 0.282 0.025 0.27 0.033 0.256 0.041 0.24 0.048 0.224 0.056 0.205 0.06 0.184 0.065 0.162 0.068 0.139 0.067 0.112 0.064 0.087 0.056 0.061 0.047 0.039 0.035 0.021 0.026 0.01 0.024 0.005 0.036 0.001 0.054 -0.008 0.08 -0.025 0.534 1.401 -0.279 0.086 -0.289 0.042 -0.292 -0.005 -0.285 -0.056 -0.267 -0.103 -0.24 -0.143 -0.212 -0.172 -0.184 -0.197 -0.158 -0.214 -0.137 -0.23 -0.119 -0.243 -0.103 -0.256 -0.089 -0.269 -0.075 -0.281 -0.064 -0.292 -0.052 -0.303 -0.04 -0.314 -0.03 -0.323 -0.019 -0.333 -0.008 -0.341 0.003 -0.347 0.013 -0.355 0.024 -0.361 0.035 -0.364 0.045 -0.369 0.057 -0.372 0.067 -0.373 0.079 -0.374 0.09 -0.374 0.102 -0.372 0.113 -0.371 0.125 -0.367 0 0zm11.848 -18.967l1.016 1.104 0 0 -0.081 0.085 -0.154 0.183 -0.206 0.261 -0.248 0.328 -0.285 0.39 -0.32 0.445 -0.349 0.496 -0.377 0.543 -0.401 0.586 -0.422 0.622 -0.439 0.656 -0.455 0.684 -0.467 0.709 -0.476 0.73 -0.483 0.746 -0.485 0.757 -0.486 0.765 -0.484 0.767 -0.477 0.767 -0.47 0.762 -0.458 0.752 -0.444 0.737 -0.427 0.719 -0.406 0.696 -0.383 0.67 -0.357 0.637 -0.328 0.601 -0.295 0.561 -0.259 0.513 -0.221 0.463 -0.178 0.403 -0.131 0.336 -1.412 -0.507 0.16 -0.407 0.199 -0.452 0.237 -0.497 0.272 -0.54 0.306 -0.581 0.337 -0.618 0.365 -0.651 0.389 -0.681 0.413 -0.707 0.431 -0.728 0.449 -0.745 0.462 -0.758 0.473 -0.768 0.482 -0.773 0.487 -0.774 0.49 -0.769 0.489 -0.763 0.485 -0.75 0.479 -0.735 0.471 -0.714 0.458 -0.69 0.444 -0.662 0.426 -0.628 0.405 -0.592 0.382 -0.55 0.356 -0.506 0.328 -0.457 0.297 -0.405 0.263 -0.349 0.23 -0.291 0.198 -0.235 0.185 -0.191 0 0zm5.561 1.611l-1.217 0.877 0 0 -0.123 -0.167 -0.125 -0.158 -0.126 -0.149 -0.126 -0.14 -0.127 -0.132 -0.127 -0.123 -0.126 -0.115 -0.126 -0.106 -0.124 -0.097 -0.124 -0.089 -0.122 -0.08 -0.12 -0.072 -0.118 -0.063 -0.116 -0.055 -0.113 -0.047 -0.11 -0.039 -0.107 -0.032 -0.103 -0.025 -0.101 -0.018 -0.097 -0.011 -0.092 -0.005 -0.09 0.002 -0.087 0.007 -0.084 0.012 -0.081 0.019 -0.079 0.024 -0.079 0.029 -0.076 0.036 -0.075 0.041 -0.076 0.049 -0.074 0.056 -0.074 0.064 -1.016 -1.104 0.149 -0.128 0.156 -0.117 0.162 -0.105 0.168 -0.093 0.174 -0.081 0.178 -0.068 0.181 -0.054 0.186 -0.042 0.187 -0.028 0.188 -0.016 0.189 -0.002 0.19 0.009 0.189 0.022 0.188 0.033 0.188 0.045 0.186 0.055 0.184 0.066 0.184 0.077 0.181 0.086 0.179 0.096 0.177 0.106 0.175 0.115 0.173 0.124 0.171 0.133 0.169 0.142 0.166 0.151 0.164 0.159 0.161 0.168 0.159 0.177 0.156 0.185 0.153 0.194 0.15 0.202 0 0zm4.857 13.284l-1.481 -0.24 0 0 0.033 -0.275 0.013 -0.304 -0.007 -0.33 -0.027 -0.353 -0.047 -0.375 -0.065 -0.393 -0.084 -0.409 -0.1 -0.423 -0.116 -0.434 -0.131 -0.444 -0.145 -0.451 -0.156 -0.456 -0.168 -0.46 -0.178 -0.462 -0.186 -0.462 -0.193 -0.46 -0.199 -0.457 -0.204 -0.451 -0.208 -0.444 -0.21 -0.435 -0.211 -0.425 -0.21 -0.412 -0.209 -0.398 -0.206 -0.383 -0.202 -0.365 -0.196 -0.346 -0.189 -0.324 -0.181 -0.301 -0.172 -0.277 -0.16 -0.25 -0.147 -0.22 -0.132 -0.188 1.217 -0.877 0.154 0.219 0.164 0.246 0.173 0.27 0.183 0.295 0.192 0.319 0.198 0.34 0.205 0.361 0.21 0.38 0.214 0.396 0.216 0.414 0.218 0.427 0.219 0.44 0.217 0.451 0.216 0.46 0.212 0.469 0.207 0.475 0.202 0.48 0.194 0.484 0.187 0.485 0.176 0.485 0.167 0.485 0.154 0.482 0.142 0.479 0.126 0.472 0.111 0.467 0.093 0.459 0.075 0.45 0.055 0.441 0.033 0.43 0.009 0.42 -0.018 0.408 -0.047 0.395 0 0zm-6.884 11.2l-1 -1.118 0 0 0.156 -0.144 0.174 -0.171 0.188 -0.194 0.202 -0.216 0.213 -0.236 0.224 -0.256 0.232 -0.273 0.239 -0.29 0.245 -0.305 0.249 -0.318 0.254 -0.332 0.256 -0.342 0.256 -0.352 0.257 -0.361 0.255 -0.369 0.253 -0.375 0.249 -0.381 0.245 -0.384 0.238 -0.386 0.231 -0.388 0.223 -0.388 0.213 -0.387 0.202 -0.384 0.191 -0.38 0.177 -0.374 0.163 -0.368 0.147 -0.359 0.132 -0.349 0.113 -0.337 0.095 -0.324 0.076 -0.308 0.055 -0.291 1.481 0.24 -0.072 0.372 -0.092 0.377 -0.112 0.385 -0.132 0.389 -0.148 0.395 -0.164 0.399 -0.179 0.404 -0.192 0.406 -0.205 0.409 -0.216 0.41 -0.226 0.41 -0.235 0.41 -0.243 0.408 -0.25 0.405 -0.255 0.402 -0.26 0.397 -0.264 0.391 -0.266 0.384 -0.267 0.376 -0.267 0.366 -0.266 0.357 -0.264 0.345 -0.262 0.333 -0.256 0.319 -0.252 0.305 -0.246 0.289 -0.237 0.273 -0.23 0.255 -0.221 0.237 -0.212 0.217 -0.201 0.198 -0.192 0.177 0 0zm-4.132 -6.432l1.463 0.331 0 0 -0.047 0.236 -0.035 0.246 -0.024 0.255 -0.012 0.261 -0.002 0.267 0.009 0.27 0.02 0.272 0.03 0.271 0.04 0.27 0.049 0.268 0.058 0.262 0.066 0.255 0.074 0.248 0.081 0.238 0.087 0.226 0.093 0.213 0.097 0.197 0.1 0.181 0.103 0.162 0.102 0.142 0.101 0.12 0.095 0.096 0.086 0.073 0.077 0.05 0.06 0.03 0.045 0.015 0.034 0.005 0.029 -0.001 0.035 -0.007 0.053 -0.021 0.072 -0.043 0.093 -0.074 1 1.118 -0.24 0.19 -0.26 0.154 -0.279 0.11 -0.292 0.062 -0.295 0.01 -0.286 -0.041 -0.27 -0.085 -0.247 -0.121 -0.225 -0.149 -0.207 -0.172 -0.189 -0.191 -0.174 -0.208 -0.161 -0.222 -0.15 -0.237 -0.139 -0.251 -0.129 -0.262 -0.12 -0.274 -0.109 -0.284 -0.1 -0.293 -0.09 -0.301 -0.08 -0.308 -0.069 -0.315 -0.059 -0.32 -0.048 -0.324 -0.036 -0.326 -0.024 -0.328 -0.011 -0.329 0.002 -0.328 0.016 -0.327 0.03 -0.325 0.046 -0.321 0.063 -0.316 0 0zm10.391 -22.234l1.361 0.632 0 0 -0.087 0.181 -0.13 0.266 -0.172 0.349 -0.212 0.428 -0.249 0.501 -0.283 0.569 -0.314 0.631 -0.342 0.688 -0.367 0.739 -0.389 0.783 -0.407 0.823 -0.422 0.856 -0.436 0.884 -0.444 0.905 -0.451 0.922 -0.454 0.932 -0.454 0.936 -0.451 0.936 -0.444 0.928 -0.436 0.915 -0.423 0.896 -0.408 0.873 -0.389 0.841 -0.367 0.805 -0.342 0.762 -0.314 0.715 -0.283 0.659 -0.248 0.598 -0.21 0.531 -0.168 0.453 -0.122 0.367 -0.071 0.261 -1.463 -0.331 0.1 -0.369 0.141 -0.427 0.182 -0.492 0.221 -0.557 0.256 -0.617 0.289 -0.674 0.319 -0.726 0.346 -0.772 0.371 -0.812 0.392 -0.848 0.41 -0.877 0.425 -0.901 0.438 -0.92 0.446 -0.931 0.453 -0.939 0.455 -0.938 0.455 -0.935 0.452 -0.924 0.445 -0.907 0.436 -0.886 0.424 -0.857 0.407 -0.824 0.389 -0.784 0.367 -0.739 0.343 -0.689 0.314 -0.631 0.283 -0.569 0.248 -0.5 0.211 -0.426 0.171 -0.345 0.126 -0.258 0.076 -0.16 0 0zm5.649 -0.062l-1.236 0.851 0 0 -0.112 -0.155 -0.114 -0.138 -0.115 -0.122 -0.115 -0.108 -0.115 -0.095 -0.115 -0.082 -0.113 -0.07 -0.114 -0.06 -0.113 -0.049 -0.111 -0.04 -0.111 -0.03 -0.111 -0.023 -0.11 -0.014 -0.109 -0.007 -0.109 0.001 -0.108 0.008 -0.106 0.014 -0.105 0.022 -0.103 0.028 -0.1 0.034 -0.097 0.039 -0.095 0.046 -0.09 0.05 -0.086 0.056 -0.08 0.058 -0.075 0.063 -0.07 0.066 -0.064 0.068 -0.057 0.07 -0.05 0.071 -0.043 0.071 -0.036 0.071 -1.361 -0.632 0.087 -0.171 0.1 -0.163 0.11 -0.156 0.12 -0.147 0.13 -0.14 0.139 -0.131 0.147 -0.122 0.156 -0.114 0.162 -0.104 0.17 -0.095 0.176 -0.085 0.182 -0.075 0.188 -0.063 0.194 -0.053 0.198 -0.04 0.202 -0.028 0.206 -0.015 0.209 -0.001 0.212 0.013 0.213 0.028 0.213 0.043 0.214 0.059 0.212 0.076 0.21 0.091 0.206 0.108 0.203 0.125 0.198 0.142 0.192 0.158 0.185 0.175 0.179 0.191 0.172 0.208 0.164 0.224 0 0zm4.224 13.766l-1.449 -0.387 0 0 0.092 -0.399 0.066 -0.409 0.043 -0.419 0.019 -0.428 -0.004 -0.436 -0.026 -0.443 -0.046 -0.449 -0.066 -0.453 -0.085 -0.457 -0.101 -0.459 -0.118 -0.459 -0.132 -0.459 -0.147 -0.457 -0.158 -0.454 -0.169 -0.451 -0.178 -0.444 -0.187 -0.439 -0.192 -0.431 -0.199 -0.421 -0.202 -0.412 -0.205 -0.4 -0.206 -0.389 -0.205 -0.374 -0.205 -0.361 -0.2 -0.344 -0.197 -0.328 -0.19 -0.31 -0.183 -0.291 -0.174 -0.271 -0.164 -0.25 -0.152 -0.228 -0.14 -0.203 1.236 -0.851 0.147 0.215 0.159 0.239 0.172 0.261 0.182 0.283 0.192 0.304 0.198 0.325 0.205 0.342 0.211 0.361 0.213 0.377 0.215 0.392 0.216 0.408 0.216 0.421 0.213 0.434 0.21 0.446 0.204 0.456 0.198 0.466 0.191 0.475 0.181 0.482 0.17 0.49 0.158 0.496 0.145 0.501 0.13 0.505 0.112 0.509 0.095 0.51 0.074 0.513 0.053 0.514 0.03 0.513 0.004 0.512 -0.022 0.51 -0.052 0.507 -0.082 0.503 -0.114 0.496 0 0zm-6.906 13.878l-1.112 -1.007 0 0 0.241 -0.273 0.242 -0.29 0.243 -0.307 0.244 -0.322 0.244 -0.336 0.243 -0.35 0.243 -0.363 0.242 -0.376 0.24 -0.386 0.239 -0.397 0.236 -0.406 0.234 -0.417 0.231 -0.424 0.228 -0.431 0.224 -0.439 0.221 -0.444 0.216 -0.449 0.213 -0.455 0.207 -0.457 0.203 -0.461 0.197 -0.462 0.192 -0.464 0.186 -0.465 0.179 -0.465 0.173 -0.463 0.167 -0.463 0.159 -0.459 0.152 -0.456 0.145 -0.453 0.136 -0.447 0.129 -0.443 0.12 -0.435 1.449 0.387 -0.126 0.457 -0.134 0.462 -0.142 0.466 -0.151 0.471 -0.158 0.474 -0.165 0.476 -0.173 0.479 -0.179 0.48 -0.186 0.481 -0.192 0.48 -0.198 0.48 -0.204 0.478 -0.209 0.477 -0.215 0.473 -0.22 0.469 -0.224 0.466 -0.229 0.461 -0.232 0.454 -0.237 0.449 -0.241 0.442 -0.244 0.433 -0.247 0.426 -0.25 0.416 -0.252 0.407 -0.256 0.396 -0.258 0.385 -0.259 0.373 -0.262 0.361 -0.263 0.348 -0.265 0.334 -0.267 0.32 -0.268 0.304 0 0zm-2.002 -8.31l-0.308 1.468 0 0 -0.879 -0.148 -0.767 -0.059 -0.658 0.019 -0.551 0.087 -0.452 0.14 -0.361 0.182 -0.285 0.216 -0.223 0.248 -0.173 0.283 -0.127 0.321 -0.08 0.359 -0.033 0.395 0.017 0.424 0.065 0.444 0.112 0.456 0.158 0.459 0.2 0.453 0.237 0.439 0.273 0.417 0.301 0.388 0.327 0.35 0.344 0.306 0.358 0.255 0.365 0.201 0.365 0.142 0.364 0.082 0.361 0.021 0.364 -0.042 0.372 -0.113 0.386 -0.195 0.402 -0.291 0.416 -0.404 1.112 1.007 -0.558 0.541 -0.586 0.425 -0.61 0.308 -0.625 0.19 -0.627 0.074 -0.615 -0.036 -0.593 -0.132 -0.563 -0.218 -0.529 -0.29 -0.494 -0.353 -0.458 -0.405 -0.419 -0.45 -0.381 -0.489 -0.34 -0.521 -0.296 -0.547 -0.25 -0.566 -0.2 -0.582 -0.145 -0.591 -0.087 -0.595 -0.022 -0.595 0.049 -0.588 0.13 -0.574 0.218 -0.55 0.314 -0.512 0.412 -0.457 0.507 -0.383 0.595 -0.3 0.674 -0.21 0.752 -0.117 0.831 -0.026 0.913 0.071 1.001 0.168 0 0zm23.71 4.132l-0.364 1.455 0 0 -0.54 -0.13 -0.588 -0.134 -0.634 -0.136 -0.675 -0.139 -0.712 -0.141 -0.746 -0.143 -0.776 -0.144 -0.802 -0.145 -0.826 -0.146 -0.845 -0.146 -0.861 -0.146 -0.873 -0.146 -0.883 -0.145 -0.888 -0.145 -0.89 -0.144 -0.889 -0.142 -0.884 -0.14 -0.875 -0.139 -0.864 -0.136 -0.848 -0.133 -0.83 -0.131 -0.808 -0.128 -0.782 -0.124 -0.753 -0.12 -0.721 -0.116 -0.685 -0.112 -0.645 -0.108 -0.603 -0.103 -0.558 -0.097 -0.509 -0.092 -0.458 -0.087 -0.403 -0.081 0.308 -1.468 0.383 0.077 0.443 0.084 0.498 0.09 0.55 0.096 0.598 0.102 0.641 0.107 0.681 0.111 0.718 0.116 0.751 0.12 0.781 0.124 0.806 0.127 0.83 0.131 0.848 0.133 0.865 0.137 0.876 0.138 0.885 0.141 0.891 0.143 0.892 0.143 0.891 0.145 0.885 0.146 0.877 0.147 0.866 0.147 0.849 0.147 0.831 0.146 0.809 0.146 0.784 0.146 0.755 0.144 0.722 0.143 0.687 0.142 0.648 0.139 0.607 0.138 0.562 0.136 0 0zm20.834 2.37l1.248 0.832 0 0 -0.331 0.394 -0.402 0.318 -0.454 0.249 -0.496 0.192 -0.537 0.145 -0.576 0.105 -0.612 0.07 -0.649 0.039 -0.682 0.01 -0.714 -0.015 -0.743 -0.039 -0.767 -0.061 -0.792 -0.082 -0.81 -0.099 -0.827 -0.116 -0.839 -0.131 -0.849 -0.144 -0.854 -0.155 -0.856 -0.165 -0.855 -0.173 -0.849 -0.179 -0.841 -0.184 -0.828 -0.187 -0.812 -0.189 -0.792 -0.187 -0.769 -0.186 -0.742 -0.182 -0.71 -0.177 -0.676 -0.169 -0.638 -0.161 -0.595 -0.15 -0.549 -0.138 0.364 -1.455 0.551 0.138 0.596 0.15 0.636 0.161 0.674 0.169 0.707 0.175 0.737 0.181 0.763 0.185 0.785 0.186 0.804 0.187 0.82 0.184 0.83 0.182 0.838 0.177 0.841 0.17 0.842 0.163 0.838 0.152 0.83 0.141 0.818 0.127 0.802 0.113 0.784 0.096 0.759 0.078 0.731 0.058 0.7 0.037 0.663 0.014 0.621 -0.009 0.575 -0.034 0.524 -0.06 0.465 -0.085 0.402 -0.108 0.332 -0.127 0.258 -0.141 0.184 -0.144 0.124 -0.146 0 0zm-2.811 -19.297l1.329 -0.696 0 0 0.32 0.634 0.308 0.655 0.294 0.674 0.282 0.691 0.269 0.706 0.255 0.718 0.242 0.73 0.228 0.738 0.214 0.745 0.2 0.75 0.186 0.753 0.17 0.753 0.156 0.752 0.141 0.749 0.125 0.744 0.109 0.737 0.093 0.727 0.077 0.715 0.06 0.703 0.043 0.688 0.025 0.671 0.007 0.652 -0.011 0.631 -0.029 0.609 -0.049 0.585 -0.07 0.559 -0.089 0.534 -0.113 0.505 -0.136 0.476 -0.162 0.445 -0.191 0.415 -0.224 0.381 -1.248 -0.832 0.142 -0.241 0.133 -0.291 0.123 -0.338 0.109 -0.383 0.094 -0.424 0.078 -0.462 0.061 -0.498 0.045 -0.53 0.027 -0.559 0.01 -0.586 -0.007 -0.611 -0.024 -0.633 -0.04 -0.652 -0.058 -0.67 -0.073 -0.684 -0.089 -0.697 -0.105 -0.708 -0.12 -0.715 -0.136 -0.721 -0.15 -0.725 -0.164 -0.726 -0.179 -0.725 -0.193 -0.723 -0.206 -0.716 -0.219 -0.71 -0.232 -0.7 -0.244 -0.687 -0.256 -0.674 -0.268 -0.657 -0.28 -0.639 -0.29 -0.617 -0.3 -0.595 0 0zm-20.373 -13.266l0.783 -1.279 0 0 0.441 0.263 0.493 0.282 0.539 0.298 0.583 0.314 0.621 0.33 0.657 0.344 0.688 0.357 0.715 0.37 0.739 0.382 0.76 0.394 0.776 0.405 0.789 0.415 0.798 0.424 0.805 0.433 0.807 0.443 0.805 0.449 0.801 0.457 0.793 0.464 0.781 0.47 0.765 0.476 0.747 0.481 0.725 0.486 0.699 0.49 0.671 0.495 0.638 0.499 0.603 0.502 0.564 0.507 0.522 0.511 0.477 0.516 0.427 0.522 0.374 0.531 0.316 0.539 -1.329 0.696 -0.247 -0.421 -0.307 -0.435 -0.366 -0.447 -0.42 -0.456 -0.472 -0.461 -0.52 -0.467 -0.563 -0.47 -0.604 -0.471 -0.639 -0.472 -0.672 -0.471 -0.701 -0.469 -0.725 -0.467 -0.746 -0.464 -0.764 -0.46 -0.778 -0.455 -0.787 -0.45 -0.794 -0.443 -0.797 -0.436 -0.796 -0.429 -0.792 -0.421 -0.784 -0.412 -0.772 -0.403 -0.758 -0.392 -0.738 -0.382 -0.717 -0.371 -0.691 -0.359 -0.662 -0.347 -0.63 -0.334 -0.593 -0.321 -0.556 -0.307 -0.513 -0.293 -0.469 -0.28 0 0zm-4.01 -24.022l0.754 1.297 0 0 -1.385 0.861 -1.204 0.86 -1.03 0.856 -0.865 0.849 -0.71 0.839 -0.565 0.827 -0.43 0.813 -0.307 0.799 -0.194 0.788 -0.09 0.777 0.006 0.771 0.097 0.766 0.181 0.762 0.26 0.756 0.335 0.75 0.402 0.74 0.464 0.728 0.517 0.715 0.563 0.696 0.602 0.677 0.634 0.655 0.657 0.63 0.671 0.604 0.68 0.575 0.679 0.545 0.67 0.512 0.654 0.479 0.629 0.442 0.598 0.404 0.557 0.365 0.509 0.324 0.454 0.281 -0.783 1.279 -0.468 -0.29 -0.526 -0.334 -0.575 -0.377 -0.617 -0.418 -0.653 -0.458 -0.678 -0.496 -0.697 -0.532 -0.707 -0.569 -0.712 -0.602 -0.706 -0.635 -0.695 -0.667 -0.674 -0.697 -0.647 -0.726 -0.61 -0.755 -0.567 -0.784 -0.515 -0.81 -0.455 -0.837 -0.385 -0.863 -0.306 -0.889 -0.216 -0.912 -0.118 -0.935 -0.007 -0.951 0.112 -0.964 0.239 -0.971 0.373 -0.971 0.513 -0.968 0.655 -0.96 0.805 -0.951 0.959 -0.941 1.119 -0.93 1.287 -0.92 1.462 -0.909 0 0zm70.658 -29.692l0.523 1.406 -0.156 0.058 -0.457 0.17 -0.742 0.278 -1.01 0.38 -1.261 0.475 -1.495 0.566 -1.711 0.649 -1.911 0.729 -2.094 0.801 -2.261 0.869 -2.409 0.93 -2.541 0.987 -2.656 1.037 -2.754 1.081 -2.836 1.12 -2.899 1.153 -2.947 1.181 -2.977 1.203 -2.991 1.218 -2.986 1.23 -2.966 1.233 -2.928 1.233 -2.873 1.226 -2.802 1.214 -2.712 1.195 -2.607 1.172 -2.483 1.141 -2.343 1.106 -2.185 1.065 -2.01 1.017 -1.817 0.963 -1.607 0.903 -0.754 -1.297 1.643 -0.923 1.845 -0.978 2.033 -1.029 2.204 -1.073 2.358 -1.113 2.496 -1.148 2.617 -1.176 2.722 -1.2 2.809 -1.217 2.88 -1.229 2.935 -1.236 2.971 -1.236 2.992 -1.231 2.995 -1.22 2.981 -1.205 2.95 -1.182 2.903 -1.155 2.839 -1.121 2.757 -1.082 2.659 -1.038 2.544 -0.987 2.411 -0.932 2.262 -0.869 2.096 -0.803 1.914 -0.729 1.712 -0.65 1.497 -0.566 1.262 -0.476 1.011 -0.38 0.744 -0.278 0.459 -0.172 0.157 -0.058zm0 0c0.388,-0.145 0.82,0.053 0.964,0.441 0.145,0.388 -0.053,0.82 -0.441,0.965l-0.523 -1.406z"/>
  </g>
 </g>
</svg>
