<?xml version="1.0" encoding="UTF-8"?>
<!DOCTYPE svg PUBLIC "-//W3C//DTD SVG 1.1//EN" "http://www.w3.org/Graphics/SVG/1.1/DTD/svg11.dtd">
<!-- Creator: CorelDRAW 2019 (64-Bit) -->
<svg xmlns="http://www.w3.org/2000/svg" xml:space="preserve" width="200px" height="100px" version="1.1" style="shape-rendering:geometricPrecision; text-rendering:geometricPrecision; image-rendering:optimizeQuality; fill-rule:evenodd; clip-rule:evenodd"
viewBox="0 0 200 100"
 xmlns:xlink="http://www.w3.org/1999/xlink"
 xmlns:xodm="http://www.corel.com/coreldraw/odm/2003">
 <defs>
  <style type="text/css">
   <![CDATA[
    .fil0 {fill:black;fill-rule:nonzero}
   ]]>
  </style>
 </defs>
 <g id="Layer_x0020_1">
  <metadata id="CorelCorpID_0Corel-Layer"/>
  <g id="_1386410130992">
   <g>
    <path class="fil0" d="M76.119 44.334c0.375,0.177 0.535,0.624 0.358,0.999 -0.176,0.374 -0.623,0.535 -0.998,0.358l0.64 -1.357zm-3.234 3.035l-1.317 -0.717 0 0 0.166 -0.291 0.17 -0.27 0.174 -0.25 0.178 -0.23 0.18 -0.211 0.183 -0.193 0.186 -0.175 0.187 -0.158 0.188 -0.14 0.189 -0.125 0.189 -0.108 0.188 -0.093 0.186 -0.078 0.183 -0.064 0.179 -0.051 0.175 -0.039 0.17 -0.028 0.162 -0.017 0.156 -0.009 0.147 0 0.14 0.006 0.132 0.012 0.122 0.017 0.113 0.02 0.101 0.022 0.091 0.023 0.083 0.024 0.069 0.023 0.058 0.021 0.047 0.018 0.027 0.012 0.032 0.014 -0.64 1.357 0.021 0.009 -0.007 -0.003 -0.008 -0.003 -0.018 -0.006 -0.026 -0.009 -0.031 -0.009 -0.042 -0.011 -0.048 -0.011 -0.053 -0.009 -0.059 -0.008 -0.064 -0.006 -0.069 -0.003 -0.075 0 -0.078 0.004 -0.083 0.009 -0.086 0.014 -0.089 0.02 -0.094 0.026 -0.098 0.035 -0.102 0.042 -0.105 0.052 -0.11 0.063 -0.113 0.075 -0.118 0.087 -0.121 0.102 -0.124 0.118 -0.128 0.134 -0.13 0.152 -0.132 0.172 -0.134 0.192 -0.135 0.214 -0.135 0.236 0 0zm1.504 3.81l0.176 1.49 0 0 -0.208 0.013 -0.205 -0.008 -0.202 -0.026 -0.2 -0.043 -0.198 -0.059 -0.194 -0.073 -0.193 -0.086 -0.189 -0.1 -0.186 -0.112 -0.182 -0.125 -0.178 -0.138 -0.172 -0.149 -0.167 -0.162 -0.159 -0.173 -0.152 -0.186 -0.142 -0.196 -0.132 -0.21 -0.121 -0.22 -0.108 -0.231 -0.095 -0.243 -0.079 -0.252 -0.062 -0.262 -0.045 -0.272 -0.025 -0.279 -0.005 -0.287 0.016 -0.294 0.039 -0.298 0.061 -0.303 0.085 -0.307 0.109 -0.31 0.133 -0.313 0.159 -0.313 1.317 0.717 -0.117 0.231 -0.095 0.223 -0.075 0.215 -0.058 0.206 -0.04 0.199 -0.024 0.192 -0.011 0.184 0.004 0.177 0.015 0.172 0.027 0.165 0.039 0.159 0.048 0.154 0.058 0.148 0.067 0.143 0.075 0.137 0.082 0.13 0.09 0.124 0.096 0.118 0.101 0.11 0.105 0.102 0.109 0.094 0.11 0.086 0.112 0.076 0.111 0.067 0.109 0.058 0.105 0.047 0.101 0.038 0.094 0.028 0.084 0.018 0.075 0.01 0.061 0.002 0.046 -0.003 0 0zm3.163 -6.071l1.446 0.398 0 0 -0.053 0.184 -0.061 0.199 -0.069 0.21 -0.076 0.223 -0.084 0.235 -0.09 0.245 -0.097 0.254 -0.103 0.262 -0.109 0.268 -0.114 0.274 -0.12 0.278 -0.124 0.28 -0.128 0.281 -0.133 0.282 -0.136 0.28 -0.139 0.278 -0.143 0.274 -0.145 0.269 -0.147 0.263 -0.151 0.255 -0.152 0.246 -0.154 0.237 -0.157 0.226 -0.159 0.214 -0.162 0.202 -0.166 0.188 -0.173 0.175 -0.18 0.159 -0.194 0.143 -0.211 0.124 -0.238 0.097 -0.265 0.058 -0.176 -1.49 -0.014 0.003 0.021 -0.009 0.053 -0.032 0.077 -0.057 0.095 -0.084 0.107 -0.109 0.116 -0.131 0.123 -0.154 0.127 -0.171 0.131 -0.189 0.132 -0.203 0.135 -0.218 0.134 -0.228 0.134 -0.239 0.134 -0.247 0.132 -0.255 0.13 -0.259 0.128 -0.263 0.125 -0.265 0.121 -0.266 0.117 -0.266 0.114 -0.263 0.108 -0.259 0.103 -0.254 0.097 -0.247 0.092 -0.239 0.084 -0.229 0.078 -0.218 0.07 -0.205 0.062 -0.189 0.053 -0.173 0.044 -0.153 0 0zm0.287 -0.958l0.041 -1.499 0 0 0.088 0.004 0.09 0.01 0.089 0.015 0.095 0.022 0.096 0.03 0.096 0.039 0.096 0.047 0.093 0.057 0.09 0.068 0.084 0.074 0.077 0.084 0.07 0.09 0.06 0.094 0.052 0.099 0.043 0.101 0.035 0.103 0.028 0.102 0.022 0.105 0.015 0.106 0.01 0.108 0.005 0.108 0.001 0.109 -0.004 0.112 -0.008 0.115 -0.012 0.118 -0.016 0.122 -0.02 0.124 -0.023 0.13 -0.028 0.132 -0.031 0.138 -0.036 0.142 -0.039 0.147 -1.446 -0.398 0.033 -0.123 0.028 -0.116 0.025 -0.109 0.021 -0.101 0.018 -0.094 0.013 -0.088 0.011 -0.08 0.007 -0.072 0.005 -0.065 0.002 -0.057 0 -0.05 -0.002 -0.042 -0.003 -0.033 -0.004 -0.025 -0.004 -0.018 -0.002 -0.01 -0.001 -0.002 0.002 0.005 0.006 0.01 0.008 0.014 0.013 0.017 0.017 0.018 0.018 0.016 0.021 0.016 0.02 0.012 0.019 0.009 0.014 0.006 0.011 0.004 0.007 0.001 -0.002 0 -0.004 0 -0.01 -0.001 0 0zm-2.612 5.147l-1.449 0.389 0 0 -0.074 -0.326 -0.051 -0.326 -0.027 -0.326 -0.005 -0.324 0.016 -0.32 0.034 -0.316 0.052 -0.312 0.069 -0.305 0.084 -0.301 0.097 -0.294 0.11 -0.288 0.123 -0.279 0.131 -0.272 0.142 -0.264 0.15 -0.256 0.158 -0.246 0.165 -0.237 0.17 -0.227 0.175 -0.216 0.18 -0.206 0.182 -0.194 0.186 -0.183 0.189 -0.17 0.19 -0.157 0.192 -0.144 0.194 -0.13 0.196 -0.116 0.201 -0.1 0.205 -0.083 0.212 -0.065 0.222 -0.041 0.234 -0.011 -0.041 1.499 -0.013 0.001 -0.043 0.009 -0.067 0.02 -0.088 0.036 -0.102 0.052 -0.116 0.068 -0.125 0.084 -0.133 0.099 -0.138 0.114 -0.14 0.127 -0.143 0.14 -0.143 0.153 -0.143 0.163 -0.14 0.173 -0.137 0.183 -0.133 0.191 -0.127 0.199 -0.121 0.205 -0.113 0.212 -0.106 0.217 -0.096 0.221 -0.086 0.224 -0.076 0.227 -0.063 0.228 -0.051 0.229 -0.039 0.229 -0.025 0.228 -0.011 0.227 0.004 0.225 0.018 0.223 0.034 0.221 0.05 0.219 0 0zm2.975 1.211l0.153 1.492 0 0 -0.173 0.014 -0.174 0.007 -0.175 0.001 -0.174 -0.006 -0.175 -0.012 -0.174 -0.018 -0.174 -0.023 -0.174 -0.029 -0.172 -0.034 -0.172 -0.04 -0.17 -0.044 -0.169 -0.05 -0.166 -0.054 -0.164 -0.059 -0.161 -0.064 -0.159 -0.068 -0.156 -0.073 -0.151 -0.078 -0.148 -0.082 -0.144 -0.087 -0.14 -0.093 -0.136 -0.097 -0.13 -0.103 -0.124 -0.107 -0.119 -0.114 -0.113 -0.121 -0.106 -0.127 -0.097 -0.135 -0.089 -0.143 -0.078 -0.15 -0.067 -0.159 -0.053 -0.166 1.449 -0.389 0.011 0.036 0.017 0.04 0.024 0.045 0.03 0.048 0.038 0.053 0.047 0.055 0.053 0.057 0.062 0.06 0.07 0.061 0.078 0.061 0.083 0.06 0.09 0.059 0.096 0.058 0.102 0.056 0.106 0.055 0.111 0.052 0.115 0.05 0.119 0.047 0.121 0.043 0.123 0.04 0.126 0.037 0.126 0.033 0.128 0.029 0.128 0.026 0.128 0.021 0.127 0.017 0.126 0.013 0.124 0.009 0.122 0.004 0.118 0 0.114 -0.005 0.112 -0.009 0 0zm0.915 -0.449l1.217 0.876 0 0 -0.043 0.059 -0.046 0.057 -0.046 0.055 -0.05 0.055 -0.05 0.052 -0.053 0.052 -0.053 0.049 -0.052 0.046 -0.056 0.046 -0.058 0.044 -0.058 0.043 -0.061 0.041 -0.059 0.038 -0.06 0.037 -0.062 0.035 -0.064 0.035 -0.065 0.032 -0.064 0.03 -0.066 0.029 -0.066 0.028 -0.069 0.025 -0.069 0.024 -0.066 0.022 -0.069 0.021 -0.07 0.019 -0.071 0.018 -0.072 0.016 -0.07 0.014 -0.072 0.014 -0.074 0.011 -0.072 0.01 -0.073 0.008 -0.153 -1.492 0.041 -0.005 0.042 -0.006 0.039 -0.006 0.04 -0.007 0.04 -0.008 0.036 -0.008 0.038 -0.009 0.035 -0.01 0.035 -0.011 0.037 -0.012 0.034 -0.011 0.031 -0.013 0.032 -0.013 0.03 -0.013 0.031 -0.015 0.029 -0.014 0.027 -0.015 0.028 -0.015 0.026 -0.017 0.027 -0.017 0.024 -0.016 0.023 -0.017 0.022 -0.017 0.022 -0.017 0.023 -0.021 0.02 -0.018 0.018 -0.018 0.019 -0.019 0.017 -0.019 0.017 -0.021 0.016 -0.02 0.016 -0.021 0 0zm1.95 -6.488l0.011 -1.501 0 0 0.384 0.03 0.366 0.087 0.339 0.152 0.298 0.218 0.239 0.271 0.174 0.303 0.115 0.318 0.065 0.325 0.025 0.329 -0.006 0.331 -0.032 0.335 -0.056 0.34 -0.075 0.345 -0.092 0.347 -0.107 0.352 -0.12 0.353 -0.131 0.352 -0.141 0.352 -0.148 0.349 -0.155 0.344 -0.158 0.336 -0.161 0.329 -0.161 0.317 -0.161 0.304 -0.157 0.29 -0.153 0.273 -0.146 0.254 -0.139 0.233 -0.129 0.211 -0.119 0.187 -0.106 0.161 -0.096 0.137 -1.217 -0.876 0.07 -0.101 0.089 -0.136 0.106 -0.166 0.118 -0.192 0.128 -0.216 0.137 -0.237 0.143 -0.256 0.149 -0.273 0.15 -0.287 0.152 -0.298 0.151 -0.307 0.147 -0.314 0.143 -0.318 0.136 -0.32 0.129 -0.32 0.117 -0.316 0.106 -0.31 0.091 -0.301 0.077 -0.289 0.06 -0.274 0.041 -0.254 0.023 -0.23 0.004 -0.202 -0.013 -0.167 -0.025 -0.129 -0.032 -0.091 -0.031 -0.055 -0.028 -0.034 -0.037 -0.027 -0.066 -0.029 -0.113 -0.027 -0.172 -0.012 0 0zm-2.457 4.331l-1.495 -0.121 0 0 0.024 -0.247 0.034 -0.247 0.042 -0.246 0.05 -0.246 0.058 -0.244 0.064 -0.243 0.072 -0.242 0.079 -0.239 0.085 -0.236 0.091 -0.232 0.097 -0.229 0.103 -0.226 0.108 -0.22 0.113 -0.215 0.119 -0.21 0.123 -0.204 0.128 -0.197 0.132 -0.191 0.137 -0.183 0.142 -0.176 0.146 -0.167 0.151 -0.159 0.157 -0.15 0.161 -0.139 0.167 -0.13 0.174 -0.117 0.182 -0.106 0.188 -0.09 0.197 -0.076 0.206 -0.056 0.213 -0.036 0.22 -0.012 -0.011 1.501 -0.044 0.002 -0.053 0.009 -0.062 0.017 -0.07 0.027 -0.08 0.039 -0.087 0.05 -0.092 0.063 -0.098 0.075 -0.101 0.088 -0.104 0.1 -0.105 0.11 -0.105 0.121 -0.107 0.132 -0.105 0.14 -0.103 0.149 -0.102 0.158 -0.1 0.164 -0.096 0.171 -0.094 0.178 -0.089 0.183 -0.086 0.186 -0.081 0.192 -0.076 0.195 -0.071 0.197 -0.065 0.198 -0.06 0.2 -0.054 0.201 -0.047 0.201 -0.041 0.199 -0.033 0.198 -0.027 0.195 -0.019 0.193 0 0zm3.101 1.99l0.085 1.498 0 0 -0.195 0.008 -0.197 0.001 -0.198 -0.006 -0.2 -0.012 -0.2 -0.019 -0.2 -0.026 -0.199 -0.032 -0.199 -0.04 -0.199 -0.046 -0.197 -0.054 -0.195 -0.061 -0.192 -0.069 -0.189 -0.077 -0.187 -0.084 -0.182 -0.092 -0.178 -0.101 -0.174 -0.11 -0.168 -0.119 -0.162 -0.129 -0.154 -0.138 -0.146 -0.148 -0.138 -0.159 -0.127 -0.17 -0.116 -0.18 -0.103 -0.19 -0.09 -0.199 -0.074 -0.208 -0.059 -0.217 -0.042 -0.225 -0.025 -0.231 -0.007 -0.236 0.011 -0.24 1.495 0.121 -0.006 0.132 0.004 0.122 0.012 0.115 0.02 0.107 0.028 0.102 0.035 0.098 0.042 0.094 0.049 0.09 0.057 0.087 0.064 0.086 0.071 0.082 0.08 0.081 0.088 0.078 0.094 0.076 0.103 0.072 0.108 0.069 0.116 0.065 0.122 0.063 0.128 0.057 0.132 0.053 0.137 0.049 0.141 0.044 0.143 0.039 0.147 0.035 0.148 0.029 0.15 0.025 0.151 0.019 0.149 0.015 0.15 0.009 0.148 0.004 0.146 -0.001 0.143 -0.006 0.001 0zm1.323 -0.447l1.085 1.036 0 0 -0.055 0.056 -0.057 0.053 -0.059 0.052 -0.06 0.049 -0.061 0.046 -0.062 0.045 -0.064 0.044 -0.067 0.042 -0.065 0.038 -0.068 0.038 -0.069 0.036 -0.068 0.034 -0.071 0.033 -0.073 0.032 -0.071 0.028 -0.073 0.028 -0.076 0.027 -0.075 0.025 -0.077 0.024 -0.076 0.022 -0.077 0.021 -0.079 0.019 -0.078 0.018 -0.079 0.016 -0.083 0.016 -0.081 0.013 -0.08 0.013 -0.083 0.011 -0.083 0.01 -0.085 0.008 -0.084 0.007 -0.084 0.005 -0.085 -1.498 0.06 -0.004 0.059 -0.004 0.057 -0.006 0.058 -0.007 0.056 -0.007 0.058 -0.009 0.054 -0.009 0.052 -0.01 0.054 -0.011 0.053 -0.012 0.05 -0.012 0.05 -0.014 0.049 -0.014 0.046 -0.014 0.045 -0.015 0.043 -0.015 0.043 -0.017 0.043 -0.017 0.037 -0.016 0.038 -0.018 0.038 -0.019 0.034 -0.017 0.032 -0.019 0.033 -0.019 0.028 -0.017 0.027 -0.019 0.026 -0.018 0.024 -0.019 0.022 -0.018 0.019 -0.017 0.019 -0.017 0.016 -0.017 0 0zm1.708 -6.527l0.054 -1.499 0.001 0 0.343 0.035 0.328 0.083 0.307 0.131 0.277 0.179 0.239 0.221 0.195 0.251 0.153 0.271 0.114 0.287 0.08 0.295 0.051 0.304 0.025 0.309 0.003 0.317 -0.017 0.322 -0.035 0.328 -0.053 0.334 -0.068 0.337 -0.084 0.341 -0.097 0.343 -0.111 0.345 -0.123 0.344 -0.135 0.344 -0.145 0.342 -0.156 0.337 -0.166 0.334 -0.174 0.326 -0.182 0.319 -0.191 0.311 -0.198 0.3 -0.205 0.288 -0.211 0.276 -0.218 0.262 -0.224 0.246 -1.085 -1.036 0.177 -0.194 0.178 -0.213 0.176 -0.23 0.174 -0.246 0.17 -0.258 0.166 -0.271 0.16 -0.28 0.154 -0.288 0.146 -0.294 0.138 -0.298 0.128 -0.301 0.118 -0.301 0.107 -0.301 0.096 -0.298 0.083 -0.292 0.07 -0.286 0.056 -0.276 0.042 -0.265 0.027 -0.251 0.013 -0.234 -0.002 -0.215 -0.016 -0.194 -0.028 -0.169 -0.038 -0.142 -0.045 -0.114 -0.049 -0.088 -0.05 -0.065 -0.052 -0.048 -0.061 -0.04 -0.079 -0.033 -0.107 -0.027 -0.144 -0.015 0 0zm-2.729 3.671l-1.465 -0.325 0 0 0.044 -0.182 0.052 -0.185 0.059 -0.187 0.065 -0.19 0.072 -0.192 0.078 -0.194 0.085 -0.194 0.09 -0.196 0.096 -0.196 0.101 -0.195 0.107 -0.194 0.111 -0.193 0.117 -0.19 0.122 -0.189 0.125 -0.185 0.131 -0.181 0.135 -0.177 0.139 -0.172 0.144 -0.167 0.147 -0.16 0.153 -0.154 0.157 -0.146 0.163 -0.139 0.167 -0.129 0.174 -0.12 0.179 -0.108 0.187 -0.097 0.195 -0.084 0.202 -0.067 0.211 -0.049 0.218 -0.028 0.222 -0.005 -0.054 1.499 -0.056 0.002 -0.061 0.008 -0.07 0.016 -0.079 0.026 -0.086 0.037 -0.093 0.049 -0.1 0.06 -0.103 0.072 -0.108 0.083 -0.11 0.094 -0.111 0.103 -0.112 0.113 -0.113 0.123 -0.112 0.129 -0.11 0.137 -0.11 0.143 -0.106 0.149 -0.105 0.153 -0.101 0.158 -0.098 0.16 -0.094 0.163 -0.09 0.164 -0.086 0.165 -0.081 0.164 -0.075 0.164 -0.07 0.161 -0.064 0.159 -0.059 0.155 -0.052 0.15 -0.045 0.144 -0.038 0.138 -0.031 0.129 0 0zm3.814 2.573l0.294 1.471 0 0 -0.288 0.049 -0.287 0.034 -0.284 0.019 -0.283 0.003 -0.278 -0.011 -0.275 -0.025 -0.271 -0.039 -0.265 -0.052 -0.261 -0.065 -0.254 -0.077 -0.247 -0.089 -0.24 -0.101 -0.233 -0.113 -0.226 -0.124 -0.216 -0.134 -0.207 -0.145 -0.198 -0.155 -0.187 -0.165 -0.176 -0.176 -0.164 -0.185 -0.152 -0.194 -0.139 -0.204 -0.124 -0.213 -0.109 -0.22 -0.094 -0.229 -0.076 -0.237 -0.057 -0.243 -0.038 -0.249 -0.018 -0.254 0.003 -0.257 0.025 -0.258 0.046 -0.26 1.465 0.325 -0.025 0.139 -0.013 0.135 -0.002 0.133 0.01 0.131 0.019 0.129 0.031 0.127 0.04 0.127 0.051 0.125 0.062 0.125 0.072 0.123 0.082 0.12 0.093 0.118 0.102 0.116 0.112 0.111 0.122 0.108 0.13 0.102 0.14 0.098 0.147 0.092 0.155 0.085 0.163 0.078 0.169 0.071 0.176 0.063 0.181 0.056 0.186 0.046 0.19 0.037 0.194 0.028 0.199 0.018 0.201 0.008 0.203 -0.002 0.207 -0.014 0.208 -0.024 0.209 -0.036 0 0zm3.598 -2.995l1.237 0.847 0.001 0 -0.118 0.169 -0.119 0.167 -0.121 0.164 -0.122 0.161 -0.124 0.158 -0.126 0.156 -0.127 0.152 -0.129 0.15 -0.13 0.146 -0.132 0.142 -0.133 0.139 -0.135 0.136 -0.136 0.132 -0.138 0.128 -0.139 0.124 -0.141 0.121 -0.143 0.116 -0.144 0.112 -0.145 0.108 -0.148 0.104 -0.148 0.098 -0.151 0.094 -0.152 0.089 -0.154 0.084 -0.155 0.079 -0.156 0.073 -0.16 0.069 -0.16 0.062 -0.161 0.055 -0.164 0.051 -0.165 0.043 -0.166 0.037 -0.294 -1.471 0.107 -0.024 0.108 -0.028 0.108 -0.033 0.111 -0.039 0.111 -0.042 0.111 -0.048 0.112 -0.053 0.114 -0.057 0.114 -0.063 0.114 -0.067 0.115 -0.072 0.116 -0.077 0.115 -0.08 0.116 -0.086 0.116 -0.091 0.116 -0.094 0.116 -0.099 0.115 -0.104 0.116 -0.108 0.116 -0.111 0.114 -0.115 0.115 -0.12 0.113 -0.123 0.114 -0.127 0.112 -0.13 0.112 -0.134 0.111 -0.137 0.109 -0.14 0.11 -0.144 0.108 -0.147 0.107 -0.15 0.105 -0.152 0.001 0zm-0.743 -3.927l-0.26 -1.477 0 0 0.257 -0.029 0.256 0.004 0.25 0.036 0.239 0.067 0.226 0.094 0.21 0.116 0.195 0.137 0.179 0.154 0.164 0.168 0.149 0.181 0.137 0.192 0.124 0.202 0.111 0.211 0.1 0.218 0.088 0.227 0.077 0.233 0.065 0.239 0.055 0.245 0.042 0.25 0.03 0.253 0.019 0.256 0.006 0.258 -0.007 0.261 -0.02 0.262 -0.034 0.261 -0.049 0.262 -0.063 0.259 -0.079 0.256 -0.096 0.254 -0.112 0.248 -0.13 0.242 -0.149 0.234 -1.237 -0.847 0.09 -0.143 0.081 -0.151 0.072 -0.158 0.061 -0.164 0.053 -0.171 0.043 -0.175 0.033 -0.179 0.024 -0.183 0.014 -0.184 0.005 -0.185 -0.005 -0.186 -0.013 -0.184 -0.022 -0.181 -0.03 -0.177 -0.038 -0.173 -0.046 -0.166 -0.052 -0.159 -0.058 -0.151 -0.065 -0.14 -0.068 -0.131 -0.072 -0.117 -0.075 -0.105 -0.076 -0.092 -0.075 -0.077 -0.073 -0.063 -0.071 -0.05 -0.066 -0.037 -0.062 -0.026 -0.06 -0.017 -0.059 -0.009 -0.062 -0.001 -0.071 0.008 0 0zm-2.236 4.071l-1.495 0.114 0 0 -0.013 -0.245 0 -0.244 0.011 -0.242 0.023 -0.242 0.033 -0.24 0.042 -0.237 0.052 -0.234 0.061 -0.231 0.069 -0.228 0.077 -0.225 0.085 -0.22 0.092 -0.216 0.098 -0.211 0.105 -0.207 0.11 -0.201 0.117 -0.196 0.121 -0.189 0.128 -0.184 0.131 -0.177 0.136 -0.169 0.141 -0.162 0.145 -0.155 0.15 -0.147 0.153 -0.138 0.158 -0.129 0.163 -0.12 0.167 -0.109 0.172 -0.099 0.178 -0.088 0.182 -0.073 0.189 -0.06 0.195 -0.044 0.26 1.477 -0.062 0.014 -0.071 0.023 -0.08 0.032 -0.086 0.042 -0.09 0.053 -0.097 0.063 -0.099 0.073 -0.102 0.084 -0.103 0.092 -0.104 0.102 -0.104 0.111 -0.103 0.119 -0.102 0.127 -0.1 0.134 -0.096 0.139 -0.094 0.147 -0.091 0.152 -0.086 0.157 -0.082 0.161 -0.077 0.165 -0.071 0.169 -0.066 0.171 -0.059 0.173 -0.054 0.175 -0.045 0.176 -0.04 0.177 -0.032 0.177 -0.024 0.175 -0.016 0.174 -0.008 0.174 0 0.171 0.008 0.169 0 0zm4.781 1.9l0.162 1.492 0 0 -0.241 0.022 -0.245 0.019 -0.247 0.012 -0.249 0.007 -0.251 0 -0.254 -0.005 -0.252 -0.011 -0.254 -0.018 -0.254 -0.025 -0.252 -0.032 -0.25 -0.039 -0.249 -0.046 -0.246 -0.054 -0.243 -0.062 -0.24 -0.071 -0.236 -0.08 -0.231 -0.09 -0.226 -0.1 -0.22 -0.11 -0.212 -0.121 -0.206 -0.134 -0.197 -0.146 -0.187 -0.159 -0.176 -0.173 -0.164 -0.187 -0.15 -0.202 -0.133 -0.216 -0.115 -0.228 -0.097 -0.242 -0.075 -0.253 -0.054 -0.262 -0.032 -0.272 1.495 -0.114 0.018 0.147 0.028 0.136 0.037 0.126 0.047 0.117 0.057 0.112 0.066 0.107 0.076 0.102 0.086 0.099 0.097 0.095 0.109 0.092 0.119 0.089 0.13 0.084 0.142 0.081 0.151 0.075 0.16 0.071 0.169 0.066 0.177 0.06 0.185 0.054 0.192 0.05 0.197 0.043 0.203 0.038 0.206 0.032 0.211 0.026 0.213 0.021 0.214 0.015 0.216 0.01 0.216 0.004 0.216 0 0.215 -0.006 0.212 -0.011 0.21 -0.015 0.206 -0.02 0 0zm4.033 -4.34l1.48 -0.242 0 0 0.034 0.248 0.019 0.25 0.005 0.251 -0.008 0.252 -0.022 0.252 -0.036 0.251 -0.049 0.251 -0.062 0.249 -0.076 0.247 -0.089 0.243 -0.102 0.242 -0.114 0.237 -0.128 0.233 -0.14 0.228 -0.153 0.223 -0.166 0.217 -0.178 0.21 -0.191 0.204 -0.203 0.195 -0.215 0.188 -0.228 0.179 -0.24 0.169 -0.25 0.159 -0.263 0.149 -0.274 0.137 -0.286 0.126 -0.296 0.114 -0.307 0.101 -0.318 0.088 -0.329 0.074 -0.338 0.061 -0.348 0.046 -0.162 -1.492 0.282 -0.037 0.271 -0.048 0.259 -0.059 0.248 -0.068 0.239 -0.079 0.228 -0.088 0.218 -0.096 0.207 -0.104 0.198 -0.112 0.187 -0.119 0.178 -0.125 0.167 -0.132 0.158 -0.138 0.149 -0.143 0.139 -0.148 0.129 -0.153 0.12 -0.156 0.11 -0.161 0.101 -0.164 0.091 -0.166 0.082 -0.169 0.072 -0.171 0.062 -0.172 0.053 -0.173 0.044 -0.173 0.034 -0.173 0.024 -0.173 0.015 -0.172 0.006 -0.17 -0.004 -0.169 -0.012 -0.165 -0.022 -0.164 0 0zm-1.392 -2.547l-0.382 -1.451 0 0 0.192 -0.041 0.195 -0.022 0.194 -0.001 0.19 0.018 0.186 0.038 0.177 0.056 0.168 0.071 0.159 0.085 0.148 0.098 0.137 0.107 0.128 0.115 0.118 0.122 0.111 0.128 0.103 0.134 0.097 0.138 0.09 0.143 0.085 0.146 0.079 0.15 0.075 0.154 0.07 0.155 0.066 0.159 0.062 0.161 0.058 0.162 0.054 0.164 0.051 0.164 0.047 0.166 0.044 0.166 0.04 0.166 0.037 0.164 0.034 0.165 0.031 0.163 0.028 0.162 -1.48 0.242 -0.024 -0.137 -0.026 -0.138 -0.029 -0.139 -0.031 -0.14 -0.034 -0.139 -0.037 -0.138 -0.039 -0.136 -0.041 -0.135 -0.044 -0.132 -0.046 -0.129 -0.048 -0.125 -0.05 -0.12 -0.051 -0.115 -0.054 -0.11 -0.055 -0.103 -0.056 -0.097 -0.056 -0.089 -0.057 -0.082 -0.055 -0.072 -0.055 -0.063 -0.054 -0.055 -0.051 -0.046 -0.047 -0.038 -0.043 -0.028 -0.04 -0.022 -0.036 -0.015 -0.034 -0.011 -0.033 -0.006 -0.033 -0.004 -0.037 0 -0.043 0.005 -0.053 0.012 0 0zm2.096 6.05l0.253 1.479 0 0 -0.46 0.052 -0.454 0.002 -0.444 -0.047 -0.433 -0.091 -0.416 -0.132 -0.4 -0.17 -0.381 -0.203 -0.362 -0.233 -0.341 -0.261 -0.321 -0.285 -0.298 -0.307 -0.275 -0.327 -0.25 -0.344 -0.226 -0.359 -0.199 -0.373 -0.171 -0.384 -0.142 -0.393 -0.11 -0.401 -0.077 -0.407 -0.04 -0.411 -0.002 -0.413 0.039 -0.411 0.084 -0.407 0.131 -0.398 0.181 -0.385 0.232 -0.365 0.282 -0.34 0.332 -0.31 0.38 -0.277 0.426 -0.239 0.47 -0.2 0.514 -0.161 0.382 1.451 -0.379 0.118 -0.327 0.14 -0.278 0.156 -0.235 0.17 -0.195 0.182 -0.16 0.194 -0.13 0.204 -0.101 0.217 -0.076 0.229 -0.05 0.243 -0.024 0.256 0.002 0.267 0.027 0.276 0.054 0.282 0.078 0.286 0.103 0.287 0.127 0.284 0.149 0.279 0.171 0.272 0.189 0.26 0.207 0.246 0.223 0.23 0.237 0.211 0.249 0.191 0.26 0.167 0.267 0.143 0.274 0.116 0.279 0.089 0.283 0.059 0.287 0.03 0.29 0 0.295 -0.034 0 0zm3.574 -4.483l1.467 0.312 0 0 -0.094 0.421 -0.098 0.399 -0.102 0.377 -0.108 0.357 -0.111 0.337 -0.115 0.318 -0.12 0.3 -0.125 0.282 -0.129 0.266 -0.135 0.249 -0.139 0.234 -0.143 0.218 -0.15 0.204 -0.154 0.19 -0.159 0.176 -0.163 0.161 -0.168 0.149 -0.171 0.135 -0.173 0.122 -0.177 0.11 -0.178 0.098 -0.177 0.086 -0.179 0.077 -0.177 0.067 -0.175 0.058 -0.175 0.051 -0.172 0.045 -0.169 0.04 -0.168 0.035 -0.164 0.031 -0.161 0.029 -0.159 0.028 -0.253 -1.479 0.151 -0.026 0.148 -0.027 0.144 -0.027 0.138 -0.029 0.135 -0.031 0.13 -0.034 0.126 -0.037 0.123 -0.041 0.118 -0.044 0.114 -0.049 0.112 -0.055 0.109 -0.06 0.106 -0.066 0.106 -0.075 0.106 -0.083 0.104 -0.092 0.104 -0.104 0.105 -0.115 0.105 -0.129 0.105 -0.144 0.105 -0.159 0.105 -0.177 0.104 -0.194 0.104 -0.213 0.103 -0.233 0.101 -0.252 0.1 -0.274 0.098 -0.297 0.095 -0.318 0.093 -0.342 0.09 -0.366 0.087 -0.39 0 0zm-1.437 -2.311l-0.267 -1.477 0 0 0.191 -0.026 0.191 -0.009 0.188 0.007 0.187 0.022 0.182 0.037 0.175 0.05 0.172 0.063 0.165 0.075 0.159 0.086 0.153 0.095 0.146 0.106 0.139 0.114 0.132 0.122 0.126 0.129 0.119 0.137 0.112 0.144 0.105 0.15 0.097 0.156 0.09 0.162 0.082 0.168 0.074 0.172 0.065 0.178 0.057 0.181 0.049 0.187 0.038 0.19 0.029 0.193 0.019 0.197 0.009 0.199 -0.003 0.202 -0.014 0.203 -0.025 0.204 -0.038 0.206 -1.467 -0.312 0.022 -0.121 0.015 -0.12 0.008 -0.121 0.002 -0.118 -0.005 -0.119 -0.011 -0.117 -0.018 -0.115 -0.023 -0.114 -0.029 -0.111 -0.034 -0.11 -0.04 -0.106 -0.044 -0.103 -0.049 -0.099 -0.052 -0.096 -0.056 -0.09 -0.061 -0.087 -0.062 -0.08 -0.066 -0.075 -0.067 -0.07 -0.069 -0.064 -0.07 -0.057 -0.07 -0.05 -0.07 -0.044 -0.07 -0.038 -0.069 -0.031 -0.067 -0.025 -0.067 -0.019 -0.064 -0.013 -0.063 -0.008 -0.063 -0.002 -0.063 0.003 -0.062 0.009 0 0zm-1.649 3.978l-1.497 0.1 0 0 -0.014 -0.272 -0.005 -0.269 0.004 -0.262 0.011 -0.258 0.021 -0.253 0.028 -0.247 0.035 -0.242 0.043 -0.237 0.05 -0.23 0.057 -0.225 0.063 -0.218 0.07 -0.212 0.076 -0.205 0.082 -0.199 0.088 -0.193 0.094 -0.185 0.098 -0.177 0.105 -0.172 0.109 -0.163 0.114 -0.156 0.119 -0.149 0.124 -0.14 0.129 -0.132 0.134 -0.124 0.138 -0.115 0.144 -0.107 0.148 -0.096 0.153 -0.087 0.159 -0.075 0.162 -0.064 0.168 -0.052 0.172 -0.039 0.267 1.477 -0.052 0.011 -0.057 0.018 -0.061 0.024 -0.064 0.031 -0.069 0.038 -0.071 0.046 -0.072 0.054 -0.075 0.062 -0.076 0.071 -0.076 0.078 -0.077 0.087 -0.077 0.095 -0.075 0.103 -0.074 0.111 -0.072 0.118 -0.069 0.126 -0.068 0.134 -0.064 0.139 -0.061 0.148 -0.057 0.154 -0.053 0.162 -0.049 0.167 -0.044 0.174 -0.039 0.18 -0.034 0.186 -0.028 0.192 -0.022 0.198 -0.016 0.203 -0.01 0.209 -0.003 0.215 0.004 0.219 0.012 0.225 0 0zm6.042 -0.702l1.398 0.545 0 0 -0.209 0.483 -0.234 0.444 -0.257 0.406 -0.28 0.367 -0.3 0.329 -0.319 0.29 -0.334 0.253 -0.348 0.215 -0.357 0.177 -0.365 0.141 -0.369 0.108 -0.371 0.074 -0.371 0.044 -0.368 0.014 -0.363 -0.012 -0.358 -0.038 -0.35 -0.061 -0.34 -0.082 -0.331 -0.103 -0.32 -0.122 -0.306 -0.138 -0.293 -0.156 -0.277 -0.171 -0.261 -0.185 -0.243 -0.2 -0.224 -0.214 -0.202 -0.229 -0.18 -0.243 -0.153 -0.26 -0.123 -0.275 -0.087 -0.293 -0.044 -0.306 1.497 -0.1 0.012 0.08 0.028 0.095 0.049 0.109 0.071 0.121 0.095 0.127 0.117 0.132 0.139 0.133 0.159 0.131 0.178 0.127 0.194 0.119 0.209 0.111 0.221 0.1 0.233 0.089 0.24 0.074 0.247 0.06 0.252 0.044 0.255 0.027 0.255 0.009 0.255 -0.01 0.253 -0.029 0.249 -0.05 0.245 -0.071 0.24 -0.093 0.234 -0.117 0.229 -0.141 0.223 -0.168 0.216 -0.197 0.209 -0.229 0.201 -0.263 0.19 -0.3 0.179 -0.34 0.165 -0.382 0 0zm-0.264 -4.051l0.262 -1.477 0 0 0.195 0.046 0.188 0.065 0.178 0.084 0.168 0.101 0.156 0.116 0.143 0.128 0.13 0.14 0.12 0.15 0.107 0.157 0.097 0.166 0.087 0.173 0.078 0.179 0.067 0.186 0.059 0.192 0.051 0.197 0.042 0.203 0.033 0.209 0.026 0.213 0.017 0.217 0.01 0.223 0.001 0.227 -0.008 0.231 -0.015 0.235 -0.024 0.238 -0.033 0.242 -0.04 0.244 -0.05 0.247 -0.059 0.249 -0.067 0.252 -0.077 0.253 -0.085 0.255 -0.095 0.255 -1.398 -0.545 0.079 -0.211 0.071 -0.21 0.062 -0.208 0.056 -0.206 0.047 -0.203 0.04 -0.2 0.033 -0.196 0.026 -0.192 0.019 -0.188 0.012 -0.184 0.006 -0.179 -0.001 -0.171 -0.007 -0.167 -0.013 -0.16 -0.018 -0.153 -0.023 -0.146 -0.029 -0.137 -0.033 -0.128 -0.037 -0.12 -0.04 -0.11 -0.043 -0.101 -0.045 -0.09 -0.047 -0.079 -0.047 -0.07 -0.047 -0.058 -0.045 -0.049 -0.044 -0.04 -0.042 -0.031 -0.039 -0.023 -0.038 -0.018 -0.038 -0.013 -0.039 -0.01 0 0zm-3.112 3.191l-1.39 -0.564 0 0 0.092 -0.217 0.098 -0.213 0.103 -0.211 0.109 -0.206 0.114 -0.203 0.119 -0.199 0.123 -0.194 0.128 -0.19 0.131 -0.186 0.135 -0.179 0.139 -0.176 0.142 -0.169 0.144 -0.164 0.148 -0.158 0.15 -0.152 0.152 -0.145 0.154 -0.138 0.156 -0.132 0.158 -0.125 0.161 -0.117 0.162 -0.109 0.164 -0.101 0.166 -0.093 0.169 -0.084 0.17 -0.074 0.173 -0.064 0.176 -0.053 0.18 -0.041 0.184 -0.027 0.185 -0.012 0.189 0.005 0.19 0.023 -0.262 1.477 -0.038 -0.004 -0.047 -0.001 -0.057 0.004 -0.066 0.009 -0.073 0.017 -0.084 0.025 -0.091 0.034 -0.096 0.042 -0.101 0.05 -0.106 0.06 -0.112 0.068 -0.113 0.077 -0.115 0.084 -0.118 0.093 -0.119 0.1 -0.12 0.108 -0.12 0.114 -0.119 0.121 -0.119 0.127 -0.118 0.134 -0.116 0.138 -0.113 0.144 -0.112 0.149 -0.109 0.153 -0.105 0.158 -0.103 0.161 -0.098 0.164 -0.094 0.168 -0.091 0.171 -0.084 0.172 -0.08 0.175 -0.075 0.176 0 0zm5.145 2.915l0.221 1.484 0 0 -0.314 0.041 -0.318 0.031 -0.322 0.021 -0.326 0.011 -0.327 0 -0.329 -0.01 -0.329 -0.021 -0.327 -0.031 -0.326 -0.042 -0.323 -0.054 -0.319 -0.065 -0.314 -0.077 -0.307 -0.09 -0.3 -0.102 -0.293 -0.116 -0.283 -0.129 -0.273 -0.145 -0.261 -0.162 -0.248 -0.178 -0.234 -0.196 -0.215 -0.216 -0.196 -0.236 -0.172 -0.255 -0.147 -0.276 -0.116 -0.295 -0.083 -0.31 -0.049 -0.323 -0.012 -0.334 0.023 -0.343 0.06 -0.348 0.094 -0.354 0.13 -0.359 1.39 0.564 -0.089 0.246 -0.06 0.226 -0.035 0.206 -0.013 0.187 0.006 0.171 0.024 0.156 0.038 0.145 0.055 0.137 0.069 0.131 0.087 0.128 0.104 0.125 0.121 0.121 0.14 0.118 0.158 0.113 0.176 0.108 0.192 0.102 0.208 0.095 0.221 0.088 0.234 0.079 0.245 0.072 0.254 0.062 0.263 0.054 0.269 0.045 0.274 0.035 0.278 0.027 0.281 0.018 0.28 0.008 0.281 -0.001 0.278 -0.009 0.274 -0.017 0.269 -0.027 0.263 -0.034 0 0zm5.097 -6.869l1.096 -1.025 0 0 0.223 0.275 0.182 0.3 0.141 0.317 0.101 0.33 0.064 0.34 0.031 0.346 -0.001 0.351 -0.029 0.355 -0.057 0.357 -0.081 0.359 -0.106 0.36 -0.128 0.361 -0.15 0.36 -0.171 0.358 -0.191 0.355 -0.211 0.351 -0.23 0.346 -0.248 0.339 -0.266 0.332 -0.283 0.321 -0.3 0.312 -0.316 0.298 -0.332 0.285 -0.347 0.27 -0.362 0.253 -0.376 0.235 -0.391 0.214 -0.403 0.192 -0.416 0.167 -0.429 0.142 -0.44 0.113 -0.45 0.084 -0.221 -1.484 0.346 -0.064 0.341 -0.088 0.337 -0.111 0.33 -0.133 0.323 -0.154 0.316 -0.173 0.307 -0.191 0.298 -0.209 0.288 -0.224 0.277 -0.238 0.265 -0.25 0.251 -0.262 0.239 -0.271 0.224 -0.279 0.208 -0.284 0.192 -0.29 0.175 -0.291 0.158 -0.293 0.139 -0.291 0.12 -0.288 0.101 -0.282 0.08 -0.275 0.06 -0.266 0.04 -0.254 0.021 -0.239 0 -0.223 -0.018 -0.205 -0.035 -0.186 -0.05 -0.165 -0.065 -0.147 -0.078 -0.129 -0.093 -0.114 0 0zm-1.69 -0.163l-0.535 -1.402 0 0 0.116 -0.041 0.115 -0.035 0.117 -0.031 0.117 -0.025 0.116 -0.022 0.118 -0.017 0.116 -0.012 0.117 -0.009 0.115 -0.005 0.114 -0.002 0.114 0.002 0.114 0.004 0.112 0.009 0.111 0.011 0.11 0.014 0.108 0.016 0.107 0.02 0.105 0.022 0.104 0.024 0.103 0.028 0.1 0.03 0.097 0.033 0.096 0.035 0.095 0.038 0.093 0.042 0.091 0.045 0.087 0.047 0.086 0.052 0.085 0.057 0.083 0.064 0.08 0.069 0.079 0.077 -1.096 1.025 0.001 0.001 -0.006 -0.005 -0.013 -0.009 -0.019 -0.013 -0.027 -0.017 -0.033 -0.018 -0.037 -0.018 -0.042 -0.019 -0.046 -0.019 -0.051 -0.018 -0.057 -0.019 -0.057 -0.017 -0.059 -0.016 -0.064 -0.015 -0.066 -0.014 -0.067 -0.013 -0.068 -0.01 -0.07 -0.009 -0.071 -0.007 -0.07 -0.005 -0.071 -0.003 -0.071 -0.001 -0.07 0.001 -0.07 0.003 -0.068 0.005 -0.067 0.007 -0.063 0.01 -0.063 0.011 -0.061 0.013 -0.057 0.016 -0.055 0.016 -0.052 0.019 0 0zm-2.681 3.501l-1.478 -0.26 0 0 0.03 -0.161 0.033 -0.161 0.036 -0.163 0.04 -0.164 0.044 -0.164 0.048 -0.165 0.052 -0.165 0.057 -0.165 0.061 -0.165 0.068 -0.165 0.072 -0.164 0.078 -0.163 0.083 -0.163 0.09 -0.161 0.096 -0.16 0.102 -0.158 0.109 -0.156 0.116 -0.153 0.124 -0.151 0.13 -0.147 0.137 -0.144 0.145 -0.141 0.153 -0.137 0.16 -0.132 0.167 -0.127 0.176 -0.124 0.184 -0.118 0.19 -0.112 0.199 -0.107 0.207 -0.102 0.215 -0.095 0.222 -0.09 0.535 1.402 -0.173 0.069 -0.164 0.074 -0.156 0.076 -0.148 0.08 -0.141 0.083 -0.134 0.086 -0.126 0.089 -0.121 0.092 -0.115 0.094 -0.107 0.097 -0.103 0.099 -0.097 0.102 -0.093 0.104 -0.087 0.107 -0.082 0.109 -0.078 0.112 -0.074 0.114 -0.069 0.115 -0.066 0.118 -0.062 0.121 -0.058 0.122 -0.055 0.124 -0.051 0.125 -0.047 0.128 -0.045 0.129 -0.041 0.13 -0.038 0.132 -0.036 0.133 -0.032 0.133 -0.03 0.134 -0.028 0.135 -0.024 0.135 0 0zm4.802 2.527l0.919 1.186 0 0 -0.414 0.304 -0.406 0.268 -0.401 0.234 -0.395 0.198 -0.388 0.163 -0.382 0.13 -0.376 0.097 -0.369 0.062 -0.362 0.029 -0.353 -0.004 -0.343 -0.037 -0.331 -0.069 -0.317 -0.101 -0.3 -0.13 -0.283 -0.157 -0.264 -0.182 -0.244 -0.206 -0.223 -0.225 -0.203 -0.243 -0.182 -0.26 -0.162 -0.273 -0.142 -0.286 -0.123 -0.298 -0.103 -0.307 -0.084 -0.316 -0.064 -0.324 -0.046 -0.33 -0.026 -0.335 -0.007 -0.34 0.012 -0.343 0.031 -0.346 0.051 -0.346 1.478 0.26 -0.039 0.264 -0.024 0.262 -0.009 0.259 0.005 0.255 0.02 0.249 0.033 0.242 0.047 0.234 0.059 0.224 0.072 0.214 0.083 0.203 0.094 0.189 0.104 0.176 0.114 0.161 0.121 0.146 0.13 0.132 0.138 0.115 0.145 0.101 0.154 0.086 0.162 0.07 0.173 0.055 0.184 0.038 0.197 0.022 0.211 0.003 0.228 -0.019 0.243 -0.042 0.261 -0.066 0.276 -0.094 0.294 -0.124 0.309 -0.155 0.324 -0.188 0.339 -0.224 0.354 -0.261 0 0zm2.34 -6.865l0.35 -1.458 0 0 0.299 0.116 0.246 0.178 0.187 0.21 0.14 0.224 0.106 0.235 0.081 0.244 0.061 0.255 0.045 0.268 0.03 0.279 0.017 0.291 0.003 0.303 -0.009 0.314 -0.021 0.324 -0.033 0.333 -0.047 0.34 -0.058 0.347 -0.071 0.352 -0.084 0.356 -0.096 0.358 -0.109 0.359 -0.123 0.359 -0.137 0.356 -0.15 0.353 -0.164 0.348 -0.179 0.341 -0.195 0.334 -0.209 0.323 -0.226 0.312 -0.242 0.299 -0.26 0.284 -0.278 0.267 -0.295 0.247 -0.919 -1.186 0.213 -0.178 0.205 -0.197 0.197 -0.216 0.188 -0.231 0.179 -0.248 0.17 -0.262 0.159 -0.273 0.149 -0.285 0.139 -0.293 0.127 -0.301 0.118 -0.306 0.106 -0.309 0.094 -0.311 0.084 -0.311 0.073 -0.309 0.061 -0.305 0.05 -0.3 0.04 -0.291 0.028 -0.281 0.018 -0.27 0.007 -0.256 -0.002 -0.239 -0.013 -0.22 -0.021 -0.199 -0.029 -0.173 -0.035 -0.145 -0.037 -0.112 -0.033 -0.074 -0.02 -0.034 0.006 0.005 0.044 0.031 0.075 0.028 0 0zm-2.523 1.647l-1.216 -0.878 0 0 0.108 -0.148 0.108 -0.144 0.107 -0.139 0.106 -0.135 0.107 -0.131 0.108 -0.128 0.108 -0.123 0.109 -0.118 0.108 -0.114 0.111 -0.111 0.113 -0.106 0.114 -0.101 0.116 -0.097 0.118 -0.091 0.121 -0.088 0.124 -0.081 0.126 -0.076 0.13 -0.071 0.132 -0.064 0.135 -0.058 0.139 -0.051 0.142 -0.043 0.143 -0.036 0.146 -0.029 0.148 -0.02 0.15 -0.013 0.151 -0.004 0.151 0.003 0.151 0.012 0.153 0.018 0.153 0.027 0.153 0.033 -0.35 1.458 -0.09 -0.019 -0.084 -0.015 -0.081 -0.009 -0.078 -0.006 -0.074 -0.002 -0.072 0.002 -0.067 0.006 -0.068 0.009 -0.066 0.013 -0.066 0.016 -0.065 0.02 -0.065 0.025 -0.067 0.028 -0.068 0.033 -0.069 0.038 -0.072 0.043 -0.073 0.048 -0.073 0.053 -0.077 0.06 -0.079 0.065 -0.079 0.071 -0.081 0.076 -0.083 0.083 -0.086 0.09 -0.087 0.095 -0.088 0.1 -0.09 0.106 -0.091 0.112 -0.094 0.119 -0.095 0.124 -0.097 0.129 -0.098 0.134 0 0zm0.247 8.372l0.695 1.329 0 0 -0.471 0.216 -0.459 0.147 -0.451 0.072 -0.444 -0.01 -0.424 -0.1 -0.385 -0.187 -0.329 -0.259 -0.265 -0.309 -0.21 -0.344 -0.163 -0.37 -0.125 -0.392 -0.092 -0.411 -0.064 -0.429 -0.04 -0.445 -0.018 -0.461 0.003 -0.472 0.021 -0.481 0.038 -0.488 0.054 -0.492 0.068 -0.493 0.082 -0.49 0.094 -0.485 0.104 -0.477 0.116 -0.464 0.123 -0.45 0.132 -0.432 0.14 -0.411 0.146 -0.387 0.153 -0.361 0.16 -0.334 0.168 -0.305 0.18 -0.275 1.216 0.878 -0.109 0.168 -0.121 0.218 -0.126 0.264 -0.128 0.303 -0.127 0.337 -0.124 0.365 -0.119 0.39 -0.113 0.411 -0.106 0.426 -0.096 0.439 -0.087 0.447 -0.075 0.451 -0.062 0.451 -0.05 0.448 -0.034 0.439 -0.018 0.428 -0.002 0.411 0.015 0.389 0.032 0.364 0.049 0.332 0.066 0.297 0.08 0.253 0.091 0.206 0.094 0.156 0.092 0.108 0.085 0.069 0.086 0.042 0.107 0.025 0.15 0.003 0.206 -0.033 0.267 -0.086 0.324 -0.149 0 0zm10.096 -31.98l1.491 0.166 0 0 -0.083 0.763 -0.091 0.836 -0.097 0.902 -0.106 0.962 -0.116 1.017 -0.126 1.067 -0.137 1.11 -0.149 1.15 -0.162 1.182 -0.176 1.211 -0.191 1.232 -0.208 1.25 -0.224 1.262 -0.242 1.268 -0.261 1.269 -0.281 1.265 -0.302 1.255 -0.323 1.241 -0.348 1.221 -0.37 1.195 -0.397 1.165 -0.423 1.13 -0.451 1.089 -0.48 1.043 -0.512 0.993 -0.545 0.937 -0.579 0.876 -0.618 0.809 -0.657 0.737 -0.7 0.658 -0.745 0.572 -0.792 0.476 -0.695 -1.329 0.641 -0.386 0.619 -0.475 0.597 -0.562 0.575 -0.645 0.551 -0.724 0.528 -0.797 0.504 -0.867 0.479 -0.93 0.454 -0.986 0.43 -1.039 0.406 -1.084 0.383 -1.125 0.36 -1.159 0.337 -1.188 0.316 -1.21 0.295 -1.229 0.276 -1.24 0.256 -1.248 0.239 -1.248 0.221 -1.244 0.204 -1.233 0.189 -1.219 0.175 -1.197 0.16 -1.171 0.148 -1.139 0.136 -1.102 0.125 -1.06 0.115 -1.011 0.106 -0.959 0.097 -0.899 0.091 -0.837 0.083 -0.767 0 0zm-0.582 4.595l-1.47 -0.301 0 0 0.19 -0.913 0.18 -0.846 0.17 -0.778 0.162 -0.714 0.153 -0.652 0.144 -0.591 0.136 -0.533 0.128 -0.477 0.119 -0.423 0.113 -0.373 0.106 -0.324 0.101 -0.28 0.098 -0.241 0.098 -0.209 0.113 -0.192 0.165 -0.198 0.346 -0.208 0.605 0.044 0.34 0.306 0.115 0.245 0.052 0.202 0.029 0.196 0.018 0.206 0.009 0.222 0.002 0.241 -0.005 0.259 -0.01 0.279 -0.016 0.295 -0.022 0.312 -0.026 0.327 -0.032 0.339 -0.038 0.351 -1.491 -0.166 0.036 -0.335 0.03 -0.322 0.026 -0.308 0.02 -0.29 0.015 -0.272 0.009 -0.25 0.004 -0.227 -0.002 -0.198 -0.007 -0.166 -0.01 -0.128 -0.012 -0.081 -0.002 -0.013 0.048 0.097 0.259 0.226 0.51 0.038 0.238 -0.138 0.041 -0.046 -0.025 0.045 -0.054 0.115 -0.072 0.176 -0.083 0.232 -0.095 0.289 -0.104 0.344 -0.113 0.4 -0.123 0.458 -0.131 0.516 -0.141 0.578 -0.15 0.64 -0.159 0.703 -0.169 0.769 -0.178 0.837 -0.188 0.906 0 0zm-5.465 34.453l-1.5 -0.014 0.021 -1.161 0.038 -1.16 0.056 -1.159 0.072 -1.157 0.087 -1.155 0.102 -1.152 0.116 -1.15 0.129 -1.147 0.142 -1.142 0.152 -1.139 0.163 -1.134 0.173 -1.13 0.182 -1.124 0.19 -1.118 0.197 -1.113 0.204 -1.106 0.209 -1.099 0.214 -1.092 0.218 -1.084 0.221 -1.077 0.224 -1.068 0.225 -1.059 0.227 -1.05 0.226 -1.04 0.224 -1.03 0.224 -1.019 0.221 -1.009 0.217 -0.998 0.214 -0.985 0.208 -0.974 0.203 -0.961 0.196 -0.948 1.47 0.301 -0.198 0.954 -0.203 0.966 -0.21 0.978 -0.214 0.988 -0.218 0.999 -0.221 1.01 -0.223 1.019 -0.225 1.029 -0.225 1.038 -0.226 1.046 -0.224 1.055 -0.223 1.063 -0.22 1.07 -0.217 1.078 -0.212 1.085 -0.208 1.09 -0.202 1.097 -0.195 1.102 -0.188 1.107 -0.18 1.113 -0.171 1.116 -0.161 1.12 -0.151 1.124 -0.139 1.127 -0.127 1.13 -0.114 1.132 -0.101 1.134 -0.086 1.135 -0.07 1.137 -0.055 1.137 -0.038 1.137 -0.02 1.137zm0 0c-0.003,0.415 -0.343,0.747 -0.757,0.743 -0.414,-0.003 -0.747,-0.343 -0.743,-0.757l1.5 0.014z"/>
   </g>
   <g>
    <path class="fil0" d="M111.641 34.478c-0.414,0.01 -0.758,-0.317 -0.769,-0.731 -0.01,-0.414 0.317,-0.758 0.731,-0.769l0.038 1.5zm16.164 -2.321l0.166 1.491 0 0 -0.475 0.05 -0.51 0.048 -0.541 0.047 -0.569 0.045 -0.595 0.044 -0.617 0.042 -0.636 0.041 -0.651 0.039 -0.665 0.038 -0.673 0.036 -0.678 0.035 -0.682 0.033 -0.68 0.032 -0.677 0.03 -0.669 0.029 -0.658 0.027 -0.644 0.025 -0.627 0.024 -0.606 0.022 -0.582 0.021 -0.554 0.019 -0.524 0.018 -0.49 0.016 -0.452 0.014 -0.412 0.013 -0.368 0.011 -0.32 0.009 -0.27 0.008 -0.216 0.006 -0.158 0.004 -0.097 0.003 -0.034 0.001 -0.038 -1.5 0.033 -0.001 0.096 -0.002 0.158 -0.005 0.214 -0.006 0.269 -0.007 0.319 -0.01 0.366 -0.011 0.411 -0.012 0.451 -0.015 0.489 -0.015 0.522 -0.018 0.553 -0.019 0.58 -0.021 0.604 -0.022 0.625 -0.024 0.642 -0.025 0.655 -0.027 0.667 -0.029 0.673 -0.03 0.678 -0.031 0.678 -0.034 0.675 -0.034 0.669 -0.036 0.659 -0.037 0.646 -0.039 0.63 -0.041 0.61 -0.041 0.587 -0.043 0.559 -0.045 0.53 -0.046 0.496 -0.047 0.458 -0.048 0 0zm4.848 -4.815l-1.396 -0.548 0 0 0.884 -2.071 0.911 -1.801 0.93 -1.544 0.944 -1.301 0.952 -1.07 0.955 -0.85 0.955 -0.641 0.95 -0.438 0.936 -0.237 0.906 -0.04 0.857 0.153 0.781 0.331 0.685 0.487 0.575 0.62 0.456 0.73 0.333 0.819 0.206 0.895 0.073 0.954 -0.065 0.999 -0.211 1.031 -0.363 1.048 -0.522 1.051 -0.687 1.041 -0.859 1.015 -1.037 0.977 -1.222 0.925 -1.413 0.861 -1.612 0.784 -1.818 0.695 -2.031 0.594 -2.253 0.482 -2.482 0.355 -0.166 -1.491 2.387 -0.342 2.149 -0.458 1.919 -0.562 1.7 -0.65 1.49 -0.725 1.289 -0.785 1.097 -0.831 0.917 -0.864 0.747 -0.882 0.587 -0.889 0.438 -0.883 0.299 -0.865 0.17 -0.834 0.052 -0.792 -0.057 -0.736 -0.153 -0.668 -0.239 -0.59 -0.313 -0.5 -0.373 -0.404 -0.425 -0.303 -0.473 -0.201 -0.527 -0.094 -0.587 0.025 -0.653 0.166 -0.717 0.33 -0.772 0.518 -0.814 0.726 -0.845 0.95 -0.863 1.189 -0.869 1.442 -0.864 1.709 -0.849 1.988 0 0zm-12.381 59.297l-1.271 -0.797 0 0 0.49 -0.871 0.469 -1.014 0.445 -1.147 0.422 -1.271 0.401 -1.388 0.379 -1.494 0.36 -1.594 0.343 -1.685 0.328 -1.768 0.314 -1.845 0.304 -1.913 0.295 -1.974 0.289 -2.028 0.285 -2.074 0.283 -2.112 0.284 -2.145 0.286 -2.168 0.293 -2.186 0.299 -2.195 0.31 -2.198 0.322 -2.193 0.337 -2.182 0.354 -2.162 0.374 -2.136 0.395 -2.103 0.42 -2.063 0.447 -2.016 0.477 -1.961 0.508 -1.9 0.543 -1.832 0.58 -1.756 0.62 -1.674 1.396 0.548 -0.6 1.621 -0.565 1.709 -0.53 1.791 -0.499 1.864 -0.469 1.929 -0.44 1.989 -0.415 2.039 -0.392 2.082 -0.371 2.119 -0.351 2.148 -0.336 2.169 -0.32 2.184 -0.309 2.19 -0.299 2.19 -0.292 2.183 -0.286 2.167 -0.284 2.146 -0.284 2.116 -0.286 2.08 -0.29 2.037 -0.297 1.986 -0.306 1.928 -0.318 1.863 -0.332 1.792 -0.348 1.714 -0.368 1.629 -0.39 1.536 -0.415 1.439 -0.444 1.335 -0.476 1.225 -0.513 1.109 -0.556 0.988 0 0zm-14.312 -3.621l1.301 -0.746 0.543 0.918 0.532 0.844 0.52 0.772 0.509 0.702 0.496 0.633 0.484 0.567 0.471 0.502 0.457 0.44 0.442 0.379 0.428 0.322 0.411 0.267 0.395 0.215 0.378 0.167 0.363 0.121 0.347 0.08 0.334 0.041 0.323 0.006 0.315 -0.027 0.308 -0.059 0.304 -0.09 0.302 -0.121 0.299 -0.152 0.297 -0.181 0.294 -0.211 0.292 -0.239 0.288 -0.266 0.282 -0.291 0.278 -0.314 0.272 -0.336 0.265 -0.356 0.26 -0.374 0.251 -0.389 1.271 0.797 -0.276 0.427 -0.288 0.414 -0.298 0.401 -0.311 0.384 -0.323 0.365 -0.336 0.346 -0.35 0.323 -0.364 0.298 -0.378 0.271 -0.395 0.242 -0.412 0.208 -0.427 0.171 -0.443 0.131 -0.458 0.087 -0.47 0.04 -0.48 -0.009 -0.487 -0.061 -0.494 -0.112 -0.496 -0.167 -0.499 -0.219 -0.502 -0.273 -0.504 -0.327 -0.507 -0.382 -0.511 -0.438 -0.516 -0.496 -0.521 -0.556 -0.526 -0.617 -0.533 -0.68 -0.54 -0.745 -0.548 -0.813 -0.555 -0.881 -0.564 -0.953zm0 0c-0.206,-0.359 -0.082,-0.818 0.277,-1.024 0.36,-0.206 0.818,-0.082 1.024,0.278l-1.301 0.746z"/>
   </g>
   <g>
    <path class="fil0" d="M138.28 66.175c-0.375,0.174 -0.821,0.011 -0.996,-0.365 -0.174,-0.375 -0.011,-0.821 0.365,-0.996l0.631 1.361zm1.765 -1.784l-0.035 1.5 -0.1 -0.002 -0.097 0.001 -0.096 0.002 -0.093 0.005 -0.091 0.005 -0.088 0.008 -0.086 0.008 -0.082 0.01 -0.081 0.011 -0.076 0.011 -0.075 0.013 -0.072 0.013 -0.069 0.014 -0.066 0.014 -0.061 0.015 -0.06 0.014 -0.055 0.015 -0.053 0.015 -0.049 0.014 -0.045 0.014 -0.042 0.013 -0.037 0.013 -0.037 0.013 -0.03 0.01 -0.022 0.009 -0.023 0.008 -0.02 0.009 -0.013 0.004 -0.009 0.004 -0.014 0.006 0.002 0 0.01 -0.005 -0.631 -1.361 0.015 -0.007 0.016 -0.007 0.01 -0.004 0.024 -0.01 0.029 -0.012 0.03 -0.012 0.038 -0.015 0.046 -0.017 0.047 -0.017 0.048 -0.016 0.056 -0.019 0.059 -0.019 0.064 -0.019 0.067 -0.02 0.072 -0.02 0.077 -0.02 0.079 -0.02 0.085 -0.02 0.087 -0.018 0.091 -0.019 0.094 -0.017 0.099 -0.017 0.102 -0.015 0.105 -0.014 0.109 -0.013 0.112 -0.011 0.115 -0.01 0.119 -0.007 0.12 -0.006 0.124 -0.003 0.128 -0.001 0.129 0.002zm0 0c0.414,0.01 0.742,0.354 0.732,0.768 -0.009,0.414 -0.353,0.741 -0.767,0.732l0.035 -1.5z"/>
   </g>
   <g>
    <path class="fil0" d="M130.202 11.036c0.163,-0.38 0.604,-0.557 0.985,-0.394 0.381,0.163 0.557,0.604 0.394,0.985l-1.379 -0.591zm-5.43 17.844l-1.433 -0.443 0 0 0.158 -0.496 0.177 -0.534 0.196 -0.568 0.213 -0.6 0.228 -0.627 0.242 -0.653 0.253 -0.674 0.264 -0.691 0.272 -0.705 0.28 -0.717 0.285 -0.722 0.288 -0.727 0.291 -0.726 0.291 -0.723 0.29 -0.715 0.287 -0.704 0.282 -0.689 0.277 -0.672 0.268 -0.649 0.259 -0.624 0.248 -0.595 0.235 -0.562 0.22 -0.526 0.205 -0.486 0.186 -0.442 0.167 -0.396 0.146 -0.344 0.123 -0.29 0.099 -0.233 0.073 -0.169 0.044 -0.105 0.016 -0.037 1.379 0.591 -0.015 0.035 -0.044 0.104 -0.073 0.17 -0.098 0.231 -0.122 0.288 -0.146 0.344 -0.167 0.394 -0.186 0.441 -0.203 0.485 -0.22 0.524 -0.234 0.56 -0.248 0.594 -0.258 0.622 -0.267 0.647 -0.276 0.669 -0.281 0.687 -0.286 0.702 -0.289 0.712 -0.29 0.72 -0.289 0.723 -0.288 0.722 -0.283 0.719 -0.277 0.711 -0.271 0.701 -0.261 0.685 -0.251 0.667 -0.239 0.644 -0.224 0.618 -0.208 0.589 -0.192 0.554 -0.172 0.517 -0.151 0.474 0 0zm-5.419 18.025l-1.439 -0.423 0.115 -0.391 0.123 -0.419 0.132 -0.445 0.139 -0.469 0.145 -0.493 0.153 -0.514 0.158 -0.532 0.164 -0.552 0.169 -0.568 0.174 -0.582 0.177 -0.595 0.181 -0.605 0.184 -0.616 0.186 -0.624 0.189 -0.629 0.19 -0.634 0.191 -0.637 0.192 -0.637 0.192 -0.637 0.191 -0.635 0.19 -0.631 0.189 -0.626 0.187 -0.618 0.185 -0.609 0.181 -0.599 0.179 -0.586 0.174 -0.571 0.169 -0.557 0.165 -0.539 0.16 -0.519 0.154 -0.5 0.147 -0.476 1.433 0.443 -0.147 0.476 -0.153 0.497 -0.159 0.519 -0.165 0.538 -0.169 0.555 -0.174 0.571 -0.178 0.585 -0.182 0.598 -0.184 0.609 -0.187 0.617 -0.189 0.625 -0.19 0.63 -0.191 0.635 -0.191 0.637 -0.192 0.637 -0.191 0.636 -0.19 0.634 -0.188 0.629 -0.187 0.623 -0.184 0.615 -0.181 0.606 -0.177 0.594 -0.173 0.582 -0.169 0.567 -0.164 0.55 -0.158 0.533 -0.152 0.514 -0.146 0.492 -0.139 0.469 -0.131 0.444 -0.123 0.418 -0.115 0.39zm0 0c-0.117,0.397 -0.534,0.625 -0.931,0.508 -0.398,-0.117 -0.625,-0.534 -0.508,-0.931l1.439 0.423z"/>
   </g>
   <g>
    <path class="fil0" d="M59.605 65.116c0.389,0.144 0.587,0.576 0.444,0.964 -0.143,0.388 -0.575,0.587 -0.964,0.444l0.52 -1.408zm0.24 -3.789l0.415 1.442 0 0 -0.515 0.158 -0.446 0.157 -0.38 0.153 -0.316 0.149 -0.253 0.14 -0.193 0.13 -0.135 0.111 -0.084 0.089 -0.041 0.061 -0.014 0.029 -0.001 0.007 0 0 0.004 0.011 0.013 0.034 0.031 0.055 0.053 0.071 0.074 0.083 0.095 0.089 0.111 0.093 0.124 0.092 0.134 0.09 0.139 0.087 0.142 0.081 0.14 0.076 0.135 0.068 0.127 0.061 0.116 0.053 0.1 0.044 0.082 0.035 0.062 0.024 0.036 0.015 0.005 0.001 -0.52 1.408 -0.025 -0.01 -0.052 -0.02 -0.078 -0.032 -0.101 -0.042 -0.123 -0.054 -0.139 -0.064 -0.154 -0.074 -0.167 -0.084 -0.175 -0.095 -0.181 -0.104 -0.186 -0.115 -0.185 -0.126 -0.184 -0.137 -0.18 -0.15 -0.173 -0.164 -0.164 -0.183 -0.149 -0.205 -0.128 -0.23 -0.099 -0.261 -0.054 -0.29 0.005 -0.309 0.069 -0.309 0.131 -0.291 0.181 -0.265 0.226 -0.24 0.265 -0.22 0.306 -0.206 0.351 -0.195 0.398 -0.187 0.451 -0.183 0.507 -0.177 0.567 -0.175 0 0zm99.236 -12.083l-0.035 1.499 0 0 -2.145 -0.026 -2.34 0.014 -2.52 0.053 -2.687 0.092 -2.84 0.128 -2.981 0.163 -3.106 0.197 -3.22 0.229 -3.319 0.259 -3.407 0.288 -3.48 0.316 -3.541 0.342 -3.587 0.366 -3.622 0.39 -3.643 0.411 -3.651 0.431 -3.645 0.449 -3.627 0.466 -3.594 0.482 -3.55 0.496 -3.492 0.508 -3.421 0.52 -3.336 0.528 -3.238 0.537 -3.128 0.542 -3.003 0.548 -2.866 0.551 -2.715 0.552 -2.551 0.553 -2.373 0.551 -2.182 0.548 -1.976 0.542 -0.415 -1.442 2.011 -0.552 2.211 -0.554 2.396 -0.557 2.571 -0.557 2.732 -0.556 2.881 -0.554 3.017 -0.55 3.139 -0.544 3.25 -0.539 3.346 -0.53 3.429 -0.52 3.501 -0.51 3.558 -0.497 3.603 -0.483 3.634 -0.467 3.653 -0.45 3.659 -0.432 3.65 -0.412 3.63 -0.391 3.596 -0.367 3.549 -0.342 3.489 -0.317 3.416 -0.289 3.33 -0.26 3.23 -0.23 3.119 -0.197 2.994 -0.164 2.855 -0.129 2.705 -0.092 2.541 -0.054 2.365 -0.014 2.176 0.027 0 0zm2.457 -1.419l0.28 -1.474 0.374 0.079 0.347 0.09 0.322 0.101 0.296 0.112 0.272 0.124 0.25 0.138 0.227 0.154 0.205 0.173 0.18 0.198 0.151 0.226 0.11 0.255 0.059 0.278 -0.001 0.286 -0.06 0.275 -0.107 0.251 -0.144 0.221 -0.172 0.196 -0.195 0.174 -0.215 0.154 -0.234 0.14 -0.255 0.127 -0.275 0.115 -0.295 0.104 -0.317 0.093 -0.337 0.083 -0.358 0.071 -0.38 0.061 -0.402 0.048 -0.423 0.036 -0.444 0.023 -0.465 0.01 -0.486 -0.004 0.035 -1.499 0.442 0.003 0.42 -0.009 0.396 -0.02 0.372 -0.032 0.348 -0.042 0.323 -0.052 0.298 -0.059 0.272 -0.066 0.246 -0.073 0.218 -0.076 0.19 -0.08 0.16 -0.08 0.131 -0.078 0.101 -0.072 0.068 -0.061 0.041 -0.046 0.016 -0.024 0 0 -0.004 0.024 0 0.034 0.005 0.026 0.003 0.007 -0.013 -0.019 -0.039 -0.042 -0.071 -0.06 -0.105 -0.071 -0.141 -0.077 -0.176 -0.08 -0.209 -0.08 -0.245 -0.076 -0.278 -0.072 -0.312 -0.066zm0 0c-0.406,-0.077 -0.673,-0.47 -0.596,-0.877 0.077,-0.407 0.47,-0.674 0.876,-0.597l-0.28 1.474z"/>
   </g>
   <g>
    <path class="fil0" d="M64.973 15.813c-0.05,-0.411 0.244,-0.786 0.655,-0.836 0.411,-0.049 0.785,0.244 0.835,0.655l-1.49 0.181zm-3.076 31.938l1.491 -0.172 0 0 0.113 0.823 0.117 0.573 0.097 0.298 -0.066 -0.058 -0.592 -0.082 -0.172 0.114 0.095 -0.193 0.148 -0.422 0.164 -0.601 0.171 -0.755 0.173 -0.893 0.172 -1.017 0.171 -1.13 0.167 -1.23 0.161 -1.32 0.156 -1.4 0.147 -1.467 0.138 -1.526 0.128 -1.572 0.115 -1.61 0.103 -1.635 0.088 -1.65 0.072 -1.655 0.054 -1.65 0.036 -1.633 0.017 -1.606 -0.005 -1.569 -0.027 -1.521 -0.05 -1.461 -0.076 -1.391 -0.101 -1.31 -0.129 -1.217 1.49 -0.181 0.133 1.263 0.104 1.347 0.077 1.423 0.052 1.488 0.027 1.545 0.005 1.589 -0.017 1.625 -0.036 1.651 -0.055 1.665 -0.073 1.671 -0.088 1.664 -0.104 1.649 -0.117 1.623 -0.128 1.586 -0.139 1.54 -0.15 1.483 -0.157 1.415 -0.163 1.339 -0.17 1.251 -0.174 1.154 -0.178 1.047 -0.181 0.932 -0.182 0.809 -0.187 0.682 -0.198 0.559 -0.243 0.464 -0.5 0.427 -0.907 -0.135 -0.365 -0.496 -0.184 -0.545 -0.144 -0.699 -0.124 -0.897 0 0zm-0.619 -31.218l1.433 -0.445 0 0 0.225 0.799 0.194 0.832 0.164 0.864 0.137 0.894 0.111 0.92 0.088 0.946 0.066 0.969 0.047 0.99 0.028 1.01 0.013 1.026 -0.002 1.041 -0.015 1.054 -0.026 1.063 -0.035 1.073 -0.043 1.077 -0.048 1.081 -0.053 1.083 -0.055 1.081 -0.056 1.078 -0.056 1.072 -0.053 1.065 -0.049 1.053 -0.043 1.041 -0.036 1.025 -0.026 1.008 -0.016 0.987 -0.004 0.965 0.01 0.94 0.025 0.912 0.043 0.881 0.061 0.848 0.081 0.813 -1.491 0.172 -0.085 -0.857 -0.063 -0.886 -0.045 -0.915 -0.026 -0.939 -0.01 -0.964 0.004 -0.985 0.016 -1.004 0.027 -1.022 0.036 -1.036 0.044 -1.05 0.049 -1.059 0.053 -1.069 0.056 -1.074 0.056 -1.077 0.055 -1.079 0.053 -1.078 0.047 -1.074 0.043 -1.069 0.035 -1.06 0.025 -1.05 0.015 -1.037 0.002 -1.022 -0.012 -1.003 -0.028 -0.984 -0.046 -0.96 -0.063 -0.935 -0.084 -0.907 -0.106 -0.876 -0.129 -0.844 -0.154 -0.807 -0.179 -0.769 -0.205 -0.727 0 0zm1.83 -7.039l0.602 1.374 0 0 -0.106 0.053 -0.1 0.063 -0.097 0.073 -0.093 0.086 -0.09 0.097 -0.087 0.11 -0.082 0.122 -0.08 0.135 -0.074 0.146 -0.069 0.157 -0.064 0.167 -0.058 0.175 -0.053 0.185 -0.046 0.191 -0.04 0.197 -0.034 0.202 -0.028 0.206 -0.022 0.209 -0.016 0.21 -0.01 0.212 -0.004 0.211 0.001 0.211 0.006 0.207 0.011 0.205 0.016 0.2 0.02 0.195 0.025 0.189 0.029 0.181 0.032 0.172 0.035 0.163 0.039 0.151 0.04 0.139 -1.433 0.445 -0.056 -0.192 -0.05 -0.2 -0.045 -0.208 -0.041 -0.215 -0.035 -0.222 -0.029 -0.227 -0.025 -0.233 -0.019 -0.238 -0.013 -0.241 -0.008 -0.247 0 -0.248 0.005 -0.25 0.012 -0.252 0.019 -0.253 0.027 -0.253 0.034 -0.252 0.042 -0.251 0.051 -0.249 0.06 -0.246 0.069 -0.243 0.079 -0.24 0.089 -0.234 0.102 -0.23 0.114 -0.223 0.126 -0.215 0.142 -0.207 0.155 -0.198 0.172 -0.186 0.189 -0.172 0.205 -0.157 0.222 -0.139 0.237 -0.118 0 0zm6.804 5.279l-1.455 0.364 0 0 -0.081 -0.297 -0.092 -0.289 -0.101 -0.281 -0.111 -0.271 -0.12 -0.263 -0.129 -0.252 -0.136 -0.244 -0.143 -0.233 -0.151 -0.224 -0.156 -0.213 -0.161 -0.202 -0.166 -0.192 -0.171 -0.18 -0.173 -0.169 -0.176 -0.157 -0.178 -0.145 -0.18 -0.133 -0.18 -0.121 -0.179 -0.109 -0.178 -0.095 -0.176 -0.083 -0.174 -0.07 -0.17 -0.058 -0.165 -0.044 -0.16 -0.033 -0.154 -0.02 -0.148 -0.009 -0.141 0.003 -0.134 0.014 -0.128 0.023 -0.12 0.034 -0.115 0.044 -0.602 -1.374 0.245 -0.094 0.251 -0.071 0.256 -0.047 0.258 -0.026 0.259 -0.005 0.26 0.015 0.26 0.034 0.258 0.052 0.257 0.07 0.255 0.085 0.252 0.102 0.25 0.118 0.247 0.132 0.243 0.147 0.239 0.16 0.235 0.175 0.231 0.188 0.225 0.201 0.22 0.214 0.213 0.226 0.207 0.239 0.2 0.25 0.192 0.263 0.185 0.274 0.175 0.285 0.166 0.297 0.156 0.307 0.145 0.318 0.134 0.328 0.123 0.338 0.11 0.347 0.097 0.357 0 0zm-0.328 6.505l0.969 1.145 0 0 -0.296 0.241 -0.276 0.198 -0.263 0.161 -0.269 0.124 -0.304 0.078 -0.366 -0.009 -0.381 -0.164 -0.268 -0.284 -0.133 -0.291 -0.057 -0.266 -0.018 -0.253 0.004 -0.254 0.02 -0.262 0.032 -0.275 0.042 -0.288 0.049 -0.302 0.055 -0.316 0.059 -0.328 0.061 -0.338 0.062 -0.348 0.06 -0.355 0.056 -0.36 0.052 -0.363 0.045 -0.364 0.037 -0.363 0.027 -0.36 0.015 -0.353 0.003 -0.345 -0.012 -0.334 -0.028 -0.321 -0.043 -0.305 -0.061 -0.287 1.455 -0.364 0.083 0.39 0.057 0.396 0.034 0.4 0.015 0.403 -0.003 0.405 -0.017 0.404 -0.031 0.403 -0.04 0.399 -0.049 0.394 -0.055 0.388 -0.06 0.379 -0.062 0.368 -0.063 0.356 -0.061 0.341 -0.059 0.323 -0.053 0.304 -0.045 0.282 -0.038 0.255 -0.026 0.225 -0.015 0.19 -0.003 0.146 0.006 0.09 0.002 0.018 -0.035 -0.071 -0.128 -0.132 -0.195 -0.085 -0.131 -0.005 -0.015 0.002 0.077 -0.036 0.143 -0.088 0.197 -0.142 0.242 -0.197 0 0zm5.306 -10.35l0.377 1.452 0 0 -0.165 0.056 -0.148 0.075 -0.14 0.098 -0.137 0.123 -0.134 0.153 -0.131 0.183 -0.127 0.213 -0.122 0.243 -0.117 0.27 -0.111 0.294 -0.106 0.317 -0.102 0.336 -0.097 0.355 -0.095 0.369 -0.094 0.382 -0.093 0.393 -0.095 0.401 -0.097 0.409 -0.101 0.413 -0.106 0.416 -0.114 0.417 -0.123 0.417 -0.134 0.413 -0.146 0.41 -0.161 0.404 -0.178 0.396 -0.196 0.386 -0.218 0.374 -0.241 0.36 -0.266 0.344 -0.295 0.324 -0.324 0.299 -0.969 -1.145 0.228 -0.211 0.212 -0.233 0.198 -0.255 0.185 -0.276 0.172 -0.298 0.161 -0.316 0.149 -0.334 0.139 -0.349 0.13 -0.362 0.12 -0.375 0.114 -0.383 0.106 -0.391 0.102 -0.397 0.098 -0.4 0.096 -0.402 0.094 -0.401 0.095 -0.399 0.096 -0.396 0.101 -0.391 0.106 -0.383 0.113 -0.376 0.123 -0.365 0.134 -0.355 0.148 -0.342 0.166 -0.328 0.187 -0.313 0.211 -0.294 0.24 -0.273 0.272 -0.246 0.306 -0.212 0.338 -0.171 0.366 -0.123 0 0zm-1.704 41.659l-1.402 -0.532 0.494 -1.38 0.464 -1.446 0.434 -1.506 0.404 -1.557 0.374 -1.601 0.344 -1.637 0.317 -1.667 0.286 -1.688 0.259 -1.701 0.231 -1.709 0.203 -1.707 0.177 -1.699 0.149 -1.684 0.124 -1.66 0.098 -1.631 0.073 -1.592 0.048 -1.546 0.024 -1.494 0 -1.434 -0.023 -1.366 -0.046 -1.29 -0.068 -1.206 -0.089 -1.116 -0.11 -1.015 -0.129 -0.907 -0.147 -0.788 -0.162 -0.658 -0.171 -0.512 -0.162 -0.345 -0.109 -0.153 0.041 0.015 0.155 0.005 -0.377 -1.452 0.69 0.021 0.54 0.339 0.354 0.466 0.264 0.553 0.217 0.651 0.186 0.755 0.161 0.861 0.138 0.963 0.114 1.062 0.093 1.153 0.07 1.24 0.046 1.32 0.024 1.392 0 1.458 -0.025 1.517 -0.048 1.569 -0.074 1.614 -0.099 1.652 -0.126 1.681 -0.151 1.706 -0.179 1.721 -0.206 1.731 -0.234 1.732 -0.263 1.727 -0.291 1.715 -0.321 1.695 -0.352 1.668 -0.382 1.635 -0.413 1.594 -0.446 1.546 -0.478 1.492 -0.513 1.43zm0 0c-0.146,0.387 -0.58,0.582 -0.967,0.435 -0.387,-0.147 -0.582,-0.58 -0.435,-0.967l1.402 0.532z"/>
   </g>
  </g>
 </g>
</svg>
