<?xml version="1.0" encoding="UTF-8"?>
<!DOCTYPE svg PUBLIC "-//W3C//DTD SVG 1.1//EN" "http://www.w3.org/Graphics/SVG/1.1/DTD/svg11.dtd">
<!-- Creator: CorelDRAW 2019 (64-Bit) -->
<svg xmlns="http://www.w3.org/2000/svg" xml:space="preserve" width="200px" height="100px" version="1.1" style="shape-rendering:geometricPrecision; text-rendering:geometricPrecision; image-rendering:optimizeQuality; fill-rule:evenodd; clip-rule:evenodd"
viewBox="0 0 200 100"
 xmlns:xlink="http://www.w3.org/1999/xlink"
 xmlns:xodm="http://www.corel.com/coreldraw/odm/2003">
 <defs>
  <style type="text/css">
   <![CDATA[
    .fil0 {fill:black;fill-rule:nonzero}
   ]]>
  </style>
 </defs>
 <g id="Layer_x0020_1">
  <metadata id="CorelCorpID_0Corel-Layer"/>
  <g id="_1348152742560">
   <g>
    <path class="fil0" d="M50.818 13.202c-0.388,0.023 -0.721,-0.273 -0.743,-0.66 -0.023,-0.388 0.273,-0.721 0.66,-0.743l0.083 1.403zm3.247 3.861l-1.407 0 0 0 -0.006 -0.403 -0.02 -0.374 -0.033 -0.345 -0.043 -0.318 -0.053 -0.292 -0.061 -0.265 -0.068 -0.242 -0.075 -0.217 -0.079 -0.196 -0.084 -0.174 -0.085 -0.156 -0.088 -0.136 -0.089 -0.121 -0.088 -0.106 -0.087 -0.091 -0.087 -0.078 -0.085 -0.069 -0.083 -0.057 -0.082 -0.05 -0.077 -0.041 -0.074 -0.033 -0.071 -0.028 -0.067 -0.021 -0.062 -0.017 -0.055 -0.012 -0.048 -0.008 -0.041 -0.006 -0.032 -0.003 -0.021 -0.001 -0.012 0 -0.004 0 0.02 -0.001 -0.083 -1.403 0.035 -0.002 0.039 0 0.058 0.001 0.073 0.004 0.085 0.008 0.097 0.012 0.109 0.019 0.119 0.027 0.127 0.035 0.135 0.044 0.143 0.055 0.149 0.068 0.154 0.081 0.154 0.094 0.157 0.109 0.157 0.125 0.155 0.142 0.154 0.16 0.147 0.176 0.142 0.194 0.136 0.213 0.128 0.231 0.119 0.251 0.11 0.27 0.099 0.29 0.088 0.311 0.077 0.332 0.064 0.355 0.052 0.378 0.037 0.402 0.023 0.426 0.008 0.453 0 0zm2.705 40.392l-1.341 0.427 0 0 -0.118 -0.462 -0.111 -0.591 -0.111 -0.727 -0.111 -0.861 -0.112 -0.986 -0.114 -1.103 -0.115 -1.21 -0.115 -1.307 -0.115 -1.393 -0.115 -1.47 -0.115 -1.537 -0.113 -1.593 -0.112 -1.637 -0.11 -1.674 -0.107 -1.697 -0.105 -1.713 -0.102 -1.715 -0.099 -1.71 -0.094 -1.693 -0.09 -1.665 -0.085 -1.628 -0.08 -1.579 -0.074 -1.521 -0.069 -1.452 -0.061 -1.372 -0.055 -1.283 -0.048 -1.182 -0.04 -1.072 -0.032 -0.951 -0.023 -0.821 -0.014 -0.681 -0.006 -0.533 1.407 0 0.005 0.511 0.014 0.668 0.023 0.812 0.031 0.945 0.04 1.068 0.048 1.178 0.054 1.279 0.062 1.37 0.069 1.449 0.074 1.518 0.079 1.577 0.086 1.625 0.089 1.663 0.095 1.69 0.098 1.707 0.101 1.714 0.105 1.709 0.108 1.695 0.109 1.669 0.112 1.635 0.113 1.588 0.114 1.531 0.115 1.465 0.114 1.387 0.115 1.299 0.113 1.199 0.113 1.09 0.11 0.968 0.108 0.836 0.105 0.689 0.098 0.526 0.085 0.333 0 -0.001zm0.587 -1.259l1.39 0.208 0 0 -0.033 0.193 -0.043 0.187 -0.05 0.179 -0.058 0.172 -0.066 0.164 -0.073 0.155 -0.079 0.148 -0.086 0.14 -0.09 0.131 -0.097 0.123 -0.103 0.115 -0.107 0.106 -0.112 0.097 -0.116 0.088 -0.119 0.078 -0.123 0.07 -0.128 0.06 -0.129 0.049 -0.133 0.039 -0.137 0.028 -0.138 0.016 -0.142 0.002 -0.143 -0.012 -0.144 -0.027 -0.142 -0.046 -0.139 -0.062 -0.132 -0.082 -0.123 -0.1 -0.109 -0.117 -0.092 -0.13 -0.075 -0.139 -0.057 -0.147 1.341 -0.427 -0.004 -0.01 -0.009 -0.016 -0.015 -0.021 -0.019 -0.021 -0.023 -0.018 -0.022 -0.014 -0.02 -0.009 -0.015 -0.005 -0.01 -0.002 -0.003 0 0.003 -0.001 0.012 -0.001 0.017 -0.003 0.024 -0.007 0.028 -0.011 0.031 -0.015 0.037 -0.02 0.039 -0.026 0.041 -0.032 0.043 -0.037 0.044 -0.043 0.044 -0.049 0.044 -0.057 0.045 -0.064 0.043 -0.07 0.041 -0.077 0.04 -0.086 0.038 -0.092 0.033 -0.1 0.031 -0.11 0.027 -0.117 0.022 -0.125 0 0zm4.328 -26.551l0.995 0.994 0 0 -0.228 0.267 -0.232 0.353 -0.23 0.438 -0.223 0.515 -0.213 0.585 -0.201 0.649 -0.19 0.708 -0.178 0.761 -0.167 0.808 -0.154 0.851 -0.145 0.887 -0.134 0.921 -0.125 0.947 -0.115 0.971 -0.108 0.988 -0.101 1.002 -0.093 1.011 -0.087 1.015 -0.083 1.013 -0.077 1.009 -0.074 1 -0.071 0.984 -0.067 0.966 -0.067 0.943 -0.066 0.914 -0.066 0.883 -0.066 0.845 -0.068 0.805 -0.07 0.759 -0.074 0.71 -0.077 0.657 -0.083 0.6 -1.39 -0.208 0.078 -0.569 0.074 -0.634 0.072 -0.692 0.069 -0.746 0.067 -0.796 0.066 -0.838 0.065 -0.878 0.066 -0.912 0.067 -0.942 0.068 -0.966 0.071 -0.987 0.073 -1.003 0.078 -1.014 0.083 -1.021 0.088 -1.022 0.095 -1.02 0.101 -1.014 0.109 -1.002 0.118 -0.986 0.127 -0.966 0.137 -0.941 0.148 -0.912 0.161 -0.88 0.173 -0.842 0.188 -0.801 0.203 -0.756 0.219 -0.707 0.239 -0.656 0.261 -0.601 0.286 -0.544 0.319 -0.484 0.359 -0.419 0 0zm12.857 23.393l-0.385 1.353 0 0 -0.704 -0.295 -0.637 -0.444 -0.576 -0.566 -0.528 -0.671 -0.49 -0.765 -0.459 -0.849 -0.433 -0.925 -0.411 -0.993 -0.393 -1.051 -0.377 -1.1 -0.362 -1.14 -0.35 -1.169 -0.339 -1.189 -0.331 -1.198 -0.323 -1.197 -0.317 -1.186 -0.313 -1.164 -0.311 -1.133 -0.308 -1.089 -0.309 -1.036 -0.31 -0.972 -0.312 -0.895 -0.313 -0.806 -0.314 -0.706 -0.313 -0.59 -0.304 -0.46 -0.278 -0.314 -0.226 -0.168 -0.155 -0.055 -0.139 0.008 -0.22 0.1 -0.322 0.266 -0.995 -0.994 0.563 -0.459 0.626 -0.276 0.673 -0.039 0.624 0.204 0.524 0.378 0.444 0.497 0.396 0.598 0.367 0.69 0.348 0.78 0.335 0.862 0.325 0.935 0.32 1.002 0.315 1.058 0.313 1.104 0.313 1.141 0.314 1.169 0.318 1.185 0.321 1.192 0.328 1.188 0.335 1.174 0.344 1.149 0.354 1.114 0.365 1.067 0.377 1.01 0.39 0.941 0.403 0.861 0.415 0.768 0.425 0.665 0.431 0.548 0.428 0.423 0.418 0.293 0.405 0.171 0 0zm6.177 -20.219l-1.03 0.958 0 0 -0.594 -0.576 -0.486 -0.357 -0.353 -0.16 -0.205 -0.026 -0.125 0.039 -0.156 0.128 -0.198 0.284 -0.203 0.45 -0.186 0.598 -0.158 0.725 -0.129 0.832 -0.102 0.923 -0.077 0.999 -0.056 1.062 -0.037 1.11 -0.023 1.146 -0.012 1.168 -0.005 1.179 -0.002 1.176 -0.004 1.161 -0.008 1.135 -0.017 1.096 -0.029 1.045 -0.047 0.984 -0.068 0.911 -0.094 0.83 -0.127 0.742 -0.17 0.651 -0.238 0.566 -0.364 0.486 -0.581 0.324 -0.678 -0.017 0.385 -1.353 -0.043 0.004 -0.042 0.014 0.089 -0.131 0.135 -0.332 0.131 -0.503 0.11 -0.646 0.087 -0.765 0.064 -0.866 0.045 -0.951 0.029 -1.024 0.017 -1.08 0.008 -1.126 0.003 -1.158 0.003 -1.178 0.005 -1.184 0.012 -1.179 0.023 -1.162 0.039 -1.133 0.056 -1.092 0.081 -1.04 0.108 -0.976 0.14 -0.905 0.181 -0.823 0.229 -0.737 0.295 -0.646 0.392 -0.55 0.533 -0.417 0.672 -0.196 0.706 0.078 0.681 0.303 0.679 0.495 0.709 0.687 0 0zm5.247 27.212l-1.334 0.445 0 0 -0.113 -0.403 -0.099 -0.471 -0.09 -0.541 -0.085 -0.612 -0.081 -0.679 -0.078 -0.741 -0.078 -0.799 -0.077 -0.853 -0.079 -0.9 -0.08 -0.942 -0.084 -0.979 -0.087 -1.01 -0.092 -1.036 -0.098 -1.055 -0.105 -1.069 -0.113 -1.078 -0.122 -1.08 -0.131 -1.077 -0.142 -1.068 -0.153 -1.054 -0.166 -1.032 -0.179 -1.006 -0.194 -0.974 -0.208 -0.934 -0.223 -0.889 -0.24 -0.839 -0.255 -0.78 -0.272 -0.716 -0.287 -0.645 -0.301 -0.566 -0.312 -0.481 -0.319 -0.39 1.03 -0.958 0.427 0.522 0.387 0.595 0.352 0.663 0.323 0.725 0.298 0.783 0.274 0.837 0.253 0.885 0.234 0.93 0.216 0.969 0.199 1.003 0.183 1.031 0.17 1.054 0.156 1.073 0.144 1.084 0.133 1.091 0.123 1.092 0.114 1.088 0.106 1.077 0.098 1.062 0.093 1.04 0.088 1.013 0.083 0.979 0.081 0.941 0.078 0.896 0.076 0.846 0.077 0.789 0.077 0.726 0.078 0.657 0.08 0.58 0.083 0.495 0.083 0.399 0.08 0.287 0 0zm11.257 -2.805l1.093 0.885 0 0 -0.294 0.336 -0.326 0.325 -0.355 0.314 -0.382 0.303 -0.407 0.292 -0.428 0.282 -0.448 0.269 -0.466 0.258 -0.481 0.246 -0.494 0.232 -0.504 0.218 -0.513 0.204 -0.519 0.188 -0.522 0.172 -0.524 0.154 -0.523 0.136 -0.52 0.117 -0.515 0.097 -0.507 0.075 -0.498 0.053 -0.487 0.03 -0.475 0.004 -0.459 -0.023 -0.443 -0.051 -0.427 -0.084 -0.406 -0.119 -0.386 -0.158 -0.359 -0.203 -0.328 -0.252 -0.285 -0.303 -0.233 -0.353 -0.17 -0.394 1.334 -0.445 0.074 0.172 0.097 0.147 0.125 0.132 0.159 0.122 0.197 0.11 0.237 0.097 0.275 0.08 0.311 0.061 0.343 0.04 0.372 0.018 0.397 -0.004 0.419 -0.025 0.438 -0.047 0.451 -0.067 0.464 -0.087 0.473 -0.107 0.479 -0.124 0.482 -0.142 0.481 -0.158 0.479 -0.174 0.473 -0.188 0.465 -0.201 0.454 -0.214 0.439 -0.224 0.423 -0.234 0.403 -0.243 0.381 -0.249 0.354 -0.255 0.327 -0.26 0.296 -0.261 0.263 -0.261 0.226 -0.259 0 0zm-6.946 -8.767l0.386 -1.352 0 0 0.351 0.113 0.362 0.14 0.373 0.165 0.382 0.19 0.39 0.212 0.396 0.233 0.401 0.254 0.404 0.272 0.405 0.29 0.404 0.307 0.401 0.322 0.395 0.335 0.388 0.349 0.378 0.361 0.366 0.371 0.352 0.381 0.336 0.39 0.317 0.397 0.296 0.404 0.273 0.41 0.247 0.416 0.219 0.421 0.188 0.426 0.153 0.43 0.115 0.435 0.073 0.439 0.026 0.441 -0.027 0.442 -0.085 0.436 -0.146 0.427 -0.209 0.41 -0.271 0.385 -1.093 -0.885 0.16 -0.228 0.118 -0.231 0.082 -0.24 0.048 -0.251 0.016 -0.266 -0.016 -0.282 -0.05 -0.3 -0.084 -0.314 -0.117 -0.327 -0.149 -0.338 -0.18 -0.345 -0.208 -0.351 -0.236 -0.354 -0.26 -0.355 -0.283 -0.354 -0.302 -0.351 -0.32 -0.347 -0.335 -0.34 -0.348 -0.331 -0.357 -0.322 -0.366 -0.31 -0.37 -0.298 -0.373 -0.283 -0.373 -0.267 -0.371 -0.25 -0.365 -0.23 -0.357 -0.21 -0.345 -0.188 -0.332 -0.165 -0.314 -0.139 -0.293 -0.114 -0.266 -0.086 0 0zm20.819 7.9l0.113 1.402 0 0 -2.362 0.155 -2.212 0.073 -2.066 -0.003 -1.924 -0.073 -1.786 -0.14 -1.654 -0.202 -1.524 -0.258 -1.401 -0.309 -1.28 -0.356 -1.165 -0.399 -1.054 -0.436 -0.946 -0.469 -0.842 -0.497 -0.743 -0.522 -0.647 -0.541 -0.554 -0.556 -0.464 -0.567 -0.377 -0.571 -0.293 -0.573 -0.211 -0.568 -0.133 -0.558 -0.054 -0.543 0.021 -0.521 0.096 -0.493 0.169 -0.458 0.243 -0.412 0.314 -0.357 0.38 -0.286 0.436 -0.201 0.477 -0.105 0.501 -0.004 0.509 0.096 -0.386 1.352 -0.254 -0.048 -0.216 0.002 -0.184 0.041 -0.161 0.074 -0.145 0.11 -0.13 0.148 -0.111 0.19 -0.087 0.234 -0.054 0.277 -0.013 0.316 0.036 0.352 0.09 0.383 0.153 0.409 0.22 0.431 0.295 0.447 0.375 0.458 0.461 0.463 0.552 0.462 0.649 0.455 0.751 0.444 0.857 0.425 0.969 0.401 1.084 0.371 1.205 0.335 1.329 0.294 1.458 0.246 1.592 0.194 1.728 0.136 1.87 0.072 2.015 0.002 2.165 -0.072 2.32 -0.152 0 0zm30.554 -4.912l0.75 1.19 -0.456 0.264 -0.503 0.25 -0.55 0.238 -0.596 0.228 -0.641 0.22 -0.685 0.212 -0.727 0.205 -0.768 0.197 -0.808 0.191 -0.846 0.185 -0.882 0.179 -0.916 0.174 -0.949 0.168 -0.98 0.163 -1.01 0.158 -1.037 0.153 -1.063 0.148 -1.087 0.144 -1.109 0.14 -1.128 0.135 -1.147 0.132 -1.164 0.128 -1.179 0.125 -1.191 0.121 -1.202 0.118 -1.212 0.115 -1.218 0.112 -1.224 0.109 -1.228 0.107 -1.229 0.104 -1.229 0.101 -1.227 0.1 -0.113 -1.402 1.225 -0.099 1.227 -0.102 1.226 -0.104 1.224 -0.106 1.221 -0.109 1.215 -0.112 1.207 -0.114 1.197 -0.117 1.186 -0.121 1.173 -0.124 1.157 -0.127 1.141 -0.131 1.121 -0.135 1.1 -0.139 1.078 -0.143 1.052 -0.147 1.026 -0.151 0.997 -0.156 0.966 -0.16 0.934 -0.166 0.899 -0.17 0.862 -0.175 0.824 -0.18 0.783 -0.185 0.74 -0.191 0.694 -0.195 0.647 -0.2 0.598 -0.205 0.544 -0.208 0.489 -0.213 0.431 -0.213 0.37 -0.214zm0 0c0.329,-0.207 0.763,-0.109 0.97,0.22 0.207,0.328 0.108,0.763 -0.22,0.97l-0.75 -1.19z"/>
   </g>
   <g>
    <path class="fil0" d="M54.541 72.176c0.388,-0.02 0.719,0.278 0.739,0.666 0.02,0.388 -0.278,0.719 -0.665,0.739l-0.074 -1.405zm-21.974 5.029l-0.387 -1.353 0 0 1.01 -0.28 1.013 -0.267 1.012 -0.253 1.011 -0.239 1.007 -0.226 1 -0.213 0.991 -0.201 0.98 -0.189 0.968 -0.177 0.951 -0.166 0.934 -0.155 0.913 -0.144 0.892 -0.134 0.867 -0.124 0.84 -0.114 0.811 -0.105 0.779 -0.096 0.746 -0.087 0.71 -0.079 0.672 -0.071 0.631 -0.064 0.589 -0.056 0.543 -0.049 0.497 -0.043 0.447 -0.036 0.394 -0.03 0.341 -0.025 0.284 -0.02 0.226 -0.015 0.164 -0.01 0.101 -0.006 0.037 -0.002 0.074 1.405 -0.03 0.001 -0.097 0.006 -0.16 0.01 -0.22 0.014 -0.279 0.02 -0.336 0.024 -0.388 0.03 -0.441 0.036 -0.49 0.042 -0.537 0.049 -0.582 0.055 -0.623 0.063 -0.665 0.07 -0.702 0.078 -0.738 0.087 -0.771 0.095 -0.802 0.103 -0.831 0.113 -0.857 0.123 -0.881 0.132 -0.904 0.142 -0.922 0.154 -0.94 0.163 -0.955 0.175 -0.967 0.187 -0.978 0.198 -0.985 0.21 -0.992 0.223 -0.994 0.235 -0.996 0.248 -0.994 0.262 -0.991 0.276 0 0zm3.669 8.964l-0.12 1.402 0 0 -1.622 -0.157 -1.503 -0.18 -1.385 -0.204 -1.273 -0.226 -1.161 -0.247 -1.054 -0.267 -0.95 -0.288 -0.849 -0.308 -0.752 -0.328 -0.658 -0.349 -0.569 -0.375 -0.48 -0.402 -0.391 -0.437 -0.297 -0.474 -0.19 -0.509 -0.075 -0.529 0.042 -0.529 0.148 -0.512 0.239 -0.485 0.317 -0.462 0.389 -0.442 0.454 -0.425 0.517 -0.412 0.579 -0.4 0.638 -0.389 0.695 -0.378 0.75 -0.367 0.803 -0.354 0.855 -0.343 0.903 -0.328 0.95 -0.314 0.994 -0.299 0.387 1.353 -0.958 0.287 -0.912 0.302 -0.863 0.313 -0.811 0.325 -0.756 0.334 -0.698 0.341 -0.638 0.347 -0.574 0.35 -0.507 0.35 -0.437 0.348 -0.363 0.34 -0.289 0.328 -0.214 0.31 -0.14 0.284 -0.075 0.254 -0.019 0.231 0.031 0.221 0.087 0.231 0.158 0.251 0.245 0.272 0.342 0.287 0.446 0.293 0.554 0.294 0.661 0.289 0.773 0.28 0.883 0.267 0.997 0.253 1.111 0.237 1.229 0.218 1.347 0.198 1.468 0.176 1.591 0.153 0 0zm85.089 -8.954l0.337 1.365 0 0 -3.72 0.901 -3.646 0.848 -3.576 0.797 -3.503 0.746 -3.433 0.696 -3.362 0.649 -3.292 0.603 -3.223 0.557 -3.153 0.513 -3.085 0.47 -3.018 0.43 -2.949 0.389 -2.883 0.35 -2.816 0.313 -2.75 0.277 -2.685 0.242 -2.62 0.209 -2.555 0.177 -2.491 0.145 -2.428 0.116 -2.364 0.088 -2.303 0.061 -2.24 0.035 -2.178 0.011 -2.118 -0.012 -2.057 -0.034 -1.997 -0.055 -1.937 -0.073 -1.878 -0.091 -1.82 -0.107 -1.762 -0.123 -1.704 -0.137 0.12 -1.402 1.689 0.136 1.747 0.122 1.805 0.107 1.864 0.09 1.922 0.073 1.982 0.054 2.042 0.033 2.102 0.012 2.164 -0.01 2.225 -0.035 2.287 -0.061 2.349 -0.087 2.413 -0.115 2.476 -0.145 2.541 -0.176 2.605 -0.207 2.67 -0.241 2.736 -0.275 2.801 -0.312 2.869 -0.348 2.935 -0.388 3.003 -0.427 3.072 -0.468 3.139 -0.511 3.21 -0.555 3.278 -0.6 3.349 -0.646 3.419 -0.694 3.491 -0.743 3.562 -0.794 3.635 -0.845 3.707 -0.898 0 0zm62.739 -12.185l-0.131 1.401 0 0 -0.614 -0.045 -0.675 -0.025 -0.739 -0.003 -0.805 0.018 -0.873 0.041 -0.943 0.064 -1.016 0.089 -1.092 0.113 -1.17 0.14 -1.25 0.165 -1.333 0.192 -1.418 0.221 -1.507 0.248 -1.596 0.277 -1.691 0.306 -1.786 0.337 -1.885 0.367 -1.985 0.4 -2.089 0.431 -2.196 0.463 -2.305 0.498 -2.416 0.531 -2.531 0.565 -2.647 0.601 -2.767 0.638 -2.89 0.673 -3.014 0.71 -3.142 0.749 -3.272 0.787 -3.405 0.826 -3.54 0.865 -3.679 0.907 -0.337 -1.365 3.681 -0.907 3.543 -0.867 3.407 -0.826 3.275 -0.788 3.145 -0.749 3.017 -0.711 2.893 -0.675 2.771 -0.637 2.652 -0.603 2.535 -0.566 2.422 -0.533 2.31 -0.498 2.202 -0.465 2.096 -0.432 1.993 -0.401 1.893 -0.369 1.795 -0.338 1.701 -0.309 1.608 -0.279 1.519 -0.25 1.432 -0.222 1.348 -0.195 1.268 -0.168 1.188 -0.141 1.114 -0.116 1.041 -0.091 0.972 -0.066 0.905 -0.042 0.841 -0.02 0.78 0.004 0.723 0.027 0.669 0.048 0 0zm-9.731 10.829l-0.135 -1.399 1.553 -0.171 1.446 -0.2 1.342 -0.226 1.239 -0.251 1.139 -0.272 1.041 -0.293 0.945 -0.309 0.851 -0.323 0.759 -0.335 0.67 -0.342 0.582 -0.347 0.497 -0.349 0.414 -0.346 0.336 -0.338 0.26 -0.327 0.191 -0.312 0.128 -0.293 0.072 -0.274 0.025 -0.256 -0.018 -0.245 -0.06 -0.238 -0.101 -0.235 -0.148 -0.235 -0.194 -0.232 -0.244 -0.225 -0.293 -0.214 -0.342 -0.2 -0.388 -0.18 -0.431 -0.158 -0.474 -0.132 -0.512 -0.102 -0.55 -0.069 0.131 -1.401 0.644 0.082 0.611 0.122 0.578 0.16 0.541 0.198 0.501 0.233 0.46 0.27 0.416 0.304 0.368 0.34 0.314 0.375 0.256 0.408 0.19 0.44 0.116 0.467 0.035 0.484 -0.047 0.49 -0.129 0.489 -0.21 0.48 -0.286 0.468 -0.361 0.454 -0.436 0.44 -0.51 0.426 -0.588 0.412 -0.665 0.397 -0.746 0.382 -0.83 0.366 -0.916 0.348 -1.004 0.328 -1.096 0.308 -1.189 0.285 -1.286 0.26 -1.385 0.233 -1.487 0.206 -1.59 0.174zm0 0c-0.387,0.037 -0.73,-0.246 -0.768,-0.632 -0.037,-0.387 0.247,-0.73 0.633,-0.767l0.135 1.399z"/>
   </g>
  </g>
 </g>
</svg>
