<?xml version="1.0" encoding="UTF-8"?>
<!DOCTYPE svg PUBLIC "-//W3C//DTD SVG 1.1//EN" "http://www.w3.org/Graphics/SVG/1.1/DTD/svg11.dtd">
<!-- Creator: CorelDRAW 2019 (64-Bit) -->
<svg xmlns="http://www.w3.org/2000/svg" xml:space="preserve" width="200px" height="100px" version="1.1" style="shape-rendering:geometricPrecision; text-rendering:geometricPrecision; image-rendering:optimizeQuality; fill-rule:evenodd; clip-rule:evenodd"
viewBox="0 0 200 100"
 xmlns:xlink="http://www.w3.org/1999/xlink"
 xmlns:xodm="http://www.corel.com/coreldraw/odm/2003">
 <defs>
  <style type="text/css">
   <![CDATA[
    .fil0 {fill:black;fill-rule:nonzero}
   ]]>
  </style>
 </defs>
 <g id="Layer_x0020_1">
  <metadata id="CorelCorpID_0Corel-Layer"/>
  <g id="_2580961244608">
   <g>
    <path class="fil0" d="M78.358 48.242c-0.382,-0.16 -0.562,-0.599 -0.402,-0.982 0.16,-0.382 0.599,-0.562 0.981,-0.402l-0.579 1.384zm42.59 -29.614l1.161 0.95 0 0 -0.539 0.61 -0.688 0.699 -0.831 0.788 -0.966 0.872 -1.092 0.95 -1.208 1.02 -1.314 1.081 -1.409 1.135 -1.495 1.181 -1.569 1.217 -1.634 1.246 -1.688 1.267 -1.73 1.279 -1.763 1.282 -1.786 1.277 -1.797 1.264 -1.798 1.242 -1.788 1.212 -1.768 1.174 -1.738 1.126 -1.697 1.071 -1.645 1.008 -1.584 0.935 -1.513 0.856 -1.431 0.767 -1.341 0.67 -1.243 0.566 -1.136 0.453 -1.028 0.332 -0.923 0.201 -0.835 0.048 -0.774 -0.165 0.579 -1.384 0.278 0.051 0.534 -0.034 0.743 -0.163 0.913 -0.296 1.058 -0.422 1.186 -0.54 1.298 -0.649 1.398 -0.749 1.486 -0.84 1.561 -0.922 1.627 -0.997 1.681 -1.06 1.723 -1.117 1.756 -1.165 1.776 -1.205 1.788 -1.234 1.786 -1.257 1.776 -1.271 1.754 -1.275 1.721 -1.272 1.679 -1.26 1.624 -1.239 1.559 -1.21 1.485 -1.172 1.397 -1.125 1.301 -1.071 1.193 -1.006 1.073 -0.934 0.942 -0.851 0.8 -0.758 0.644 -0.654 0.471 -0.533 0 0zm-52.228 30.158l-1.427 -0.46 0 0 0.948 -2.429 1.262 -2.427 1.546 -2.417 1.802 -2.398 2.031 -2.372 2.236 -2.337 2.413 -2.293 2.564 -2.24 2.69 -2.176 2.79 -2.103 2.864 -2.021 2.912 -1.926 2.935 -1.823 2.931 -1.71 2.901 -1.585 2.847 -1.45 2.766 -1.306 2.66 -1.151 2.529 -0.986 2.374 -0.809 2.196 -0.623 1.997 -0.426 1.781 -0.215 1.555 0.016 1.329 0.284 1.077 0.636 0.681 1.038 0.15 1.294 -0.327 1.457 -0.758 1.658 -1.2 1.907 -1.666 2.185 -1.161 -0.95 1.599 -2.097 1.114 -1.769 0.658 -1.434 0.245 -1.072 -0.073 -0.691 -0.283 -0.427 -0.574 -0.327 -0.958 -0.199 -1.316 -0.011 -1.621 0.196 -1.884 0.402 -2.112 0.599 -2.307 0.787 -2.474 0.964 -2.613 1.13 -2.723 1.286 -2.807 1.431 -2.865 1.565 -2.894 1.688 -2.899 1.801 -2.876 1.902 -2.826 1.994 -2.751 2.073 -2.648 2.143 -2.52 2.2 -2.364 2.247 -2.182 2.281 -1.974 2.305 -1.74 2.315 -1.479 2.312 -1.194 2.297 -0.887 2.267 0 0zm11.316 14.521l0.593 1.378 0 0 -0.987 0.393 -0.965 0.319 -0.94 0.247 -0.916 0.175 -0.89 0.105 -0.863 0.036 -0.835 -0.033 -0.805 -0.101 -0.774 -0.167 -0.739 -0.233 -0.703 -0.297 -0.663 -0.359 -0.624 -0.418 -0.58 -0.475 -0.536 -0.529 -0.489 -0.581 -0.442 -0.63 -0.394 -0.675 -0.346 -0.719 -0.296 -0.76 -0.247 -0.799 -0.197 -0.836 -0.147 -0.871 -0.095 -0.905 -0.045 -0.936 0.008 -0.966 0.06 -0.996 0.113 -1.022 0.168 -1.047 0.222 -1.071 0.277 -1.094 0.334 -1.114 1.427 0.46 -0.316 1.055 -0.261 1.03 -0.208 1.005 -0.156 0.978 -0.106 0.949 -0.055 0.918 -0.007 0.886 0.04 0.851 0.087 0.816 0.131 0.778 0.174 0.739 0.216 0.699 0.255 0.656 0.295 0.613 0.332 0.569 0.368 0.524 0.403 0.479 0.437 0.432 0.471 0.385 0.504 0.338 0.537 0.291 0.571 0.241 0.606 0.191 0.641 0.138 0.676 0.085 0.71 0.028 0.746 -0.031 0.78 -0.092 0.813 -0.156 0.846 -0.222 0.878 -0.29 0.908 -0.362 0 0zm21.248 -19.794l1.303 0.744 0 0 -0.162 0.27 -0.207 0.322 -0.252 0.376 -0.299 0.428 -0.342 0.478 -0.385 0.523 -0.427 0.567 -0.468 0.605 -0.506 0.642 -0.543 0.673 -0.58 0.702 -0.613 0.727 -0.646 0.748 -0.678 0.766 -0.707 0.779 -0.735 0.79 -0.763 0.796 -0.787 0.799 -0.811 0.798 -0.833 0.794 -0.854 0.786 -0.873 0.774 -0.892 0.759 -0.907 0.74 -0.923 0.717 -0.936 0.69 -0.948 0.66 -0.959 0.627 -0.97 0.589 -0.977 0.548 -0.985 0.502 -0.99 0.453 -0.593 -1.378 0.93 -0.425 0.93 -0.475 0.929 -0.52 0.926 -0.563 0.92 -0.601 0.913 -0.636 0.905 -0.667 0.894 -0.695 0.882 -0.718 0.867 -0.739 0.851 -0.755 0.835 -0.768 0.814 -0.776 0.795 -0.782 0.771 -0.783 0.748 -0.781 0.722 -0.775 0.694 -0.766 0.666 -0.752 0.634 -0.734 0.603 -0.714 0.568 -0.689 0.534 -0.661 0.496 -0.629 0.457 -0.592 0.417 -0.553 0.375 -0.51 0.331 -0.461 0.285 -0.41 0.237 -0.353 0.187 -0.291 0.132 -0.22 0 0zm1.682 -4.461l0.144 -1.493 0 0 0.259 0.039 0.251 0.07 0.238 0.104 0.22 0.141 0.194 0.179 0.157 0.206 0.116 0.223 0.077 0.23 0.045 0.229 0.018 0.228 -0.004 0.225 -0.022 0.223 -0.037 0.224 -0.05 0.224 -0.062 0.225 -0.072 0.226 -0.08 0.229 -0.09 0.231 -0.097 0.233 -0.103 0.234 -0.109 0.236 -0.115 0.237 -0.119 0.238 -0.122 0.237 -0.126 0.237 -0.127 0.236 -0.129 0.234 -0.129 0.231 -0.129 0.229 -0.127 0.224 -0.126 0.221 -0.123 0.215 -1.303 -0.744 0.123 -0.215 0.125 -0.219 0.126 -0.221 0.126 -0.223 0.125 -0.225 0.124 -0.226 0.122 -0.224 0.118 -0.225 0.115 -0.222 0.11 -0.22 0.105 -0.217 0.099 -0.212 0.091 -0.207 0.084 -0.201 0.074 -0.193 0.066 -0.185 0.055 -0.174 0.044 -0.163 0.034 -0.149 0.022 -0.133 0.011 -0.116 0.002 -0.094 -0.005 -0.071 -0.009 -0.048 -0.008 -0.025 -0.003 -0.006 0.002 0.002 0.003 0.002 -0.01 -0.006 -0.032 -0.014 -0.061 -0.016 -0.096 -0.015 0 0zm-5.667 4.497l-1.496 -0.107 0 0 0.037 -0.269 0.067 -0.261 0.092 -0.254 0.114 -0.249 0.133 -0.247 0.15 -0.245 0.167 -0.244 0.181 -0.243 0.196 -0.242 0.209 -0.241 0.221 -0.239 0.232 -0.236 0.241 -0.234 0.251 -0.23 0.258 -0.225 0.266 -0.22 0.271 -0.213 0.275 -0.207 0.28 -0.198 0.282 -0.19 0.285 -0.18 0.286 -0.169 0.285 -0.157 0.286 -0.145 0.284 -0.131 0.283 -0.116 0.281 -0.101 0.28 -0.083 0.279 -0.064 0.278 -0.042 0.278 -0.018 0.279 0.01 -0.144 1.493 -0.112 -0.004 -0.136 0.01 -0.159 0.024 -0.18 0.042 -0.196 0.058 -0.21 0.075 -0.221 0.091 -0.231 0.106 -0.237 0.121 -0.243 0.134 -0.247 0.146 -0.248 0.157 -0.25 0.167 -0.248 0.176 -0.246 0.184 -0.242 0.191 -0.236 0.196 -0.231 0.201 -0.221 0.203 -0.213 0.206 -0.203 0.207 -0.189 0.205 -0.177 0.204 -0.162 0.2 -0.145 0.194 -0.129 0.188 -0.109 0.178 -0.089 0.166 -0.069 0.15 -0.048 0.132 -0.029 0.108 -0.011 0.081 0 0zm2.027 -2.128l1.196 0.906 0 0 -0.16 0.208 -0.162 0.203 -0.163 0.197 -0.163 0.19 -0.164 0.185 -0.164 0.178 -0.163 0.17 -0.163 0.163 -0.163 0.156 -0.161 0.148 -0.16 0.139 -0.16 0.13 -0.158 0.122 -0.158 0.112 -0.157 0.103 -0.158 0.093 -0.16 0.083 -0.164 0.072 -0.169 0.059 -0.18 0.044 -0.192 0.024 -0.208 -0.004 -0.219 -0.044 -0.218 -0.091 -0.199 -0.139 -0.162 -0.175 -0.118 -0.195 -0.08 -0.198 -0.048 -0.199 -0.026 -0.202 -0.007 -0.205 0.008 -0.212 1.496 0.107 -0.004 0.111 0.002 0.082 0.006 0.05 0.005 0.019 -0.006 -0.014 -0.026 -0.042 -0.051 -0.054 -0.069 -0.049 -0.072 -0.03 -0.058 -0.012 -0.031 -0.001 0 -0.001 0.026 -0.006 0.048 -0.018 0.067 -0.029 0.081 -0.042 0.093 -0.055 0.103 -0.067 0.112 -0.08 0.119 -0.091 0.124 -0.103 0.13 -0.112 0.134 -0.123 0.138 -0.131 0.14 -0.141 0.143 -0.149 0.145 -0.157 0.145 -0.163 0.146 -0.172 0.147 -0.177 0.145 -0.182 0.145 -0.189 0 0zm3.852 -0.42l-1.317 -0.719 0 0 0.124 -0.235 0.1 -0.204 0.077 -0.171 0.053 -0.137 0.031 -0.096 0.011 -0.049 -0.001 0.012 0.012 0.096 0.081 0.186 0.199 0.19 0.219 0.08 0.133 0.003 0.046 -0.009 -0.012 0.005 -0.05 0.025 -0.075 0.044 -0.095 0.062 -0.11 0.079 -0.121 0.094 -0.132 0.108 -0.139 0.119 -0.145 0.132 -0.15 0.141 -0.155 0.152 -0.157 0.158 -0.158 0.166 -0.159 0.173 -0.159 0.178 -0.156 0.181 -0.155 0.186 -0.15 0.187 -0.146 0.189 -1.196 -0.906 0.164 -0.211 0.167 -0.209 0.171 -0.205 0.173 -0.201 0.175 -0.196 0.176 -0.191 0.176 -0.185 0.176 -0.178 0.174 -0.17 0.172 -0.162 0.169 -0.153 0.167 -0.143 0.162 -0.133 0.16 -0.124 0.156 -0.112 0.155 -0.101 0.155 -0.09 0.161 -0.079 0.175 -0.065 0.21 -0.045 0.271 0.003 0.329 0.117 0.279 0.267 0.13 0.305 0.027 0.256 -0.019 0.218 -0.045 0.202 -0.064 0.203 -0.083 0.212 -0.102 0.229 -0.122 0.249 -0.143 0.272 0 0zm-0.953 5.015l0.719 1.317 0 0 -0.262 0.126 -0.266 0.094 -0.277 0.055 -0.285 0.008 -0.288 -0.049 -0.274 -0.112 -0.237 -0.164 -0.19 -0.198 -0.146 -0.219 -0.108 -0.228 -0.08 -0.234 -0.056 -0.241 -0.037 -0.248 -0.021 -0.255 -0.007 -0.263 0.006 -0.272 0.018 -0.278 0.029 -0.286 0.04 -0.293 0.051 -0.299 0.06 -0.304 0.07 -0.308 0.08 -0.312 0.088 -0.313 0.098 -0.315 0.106 -0.315 0.114 -0.314 0.123 -0.311 0.131 -0.309 0.138 -0.303 0.145 -0.299 0.154 -0.292 1.317 0.719 -0.133 0.251 -0.127 0.261 -0.121 0.266 -0.115 0.272 -0.109 0.277 -0.102 0.279 -0.094 0.279 -0.086 0.28 -0.079 0.277 -0.07 0.274 -0.061 0.269 -0.052 0.263 -0.043 0.254 -0.034 0.244 -0.023 0.233 -0.015 0.219 -0.004 0.203 0.005 0.185 0.013 0.165 0.021 0.14 0.026 0.114 0.028 0.083 0.024 0.052 0.012 0.018 -0.006 -0.005 -0.025 -0.017 -0.035 -0.014 -0.021 -0.004 0.01 0 0.049 -0.011 0.089 -0.031 0.125 -0.061 0 0zm7.386 -10.591l1.387 0.571 0 0 -0.182 0.429 -0.191 0.433 -0.202 0.436 -0.211 0.437 -0.22 0.44 -0.228 0.44 -0.235 0.439 -0.242 0.438 -0.248 0.436 -0.254 0.433 -0.259 0.429 -0.263 0.424 -0.267 0.418 -0.27 0.412 -0.272 0.404 -0.274 0.396 -0.276 0.387 -0.276 0.376 -0.276 0.365 -0.276 0.353 -0.274 0.341 -0.273 0.327 -0.272 0.312 -0.268 0.297 -0.266 0.281 -0.263 0.264 -0.259 0.246 -0.256 0.229 -0.253 0.209 -0.25 0.189 -0.25 0.17 -0.248 0.147 -0.719 -1.317 0.162 -0.096 0.179 -0.121 0.194 -0.148 0.208 -0.171 0.217 -0.193 0.227 -0.216 0.234 -0.236 0.241 -0.255 0.248 -0.273 0.251 -0.29 0.256 -0.306 0.259 -0.322 0.261 -0.334 0.263 -0.348 0.264 -0.359 0.263 -0.37 0.263 -0.379 0.262 -0.389 0.259 -0.396 0.257 -0.403 0.253 -0.408 0.249 -0.413 0.245 -0.417 0.238 -0.419 0.233 -0.421 0.226 -0.422 0.218 -0.421 0.21 -0.42 0.202 -0.418 0.192 -0.413 0.181 -0.41 0.171 -0.404 0 0zm0.062 -2.095l-1.333 -0.688 0 0 0.202 -0.377 0.197 -0.344 0.194 -0.31 0.189 -0.28 0.188 -0.248 0.187 -0.221 0.189 -0.193 0.197 -0.168 0.21 -0.143 0.237 -0.113 0.273 -0.07 0.307 -0.001 0.308 0.091 0.26 0.171 0.189 0.211 0.129 0.225 0.086 0.228 0.056 0.233 0.035 0.242 0.016 0.251 0 0.266 -0.015 0.281 -0.03 0.295 -0.044 0.31 -0.059 0.327 -0.074 0.342 -0.089 0.357 -0.104 0.371 -0.119 0.386 -0.137 0.399 -0.152 0.412 -0.168 0.424 -1.387 -0.571 0.155 -0.39 0.139 -0.377 0.123 -0.362 0.108 -0.347 0.093 -0.33 0.078 -0.312 0.063 -0.294 0.049 -0.274 0.036 -0.253 0.024 -0.23 0.011 -0.205 -0.001 -0.178 -0.009 -0.149 -0.016 -0.115 -0.018 -0.075 -0.012 -0.034 0.008 0.012 0.046 0.051 0.096 0.061 0.123 0.037 0.102 0 0.047 -0.011 -0.006 0.003 -0.052 0.036 -0.083 0.071 -0.106 0.11 -0.126 0.147 -0.14 0.186 -0.152 0.225 -0.164 0.262 -0.173 0.301 -0.181 0.339 0 0zm-2.879 9.375l-0.375 1.452 0 0 -0.316 -0.115 -0.285 -0.178 -0.239 -0.23 -0.184 -0.264 -0.132 -0.283 -0.089 -0.294 -0.055 -0.302 -0.027 -0.311 -0.003 -0.32 0.017 -0.331 0.036 -0.342 0.053 -0.354 0.069 -0.364 0.083 -0.375 0.097 -0.386 0.11 -0.394 0.121 -0.403 0.132 -0.41 0.142 -0.417 0.152 -0.421 0.16 -0.425 0.167 -0.429 0.175 -0.43 0.18 -0.43 0.185 -0.43 0.19 -0.427 0.193 -0.424 0.196 -0.42 0.198 -0.413 0.198 -0.407 0.199 -0.398 0.198 -0.388 1.333 0.688 -0.192 0.377 -0.193 0.386 -0.193 0.395 -0.192 0.401 -0.19 0.407 -0.187 0.411 -0.184 0.414 -0.179 0.415 -0.174 0.415 -0.167 0.413 -0.161 0.411 -0.152 0.406 -0.144 0.4 -0.134 0.393 -0.124 0.384 -0.113 0.373 -0.1 0.361 -0.087 0.347 -0.074 0.332 -0.059 0.313 -0.044 0.293 -0.029 0.272 -0.013 0.245 0.002 0.217 0.016 0.185 0.027 0.149 0.033 0.11 0.032 0.072 0.026 0.037 0.017 0.017 0.017 0.011 0.036 0.013 0 0zm9.298 -13.363l1.399 0.541 0 0 -0.17 0.417 -0.195 0.446 -0.222 0.474 -0.244 0.499 -0.267 0.521 -0.287 0.542 -0.306 0.559 -0.323 0.572 -0.338 0.585 -0.352 0.593 -0.364 0.598 -0.374 0.6 -0.382 0.6 -0.39 0.596 -0.395 0.589 -0.397 0.579 -0.4 0.567 -0.4 0.551 -0.399 0.532 -0.395 0.51 -0.391 0.485 -0.386 0.458 -0.378 0.428 -0.371 0.395 -0.361 0.359 -0.354 0.322 -0.346 0.283 -0.343 0.241 -0.347 0.196 -0.364 0.144 -0.397 0.073 -0.434 -0.04 0.375 -1.452 -0.03 -0.005 0.056 -0.013 0.137 -0.056 0.197 -0.112 0.241 -0.17 0.274 -0.223 0.299 -0.273 0.321 -0.319 0.337 -0.36 0.352 -0.397 0.363 -0.433 0.373 -0.462 0.379 -0.489 0.385 -0.513 0.387 -0.533 0.388 -0.551 0.388 -0.564 0.385 -0.575 0.38 -0.582 0.374 -0.586 0.366 -0.586 0.355 -0.585 0.344 -0.579 0.33 -0.569 0.314 -0.558 0.296 -0.542 0.278 -0.523 0.256 -0.5 0.233 -0.475 0.207 -0.445 0.181 -0.412 0.152 -0.373 0 0zm2.739 -11.83l1.499 -0.062 0 0 0.003 0.199 -0.006 0.216 -0.015 0.235 -0.022 0.256 -0.029 0.276 -0.036 0.297 -0.043 0.317 -0.049 0.335 -0.056 0.352 -0.062 0.368 -0.067 0.384 -0.074 0.397 -0.079 0.41 -0.084 0.421 -0.09 0.431 -0.094 0.439 -0.099 0.446 -0.104 0.452 -0.108 0.457 -0.113 0.46 -0.116 0.461 -0.12 0.463 -0.125 0.462 -0.127 0.459 -0.131 0.456 -0.133 0.451 -0.137 0.445 -0.14 0.437 -0.142 0.429 -0.145 0.419 -0.147 0.408 -0.149 0.395 -1.399 -0.541 0.141 -0.373 0.14 -0.388 0.138 -0.4 0.137 -0.412 0.134 -0.423 0.133 -0.43 0.129 -0.437 0.127 -0.443 0.125 -0.448 0.12 -0.449 0.118 -0.451 0.113 -0.452 0.11 -0.449 0.106 -0.447 0.102 -0.442 0.097 -0.436 0.092 -0.429 0.088 -0.42 0.081 -0.41 0.077 -0.399 0.071 -0.386 0.066 -0.371 0.06 -0.355 0.053 -0.338 0.047 -0.318 0.04 -0.298 0.033 -0.275 0.027 -0.251 0.019 -0.224 0.012 -0.194 0.005 -0.16 -0.002 -0.122 0 0zm-20.645 68.914l1.464 -0.325 0 0 0.527 1.905 0.516 1.101 0.306 0.313 0.073 -0.026 0.463 -0.428 0.671 -1.054 0.746 -1.601 0.784 -2.077 0.81 -2.495 0.828 -2.861 0.84 -3.179 0.847 -3.45 0.849 -3.674 0.849 -3.852 0.841 -3.983 0.831 -4.069 0.816 -4.107 0.798 -4.102 0.774 -4.05 0.747 -3.952 0.714 -3.809 0.68 -3.619 0.639 -3.385 0.595 -3.105 0.546 -2.78 0.495 -2.41 0.438 -1.998 0.382 -1.546 0.331 -1.078 0.489 -0.788 1.343 0.55 0.112 0.958 -1.499 0.062 -0.062 -0.631 1.012 0.256 0.009 0.12 -0.287 0.942 -0.368 1.493 -0.433 1.97 -0.491 2.395 -0.545 2.77 -0.594 3.1 -0.638 3.382 -0.68 3.619 -0.714 3.81 -0.748 3.954 -0.774 4.054 -0.799 4.107 -0.817 4.115 -0.834 4.077 -0.843 3.995 -0.851 3.865 -0.854 3.691 -0.853 3.473 -0.847 3.208 -0.839 2.901 -0.828 2.55 -0.817 2.16 -0.809 1.735 -0.829 1.29 -0.976 0.833 -1.294 0.061 -0.981 -0.866 -0.684 -1.435 -0.577 -2.08 0 0zm8.442 -29.529l0.869 1.222 0 0 -0.632 0.489 -0.608 0.548 -0.586 0.605 -0.562 0.659 -0.537 0.71 -0.513 0.758 -0.488 0.802 -0.463 0.842 -0.437 0.878 -0.411 0.911 -0.386 0.94 -0.359 0.966 -0.333 0.987 -0.308 1.006 -0.281 1.02 -0.256 1.029 -0.229 1.037 -0.204 1.04 -0.179 1.039 -0.153 1.034 -0.128 1.026 -0.102 1.015 -0.078 0.998 -0.052 0.979 -0.028 0.956 -0.004 0.929 0.02 0.897 0.044 0.863 0.068 0.823 0.09 0.781 0.114 0.733 0.134 0.682 -1.464 0.325 -0.148 -0.748 -0.122 -0.792 -0.097 -0.833 -0.071 -0.872 -0.047 -0.907 -0.021 -0.939 0.004 -0.968 0.029 -0.992 0.055 -1.015 0.08 -1.034 0.106 -1.049 0.132 -1.06 0.158 -1.069 0.184 -1.074 0.211 -1.075 0.238 -1.073 0.265 -1.067 0.292 -1.058 0.32 -1.046 0.347 -1.029 0.376 -1.011 0.405 -0.987 0.434 -0.961 0.463 -0.931 0.494 -0.897 0.524 -0.861 0.555 -0.821 0.588 -0.776 0.62 -0.728 0.655 -0.676 0.689 -0.621 0.724 -0.559 0 0zm18.223 -6.618l0.232 1.482 -0.395 0.063 -0.415 0.069 -0.435 0.076 -0.454 0.081 -0.47 0.089 -0.486 0.096 -0.502 0.103 -0.516 0.111 -0.529 0.119 -0.54 0.127 -0.553 0.136 -0.562 0.144 -0.57 0.153 -0.579 0.163 -0.585 0.173 -0.592 0.182 -0.596 0.192 -0.6 0.203 -0.603 0.214 -0.604 0.224 -0.605 0.236 -0.604 0.247 -0.603 0.259 -0.601 0.271 -0.596 0.283 -0.593 0.296 -0.586 0.308 -0.58 0.321 -0.572 0.335 -0.563 0.347 -0.554 0.362 -0.543 0.375 -0.869 -1.222 0.576 -0.398 0.586 -0.383 0.595 -0.367 0.602 -0.352 0.609 -0.338 0.616 -0.323 0.619 -0.31 0.624 -0.295 0.625 -0.283 0.628 -0.269 0.628 -0.257 0.627 -0.245 0.626 -0.232 0.624 -0.221 0.62 -0.21 0.615 -0.199 0.61 -0.188 0.604 -0.177 0.596 -0.168 0.587 -0.158 0.578 -0.148 0.567 -0.139 0.555 -0.131 0.543 -0.122 0.529 -0.114 0.515 -0.106 0.498 -0.098 0.482 -0.091 0.464 -0.083 0.445 -0.078 0.426 -0.07 0.404 -0.065zm0 0c0.409,-0.063 0.794,0.216 0.857,0.625 0.064,0.409 -0.216,0.794 -0.625,0.857l-0.232 -1.482z"/>
   </g>
   <g>
    <path class="fil0" d="M132.169 62.183c-0.414,0 -0.75,-0.336 -0.75,-0.75 0,-0.415 0.336,-0.75 0.75,-0.75l0 1.5zm0.973 0l-0.973 0 0 -1.5 0.973 0 0 1.5zm0 -1.5c0.414,0 0.75,0.335 0.75,0.75 0,0.414 -0.336,0.75 -0.75,0.75l0 -1.5z"/>
   </g>
  </g>
 </g>
</svg>
