<?xml version="1.0" encoding="UTF-8"?>
<!DOCTYPE svg PUBLIC "-//W3C//DTD SVG 1.1//EN" "http://www.w3.org/Graphics/SVG/1.1/DTD/svg11.dtd">
<!-- Creator: CorelDRAW 2019 (64-Bit) -->
<svg xmlns="http://www.w3.org/2000/svg" xml:space="preserve" width="200px" height="100px" version="1.1" style="shape-rendering:geometricPrecision; text-rendering:geometricPrecision; image-rendering:optimizeQuality; fill-rule:evenodd; clip-rule:evenodd"
viewBox="0 0 200 100"
 xmlns:xlink="http://www.w3.org/1999/xlink"
 xmlns:xodm="http://www.corel.com/coreldraw/odm/2003">
 <defs>
  <style type="text/css">
   <![CDATA[
    .fil0 {fill:black;fill-rule:nonzero}
   ]]>
  </style>
 </defs>
 <g id="Layer_x0020_1">
  <metadata id="CorelCorpID_0Corel-Layer"/>
  <g id="_2580995021344">
   <g>
    <path class="fil0" d="M75.219 27.426c-0.414,-0.017 -0.735,-0.367 -0.718,-0.781 0.017,-0.414 0.366,-0.735 0.78,-0.718l-0.062 1.499zm16.294 -8.089l1.322 0.709 0 0 -0.435 0.735 -0.486 0.686 -0.532 0.637 -0.574 0.589 -0.609 0.543 -0.641 0.499 -0.668 0.456 -0.69 0.417 -0.708 0.379 -0.723 0.342 -0.732 0.308 -0.739 0.277 -0.741 0.246 -0.739 0.218 -0.734 0.192 -0.724 0.167 -0.711 0.144 -0.694 0.123 -0.673 0.104 -0.648 0.086 -0.62 0.069 -0.587 0.055 -0.55 0.043 -0.509 0.03 -0.465 0.022 -0.417 0.013 -0.365 0.007 -0.308 0.002 -0.249 -0.002 -0.183 -0.003 -0.116 -0.003 -0.046 -0.001 0.062 -1.499 0.028 0.001 0.102 0.003 0.169 0.002 0.231 0.002 0.291 -0.002 0.345 -0.007 0.397 -0.012 0.444 -0.021 0.487 -0.029 0.525 -0.04 0.56 -0.053 0.591 -0.066 0.618 -0.082 0.64 -0.098 0.66 -0.117 0.673 -0.137 0.684 -0.157 0.69 -0.181 0.692 -0.204 0.691 -0.229 0.684 -0.257 0.674 -0.283 0.66 -0.313 0.642 -0.343 0.62 -0.375 0.595 -0.406 0.565 -0.44 0.532 -0.474 0.497 -0.51 0.458 -0.547 0.415 -0.587 0.372 -0.628 0 0zm-12.753 -6.473l-0.572 -1.387 0 0 1.16 -0.458 1.121 -0.399 1.081 -0.342 1.041 -0.286 1.002 -0.231 0.96 -0.177 0.92 -0.125 0.879 -0.073 0.838 -0.023 0.798 0.027 0.756 0.076 0.714 0.124 0.673 0.174 0.629 0.221 0.584 0.269 0.538 0.317 0.489 0.363 0.437 0.408 0.383 0.452 0.325 0.49 0.266 0.525 0.206 0.557 0.145 0.585 0.085 0.608 0.026 0.629 -0.032 0.649 -0.09 0.665 -0.146 0.682 -0.202 0.695 -0.257 0.71 -0.314 0.723 -0.368 0.734 -1.322 -0.709 0.332 -0.661 0.278 -0.642 0.225 -0.621 0.174 -0.597 0.122 -0.573 0.074 -0.545 0.026 -0.518 -0.02 -0.488 -0.064 -0.458 -0.107 -0.428 -0.146 -0.398 -0.188 -0.37 -0.227 -0.343 -0.269 -0.317 -0.311 -0.291 -0.357 -0.265 -0.404 -0.238 -0.452 -0.208 -0.503 -0.177 -0.552 -0.142 -0.603 -0.105 -0.652 -0.066 -0.702 -0.023 -0.751 0.02 -0.799 0.067 -0.846 0.115 -0.893 0.165 -0.938 0.217 -0.984 0.27 -1.028 0.325 -1.073 0.382 -1.115 0.44 0 0zm-18.699 25.093l-0.246 1.48 0 0 -1.268 -0.281 -1.096 -0.39 -0.929 -0.505 -0.76 -0.621 -0.58 -0.733 -0.389 -0.826 -0.2 -0.889 -0.025 -0.928 0.13 -0.958 0.268 -0.982 0.392 -1.005 0.506 -1.028 0.61 -1.048 0.709 -1.066 0.797 -1.079 0.88 -1.089 0.955 -1.094 1.023 -1.094 1.083 -1.089 1.136 -1.078 1.182 -1.064 1.221 -1.042 1.252 -1.016 1.275 -0.984 1.292 -0.947 1.302 -0.904 1.303 -0.856 1.299 -0.803 1.286 -0.743 1.268 -0.678 1.241 -0.608 1.21 -0.532 0.572 1.387 -1.149 0.505 -1.19 0.583 -1.222 0.654 -1.246 0.72 -1.263 0.779 -1.269 0.834 -1.27 0.883 -1.262 0.925 -1.247 0.961 -1.222 0.993 -1.192 1.018 -1.152 1.036 -1.106 1.05 -1.052 1.057 -0.99 1.059 -0.92 1.053 -0.841 1.042 -0.757 1.023 -0.663 0.998 -0.562 0.965 -0.455 0.923 -0.341 0.873 -0.222 0.812 -0.101 0.74 0.016 0.662 0.13 0.584 0.244 0.518 0.371 0.469 0.524 0.428 0.704 0.381 0.9 0.321 1.106 0.244 0 0zm26.002 18.51l-1.21 -0.887 -0.001 0 1.034 -1.518 0.799 -1.399 0.577 -1.284 0.371 -1.167 0.181 -1.055 0.011 -0.948 -0.141 -0.856 -0.283 -0.778 -0.418 -0.717 -0.552 -0.666 -0.684 -0.619 -0.81 -0.572 -0.926 -0.525 -1.033 -0.476 -1.126 -0.429 -1.208 -0.385 -1.277 -0.342 -1.335 -0.302 -1.38 -0.265 -1.414 -0.234 -1.435 -0.203 -1.446 -0.177 -1.444 -0.156 -1.431 -0.138 -1.408 -0.124 -1.372 -0.114 -1.326 -0.107 -1.268 -0.106 -1.2 -0.106 -1.123 -0.114 -1.034 -0.123 -0.936 -0.138 0.246 -1.48 0.888 0.131 1 0.119 1.1 0.111 1.187 0.106 1.263 0.105 1.326 0.107 1.377 0.114 1.417 0.125 1.447 0.139 1.463 0.159 1.47 0.18 1.466 0.208 1.45 0.239 1.424 0.274 1.387 0.314 1.339 0.358 1.281 0.408 1.214 0.463 1.134 0.524 1.045 0.592 0.944 0.668 0.83 0.752 0.699 0.845 0.548 0.942 0.376 1.036 0.186 1.123 -0.014 1.2 -0.219 1.273 -0.428 1.348 -0.641 1.427 -0.864 1.513 -1.093 1.607 0 0zm-51.777 19.582l1.073 1.049 0 0 -2.625 2.784 -2.05 2.385 -1.501 1.995 -0.979 1.606 -0.488 1.197 -0.077 0.729 0.136 0.309 0.392 0.219 0.863 0.118 1.288 -0.095 1.639 -0.327 1.937 -0.549 2.194 -0.758 2.415 -0.947 2.605 -1.122 2.763 -1.277 2.89 -1.417 2.986 -1.54 3.052 -1.644 3.089 -1.733 3.096 -1.805 3.071 -1.859 3.019 -1.897 2.934 -1.917 2.822 -1.922 2.678 -1.907 2.504 -1.876 2.301 -1.828 2.065 -1.761 1.8 -1.675 1.502 -1.568 1.173 -1.436 1.21 0.887 -1.262 1.547 -1.572 1.64 -1.854 1.726 -2.11 1.799 -2.337 1.857 -2.536 1.9 -2.705 1.927 -2.846 1.938 -2.958 1.932 -3.04 1.91 -3.093 1.873 -3.117 1.817 -3.111 1.745 -3.076 1.657 -3.011 1.553 -2.918 1.431 -2.797 1.293 -2.645 1.138 -2.467 0.968 -2.262 0.781 -2.032 0.577 -1.785 0.355 -1.531 0.108 -1.293 -0.191 -1.04 -0.635 -0.513 -1.124 0.116 -1.317 0.605 -1.495 1.074 -1.765 1.572 -2.09 2.102 -2.446 2.665 -2.827 0 0zm82.603 -39.618l0.42 1.44 -2.25 0.668 -2.356 0.72 -2.451 0.773 -2.541 0.822 -2.619 0.87 -2.691 0.916 -2.753 0.962 -2.808 1.004 -2.853 1.046 -2.89 1.085 -2.918 1.123 -2.938 1.16 -2.951 1.194 -2.953 1.226 -2.948 1.258 -2.934 1.287 -2.912 1.314 -2.881 1.34 -2.841 1.365 -2.794 1.386 -2.737 1.408 -2.672 1.425 -2.599 1.444 -2.516 1.457 -2.426 1.472 -2.327 1.483 -2.218 1.492 -2.103 1.499 -1.977 1.505 -1.843 1.508 -1.7 1.508 -1.55 1.507 -1.073 -1.049 1.602 -1.557 1.749 -1.552 1.887 -1.543 2.016 -1.534 2.138 -1.525 2.251 -1.514 2.356 -1.502 2.453 -1.488 2.541 -1.473 2.622 -1.455 2.693 -1.437 2.757 -1.418 2.812 -1.395 2.858 -1.373 2.897 -1.348 2.927 -1.321 2.948 -1.293 2.962 -1.264 2.966 -1.231 2.963 -1.199 2.95 -1.164 2.931 -1.128 2.901 -1.089 2.864 -1.05 2.818 -1.009 2.764 -0.965 2.701 -0.92 2.631 -0.874 2.551 -0.826 2.463 -0.775 2.368 -0.725 2.263 -0.671zm0 0c0.398,-0.116 0.814,0.113 0.93,0.51 0.116,0.398 -0.112,0.814 -0.51,0.93l-0.42 -1.44z"/>
   </g>
   <g>
    <path class="fil0" d="M122.813 30.032c0.067,0.409 -0.21,0.795 -0.619,0.861 -0.409,0.067 -0.794,-0.21 -0.861,-0.618l1.48 -0.243zm-1.221 0.845l-0.877 -1.217 0 0 0.093 -0.066 0.092 -0.06 0.09 -0.055 0.089 -0.05 0.086 -0.044 0.087 -0.04 0.087 -0.035 0.088 -0.031 0.09 -0.025 0.092 -0.019 0.095 -0.013 0.094 -0.006 0.095 0.002 0.104 0.012 0.1 0.022 0.093 0.029 0.09 0.039 0.086 0.048 0.079 0.055 0.067 0.056 0.057 0.058 0.051 0.06 0.043 0.059 0.038 0.062 0.03 0.058 0.019 0.044 0.017 0.041 0.013 0.039 0.014 0.043 0.01 0.042 0.002 0.012 0.007 0.035 -1.48 0.243 0.006 0.031 0.001 0.005 0.007 0.029 0.008 0.027 0.007 0.019 0.007 0.019 0.009 0.018 0.016 0.031 0.021 0.034 0.022 0.031 0.027 0.032 0.031 0.031 0.035 0.029 0.044 0.031 0.046 0.025 0.045 0.02 0.044 0.014 0.046 0.009 0.043 0.005 0.031 0.001 0.022 -0.001 0.017 -0.003 0.008 -0.001 -0.001 0 -0.009 0.003 -0.018 0.007 -0.026 0.012 -0.033 0.017 -0.039 0.022 -0.046 0.028 -0.053 0.035 -0.059 0.042 0 0zm-4.54 8.759l-1.401 -0.536 0 0 0.092 -0.235 0.104 -0.256 0.115 -0.273 0.124 -0.289 0.135 -0.305 0.143 -0.319 0.15 -0.33 0.158 -0.342 0.165 -0.35 0.169 -0.357 0.175 -0.363 0.179 -0.366 0.182 -0.369 0.184 -0.369 0.186 -0.368 0.186 -0.364 0.187 -0.36 0.186 -0.353 0.184 -0.346 0.182 -0.335 0.18 -0.324 0.175 -0.311 0.171 -0.297 0.165 -0.28 0.16 -0.264 0.155 -0.244 0.148 -0.225 0.141 -0.204 0.138 -0.185 0.135 -0.165 0.141 -0.15 0.169 -0.142 0.877 1.217 -0.002 0.003 -0.054 0.058 -0.083 0.101 -0.102 0.137 -0.117 0.169 -0.13 0.198 -0.14 0.222 -0.149 0.244 -0.156 0.265 -0.164 0.284 -0.169 0.3 -0.173 0.313 -0.177 0.326 -0.18 0.337 -0.181 0.346 -0.183 0.352 -0.183 0.358 -0.183 0.361 -0.181 0.362 -0.178 0.362 -0.176 0.36 -0.171 0.356 -0.167 0.351 -0.161 0.343 -0.154 0.333 -0.148 0.323 -0.138 0.31 -0.13 0.295 -0.12 0.278 -0.109 0.259 -0.097 0.238 -0.084 0.215 0 0zm1.965 2.791l0.981 1.135 0 0 -0.309 0.252 -0.307 0.218 -0.303 0.183 -0.302 0.148 -0.302 0.113 -0.302 0.076 -0.302 0.038 -0.299 -0.003 -0.29 -0.044 -0.277 -0.084 -0.257 -0.122 -0.233 -0.152 -0.207 -0.177 -0.183 -0.197 -0.16 -0.213 -0.139 -0.226 -0.119 -0.237 -0.102 -0.245 -0.086 -0.254 -0.07 -0.261 -0.056 -0.265 -0.042 -0.271 -0.029 -0.275 -0.015 -0.277 -0.004 -0.279 0.011 -0.28 0.023 -0.279 0.036 -0.277 0.048 -0.275 0.063 -0.271 0.076 -0.266 0.091 -0.26 1.401 0.536 -0.062 0.178 -0.054 0.187 -0.045 0.196 -0.036 0.203 -0.027 0.207 -0.017 0.21 -0.007 0.21 0.002 0.21 0.011 0.207 0.021 0.201 0.031 0.195 0.039 0.186 0.047 0.175 0.055 0.163 0.061 0.147 0.066 0.131 0.069 0.114 0.071 0.095 0.071 0.076 0.068 0.059 0.066 0.043 0.064 0.03 0.067 0.021 0.077 0.012 0.091 0.001 0.11 -0.014 0.133 -0.034 0.155 -0.058 0.179 -0.088 0.2 -0.121 0.22 -0.156 0.239 -0.195 0 0zm6.877 -13.853l-1.357 -0.639 0 0 0.344 -0.688 0.331 -0.574 0.322 -0.469 0.326 -0.377 0.361 -0.293 0.458 -0.191 0.568 0.032 0.461 0.297 0.258 0.387 0.141 0.408 0.078 0.442 0.033 0.487 -0.006 0.539 -0.043 0.59 -0.081 0.64 -0.118 0.688 -0.158 0.732 -0.197 0.771 -0.238 0.805 -0.281 0.835 -0.324 0.861 -0.368 0.881 -0.414 0.897 -0.461 0.907 -0.509 0.913 -0.559 0.913 -0.609 0.908 -0.662 0.898 -0.715 0.883 -0.77 0.863 -0.825 0.836 -0.882 0.806 -0.981 -1.135 0.824 -0.752 0.771 -0.782 0.72 -0.807 0.671 -0.829 0.622 -0.844 0.574 -0.855 0.526 -0.861 0.48 -0.86 0.435 -0.856 0.391 -0.847 0.347 -0.831 0.305 -0.81 0.263 -0.784 0.223 -0.753 0.183 -0.716 0.145 -0.673 0.108 -0.624 0.071 -0.568 0.037 -0.506 0.005 -0.435 -0.023 -0.352 -0.044 -0.254 -0.044 -0.133 0.012 0.009 0.157 0.095 0.206 0.014 0.043 -0.013 -0.106 0.09 -0.191 0.222 -0.244 0.355 -0.28 0.487 -0.31 0.62 0 0zm-2.817 12.046l-1.233 0.856 0 -0.001 -0.146 -0.24 -0.119 -0.256 -0.096 -0.268 -0.075 -0.282 -0.057 -0.294 -0.04 -0.308 -0.024 -0.319 -0.01 -0.334 0.003 -0.347 0.017 -0.359 0.03 -0.374 0.042 -0.386 0.054 -0.398 0.066 -0.411 0.078 -0.423 0.09 -0.435 0.101 -0.445 0.112 -0.456 0.123 -0.466 0.134 -0.476 0.145 -0.486 0.155 -0.493 0.167 -0.502 0.176 -0.509 0.186 -0.516 0.197 -0.522 0.207 -0.528 0.216 -0.533 0.226 -0.538 0.236 -0.542 0.245 -0.546 0.254 -0.548 1.357 0.639 -0.247 0.532 -0.237 0.529 -0.229 0.525 -0.218 0.521 -0.21 0.516 -0.2 0.511 -0.189 0.504 -0.18 0.497 -0.17 0.49 -0.159 0.481 -0.149 0.473 -0.138 0.463 -0.128 0.452 -0.116 0.443 -0.106 0.43 -0.095 0.418 -0.084 0.404 -0.072 0.391 -0.06 0.377 -0.049 0.36 -0.038 0.345 -0.026 0.326 -0.014 0.309 -0.003 0.289 0.008 0.268 0.019 0.247 0.029 0.223 0.038 0.198 0.045 0.172 0.052 0.146 0.054 0.117 0.055 0.09 0 -0.001zm4.787 -3.427l1.346 0.661 0 0 -0.119 0.226 -0.135 0.226 -0.149 0.226 -0.162 0.227 -0.175 0.227 -0.186 0.225 -0.197 0.225 -0.207 0.223 -0.215 0.22 -0.224 0.217 -0.231 0.212 -0.237 0.207 -0.243 0.2 -0.247 0.193 -0.25 0.185 -0.255 0.176 -0.256 0.166 -0.258 0.154 -0.26 0.141 -0.261 0.129 -0.262 0.113 -0.262 0.098 -0.265 0.079 -0.267 0.059 -0.27 0.036 -0.273 0.009 -0.276 -0.023 -0.277 -0.062 -0.271 -0.107 -0.254 -0.152 -0.229 -0.199 -0.193 -0.234 1.233 -0.856 0.037 0.046 0.033 0.028 0.034 0.021 0.047 0.018 0.064 0.014 0.087 0.007 0.111 -0.004 0.132 -0.018 0.151 -0.034 0.168 -0.05 0.18 -0.067 0.192 -0.083 0.2 -0.099 0.206 -0.113 0.211 -0.126 0.215 -0.138 0.215 -0.149 0.216 -0.159 0.215 -0.168 0.211 -0.174 0.207 -0.182 0.202 -0.185 0.196 -0.189 0.187 -0.192 0.179 -0.193 0.168 -0.192 0.157 -0.189 0.143 -0.187 0.13 -0.181 0.114 -0.173 0.099 -0.164 0.08 -0.152 0 0zm2.242 -9.316l1.496 -0.115 0 0 0.012 0.251 0.002 0.263 -0.008 0.275 -0.018 0.286 -0.026 0.299 -0.034 0.309 -0.041 0.319 -0.048 0.329 -0.055 0.337 -0.061 0.344 -0.067 0.35 -0.073 0.356 -0.077 0.359 -0.082 0.363 -0.085 0.363 -0.09 0.365 -0.093 0.363 -0.096 0.361 -0.098 0.358 -0.101 0.354 -0.103 0.349 -0.104 0.341 -0.105 0.334 -0.106 0.324 -0.106 0.314 -0.106 0.303 -0.106 0.291 -0.105 0.277 -0.104 0.262 -0.104 0.248 -0.102 0.23 -0.102 0.215 -1.346 -0.661 0.084 -0.177 0.088 -0.201 0.093 -0.22 0.095 -0.239 0.097 -0.257 0.1 -0.272 0.099 -0.286 0.101 -0.299 0.101 -0.31 0.101 -0.319 0.1 -0.329 0.099 -0.335 0.097 -0.341 0.095 -0.345 0.092 -0.349 0.09 -0.35 0.086 -0.35 0.083 -0.35 0.078 -0.347 0.074 -0.344 0.069 -0.339 0.063 -0.332 0.058 -0.324 0.051 -0.315 0.045 -0.305 0.038 -0.292 0.031 -0.278 0.022 -0.262 0.015 -0.245 0.007 -0.224 -0.001 -0.202 -0.009 -0.178 0 0zm-0.687 5.334l-1.496 -0.105 0 0 0.031 -0.376 0.039 -0.373 0.047 -0.369 0.055 -0.365 0.061 -0.36 0.066 -0.353 0.073 -0.345 0.078 -0.338 0.082 -0.328 0.086 -0.318 0.089 -0.306 0.092 -0.295 0.095 -0.282 0.097 -0.269 0.098 -0.254 0.101 -0.239 0.101 -0.224 0.103 -0.209 0.106 -0.193 0.108 -0.179 0.116 -0.166 0.129 -0.154 0.154 -0.146 0.206 -0.137 0.297 -0.099 0.383 0.023 0.336 0.177 0.203 0.232 0.113 0.225 0.066 0.217 0.042 0.221 0.026 0.238 -1.496 0.115 -0.015 -0.138 -0.016 -0.087 -0.008 -0.027 0.024 0.044 0.1 0.111 0.219 0.116 0.256 0.015 0.157 -0.05 0.059 -0.037 -0.003 0.004 -0.035 0.043 -0.055 0.078 -0.066 0.109 -0.074 0.135 -0.079 0.159 -0.082 0.182 -0.084 0.201 -0.085 0.22 -0.085 0.236 -0.085 0.251 -0.083 0.267 -0.081 0.278 -0.079 0.29 -0.075 0.3 -0.071 0.31 -0.066 0.317 -0.062 0.324 -0.056 0.33 -0.05 0.334 -0.043 0.338 -0.036 0.34 -0.028 0.341 0 0zm5.772 -0.883l1.465 0.32 0 0 -0.151 0.625 -0.183 0.631 -0.21 0.631 -0.235 0.629 -0.258 0.622 -0.28 0.612 -0.297 0.597 -0.314 0.578 -0.328 0.556 -0.34 0.529 -0.351 0.499 -0.359 0.463 -0.369 0.427 -0.376 0.383 -0.386 0.339 -0.397 0.288 -0.415 0.231 -0.44 0.163 -0.467 0.076 -0.485 -0.039 -0.468 -0.17 -0.412 -0.292 -0.339 -0.387 -0.273 -0.466 -0.221 -0.543 -0.175 -0.625 -0.134 -0.716 -0.096 -0.814 -0.056 -0.919 -0.015 -1.031 0.026 -1.148 0.071 -1.271 1.496 0.105 -0.068 1.227 -0.025 1.095 0.014 0.968 0.052 0.844 0.084 0.722 0.113 0.602 0.135 0.483 0.148 0.367 0.148 0.253 0.129 0.149 0.101 0.072 0.082 0.029 0.098 0.006 0.145 -0.025 0.196 -0.074 0.24 -0.134 0.27 -0.197 0.291 -0.256 0.305 -0.31 0.311 -0.361 0.314 -0.405 0.313 -0.445 0.308 -0.478 0.3 -0.508 0.288 -0.532 0.274 -0.551 0.258 -0.565 0.239 -0.574 0.216 -0.578 0.192 -0.577 0.165 -0.571 0.136 -0.559 0 0zm0.231 -4.749l-1.347 -0.659 0 0 0.219 -0.435 0.209 -0.387 0.2 -0.343 0.193 -0.3 0.188 -0.261 0.19 -0.227 0.201 -0.196 0.233 -0.168 0.296 -0.127 0.378 -0.032 0.383 0.122 0.275 0.227 0.168 0.249 0.104 0.246 0.068 0.249 0.046 0.261 0.03 0.279 0.017 0.298 0.006 0.32 -0.006 0.342 -0.016 0.366 -0.026 0.386 -0.036 0.407 -0.046 0.429 -0.055 0.447 -0.065 0.465 -0.073 0.483 -0.082 0.498 -0.092 0.513 -0.1 0.527 -0.109 0.539 -0.117 0.551 -1.465 -0.32 0.113 -0.535 0.106 -0.523 0.097 -0.51 0.088 -0.496 0.08 -0.48 0.07 -0.463 0.062 -0.444 0.052 -0.424 0.043 -0.402 0.033 -0.379 0.024 -0.354 0.015 -0.326 0.005 -0.298 -0.005 -0.266 -0.013 -0.23 -0.02 -0.192 -0.026 -0.146 -0.025 -0.094 -0.011 -0.03 0.03 0.043 0.117 0.093 0.202 0.064 0.173 -0.014 0.069 -0.027 -0.018 0.014 -0.072 0.072 -0.109 0.13 -0.133 0.185 -0.154 0.24 -0.172 0.294 -0.187 0.348 -0.203 0.401 0 0zm3.481 6.247l1.441 0.418 0 0 -0.297 0.941 -0.312 0.831 -0.328 0.726 -0.344 0.626 -0.362 0.532 -0.387 0.442 -0.418 0.354 -0.454 0.258 -0.487 0.148 -0.499 0.026 -0.481 -0.094 -0.441 -0.195 -0.395 -0.274 -0.351 -0.336 -0.316 -0.39 -0.283 -0.437 -0.255 -0.48 -0.227 -0.521 -0.2 -0.559 -0.172 -0.591 -0.142 -0.622 -0.112 -0.649 -0.08 -0.671 -0.045 -0.69 -0.01 -0.704 0.029 -0.715 0.069 -0.722 0.111 -0.724 0.157 -0.722 0.203 -0.717 0.254 -0.705 0.306 -0.69 1.347 0.659 -0.261 0.589 -0.218 0.606 -0.176 0.622 -0.137 0.631 -0.097 0.637 -0.061 0.637 -0.026 0.634 0.009 0.626 0.04 0.611 0.071 0.593 0.098 0.569 0.124 0.541 0.146 0.507 0.167 0.467 0.185 0.423 0.197 0.372 0.205 0.317 0.207 0.255 0.199 0.191 0.181 0.127 0.156 0.07 0.132 0.027 0.128 -0.006 0.15 -0.046 0.188 -0.107 0.226 -0.193 0.255 -0.291 0.272 -0.4 0.282 -0.513 0.283 -0.629 0.282 -0.748 0.274 -0.872 0 0zm0.501 -5.636l1.501 0 0 0 0 0.13 0 0.136 0.001 0.143 0 0.149 0 0.155 0 0.16 0 0.165 -0.001 0.17 -0.002 0.175 -0.002 0.179 -0.004 0.183 -0.004 0.187 -0.006 0.19 -0.007 0.193 -0.009 0.197 -0.011 0.199 -0.012 0.201 -0.014 0.203 -0.017 0.206 -0.018 0.206 -0.021 0.21 -0.024 0.209 -0.026 0.21 -0.029 0.212 -0.032 0.211 -0.035 0.212 -0.039 0.212 -0.042 0.212 -0.046 0.211 -0.049 0.211 -0.054 0.209 -0.058 0.208 -1.441 -0.418 0.05 -0.178 0.046 -0.181 0.043 -0.182 0.04 -0.185 0.038 -0.188 0.034 -0.188 0.032 -0.19 0.028 -0.191 0.027 -0.191 0.023 -0.192 0.022 -0.193 0.02 -0.191 0.017 -0.192 0.015 -0.19 0.013 -0.19 0.012 -0.189 0.009 -0.187 0.009 -0.184 0.007 -0.183 0.005 -0.181 0.005 -0.178 0.003 -0.175 0.002 -0.172 0.002 -0.168 0.001 -0.164 0 -0.161 0 -0.158 0 -0.153 0 -0.147 -0.001 -0.143 0 -0.138 -0.001 -0.133 0 0zm-2.242 -5.771l-0.193 -1.487 0 0 0.27 -0.017 0.269 0.021 0.258 0.056 0.246 0.087 0.23 0.114 0.215 0.137 0.199 0.155 0.187 0.172 0.174 0.187 0.163 0.199 0.154 0.213 0.144 0.223 0.137 0.233 0.129 0.244 0.122 0.253 0.115 0.261 0.108 0.27 0.102 0.275 0.095 0.283 0.089 0.288 0.082 0.293 0.075 0.297 0.069 0.3 0.062 0.302 0.055 0.304 0.049 0.305 0.041 0.305 0.035 0.304 0.026 0.303 0.02 0.3 0.012 0.297 0.004 0.294 -1.501 0 -0.003 -0.254 -0.01 -0.258 -0.017 -0.264 -0.024 -0.268 -0.031 -0.27 -0.036 -0.271 -0.043 -0.271 -0.05 -0.271 -0.055 -0.269 -0.061 -0.266 -0.066 -0.262 -0.073 -0.257 -0.077 -0.251 -0.082 -0.244 -0.086 -0.235 -0.092 -0.226 -0.094 -0.216 -0.099 -0.204 -0.101 -0.191 -0.103 -0.177 -0.106 -0.162 -0.105 -0.146 -0.104 -0.128 -0.103 -0.11 -0.099 -0.091 -0.094 -0.074 -0.086 -0.055 -0.079 -0.039 -0.07 -0.026 -0.065 -0.014 -0.062 -0.005 -0.066 0.004 0 0zm1.527 12.316l0.782 1.281 0 0 -0.879 0.483 -0.831 0.35 -0.788 0.218 -0.748 0.085 -0.707 -0.051 -0.654 -0.187 -0.583 -0.314 -0.5 -0.421 -0.413 -0.505 -0.333 -0.571 -0.264 -0.624 -0.201 -0.67 -0.146 -0.708 -0.095 -0.742 -0.047 -0.768 -0.005 -0.789 0.038 -0.804 0.076 -0.811 0.113 -0.812 0.149 -0.806 0.182 -0.792 0.214 -0.773 0.245 -0.746 0.273 -0.711 0.303 -0.672 0.331 -0.625 0.362 -0.572 0.393 -0.512 0.431 -0.445 0.475 -0.368 0.529 -0.272 0.578 -0.149 0.193 1.487 -0.23 0.061 -0.257 0.134 -0.283 0.22 -0.298 0.309 -0.299 0.391 -0.295 0.466 -0.282 0.534 -0.266 0.589 -0.245 0.638 -0.222 0.677 -0.196 0.707 -0.167 0.728 -0.137 0.742 -0.104 0.746 -0.07 0.742 -0.034 0.73 0.004 0.708 0.042 0.678 0.081 0.637 0.121 0.588 0.159 0.53 0.194 0.461 0.225 0.386 0.25 0.308 0.273 0.232 0.301 0.163 0.346 0.099 0.413 0.029 0.494 -0.056 0.583 -0.162 0.67 -0.282 0.756 -0.417 0 0zm5.355 -9.724l1.489 0.179 0 0 -0.025 0.19 -0.034 0.211 -0.041 0.232 -0.051 0.254 -0.059 0.273 -0.067 0.291 -0.077 0.309 -0.087 0.324 -0.096 0.338 -0.106 0.351 -0.117 0.363 -0.126 0.373 -0.138 0.382 -0.148 0.389 -0.159 0.394 -0.171 0.4 -0.183 0.401 -0.194 0.404 -0.207 0.402 -0.219 0.402 -0.233 0.399 -0.246 0.394 -0.259 0.388 -0.274 0.381 -0.288 0.371 -0.303 0.361 -0.318 0.349 -0.334 0.335 -0.35 0.319 -0.368 0.302 -0.383 0.282 -0.401 0.262 -0.782 -1.281 0.328 -0.214 0.317 -0.233 0.307 -0.252 0.295 -0.269 0.286 -0.287 0.275 -0.301 0.264 -0.315 0.253 -0.327 0.243 -0.338 0.232 -0.347 0.221 -0.355 0.211 -0.361 0.201 -0.366 0.189 -0.37 0.179 -0.371 0.168 -0.371 0.159 -0.37 0.148 -0.366 0.138 -0.362 0.127 -0.356 0.119 -0.348 0.108 -0.338 0.099 -0.328 0.09 -0.316 0.08 -0.3 0.071 -0.285 0.063 -0.268 0.054 -0.249 0.045 -0.227 0.036 -0.205 0.029 -0.179 0.02 -0.15 0 0zm0.301 -10.052l1.494 -0.134 0 0 0.015 0.208 0.014 0.229 0.009 0.251 0.008 0.271 0.005 0.291 0.003 0.308 0.001 0.325 0 0.34 -0.003 0.353 -0.005 0.364 -0.006 0.375 -0.007 0.382 -0.009 0.389 -0.011 0.393 -0.012 0.396 -0.013 0.397 -0.014 0.397 -0.015 0.394 -0.016 0.39 -0.016 0.384 -0.018 0.377 -0.018 0.366 -0.019 0.356 -0.019 0.343 -0.019 0.329 -0.02 0.312 -0.02 0.294 -0.02 0.275 -0.02 0.253 -0.02 0.232 -0.02 0.207 -0.021 0.184 -1.489 -0.179 0.018 -0.16 0.018 -0.19 0.019 -0.218 0.02 -0.243 0.019 -0.266 0.019 -0.287 0.02 -0.306 0.019 -0.323 0.019 -0.337 0.018 -0.351 0.018 -0.363 0.017 -0.372 0.016 -0.38 0.016 -0.387 0.015 -0.389 0.014 -0.393 0.013 -0.393 0.012 -0.392 0.01 -0.388 0.009 -0.384 0.007 -0.377 0.006 -0.368 0.005 -0.358 0.002 -0.346 0.001 -0.331 -0.001 -0.316 -0.003 -0.297 -0.005 -0.278 -0.007 -0.255 -0.009 -0.23 -0.011 -0.202 -0.013 -0.172 0 0zm-3.126 -0.641l-1.052 -1.069 0 0 0.229 -0.214 0.232 -0.195 0.234 -0.176 0.236 -0.156 0.239 -0.136 0.239 -0.117 0.241 -0.098 0.241 -0.078 0.241 -0.059 0.239 -0.04 0.239 -0.019 0.235 -0.001 0.231 0.017 0.226 0.037 0.219 0.053 0.213 0.071 0.203 0.086 0.195 0.102 0.185 0.115 0.175 0.129 0.164 0.14 0.153 0.152 0.142 0.162 0.13 0.171 0.119 0.181 0.106 0.188 0.093 0.195 0.081 0.202 0.069 0.209 0.054 0.214 0.042 0.218 0.027 0.223 -1.494 0.134 -0.016 -0.127 -0.023 -0.123 -0.031 -0.12 -0.037 -0.115 -0.045 -0.111 -0.051 -0.107 -0.057 -0.1 -0.062 -0.095 -0.067 -0.089 -0.073 -0.083 -0.076 -0.075 -0.081 -0.069 -0.084 -0.062 -0.087 -0.055 -0.091 -0.047 -0.094 -0.04 -0.097 -0.032 -0.101 -0.025 -0.105 -0.017 -0.109 -0.008 -0.115 0 -0.119 0.01 -0.124 0.021 -0.132 0.032 -0.136 0.044 -0.143 0.058 -0.149 0.073 -0.154 0.088 -0.16 0.106 -0.165 0.123 -0.169 0.142 -0.173 0.162 0 0zm-0.46 5.193l-0.738 1.306 0 0 -0.202 -0.127 -0.188 -0.146 -0.173 -0.16 -0.16 -0.175 -0.145 -0.186 -0.131 -0.197 -0.118 -0.207 -0.105 -0.216 -0.092 -0.224 -0.08 -0.231 -0.067 -0.238 -0.055 -0.245 -0.043 -0.249 -0.031 -0.254 -0.019 -0.26 -0.006 -0.263 0.007 -0.265 0.019 -0.269 0.031 -0.27 0.045 -0.273 0.059 -0.273 0.072 -0.272 0.086 -0.273 0.1 -0.27 0.114 -0.269 0.129 -0.266 0.145 -0.263 0.159 -0.257 0.175 -0.253 0.191 -0.246 0.206 -0.24 0.223 -0.231 1.052 1.069 -0.166 0.173 -0.154 0.178 -0.142 0.184 -0.13 0.188 -0.119 0.192 -0.107 0.195 -0.097 0.199 -0.085 0.201 -0.075 0.202 -0.065 0.204 -0.053 0.204 -0.044 0.204 -0.033 0.202 -0.024 0.202 -0.014 0.198 -0.004 0.196 0.004 0.192 0.013 0.186 0.022 0.181 0.03 0.175 0.038 0.166 0.045 0.159 0.052 0.15 0.057 0.141 0.064 0.13 0.067 0.119 0.072 0.108 0.074 0.096 0.077 0.084 0.078 0.072 0.079 0.061 0.08 0.051 0 0zm7.153 1.616l0 1.5 0 0 -0.405 -0.003 -0.39 -0.007 -0.376 -0.012 -0.363 -0.017 -0.35 -0.021 -0.337 -0.026 -0.325 -0.03 -0.313 -0.034 -0.302 -0.038 -0.291 -0.042 -0.281 -0.046 -0.271 -0.049 -0.26 -0.053 -0.252 -0.056 -0.243 -0.06 -0.235 -0.062 -0.226 -0.066 -0.219 -0.068 -0.212 -0.07 -0.205 -0.074 -0.197 -0.075 -0.192 -0.077 -0.186 -0.079 -0.179 -0.08 -0.175 -0.081 -0.169 -0.082 -0.165 -0.083 -0.161 -0.084 -0.158 -0.084 -0.154 -0.084 -0.15 -0.084 -0.149 -0.083 0.738 -1.306 0.142 0.08 0.144 0.079 0.142 0.078 0.143 0.076 0.145 0.076 0.147 0.074 0.149 0.072 0.153 0.071 0.156 0.07 0.16 0.068 0.165 0.066 0.17 0.065 0.176 0.063 0.182 0.061 0.189 0.058 0.197 0.057 0.205 0.055 0.213 0.052 0.223 0.049 0.233 0.048 0.242 0.044 0.253 0.041 0.264 0.038 0.276 0.035 0.288 0.031 0.301 0.028 0.314 0.024 0.327 0.02 0.341 0.016 0.356 0.012 0.371 0.006 0.386 0.003 0 0zm8.125 -1.775l1.21 0.887 0 0 -0.129 0.156 -0.141 0.141 -0.152 0.131 -0.164 0.121 -0.176 0.117 -0.187 0.11 -0.198 0.107 -0.211 0.103 -0.222 0.1 -0.234 0.096 -0.245 0.094 -0.257 0.092 -0.268 0.087 -0.278 0.086 -0.289 0.082 -0.3 0.079 -0.309 0.075 -0.319 0.073 -0.328 0.068 -0.336 0.064 -0.346 0.061 -0.353 0.057 -0.361 0.052 -0.369 0.047 -0.375 0.042 -0.382 0.038 -0.388 0.033 -0.394 0.026 -0.399 0.022 -0.404 0.016 -0.409 0.009 -0.412 0.003 0 -1.5 0.39 -0.003 0.385 -0.009 0.381 -0.015 0.377 -0.02 0.371 -0.025 0.366 -0.031 0.36 -0.035 0.353 -0.04 0.347 -0.045 0.338 -0.048 0.33 -0.053 0.323 -0.057 0.313 -0.06 0.304 -0.063 0.293 -0.067 0.284 -0.069 0.272 -0.072 0.261 -0.074 0.25 -0.076 0.236 -0.078 0.223 -0.079 0.209 -0.08 0.195 -0.081 0.179 -0.081 0.163 -0.08 0.148 -0.079 0.129 -0.076 0.109 -0.072 0.091 -0.067 0.069 -0.059 0.049 -0.049 0.027 -0.032 0 0zm2.487 -4.535l-0.138 1.494 -0.349 -0.023 -0.298 -0.004 -0.248 0.014 -0.198 0.028 -0.148 0.036 -0.103 0.039 -0.063 0.034 -0.031 0.025 -0.016 0.018 -0.011 0.019 -0.012 0.031 -0.01 0.05 -0.008 0.077 0.002 0.1 0.011 0.12 0.022 0.138 0.033 0.153 0.041 0.164 0.05 0.173 0.055 0.18 0.059 0.186 0.061 0.189 0.061 0.194 0.058 0.195 0.054 0.198 0.046 0.201 0.037 0.207 0.021 0.215 0 0.227 -0.033 0.242 -0.081 0.254 -0.141 0.248 -1.21 -0.887 -0.026 0.044 -0.008 0.022 0.002 -0.016 -0.001 -0.055 -0.009 -0.087 -0.02 -0.114 -0.032 -0.136 -0.041 -0.152 -0.05 -0.167 -0.056 -0.177 -0.06 -0.187 -0.062 -0.196 -0.062 -0.202 -0.06 -0.208 -0.054 -0.214 -0.047 -0.219 -0.036 -0.225 -0.021 -0.233 -0.001 -0.24 0.024 -0.249 0.059 -0.255 0.101 -0.255 0.149 -0.244 0.195 -0.22 0.234 -0.185 0.264 -0.146 0.287 -0.108 0.309 -0.076 0.333 -0.047 0.36 -0.021 0.391 0.005 0.425 0.028zm0 0c0.412,0.038 0.716,0.404 0.678,0.816 -0.038,0.413 -0.403,0.716 -0.816,0.678l0.138 -1.494z"/>
   </g>
   <g>
    <path class="fil0" d="M163.556 19.525c-0.407,-0.076 -0.675,-0.468 -0.6,-0.875 0.076,-0.407 0.469,-0.675 0.876,-0.6l-0.276 1.475zm0.289 0.054l-0.289 -0.054 0.276 -1.475 0.289 0.055 -0.276 1.474zm0.276 -1.474c0.407,0.076 0.675,0.468 0.599,0.875 -0.076,0.407 -0.468,0.675 -0.875,0.599l0.276 -1.474z"/>
   </g>
  </g>
 </g>
</svg>
