<?xml version="1.0" encoding="UTF-8"?>
<!DOCTYPE svg PUBLIC "-//W3C//DTD SVG 1.1//EN" "http://www.w3.org/Graphics/SVG/1.1/DTD/svg11.dtd">
<!-- Creator: CorelDRAW 2019 (64-Bit) -->
<svg xmlns="http://www.w3.org/2000/svg" xml:space="preserve" width="200px" height="100px" version="1.1" style="shape-rendering:geometricPrecision; text-rendering:geometricPrecision; image-rendering:optimizeQuality; fill-rule:evenodd; clip-rule:evenodd"
viewBox="0 0 200 100"
 xmlns:xlink="http://www.w3.org/1999/xlink"
 xmlns:xodm="http://www.corel.com/coreldraw/odm/2003">
 <defs>
  <style type="text/css">
   <![CDATA[
    .fil0 {fill:black;fill-rule:nonzero}
   ]]>
  </style>
 </defs>
 <g id="Layer_x0020_1">
  <metadata id="CorelCorpID_0Corel-Layer"/>
  <g id="_2580964806960">
   <g>
    <path class="fil0" d="M91.549 31.534c-0.125,0.368 -0.524,0.565 -0.892,0.44 -0.367,-0.124 -0.564,-0.524 -0.44,-0.891l1.332 0.451zm-1.558 -16.573l0.919 -1.064 0 0 0.48 0.468 0.42 0.519 0.36 0.562 0.305 0.597 0.254 0.628 0.206 0.654 0.163 0.677 0.123 0.695 0.088 0.71 0.053 0.721 0.024 0.73 -0.004 0.734 -0.028 0.735 -0.05 0.732 -0.069 0.726 -0.086 0.717 -0.1 0.702 -0.112 0.686 -0.12 0.664 -0.127 0.64 -0.132 0.611 -0.132 0.578 -0.133 0.542 -0.128 0.502 -0.123 0.458 -0.115 0.41 -0.104 0.359 -0.091 0.302 -0.075 0.244 -0.058 0.18 -0.036 0.111 -0.014 0.043 -1.332 -0.451 0.01 -0.031 0.034 -0.104 0.054 -0.169 0.072 -0.232 0.087 -0.291 0.101 -0.346 0.111 -0.396 0.119 -0.443 0.124 -0.486 0.129 -0.525 0.128 -0.56 0.127 -0.591 0.123 -0.617 0.116 -0.64 0.107 -0.659 0.096 -0.674 0.082 -0.684 0.066 -0.69 0.047 -0.693 0.027 -0.691 0.003 -0.685 -0.022 -0.673 -0.049 -0.659 -0.078 -0.64 -0.109 -0.615 -0.141 -0.588 -0.176 -0.556 -0.209 -0.519 -0.245 -0.481 -0.282 -0.438 -0.319 -0.395 -0.359 -0.351 0 0zm-17.163 8.571l-1.328 -0.462 0 0 0.275 -0.71 0.324 -0.697 0.37 -0.682 0.413 -0.666 0.452 -0.649 0.489 -0.632 0.523 -0.612 0.553 -0.59 0.583 -0.569 0.609 -0.546 0.631 -0.52 0.653 -0.494 0.67 -0.467 0.686 -0.437 0.699 -0.407 0.71 -0.375 0.717 -0.341 0.723 -0.306 0.726 -0.269 0.727 -0.23 0.725 -0.19 0.722 -0.147 0.715 -0.103 0.707 -0.057 0.696 -0.008 0.683 0.044 0.666 0.097 0.648 0.155 0.624 0.213 0.597 0.276 0.566 0.34 0.528 0.406 -0.919 1.064 -0.401 -0.308 -0.431 -0.259 -0.463 -0.214 -0.492 -0.168 -0.521 -0.124 -0.548 -0.08 -0.573 -0.036 -0.596 0.006 -0.614 0.05 -0.631 0.091 -0.644 0.132 -0.653 0.17 -0.662 0.21 -0.664 0.246 -0.665 0.281 -0.663 0.316 -0.658 0.347 -0.649 0.378 -0.638 0.407 -0.624 0.434 -0.607 0.46 -0.587 0.484 -0.564 0.506 -0.54 0.526 -0.51 0.545 -0.48 0.561 -0.447 0.576 -0.41 0.589 -0.371 0.6 -0.33 0.608 -0.286 0.616 -0.241 0.621 0 0zm4.013 20.228l-0.918 1.065 0 0 -0.659 -0.592 -0.618 -0.604 -0.575 -0.615 -0.535 -0.625 -0.495 -0.635 -0.456 -0.644 -0.417 -0.653 -0.379 -0.661 -0.343 -0.668 -0.306 -0.675 -0.272 -0.681 -0.237 -0.687 -0.204 -0.691 -0.171 -0.696 -0.14 -0.699 -0.11 -0.702 -0.081 -0.704 -0.052 -0.706 -0.026 -0.708 0.001 -0.708 0.026 -0.709 0.049 -0.708 0.072 -0.708 0.094 -0.707 0.115 -0.705 0.134 -0.704 0.153 -0.701 0.17 -0.699 0.188 -0.695 0.203 -0.692 0.217 -0.689 0.231 -0.684 1.328 0.462 -0.223 0.659 -0.209 0.661 -0.194 0.663 -0.179 0.665 -0.162 0.666 -0.146 0.666 -0.127 0.666 -0.108 0.667 -0.089 0.665 -0.067 0.664 -0.047 0.662 -0.023 0.661 -0.001 0.657 0.024 0.655 0.048 0.652 0.074 0.647 0.101 0.644 0.128 0.64 0.157 0.635 0.185 0.63 0.216 0.625 0.247 0.62 0.279 0.614 0.312 0.61 0.346 0.602 0.381 0.597 0.418 0.59 0.455 0.584 0.494 0.577 0.533 0.569 0.574 0.562 0.616 0.553 0 0zm18.69 11.511l-1.294 0.55 0 0 -0.194 -0.403 -0.23 -0.379 -0.266 -0.361 -0.301 -0.344 -0.337 -0.33 -0.372 -0.317 -0.407 -0.305 -0.439 -0.295 -0.471 -0.286 -0.5 -0.278 -0.529 -0.272 -0.555 -0.266 -0.579 -0.263 -0.602 -0.262 -0.622 -0.261 -0.64 -0.264 -0.658 -0.267 -0.671 -0.274 -0.685 -0.281 -0.697 -0.29 -0.705 -0.303 -0.713 -0.316 -0.719 -0.332 -0.722 -0.35 -0.725 -0.37 -0.725 -0.393 -0.723 -0.416 -0.72 -0.443 -0.714 -0.471 -0.708 -0.501 -0.698 -0.534 -0.687 -0.569 0.918 -1.065 0.644 0.534 0.657 0.502 0.667 0.473 0.676 0.445 0.684 0.421 0.689 0.397 0.694 0.375 0.697 0.356 0.698 0.338 0.697 0.322 0.695 0.308 0.691 0.297 0.686 0.286 0.679 0.279 0.67 0.272 0.66 0.269 0.648 0.267 0.635 0.267 0.62 0.269 0.603 0.274 0.585 0.281 0.566 0.291 0.544 0.302 0.522 0.316 0.497 0.334 0.47 0.354 0.442 0.377 0.41 0.402 0.376 0.429 0.339 0.46 0.297 0.491 0.252 0.523 0 0zm-13.17 16.083l-0.488 -1.319 0 0 0.849 -0.326 0.826 -0.344 0.801 -0.36 0.778 -0.376 0.753 -0.389 0.726 -0.403 0.7 -0.416 0.673 -0.427 0.644 -0.437 0.616 -0.448 0.586 -0.456 0.555 -0.464 0.525 -0.471 0.492 -0.476 0.46 -0.481 0.427 -0.485 0.394 -0.488 0.359 -0.489 0.323 -0.49 0.288 -0.489 0.253 -0.487 0.216 -0.484 0.179 -0.481 0.143 -0.475 0.105 -0.47 0.069 -0.463 0.031 -0.457 -0.005 -0.45 -0.043 -0.443 -0.08 -0.436 -0.12 -0.429 -0.159 -0.424 1.294 -0.55 0.202 0.538 0.152 0.549 0.103 0.556 0.055 0.563 0.007 0.566 -0.039 0.569 -0.085 0.569 -0.127 0.569 -0.171 0.567 -0.21 0.565 -0.251 0.561 -0.288 0.558 -0.327 0.554 -0.362 0.548 -0.398 0.543 -0.433 0.536 -0.466 0.529 -0.499 0.523 -0.531 0.513 -0.563 0.505 -0.593 0.496 -0.623 0.485 -0.652 0.474 -0.682 0.463 -0.708 0.45 -0.736 0.436 -0.762 0.423 -0.788 0.408 -0.813 0.392 -0.837 0.376 -0.861 0.359 -0.884 0.34 0 0zm-24.733 -13.595l1.366 0.336 -0.34 1.588 -0.211 1.468 -0.089 1.353 0.024 1.24 0.129 1.132 0.229 1.026 0.318 0.929 0.403 0.836 0.482 0.75 0.556 0.672 0.629 0.598 0.697 0.528 0.762 0.462 0.824 0.397 0.879 0.336 0.931 0.275 0.974 0.216 1.014 0.16 1.046 0.107 1.072 0.056 1.091 0.008 1.104 -0.037 1.111 -0.08 1.11 -0.119 1.105 -0.154 1.092 -0.187 1.073 -0.216 1.049 -0.242 1.016 -0.265 0.979 -0.285 0.936 -0.299 0.884 -0.313 0.488 1.319 -0.924 0.326 -0.973 0.312 -1.017 0.295 -1.054 0.275 -1.087 0.251 -1.113 0.224 -1.133 0.194 -1.149 0.161 -1.158 0.123 -1.161 0.083 -1.159 0.04 -1.152 -0.008 -1.138 -0.06 -1.119 -0.115 -1.095 -0.172 -1.064 -0.237 -1.028 -0.304 -0.987 -0.376 -0.937 -0.453 -0.882 -0.534 -0.818 -0.621 -0.745 -0.71 -0.665 -0.802 -0.574 -0.895 -0.476 -0.988 -0.371 -1.082 -0.261 -1.175 -0.146 -1.27 -0.027 -1.367 0.097 -1.466 0.225 -1.569 0.358 -1.675zm0 0c0.093,-0.377 0.474,-0.608 0.851,-0.515 0.377,0.093 0.607,0.474 0.515,0.851l-1.366 -0.336z"/>
   </g>
   <g>
    <path class="fil0" d="M62.234 82.28c0.381,-0.073 0.75,0.177 0.823,0.559 0.072,0.381 -0.178,0.749 -0.559,0.822l-0.264 -1.381zm-7.281 -1.472l0.544 1.296 0 0 -1.08 0.465 -0.895 0.412 -0.717 0.359 -0.546 0.306 -0.376 0.246 -0.202 0.169 -0.023 0.02 0.033 -0.278 -0.156 -0.283 -0.03 -0.026 0.165 0.037 0.3 0.033 0.4 0.014 0.48 -0.007 0.544 -0.026 0.595 -0.044 0.637 -0.059 0.666 -0.073 0.686 -0.084 0.695 -0.092 0.696 -0.098 0.685 -0.103 0.666 -0.103 0.636 -0.103 0.598 -0.099 0.549 -0.094 0.49 -0.086 0.423 -0.076 0.344 -0.062 0.258 -0.048 0.162 -0.03 0.054 -0.011 0.264 1.381 -0.059 0.012 -0.164 0.03 -0.261 0.048 -0.35 0.064 -0.427 0.076 -0.495 0.087 -0.555 0.095 -0.603 0.1 -0.644 0.104 -0.674 0.105 -0.695 0.104 -0.707 0.1 -0.709 0.094 -0.702 0.085 -0.686 0.075 -0.66 0.062 -0.627 0.046 -0.585 0.029 -0.538 0.007 -0.485 -0.018 -0.434 -0.048 -0.4 -0.098 -0.405 -0.222 -0.324 -0.542 0.093 -0.606 0.283 -0.381 0.369 -0.312 0.481 -0.316 0.615 -0.345 0.766 -0.383 0.93 -0.429 1.107 -0.476 0 0zm37.732 -11.411l0.172 1.396 0 0 -0.906 0.12 -0.939 0.142 -0.97 0.162 -1 0.181 -1.027 0.201 -1.053 0.22 -1.077 0.237 -1.101 0.255 -1.122 0.271 -1.142 0.288 -1.16 0.304 -1.176 0.319 -1.192 0.333 -1.206 0.347 -1.217 0.36 -1.228 0.373 -1.238 0.385 -1.245 0.396 -1.25 0.407 -1.255 0.418 -1.258 0.427 -1.26 0.436 -1.259 0.445 -1.258 0.452 -1.255 0.46 -1.25 0.467 -1.244 0.472 -1.236 0.478 -1.227 0.483 -1.216 0.488 -1.203 0.49 -1.19 0.494 -0.544 -1.296 1.199 -0.498 1.212 -0.494 1.224 -0.491 1.234 -0.485 1.244 -0.482 1.252 -0.475 1.258 -0.47 1.262 -0.462 1.266 -0.456 1.267 -0.447 1.268 -0.439 1.266 -0.43 1.263 -0.42 1.26 -0.411 1.253 -0.399 1.246 -0.387 1.238 -0.376 1.227 -0.363 1.216 -0.35 1.203 -0.336 1.188 -0.321 1.172 -0.307 1.154 -0.291 1.135 -0.275 1.114 -0.258 1.093 -0.241 1.07 -0.223 1.045 -0.204 1.018 -0.185 0.991 -0.166 0.962 -0.145 0.932 -0.124 0 0zm9.461 6.581l-0.79 -1.162 0 0 0.725 -0.51 0.629 -0.478 0.536 -0.445 0.444 -0.41 0.354 -0.374 0.267 -0.334 0.183 -0.287 0.107 -0.232 0.044 -0.173 0.003 -0.116 -0.02 -0.083 -0.046 -0.084 -0.094 -0.105 -0.159 -0.122 -0.231 -0.128 -0.3 -0.125 -0.367 -0.115 -0.426 -0.102 -0.482 -0.086 -0.532 -0.071 -0.58 -0.054 -0.623 -0.038 -0.663 -0.021 -0.7 -0.005 -0.733 0.01 -0.764 0.025 -0.792 0.04 -0.817 0.054 -0.839 0.068 -0.859 0.08 -0.875 0.093 -0.889 0.105 -0.172 -1.396 0.904 -0.106 0.892 -0.095 0.877 -0.082 0.858 -0.069 0.838 -0.056 0.815 -0.041 0.79 -0.026 0.762 -0.01 0.732 0.005 0.7 0.023 0.665 0.04 0.63 0.059 0.591 0.078 0.553 0.1 0.512 0.123 0.472 0.148 0.432 0.18 0.39 0.218 0.345 0.267 0.29 0.329 0.21 0.393 0.104 0.441 -0.011 0.455 -0.112 0.447 -0.197 0.437 -0.275 0.432 -0.35 0.438 -0.426 0.45 -0.505 0.467 -0.587 0.488 -0.675 0.512 -0.763 0.536 0 0zm-21.712 11.385l-0.587 -1.277 0 0 0.481 -0.222 0.512 -0.235 0.54 -0.25 0.566 -0.262 0.592 -0.276 0.614 -0.287 0.636 -0.299 0.655 -0.308 0.673 -0.32 0.689 -0.329 0.703 -0.339 0.716 -0.346 0.726 -0.355 0.734 -0.362 0.742 -0.369 0.747 -0.374 0.75 -0.381 0.752 -0.385 0.752 -0.389 0.75 -0.393 0.746 -0.397 0.74 -0.399 0.733 -0.401 0.723 -0.402 0.713 -0.403 0.7 -0.403 0.685 -0.402 0.668 -0.402 0.65 -0.399 0.63 -0.397 0.607 -0.394 0.584 -0.39 0.79 1.162 -0.601 0.402 -0.623 0.404 -0.644 0.406 -0.663 0.408 -0.681 0.409 -0.695 0.409 -0.71 0.408 -0.722 0.408 -0.733 0.408 -0.74 0.405 -0.748 0.403 -0.753 0.4 -0.756 0.397 -0.758 0.392 -0.757 0.388 -0.756 0.383 -0.752 0.377 -0.746 0.371 -0.739 0.364 -0.73 0.357 -0.719 0.348 -0.707 0.34 -0.692 0.331 -0.676 0.321 -0.658 0.311 -0.638 0.3 -0.617 0.288 -0.593 0.276 -0.569 0.263 -0.541 0.25 -0.513 0.236 -0.482 0.222 0 0zm-2.224 0.595l-1.391 0.197 0 0.002 0.033 -0.343 0.097 -0.187 0.08 -0.095 0.061 -0.057 0.054 -0.045 0.05 -0.035 0.05 -0.034 0.052 -0.033 0.054 -0.033 0.056 -0.032 0.059 -0.033 0.063 -0.035 0.068 -0.036 0.073 -0.038 0.077 -0.04 0.083 -0.042 0.086 -0.043 0.091 -0.045 0.097 -0.047 0.102 -0.05 0.107 -0.051 0.112 -0.054 0.118 -0.056 0.123 -0.058 0.129 -0.061 0.134 -0.063 0.138 -0.064 0.146 -0.068 0.15 -0.07 0.156 -0.072 0.162 -0.074 0.167 -0.077 0.587 1.277 -0.166 0.077 -0.161 0.074 -0.154 0.071 -0.149 0.069 -0.143 0.067 -0.138 0.064 -0.132 0.062 -0.126 0.059 -0.121 0.057 -0.114 0.055 -0.109 0.052 -0.104 0.05 -0.098 0.047 -0.091 0.045 -0.087 0.043 -0.082 0.041 -0.073 0.037 -0.069 0.036 -0.063 0.033 -0.057 0.03 -0.051 0.028 -0.046 0.026 -0.037 0.021 -0.03 0.018 -0.021 0.013 -0.012 0.009 -0.003 0.002 0.012 -0.01 0.029 -0.028 0.056 -0.068 0.085 -0.163 0.031 -0.325 0 0.003zm1.923 -1.802l0.541 1.298 0 0 -0.09 0.038 -0.094 0.04 -0.1 0.044 -0.105 0.047 -0.109 0.049 -0.111 0.05 -0.114 0.053 -0.117 0.053 -0.118 0.055 -0.118 0.055 -0.12 0.056 -0.119 0.055 -0.119 0.055 -0.118 0.055 -0.116 0.055 -0.114 0.053 -0.112 0.051 -0.109 0.05 -0.105 0.048 -0.102 0.046 -0.097 0.043 -0.093 0.041 -0.089 0.038 -0.085 0.035 -0.078 0.031 -0.075 0.029 -0.075 0.026 -0.076 0.024 -0.09 0.023 -0.141 0.017 -0.309 -0.054 -0.437 -0.56 1.391 -0.197 -0.423 -0.545 -0.275 -0.049 -0.085 0.009 -0.017 0.004 0.015 -0.005 0.034 -0.012 0.05 -0.019 0.06 -0.024 0.069 -0.028 0.077 -0.033 0.084 -0.037 0.09 -0.04 0.097 -0.044 0.101 -0.046 0.106 -0.048 0.109 -0.051 0.112 -0.052 0.115 -0.053 0.117 -0.055 0.119 -0.055 0.12 -0.056 0.12 -0.056 0.121 -0.056 0.12 -0.055 0.118 -0.055 0.118 -0.054 0.116 -0.052 0.113 -0.051 0.11 -0.05 0.108 -0.047 0.104 -0.045 0.1 -0.042 0 0zm71.529 -16.543l0.156 1.397 -2.015 0.232 -2.06 0.251 -2.1 0.268 -2.138 0.287 -2.173 0.304 -2.204 0.323 -2.234 0.341 -2.259 0.358 -2.282 0.377 -2.301 0.396 -2.318 0.413 -2.331 0.431 -2.341 0.45 -2.349 0.468 -2.353 0.486 -2.354 0.504 -2.353 0.523 -2.348 0.541 -2.339 0.559 -2.328 0.577 -2.315 0.596 -2.297 0.614 -2.277 0.632 -2.254 0.65 -2.227 0.669 -2.198 0.688 -2.165 0.705 -2.13 0.724 -2.091 0.742 -2.049 0.76 -2.005 0.778 -1.956 0.797 -0.541 -1.298 1.978 -0.805 2.025 -0.787 2.069 -0.767 2.109 -0.749 2.147 -0.729 2.182 -0.711 2.213 -0.692 2.242 -0.673 2.268 -0.655 2.29 -0.636 2.311 -0.617 2.326 -0.599 2.34 -0.58 2.351 -0.562 2.359 -0.543 2.363 -0.525 2.364 -0.507 2.363 -0.488 2.359 -0.47 2.351 -0.451 2.34 -0.433 2.327 -0.415 2.31 -0.397 2.29 -0.378 2.268 -0.36 2.241 -0.343 2.214 -0.324 2.181 -0.305 2.147 -0.288 2.108 -0.269 2.068 -0.252 2.025 -0.233zm0 0c0.385,-0.043 0.733,0.235 0.776,0.62 0.043,0.386 -0.234,0.734 -0.62,0.777l-0.156 -1.397z"/>
   </g>
   <g>
    <path class="fil0" d="M151.415 74.287c-0.388,0 -0.703,-0.314 -0.703,-0.703 0,-0.388 0.315,-0.703 0.703,-0.703l0 1.406zm0.231 0l-0.231 0 0 -1.406 0.231 0 0 1.406zm0 -1.406c0.388,0 0.703,0.315 0.703,0.703 0,0.389 -0.315,0.703 -0.703,0.703l0 -1.406z"/>
   </g>
   <g>
    <path class="fil0" d="M99.979 27.66c0.011,-0.388 0.335,-0.693 0.723,-0.682 0.388,0.011 0.693,0.336 0.682,0.724l-1.405 -0.042zm-1.354 37.999l-1.406 0 0 0 0.006 -0.914 0.018 -0.886 0.028 -0.863 0.038 -0.845 0.049 -0.832 0.057 -0.821 0.065 -0.816 0.073 -0.816 0.08 -0.819 0.086 -0.827 0.092 -0.84 0.097 -0.857 0.102 -0.879 0.106 -0.905 0.108 -0.936 0.111 -0.972 0.114 -1.012 0.114 -1.058 0.116 -1.106 0.116 -1.161 0.115 -1.22 0.114 -1.283 0.113 -1.352 0.111 -1.423 0.108 -1.501 0.104 -1.583 0.1 -1.67 0.096 -1.76 0.09 -1.856 0.084 -1.956 0.078 -2.061 0.071 -2.169 1.405 0.042 -0.071 2.177 -0.078 2.068 -0.085 1.963 -0.09 1.864 -0.096 1.768 -0.101 1.678 -0.105 1.591 -0.108 1.51 -0.111 1.431 -0.114 1.36 -0.115 1.291 -0.116 1.227 -0.116 1.168 -0.117 1.113 -0.115 1.062 -0.114 1.016 -0.111 0.975 -0.109 0.937 -0.106 0.905 -0.101 0.877 -0.096 0.853 -0.092 0.834 -0.085 0.819 -0.079 0.808 -0.072 0.803 -0.064 0.803 -0.056 0.805 -0.047 0.815 -0.038 0.828 -0.028 0.845 -0.017 0.868 -0.006 0.895 0 0zm0.335 -1.147l1.17 0.78 -0.065 0.096 -0.067 0.098 -0.069 0.098 -0.07 0.099 -0.072 0.098 -0.073 0.098 -0.074 0.096 -0.075 0.094 -0.077 0.094 -0.077 0.091 -0.078 0.087 -0.079 0.086 -0.082 0.082 -0.083 0.079 -0.087 0.076 -0.091 0.072 -0.097 0.068 -0.107 0.064 -0.123 0.058 -0.141 0.048 -0.167 0.029 -0.194 -0.003 -0.208 -0.051 -0.195 -0.104 -0.154 -0.138 -0.112 -0.151 -0.075 -0.151 -0.05 -0.147 -0.033 -0.145 -0.021 -0.146 -0.011 -0.151 -0.004 -0.157 1.406 0 0.002 0.091 0.005 0.068 0.007 0.045 0.004 0.019 -0.004 -0.01 -0.02 -0.039 -0.047 -0.063 -0.083 -0.074 -0.114 -0.061 -0.122 -0.03 -0.1 -0.002 -0.067 0.011 -0.036 0.012 -0.012 0.005 0.008 -0.005 0.023 -0.016 0.032 -0.026 0.041 -0.035 0.046 -0.044 0.051 -0.052 0.054 -0.058 0.058 -0.065 0.059 -0.069 0.06 -0.073 0.062 -0.079 0.063 -0.081 0.061 -0.082 0.062 -0.085 0.063 -0.088 0.061 -0.087 0.06 -0.087 0.058 -0.087zm0 0c0.215,-0.323 0.652,-0.41 0.975,-0.195 0.323,0.215 0.41,0.652 0.195,0.975l-1.17 -0.78z"/>
   </g>
   <g>
    <path class="fil0" d="M108.25 46.66c0.303,-0.242 0.746,-0.192 0.988,0.111 0.242,0.304 0.192,0.747 -0.112,0.988l-0.876 -1.099zm-11.971 11.846l-1.258 -0.628 0 -0.001 0.16 -0.241 0.182 -0.208 0.227 -0.233 0.278 -0.266 0.326 -0.303 0.372 -0.334 0.415 -0.366 0.452 -0.393 0.486 -0.418 0.517 -0.439 0.54 -0.456 0.563 -0.47 0.578 -0.482 0.59 -0.489 0.598 -0.494 0.601 -0.493 0.599 -0.491 0.593 -0.484 0.583 -0.474 0.567 -0.461 0.549 -0.445 0.523 -0.423 0.496 -0.4 0.463 -0.373 0.425 -0.342 0.383 -0.307 0.336 -0.27 0.286 -0.229 0.229 -0.184 0.17 -0.136 0.106 -0.084 0.036 -0.029 0.876 1.099 -0.036 0.029 -0.104 0.083 -0.169 0.136 -0.23 0.183 -0.285 0.229 -0.335 0.269 -0.382 0.307 -0.425 0.341 -0.461 0.372 -0.495 0.4 -0.523 0.423 -0.547 0.443 -0.566 0.46 -0.582 0.473 -0.591 0.483 -0.597 0.489 -0.599 0.492 -0.596 0.491 -0.588 0.487 -0.575 0.479 -0.559 0.468 -0.537 0.454 -0.511 0.434 -0.481 0.413 -0.445 0.387 -0.405 0.358 -0.36 0.324 -0.31 0.286 -0.253 0.243 -0.189 0.193 -0.111 0.125 0 -0.007 0 0zm10.778 0.684l1.316 0.493 0 0 -0.207 0.386 -0.284 0.317 -0.334 0.253 -0.373 0.205 -0.407 0.167 -0.439 0.137 -0.469 0.111 -0.496 0.088 -0.522 0.068 -0.544 0.048 -0.561 0.029 -0.576 0.011 -0.587 -0.005 -0.593 -0.023 -0.595 -0.038 -0.593 -0.054 -0.587 -0.069 -0.576 -0.084 -0.563 -0.099 -0.544 -0.112 -0.521 -0.127 -0.496 -0.14 -0.467 -0.156 -0.434 -0.171 -0.399 -0.188 -0.364 -0.211 -0.324 -0.239 -0.283 -0.283 -0.225 -0.343 -0.132 -0.413 0.003 -0.449 0.14 -0.421 1.258 0.628 -0.013 0.033 0.001 -0.009 0.006 0.012 0.045 0.065 0.109 0.108 0.181 0.133 0.247 0.142 0.306 0.144 0.356 0.14 0.402 0.134 0.439 0.124 0.473 0.115 0.499 0.103 0.522 0.091 0.538 0.078 0.549 0.065 0.556 0.051 0.558 0.036 0.555 0.021 0.546 0.005 0.533 -0.01 0.514 -0.027 0.489 -0.043 0.461 -0.059 0.425 -0.076 0.384 -0.091 0.335 -0.104 0.279 -0.114 0.215 -0.118 0.149 -0.11 0.083 -0.091 0.036 -0.064 0 0zm-0.516 -1.219l-0.413 -1.345 0.001 0 0.144 -0.036 0.144 -0.023 0.146 -0.009 0.144 0.004 0.14 0.017 0.137 0.028 0.132 0.038 0.129 0.048 0.124 0.058 0.118 0.066 0.113 0.073 0.109 0.082 0.102 0.088 0.098 0.096 0.092 0.101 0.084 0.107 0.08 0.114 0.072 0.119 0.067 0.124 0.059 0.131 0.05 0.134 0.044 0.14 0.035 0.144 0.026 0.147 0.017 0.151 0.008 0.155 -0.002 0.156 -0.013 0.159 -0.022 0.16 -0.034 0.162 -0.044 0.162 -0.055 0.161 -1.316 -0.493 0.027 -0.081 0.021 -0.078 0.016 -0.074 0.01 -0.072 0.005 -0.071 0.001 -0.068 -0.003 -0.064 -0.007 -0.062 -0.011 -0.061 -0.014 -0.058 -0.018 -0.056 -0.02 -0.055 -0.023 -0.049 -0.026 -0.049 -0.028 -0.046 -0.029 -0.042 -0.032 -0.04 -0.032 -0.036 -0.033 -0.032 -0.033 -0.028 -0.033 -0.025 -0.033 -0.022 -0.032 -0.018 -0.029 -0.013 -0.029 -0.011 -0.026 -0.008 -0.023 -0.004 -0.02 -0.003 -0.018 0 -0.015 0.001 -0.015 0.002 -0.014 0.004 0 0zm1.126 2.11l-0.69 1.226 0.001 0 -0.208 -0.124 -0.196 -0.131 -0.183 -0.138 -0.171 -0.144 -0.16 -0.149 -0.147 -0.155 -0.134 -0.158 -0.122 -0.161 -0.112 -0.166 -0.099 -0.168 -0.087 -0.168 -0.076 -0.171 -0.065 -0.171 -0.054 -0.17 -0.043 -0.171 -0.032 -0.169 -0.021 -0.168 -0.012 -0.167 0 -0.164 0.009 -0.161 0.02 -0.157 0.03 -0.156 0.042 -0.152 0.053 -0.148 0.065 -0.143 0.077 -0.137 0.092 -0.132 0.107 -0.124 0.122 -0.112 0.137 -0.099 0.153 -0.083 0.165 -0.064 0.413 1.345 0.012 -0.005 0.009 -0.005 0.003 -0.002 -0.003 0.003 -0.008 0.009 -0.011 0.017 -0.015 0.025 -0.015 0.034 -0.015 0.042 -0.013 0.049 -0.012 0.058 -0.008 0.065 -0.004 0.071 0 0.075 0.006 0.08 0.011 0.084 0.016 0.088 0.023 0.091 0.029 0.093 0.036 0.095 0.043 0.097 0.051 0.098 0.058 0.098 0.066 0.098 0.075 0.099 0.084 0.098 0.092 0.097 0.101 0.095 0.113 0.095 0.123 0.092 0.133 0.09 0.146 0.086 0 0zm3.32 -1.39l1.273 0.597 0 0 -0.061 0.12 -0.068 0.118 -0.075 0.119 -0.083 0.122 -0.091 0.121 -0.098 0.123 -0.106 0.123 -0.113 0.124 -0.12 0.124 -0.129 0.123 -0.134 0.121 -0.142 0.118 -0.148 0.117 -0.156 0.112 -0.162 0.109 -0.169 0.103 -0.177 0.097 -0.182 0.09 -0.188 0.083 -0.196 0.074 -0.201 0.063 -0.208 0.053 -0.214 0.04 -0.219 0.027 -0.223 0.012 -0.228 -0.004 -0.231 -0.022 -0.233 -0.039 -0.233 -0.058 -0.234 -0.079 -0.231 -0.097 -0.23 -0.118 0.69 -1.226 0.136 0.07 0.133 0.057 0.129 0.043 0.129 0.032 0.127 0.021 0.125 0.012 0.126 0.002 0.126 -0.007 0.126 -0.015 0.125 -0.024 0.127 -0.032 0.126 -0.04 0.125 -0.047 0.126 -0.055 0.123 -0.061 0.122 -0.067 0.119 -0.073 0.116 -0.078 0.113 -0.082 0.109 -0.085 0.105 -0.088 0.1 -0.09 0.094 -0.091 0.089 -0.091 0.082 -0.09 0.076 -0.088 0.069 -0.086 0.061 -0.082 0.052 -0.076 0.044 -0.069 0.035 -0.061 0.025 -0.049 0 0zm0.392 -2.471l1.057 -0.926 0 0 0.098 0.122 0.086 0.128 0.073 0.134 0.061 0.136 0.05 0.136 0.04 0.14 0.03 0.138 0.023 0.138 0.014 0.138 0.008 0.137 0.003 0.138 -0.004 0.136 -0.008 0.135 -0.013 0.135 -0.017 0.133 -0.021 0.132 -0.024 0.132 -0.027 0.13 -0.03 0.128 -0.032 0.127 -0.035 0.124 -0.036 0.123 -0.038 0.121 -0.04 0.119 -0.04 0.115 -0.042 0.113 -0.042 0.11 -0.043 0.107 -0.043 0.103 -0.042 0.098 -0.043 0.097 -0.042 0.091 -1.273 -0.597 0.034 -0.075 0.035 -0.078 0.036 -0.084 0.036 -0.087 0.036 -0.088 0.035 -0.092 0.034 -0.093 0.034 -0.096 0.032 -0.097 0.031 -0.097 0.03 -0.099 0.027 -0.1 0.025 -0.099 0.023 -0.098 0.021 -0.098 0.017 -0.095 0.015 -0.094 0.012 -0.093 0.008 -0.089 0.006 -0.086 0.002 -0.082 -0.001 -0.077 -0.005 -0.074 -0.007 -0.067 -0.01 -0.063 -0.012 -0.055 -0.014 -0.049 -0.016 -0.044 -0.017 -0.038 -0.017 -0.032 -0.019 -0.028 -0.019 -0.024 0 0zm-2.676 6.695l-1.25 0.645 0 -0.001 -0.184 -0.401 -0.149 -0.415 -0.115 -0.425 -0.082 -0.432 -0.053 -0.438 -0.024 -0.439 0.002 -0.442 0.027 -0.441 0.05 -0.437 0.072 -0.433 0.092 -0.427 0.112 -0.419 0.131 -0.409 0.147 -0.397 0.164 -0.383 0.178 -0.368 0.194 -0.351 0.208 -0.332 0.222 -0.311 0.236 -0.288 0.25 -0.264 0.266 -0.236 0.283 -0.206 0.301 -0.172 0.321 -0.13 0.341 -0.083 0.356 -0.024 0.36 0.041 0.353 0.109 0.334 0.174 0.308 0.231 0.282 0.283 -1.057 0.926 -0.151 -0.151 -0.135 -0.102 -0.118 -0.061 -0.106 -0.033 -0.101 -0.011 -0.109 0.008 -0.122 0.03 -0.139 0.057 -0.153 0.087 -0.164 0.12 -0.171 0.153 -0.174 0.183 -0.174 0.212 -0.17 0.24 -0.165 0.263 -0.157 0.285 -0.149 0.304 -0.136 0.32 -0.124 0.335 -0.11 0.346 -0.095 0.354 -0.078 0.361 -0.061 0.364 -0.042 0.365 -0.022 0.364 -0.002 0.36 0.02 0.353 0.041 0.344 0.064 0.333 0.085 0.319 0.11 0.305 0.132 0.288 0 0zm2.269 -0.334l1.138 0.825 0 0 -0.134 0.174 -0.141 0.162 -0.147 0.149 -0.153 0.136 -0.157 0.124 -0.162 0.111 -0.166 0.099 -0.169 0.086 -0.17 0.074 -0.173 0.062 -0.173 0.05 -0.172 0.038 -0.173 0.028 -0.17 0.017 -0.169 0.007 -0.167 -0.003 -0.163 -0.012 -0.162 -0.021 -0.157 -0.029 -0.154 -0.038 -0.15 -0.046 -0.145 -0.053 -0.14 -0.061 -0.137 -0.069 -0.13 -0.076 -0.124 -0.083 -0.119 -0.091 -0.112 -0.1 -0.105 -0.106 -0.097 -0.116 -0.088 -0.126 -0.078 -0.133 1.25 -0.645 0.012 0.021 0.018 0.025 0.024 0.029 0.032 0.032 0.037 0.033 0.044 0.034 0.051 0.034 0.057 0.033 0.061 0.031 0.067 0.029 0.071 0.026 0.074 0.023 0.078 0.019 0.081 0.015 0.082 0.011 0.086 0.006 0.086 0.001 0.087 -0.003 0.089 -0.009 0.087 -0.014 0.09 -0.02 0.088 -0.025 0.088 -0.032 0.089 -0.038 0.088 -0.045 0.088 -0.052 0.087 -0.06 0.087 -0.069 0.086 -0.077 0.086 -0.087 0.084 -0.097 0.084 -0.108 0 0zm3.169 -5.953l1.4 0.126 0 0.001 -0.024 0.153 -0.035 0.133 -0.043 0.134 -0.051 0.141 -0.059 0.151 -0.067 0.165 -0.076 0.175 -0.082 0.187 -0.091 0.198 -0.097 0.208 -0.103 0.217 -0.109 0.224 -0.114 0.232 -0.119 0.238 -0.123 0.243 -0.127 0.246 -0.13 0.25 -0.133 0.251 -0.135 0.252 -0.136 0.251 -0.138 0.25 -0.137 0.246 -0.138 0.244 -0.138 0.239 -0.136 0.234 -0.135 0.226 -0.133 0.219 -0.13 0.209 -0.128 0.201 -0.125 0.189 -0.121 0.178 -0.118 0.167 -1.138 -0.825 0.1 -0.142 0.108 -0.159 0.114 -0.172 0.118 -0.186 0.122 -0.197 0.126 -0.207 0.129 -0.216 0.131 -0.224 0.133 -0.23 0.133 -0.236 0.134 -0.24 0.133 -0.243 0.133 -0.244 0.131 -0.244 0.129 -0.245 0.127 -0.242 0.123 -0.24 0.12 -0.236 0.115 -0.23 0.11 -0.224 0.105 -0.216 0.099 -0.207 0.091 -0.198 0.085 -0.185 0.077 -0.173 0.068 -0.159 0.058 -0.142 0.048 -0.123 0.037 -0.103 0.024 -0.074 0.01 -0.039 -0.002 0.022 0 0.001zm0.7 0.86l-1.406 0.028 0 0 0 -0.149 0.005 -0.144 0.011 -0.137 0.016 -0.132 0.021 -0.127 0.026 -0.121 0.033 -0.117 0.038 -0.112 0.043 -0.108 0.05 -0.103 0.056 -0.097 0.064 -0.094 0.073 -0.089 0.08 -0.083 0.092 -0.076 0.103 -0.069 0.115 -0.057 0.124 -0.043 0.14 -0.027 0.147 -0.004 0.146 0.02 0.144 0.045 0.135 0.068 0.117 0.088 0.1 0.102 0.079 0.11 0.06 0.115 0.045 0.12 0.029 0.117 0.015 0.115 0.005 0.114 -0.006 0.113 -1.4 -0.126 0 0.005 0 0.014 0.003 0.023 0.009 0.033 0.016 0.045 0.026 0.049 0.038 0.053 0.053 0.054 0.066 0.049 0.079 0.041 0.084 0.026 0.083 0.011 0.082 -0.002 0.072 -0.014 0.056 -0.019 0.045 -0.023 0.034 -0.022 0.022 -0.018 0.013 -0.013 0.005 -0.007 0 0 -0.005 0.009 -0.009 0.017 -0.01 0.025 -0.011 0.034 -0.012 0.043 -0.011 0.053 -0.011 0.061 -0.008 0.069 -0.006 0.079 -0.003 0.087 0 0.098 0 0zm0.932 4.588l-0.837 1.13 0 0 -0.143 -0.123 -0.119 -0.132 -0.1 -0.137 -0.089 -0.142 -0.08 -0.149 -0.074 -0.154 -0.067 -0.161 -0.065 -0.167 -0.06 -0.174 -0.057 -0.179 -0.055 -0.186 -0.052 -0.19 -0.049 -0.194 -0.047 -0.198 -0.044 -0.203 -0.042 -0.203 -0.04 -0.206 -0.038 -0.207 -0.035 -0.207 -0.033 -0.207 -0.03 -0.205 -0.029 -0.204 -0.026 -0.201 -0.024 -0.197 -0.021 -0.192 -0.02 -0.188 -0.016 -0.183 -0.014 -0.175 -0.012 -0.169 -0.009 -0.161 -0.007 -0.152 -0.004 -0.144 1.406 -0.028 0.003 0.12 0.006 0.133 0.008 0.143 0.011 0.152 0.013 0.161 0.015 0.168 0.018 0.174 0.02 0.18 0.022 0.184 0.024 0.187 0.027 0.191 0.029 0.191 0.03 0.193 0.033 0.192 0.035 0.191 0.037 0.19 0.038 0.186 0.04 0.183 0.042 0.177 0.043 0.172 0.045 0.164 0.046 0.156 0.047 0.147 0.047 0.136 0.048 0.124 0.047 0.111 0.045 0.097 0.042 0.077 0.037 0.06 0.028 0.039 0.014 0.015 -0.008 -0.006 0 0zm2.014 -5.767l1.249 -0.646 0 0 0.148 0.323 0.118 0.333 0.089 0.342 0.064 0.347 0.04 0.353 0.017 0.355 -0.004 0.357 -0.023 0.358 -0.042 0.356 -0.058 0.354 -0.075 0.351 -0.09 0.346 -0.103 0.339 -0.117 0.332 -0.13 0.323 -0.141 0.314 -0.153 0.301 -0.163 0.289 -0.174 0.275 -0.184 0.259 -0.194 0.243 -0.205 0.224 -0.217 0.204 -0.23 0.183 -0.244 0.158 -0.262 0.129 -0.281 0.093 -0.298 0.051 -0.309 -0.003 -0.309 -0.059 -0.297 -0.118 -0.273 -0.169 0.837 -1.13 0.072 0.045 0.057 0.023 0.051 0.009 0.056 0 0.069 -0.012 0.087 -0.029 0.104 -0.052 0.119 -0.077 0.129 -0.103 0.135 -0.128 0.14 -0.153 0.14 -0.174 0.139 -0.196 0.135 -0.215 0.13 -0.23 0.124 -0.245 0.116 -0.257 0.108 -0.268 0.097 -0.276 0.086 -0.283 0.075 -0.286 0.061 -0.289 0.048 -0.289 0.034 -0.288 0.018 -0.283 0.003 -0.278 -0.013 -0.27 -0.029 -0.259 -0.045 -0.247 -0.061 -0.234 -0.078 -0.22 -0.093 -0.203 0 0zm-0.293 1.712l-1.357 0.367 -0.06 -0.246 -0.045 -0.24 -0.03 -0.232 -0.017 -0.226 -0.002 -0.219 0.012 -0.211 0.024 -0.204 0.037 -0.195 0.05 -0.188 0.061 -0.178 0.073 -0.169 0.084 -0.161 0.094 -0.148 0.103 -0.138 0.112 -0.127 0.121 -0.115 0.127 -0.103 0.133 -0.09 0.142 -0.078 0.146 -0.064 0.151 -0.049 0.154 -0.034 0.158 -0.018 0.162 -0.002 0.164 0.018 0.161 0.038 0.158 0.059 0.154 0.081 0.142 0.102 0.128 0.121 0.111 0.14 0.091 0.151 -1.249 0.646 0.002 0.004 0.008 0.01 0.012 0.011 0.014 0.01 0.015 0.008 0.01 0.004 0.007 0.001 0.002 0.001 -0.004 0 -0.011 0.001 -0.018 0.004 -0.022 0.007 -0.024 0.011 -0.029 0.016 -0.032 0.022 -0.035 0.027 -0.034 0.033 -0.036 0.04 -0.035 0.048 -0.035 0.055 -0.032 0.062 -0.031 0.071 -0.028 0.081 -0.024 0.089 -0.019 0.099 -0.013 0.11 -0.006 0.12 0.001 0.131 0.011 0.142 0.02 0.153 0.031 0.164 0.042 0.177zm0 0c0.102,0.374 -0.12,0.761 -0.495,0.862 -0.374,0.101 -0.761,-0.12 -0.862,-0.495l1.357 -0.367z"/>
   </g>
   <g>
    <path class="fil0" d="M123.173 54.04c0.358,0.149 0.527,0.562 0.377,0.92 -0.15,0.358 -0.562,0.527 -0.92,0.377l0.543 -1.297zm-2.06 1.483l-1.401 0.114 0 0 -0.01 -0.238 0.012 -0.23 0.035 -0.222 0.06 -0.213 0.087 -0.202 0.112 -0.184 0.136 -0.164 0.153 -0.14 0.165 -0.112 0.17 -0.088 0.173 -0.066 0.17 -0.046 0.169 -0.03 0.164 -0.017 0.16 -0.007 0.157 0.003 0.153 0.01 0.147 0.016 0.142 0.021 0.139 0.024 0.131 0.028 0.124 0.03 0.118 0.031 0.11 0.031 0.1 0.031 0.091 0.029 0.081 0.028 0.068 0.024 0.056 0.021 0.043 0.017 0.027 0.01 0.018 0.008 -0.543 1.297 0.003 0.001 -0.018 -0.007 -0.028 -0.011 -0.04 -0.015 -0.052 -0.019 -0.059 -0.02 -0.069 -0.023 -0.077 -0.023 -0.082 -0.023 -0.087 -0.023 -0.091 -0.022 -0.093 -0.02 -0.094 -0.016 -0.095 -0.014 -0.093 -0.01 -0.088 -0.006 -0.083 -0.002 -0.078 0.003 -0.067 0.007 -0.057 0.01 -0.046 0.012 -0.033 0.012 -0.022 0.012 -0.013 0.008 -0.007 0.006 -0.006 0.007 -0.008 0.014 -0.011 0.025 -0.012 0.045 -0.011 0.067 -0.005 0.092 0.005 0.119 0 0zm3.908 2.319l-0.994 0.994 0 0.001 -0.008 -0.007 -0.032 -0.022 -0.055 -0.032 -0.077 -0.038 -0.096 -0.041 -0.111 -0.045 -0.125 -0.045 -0.138 -0.047 -0.148 -0.049 -0.158 -0.05 -0.165 -0.052 -0.172 -0.054 -0.177 -0.058 -0.181 -0.06 -0.184 -0.065 -0.186 -0.069 -0.187 -0.074 -0.188 -0.08 -0.188 -0.088 -0.186 -0.095 -0.183 -0.104 -0.179 -0.114 -0.175 -0.125 -0.169 -0.139 -0.161 -0.153 -0.15 -0.167 -0.137 -0.184 -0.122 -0.2 -0.103 -0.216 -0.083 -0.231 -0.058 -0.243 -0.033 -0.253 1.401 -0.114 0.015 0.112 0.024 0.099 0.032 0.091 0.041 0.085 0.05 0.081 0.06 0.081 0.072 0.08 0.082 0.078 0.095 0.077 0.105 0.076 0.117 0.074 0.127 0.072 0.136 0.069 0.142 0.067 0.15 0.064 0.156 0.062 0.159 0.058 0.164 0.057 0.165 0.056 0.166 0.054 0.167 0.052 0.166 0.053 0.164 0.052 0.163 0.053 0.159 0.055 0.157 0.057 0.153 0.06 0.149 0.066 0.147 0.073 0.145 0.084 0.142 0.1 0.138 0.121 0 0zm-0.546 4.077l-0.496 -1.315 0 0 0.107 -0.045 0.092 -0.045 0.077 -0.045 0.065 -0.045 0.052 -0.043 0.043 -0.042 0.036 -0.041 0.027 -0.038 0.023 -0.039 0.018 -0.04 0.015 -0.041 0.012 -0.043 0.008 -0.047 0.005 -0.051 0.001 -0.056 -0.002 -0.058 -0.008 -0.062 -0.011 -0.066 -0.015 -0.068 -0.02 -0.07 -0.025 -0.072 -0.029 -0.073 -0.032 -0.073 -0.035 -0.071 -0.039 -0.072 -0.042 -0.07 -0.043 -0.067 -0.046 -0.065 -0.046 -0.062 -0.048 -0.057 -0.046 -0.053 -0.046 -0.048 0.994 -0.994 0.086 0.09 0.083 0.094 0.081 0.099 0.078 0.102 0.075 0.107 0.073 0.112 0.068 0.116 0.065 0.119 0.062 0.125 0.057 0.128 0.051 0.131 0.046 0.135 0.039 0.138 0.033 0.143 0.025 0.146 0.016 0.15 0.007 0.153 -0.004 0.155 -0.015 0.157 -0.029 0.159 -0.042 0.16 -0.058 0.158 -0.072 0.154 -0.087 0.15 -0.103 0.144 -0.117 0.135 -0.13 0.128 -0.144 0.118 -0.156 0.108 -0.168 0.097 -0.177 0.088 -0.189 0.078 0 0zm-4.617 -2.144l1.38 0.268 0 0.001 -0.002 0.011 0 0.007 0.002 0.009 0.003 0.013 0.009 0.021 0.014 0.026 0.024 0.034 0.033 0.039 0.042 0.044 0.054 0.047 0.064 0.048 0.074 0.05 0.083 0.048 0.09 0.047 0.1 0.045 0.106 0.043 0.112 0.039 0.118 0.036 0.122 0.031 0.126 0.027 0.13 0.022 0.132 0.017 0.134 0.012 0.135 0.006 0.135 0 0.135 -0.005 0.134 -0.011 0.132 -0.017 0.129 -0.023 0.128 -0.03 0.123 -0.035 0.12 -0.041 0.496 1.315 -0.193 0.067 -0.195 0.055 -0.196 0.046 -0.198 0.035 -0.197 0.026 -0.197 0.016 -0.196 0.008 -0.195 -0.001 -0.193 -0.009 -0.192 -0.016 -0.188 -0.025 -0.186 -0.031 -0.183 -0.039 -0.18 -0.046 -0.175 -0.053 -0.171 -0.059 -0.165 -0.067 -0.161 -0.073 -0.156 -0.081 -0.15 -0.088 -0.143 -0.096 -0.137 -0.104 -0.129 -0.114 -0.121 -0.123 -0.111 -0.134 -0.1 -0.146 -0.087 -0.159 -0.069 -0.17 -0.05 -0.182 -0.027 -0.191 -0.001 -0.196 0.025 -0.195 0 0.001zm6.648 -2.272l-1.258 -0.627 0 -0.001 -0.048 0.169 0.057 0.321 0.194 0.23 0.135 0.067 0.034 0.007 -0.038 0 -0.085 0.005 -0.12 0.014 -0.147 0.026 -0.168 0.036 -0.187 0.047 -0.201 0.057 -0.214 0.066 -0.222 0.076 -0.229 0.085 -0.234 0.092 -0.236 0.1 -0.236 0.107 -0.233 0.113 -0.23 0.119 -0.221 0.124 -0.214 0.128 -0.201 0.132 -0.188 0.133 -0.172 0.135 -0.153 0.133 -0.133 0.131 -0.11 0.126 -0.087 0.117 -0.062 0.106 -0.04 0.09 -0.021 0.076 -1.38 -0.268 0.076 -0.279 0.113 -0.259 0.141 -0.241 0.165 -0.224 0.182 -0.209 0.2 -0.197 0.214 -0.186 0.226 -0.178 0.238 -0.169 0.246 -0.16 0.254 -0.153 0.261 -0.146 0.265 -0.137 0.267 -0.13 0.269 -0.121 0.267 -0.114 0.265 -0.105 0.262 -0.096 0.255 -0.087 0.248 -0.077 0.24 -0.068 0.229 -0.058 0.22 -0.047 0.209 -0.036 0.2 -0.025 0.193 -0.01 0.198 0.008 0.22 0.041 0.27 0.127 0.273 0.317 0.074 0.436 -0.093 0.312 0.001 -0.001zm-0.9 2.475l-1.406 -0.031 0 0 0.005 -0.134 0.009 -0.133 0.013 -0.13 0.016 -0.127 0.02 -0.126 0.023 -0.124 0.025 -0.12 0.028 -0.118 0.031 -0.115 0.033 -0.113 0.034 -0.11 0.037 -0.108 0.038 -0.105 0.039 -0.103 0.041 -0.101 0.042 -0.097 0.041 -0.094 0.043 -0.093 0.043 -0.09 0.043 -0.087 0.042 -0.085 0.043 -0.082 0.041 -0.08 0.042 -0.078 0.04 -0.075 0.038 -0.07 0.038 -0.07 0.036 -0.066 0.034 -0.064 0.032 -0.062 0.03 -0.057 0.028 -0.054 1.258 0.627 -0.035 0.069 -0.036 0.07 -0.036 0.068 -0.037 0.068 -0.037 0.069 -0.037 0.069 -0.039 0.072 -0.038 0.069 -0.037 0.07 -0.037 0.072 -0.037 0.072 -0.037 0.073 -0.036 0.074 -0.036 0.074 -0.034 0.075 -0.034 0.076 -0.032 0.077 -0.032 0.077 -0.029 0.078 -0.029 0.079 -0.027 0.079 -0.026 0.082 -0.024 0.082 -0.022 0.082 -0.019 0.084 -0.019 0.085 -0.015 0.085 -0.014 0.085 -0.011 0.089 -0.009 0.09 -0.006 0.09 -0.003 0.091 0 0zm2.255 0.688l1.063 0.92 0 0 -0.16 0.169 -0.172 0.152 -0.181 0.131 -0.188 0.112 -0.195 0.092 -0.2 0.074 -0.202 0.053 -0.202 0.036 -0.201 0.019 -0.2 0.003 -0.197 -0.011 -0.194 -0.025 -0.19 -0.038 -0.185 -0.049 -0.18 -0.06 -0.176 -0.071 -0.17 -0.08 -0.164 -0.088 -0.158 -0.097 -0.151 -0.105 -0.145 -0.113 -0.137 -0.12 -0.129 -0.128 -0.121 -0.135 -0.111 -0.143 -0.101 -0.15 -0.09 -0.159 -0.078 -0.165 -0.063 -0.174 -0.048 -0.184 -0.028 -0.19 -0.007 -0.195 1.406 0.031 0.001 0.034 0.006 0.039 0.012 0.046 0.02 0.053 0.027 0.059 0.036 0.063 0.044 0.065 0.053 0.068 0.061 0.069 0.068 0.067 0.076 0.066 0.081 0.064 0.086 0.059 0.092 0.057 0.095 0.051 0.097 0.046 0.099 0.039 0.1 0.034 0.101 0.027 0.1 0.019 0.097 0.013 0.095 0.006 0.093 -0.002 0.09 -0.008 0.086 -0.015 0.083 -0.022 0.079 -0.029 0.078 -0.037 0.076 -0.045 0.075 -0.054 0.074 -0.066 0.074 -0.078 0 0zm-1.114 -3.171l1.073 -0.908 0 0 0.059 0.069 0.066 0.078 0.072 0.087 0.078 0.094 0.083 0.101 0.086 0.108 0.089 0.115 0.091 0.121 0.092 0.126 0.093 0.133 0.093 0.138 0.091 0.142 0.091 0.148 0.087 0.154 0.084 0.158 0.08 0.163 0.075 0.167 0.068 0.173 0.062 0.176 0.053 0.182 0.044 0.186 0.034 0.192 0.021 0.196 0.008 0.199 -0.008 0.203 -0.025 0.206 -0.043 0.206 -0.063 0.204 -0.083 0.203 -0.105 0.198 -0.124 0.191 -0.145 0.182 -1.063 -0.92 0.067 -0.085 0.054 -0.082 0.042 -0.08 0.033 -0.081 0.025 -0.082 0.018 -0.084 0.01 -0.087 0.004 -0.092 -0.004 -0.096 -0.011 -0.101 -0.019 -0.105 -0.026 -0.109 -0.033 -0.113 -0.04 -0.116 -0.047 -0.117 -0.053 -0.118 -0.058 -0.119 -0.064 -0.12 -0.067 -0.118 -0.071 -0.117 -0.074 -0.116 -0.077 -0.113 -0.077 -0.111 -0.079 -0.107 -0.078 -0.104 -0.077 -0.1 -0.076 -0.096 -0.074 -0.09 -0.072 -0.086 -0.067 -0.081 -0.064 -0.075 -0.059 -0.069 0 -0.001zm0.084 -2.766l0.473 1.324 0 0 -0.026 0.01 -0.018 0.009 -0.006 0.003 0.003 -0.002 0.009 -0.008 0.013 -0.013 0.017 -0.022 0.018 -0.028 0.014 -0.03 0.01 -0.029 0.006 -0.026 0.003 -0.023 0.001 -0.015 -0.001 -0.008 0 0.001 0.002 0.008 0.005 0.016 0.008 0.022 0.01 0.026 0.015 0.032 0.019 0.037 0.021 0.04 0.027 0.044 0.029 0.047 0.032 0.049 0.036 0.052 0.039 0.053 0.042 0.056 0.043 0.056 0.047 0.058 0.048 0.059 0.05 0.06 -1.073 0.908 -0.06 -0.071 -0.059 -0.073 -0.058 -0.072 -0.057 -0.074 -0.055 -0.073 -0.054 -0.075 -0.052 -0.075 -0.051 -0.077 -0.048 -0.077 -0.046 -0.078 -0.045 -0.081 -0.041 -0.082 -0.039 -0.085 -0.037 -0.089 -0.031 -0.091 -0.027 -0.094 -0.022 -0.099 -0.015 -0.105 -0.008 -0.11 0.002 -0.114 0.014 -0.119 0.028 -0.12 0.04 -0.118 0.055 -0.116 0.07 -0.111 0.079 -0.1 0.087 -0.088 0.095 -0.079 0.101 -0.069 0.104 -0.058 0.104 -0.05 0.11 -0.043 0 0zm5.295 2.309l-1.244 0.656 0 0 -0.052 -0.09 -0.062 -0.091 -0.073 -0.092 -0.084 -0.092 -0.093 -0.092 -0.103 -0.092 -0.112 -0.09 -0.12 -0.088 -0.128 -0.086 -0.134 -0.083 -0.14 -0.079 -0.144 -0.076 -0.148 -0.073 -0.152 -0.068 -0.153 -0.064 -0.154 -0.06 -0.155 -0.056 -0.153 -0.05 -0.152 -0.046 -0.15 -0.041 -0.146 -0.036 -0.141 -0.031 -0.135 -0.025 -0.129 -0.021 -0.119 -0.015 -0.111 -0.011 -0.1 -0.005 -0.085 -0.001 -0.071 0.003 -0.05 0.005 -0.028 0.005 -0.001 0 -0.473 -1.324 0.153 -0.045 0.15 -0.028 0.149 -0.016 0.15 -0.006 0.153 0.002 0.157 0.008 0.161 0.015 0.166 0.022 0.17 0.027 0.175 0.033 0.178 0.039 0.181 0.044 0.184 0.051 0.187 0.056 0.187 0.062 0.189 0.067 0.19 0.074 0.189 0.079 0.187 0.085 0.187 0.091 0.184 0.097 0.181 0.104 0.178 0.11 0.173 0.116 0.169 0.124 0.163 0.131 0.156 0.138 0.15 0.148 0.14 0.156 0.131 0.165 0.12 0.175 0.107 0.185 0 0zm-2.111 3.805l0.895 -1.084 0 0 0.08 0.06 0.062 0.039 0.041 0.02 0.019 0.006 -0.003 0 -0.023 0 -0.03 0.005 -0.03 0.011 -0.02 0.011 -0.006 0.004 0.007 -0.007 0.016 -0.023 0.022 -0.038 0.025 -0.054 0.026 -0.069 0.025 -0.083 0.022 -0.093 0.018 -0.104 0.015 -0.113 0.009 -0.118 0.004 -0.126 -0.001 -0.13 -0.007 -0.131 -0.012 -0.135 -0.017 -0.134 -0.024 -0.135 -0.028 -0.132 -0.034 -0.13 -0.039 -0.125 -0.044 -0.12 -0.048 -0.114 -0.053 -0.107 1.244 -0.656 0.087 0.178 0.078 0.183 0.068 0.186 0.058 0.188 0.05 0.19 0.041 0.19 0.034 0.192 0.025 0.192 0.017 0.19 0.009 0.191 0.002 0.187 -0.006 0.185 -0.015 0.185 -0.023 0.179 -0.031 0.176 -0.041 0.174 -0.051 0.168 -0.062 0.166 -0.075 0.16 -0.091 0.156 -0.109 0.149 -0.132 0.14 -0.156 0.126 -0.182 0.104 -0.204 0.075 -0.217 0.037 -0.22 -0.001 -0.212 -0.037 -0.203 -0.066 -0.192 -0.092 -0.182 -0.113 -0.176 -0.133 0 0zm9.141 -10.224l0.487 1.318 -1.021 0.389 -0.948 0.385 -0.879 0.379 -0.811 0.374 -0.746 0.369 -0.683 0.362 -0.621 0.355 -0.562 0.348 -0.506 0.339 -0.45 0.33 -0.399 0.32 -0.348 0.31 -0.301 0.298 -0.256 0.286 -0.213 0.272 -0.174 0.259 -0.138 0.243 -0.105 0.228 -0.075 0.212 -0.05 0.198 -0.027 0.184 -0.009 0.17 0.009 0.159 0.024 0.151 0.037 0.141 0.049 0.134 0.06 0.126 0.069 0.118 0.078 0.11 0.084 0.101 0.089 0.091 0.09 0.081 -0.895 1.084 -0.168 -0.15 -0.163 -0.167 -0.154 -0.186 -0.143 -0.203 -0.13 -0.223 -0.114 -0.24 -0.094 -0.257 -0.071 -0.275 -0.046 -0.289 -0.017 -0.302 0.015 -0.314 0.049 -0.323 0.083 -0.329 0.119 -0.335 0.156 -0.338 0.194 -0.342 0.232 -0.345 0.272 -0.348 0.314 -0.351 0.358 -0.355 0.403 -0.358 0.45 -0.362 0.5 -0.366 0.551 -0.37 0.605 -0.374 0.662 -0.378 0.719 -0.382 0.781 -0.385 0.844 -0.39 0.91 -0.393 0.977 -0.395 1.047 -0.399zm0 0c0.364,-0.135 0.769,0.051 0.903,0.415 0.134,0.364 -0.052,0.769 -0.416,0.903l-0.487 -1.318z"/>
   </g>
  </g>
 </g>
</svg>
