<?xml version="1.0" encoding="UTF-8"?>
<!DOCTYPE svg PUBLIC "-//W3C//DTD SVG 1.1//EN" "http://www.w3.org/Graphics/SVG/1.1/DTD/svg11.dtd">
<!-- Creator: CorelDRAW 2019 (64-Bit) -->
<svg xmlns="http://www.w3.org/2000/svg" xml:space="preserve" width="200px" height="100px" version="1.1" style="shape-rendering:geometricPrecision; text-rendering:geometricPrecision; image-rendering:optimizeQuality; fill-rule:evenodd; clip-rule:evenodd"
viewBox="0 0 200 100"
 xmlns:xlink="http://www.w3.org/1999/xlink"
 xmlns:xodm="http://www.corel.com/coreldraw/odm/2003">
 <defs>
  <style type="text/css">
   <![CDATA[
    .fil0 {fill:black;fill-rule:nonzero}
   ]]>
  </style>
 </defs>
 <g id="Layer_x0020_1">
  <metadata id="CorelCorpID_0Corel-Layer"/>
  <g id="_2581006365072">
   <g>
    <path class="fil0" d="M99.81 45.424c0.412,-0.042 0.78,0.258 0.822,0.67 0.041,0.412 -0.259,0.781 -0.671,0.822l-0.151 -1.492zm-8.466 2.552l-0.269 -1.476 0 0 0.24 -0.042 0.26 -0.043 0.279 -0.044 0.294 -0.044 0.31 -0.045 0.324 -0.045 0.334 -0.045 0.344 -0.045 0.352 -0.045 0.359 -0.046 0.362 -0.044 0.365 -0.044 0.365 -0.044 0.365 -0.043 0.36 -0.042 0.356 -0.041 0.349 -0.039 0.34 -0.038 0.329 -0.037 0.316 -0.034 0.303 -0.033 0.285 -0.031 0.268 -0.029 0.247 -0.026 0.225 -0.024 0.202 -0.021 0.176 -0.018 0.148 -0.016 0.118 -0.012 0.088 -0.009 0.052 -0.005 0.02 -0.002 0.151 1.492 -0.017 0.002 -0.055 0.006 -0.085 0.008 -0.118 0.012 -0.147 0.016 -0.175 0.018 -0.2 0.021 -0.225 0.024 -0.246 0.026 -0.266 0.028 -0.285 0.031 -0.3 0.033 -0.316 0.034 -0.327 0.037 -0.338 0.037 -0.347 0.04 -0.354 0.041 -0.359 0.041 -0.361 0.043 -0.363 0.043 -0.362 0.044 -0.359 0.044 -0.354 0.045 -0.348 0.045 -0.34 0.044 -0.329 0.045 -0.317 0.044 -0.301 0.044 -0.286 0.042 -0.267 0.042 -0.247 0.041 -0.223 0.039 0 0zm-67.444 10.264l-0.161 -1.491 0 0 1.011 -0.118 1.267 -0.16 1.502 -0.2 1.72 -0.237 1.917 -0.271 2.096 -0.302 2.258 -0.329 2.401 -0.355 2.525 -0.376 2.632 -0.395 2.72 -0.412 2.79 -0.424 2.842 -0.435 2.876 -0.441 2.891 -0.446 2.889 -0.447 2.867 -0.446 2.829 -0.44 2.772 -0.433 2.695 -0.422 2.603 -0.409 2.49 -0.392 2.361 -0.373 2.212 -0.35 2.046 -0.325 1.862 -0.296 1.659 -0.265 1.437 -0.231 1.199 -0.194 0.94 -0.153 0.665 -0.11 0.362 -0.062 0.269 1.476 -0.383 0.066 -0.67 0.111 -0.943 0.153 -1.2 0.194 -1.439 0.231 -1.66 0.265 -1.862 0.297 -2.047 0.324 -2.213 0.351 -2.361 0.373 -2.491 0.392 -2.603 0.409 -2.697 0.422 -2.772 0.433 -2.829 0.441 -2.868 0.445 -2.89 0.447 -2.892 0.446 -2.876 0.442 -2.844 0.435 -2.791 0.424 -2.721 0.412 -2.634 0.396 -2.527 0.376 -2.403 0.355 -2.26 0.33 -2.1 0.302 -1.922 0.272 -1.725 0.237 -1.511 0.202 -1.279 0.162 -1.031 0.119 0 0zm-18.596 2.822l-0.706 -1.323 0 0 0.18 -0.079 0.171 -0.056 0.199 -0.055 0.233 -0.059 0.27 -0.062 0.309 -0.068 0.347 -0.072 0.383 -0.078 0.42 -0.081 0.453 -0.085 0.488 -0.089 0.52 -0.093 0.551 -0.095 0.581 -0.099 0.609 -0.101 0.636 -0.103 0.663 -0.106 0.686 -0.107 0.71 -0.109 0.732 -0.109 0.752 -0.111 0.772 -0.11 0.789 -0.112 0.806 -0.11 0.821 -0.11 0.835 -0.109 0.847 -0.109 0.859 -0.107 0.868 -0.105 0.877 -0.103 0.884 -0.101 0.89 -0.097 0.161 1.491 -0.884 0.097 -0.879 0.1 -0.871 0.103 -0.864 0.104 -0.853 0.106 -0.843 0.108 -0.83 0.109 -0.816 0.109 -0.802 0.11 -0.784 0.111 -0.767 0.11 -0.748 0.109 -0.727 0.109 -0.706 0.108 -0.682 0.107 -0.657 0.104 -0.632 0.103 -0.604 0.101 -0.575 0.097 -0.545 0.095 -0.514 0.091 -0.48 0.088 -0.447 0.084 -0.41 0.079 -0.373 0.075 -0.333 0.07 -0.293 0.064 -0.25 0.058 -0.202 0.05 -0.15 0.042 -0.088 0.029 0.013 -0.008 0 0zm1.4 -1.144l0.254 1.479 0 0 -0.265 0.044 -0.247 0.039 -0.23 0.035 -0.214 0.03 -0.199 0.025 -0.184 0.021 -0.169 0.017 -0.157 0.013 -0.146 0.009 -0.134 0.004 -0.125 0.001 -0.12 -0.004 -0.114 -0.009 -0.114 -0.016 -0.122 -0.027 -0.138 -0.049 -0.159 -0.087 -0.174 -0.158 -0.143 -0.254 -0.045 -0.292 0.043 -0.239 0.077 -0.169 0.081 -0.117 0.077 -0.086 0.073 -0.069 0.069 -0.057 0.07 -0.051 0.068 -0.047 0.069 -0.045 0.071 -0.042 0.069 -0.039 0.072 -0.039 0.706 1.323 -0.047 0.026 -0.044 0.025 -0.038 0.023 -0.032 0.02 -0.025 0.017 -0.015 0.011 -0.006 0.005 0.009 -0.009 0.025 -0.029 0.042 -0.061 0.052 -0.116 0.034 -0.19 -0.038 -0.246 -0.119 -0.212 -0.132 -0.12 -0.096 -0.053 -0.056 -0.02 -0.018 -0.004 0.013 0.001 0.036 0.003 0.057 0.002 0.075 -0.001 0.094 -0.003 0.111 -0.006 0.128 -0.011 0.146 -0.014 0.162 -0.019 0.18 -0.023 0.199 -0.028 0.215 -0.032 0.235 -0.037 0.253 -0.043 0 0zm45.109 -5.691l0.164 1.491 0 0 -1.285 0.143 -1.37 0.154 -1.446 0.167 -1.516 0.177 -1.577 0.186 -1.631 0.194 -1.678 0.202 -1.715 0.208 -1.747 0.213 -1.77 0.218 -1.786 0.221 -1.793 0.223 -1.794 0.225 -1.786 0.224 -1.771 0.224 -1.748 0.222 -1.718 0.22 -1.68 0.215 -1.634 0.211 -1.58 0.204 -1.52 0.198 -1.451 0.191 -1.374 0.18 -1.291 0.172 -1.198 0.16 -1.099 0.148 -0.992 0.135 -0.877 0.122 -0.754 0.106 -0.623 0.089 -0.483 0.073 -0.332 0.054 -0.254 -1.479 0.356 -0.058 0.495 -0.074 0.629 -0.091 0.759 -0.106 0.88 -0.122 0.994 -0.135 1.101 -0.149 1.2 -0.16 1.292 -0.172 1.376 -0.181 1.452 -0.19 1.52 -0.198 1.582 -0.205 1.635 -0.211 1.68 -0.215 1.719 -0.22 1.75 -0.222 1.772 -0.224 1.787 -0.225 1.794 -0.224 1.795 -0.224 1.786 -0.221 1.771 -0.217 1.748 -0.214 1.717 -0.209 1.679 -0.201 1.633 -0.195 1.58 -0.186 1.517 -0.178 1.449 -0.166 1.373 -0.156 1.288 -0.142 0 0zm47.076 -2.76l0.371 1.454 0 0 -0.344 0.061 -0.457 0.051 -0.601 0.051 -0.745 0.053 -0.884 0.055 -1.015 0.057 -1.136 0.06 -1.251 0.062 -1.355 0.065 -1.451 0.067 -1.539 0.07 -1.616 0.072 -1.686 0.076 -1.745 0.078 -1.798 0.081 -1.839 0.083 -1.872 0.087 -1.897 0.09 -1.912 0.092 -1.919 0.096 -1.916 0.098 -1.903 0.101 -1.884 0.105 -1.853 0.108 -1.814 0.111 -1.767 0.114 -1.71 0.117 -1.643 0.121 -1.569 0.123 -1.484 0.128 -1.39 0.13 -1.288 0.134 -0.164 -1.491 1.304 -0.136 1.404 -0.132 1.495 -0.128 1.578 -0.124 1.651 -0.121 1.716 -0.118 1.772 -0.115 1.82 -0.111 1.857 -0.108 1.887 -0.104 1.907 -0.102 1.918 -0.099 1.921 -0.095 1.914 -0.093 1.898 -0.089 1.874 -0.087 1.841 -0.084 1.797 -0.081 1.747 -0.078 1.685 -0.075 1.616 -0.073 1.537 -0.069 1.45 -0.068 1.352 -0.065 1.247 -0.062 1.132 -0.059 1.008 -0.057 0.873 -0.054 0.729 -0.051 0.573 -0.049 0.399 -0.044 0.174 -0.029 0 0zm-2.26 -0.943l0.196 -1.487 0.192 0.03 0.191 0.04 0.192 0.048 0.192 0.055 0.191 0.063 0.19 0.069 0.189 0.076 0.186 0.081 0.183 0.086 0.181 0.092 0.175 0.096 0.172 0.101 0.166 0.105 0.159 0.109 0.153 0.113 0.146 0.117 0.138 0.123 0.131 0.129 0.121 0.137 0.111 0.146 0.1 0.161 0.085 0.18 0.064 0.204 0.028 0.23 -0.019 0.246 -0.077 0.247 -0.131 0.221 -0.165 0.18 -0.184 0.14 -0.197 0.109 -0.208 0.084 -0.22 0.066 -0.371 -1.454 0.1 -0.029 0.061 -0.025 0.024 -0.013 -0.007 0.006 -0.032 0.036 -0.04 0.068 -0.027 0.083 -0.006 0.076 0.006 0.053 0.006 0.023 -0.004 -0.007 -0.019 -0.031 -0.036 -0.046 -0.051 -0.058 -0.067 -0.066 -0.082 -0.072 -0.094 -0.076 -0.105 -0.078 -0.115 -0.078 -0.123 -0.078 -0.13 -0.077 -0.136 -0.074 -0.14 -0.071 -0.144 -0.068 -0.146 -0.064 -0.145 -0.058 -0.145 -0.053 -0.144 -0.047 -0.139 -0.04 -0.134 -0.034 -0.127 -0.026 -0.119 -0.019zm0 0c-0.41,-0.054 -0.699,-0.431 -0.645,-0.841 0.054,-0.411 0.431,-0.7 0.841,-0.646l-0.196 1.487z"/>
   </g>
   <g>
    <path class="fil0" d="M129.515 42.895l1.084 1.037 0 0 -0.375 0.381 -0.388 0.373 -0.4 0.365 -0.409 0.356 -0.417 0.348 -0.424 0.339 -0.429 0.331 -0.433 0.321 -0.434 0.312 -0.434 0.302 -0.432 0.292 -0.429 0.282 -0.425 0.272 -0.418 0.26 -0.41 0.249 -0.4 0.238 -0.389 0.227 -0.376 0.213 -0.361 0.202 -0.345 0.189 -0.328 0.175 -0.307 0.162 -0.287 0.149 -0.263 0.135 -0.24 0.12 -0.213 0.106 -0.185 0.089 -0.155 0.075 -0.125 0.06 -0.092 0.042 -0.056 0.026 -0.024 0.011 -0.619 -1.366 0.013 -0.006 0.053 -0.025 0.086 -0.04 0.117 -0.055 0.149 -0.072 0.178 -0.086 0.204 -0.102 0.231 -0.115 0.255 -0.131 0.277 -0.143 0.298 -0.158 0.318 -0.17 0.334 -0.183 0.351 -0.196 0.364 -0.207 0.376 -0.219 0.388 -0.23 0.397 -0.241 0.403 -0.252 0.41 -0.262 0.413 -0.271 0.416 -0.281 0.416 -0.29 0.415 -0.298 0.412 -0.306 0.408 -0.315 0.402 -0.321 0.393 -0.328 0.384 -0.334 0.373 -0.34 0.359 -0.346 0.345 -0.35 0 0zm4.171 -12.089l1.289 -0.767 0 0 0.233 0.424 0.201 0.432 0.168 0.439 0.135 0.444 0.105 0.449 0.074 0.452 0.044 0.454 0.016 0.457 -0.011 0.458 -0.037 0.457 -0.062 0.456 -0.086 0.456 -0.108 0.456 -0.13 0.453 -0.15 0.451 -0.169 0.45 -0.187 0.448 -0.205 0.444 -0.221 0.442 -0.237 0.439 -0.252 0.436 -0.265 0.432 -0.279 0.428 -0.29 0.424 -0.302 0.42 -0.312 0.416 -0.322 0.41 -0.331 0.405 -0.339 0.4 -0.346 0.393 -0.352 0.387 -0.359 0.381 -1.084 -1.037 0.342 -0.363 0.335 -0.369 0.329 -0.373 0.321 -0.379 0.313 -0.383 0.303 -0.386 0.294 -0.39 0.282 -0.393 0.271 -0.395 0.257 -0.398 0.245 -0.398 0.231 -0.399 0.216 -0.4 0.2 -0.4 0.184 -0.399 0.166 -0.398 0.149 -0.395 0.131 -0.394 0.112 -0.39 0.092 -0.388 0.072 -0.383 0.051 -0.38 0.031 -0.374 0.009 -0.37 -0.013 -0.365 -0.035 -0.36 -0.058 -0.355 -0.081 -0.351 -0.106 -0.346 -0.131 -0.342 -0.157 -0.338 -0.184 -0.335 0 0zm-67.813 16.182l-0.864 1.227 0 0 -1.328 -1.177 -0.823 -1.325 -0.273 -1.44 0.27 -1.447 0.727 -1.393 1.111 -1.347 1.456 -1.319 1.772 -1.299 2.064 -1.28 2.33 -1.256 2.568 -1.227 2.78 -1.19 2.965 -1.146 3.122 -1.092 3.251 -1.032 3.352 -0.961 3.424 -0.883 3.469 -0.794 3.485 -0.699 3.474 -0.593 3.435 -0.479 3.366 -0.355 3.272 -0.223 3.148 -0.081 2.999 0.07 2.823 0.232 2.619 0.405 2.392 0.59 2.139 0.791 1.858 1.011 1.542 1.253 1.177 1.51 -1.289 0.767 -0.956 -1.224 -1.304 -1.056 -1.643 -0.893 -1.96 -0.724 -2.247 -0.553 -2.503 -0.387 -2.725 -0.224 -2.919 -0.068 -3.08 0.079 -3.213 0.219 -3.314 0.35 -3.387 0.472 -3.43 0.586 -3.444 0.69 -3.429 0.786 -3.385 0.873 -3.313 0.949 -3.209 1.019 -3.079 1.077 -2.918 1.128 -2.728 1.167 -2.507 1.198 -2.258 1.218 -1.977 1.225 -1.665 1.22 -1.321 1.195 -0.947 1.145 -0.558 1.058 -0.181 0.946 0.165 0.877 0.562 0.899 1.06 0.935 0 0zm32.722 1.875l0.1 1.496 0 0 -0.653 0.04 -0.743 0.038 -0.826 0.036 -0.904 0.033 -0.974 0.029 -1.04 0.026 -1.097 0.022 -1.149 0.017 -1.194 0.012 -1.233 0.006 -1.265 0 -1.29 -0.006 -1.309 -0.014 -1.322 -0.021 -1.328 -0.029 -1.326 -0.038 -1.32 -0.047 -1.306 -0.057 -1.286 -0.066 -1.259 -0.077 -1.226 -0.089 -1.187 -0.099 -1.141 -0.113 -1.089 -0.124 -1.031 -0.139 -0.968 -0.152 -0.898 -0.168 -0.824 -0.185 -0.746 -0.203 -0.665 -0.225 -0.584 -0.254 -0.503 -0.297 0.864 -1.227 0.313 0.183 0.446 0.194 0.564 0.19 0.67 0.183 0.765 0.171 0.852 0.159 0.93 0.147 1 0.134 1.063 0.122 1.118 0.11 1.168 0.098 1.208 0.087 1.245 0.076 1.272 0.066 1.294 0.056 1.309 0.046 1.316 0.038 1.319 0.029 1.313 0.021 1.301 0.013 1.282 0.007 1.257 0 1.225 -0.007 1.188 -0.011 1.141 -0.017 1.09 -0.022 1.031 -0.025 0.967 -0.03 0.894 -0.032 0.815 -0.035 0.729 -0.038 0.637 -0.038 0 0zm33.95 -5.601l0.491 1.418 0 0 -0.584 0.189 -0.67 0.193 -0.752 0.199 -0.83 0.204 -0.903 0.209 -0.97 0.212 -1.033 0.216 -1.088 0.219 -1.138 0.221 -1.183 0.222 -1.221 0.222 -1.254 0.222 -1.281 0.221 -1.301 0.219 -1.316 0.216 -1.324 0.213 -1.327 0.208 -1.324 0.203 -1.314 0.198 -1.299 0.191 -1.278 0.183 -1.251 0.175 -1.217 0.166 -1.177 0.157 -1.133 0.145 -1.082 0.135 -1.024 0.122 -0.962 0.108 -0.893 0.096 -0.819 0.081 -0.739 0.065 -0.654 0.049 -0.1 -1.496 0.631 -0.048 0.722 -0.064 0.805 -0.079 0.883 -0.095 0.952 -0.107 1.017 -0.122 1.075 -0.133 1.126 -0.145 1.172 -0.155 1.212 -0.166 1.245 -0.174 1.273 -0.183 1.294 -0.19 1.31 -0.197 1.319 -0.202 1.322 -0.208 1.319 -0.212 1.31 -0.215 1.295 -0.218 1.275 -0.22 1.246 -0.22 1.214 -0.221 1.175 -0.221 1.129 -0.218 1.077 -0.217 1.02 -0.213 0.955 -0.21 0.884 -0.204 0.808 -0.198 0.723 -0.192 0.631 -0.182 0.531 -0.172 0 0zm10.842 -10.889l1.453 0.376 0 0 -0.138 0.492 -0.158 0.489 -0.177 0.485 -0.196 0.479 -0.215 0.475 -0.232 0.469 -0.249 0.464 -0.266 0.457 -0.282 0.45 -0.298 0.444 -0.314 0.437 -0.328 0.429 -0.342 0.42 -0.356 0.413 -0.369 0.403 -0.382 0.394 -0.395 0.386 -0.407 0.374 -0.418 0.364 -0.429 0.354 -0.44 0.342 -0.45 0.332 -0.459 0.318 -0.47 0.307 -0.477 0.293 -0.487 0.281 -0.494 0.266 -0.502 0.253 -0.509 0.238 -0.515 0.223 -0.523 0.208 -0.527 0.192 -0.491 -1.418 0.485 -0.176 0.48 -0.191 0.475 -0.206 0.47 -0.22 0.464 -0.233 0.457 -0.247 0.449 -0.259 0.443 -0.272 0.434 -0.283 0.425 -0.296 0.417 -0.306 0.407 -0.317 0.397 -0.327 0.387 -0.337 0.376 -0.347 0.364 -0.355 0.353 -0.363 0.34 -0.372 0.328 -0.379 0.313 -0.387 0.301 -0.392 0.286 -0.399 0.272 -0.405 0.257 -0.41 0.241 -0.414 0.225 -0.419 0.209 -0.423 0.192 -0.426 0.176 -0.428 0.158 -0.432 0.14 -0.433 0.121 -0.435 0 0zm8.248 -7.566l0.171 1.491 0 0 -0.464 0.057 -0.439 0.062 -0.415 0.068 -0.391 0.073 -0.367 0.079 -0.346 0.085 -0.323 0.092 -0.302 0.098 -0.282 0.104 -0.262 0.112 -0.245 0.118 -0.229 0.126 -0.212 0.134 -0.2 0.142 -0.187 0.151 -0.177 0.162 -0.167 0.172 -0.16 0.185 -0.153 0.2 -0.147 0.214 -0.141 0.23 -0.137 0.247 -0.133 0.265 -0.129 0.284 -0.126 0.303 -0.123 0.322 -0.12 0.342 -0.119 0.363 -0.118 0.384 -0.117 0.404 -0.117 0.426 -0.118 0.447 -1.453 -0.376 0.122 -0.461 0.122 -0.443 0.124 -0.426 0.125 -0.408 0.128 -0.392 0.133 -0.376 0.138 -0.361 0.143 -0.346 0.151 -0.332 0.16 -0.318 0.168 -0.304 0.179 -0.292 0.191 -0.278 0.203 -0.264 0.217 -0.251 0.23 -0.237 0.244 -0.223 0.258 -0.208 0.271 -0.194 0.286 -0.179 0.3 -0.166 0.314 -0.152 0.329 -0.14 0.344 -0.128 0.359 -0.116 0.375 -0.106 0.391 -0.097 0.41 -0.088 0.428 -0.08 0.448 -0.073 0.468 -0.066 0.489 -0.061 0 0zm12.619 2.48l-0.966 1.147 0 0 -0.128 -0.101 -0.152 -0.108 -0.175 -0.111 -0.197 -0.115 -0.218 -0.116 -0.237 -0.117 -0.255 -0.117 -0.274 -0.116 -0.29 -0.115 -0.306 -0.112 -0.321 -0.111 -0.336 -0.107 -0.349 -0.103 -0.362 -0.099 -0.373 -0.095 -0.386 -0.089 -0.396 -0.085 -0.405 -0.078 -0.415 -0.072 -0.424 -0.065 -0.43 -0.058 -0.439 -0.051 -0.444 -0.042 -0.45 -0.034 -0.455 -0.025 -0.459 -0.016 -0.463 -0.006 -0.465 0.004 -0.468 0.014 -0.469 0.025 -0.471 0.037 -0.47 0.048 -0.171 -1.491 0.508 -0.051 0.506 -0.039 0.504 -0.027 0.501 -0.016 0.499 -0.004 0.495 0.006 0.49 0.018 0.486 0.026 0.48 0.036 0.473 0.045 0.467 0.054 0.46 0.062 0.451 0.07 0.443 0.076 0.433 0.084 0.425 0.09 0.412 0.097 0.403 0.101 0.39 0.107 0.379 0.112 0.366 0.117 0.352 0.121 0.339 0.124 0.324 0.129 0.309 0.131 0.295 0.135 0.278 0.137 0.264 0.141 0.246 0.144 0.23 0.146 0.214 0.152 0.198 0.156 -0.001 0zm-44.677 22.281l0.619 1.366 -0.413 -1.426 0.407 -0.075 0.69 -0.154 0.932 -0.227 1.15 -0.295 1.345 -0.36 1.523 -0.422 1.679 -0.478 1.817 -0.532 1.933 -0.583 2.031 -0.63 2.109 -0.672 2.168 -0.712 2.207 -0.748 2.227 -0.78 2.226 -0.809 2.207 -0.835 2.168 -0.856 2.108 -0.873 2.029 -0.888 1.93 -0.898 1.812 -0.903 1.672 -0.905 1.511 -0.902 1.33 -0.892 1.126 -0.874 0.901 -0.844 0.655 -0.798 0.398 -0.725 0.155 -0.629 -0.056 -0.564 -0.287 -0.578 -0.598 -0.633 0.966 -1.147 0.853 0.91 0.504 1.024 0.114 1.094 -0.255 1.075 -0.556 1.02 -0.802 0.98 -1.021 0.959 -1.221 0.948 -1.405 0.943 -1.572 0.937 -1.721 0.932 -1.852 0.924 -1.964 0.913 -2.059 0.901 -2.133 0.884 -2.189 0.864 -2.226 0.842 -2.244 0.816 -2.242 0.785 -2.221 0.753 -2.181 0.717 -2.121 0.675 -2.042 0.633 -1.945 0.586 -1.827 0.536 -1.69 0.481 -1.534 0.425 -1.359 0.364 -1.166 0.299 -0.954 0.233 -0.728 0.162 -0.505 0.092 -0.413 -1.426zm0.413 1.426c-0.41,0.057 -0.789,-0.23 -0.846,-0.64 -0.057,-0.41 0.229,-0.789 0.639,-0.846l0.207 1.486z"/>
   </g>
   <g>
    <path class="fil0" d="M61.113 66.627c-0.404,0.089 -0.804,-0.168 -0.893,-0.572 -0.088,-0.405 0.169,-0.805 0.573,-0.893l0.32 1.465zm24.433 -6.346l0.215 1.485 0 0 -0.688 0.103 -0.746 0.119 -0.797 0.132 -0.845 0.146 -0.887 0.158 -0.922 0.167 -0.954 0.178 -0.98 0.185 -1.001 0.192 -1.016 0.198 -1.026 0.202 -1.031 0.205 -1.032 0.207 -1.025 0.208 -1.016 0.207 -1 0.205 -0.98 0.203 -0.953 0.198 -0.923 0.193 -0.886 0.186 -0.845 0.178 -0.799 0.169 -0.747 0.159 -0.69 0.147 -0.628 0.135 -0.562 0.12 -0.488 0.106 -0.412 0.088 -0.329 0.072 -0.241 0.052 -0.149 0.033 -0.05 0.01 -0.32 -1.465 0.052 -0.011 0.149 -0.033 0.241 -0.052 0.33 -0.072 0.412 -0.089 0.49 -0.105 0.562 -0.121 0.629 -0.135 0.692 -0.147 0.748 -0.159 0.799 -0.17 0.847 -0.178 0.887 -0.187 0.924 -0.193 0.956 -0.198 0.981 -0.203 1.002 -0.206 1.018 -0.207 1.028 -0.209 1.034 -0.207 1.034 -0.206 1.029 -0.202 1.02 -0.199 1.004 -0.193 0.984 -0.186 0.959 -0.178 0.929 -0.169 0.893 -0.158 0.853 -0.148 0.808 -0.134 0.757 -0.12 0.702 -0.106 0 0zm30.389 -1.29l-0.051 1.5 0 0 -0.722 -0.022 -0.768 -0.017 -0.81 -0.013 -0.848 -0.008 -0.885 -0.005 -0.917 0 -0.946 0.005 -0.974 0.008 -0.996 0.013 -1.016 0.016 -1.034 0.021 -1.047 0.024 -1.059 0.029 -1.067 0.033 -1.071 0.036 -1.073 0.04 -1.072 0.044 -1.068 0.047 -1.06 0.052 -1.05 0.054 -1.035 0.059 -1.02 0.062 -0.999 0.065 -0.976 0.068 -0.951 0.072 -0.921 0.076 -0.889 0.078 -0.854 0.082 -0.815 0.085 -0.773 0.087 -0.728 0.091 -0.679 0.093 -0.215 -1.485 0.7 -0.096 0.745 -0.093 0.788 -0.089 0.829 -0.086 0.865 -0.083 0.899 -0.079 0.93 -0.076 0.959 -0.073 0.985 -0.069 1.006 -0.066 1.026 -0.062 1.042 -0.058 1.056 -0.056 1.066 -0.051 1.073 -0.048 1.077 -0.044 1.078 -0.04 1.077 -0.037 1.072 -0.032 1.064 -0.029 1.052 -0.025 1.04 -0.021 1.022 -0.016 1.002 -0.013 0.979 -0.009 0.953 -0.004 0.924 0 0.892 0.004 0.856 0.009 0.82 0.013 0.778 0.018 0.734 0.021 0 0zm14.517 0.025l1.171 0.937 0 0 -0.213 0.218 -0.238 0.171 -0.255 0.134 -0.27 0.108 -0.286 0.086 -0.305 0.071 -0.324 0.059 -0.344 0.047 -0.366 0.037 -0.386 0.029 -0.407 0.021 -0.428 0.013 -0.448 0.007 -0.468 0.001 -0.487 -0.005 -0.506 -0.01 -0.524 -0.014 -0.541 -0.019 -0.557 -0.022 -0.573 -0.025 -0.588 -0.028 -0.602 -0.029 -0.616 -0.031 -0.628 -0.033 -0.639 -0.034 -0.651 -0.033 -0.661 -0.034 -0.67 -0.032 -0.679 -0.032 -0.687 -0.03 -0.693 -0.028 -0.699 -0.025 0.051 -1.5 0.706 0.026 0.698 0.028 0.691 0.031 0.683 0.031 0.673 0.033 0.663 0.033 0.652 0.034 0.64 0.034 0.628 0.032 0.613 0.032 0.599 0.029 0.584 0.028 0.567 0.024 0.551 0.022 0.532 0.018 0.512 0.014 0.493 0.01 0.471 0.005 0.449 -0.001 0.426 -0.007 0.401 -0.012 0.376 -0.019 0.348 -0.026 0.319 -0.033 0.289 -0.039 0.256 -0.046 0.219 -0.051 0.182 -0.055 0.14 -0.055 0.095 -0.049 0.049 -0.035 0.012 -0.011 0 0zm6.036 -0.636l-0.645 1.355 -0.148 -0.068 -0.152 -0.064 -0.153 -0.059 -0.156 -0.055 -0.157 -0.05 -0.158 -0.045 -0.159 -0.041 -0.16 -0.035 -0.16 -0.031 -0.159 -0.025 -0.158 -0.02 -0.158 -0.015 -0.156 -0.01 -0.153 -0.005 -0.151 0.001 -0.149 0.006 -0.145 0.011 -0.141 0.016 -0.138 0.021 -0.133 0.027 -0.129 0.031 -0.124 0.036 -0.118 0.04 -0.112 0.045 -0.107 0.049 -0.101 0.054 -0.096 0.057 -0.089 0.061 -0.083 0.066 -0.078 0.07 -0.072 0.073 -0.067 0.077 -1.171 -0.937 0.133 -0.155 0.142 -0.145 0.15 -0.133 0.157 -0.124 0.165 -0.113 0.17 -0.103 0.174 -0.092 0.18 -0.083 0.184 -0.074 0.187 -0.064 0.19 -0.055 0.193 -0.047 0.195 -0.038 0.198 -0.031 0.199 -0.023 0.201 -0.015 0.203 -0.008 0.203 -0.001 0.204 0.006 0.205 0.013 0.204 0.02 0.205 0.026 0.205 0.033 0.204 0.039 0.204 0.045 0.203 0.051 0.201 0.058 0.2 0.064 0.197 0.069 0.196 0.076 0.194 0.081 0.19 0.087zm0 0c0.374,0.178 0.533,0.626 0.355,1 -0.178,0.374 -0.626,0.533 -1,0.355l0.645 -1.355z"/>
   </g>
   <g>
    <path class="fil0" d="M155.38 56.935c-0.149,-0.386 0.042,-0.821 0.428,-0.97 0.386,-0.149 0.821,0.042 0.971,0.428l-1.399 0.542zm1.562 -0.106l-1.407 0.519 -0.009 -0.025 -0.008 -0.021 -0.009 -0.025 -0.009 -0.024 -0.007 -0.019 -0.008 -0.021 -0.008 -0.022 -0.006 -0.016 -0.008 -0.02 -0.007 -0.019 -0.007 -0.018 -0.006 -0.018 -0.004 -0.01 -0.006 -0.016 -0.008 -0.021 -0.006 -0.015 -0.002 -0.005 -0.004 -0.01 -0.006 -0.017 -0.005 -0.012 -0.004 -0.011 -0.005 -0.013 0.002 0.005 -0.003 -0.008 -0.004 -0.01 -0.006 -0.017 -0.001 -0.001 0.005 0.011 -0.009 -0.022 0.003 0.008 0.01 0.024 -0.01 -0.025 1.399 -0.542 -0.01 -0.023 0.011 0.027 0.005 0.012 -0.006 -0.016 0.007 0.019 0.003 0.009 -0.002 -0.005 0.002 0.003 0.003 0.008 0.008 0.021 0.002 0.006 0.004 0.009 0.003 0.01 0.003 0.007 0.005 0.014 0.009 0.022 0.005 0.013 0.003 0.008 0.005 0.016 0.009 0.022 0.006 0.017 0.007 0.017 0.006 0.018 0.007 0.019 0.009 0.024 0.007 0.018 0.009 0.022 0.009 0.026 0.007 0.02 0.008 0.022 0.01 0.026 0.009 0.025zm0 0c0.144,0.389 -0.055,0.82 -0.444,0.963 -0.389,0.143 -0.82,-0.056 -0.963,-0.444l1.407 -0.519z"/>
   </g>
  </g>
 </g>
</svg>
