<?xml version="1.0" encoding="UTF-8"?>
<!DOCTYPE svg PUBLIC "-//W3C//DTD SVG 1.1//EN" "http://www.w3.org/Graphics/SVG/1.1/DTD/svg11.dtd">
<!-- Creator: CorelDRAW 2019 (64-Bit) -->
<svg xmlns="http://www.w3.org/2000/svg" xml:space="preserve" width="200px" height="100px" version="1.1" style="shape-rendering:geometricPrecision; text-rendering:geometricPrecision; image-rendering:optimizeQuality; fill-rule:evenodd; clip-rule:evenodd"
viewBox="0 0 200 100"
 xmlns:xlink="http://www.w3.org/1999/xlink"
 xmlns:xodm="http://www.corel.com/coreldraw/odm/2003">
 <defs>
  <style type="text/css">
   <![CDATA[
    .fil0 {fill:black;fill-rule:nonzero}
   ]]>
  </style>
 </defs>
 <g id="Layer_x0020_1">
  <metadata id="CorelCorpID_0Corel-Layer"/>
  <g id="_2581006368816">
   <g>
    <path class="fil0" d="M8.19 38.472c0.393,0.146 0.593,0.585 0.447,0.978 -0.146,0.394 -0.585,0.594 -0.978,0.448l0.531 -1.426zm-2.186 -1.91l0 1.522 0 0 -0.233 0.004 -0.177 0.013 -0.115 0.015 -0.046 0.011 0.037 -0.017 0.128 -0.103 0.139 -0.253 0.012 -0.288 -0.057 -0.159 -0.033 -0.048 0.011 0.009 0.049 0.04 0.08 0.058 0.105 0.067 0.124 0.074 0.14 0.077 0.152 0.08 0.162 0.081 0.167 0.08 0.17 0.079 0.172 0.077 0.169 0.074 0.164 0.071 0.158 0.066 0.148 0.06 0.136 0.055 0.121 0.048 0.105 0.041 0.084 0.033 0.063 0.024 0.04 0.015 0.011 0.004 -0.531 1.426 -0.018 -0.007 -0.042 -0.016 -0.069 -0.026 -0.091 -0.035 -0.111 -0.044 -0.128 -0.051 -0.144 -0.058 -0.157 -0.065 -0.168 -0.07 -0.176 -0.075 -0.182 -0.08 -0.185 -0.083 -0.188 -0.087 -0.188 -0.09 -0.184 -0.093 -0.181 -0.094 -0.175 -0.097 -0.167 -0.1 -0.16 -0.103 -0.151 -0.108 -0.145 -0.12 -0.143 -0.145 -0.138 -0.195 -0.111 -0.295 0.014 -0.412 0.203 -0.367 0.258 -0.202 0.238 -0.101 0.23 -0.058 0.241 -0.034 0.264 -0.019 0.299 -0.006 0 0zm18.325 -0.058l0.006 1.521 -0.044 0 -0.128 0.001 -0.207 0.001 -0.282 0.001 -0.351 0.001 -0.416 0.002 -0.474 0.001 -0.528 0.002 -0.578 0.002 -0.622 0.003 -0.661 0.002 -0.695 0.003 -0.724 0.002 -0.749 0.003 -0.767 0.003 -0.782 0.002 -0.791 0.003 -0.794 0.003 -0.794 0.003 -0.787 0.002 -0.777 0.003 -0.76 0.002 -0.74 0.002 -0.713 0.002 -0.682 0.002 -0.646 0.002 -0.605 0.002 -0.559 0.001 -0.508 0.001 -0.452 0.001 -0.39 0 -0.325 0.001 0 -1.522 0.324 0 0.389 0 0.451 -0.001 0.507 -0.001 0.559 -0.001 0.605 -0.002 0.646 -0.002 0.681 -0.002 0.714 -0.002 0.739 -0.002 0.76 -0.002 0.777 -0.003 0.787 -0.003 0.794 -0.002 0.794 -0.003 0.791 -0.003 0.781 -0.003 0.767 -0.002 0.749 -0.003 0.724 -0.002 0.695 -0.003 0.662 -0.002 0.621 -0.003 0.578 -0.002 0.529 -0.002 0.474 -0.002 0.415 -0.001 0.351 -0.001 0.282 -0.002 0.207 0 0.129 -0.001 0.043 0zm0 0c0.42,-0.001 0.762,0.338 0.764,0.758 0.001,0.42 -0.338,0.762 -0.758,0.763l-0.006 -1.521z"/>
   </g>
   <g>
    <path class="fil0" d="M18.104 59.044c0.054,0.416 -0.239,0.798 -0.656,0.852 -0.416,0.055 -0.798,-0.239 -0.852,-0.655l1.508 -0.197zm-4.651 -21.634l1.511 -0.174 0.081 0.689 0.084 0.695 0.088 0.7 0.091 0.705 0.094 0.708 0.096 0.712 0.099 0.715 0.101 0.716 0.103 0.718 0.104 0.719 0.106 0.718 0.107 0.718 0.108 0.717 0.108 0.716 0.109 0.712 0.109 0.71 0.108 0.706 0.109 0.702 0.107 0.697 0.107 0.691 0.106 0.686 0.104 0.678 0.102 0.671 0.101 0.663 0.099 0.655 0.096 0.645 0.094 0.636 0.09 0.625 0.088 0.615 0.084 0.602 0.08 0.59 0.077 0.578 -1.508 0.197 -0.076 -0.572 -0.08 -0.585 -0.083 -0.598 -0.088 -0.61 -0.09 -0.622 -0.093 -0.633 -0.095 -0.642 -0.099 -0.653 -0.1 -0.662 -0.103 -0.67 -0.104 -0.677 -0.106 -0.685 -0.106 -0.691 -0.108 -0.697 -0.108 -0.702 -0.109 -0.707 -0.109 -0.711 -0.109 -0.714 -0.109 -0.716 -0.108 -0.72 -0.107 -0.72 -0.106 -0.721 -0.105 -0.722 -0.103 -0.721 -0.102 -0.72 -0.099 -0.718 -0.097 -0.716 -0.094 -0.714 -0.092 -0.71 -0.089 -0.705 -0.085 -0.702 -0.081 -0.695zm0 0c-0.048,-0.417 0.251,-0.795 0.668,-0.843 0.417,-0.048 0.795,0.252 0.843,0.669l-1.511 0.174z"/>
   </g>
   <g>
    <path class="fil0" d="M22.99 39.715c-0.091,-0.41 0.169,-0.816 0.579,-0.906 0.41,-0.09 0.816,0.169 0.906,0.579l-1.485 0.327zm3.958 10.338l-1.464 0.413 0 0 -0.058 -0.21 -0.062 -0.235 -0.067 -0.26 -0.072 -0.282 -0.076 -0.304 -0.079 -0.324 -0.083 -0.342 -0.085 -0.357 -0.089 -0.371 -0.09 -0.384 -0.092 -0.394 -0.094 -0.403 -0.094 -0.408 -0.095 -0.415 -0.096 -0.416 -0.095 -0.417 -0.094 -0.416 -0.094 -0.413 -0.092 -0.409 -0.09 -0.401 -0.088 -0.393 -0.085 -0.382 -0.083 -0.37 -0.079 -0.354 -0.075 -0.339 -0.071 -0.321 -0.067 -0.3 -0.062 -0.278 -0.056 -0.254 -0.05 -0.228 -0.044 -0.201 -0.037 -0.17 1.485 -0.327 0.038 0.171 0.043 0.199 0.051 0.228 0.056 0.254 0.061 0.277 0.066 0.3 0.071 0.32 0.076 0.338 0.079 0.355 0.082 0.369 0.085 0.381 0.088 0.392 0.09 0.4 0.092 0.408 0.093 0.411 0.095 0.416 0.095 0.416 0.094 0.415 0.095 0.412 0.094 0.407 0.093 0.401 0.092 0.391 0.09 0.381 0.087 0.369 0.085 0.354 0.082 0.338 0.078 0.319 0.074 0.298 0.07 0.276 0.065 0.251 0.06 0.224 0.053 0.194 0 0zm0.597 5.279l1.299 0.793 -0.001 0 -0.21 0.24 -0.417 0.176 -0.427 -0.059 -0.248 -0.154 -0.142 -0.146 -0.099 -0.137 -0.081 -0.135 -0.073 -0.14 -0.07 -0.149 -0.068 -0.159 -0.068 -0.17 -0.069 -0.18 -0.069 -0.191 -0.07 -0.201 -0.07 -0.21 -0.072 -0.218 -0.071 -0.226 -0.072 -0.232 -0.073 -0.238 -0.072 -0.242 -0.072 -0.246 -0.072 -0.248 -0.072 -0.25 -0.072 -0.251 -0.07 -0.25 -0.07 -0.248 -0.068 -0.246 -0.068 -0.241 -0.066 -0.237 -0.064 -0.231 -0.063 -0.224 -0.061 -0.216 1.464 -0.413 0.061 0.218 0.064 0.226 0.064 0.231 0.066 0.237 0.067 0.242 0.069 0.244 0.069 0.246 0.07 0.247 0.07 0.247 0.071 0.246 0.071 0.244 0.07 0.241 0.071 0.235 0.07 0.231 0.069 0.223 0.068 0.215 0.068 0.206 0.065 0.196 0.064 0.184 0.062 0.171 0.059 0.156 0.057 0.139 0.051 0.121 0.047 0.099 0.038 0.074 0.026 0.043 0.001 0.004 -0.046 -0.046 -0.159 -0.096 -0.343 -0.045 -0.341 0.142 -0.141 0.158 -0.001 0zm-1.308 -9.745l1.471 0.384 0 0 -0.044 0.204 -0.033 0.235 -0.022 0.264 -0.01 0.288 0.003 0.309 0.013 0.329 0.025 0.344 0.034 0.358 0.044 0.369 0.051 0.378 0.059 0.384 0.066 0.39 0.07 0.392 0.075 0.393 0.078 0.392 0.08 0.388 0.081 0.384 0.082 0.375 0.081 0.367 0.079 0.357 0.076 0.345 0.072 0.33 0.068 0.315 0.062 0.298 0.055 0.279 0.047 0.26 0.04 0.241 0.029 0.224 0.018 0.21 0.004 0.205 -0.026 0.232 -0.121 0.315 -1.299 -0.793 -0.07 0.173 -0.004 0.022 -0.002 -0.07 -0.011 -0.126 -0.023 -0.168 -0.033 -0.205 -0.043 -0.235 -0.052 -0.262 -0.059 -0.285 -0.066 -0.307 -0.072 -0.326 -0.076 -0.343 -0.079 -0.357 -0.081 -0.371 -0.083 -0.382 -0.083 -0.39 -0.082 -0.398 -0.08 -0.403 -0.078 -0.407 -0.073 -0.409 -0.068 -0.409 -0.063 -0.407 -0.055 -0.404 -0.047 -0.399 -0.038 -0.393 -0.027 -0.386 -0.016 -0.376 -0.003 -0.367 0.013 -0.356 0.028 -0.345 0.048 -0.333 0.07 -0.321 0 0zm2.759 -6.526l0.201 1.508 0 0 0.073 -0.017 0.047 -0.021 0.018 -0.013 -0.006 0.007 -0.026 0.03 -0.037 0.051 -0.046 0.073 -0.051 0.093 -0.055 0.111 -0.057 0.127 -0.059 0.143 -0.059 0.156 -0.06 0.169 -0.06 0.181 -0.06 0.191 -0.06 0.201 -0.06 0.21 -0.061 0.218 -0.06 0.226 -0.06 0.231 -0.06 0.237 -0.061 0.243 -0.061 0.247 -0.06 0.251 -0.062 0.254 -0.062 0.256 -0.062 0.257 -0.062 0.258 -0.064 0.26 -0.065 0.259 -0.065 0.257 -0.066 0.256 -1.471 -0.384 0.063 -0.248 0.064 -0.252 0.063 -0.253 0.063 -0.255 0.062 -0.256 0.062 -0.257 0.061 -0.256 0.062 -0.254 0.062 -0.254 0.062 -0.251 0.061 -0.249 0.063 -0.245 0.062 -0.241 0.064 -0.236 0.063 -0.231 0.065 -0.226 0.066 -0.22 0.067 -0.212 0.068 -0.206 0.071 -0.199 0.072 -0.191 0.075 -0.183 0.079 -0.176 0.083 -0.168 0.089 -0.161 0.097 -0.154 0.108 -0.148 0.123 -0.14 0.145 -0.132 0.174 -0.12 0.205 -0.095 0.235 -0.056 0 -0.001zm3.26 3.569l-1.461 0.422 -0.032 -0.104 -0.036 -0.108 -0.041 -0.112 -0.044 -0.116 -0.048 -0.115 -0.052 -0.119 -0.055 -0.119 -0.058 -0.119 -0.061 -0.119 -0.064 -0.118 -0.066 -0.116 -0.067 -0.115 -0.07 -0.111 -0.071 -0.108 -0.072 -0.106 -0.072 -0.1 -0.073 -0.096 -0.073 -0.09 -0.072 -0.084 -0.071 -0.078 -0.068 -0.069 -0.067 -0.062 -0.064 -0.056 -0.058 -0.045 -0.052 -0.035 -0.046 -0.028 -0.036 -0.019 -0.024 -0.01 -0.014 -0.004 -0.003 -0.001 0.012 0 0.02 -0.001 -0.201 -1.508 0.186 -0.012 0.179 0.013 0.169 0.031 0.16 0.048 0.152 0.062 0.14 0.072 0.132 0.079 0.128 0.088 0.121 0.095 0.115 0.099 0.113 0.106 0.11 0.111 0.105 0.116 0.103 0.119 0.1 0.124 0.098 0.128 0.095 0.132 0.092 0.134 0.09 0.137 0.087 0.14 0.084 0.141 0.081 0.144 0.078 0.145 0.075 0.146 0.072 0.147 0.068 0.147 0.064 0.147 0.061 0.148 0.057 0.146 0.053 0.146 0.048 0.146 0.044 0.144zm0 0c0.116,0.403 -0.116,0.825 -0.52,0.941 -0.403,0.117 -0.825,-0.116 -0.941,-0.519l1.461 -0.422z"/>
   </g>
   <g>
    <path class="fil0" d="M42.72 41.31c0.294,-0.3 0.775,-0.306 1.076,-0.013 0.3,0.293 0.306,0.775 0.013,1.076l-1.089 -1.063zm-0.527 4.573l-1.464 0.412 0 0 -0.057 -0.243 -0.034 -0.242 -0.014 -0.242 0.005 -0.238 0.021 -0.234 0.035 -0.229 0.048 -0.225 0.06 -0.219 0.069 -0.214 0.078 -0.209 0.084 -0.204 0.092 -0.198 0.096 -0.193 0.1 -0.186 0.103 -0.18 0.106 -0.174 0.106 -0.167 0.107 -0.159 0.105 -0.152 0.104 -0.143 0.102 -0.136 0.098 -0.127 0.093 -0.116 0.088 -0.108 0.082 -0.096 0.073 -0.086 0.067 -0.076 0.057 -0.063 0.046 -0.05 0.036 -0.039 0.024 -0.025 0.011 -0.012 1.089 1.063 -0.002 0.001 -0.015 0.016 -0.026 0.028 -0.038 0.041 -0.046 0.052 -0.054 0.062 -0.064 0.073 -0.07 0.083 -0.075 0.092 -0.08 0.101 -0.084 0.108 -0.087 0.115 -0.088 0.123 -0.09 0.129 -0.09 0.133 -0.088 0.139 -0.086 0.142 -0.084 0.146 -0.08 0.149 -0.075 0.149 -0.069 0.151 -0.063 0.152 -0.056 0.15 -0.048 0.148 -0.04 0.146 -0.03 0.142 -0.022 0.137 -0.011 0.133 -0.003 0.126 0.007 0.119 0.016 0.115 0.025 0.109 0 0zm7.612 1.75l1.466 0.403 0 0.001 -0.244 0.817 -0.261 0.744 -0.279 0.674 -0.296 0.606 -0.314 0.541 -0.333 0.477 -0.354 0.416 -0.376 0.354 -0.398 0.29 -0.42 0.225 -0.437 0.155 -0.447 0.085 -0.448 0.014 -0.441 -0.052 -0.429 -0.111 -0.414 -0.164 -0.398 -0.21 -0.383 -0.252 -0.369 -0.289 -0.355 -0.324 -0.342 -0.355 -0.328 -0.385 -0.316 -0.412 -0.302 -0.437 -0.289 -0.46 -0.274 -0.481 -0.259 -0.5 -0.243 -0.516 -0.226 -0.531 -0.208 -0.544 -0.189 -0.554 -0.17 -0.563 1.464 -0.412 0.154 0.509 0.171 0.502 0.189 0.492 0.204 0.479 0.218 0.465 0.232 0.447 0.243 0.426 0.253 0.404 0.262 0.379 0.268 0.35 0.274 0.321 0.276 0.287 0.277 0.253 0.274 0.215 0.269 0.177 0.261 0.138 0.25 0.1 0.237 0.061 0.226 0.027 0.216 -0.006 0.213 -0.041 0.217 -0.077 0.226 -0.121 0.236 -0.172 0.246 -0.232 0.252 -0.297 0.256 -0.366 0.255 -0.439 0.251 -0.515 0.245 -0.592 0.236 -0.671 0.225 -0.753 0 0zm-1.177 -7.386l1.375 -0.651 0 0 0.061 0.135 0.063 0.148 0.065 0.164 0.067 0.178 0.069 0.193 0.071 0.207 0.072 0.22 0.073 0.232 0.074 0.243 0.074 0.254 0.073 0.264 0.072 0.272 0.072 0.281 0.069 0.288 0.066 0.293 0.064 0.298 0.06 0.303 0.057 0.305 0.052 0.309 0.046 0.309 0.042 0.311 0.035 0.31 0.029 0.309 0.021 0.307 0.013 0.304 0.005 0.301 -0.004 0.297 -0.015 0.293 -0.025 0.287 -0.037 0.281 -0.051 0.276 -0.065 0.268 -1.466 -0.403 0.043 -0.18 0.036 -0.197 0.028 -0.211 0.02 -0.225 0.011 -0.237 0.004 -0.247 -0.004 -0.257 -0.012 -0.264 -0.018 -0.27 -0.026 -0.277 -0.032 -0.279 -0.037 -0.282 -0.043 -0.284 -0.048 -0.284 -0.053 -0.284 -0.056 -0.281 -0.059 -0.279 -0.063 -0.275 -0.064 -0.269 -0.067 -0.263 -0.068 -0.255 -0.068 -0.247 -0.069 -0.238 -0.069 -0.227 -0.068 -0.214 -0.066 -0.202 -0.064 -0.188 -0.062 -0.171 -0.059 -0.156 -0.053 -0.135 -0.049 -0.116 -0.042 -0.092 0 0zm0.897 0.869l-1.466 0.404 0 0 -0.045 -0.173 -0.04 -0.168 -0.035 -0.164 -0.029 -0.16 -0.024 -0.154 -0.019 -0.149 -0.014 -0.145 -0.008 -0.14 -0.004 -0.134 0.001 -0.131 0.006 -0.128 0.013 -0.125 0.019 -0.121 0.025 -0.121 0.036 -0.121 0.047 -0.123 0.068 -0.13 0.091 -0.129 0.124 -0.128 0.173 -0.117 0.215 -0.08 0.227 -0.023 0.21 0.028 0.179 0.066 0.148 0.085 0.119 0.095 0.099 0.098 0.086 0.103 0.076 0.107 0.07 0.111 0.067 0.121 0.063 0.126 -1.375 0.651 -0.034 -0.07 -0.03 -0.053 -0.025 -0.041 -0.018 -0.024 -0.006 -0.007 0.009 0.008 0.033 0.026 0.063 0.036 0.099 0.036 0.133 0.018 0.153 -0.016 0.146 -0.054 0.108 -0.073 0.065 -0.066 0.036 -0.05 0.018 -0.035 0.004 -0.011 -0.002 0.006 -0.004 0.023 -0.006 0.037 -0.005 0.049 -0.003 0.06 0 0.071 0.002 0.081 0.006 0.089 0.009 0.097 0.013 0.105 0.017 0.112 0.022 0.119 0.027 0.125 0.031 0.133 0.036 0.138 0 0zm3.634 9.024l-1.169 0.974 0 0 -0.143 -0.185 -0.139 -0.203 -0.137 -0.22 -0.139 -0.24 -0.139 -0.257 -0.14 -0.274 -0.142 -0.29 -0.143 -0.305 -0.145 -0.318 -0.145 -0.33 -0.146 -0.339 -0.146 -0.349 -0.145 -0.356 -0.145 -0.362 -0.143 -0.365 -0.142 -0.368 -0.139 -0.368 -0.137 -0.367 -0.134 -0.364 -0.13 -0.36 -0.126 -0.354 -0.122 -0.346 -0.116 -0.337 -0.111 -0.325 -0.106 -0.313 -0.098 -0.298 -0.092 -0.282 -0.084 -0.265 -0.077 -0.245 -0.069 -0.225 -0.06 -0.203 -0.051 -0.181 1.466 -0.404 0.046 0.162 0.056 0.188 0.065 0.214 0.074 0.236 0.082 0.256 0.089 0.275 0.096 0.291 0.103 0.306 0.109 0.319 0.114 0.33 0.12 0.34 0.123 0.347 0.128 0.353 0.131 0.357 0.134 0.36 0.137 0.36 0.138 0.359 0.14 0.357 0.141 0.352 0.141 0.344 0.141 0.338 0.14 0.326 0.138 0.315 0.137 0.3 0.134 0.286 0.131 0.267 0.127 0.247 0.121 0.225 0.115 0.199 0.106 0.171 0.096 0.14 0.081 0.104 0 0zm3.428 -7.444l-1.508 -0.196 0 0 0.087 -0.321 1.322 -0.14 0.158 0.346 0.045 0.221 0.037 0.258 0.034 0.31 0.032 0.362 0.028 0.409 0.023 0.451 0.018 0.487 0.011 0.517 0.003 0.539 -0.006 0.556 -0.017 0.566 -0.03 0.571 -0.043 0.567 -0.058 0.559 -0.075 0.545 -0.094 0.526 -0.115 0.5 -0.141 0.473 -0.172 0.441 -0.213 0.407 -0.27 0.368 -0.349 0.314 -0.442 0.221 -0.507 0.077 -0.506 -0.079 -0.478 -0.206 -0.455 -0.31 -0.453 -0.408 -0.463 -0.513 1.169 -0.974 0.375 0.416 0.32 0.29 0.254 0.173 0.17 0.076 0.083 0.014 0.028 -0.005 0.037 -0.021 0.08 -0.075 0.111 -0.154 0.122 -0.236 0.119 -0.307 0.11 -0.368 0.096 -0.418 0.082 -0.459 0.067 -0.489 0.053 -0.513 0.04 -0.529 0.028 -0.536 0.016 -0.536 0.006 -0.529 -0.003 -0.515 -0.01 -0.492 -0.017 -0.464 -0.023 -0.427 -0.026 -0.383 -0.029 -0.332 -0.029 -0.269 -0.028 -0.196 -0.018 -0.09 0.1 0.188 1.27 -0.129 0.044 -0.129 0 0zm1.342 8.047l-1.283 0.817 0 0 -0.109 -0.19 -0.097 -0.202 -0.09 -0.216 -0.085 -0.231 -0.081 -0.247 -0.079 -0.262 -0.077 -0.276 -0.075 -0.289 -0.072 -0.302 -0.07 -0.313 -0.069 -0.322 -0.066 -0.33 -0.063 -0.335 -0.061 -0.341 -0.059 -0.344 -0.055 -0.346 -0.053 -0.345 -0.049 -0.345 -0.047 -0.34 -0.042 -0.336 -0.04 -0.33 -0.035 -0.322 -0.031 -0.312 -0.027 -0.301 -0.023 -0.288 -0.018 -0.276 -0.014 -0.26 -0.008 -0.244 -0.003 -0.227 0.003 -0.21 0.01 -0.195 0.018 -0.183 1.508 0.196 -0.009 0.094 -0.006 0.133 -0.003 0.164 0.003 0.192 0.007 0.215 0.012 0.236 0.017 0.254 0.022 0.271 0.025 0.286 0.03 0.297 0.034 0.308 0.037 0.316 0.041 0.324 0.045 0.328 0.047 0.332 0.052 0.333 0.053 0.333 0.056 0.33 0.059 0.327 0.061 0.321 0.062 0.314 0.065 0.304 0.066 0.292 0.067 0.279 0.068 0.265 0.068 0.246 0.068 0.227 0.068 0.204 0.066 0.179 0.062 0.15 0.055 0.116 0.044 0.077 0 0zm3.288 -6.925l1.45 -0.462 0 0.001 0.075 0.312 0.039 0.324 0.013 0.339 -0.01 0.359 -0.029 0.379 -0.047 0.395 -0.065 0.412 -0.081 0.425 -0.095 0.436 -0.111 0.443 -0.124 0.448 -0.137 0.45 -0.15 0.448 -0.162 0.442 -0.174 0.435 -0.184 0.423 -0.195 0.408 -0.206 0.392 -0.217 0.37 -0.229 0.348 -0.241 0.321 -0.258 0.294 -0.279 0.261 -0.305 0.225 -0.34 0.177 -0.38 0.114 -0.41 0.026 -0.413 -0.076 -0.385 -0.175 -0.344 -0.253 -0.304 -0.319 -0.273 -0.38 1.283 -0.817 0.167 0.232 0.142 0.15 0.107 0.081 0.068 0.031 0.043 0.008 0.045 -0.004 0.074 -0.024 0.109 -0.058 0.139 -0.103 0.16 -0.151 0.172 -0.196 0.179 -0.238 0.18 -0.275 0.18 -0.308 0.176 -0.334 0.171 -0.359 0.165 -0.377 0.156 -0.391 0.147 -0.403 0.137 -0.409 0.126 -0.411 0.113 -0.41 0.101 -0.404 0.087 -0.394 0.072 -0.379 0.056 -0.361 0.041 -0.337 0.024 -0.308 0.007 -0.273 -0.009 -0.23 -0.02 -0.178 -0.027 -0.113 0 0.001zm0.693 0.276l-1.333 0.732 0 0 -0.076 -0.15 -0.066 -0.15 -0.054 -0.15 -0.044 -0.15 -0.033 -0.149 -0.023 -0.147 -0.013 -0.145 -0.003 -0.145 0.007 -0.139 0.017 -0.137 0.027 -0.136 0.038 -0.132 0.048 -0.128 0.061 -0.125 0.075 -0.121 0.09 -0.116 0.108 -0.108 0.129 -0.1 0.151 -0.082 0.171 -0.06 0.188 -0.029 0.19 0.006 0.187 0.041 0.169 0.071 0.146 0.09 0.129 0.107 0.109 0.117 0.093 0.124 0.081 0.132 0.072 0.139 0.062 0.148 0.054 0.154 -1.45 0.462 -0.025 -0.073 -0.022 -0.053 -0.019 -0.036 -0.012 -0.02 -0.003 -0.004 0.011 0.012 0.028 0.023 0.046 0.028 0.068 0.028 0.087 0.019 0.092 0.003 0.091 -0.014 0.078 -0.027 0.062 -0.033 0.045 -0.035 0.028 -0.028 0.017 -0.022 0.009 -0.013 0.002 -0.004 -0.002 0.004 -0.003 0.012 -0.004 0.019 -0.003 0.027 -0.002 0.034 0.001 0.036 0.004 0.044 0.007 0.048 0.012 0.052 0.016 0.057 0.022 0.06 0.028 0.064 0.034 0.067 0 0.001zm3.52 4.568l-1.507 0.208 0 -0.001 -0.044 -0.272 -0.052 -0.251 -0.059 -0.23 -0.066 -0.21 -0.071 -0.192 -0.077 -0.175 -0.081 -0.159 -0.085 -0.145 -0.088 -0.134 -0.092 -0.121 -0.095 -0.113 -0.098 -0.104 -0.103 -0.098 -0.105 -0.092 -0.109 -0.086 -0.112 -0.083 -0.116 -0.079 -0.119 -0.076 -0.122 -0.075 -0.124 -0.073 -0.127 -0.074 -0.13 -0.074 -0.131 -0.077 -0.132 -0.08 -0.134 -0.085 -0.134 -0.092 -0.134 -0.1 -0.133 -0.11 -0.129 -0.124 -0.125 -0.138 -0.115 -0.153 -0.104 -0.168 1.333 -0.732 0.026 0.042 0.033 0.042 0.041 0.046 0.052 0.048 0.063 0.053 0.075 0.056 0.087 0.059 0.098 0.062 0.109 0.066 0.118 0.069 0.126 0.073 0.134 0.078 0.141 0.082 0.147 0.09 0.151 0.097 0.155 0.106 0.157 0.115 0.158 0.127 0.157 0.137 0.157 0.15 0.154 0.163 0.149 0.177 0.144 0.192 0.138 0.207 0.129 0.222 0.121 0.238 0.111 0.252 0.1 0.27 0.09 0.286 0.078 0.304 0.067 0.32 0.054 0.339 0 0zm-6.953 13.791l-0.865 -1.251 0 0 0.249 -0.184 0.261 -0.217 0.27 -0.248 0.278 -0.278 0.283 -0.303 0.286 -0.329 0.288 -0.351 0.289 -0.373 0.288 -0.391 0.285 -0.407 0.283 -0.423 0.278 -0.436 0.272 -0.447 0.266 -0.456 0.258 -0.463 0.248 -0.469 0.239 -0.472 0.228 -0.474 0.215 -0.473 0.202 -0.47 0.188 -0.467 0.173 -0.46 0.155 -0.451 0.139 -0.441 0.121 -0.429 0.1 -0.412 0.082 -0.395 0.06 -0.375 0.038 -0.352 0.018 -0.326 -0.004 -0.296 -0.025 -0.264 1.507 -0.208 0.037 0.393 0.005 0.406 -0.022 0.419 -0.047 0.432 -0.071 0.444 -0.093 0.456 -0.114 0.466 -0.134 0.475 -0.152 0.483 -0.17 0.491 -0.185 0.495 -0.201 0.499 -0.216 0.502 -0.229 0.503 -0.241 0.501 -0.252 0.5 -0.263 0.495 -0.272 0.489 -0.281 0.483 -0.288 0.473 -0.295 0.462 -0.301 0.45 -0.306 0.437 -0.31 0.42 -0.312 0.404 -0.316 0.385 -0.317 0.364 -0.319 0.343 -0.32 0.319 -0.321 0.294 -0.323 0.269 -0.324 0.239 0 0zm-0.227 -0.327l0.637 1.382 0 0 -0.218 0.099 -0.212 0.093 -0.207 0.087 -0.199 0.081 -0.192 0.074 -0.185 0.068 -0.178 0.062 -0.169 0.054 -0.162 0.047 -0.157 0.041 -0.151 0.032 -0.148 0.024 -0.152 0.015 -0.163 0 -0.186 -0.025 -0.236 -0.083 -0.266 -0.212 -0.176 -0.346 -0.016 -0.332 0.065 -0.239 0.088 -0.171 0.097 -0.142 0.107 -0.129 0.119 -0.128 0.135 -0.13 0.151 -0.135 0.17 -0.144 0.189 -0.152 0.211 -0.162 0.232 -0.173 0.255 -0.184 0.279 -0.196 0.865 1.251 -0.263 0.185 -0.238 0.171 -0.213 0.159 -0.188 0.144 -0.162 0.131 -0.139 0.118 -0.114 0.102 -0.088 0.085 -0.063 0.067 -0.036 0.043 -0.007 0.009 0.02 -0.04 0.034 -0.129 -0.012 -0.24 -0.14 -0.275 -0.197 -0.158 -0.136 -0.05 -0.057 -0.008 -0.004 -0.001 0.033 -0.003 0.064 -0.011 0.086 -0.019 0.104 -0.026 0.12 -0.035 0.135 -0.044 0.147 -0.05 0.158 -0.059 0.169 -0.065 0.178 -0.072 0.186 -0.079 0.195 -0.085 0.201 -0.092 0 0zm80.071 1.071l-0.608 1.394 -2.028 -0.81 -2.19 -0.737 -2.338 -0.666 -2.474 -0.594 -2.595 -0.528 -2.703 -0.461 -2.797 -0.398 -2.879 -0.336 -2.945 -0.278 -2.999 -0.222 -3.041 -0.169 -3.068 -0.117 -3.083 -0.07 -3.084 -0.023 -3.072 0.019 -3.047 0.06 -3.008 0.098 -2.957 0.133 -2.893 0.165 -2.815 0.196 -2.724 0.222 -2.619 0.247 -2.503 0.269 -2.371 0.288 -2.228 0.304 -2.07 0.318 -1.899 0.329 -1.713 0.336 -1.514 0.341 -1.298 0.342 -1.064 0.337 -0.807 0.322 -0.637 -1.382 0.938 -0.375 1.15 -0.364 1.36 -0.358 1.56 -0.351 1.75 -0.344 1.93 -0.334 2.097 -0.322 2.251 -0.308 2.393 -0.29 2.522 -0.271 2.639 -0.249 2.743 -0.224 2.833 -0.197 2.911 -0.166 2.976 -0.134 3.028 -0.099 3.066 -0.06 3.093 -0.019 3.106 0.023 3.106 0.07 3.093 0.119 3.068 0.17 3.029 0.224 2.977 0.281 2.914 0.341 2.837 0.403 2.747 0.469 2.645 0.537 2.53 0.609 2.404 0.684 2.263 0.762 2.112 0.844zm0 0c0.385,0.168 0.561,0.616 0.393,1.001 -0.168,0.385 -0.616,0.561 -1.001,0.393l0.608 -1.394z"/>
   </g>
   <g>
    <path class="fil0" d="M80.553 41.272c-0.28,0.313 -0.761,0.34 -1.074,0.06 -0.313,-0.28 -0.339,-0.761 -0.059,-1.074l1.133 1.014zm-1.154 -1.888l0.942 -1.194 0 0 0.137 0.116 0.125 0.121 0.113 0.128 0.102 0.134 0.087 0.138 0.074 0.142 0.061 0.145 0.047 0.146 0.035 0.146 0.021 0.143 0.01 0.138 0 0.136 -0.009 0.131 -0.017 0.125 -0.024 0.118 -0.028 0.113 -0.033 0.105 -0.036 0.101 -0.04 0.095 -0.039 0.087 -0.041 0.082 -0.042 0.076 -0.041 0.07 -0.039 0.063 -0.038 0.057 -0.036 0.052 -0.034 0.046 -0.028 0.038 -0.026 0.032 -0.019 0.024 -0.013 0.015 -0.017 0.019 -1.133 -1.014 -0.012 0.013 0.004 -0.004 0.006 -0.007 0.008 -0.01 0.012 -0.016 0.013 -0.018 0.015 -0.022 0.018 -0.026 0.018 -0.029 0.018 -0.031 0.018 -0.033 0.017 -0.034 0.017 -0.038 0.015 -0.034 0.012 -0.036 0.012 -0.036 0.009 -0.035 0.006 -0.033 0.004 -0.031 0.003 -0.028 0 -0.028 -0.002 -0.026 -0.004 -0.025 -0.005 -0.023 -0.008 -0.024 -0.01 -0.026 -0.016 -0.029 -0.021 -0.033 -0.027 -0.037 -0.036 -0.04 -0.047 -0.046 -0.058 -0.049 0 0zm-4.436 1.743l-1.474 -0.375 0 0 0.1 -0.341 0.12 -0.323 0.14 -0.305 0.158 -0.285 0.175 -0.265 0.191 -0.245 0.205 -0.225 0.218 -0.205 0.228 -0.185 0.236 -0.165 0.244 -0.146 0.25 -0.128 0.254 -0.11 0.256 -0.093 0.259 -0.077 0.259 -0.062 0.258 -0.048 0.258 -0.034 0.254 -0.021 0.252 -0.009 0.248 0.003 0.244 0.013 0.237 0.025 0.232 0.034 0.226 0.045 0.218 0.053 0.21 0.063 0.202 0.073 0.194 0.083 0.185 0.093 0.175 0.106 0.166 0.119 -0.942 1.194 -0.056 -0.04 -0.076 -0.045 -0.093 -0.047 -0.108 -0.046 -0.123 -0.044 -0.135 -0.041 -0.146 -0.036 -0.155 -0.031 -0.162 -0.024 -0.17 -0.017 -0.174 -0.01 -0.178 -0.002 -0.181 0.006 -0.182 0.016 -0.182 0.023 -0.181 0.034 -0.179 0.043 -0.176 0.052 -0.172 0.063 -0.167 0.072 -0.161 0.082 -0.155 0.093 -0.148 0.103 -0.142 0.115 -0.134 0.126 -0.126 0.139 -0.119 0.152 -0.11 0.166 -0.102 0.183 -0.092 0.2 -0.081 0.219 -0.07 0.239 0 0zm5.39 5.081l-0.733 1.333 0 0 -0.213 -0.115 -0.226 -0.118 -0.237 -0.121 -0.247 -0.124 -0.255 -0.127 -0.262 -0.131 -0.267 -0.134 -0.271 -0.138 -0.274 -0.142 -0.275 -0.147 -0.276 -0.152 -0.276 -0.158 -0.272 -0.164 -0.269 -0.17 -0.265 -0.177 -0.259 -0.185 -0.252 -0.192 -0.243 -0.202 -0.234 -0.212 -0.222 -0.223 -0.21 -0.235 -0.195 -0.247 -0.178 -0.261 -0.16 -0.275 -0.137 -0.289 -0.113 -0.303 -0.086 -0.317 -0.056 -0.329 -0.026 -0.34 0.009 -0.347 0.041 -0.354 0.075 -0.36 1.474 0.375 -0.048 0.231 -0.025 0.215 -0.005 0.203 0.014 0.193 0.032 0.185 0.049 0.179 0.066 0.176 0.082 0.173 0.1 0.173 0.117 0.17 0.134 0.17 0.151 0.169 0.166 0.166 0.181 0.164 0.196 0.162 0.207 0.16 0.219 0.156 0.229 0.153 0.238 0.15 0.245 0.147 0.251 0.144 0.256 0.141 0.259 0.138 0.261 0.136 0.262 0.133 0.261 0.131 0.26 0.13 0.257 0.128 0.252 0.127 0.248 0.126 0.241 0.126 0.234 0.126 0 0zm2.686 4.264l-1.217 -0.912 0 0 0.052 -0.073 0.04 -0.065 0.029 -0.054 0.02 -0.045 0.012 -0.035 0.006 -0.025 0.002 -0.018 0.001 -0.011 -0.001 -0.011 -0.003 -0.012 -0.004 -0.016 -0.011 -0.024 -0.017 -0.033 -0.025 -0.039 -0.036 -0.049 -0.046 -0.054 -0.058 -0.061 -0.069 -0.067 -0.081 -0.072 -0.093 -0.076 -0.104 -0.08 -0.115 -0.083 -0.126 -0.087 -0.136 -0.09 -0.147 -0.094 -0.156 -0.096 -0.167 -0.1 -0.175 -0.103 -0.185 -0.106 -0.194 -0.11 -0.203 -0.113 -0.212 -0.117 0.733 -1.333 0.217 0.12 0.21 0.117 0.201 0.114 0.196 0.112 0.189 0.111 0.18 0.108 0.174 0.108 0.167 0.106 0.16 0.105 0.153 0.106 0.146 0.106 0.14 0.108 0.132 0.108 0.126 0.111 0.119 0.115 0.113 0.119 0.105 0.125 0.097 0.132 0.088 0.139 0.077 0.148 0.065 0.157 0.05 0.166 0.032 0.171 0.014 0.175 -0.005 0.177 -0.023 0.173 -0.041 0.169 -0.055 0.162 -0.069 0.157 -0.081 0.151 -0.091 0.147 -0.1 0.142 0 -0.001zm-11.152 -2.133l1.187 -0.95 0.239 0.277 0.255 0.259 0.272 0.243 0.288 0.227 0.302 0.212 0.315 0.195 0.326 0.179 0.337 0.164 0.345 0.149 0.352 0.134 0.358 0.119 0.361 0.104 0.362 0.091 0.363 0.076 0.361 0.063 0.358 0.05 0.352 0.037 0.345 0.024 0.336 0.013 0.325 0.002 0.312 -0.01 0.297 -0.019 0.28 -0.029 0.261 -0.038 0.239 -0.045 0.214 -0.051 0.188 -0.057 0.155 -0.058 0.122 -0.057 0.083 -0.049 0.042 -0.032 0.003 -0.002 1.217 0.912 -0.192 0.211 -0.213 0.168 -0.229 0.137 -0.244 0.115 -0.26 0.097 -0.275 0.083 -0.293 0.071 -0.308 0.058 -0.324 0.047 -0.339 0.035 -0.353 0.023 -0.365 0.011 -0.376 -0.002 -0.387 -0.015 -0.395 -0.028 -0.403 -0.043 -0.408 -0.056 -0.413 -0.072 -0.416 -0.088 -0.418 -0.104 -0.417 -0.121 -0.417 -0.139 -0.412 -0.157 -0.408 -0.176 -0.402 -0.195 -0.394 -0.217 -0.385 -0.238 -0.372 -0.26 -0.359 -0.284 -0.344 -0.307 -0.326 -0.331 -0.305 -0.356zm0 0c-0.262,-0.328 -0.209,-0.807 0.119,-1.069 0.328,-0.262 0.806,-0.209 1.068,0.119l-1.187 0.95z"/>
   </g>
   <g>
    <path class="fil0" d="M87.063 38.798c0.412,0.085 0.677,0.487 0.593,0.898 -0.085,0.411 -0.487,0.677 -0.898,0.592l0.305 -1.49zm-2.443 3.326l-1.47 -0.39 0 0 0.086 -0.294 0.097 -0.277 0.106 -0.26 0.117 -0.244 0.126 -0.227 0.135 -0.21 0.142 -0.195 0.15 -0.18 0.156 -0.163 0.16 -0.147 0.164 -0.133 0.167 -0.117 0.167 -0.103 0.168 -0.09 0.167 -0.077 0.163 -0.064 0.161 -0.054 0.157 -0.044 0.15 -0.034 0.145 -0.026 0.139 -0.018 0.13 -0.013 0.124 -0.007 0.113 -0.002 0.104 0.001 0.095 0.004 0.083 0.006 0.073 0.007 0.061 0.008 0.048 0.007 0.032 0.005 0.027 0.005 -0.305 1.49 0.014 0.003 -0.006 -0.001 -0.014 -0.002 -0.024 -0.003 -0.032 -0.003 -0.043 -0.003 -0.048 -0.003 -0.057 0 -0.062 0.001 -0.067 0.004 -0.072 0.006 -0.076 0.011 -0.079 0.014 -0.082 0.019 -0.083 0.023 -0.085 0.028 -0.087 0.034 -0.086 0.04 -0.087 0.046 -0.088 0.054 -0.088 0.062 -0.087 0.071 -0.088 0.08 -0.087 0.091 -0.086 0.103 -0.085 0.116 -0.083 0.131 -0.082 0.147 -0.078 0.163 -0.075 0.182 -0.07 0.201 -0.065 0.221 0 0zm2.078 7.38l-0.855 1.258 0 0 -0.19 -0.142 -0.179 -0.158 -0.172 -0.173 -0.166 -0.188 -0.16 -0.2 -0.155 -0.214 -0.151 -0.227 -0.147 -0.238 -0.142 -0.25 -0.138 -0.26 -0.133 -0.271 -0.129 -0.279 -0.123 -0.289 -0.117 -0.296 -0.111 -0.304 -0.105 -0.31 -0.098 -0.315 -0.09 -0.32 -0.083 -0.325 -0.074 -0.329 -0.065 -0.33 -0.057 -0.333 -0.046 -0.334 -0.035 -0.335 -0.025 -0.333 -0.013 -0.334 0 -0.331 0.013 -0.33 0.026 -0.326 0.041 -0.323 0.058 -0.318 0.073 -0.313 1.47 0.39 -0.054 0.231 -0.043 0.24 -0.032 0.25 -0.021 0.26 -0.01 0.266 0 0.274 0.011 0.278 0.021 0.283 0.03 0.286 0.04 0.288 0.049 0.29 0.057 0.289 0.065 0.288 0.073 0.286 0.08 0.283 0.086 0.279 0.093 0.273 0.098 0.267 0.102 0.26 0.108 0.251 0.11 0.243 0.114 0.231 0.117 0.22 0.118 0.207 0.119 0.194 0.119 0.177 0.117 0.162 0.115 0.145 0.111 0.125 0.105 0.106 0.096 0.085 0.084 0.063 0 0zm2.712 -3.05l1.518 -0.09 0 0 0.015 0.395 -0.003 0.379 -0.021 0.362 -0.038 0.347 -0.054 0.331 -0.07 0.315 -0.086 0.3 -0.101 0.284 -0.116 0.269 -0.131 0.252 -0.144 0.235 -0.157 0.22 -0.169 0.202 -0.181 0.184 -0.191 0.167 -0.2 0.148 -0.207 0.129 -0.214 0.112 -0.219 0.093 -0.223 0.074 -0.224 0.057 -0.226 0.039 -0.227 0.022 -0.226 0.005 -0.223 -0.011 -0.222 -0.027 -0.218 -0.044 -0.214 -0.058 -0.208 -0.074 -0.203 -0.088 -0.196 -0.104 -0.188 -0.117 0.855 -1.258 0.092 0.057 0.096 0.051 0.101 0.044 0.105 0.037 0.108 0.03 0.11 0.022 0.112 0.013 0.115 0.006 0.114 -0.002 0.113 -0.011 0.114 -0.02 0.112 -0.028 0.111 -0.037 0.11 -0.047 0.107 -0.056 0.106 -0.066 0.103 -0.076 0.1 -0.088 0.098 -0.1 0.095 -0.113 0.091 -0.126 0.087 -0.142 0.082 -0.157 0.075 -0.174 0.068 -0.192 0.06 -0.209 0.05 -0.229 0.041 -0.247 0.029 -0.267 0.016 -0.287 0.003 -0.308 -0.012 -0.329 0 0.001zm-2.842 -4.824l0.178 -1.511 0.247 0.033 0.24 0.041 0.234 0.049 0.229 0.057 0.222 0.067 0.217 0.077 0.21 0.088 0.204 0.099 0.196 0.112 0.189 0.123 0.182 0.136 0.171 0.149 0.162 0.159 0.152 0.171 0.142 0.183 0.131 0.192 0.122 0.203 0.112 0.213 0.103 0.222 0.094 0.231 0.086 0.241 0.078 0.252 0.071 0.262 0.065 0.272 0.059 0.283 0.052 0.295 0.047 0.307 0.042 0.319 0.038 0.332 0.032 0.345 0.029 0.359 0.024 0.373 -1.518 0.09 -0.024 -0.353 -0.026 -0.337 -0.03 -0.321 -0.034 -0.304 -0.038 -0.289 -0.042 -0.272 -0.046 -0.257 -0.05 -0.242 -0.054 -0.226 -0.057 -0.21 -0.061 -0.196 -0.065 -0.182 -0.068 -0.168 -0.071 -0.153 -0.074 -0.141 -0.076 -0.128 -0.08 -0.116 -0.083 -0.106 -0.086 -0.097 -0.09 -0.089 -0.094 -0.081 -0.1 -0.075 -0.106 -0.07 -0.114 -0.064 -0.123 -0.06 -0.132 -0.055 -0.142 -0.051 -0.152 -0.046 -0.164 -0.041 -0.175 -0.036 -0.187 -0.032 -0.198 -0.026zm0 0c-0.417,-0.049 -0.715,-0.428 -0.666,-0.845 0.049,-0.417 0.427,-0.715 0.844,-0.666l-0.178 1.511z"/>
   </g>
   <g>
    <g>
     <path class="fil0" d="M92.561 38.76c-0.099,-0.408 0.152,-0.819 0.56,-0.918 0.408,-0.099 0.819,0.152 0.918,0.56l-1.478 0.358zm3.724 15.361l-3.724 -15.361 1.478 -0.358 3.724 15.361 -1.478 0.358zm1.478 -0.358c0.099,0.407 -0.151,0.819 -0.559,0.918 -0.408,0.099 -0.82,-0.152 -0.919,-0.56l1.478 -0.358z"/>
    </g>
    <g>
     <path class="fil0" d="M94.489 41.692c-0.381,0.177 -0.834,0.013 -1.011,-0.368 -0.178,-0.38 -0.013,-0.833 0.367,-1.01l0.644 1.378zm0.745 5.142l0.41 -1.465 1.187 0.295 1.085 0.196 0.982 0.107 0.882 0.025 0.781 -0.048 0.683 -0.111 0.586 -0.164 0.492 -0.208 0.404 -0.241 0.32 -0.266 0.246 -0.282 0.18 -0.296 0.119 -0.308 0.062 -0.318 0.008 -0.329 -0.048 -0.338 -0.106 -0.342 -0.165 -0.342 -0.225 -0.334 -0.287 -0.322 -0.349 -0.3 -0.413 -0.273 -0.475 -0.236 -0.539 -0.194 -0.603 -0.144 -0.666 -0.085 -0.73 -0.018 -0.792 0.058 -0.854 0.14 -0.915 0.231 -0.973 0.331 -1.032 0.439 -0.644 -1.378 1.131 -0.481 1.085 -0.369 1.036 -0.262 0.986 -0.162 0.934 -0.067 0.88 0.021 0.824 0.105 0.764 0.182 0.703 0.253 0.638 0.318 0.569 0.376 0.498 0.428 0.423 0.473 0.344 0.512 0.262 0.542 0.174 0.566 0.083 0.581 -0.014 0.585 -0.114 0.578 -0.215 0.556 -0.317 0.522 -0.414 0.475 -0.506 0.419 -0.593 0.355 -0.678 0.286 -0.76 0.213 -0.842 0.137 -0.925 0.057 -1.009 -0.029 -1.097 -0.119 -1.185 -0.215 -1.276 -0.316zm0 0c-0.404,-0.113 -0.64,-0.533 -0.527,-0.937 0.112,-0.405 0.532,-0.641 0.937,-0.528l-0.41 1.465z"/>
    </g>
   </g>
   <g>
    <g>
     <path class="fil0" d="M104.724 36.48c-0.206,-0.366 -0.077,-0.83 0.289,-1.036 0.365,-0.207 0.83,-0.077 1.036,0.288l-1.325 0.748zm5.146 13.961l-1.52 0.073 -0.045 -0.772 -0.061 -0.756 -0.076 -0.741 -0.089 -0.723 -0.101 -0.707 -0.112 -0.688 -0.123 -0.671 -0.131 -0.651 -0.139 -0.631 -0.145 -0.612 -0.152 -0.59 -0.155 -0.568 -0.159 -0.547 -0.161 -0.524 -0.162 -0.501 -0.162 -0.476 -0.161 -0.452 -0.158 -0.427 -0.155 -0.402 -0.15 -0.374 -0.144 -0.348 -0.138 -0.321 -0.13 -0.292 -0.12 -0.263 -0.11 -0.234 -0.099 -0.204 -0.086 -0.174 -0.072 -0.142 -0.058 -0.11 -0.042 -0.079 -0.024 -0.044 -0.006 -0.01 1.325 -0.748 0.013 0.025 0.032 0.057 0.047 0.089 0.065 0.124 0.079 0.156 0.093 0.187 0.106 0.218 0.117 0.249 0.128 0.279 0.136 0.308 0.145 0.337 0.151 0.365 0.158 0.393 0.162 0.42 0.165 0.446 0.168 0.472 0.169 0.497 0.169 0.522 0.168 0.546 0.165 0.569 0.162 0.592 0.157 0.615 0.152 0.636 0.145 0.658 0.136 0.677 0.128 0.699 0.117 0.717 0.105 0.736 0.093 0.754 0.079 0.772 0.063 0.789 0.048 0.805zm0 0c0.02,0.42 -0.304,0.777 -0.724,0.796 -0.419,0.02 -0.776,-0.303 -0.796,-0.723l1.52 -0.073z"/>
    </g>
    <g>
     <path class="fil0" d="M117.209 51.258c-0.019,0.419 -0.375,0.744 -0.795,0.725 -0.419,-0.019 -0.744,-0.375 -0.725,-0.794l1.52 0.069zm-8.802 -7.623l-0.922 -1.21 0.647 -0.461 0.628 -0.386 0.612 -0.314 0.596 -0.241 0.582 -0.17 0.568 -0.099 0.552 -0.029 0.533 0.04 0.509 0.108 0.481 0.171 0.449 0.229 0.416 0.278 0.383 0.323 0.35 0.361 0.319 0.393 0.29 0.423 0.265 0.448 0.239 0.47 0.216 0.489 0.193 0.505 0.173 0.518 0.153 0.529 0.134 0.537 0.115 0.542 0.097 0.543 0.08 0.543 0.063 0.54 0.047 0.532 0.031 0.524 0.016 0.511 0.001 0.497 -0.014 0.479 -1.52 -0.069 0.013 -0.431 -0.001 -0.451 -0.014 -0.467 -0.029 -0.48 -0.043 -0.49 -0.058 -0.495 -0.073 -0.498 -0.089 -0.496 -0.104 -0.492 -0.121 -0.484 -0.136 -0.473 -0.153 -0.457 -0.168 -0.438 -0.183 -0.416 -0.199 -0.391 -0.214 -0.362 -0.226 -0.33 -0.239 -0.295 -0.25 -0.258 -0.26 -0.22 -0.27 -0.181 -0.28 -0.142 -0.293 -0.105 -0.311 -0.066 -0.333 -0.025 -0.362 0.018 -0.394 0.07 -0.428 0.125 -0.464 0.187 -0.499 0.256 -0.533 0.328 -0.568 0.405zm0 0c-0.334,0.254 -0.811,0.19 -1.066,-0.144 -0.254,-0.334 -0.189,-0.811 0.144,-1.066l0.922 1.21z"/>
    </g>
   </g>
   <g>
    <path class="fil0" d="M119.516 44.019c-0.315,-0.276 -0.347,-0.757 -0.07,-1.073 0.276,-0.315 0.757,-0.347 1.073,-0.07l-1.003 1.143zm7.596 0.476l1.521 0 0 0 -0.019 0.633 -0.056 0.573 -0.094 0.515 -0.136 0.466 -0.182 0.416 -0.232 0.369 -0.288 0.312 -0.337 0.245 -0.371 0.167 -0.387 0.09 -0.386 0.021 -0.381 -0.034 -0.373 -0.078 -0.368 -0.116 -0.364 -0.147 -0.361 -0.172 -0.359 -0.196 -0.357 -0.215 -0.354 -0.231 -0.349 -0.245 -0.346 -0.254 -0.338 -0.262 -0.331 -0.267 -0.322 -0.267 -0.311 -0.266 -0.299 -0.26 -0.283 -0.252 -0.268 -0.241 -0.249 -0.226 -0.229 -0.207 -0.206 -0.186 -0.181 -0.161 1.003 -1.143 0.192 0.171 0.212 0.191 0.23 0.208 0.247 0.224 0.262 0.236 0.276 0.244 0.287 0.251 0.297 0.253 0.304 0.254 0.311 0.249 0.314 0.243 0.316 0.233 0.314 0.22 0.311 0.203 0.304 0.184 0.295 0.161 0.282 0.135 0.264 0.106 0.242 0.077 0.214 0.046 0.182 0.017 0.146 -0.008 0.113 -0.025 0.092 -0.04 0.085 -0.062 0.09 -0.099 0.097 -0.154 0.097 -0.224 0.087 -0.299 0.069 -0.378 0.045 -0.458 0.016 -0.54 0 0zm-7.148 1.804l-1.521 0 0 0 0.027 -0.651 0.082 -0.613 0.135 -0.573 0.184 -0.533 0.232 -0.491 0.275 -0.448 0.315 -0.403 0.35 -0.357 0.379 -0.313 0.403 -0.268 0.422 -0.224 0.438 -0.182 0.449 -0.142 0.455 -0.104 0.46 -0.068 0.462 -0.033 0.46 0.001 0.455 0.032 0.448 0.063 0.439 0.093 0.426 0.122 0.412 0.151 0.394 0.18 0.372 0.209 0.35 0.237 0.322 0.268 0.29 0.3 0.253 0.331 0.21 0.363 0.158 0.393 0.099 0.419 0.034 0.437 -1.521 0 -0.016 -0.203 -0.045 -0.192 -0.076 -0.187 -0.107 -0.185 -0.14 -0.182 -0.172 -0.177 -0.203 -0.169 -0.235 -0.159 -0.261 -0.146 -0.284 -0.13 -0.305 -0.112 -0.322 -0.092 -0.335 -0.071 -0.345 -0.048 -0.349 -0.025 -0.352 -0.001 -0.351 0.025 -0.345 0.051 -0.336 0.077 -0.325 0.103 -0.311 0.129 -0.295 0.156 -0.274 0.182 -0.255 0.21 -0.234 0.239 -0.211 0.27 -0.187 0.303 -0.161 0.34 -0.132 0.382 -0.099 0.424 -0.063 0.471 -0.022 0.521 0 0zm6.248 3.662l-0.054 1.52 -0.474 -0.023 -0.458 -0.034 -0.443 -0.045 -0.427 -0.055 -0.411 -0.066 -0.396 -0.076 -0.381 -0.087 -0.367 -0.096 -0.351 -0.106 -0.336 -0.115 -0.323 -0.125 -0.307 -0.135 -0.293 -0.143 -0.279 -0.152 -0.265 -0.161 -0.25 -0.17 -0.236 -0.178 -0.221 -0.187 -0.206 -0.194 -0.192 -0.202 -0.177 -0.209 -0.161 -0.216 -0.146 -0.223 -0.131 -0.228 -0.115 -0.234 -0.099 -0.237 -0.084 -0.242 -0.067 -0.245 -0.053 -0.247 -0.037 -0.25 -0.022 -0.25 -0.007 -0.251 1.521 0 0.004 0.162 0.014 0.16 0.024 0.159 0.033 0.156 0.043 0.154 0.052 0.152 0.063 0.151 0.073 0.148 0.084 0.146 0.095 0.145 0.107 0.143 0.119 0.141 0.131 0.139 0.145 0.136 0.158 0.133 0.173 0.131 0.187 0.127 0.202 0.123 0.218 0.119 0.233 0.113 0.248 0.109 0.265 0.102 0.281 0.097 0.298 0.09 0.314 0.083 0.332 0.075 0.349 0.067 0.365 0.059 0.383 0.05 0.401 0.04 0.418 0.031 0.436 0.021zm0 0c0.42,0.014 0.748,0.367 0.733,0.787 -0.015,0.419 -0.367,0.747 -0.787,0.733l0.054 -1.52z"/>
   </g>
   <g>
    <path class="fil0" d="M143.76 53.134c0.326,0.265 0.376,0.744 0.111,1.07 -0.264,0.326 -0.744,0.376 -1.07,0.111l0.959 -1.181zm-4.945 -1.665l1.185 -0.955 0 0 0.052 0.063 0.056 0.061 0.059 0.06 0.063 0.059 0.067 0.059 0.07 0.058 0.075 0.058 0.08 0.059 0.084 0.06 0.089 0.06 0.094 0.061 0.099 0.062 0.103 0.064 0.108 0.066 0.113 0.067 0.118 0.07 0.122 0.071 0.126 0.075 0.131 0.077 0.136 0.081 0.138 0.084 0.143 0.088 0.147 0.092 0.151 0.097 0.155 0.102 0.158 0.106 0.162 0.111 0.166 0.118 0.169 0.123 0.172 0.129 0.175 0.136 0.179 0.143 -0.959 1.181 -0.16 -0.128 -0.158 -0.122 -0.155 -0.117 -0.152 -0.111 -0.148 -0.105 -0.147 -0.101 -0.143 -0.096 -0.14 -0.092 -0.138 -0.088 -0.136 -0.085 -0.133 -0.082 -0.131 -0.079 -0.129 -0.078 -0.126 -0.075 -0.125 -0.073 -0.123 -0.073 -0.121 -0.071 -0.119 -0.071 -0.118 -0.071 -0.116 -0.072 -0.116 -0.073 -0.113 -0.074 -0.112 -0.075 -0.111 -0.079 -0.109 -0.08 -0.108 -0.084 -0.106 -0.088 -0.103 -0.091 -0.102 -0.096 -0.098 -0.101 -0.097 -0.105 -0.093 -0.111 0 0.001zm-1.793 -8.131l1.198 -0.937 0 0 0.245 0.332 0.21 0.326 0.179 0.322 0.147 0.317 0.116 0.313 0.088 0.307 0.061 0.3 0.036 0.294 0.013 0.284 -0.004 0.274 -0.02 0.263 -0.032 0.253 -0.039 0.242 -0.044 0.234 -0.046 0.224 -0.046 0.216 -0.042 0.209 -0.037 0.204 -0.031 0.199 -0.023 0.195 -0.012 0.193 -0.002 0.193 0.011 0.195 0.025 0.199 0.041 0.206 0.06 0.216 0.081 0.227 0.107 0.242 0.134 0.258 0.166 0.274 0.2 0.292 0.238 0.31 -1.185 0.955 -0.283 -0.371 -0.248 -0.36 -0.213 -0.353 -0.18 -0.345 -0.148 -0.337 -0.119 -0.331 -0.089 -0.323 -0.063 -0.315 -0.039 -0.306 -0.016 -0.295 0.002 -0.285 0.017 -0.273 0.03 -0.262 0.038 -0.25 0.044 -0.239 0.046 -0.229 0.046 -0.219 0.044 -0.21 0.038 -0.202 0.032 -0.194 0.023 -0.189 0.014 -0.182 0.003 -0.179 -0.008 -0.179 -0.022 -0.179 -0.037 -0.184 -0.054 -0.191 -0.075 -0.202 -0.099 -0.214 -0.127 -0.228 -0.158 -0.244 -0.192 -0.261 0 0zm-5.516 2.331l-1.501 -0.246 0 0 0.075 -0.342 0.11 -0.328 0.141 -0.311 0.168 -0.293 0.193 -0.275 0.214 -0.257 0.234 -0.241 0.248 -0.222 0.263 -0.207 0.275 -0.191 0.285 -0.176 0.295 -0.162 0.301 -0.147 0.308 -0.134 0.312 -0.12 0.315 -0.106 0.316 -0.092 0.317 -0.079 0.316 -0.065 0.313 -0.051 0.31 -0.038 0.305 -0.022 0.3 -0.009 0.293 0.008 0.286 0.023 0.277 0.041 0.271 0.061 0.261 0.082 0.251 0.107 0.239 0.138 0.224 0.173 0.199 0.213 -1.198 0.937 -0.022 -0.023 -0.045 -0.034 -0.072 -0.041 -0.101 -0.043 -0.128 -0.04 -0.152 -0.034 -0.176 -0.025 -0.194 -0.016 -0.211 -0.005 -0.224 0.005 -0.235 0.018 -0.244 0.03 -0.251 0.04 -0.254 0.053 -0.258 0.064 -0.257 0.075 -0.256 0.086 -0.251 0.097 -0.246 0.107 -0.239 0.116 -0.229 0.126 -0.217 0.134 -0.205 0.142 -0.189 0.149 -0.174 0.156 -0.155 0.159 -0.137 0.164 -0.118 0.168 -0.098 0.171 -0.079 0.173 -0.059 0.176 -0.04 0.182 0 0.001zm2.557 5.455l-0.565 1.412 0 0 -0.226 -0.097 -0.221 -0.11 -0.216 -0.121 -0.208 -0.131 -0.204 -0.142 -0.197 -0.152 -0.19 -0.162 -0.184 -0.171 -0.176 -0.18 -0.169 -0.187 -0.163 -0.197 -0.155 -0.204 -0.146 -0.212 -0.139 -0.218 -0.131 -0.227 -0.123 -0.232 -0.114 -0.238 -0.106 -0.245 -0.096 -0.25 -0.087 -0.256 -0.079 -0.261 -0.068 -0.265 -0.058 -0.271 -0.049 -0.274 -0.037 -0.278 -0.027 -0.282 -0.017 -0.286 -0.005 -0.288 0.007 -0.291 0.018 -0.293 0.03 -0.295 0.043 -0.297 1.501 0.246 -0.034 0.236 -0.024 0.235 -0.014 0.232 -0.006 0.231 0.004 0.228 0.013 0.226 0.022 0.222 0.029 0.22 0.038 0.216 0.046 0.213 0.054 0.208 0.061 0.204 0.068 0.2 0.076 0.195 0.081 0.19 0.089 0.185 0.094 0.179 0.1 0.172 0.107 0.168 0.111 0.16 0.116 0.153 0.121 0.147 0.126 0.139 0.13 0.133 0.133 0.124 0.137 0.116 0.14 0.108 0.143 0.1 0.146 0.092 0.148 0.083 0.15 0.074 0.152 0.066 0 0zm3.841 -1.031l1.296 0.797 -0.082 0.122 -0.088 0.113 -0.095 0.11 -0.105 0.107 -0.11 0.104 -0.119 0.103 -0.125 0.101 -0.133 0.101 -0.141 0.098 -0.148 0.096 -0.154 0.094 -0.161 0.091 -0.168 0.088 -0.174 0.085 -0.18 0.08 -0.186 0.076 -0.192 0.071 -0.197 0.065 -0.202 0.058 -0.207 0.052 -0.212 0.044 -0.215 0.036 -0.221 0.028 -0.223 0.017 -0.227 0.008 -0.23 -0.004 -0.232 -0.016 -0.234 -0.028 -0.235 -0.042 -0.236 -0.056 -0.236 -0.07 -0.234 -0.086 0.565 -1.412 0.149 0.054 0.149 0.045 0.151 0.035 0.151 0.027 0.153 0.019 0.154 0.01 0.154 0.003 0.154 -0.006 0.154 -0.011 0.154 -0.02 0.154 -0.026 0.153 -0.031 0.15 -0.038 0.149 -0.043 0.146 -0.048 0.142 -0.053 0.14 -0.057 0.135 -0.06 0.13 -0.064 0.126 -0.066 0.12 -0.067 0.113 -0.069 0.107 -0.07 0.099 -0.069 0.092 -0.069 0.083 -0.067 0.074 -0.065 0.064 -0.06 0.053 -0.055 0.042 -0.048 0.03 -0.038 0.016 -0.024zm0 0c0.22,-0.357 0.688,-0.469 1.046,-0.249 0.358,0.219 0.47,0.688 0.25,1.046l-1.296 -0.797z"/>
   </g>
   <g>
    <g>
     <path class="fil0" d="M141.674 36.51c-0.006,-0.419 0.329,-0.766 0.749,-0.772 0.42,-0.007 0.766,0.328 0.773,0.748l-1.522 0.024zm5.974 16.649l-1.232 0.891 -0.424 -0.617 -0.396 -0.642 -0.371 -0.663 -0.345 -0.681 -0.322 -0.697 -0.298 -0.708 -0.276 -0.719 -0.257 -0.725 -0.236 -0.73 -0.216 -0.73 -0.199 -0.729 -0.181 -0.724 -0.165 -0.717 -0.15 -0.708 -0.134 -0.694 -0.121 -0.678 -0.107 -0.66 -0.095 -0.639 -0.083 -0.614 -0.072 -0.586 -0.062 -0.558 -0.053 -0.523 -0.044 -0.489 -0.036 -0.449 -0.029 -0.408 -0.023 -0.364 -0.017 -0.316 -0.013 -0.266 -0.008 -0.213 -0.005 -0.157 -0.003 -0.097 -0.001 -0.039 1.522 -0.024 0 0.025 0.002 0.089 0.005 0.148 0.008 0.201 0.012 0.255 0.016 0.304 0.023 0.352 0.028 0.394 0.035 0.436 0.043 0.473 0.051 0.508 0.06 0.54 0.07 0.569 0.08 0.596 0.092 0.618 0.104 0.639 0.116 0.656 0.13 0.67 0.144 0.681 0.159 0.689 0.174 0.695 0.19 0.697 0.207 0.697 0.223 0.693 0.243 0.686 0.26 0.676 0.279 0.663 0.299 0.648 0.319 0.629 0.339 0.607 0.36 0.583 0.381 0.556zm0 0c0.246,0.34 0.17,0.815 -0.17,1.061 -0.341,0.246 -0.816,0.17 -1.062,-0.17l1.232 -0.891z"/>
    </g>
    <g>
     <path class="fil0" d="M155.045 40.69c0.384,-0.17 0.834,0.004 1.003,0.388 0.17,0.384 -0.004,0.834 -0.388,1.003l-0.615 -1.391zm-8.872 4.936l-0.262 -1.499 0 0 0.201 -0.04 0.234 -0.054 0.261 -0.07 0.287 -0.082 0.307 -0.095 0.327 -0.105 0.342 -0.115 0.356 -0.124 0.367 -0.131 0.376 -0.138 0.383 -0.143 0.387 -0.147 0.389 -0.15 0.388 -0.153 0.387 -0.153 0.383 -0.154 0.376 -0.152 0.366 -0.151 0.356 -0.146 0.344 -0.143 0.327 -0.137 0.311 -0.131 0.291 -0.123 0.269 -0.116 0.246 -0.105 0.219 -0.094 0.192 -0.083 0.161 -0.07 0.13 -0.057 0.094 -0.041 0.058 -0.025 0.019 -0.009 0.615 1.391 -0.021 0.009 -0.06 0.027 -0.097 0.042 -0.131 0.057 -0.163 0.071 -0.193 0.084 -0.223 0.096 -0.247 0.106 -0.273 0.116 -0.294 0.125 -0.314 0.132 -0.331 0.139 -0.346 0.144 -0.36 0.149 -0.372 0.151 -0.38 0.155 -0.388 0.155 -0.392 0.156 -0.396 0.155 -0.396 0.153 -0.395 0.15 -0.391 0.147 -0.386 0.141 -0.379 0.136 -0.37 0.128 -0.358 0.12 -0.345 0.112 -0.332 0.102 -0.314 0.09 -0.298 0.079 -0.279 0.066 -0.263 0.052 0 0zm1.395 -2.41l-0.607 1.395 0 0 -0.205 -0.082 -0.189 -0.064 -0.176 -0.045 -0.161 -0.031 -0.146 -0.018 -0.13 -0.006 -0.116 0.004 -0.102 0.012 -0.086 0.018 -0.071 0.021 -0.058 0.024 -0.042 0.022 -0.03 0.021 -0.017 0.014 -0.006 0.006 0.004 -0.005 0.009 -0.019 0.011 -0.035 0.007 -0.05 -0.003 -0.062 -0.017 -0.066 -0.028 -0.06 -0.032 -0.045 -0.029 -0.027 -0.014 -0.009 0.005 0.002 0.03 0.009 0.056 0.011 0.083 0.008 0.109 0.001 0.134 -0.01 0.16 -0.023 0.262 1.499 -0.257 0.036 -0.246 0.018 -0.235 -0.001 -0.226 -0.022 -0.217 -0.043 -0.208 -0.067 -0.198 -0.094 -0.183 -0.124 -0.165 -0.155 -0.136 -0.186 -0.099 -0.211 -0.055 -0.225 -0.011 -0.227 0.03 -0.218 0.065 -0.202 0.093 -0.185 0.116 -0.166 0.136 -0.149 0.153 -0.13 0.168 -0.114 0.182 -0.096 0.194 -0.079 0.206 -0.063 0.218 -0.044 0.227 -0.027 0.238 -0.008 0.247 0.011 0.256 0.031 0.264 0.05 0.272 0.072 0.279 0.093 0.287 0.115 0 0zm13.425 9.605l-0.46 1.45 -0.596 -0.204 -0.586 -0.231 -0.576 -0.254 -0.565 -0.276 -0.555 -0.295 -0.544 -0.313 -0.534 -0.329 -0.524 -0.343 -0.513 -0.355 -0.503 -0.364 -0.492 -0.373 -0.482 -0.379 -0.471 -0.383 -0.46 -0.385 -0.449 -0.386 -0.439 -0.385 -0.427 -0.382 -0.417 -0.376 -0.405 -0.37 -0.393 -0.361 -0.382 -0.35 -0.369 -0.337 -0.357 -0.323 -0.344 -0.306 -0.331 -0.288 -0.317 -0.266 -0.302 -0.244 -0.287 -0.218 -0.269 -0.191 -0.25 -0.163 -0.229 -0.131 -0.204 -0.099 0.607 -1.395 0.31 0.15 0.309 0.177 0.312 0.202 0.317 0.225 0.323 0.247 0.33 0.266 0.338 0.284 0.347 0.301 0.355 0.316 0.365 0.33 0.373 0.341 0.383 0.351 0.392 0.36 0.401 0.366 0.41 0.371 0.419 0.374 0.428 0.375 0.436 0.375 0.445 0.372 0.453 0.369 0.46 0.362 0.469 0.355 0.476 0.345 0.483 0.334 0.49 0.321 0.497 0.306 0.503 0.289 0.51 0.272 0.514 0.251 0.52 0.23 0.526 0.206 0.531 0.182zm0 0c0.4,0.127 0.622,0.555 0.495,0.955 -0.127,0.4 -0.554,0.622 -0.955,0.495l0.46 -1.45z"/>
    </g>
   </g>
   <g>
    <g>
     <path class="fil0" d="M160.896 39.047c-0.044,-0.417 0.259,-0.792 0.677,-0.836 0.417,-0.043 0.792,0.26 0.836,0.677l-1.513 0.159zm4.729 15.743l-1.196 0.939 -0.232 -0.338 -0.206 -0.381 -0.193 -0.424 -0.182 -0.467 -0.174 -0.509 -0.169 -0.548 -0.163 -0.582 -0.159 -0.615 -0.153 -0.642 -0.148 -0.665 -0.143 -0.684 -0.138 -0.7 -0.133 -0.71 -0.128 -0.715 -0.122 -0.718 -0.117 -0.714 -0.112 -0.706 -0.104 -0.694 -0.1 -0.678 -0.092 -0.656 -0.087 -0.63 -0.08 -0.6 -0.073 -0.565 -0.066 -0.524 -0.059 -0.481 -0.052 -0.432 -0.044 -0.378 -0.037 -0.319 -0.029 -0.257 -0.021 -0.191 -0.013 -0.118 -0.004 -0.041 1.513 -0.159 0.004 0.038 0.012 0.116 0.02 0.186 0.029 0.253 0.037 0.317 0.043 0.374 0.052 0.427 0.058 0.477 0.066 0.52 0.072 0.559 0.079 0.594 0.086 0.624 0.092 0.649 0.098 0.671 0.104 0.686 0.11 0.697 0.115 0.705 0.12 0.706 0.126 0.703 0.13 0.697 0.135 0.683 0.14 0.667 0.143 0.645 0.148 0.618 0.15 0.585 0.154 0.549 0.156 0.506 0.157 0.456 0.157 0.402 0.153 0.339 0.144 0.267 0.126 0.186zm0 0c0.259,0.33 0.202,0.808 -0.128,1.067 -0.331,0.26 -0.809,0.202 -1.068,-0.128l1.196 -0.939z"/>
    </g>
    <g>
     <path class="fil0" d="M163.596 42.969c0.393,-0.148 0.832,0.051 0.979,0.445 0.148,0.393 -0.052,0.831 -0.445,0.979l-0.534 -1.424zm-5.346 5.245l-0.236 -1.503 0 0 -0.006 0 0.056 -0.02 0.097 -0.042 0.125 -0.062 0.148 -0.081 0.168 -0.096 0.183 -0.109 0.197 -0.122 0.208 -0.133 0.218 -0.142 0.225 -0.15 0.231 -0.157 0.236 -0.162 0.238 -0.166 0.24 -0.169 0.241 -0.17 0.238 -0.17 0.234 -0.169 0.23 -0.166 0.225 -0.163 0.216 -0.158 0.208 -0.151 0.197 -0.144 0.185 -0.136 0.172 -0.125 0.157 -0.114 0.142 -0.103 0.126 -0.09 0.108 -0.075 0.094 -0.064 0.088 -0.056 0.157 -0.077 0.534 1.424 0.089 -0.041 -0.028 0.018 -0.068 0.046 -0.095 0.067 -0.117 0.083 -0.136 0.099 -0.156 0.113 -0.17 0.124 -0.185 0.135 -0.197 0.144 -0.209 0.152 -0.218 0.159 -0.226 0.164 -0.233 0.169 -0.239 0.171 -0.242 0.174 -0.244 0.173 -0.246 0.172 -0.245 0.171 -0.243 0.167 -0.24 0.163 -0.236 0.157 -0.23 0.15 -0.223 0.143 -0.216 0.134 -0.206 0.123 -0.197 0.113 -0.188 0.101 -0.181 0.089 -0.175 0.077 -0.179 0.064 -0.201 0.047 0 0zm6.921 -1.64l-0.522 1.429 0 0 -0.364 -0.125 -0.359 -0.108 -0.354 -0.09 -0.348 -0.075 -0.341 -0.059 -0.335 -0.047 -0.327 -0.033 -0.318 -0.021 -0.309 -0.01 -0.3 0 -0.29 0.01 -0.278 0.017 -0.267 0.026 -0.254 0.031 -0.24 0.037 -0.228 0.042 -0.211 0.045 -0.196 0.047 -0.18 0.05 -0.163 0.049 -0.143 0.049 -0.123 0.046 -0.102 0.042 -0.077 0.036 -0.048 0.025 -0.009 0.006 0.049 -0.042 0.149 -0.22 -0.091 -0.732 -0.429 -0.276 -0.137 -0.012 -0.012 0 0.236 1.503 -0.161 0.016 -0.235 -0.018 -0.479 -0.3 -0.092 -0.776 0.194 -0.278 0.139 -0.114 0.124 -0.078 0.129 -0.068 0.139 -0.065 0.155 -0.065 0.172 -0.064 0.188 -0.063 0.205 -0.063 0.222 -0.06 0.238 -0.058 0.255 -0.054 0.269 -0.05 0.284 -0.043 0.298 -0.037 0.313 -0.03 0.325 -0.021 0.337 -0.011 0.349 0 0.36 0.012 0.371 0.025 0.38 0.038 0.389 0.054 0.397 0.07 0.405 0.086 0.412 0.106 0.417 0.124 0.422 0.145 0 0zm6.561 2.575l-0.144 1.514 -0.117 -0.015 -0.108 -0.022 -0.108 -0.026 -0.11 -0.032 -0.111 -0.036 -0.116 -0.04 -0.122 -0.044 -0.128 -0.048 -0.136 -0.053 -0.143 -0.057 -0.152 -0.062 -0.159 -0.066 -0.17 -0.071 -0.178 -0.074 -0.188 -0.079 -0.198 -0.083 -0.208 -0.087 -0.219 -0.092 -0.228 -0.095 -0.24 -0.099 -0.252 -0.103 -0.261 -0.108 -0.274 -0.11 -0.286 -0.115 -0.297 -0.118 -0.309 -0.122 -0.322 -0.126 -0.334 -0.129 -0.346 -0.132 -0.36 -0.136 -0.373 -0.139 -0.386 -0.141 0.522 -1.429 0.392 0.144 0.379 0.141 0.365 0.138 0.352 0.134 0.339 0.131 0.327 0.127 0.314 0.124 0.303 0.12 0.289 0.117 0.278 0.113 0.266 0.108 0.254 0.105 0.243 0.1 0.231 0.097 0.22 0.092 0.209 0.087 0.198 0.083 0.187 0.079 0.176 0.074 0.166 0.068 0.155 0.064 0.144 0.058 0.134 0.054 0.122 0.048 0.111 0.042 0.1 0.036 0.089 0.031 0.076 0.024 0.06 0.018 0.047 0.011 0.029 0.006 0.006 0.001zm0 0c0.418,0.04 0.725,0.411 0.685,0.829 -0.039,0.418 -0.411,0.725 -0.829,0.685l0.144 -1.514z"/>
    </g>
   </g>
   <g>
    <path class="fil0" d="M173.262 45.664c-0.039,-0.418 0.267,-0.79 0.685,-0.829 0.418,-0.04 0.79,0.266 0.83,0.684l-1.515 0.145zm0.844 8.844l-0.844 -8.844 1.515 -0.145 0.844 8.845 -1.147 0.725 -0.368 -0.581zm1.515 -0.144c0.039,0.418 -0.267,0.789 -0.685,0.829 -0.418,0.04 -0.79,-0.267 -0.83,-0.685l1.515 -0.144zm-0.649 -8.671l0.772 1.31 0 0 0.11 -0.09 0.021 -0.028 -0.02 0.051 -0.032 0.117 -0.033 0.168 -0.028 0.211 -0.022 0.245 -0.017 0.275 -0.01 0.299 -0.004 0.321 0.001 0.337 0.005 0.35 0.009 0.362 0.012 0.368 0.014 0.373 0.016 0.373 0.017 0.373 0.017 0.368 0.016 0.36 0.016 0.35 0.012 0.337 0.01 0.322 0.007 0.305 0.001 0.286 -0.004 0.265 -0.011 0.245 -0.02 0.227 -0.035 0.218 -0.067 0.232 -0.179 0.301 -0.524 0.282 -0.548 -0.117 0.779 -1.306 -0.426 -0.086 -0.422 0.221 -0.098 0.154 -0.003 0.005 0.013 -0.085 0.013 -0.144 0.008 -0.191 0.003 -0.227 -0.001 -0.259 -0.006 -0.286 -0.01 -0.309 -0.012 -0.329 -0.015 -0.344 -0.016 -0.358 -0.017 -0.367 -0.017 -0.375 -0.017 -0.379 -0.014 -0.381 -0.012 -0.378 -0.01 -0.375 -0.005 -0.368 -0.001 -0.359 0.005 -0.347 0.011 -0.334 0.019 -0.318 0.027 -0.302 0.039 -0.285 0.052 -0.27 0.073 -0.258 0.106 -0.256 0.169 -0.259 0.283 -0.241 0 0zm6.738 3.658l-1.358 0.685 -0.142 -0.267 -0.148 -0.253 -0.155 -0.24 -0.159 -0.226 -0.164 -0.213 -0.168 -0.199 -0.172 -0.188 -0.175 -0.175 -0.177 -0.164 -0.179 -0.151 -0.18 -0.141 -0.181 -0.129 -0.181 -0.118 -0.18 -0.107 -0.18 -0.097 -0.176 -0.087 -0.175 -0.076 -0.171 -0.067 -0.167 -0.057 -0.163 -0.048 -0.156 -0.038 -0.151 -0.03 -0.142 -0.022 -0.135 -0.014 -0.125 -0.006 -0.114 0.001 -0.103 0.007 -0.089 0.011 -0.074 0.015 -0.059 0.017 -0.043 0.017 -0.024 0.012 -0.772 -1.31 0.173 -0.089 0.178 -0.07 0.183 -0.053 0.188 -0.039 0.192 -0.025 0.197 -0.013 0.201 -0.001 0.207 0.01 0.21 0.021 0.214 0.032 0.219 0.044 0.223 0.055 0.226 0.067 0.228 0.078 0.231 0.089 0.233 0.103 0.233 0.114 0.234 0.127 0.234 0.139 0.234 0.152 0.233 0.166 0.229 0.179 0.227 0.193 0.225 0.207 0.22 0.22 0.215 0.235 0.21 0.25 0.203 0.264 0.197 0.278 0.189 0.293 0.18 0.309 0.172 0.323zm0 0c0.189,0.375 0.038,0.833 -0.336,1.022 -0.375,0.189 -0.833,0.038 -1.022,-0.337l1.358 -0.685z"/>
   </g>
   <g>
    <path class="fil0" d="M195.035 54.585c0.42,0.019 0.744,0.375 0.725,0.795 -0.019,0.419 -0.375,0.744 -0.795,0.725l0.07 -1.52zm-4.974 -1.567l1.313 -0.768 0 0 0.099 0.166 0.096 0.158 0.095 0.15 0.093 0.142 0.092 0.135 0.09 0.126 0.091 0.12 0.089 0.113 0.088 0.105 0.087 0.097 0.088 0.092 0.088 0.085 0.088 0.079 0.09 0.074 0.09 0.07 0.092 0.063 0.095 0.06 0.098 0.056 0.1 0.053 0.106 0.049 0.111 0.045 0.116 0.043 0.123 0.04 0.129 0.036 0.137 0.034 0.144 0.03 0.152 0.027 0.161 0.024 0.169 0.021 0.179 0.017 0.188 0.014 0.197 0.011 -0.07 1.52 -0.226 -0.013 -0.22 -0.017 -0.213 -0.02 -0.208 -0.026 -0.202 -0.03 -0.197 -0.035 -0.191 -0.04 -0.187 -0.046 -0.183 -0.052 -0.177 -0.057 -0.173 -0.063 -0.169 -0.07 -0.165 -0.077 -0.159 -0.082 -0.155 -0.089 -0.151 -0.095 -0.147 -0.102 -0.141 -0.108 -0.136 -0.113 -0.133 -0.119 -0.128 -0.125 -0.125 -0.129 -0.121 -0.136 -0.118 -0.14 -0.115 -0.145 -0.112 -0.149 -0.111 -0.155 -0.109 -0.16 -0.109 -0.166 -0.107 -0.17 -0.108 -0.177 -0.108 -0.181 0 0zm-0.302 -0.606l-1.515 -0.138 0 0 0.012 -0.112 0.016 -0.112 0.019 -0.11 0.024 -0.113 0.028 -0.109 0.034 -0.109 0.039 -0.108 0.048 -0.11 0.057 -0.11 0.068 -0.108 0.082 -0.108 0.099 -0.104 0.121 -0.1 0.14 -0.086 0.158 -0.066 0.171 -0.041 0.178 -0.013 0.173 0.014 0.161 0.038 0.147 0.055 0.137 0.069 0.126 0.08 0.118 0.089 0.113 0.098 0.109 0.107 0.107 0.117 0.105 0.126 0.106 0.137 0.107 0.148 0.108 0.16 0.108 0.172 0.111 0.185 -1.313 0.768 -0.093 -0.155 -0.088 -0.139 -0.082 -0.123 -0.078 -0.108 -0.071 -0.092 -0.065 -0.078 -0.057 -0.063 -0.048 -0.047 -0.039 -0.033 -0.027 -0.021 -0.012 -0.007 0.004 0.002 0.021 0.007 0.041 0.01 0.059 0.005 0.069 -0.005 0.07 -0.017 0.061 -0.026 0.05 -0.03 0.036 -0.03 0.021 -0.021 0.009 -0.012 0.001 0 -0.005 0.009 -0.008 0.019 -0.011 0.03 -0.012 0.039 -0.012 0.045 -0.011 0.05 -0.009 0.058 -0.009 0.061 -0.007 0.066 0 0zm-4.584 3.106l0.56 -1.414 0 0 0.054 0.018 0.059 0.012 0.063 0.007 0.072 0.001 0.081 -0.005 0.088 -0.014 0.094 -0.021 0.099 -0.03 0.106 -0.039 0.11 -0.047 0.112 -0.055 0.114 -0.063 0.114 -0.07 0.115 -0.076 0.114 -0.083 0.112 -0.087 0.109 -0.091 0.107 -0.096 0.102 -0.097 0.097 -0.1 0.092 -0.1 0.087 -0.101 0.08 -0.1 0.071 -0.097 0.065 -0.094 0.056 -0.089 0.045 -0.082 0.037 -0.075 0.027 -0.063 0.017 -0.049 0.008 -0.033 0.002 -0.011 1.515 0.138 -0.026 0.175 -0.041 0.165 -0.055 0.159 -0.065 0.153 -0.073 0.15 -0.083 0.148 -0.091 0.146 -0.098 0.144 -0.107 0.143 -0.113 0.142 -0.119 0.14 -0.127 0.138 -0.132 0.135 -0.139 0.132 -0.144 0.129 -0.149 0.125 -0.155 0.12 -0.159 0.115 -0.164 0.11 -0.17 0.103 -0.173 0.095 -0.179 0.088 -0.183 0.079 -0.187 0.069 -0.194 0.058 -0.198 0.045 -0.202 0.03 -0.207 0.015 -0.211 -0.003 -0.214 -0.025 -0.215 -0.047 -0.211 -0.07 0 0zm-2.196 -8.353l1.511 0.171 0 0 -0.017 0.178 -0.013 0.198 -0.01 0.215 -0.005 0.229 -0.001 0.241 0.004 0.254 0.008 0.262 0.012 0.271 0.017 0.278 0.022 0.282 0.027 0.286 0.03 0.288 0.036 0.289 0.04 0.287 0.044 0.286 0.048 0.281 0.054 0.277 0.057 0.269 0.061 0.261 0.065 0.251 0.069 0.239 0.073 0.226 0.075 0.211 0.078 0.193 0.079 0.174 0.079 0.152 0.078 0.129 0.072 0.104 0.065 0.076 0.052 0.049 0.033 0.025 0.013 0.007 -0.56 1.414 -0.244 -0.122 -0.214 -0.153 -0.185 -0.175 -0.163 -0.191 -0.144 -0.204 -0.131 -0.217 -0.119 -0.23 -0.11 -0.241 -0.1 -0.251 -0.095 -0.261 -0.086 -0.271 -0.081 -0.28 -0.075 -0.288 -0.07 -0.294 -0.063 -0.301 -0.059 -0.304 -0.053 -0.309 -0.049 -0.311 -0.042 -0.312 -0.039 -0.312 -0.033 -0.311 -0.028 -0.308 -0.024 -0.305 -0.018 -0.3 -0.014 -0.295 -0.009 -0.287 -0.004 -0.279 0.001 -0.27 0.006 -0.26 0.011 -0.248 0.016 -0.238 0.022 -0.225 0 0zm4.479 -3.012l-0.727 1.336 0 0 -0.076 -0.037 -0.076 -0.031 -0.076 -0.025 -0.078 -0.018 -0.078 -0.013 -0.08 -0.007 -0.08 -0.001 -0.082 0.004 -0.082 0.01 -0.084 0.017 -0.084 0.022 -0.085 0.028 -0.086 0.035 -0.086 0.042 -0.085 0.048 -0.084 0.053 -0.083 0.061 -0.082 0.067 -0.079 0.073 -0.077 0.08 -0.076 0.086 -0.072 0.093 -0.068 0.098 -0.064 0.105 -0.061 0.111 -0.056 0.116 -0.051 0.124 -0.046 0.129 -0.04 0.135 -0.034 0.141 -0.028 0.147 -0.022 0.154 -1.511 -0.171 0.032 -0.228 0.041 -0.223 0.053 -0.216 0.063 -0.21 0.072 -0.204 0.082 -0.196 0.09 -0.19 0.1 -0.182 0.107 -0.174 0.115 -0.167 0.124 -0.158 0.129 -0.149 0.136 -0.141 0.144 -0.131 0.148 -0.122 0.155 -0.113 0.161 -0.103 0.165 -0.092 0.17 -0.082 0.173 -0.071 0.178 -0.06 0.182 -0.048 0.184 -0.036 0.187 -0.023 0.188 -0.01 0.189 0.003 0.19 0.017 0.189 0.031 0.187 0.044 0.185 0.06 0.182 0.074 0.178 0.088 0 0zm1.764 5.122l-1.52 0.052 0 0 -0.003 -0.088 -0.003 -0.097 -0.003 -0.106 -0.003 -0.114 -0.005 -0.122 -0.005 -0.129 -0.007 -0.135 -0.008 -0.141 -0.01 -0.146 -0.011 -0.15 -0.014 -0.154 -0.016 -0.156 -0.019 -0.158 -0.022 -0.158 -0.024 -0.159 -0.027 -0.158 -0.031 -0.155 -0.034 -0.153 -0.037 -0.15 -0.041 -0.145 -0.044 -0.138 -0.047 -0.132 -0.05 -0.125 -0.053 -0.115 -0.055 -0.107 -0.057 -0.097 -0.058 -0.084 -0.058 -0.074 -0.057 -0.063 -0.057 -0.052 -0.056 -0.042 -0.056 -0.035 0.727 -1.336 0.187 0.115 0.172 0.13 0.157 0.143 0.142 0.154 0.127 0.161 0.115 0.169 0.102 0.174 0.093 0.178 0.082 0.181 0.075 0.184 0.067 0.188 0.06 0.189 0.053 0.19 0.047 0.189 0.043 0.191 0.037 0.19 0.033 0.189 0.029 0.186 0.025 0.186 0.021 0.181 0.019 0.177 0.015 0.173 0.013 0.168 0.011 0.161 0.009 0.155 0.007 0.148 0.006 0.139 0.005 0.129 0.004 0.119 0.003 0.107 0.003 0.096 0.002 0.082 0 0zm0.043 2.595l-1.521 0.012 0 0 0 -0.02 0 -0.026 -0.001 -0.03 0 -0.04 -0.001 -0.047 0 -0.057 -0.001 -0.063 0 -0.068 -0.001 -0.074 -0.001 -0.08 -0.001 -0.085 -0.001 -0.088 -0.001 -0.094 -0.001 -0.096 -0.001 -0.099 -0.002 -0.102 -0.001 -0.103 -0.002 -0.106 -0.001 -0.106 -0.002 -0.105 -0.002 -0.108 -0.002 -0.107 -0.001 -0.104 -0.002 -0.103 -0.003 -0.102 -0.002 -0.1 -0.002 -0.096 -0.003 -0.094 -0.002 -0.088 -0.003 -0.084 -0.002 -0.08 1.52 -0.052 0.003 0.083 0.002 0.089 0.003 0.093 0.002 0.095 0.003 0.1 0.002 0.1 0.002 0.104 0.002 0.106 0.002 0.107 0.002 0.107 0.002 0.108 0.002 0.109 0.001 0.106 0.002 0.106 0.001 0.104 0.002 0.103 0.001 0.101 0.001 0.096 0.001 0.093 0.001 0.09 0.001 0.086 0.001 0.079 0.001 0.076 0 0.07 0.001 0.061 0 0.055 0.001 0.05 0 0.042 0.001 0.035 0 0.022 0 0.009 0 0.01zm0 0c0.003,0.42 -0.335,0.763 -0.755,0.766 -0.42,0.003 -0.763,-0.334 -0.766,-0.754l1.521 -0.012z"/>
   </g>
   <g>
    <path class="fil0" d="M43.784 42.215c-0.048,0.417 -0.426,0.716 -0.843,0.668 -0.417,-0.048 -0.716,-0.426 -0.668,-0.843l1.511 0.175zm-2.223 -2.228l0.782 -1.304 0.001 0 0.165 0.107 0.154 0.118 0.143 0.127 0.129 0.131 0.119 0.138 0.106 0.143 0.096 0.145 0.085 0.147 0.075 0.148 0.067 0.148 0.058 0.148 0.051 0.146 0.044 0.146 0.037 0.143 0.031 0.139 0.026 0.137 0.022 0.132 0.017 0.128 0.013 0.124 0.01 0.118 0.007 0.113 0.004 0.106 0.002 0.099 0 0.093 -0.001 0.084 -0.002 0.075 -0.004 0.067 -0.003 0.058 -0.003 0.046 -0.003 0.035 -0.003 0.025 -0.002 0.018 -1.511 -0.175 0 0.006 0.001 -0.009 0.001 -0.019 0.002 -0.029 0.003 -0.036 0.002 -0.045 0.001 -0.052 0.001 -0.06 0 -0.064 -0.001 -0.071 -0.003 -0.076 -0.005 -0.079 -0.007 -0.084 -0.009 -0.085 -0.012 -0.089 -0.014 -0.09 -0.018 -0.091 -0.02 -0.091 -0.024 -0.09 -0.026 -0.088 -0.03 -0.087 -0.034 -0.085 -0.036 -0.081 -0.04 -0.079 -0.043 -0.074 -0.046 -0.07 -0.05 -0.066 -0.052 -0.062 -0.057 -0.058 -0.06 -0.053 -0.065 -0.049 -0.071 -0.047 0 0zm-5.783 2.893l-1.383 -0.632 0 0 0.149 -0.299 0.168 -0.286 0.185 -0.274 0.2 -0.261 0.214 -0.248 0.226 -0.236 0.236 -0.224 0.247 -0.213 0.256 -0.2 0.263 -0.189 0.269 -0.177 0.274 -0.166 0.279 -0.154 0.282 -0.144 0.284 -0.132 0.286 -0.121 0.286 -0.11 0.285 -0.098 0.284 -0.088 0.282 -0.076 0.278 -0.064 0.275 -0.053 0.27 -0.04 0.265 -0.029 0.26 -0.017 0.253 -0.003 0.247 0.011 0.241 0.026 0.236 0.042 0.23 0.062 0.223 0.085 0.215 0.111 -0.782 1.304 -0.047 -0.024 -0.073 -0.027 -0.096 -0.026 -0.119 -0.021 -0.14 -0.015 -0.158 -0.007 -0.173 0.002 -0.187 0.012 -0.198 0.022 -0.209 0.031 -0.217 0.042 -0.225 0.052 -0.229 0.062 -0.234 0.072 -0.236 0.082 -0.238 0.091 -0.237 0.1 -0.236 0.11 -0.234 0.119 -0.23 0.127 -0.225 0.137 -0.22 0.144 -0.211 0.152 -0.204 0.159 -0.193 0.166 -0.183 0.174 -0.172 0.179 -0.16 0.185 -0.146 0.191 -0.132 0.196 -0.118 0.201 -0.103 0.205 0 0zm4.089 9.297l1.262 0.849 0 0 -0.373 0.501 -0.394 0.425 -0.418 0.351 -0.442 0.273 -0.464 0.189 -0.477 0.102 -0.48 0.012 -0.467 -0.074 -0.445 -0.15 -0.419 -0.215 -0.391 -0.271 -0.365 -0.32 -0.341 -0.363 -0.317 -0.403 -0.294 -0.44 -0.272 -0.474 -0.249 -0.504 -0.226 -0.533 -0.201 -0.559 -0.175 -0.581 -0.148 -0.602 -0.12 -0.619 -0.09 -0.634 -0.058 -0.646 -0.025 -0.655 0.01 -0.661 0.046 -0.664 0.087 -0.665 0.127 -0.662 0.17 -0.656 0.215 -0.647 0.262 -0.633 1.383 0.632 -0.22 0.532 -0.182 0.547 -0.145 0.559 -0.109 0.569 -0.074 0.575 -0.041 0.579 -0.008 0.578 0.021 0.575 0.052 0.568 0.079 0.558 0.105 0.544 0.13 0.526 0.153 0.507 0.173 0.481 0.192 0.454 0.208 0.422 0.223 0.388 0.233 0.348 0.241 0.307 0.244 0.261 0.244 0.214 0.238 0.166 0.228 0.117 0.216 0.073 0.203 0.033 0.2 -0.005 0.206 -0.043 0.22 -0.09 0.241 -0.149 0.259 -0.219 0.275 -0.297 0.284 -0.381 0 0zm1.8 -3.947l1.443 0.48 -0.003 0.008 -0.008 0.026 -0.014 0.04 -0.018 0.052 -0.022 0.063 -0.027 0.076 -0.031 0.089 -0.036 0.098 -0.04 0.11 -0.044 0.117 -0.047 0.126 -0.051 0.136 -0.055 0.142 -0.058 0.149 -0.062 0.154 -0.065 0.161 -0.068 0.165 -0.072 0.169 -0.074 0.171 -0.076 0.176 -0.08 0.177 -0.082 0.179 -0.085 0.179 -0.087 0.18 -0.089 0.179 -0.091 0.178 -0.094 0.177 -0.097 0.174 -0.098 0.172 -0.1 0.169 -0.103 0.164 -0.104 0.16 -1.262 -0.849 0.085 -0.13 0.085 -0.137 0.086 -0.144 0.085 -0.149 0.085 -0.154 0.083 -0.157 0.083 -0.161 0.081 -0.163 0.08 -0.165 0.078 -0.165 0.076 -0.166 0.074 -0.165 0.072 -0.164 0.07 -0.162 0.067 -0.16 0.064 -0.155 0.062 -0.151 0.058 -0.147 0.056 -0.142 0.052 -0.134 0.048 -0.127 0.046 -0.122 0.041 -0.112 0.037 -0.102 0.034 -0.092 0.029 -0.083 0.026 -0.073 0.021 -0.06 0.016 -0.047 0.012 -0.033 0.006 -0.018 0.002 -0.007zm0 0c0.133,-0.399 0.564,-0.614 0.962,-0.481 0.398,0.132 0.614,0.563 0.481,0.961l-1.443 -0.48z"/>
   </g>
  </g>
 </g>
</svg>
