<?xml version="1.0" encoding="UTF-8"?>
<!DOCTYPE svg PUBLIC "-//W3C//DTD SVG 1.1//EN" "http://www.w3.org/Graphics/SVG/1.1/DTD/svg11.dtd">
<!-- Creator: CorelDRAW 2019 (64-Bit) -->
<svg xmlns="http://www.w3.org/2000/svg" xml:space="preserve" width="200px" height="100px" version="1.1" style="shape-rendering:geometricPrecision; text-rendering:geometricPrecision; image-rendering:optimizeQuality; fill-rule:evenodd; clip-rule:evenodd"
viewBox="0 0 200 100"
 xmlns:xlink="http://www.w3.org/1999/xlink"
 xmlns:xodm="http://www.corel.com/coreldraw/odm/2003">
 <defs>
  <style type="text/css">
   <![CDATA[
    .fil0 {fill:black;fill-rule:nonzero}
   ]]>
  </style>
 </defs>
 <g id="Layer_x0020_1">
  <metadata id="CorelCorpID_0Corel-Layer"/>
  <g id="_2581009349520">
   <g>
    <path class="fil0" d="M81.73 50.539c-0.023,0.384 -0.353,0.677 -0.737,0.655 -0.385,-0.022 -0.678,-0.352 -0.656,-0.736l1.393 0.081zm-5.685 -15.225l-1.175 -0.751 0 0 0.672 -0.977 0.638 -0.78 0.618 -0.596 0.62 -0.421 0.651 -0.235 0.674 -0.007 0.614 0.236 0.493 0.41 0.387 0.522 0.313 0.612 0.261 0.693 0.221 0.771 0.187 0.839 0.157 0.899 0.131 0.95 0.107 0.991 0.085 1.021 0.066 1.039 0.049 1.046 0.033 1.041 0.019 1.026 0.008 0.998 -0.002 0.959 -0.01 0.909 -0.015 0.846 -0.02 0.771 -0.022 0.686 -0.022 0.588 -0.021 0.478 -0.016 0.357 -0.012 0.224 -0.004 0.08 -1.393 -0.081 0.004 -0.073 0.012 -0.218 0.016 -0.351 0.021 -0.472 0.021 -0.58 0.022 -0.677 0.02 -0.763 0.015 -0.835 0.009 -0.897 0.002 -0.946 -0.007 -0.984 -0.019 -1.01 -0.033 -1.022 -0.047 -1.024 -0.064 -1.013 -0.083 -0.99 -0.103 -0.954 -0.125 -0.905 -0.147 -0.844 -0.171 -0.768 -0.194 -0.677 -0.214 -0.569 -0.226 -0.445 -0.221 -0.303 -0.187 -0.161 -0.14 -0.057 -0.16 0.002 -0.267 0.099 -0.383 0.263 -0.477 0.461 -0.551 0.673 -0.615 0.896 0 0zm6.132 36.01l1.084 0.878 0 0 -0.983 1.091 -1.018 0.897 -1.05 0.705 -1.073 0.513 -1.089 0.32 -1.091 0.129 -1.081 -0.06 -1.056 -0.241 -1.017 -0.414 -0.97 -0.575 -0.916 -0.727 -0.858 -0.87 -0.793 -1.005 -0.725 -1.134 -0.652 -1.256 -0.572 -1.374 -0.489 -1.487 -0.398 -1.593 -0.303 -1.695 -0.199 -1.791 -0.092 -1.882 0.024 -1.968 0.146 -2.049 0.274 -2.124 0.408 -2.193 0.55 -2.258 0.698 -2.318 0.852 -2.37 1.012 -2.419 1.181 -2.462 1.354 -2.499 1.535 -2.53 1.175 0.751 -1.5 2.474 -1.323 2.439 -1.15 2.399 -0.985 2.353 -0.827 2.302 -0.676 2.247 -0.532 2.184 -0.394 2.118 -0.264 2.046 -0.14 1.968 -0.023 1.885 0.087 1.796 0.19 1.702 0.286 1.603 0.374 1.498 0.456 1.387 0.53 1.271 0.596 1.15 0.653 1.022 0.703 0.891 0.744 0.755 0.776 0.615 0.799 0.475 0.817 0.332 0.829 0.19 0.841 0.047 0.855 -0.101 0.868 -0.255 0.881 -0.421 0.889 -0.598 0.89 -0.784 0.882 -0.98 0 0zm10.692 -29.711l1.355 0.331 0 0 -0.018 0.071 -0.05 0.201 -0.082 0.327 -0.112 0.444 -0.142 0.553 -0.17 0.654 -0.197 0.749 -0.223 0.835 -0.247 0.914 -0.27 0.986 -0.293 1.05 -0.313 1.105 -0.332 1.155 -0.352 1.195 -0.368 1.229 -0.384 1.256 -0.399 1.273 -0.413 1.284 -0.425 1.288 -0.436 1.284 -0.447 1.272 -0.455 1.253 -0.463 1.226 -0.47 1.193 -0.475 1.15 -0.48 1.103 -0.484 1.047 -0.486 0.984 -0.49 0.915 -0.492 0.838 -0.495 0.757 -0.5 0.667 -1.084 -0.878 0.44 -0.588 0.453 -0.691 0.461 -0.787 0.466 -0.871 0.469 -0.947 0.47 -1.016 0.468 -1.077 0.466 -1.128 0.462 -1.173 0.456 -1.209 0.45 -1.237 0.441 -1.259 0.432 -1.271 0.422 -1.277 0.409 -1.274 0.397 -1.264 0.381 -1.247 0.367 -1.221 0.349 -1.189 0.33 -1.148 0.312 -1.1 0.291 -1.044 0.268 -0.98 0.246 -0.909 0.222 -0.831 0.196 -0.744 0.168 -0.651 0.142 -0.549 0.111 -0.44 0.081 -0.323 0.05 -0.2 0.016 -0.066 0 0zm2.412 1.624l-1.394 0 0 0 -0.003 -0.498 -0.009 -0.44 -0.013 -0.385 -0.019 -0.332 -0.021 -0.28 -0.026 -0.23 -0.027 -0.18 -0.026 -0.128 -0.019 -0.071 -0.002 -0.006 0.049 0.071 0.174 0.134 0.311 0.063 0.242 -0.069 0.101 -0.073 0.024 -0.027 -0.009 0.015 -0.025 0.046 -0.033 0.068 -0.036 0.085 -0.038 0.096 -0.037 0.104 -0.037 0.106 -0.034 0.107 -0.033 0.106 -0.029 0.1 -0.026 0.091 -0.022 0.08 -0.017 0.066 -0.013 0.05 -0.008 0.031 -0.002 0.007 -1.355 -0.331 0.004 -0.016 0.01 -0.038 0.015 -0.058 0.02 -0.077 0.025 -0.091 0.03 -0.103 0.033 -0.114 0.037 -0.121 0.042 -0.128 0.045 -0.132 0.048 -0.131 0.052 -0.133 0.056 -0.131 0.062 -0.129 0.071 -0.129 0.088 -0.132 0.122 -0.14 0.197 -0.147 0.337 -0.099 0.404 0.08 0.263 0.207 0.135 0.203 0.079 0.191 0.056 0.195 0.044 0.213 0.036 0.243 0.03 0.277 0.025 0.317 0.02 0.362 0.014 0.41 0.009 0.46 0.003 0.515 0 0zm4.912 22.82l-1.233 0.652 0 0 -0.238 -0.475 -0.235 -0.517 -0.234 -0.557 -0.232 -0.595 -0.23 -0.63 -0.227 -0.664 -0.225 -0.694 -0.222 -0.722 -0.219 -0.748 -0.215 -0.771 -0.21 -0.79 -0.207 -0.807 -0.2 -0.823 -0.196 -0.833 -0.189 -0.843 -0.182 -0.849 -0.176 -0.852 -0.168 -0.852 -0.16 -0.851 -0.151 -0.845 -0.142 -0.838 -0.132 -0.827 -0.123 -0.813 -0.111 -0.798 -0.101 -0.778 -0.089 -0.757 -0.077 -0.733 -0.064 -0.706 -0.051 -0.676 -0.037 -0.645 -0.023 -0.609 -0.007 -0.574 1.394 0 0.008 0.537 0.021 0.58 0.036 0.618 0.049 0.653 0.062 0.686 0.075 0.714 0.087 0.741 0.099 0.763 0.109 0.783 0.121 0.8 0.13 0.814 0.14 0.825 0.149 0.833 0.158 0.839 0.165 0.841 0.173 0.84 0.18 0.837 0.187 0.83 0.192 0.821 0.197 0.809 0.203 0.793 0.206 0.776 0.211 0.754 0.214 0.73 0.216 0.703 0.218 0.673 0.219 0.64 0.22 0.604 0.22 0.564 0.218 0.521 0.217 0.474 0.212 0.424 0 0zm7.844 -33.522l1.394 -0.061 0 0 0.044 0.979 0.054 1.187 0.061 1.373 0.066 1.538 0.066 1.684 0.064 1.81 0.058 1.916 0.049 2.001 0.038 2.068 0.022 2.113 0.004 2.138 -0.017 2.145 -0.042 2.131 -0.069 2.098 -0.1 2.044 -0.135 1.972 -0.173 1.88 -0.214 1.77 -0.259 1.64 -0.309 1.494 -0.364 1.331 -0.43 1.156 -0.512 0.97 -0.63 0.768 -0.798 0.517 -0.946 0.153 -0.964 -0.253 -0.934 -0.599 -0.943 -0.919 -0.986 -1.255 -1.048 -1.615 -1.124 -2 1.233 -0.652 1.086 1.934 0.992 1.528 0.892 1.137 0.78 0.762 0.638 0.413 0.465 0.127 0.346 -0.058 0.364 -0.244 0.407 -0.503 0.406 -0.773 0.377 -1.017 0.337 -1.231 0.293 -1.42 0.25 -1.583 0.208 -1.725 0.169 -1.844 0.133 -1.942 0.099 -2.02 0.069 -2.078 0.042 -2.113 0.017 -2.13 -0.005 -2.126 -0.022 -2.101 -0.037 -2.058 -0.049 -1.993 -0.058 -1.908 -0.064 -1.804 -0.066 -1.679 -0.065 -1.535 -0.061 -1.37 -0.054 -1.186 -0.045 -0.982 0 0zm-0.168 -0.31l1.394 0 0 -0.015 -0.003 -0.034 -0.012 -0.067 -0.07 -0.176 -0.262 -0.26 -0.459 -0.078 -0.269 0.11 -0.1 0.084 -0.04 0.046 -0.018 0.024 0.001 -0.001 0.006 -0.009 0.007 -0.012 0.018 -0.025 0.027 -0.035 0.043 -0.049 0.053 -0.052 0.098 -0.073 0.169 -0.078 0.244 -0.033 0.271 0.065 0.198 0.136 0.113 0.137 0.057 0.107 0.031 0.085 0.02 0.072 0.013 0.061 0.01 0.061 0.007 0.061 0.006 0.063 0.005 0.065 0.004 0.069 -1.394 0.061 -0.002 -0.047 -0.003 -0.037 -0.002 -0.026 -0.002 -0.014 -0.001 -0.003 0.002 0.008 0.008 0.029 0.02 0.051 0.043 0.082 0.1 0.121 0.184 0.125 0.256 0.062 0.23 -0.03 0.154 -0.072 0.084 -0.062 0.038 -0.037 0.029 -0.033 0.013 -0.016 0.004 -0.006 -0.005 0.008 -0.007 0.01 -0.011 0.016 -0.03 0.039 -0.051 0.058 -0.11 0.093 -0.276 0.114 -0.467 -0.079 -0.269 -0.267 -0.075 -0.19 -0.015 -0.089 -0.006 -0.064 -0.001 -0.054zm0 0c0,-0.385 0.312,-0.697 0.697,-0.697 0.385,0 0.697,0.312 0.697,0.697l-1.394 0z"/>
   </g>
   <g>
    <path class="fil0" d="M108.015 32.839c-0.218,-0.317 -0.137,-0.751 0.18,-0.969 0.317,-0.218 0.751,-0.138 0.969,0.179l-1.149 0.79zm-0.105 2.054l-0.585 -1.266 0 0 0.124 -0.061 0.109 -0.059 0.095 -0.058 0.081 -0.055 0.068 -0.053 0.057 -0.049 0.046 -0.046 0.038 -0.043 0.028 -0.036 0.022 -0.034 0.016 -0.029 0.012 -0.026 0.008 -0.023 0.006 -0.022 0.004 -0.018 0.002 -0.018 0.001 -0.019 0 -0.018 -0.002 -0.017 -0.002 -0.02 -0.003 -0.016 -0.004 -0.017 -0.005 -0.015 -0.005 -0.015 -0.006 -0.014 -0.004 -0.009 -0.004 -0.008 -0.004 -0.008 -0.003 -0.005 0.002 0.003 0.003 0.005 0.01 0.015 1.149 -0.79 0.014 0.021 0.015 0.023 0.019 0.032 0.019 0.035 0.022 0.042 0.025 0.052 0.026 0.059 0.025 0.064 0.025 0.071 0.023 0.078 0.021 0.086 0.017 0.091 0.013 0.096 0.007 0.104 0.001 0.108 -0.006 0.113 -0.015 0.117 -0.025 0.122 -0.034 0.122 -0.045 0.124 -0.057 0.123 -0.067 0.122 -0.079 0.12 -0.09 0.118 -0.1 0.113 -0.111 0.11 -0.122 0.106 -0.133 0.102 -0.144 0.098 -0.155 0.094 -0.165 0.091 -0.178 0.087 0 0zm-2.013 -5.984l1.107 0.847 0 0 -0.204 0.281 -0.18 0.273 -0.155 0.264 -0.132 0.255 -0.11 0.246 -0.089 0.235 -0.07 0.225 -0.052 0.214 -0.035 0.203 -0.02 0.192 -0.005 0.18 0.007 0.169 0.019 0.157 0.03 0.144 0.039 0.134 0.047 0.123 0.054 0.111 0.059 0.1 0.065 0.089 0.07 0.079 0.072 0.068 0.076 0.058 0.077 0.048 0.078 0.039 0.08 0.03 0.081 0.021 0.082 0.012 0.083 0.004 0.085 -0.006 0.087 -0.015 0.09 -0.025 0.092 -0.037 0.585 1.266 -0.226 0.09 -0.23 0.065 -0.232 0.041 -0.234 0.015 -0.232 -0.01 -0.228 -0.033 -0.223 -0.058 -0.213 -0.08 -0.206 -0.102 -0.195 -0.122 -0.182 -0.141 -0.169 -0.159 -0.155 -0.175 -0.14 -0.192 -0.124 -0.207 -0.107 -0.22 -0.089 -0.233 -0.072 -0.244 -0.052 -0.256 -0.032 -0.265 -0.012 -0.274 0.008 -0.282 0.03 -0.29 0.052 -0.297 0.073 -0.302 0.096 -0.309 0.119 -0.313 0.143 -0.318 0.167 -0.323 0.192 -0.326 0.216 -0.33 0.244 -0.334 0 0zm87.837 1.367l-0.211 1.379 -2.72 -0.408 -2.851 -0.412 -2.967 -0.412 -3.071 -0.411 -3.163 -0.405 -3.239 -0.399 -3.305 -0.389 -3.356 -0.377 -3.396 -0.361 -3.421 -0.344 -3.434 -0.323 -3.433 -0.3 -3.42 -0.274 -3.394 -0.247 -3.354 -0.215 -3.302 -0.181 -3.236 -0.145 -3.157 -0.107 -3.066 -0.064 -2.96 -0.021 -2.842 0.026 -2.711 0.075 -2.565 0.128 -2.406 0.181 -2.233 0.238 -2.046 0.296 -1.845 0.357 -1.626 0.417 -1.392 0.476 -1.14 0.53 -0.871 0.574 -0.597 0.598 -1.107 -0.847 0.828 -0.837 1.073 -0.709 1.297 -0.605 1.513 -0.518 1.719 -0.44 1.917 -0.371 2.104 -0.305 2.281 -0.243 2.445 -0.184 2.598 -0.129 2.738 -0.076 2.867 -0.027 2.981 0.021 3.084 0.065 3.174 0.107 3.251 0.146 3.315 0.182 3.366 0.216 3.405 0.247 3.431 0.275 3.442 0.301 3.443 0.325 3.43 0.344 3.403 0.362 3.364 0.377 3.312 0.39 3.247 0.4 3.17 0.407 3.078 0.411 2.975 0.413 2.858 0.413 2.728 0.409zm0 0c0.381,0.058 0.642,0.414 0.584,0.795 -0.058,0.38 -0.414,0.642 -0.795,0.584l0.211 -1.379z"/>
   </g>
  </g>
 </g>
</svg>
