<?xml version="1.0" encoding="UTF-8"?>
<!DOCTYPE svg PUBLIC "-//W3C//DTD SVG 1.1//EN" "http://www.w3.org/Graphics/SVG/1.1/DTD/svg11.dtd">
<!-- Creator: CorelDRAW 2019 (64-Bit) -->
<svg xmlns="http://www.w3.org/2000/svg" xml:space="preserve" width="200px" height="100px" version="1.1" style="shape-rendering:geometricPrecision; text-rendering:geometricPrecision; image-rendering:optimizeQuality; fill-rule:evenodd; clip-rule:evenodd"
viewBox="0 0 200 100"
 xmlns:xlink="http://www.w3.org/1999/xlink"
 xmlns:xodm="http://www.corel.com/coreldraw/odm/2003">
 <defs>
  <style type="text/css">
   <![CDATA[
    .fil0 {fill:black;fill-rule:nonzero}
   ]]>
  </style>
 </defs>
 <g id="Layer_x0020_1">
  <metadata id="CorelCorpID_0Corel-Layer"/>
  <g id="_2581001398016">
   <g>
    <path class="fil0" d="M75.179 48.888c0.372,0 0.675,0.303 0.675,0.675 0,0.373 -0.303,0.675 -0.675,0.675l0 -1.35zm-20.329 6.193l-0.53 -1.241 0 0 0.937 -0.389 0.936 -0.369 0.934 -0.348 0.93 -0.33 0.924 -0.31 0.917 -0.292 0.907 -0.274 0.895 -0.257 0.883 -0.241 0.868 -0.224 0.851 -0.208 0.833 -0.194 0.813 -0.179 0.79 -0.165 0.767 -0.151 0.741 -0.139 0.714 -0.126 0.684 -0.114 0.653 -0.103 0.621 -0.092 0.586 -0.081 0.549 -0.072 0.511 -0.062 0.471 -0.054 0.429 -0.046 0.386 -0.037 0.34 -0.031 0.294 -0.024 0.245 -0.018 0.196 -0.012 0.146 -0.007 0.108 -0.003 0 1.35 -0.053 0.001 -0.125 0.006 -0.18 0.012 -0.233 0.017 -0.282 0.023 -0.33 0.029 -0.375 0.037 -0.418 0.044 -0.461 0.053 -0.5 0.061 -0.538 0.07 -0.574 0.08 -0.609 0.09 -0.641 0.101 -0.672 0.112 -0.701 0.124 -0.727 0.136 -0.753 0.149 -0.776 0.161 -0.798 0.176 -0.817 0.19 -0.835 0.205 -0.852 0.22 -0.865 0.235 -0.878 0.252 -0.888 0.269 -0.897 0.285 -0.904 0.304 -0.909 0.322 -0.912 0.34 -0.913 0.36 -0.913 0.379 0 0zm-22.119 11.419l-0.681 -1.165 0 0 0.215 -0.126 0.262 -0.153 0.308 -0.18 0.352 -0.204 0.393 -0.228 0.435 -0.251 0.473 -0.271 0.511 -0.292 0.546 -0.311 0.581 -0.328 0.613 -0.344 0.644 -0.359 0.673 -0.373 0.701 -0.386 0.727 -0.397 0.752 -0.406 0.775 -0.417 0.796 -0.423 0.817 -0.43 0.834 -0.435 0.851 -0.439 0.866 -0.442 0.88 -0.443 0.891 -0.444 0.903 -0.443 0.91 -0.441 0.919 -0.437 0.923 -0.432 0.928 -0.427 0.93 -0.42 0.931 -0.411 0.93 -0.402 0.53 1.241 -0.92 0.397 -0.921 0.407 -0.921 0.416 -0.919 0.423 -0.915 0.428 -0.911 0.434 -0.903 0.437 -0.896 0.439 -0.885 0.441 -0.873 0.44 -0.861 0.44 -0.846 0.436 -0.829 0.432 -0.811 0.428 -0.792 0.42 -0.77 0.414 -0.748 0.405 -0.723 0.395 -0.698 0.383 -0.67 0.371 -0.64 0.358 -0.61 0.342 -0.578 0.326 -0.543 0.309 -0.508 0.29 -0.471 0.271 -0.432 0.249 -0.392 0.227 -0.35 0.204 -0.306 0.178 -0.262 0.154 -0.215 0.125 0 0zm1.577 1.729l-0.13 1.343 0 0 -0.369 -0.04 -0.349 -0.047 -0.327 -0.053 -0.309 -0.059 -0.289 -0.065 -0.27 -0.072 -0.253 -0.079 -0.236 -0.087 -0.219 -0.094 -0.204 -0.103 -0.189 -0.113 -0.174 -0.125 -0.159 -0.14 -0.142 -0.155 -0.122 -0.173 -0.096 -0.189 -0.069 -0.204 -0.035 -0.211 -0.002 -0.21 0.028 -0.206 0.055 -0.195 0.077 -0.183 0.094 -0.173 0.11 -0.163 0.124 -0.154 0.135 -0.147 0.149 -0.144 0.16 -0.137 0.172 -0.134 0.183 -0.131 0.193 -0.126 0.205 -0.125 0.681 1.165 -0.166 0.101 -0.152 0.1 -0.138 0.098 -0.123 0.097 -0.108 0.092 -0.092 0.088 -0.077 0.084 -0.061 0.075 -0.044 0.066 -0.03 0.055 -0.018 0.042 -0.008 0.028 -0.002 0.014 0 0.006 0 0.002 0.001 0.004 0.008 0.014 0.018 0.026 0.034 0.038 0.054 0.047 0.075 0.054 0.1 0.059 0.123 0.063 0.148 0.063 0.171 0.062 0.194 0.061 0.22 0.058 0.242 0.055 0.266 0.051 0.29 0.047 0.314 0.042 0.338 0.037 0 0zm41.973 -1.185l0.245 1.327 0 0 -1.559 0.272 -1.586 0.246 -1.61 0.222 -1.629 0.199 -1.644 0.176 -1.655 0.155 -1.66 0.135 -1.663 0.115 -1.661 0.098 -1.654 0.08 -1.643 0.065 -1.628 0.049 -1.609 0.035 -1.585 0.022 -1.557 0.011 -1.524 -0.001 -1.488 -0.011 -1.447 -0.02 -1.402 -0.027 -1.352 -0.035 -1.298 -0.04 -1.24 -0.046 -1.178 -0.049 -1.11 -0.052 -1.04 -0.053 -0.964 -0.055 -0.884 -0.055 -0.8 -0.053 -0.712 -0.051 -0.62 -0.048 -0.523 -0.044 -0.423 -0.039 0.13 -1.343 0.411 0.037 0.514 0.043 0.611 0.048 0.705 0.051 0.793 0.053 0.878 0.054 0.957 0.054 1.033 0.054 1.104 0.051 1.171 0.049 1.232 0.045 1.291 0.041 1.345 0.034 1.393 0.027 1.439 0.02 1.479 0.01 1.515 0.001 1.547 -0.01 1.575 -0.022 1.598 -0.035 1.616 -0.049 1.631 -0.064 1.641 -0.08 1.647 -0.096 1.647 -0.115 1.645 -0.133 1.637 -0.154 1.625 -0.174 1.609 -0.196 1.588 -0.219 1.563 -0.243 1.533 -0.267 0 0zm19.908 -7.262l1.241 0.531 0 0 -0.111 0.24 -0.128 0.242 -0.147 0.244 -0.169 0.245 -0.192 0.245 -0.215 0.244 -0.241 0.244 -0.268 0.243 -0.297 0.242 -0.327 0.241 -0.358 0.241 -0.392 0.24 -0.428 0.241 -0.465 0.241 -0.505 0.242 -0.546 0.244 -0.59 0.244 -0.636 0.246 -0.684 0.248 -0.734 0.25 -0.786 0.251 -0.84 0.254 -0.897 0.257 -0.955 0.258 -1.016 0.262 -1.078 0.264 -1.143 0.267 -1.209 0.27 -1.279 0.272 -1.349 0.276 -1.422 0.278 -1.497 0.282 -0.245 -1.327 1.488 -0.28 1.411 -0.277 1.339 -0.273 1.266 -0.27 1.197 -0.267 1.129 -0.263 1.064 -0.261 0.999 -0.257 0.938 -0.254 0.878 -0.251 0.82 -0.248 0.764 -0.245 0.71 -0.241 0.658 -0.239 0.608 -0.235 0.559 -0.232 0.513 -0.228 0.468 -0.225 0.426 -0.221 0.386 -0.217 0.346 -0.212 0.311 -0.209 0.277 -0.204 0.244 -0.199 0.215 -0.195 0.188 -0.19 0.164 -0.185 0.141 -0.182 0.123 -0.178 0.106 -0.176 0.092 -0.175 0.08 -0.173 0 0zm-5.899 -10.076l0.858 -1.041 0 0 0.318 0.27 0.319 0.289 0.319 0.305 0.318 0.321 0.317 0.334 0.316 0.347 0.312 0.359 0.308 0.369 0.304 0.378 0.299 0.387 0.291 0.393 0.285 0.398 0.276 0.403 0.267 0.406 0.257 0.408 0.245 0.408 0.234 0.407 0.221 0.407 0.207 0.403 0.192 0.4 0.176 0.395 0.159 0.389 0.141 0.383 0.122 0.375 0.102 0.368 0.081 0.359 0.057 0.352 0.032 0.343 0.004 0.336 -0.027 0.328 -0.064 0.32 -0.106 0.308 -1.241 -0.531 0.043 -0.126 0.031 -0.156 0.015 -0.189 -0.002 -0.216 -0.023 -0.244 -0.044 -0.267 -0.064 -0.288 -0.086 -0.307 -0.105 -0.322 -0.124 -0.336 -0.142 -0.349 -0.16 -0.358 -0.176 -0.367 -0.191 -0.373 -0.206 -0.378 -0.219 -0.383 -0.231 -0.384 -0.243 -0.385 -0.252 -0.384 -0.262 -0.381 -0.269 -0.378 -0.277 -0.373 -0.283 -0.366 -0.287 -0.358 -0.292 -0.349 -0.294 -0.338 -0.295 -0.325 -0.297 -0.312 -0.295 -0.297 -0.293 -0.281 -0.29 -0.262 -0.286 -0.244 0 0zm-17.447 -19.781l1.098 -0.785 0 0 0.254 0.348 0.307 0.405 0.354 0.459 0.399 0.507 0.44 0.55 0.478 0.591 0.512 0.626 0.543 0.659 0.572 0.687 0.595 0.711 0.618 0.732 0.635 0.748 0.65 0.761 0.662 0.77 0.67 0.774 0.675 0.777 0.677 0.773 0.677 0.767 0.671 0.757 0.664 0.743 0.653 0.724 0.639 0.703 0.621 0.677 0.6 0.647 0.577 0.614 0.549 0.577 0.518 0.535 0.484 0.489 0.446 0.44 0.404 0.385 0.357 0.327 0.306 0.262 -0.858 1.041 -0.343 -0.294 -0.384 -0.35 -0.422 -0.403 -0.46 -0.453 -0.494 -0.501 -0.528 -0.543 -0.556 -0.585 -0.582 -0.62 -0.606 -0.653 -0.626 -0.682 -0.643 -0.707 -0.656 -0.729 -0.668 -0.746 -0.674 -0.761 -0.679 -0.77 -0.681 -0.777 -0.678 -0.779 -0.673 -0.778 -0.664 -0.773 -0.653 -0.764 -0.638 -0.751 -0.62 -0.735 -0.598 -0.715 -0.575 -0.691 -0.547 -0.663 -0.516 -0.632 -0.482 -0.596 -0.446 -0.557 -0.405 -0.516 -0.363 -0.469 -0.318 -0.42 -0.269 -0.368 0 0zm11.233 -6.454l-0.272 1.323 0 0 -0.823 -0.157 -0.792 -0.125 -0.759 -0.094 -0.726 -0.066 -0.694 -0.037 -0.66 -0.01 -0.626 0.015 -0.592 0.039 -0.559 0.063 -0.523 0.083 -0.489 0.105 -0.454 0.122 -0.418 0.14 -0.383 0.155 -0.346 0.169 -0.311 0.181 -0.276 0.192 -0.241 0.199 -0.207 0.205 -0.174 0.211 -0.143 0.215 -0.112 0.218 -0.084 0.223 -0.057 0.226 -0.03 0.232 -0.003 0.239 0.024 0.247 0.054 0.256 0.086 0.264 0.117 0.272 0.151 0.279 0.187 0.285 -1.098 0.785 -0.246 -0.376 -0.207 -0.382 -0.168 -0.388 -0.125 -0.391 -0.084 -0.396 -0.039 -0.395 0.005 -0.394 0.05 -0.388 0.095 -0.38 0.139 -0.367 0.182 -0.353 0.222 -0.335 0.261 -0.317 0.298 -0.296 0.333 -0.275 0.367 -0.254 0.399 -0.233 0.433 -0.211 0.464 -0.188 0.496 -0.166 0.526 -0.142 0.559 -0.119 0.589 -0.095 0.62 -0.069 0.652 -0.043 0.681 -0.016 0.713 0.011 0.743 0.04 0.773 0.069 0.804 0.1 0.834 0.132 0.864 0.163 0 0zm20.446 7.419l-0.352 1.303 0 0 -0.27 -0.081 -0.295 -0.102 -0.326 -0.123 -0.356 -0.142 -0.387 -0.161 -0.418 -0.178 -0.447 -0.195 -0.477 -0.21 -0.505 -0.223 -0.533 -0.237 -0.558 -0.248 -0.584 -0.257 -0.608 -0.267 -0.631 -0.274 -0.653 -0.28 -0.674 -0.285 -0.693 -0.288 -0.711 -0.291 -0.729 -0.291 -0.745 -0.291 -0.76 -0.29 -0.774 -0.286 -0.786 -0.281 -0.798 -0.276 -0.807 -0.269 -0.817 -0.261 -0.825 -0.251 -0.831 -0.239 -0.837 -0.228 -0.841 -0.213 -0.844 -0.199 -0.846 -0.182 0.272 -1.323 0.871 0.188 0.868 0.205 0.863 0.219 0.858 0.233 0.85 0.246 0.843 0.256 0.834 0.266 0.823 0.274 0.812 0.281 0.8 0.286 0.786 0.291 0.771 0.293 0.756 0.295 0.738 0.296 0.721 0.294 0.701 0.292 0.68 0.287 0.658 0.283 0.637 0.276 0.611 0.268 0.587 0.259 0.56 0.248 0.532 0.237 0.503 0.222 0.473 0.208 0.441 0.192 0.407 0.175 0.373 0.154 0.335 0.134 0.296 0.112 0.253 0.088 0.205 0.061 0 0zm6.063 1.672l-0.047 1.349 0 0 -0.192 -0.01 -0.192 -0.015 -0.193 -0.021 -0.193 -0.026 -0.191 -0.031 -0.194 -0.035 -0.194 -0.039 -0.192 -0.043 -0.194 -0.047 -0.194 -0.049 -0.195 -0.053 -0.195 -0.056 -0.195 -0.058 -0.196 -0.06 -0.198 -0.062 -0.197 -0.064 -0.198 -0.065 -0.199 -0.066 -0.199 -0.067 -0.201 -0.068 -0.201 -0.068 -0.201 -0.069 -0.203 -0.068 -0.203 -0.068 -0.205 -0.069 -0.205 -0.067 -0.206 -0.065 -0.207 -0.066 -0.207 -0.063 -0.209 -0.062 -0.209 -0.06 -0.21 -0.058 0.352 -1.303 0.224 0.062 0.222 0.064 0.219 0.065 0.218 0.067 0.216 0.067 0.213 0.069 0.212 0.069 0.209 0.069 0.207 0.07 0.205 0.069 0.202 0.069 0.201 0.068 0.198 0.067 0.197 0.066 0.194 0.065 0.192 0.063 0.19 0.062 0.187 0.058 0.185 0.057 0.183 0.054 0.18 0.052 0.177 0.048 0.175 0.045 0.173 0.041 0.171 0.038 0.166 0.034 0.165 0.03 0.163 0.026 0.159 0.021 0.156 0.017 0.153 0.013 0.151 0.007 0 0zm2.082 3.256l-1.323 -0.265 0 0 0.028 -0.141 0.026 -0.136 0.024 -0.129 0.021 -0.123 0.018 -0.117 0.015 -0.11 0.012 -0.102 0.008 -0.094 0.004 -0.086 0.002 -0.079 -0.002 -0.07 -0.004 -0.059 -0.007 -0.05 -0.008 -0.041 -0.009 -0.032 -0.009 -0.026 -0.008 -0.017 -0.008 -0.012 -0.008 -0.011 -0.011 -0.012 -0.014 -0.012 -0.02 -0.016 -0.03 -0.017 -0.04 -0.02 -0.052 -0.021 -0.064 -0.021 -0.078 -0.021 -0.092 -0.019 -0.105 -0.017 -0.117 -0.013 -0.133 -0.011 -0.145 -0.007 0.047 -1.349 0.186 0.01 0.176 0.014 0.171 0.02 0.163 0.026 0.156 0.032 0.152 0.04 0.146 0.048 0.141 0.057 0.135 0.067 0.129 0.078 0.122 0.089 0.113 0.101 0.101 0.111 0.09 0.12 0.077 0.127 0.063 0.131 0.049 0.133 0.038 0.134 0.027 0.134 0.018 0.133 0.01 0.134 0.003 0.132 -0.002 0.132 -0.007 0.132 -0.012 0.134 -0.015 0.136 -0.019 0.135 -0.021 0.139 -0.024 0.14 -0.026 0.143 -0.028 0.146 -0.03 0.148 0 0zm-2.197 6.849l-1.321 -0.275 0 0 0.037 -0.165 0.044 -0.175 0.049 -0.183 0.055 -0.191 0.06 -0.201 0.065 -0.208 0.069 -0.215 0.073 -0.222 0.076 -0.227 0.08 -0.233 0.082 -0.238 0.084 -0.241 0.086 -0.244 0.087 -0.247 0.088 -0.248 0.088 -0.249 0.088 -0.248 0.087 -0.247 0.087 -0.245 0.084 -0.243 0.083 -0.24 0.081 -0.235 0.077 -0.229 0.074 -0.223 0.07 -0.216 0.066 -0.209 0.061 -0.199 0.056 -0.189 0.049 -0.178 0.044 -0.164 0.036 -0.151 0.029 -0.136 1.323 0.265 -0.036 0.171 -0.044 0.18 -0.049 0.189 -0.055 0.197 -0.06 0.204 -0.065 0.212 -0.07 0.219 -0.072 0.225 -0.077 0.231 -0.08 0.236 -0.082 0.24 -0.084 0.243 -0.086 0.246 -0.087 0.248 -0.088 0.248 -0.088 0.25 -0.089 0.248 -0.087 0.247 -0.087 0.245 -0.084 0.242 -0.083 0.238 -0.081 0.233 -0.078 0.227 -0.074 0.221 -0.07 0.214 -0.066 0.204 -0.061 0.196 -0.055 0.185 -0.05 0.174 -0.044 0.161 -0.036 0.145 -0.029 0.13 0 0zm-5.849 19.011l-1.297 -0.374 0 0 0.111 -0.38 0.129 -0.434 0.146 -0.483 0.162 -0.53 0.176 -0.572 0.188 -0.61 0.201 -0.644 0.21 -0.675 0.219 -0.7 0.226 -0.722 0.233 -0.741 0.237 -0.754 0.241 -0.765 0.242 -0.77 0.243 -0.771 0.242 -0.769 0.24 -0.762 0.236 -0.753 0.232 -0.737 0.224 -0.719 0.217 -0.695 0.208 -0.669 0.198 -0.637 0.185 -0.603 0.172 -0.563 0.158 -0.519 0.141 -0.472 0.124 -0.419 0.104 -0.362 0.084 -0.301 0.061 -0.231 0.035 -0.15 1.321 0.275 -0.047 0.203 -0.068 0.257 -0.088 0.315 -0.107 0.372 -0.126 0.426 -0.142 0.476 -0.159 0.523 -0.173 0.566 -0.186 0.604 -0.198 0.64 -0.208 0.67 -0.218 0.697 -0.225 0.72 -0.231 0.737 -0.237 0.753 -0.24 0.763 -0.242 0.769 -0.243 0.772 -0.242 0.77 -0.24 0.763 -0.238 0.755 -0.232 0.739 -0.226 0.722 -0.219 0.7 -0.21 0.673 -0.2 0.643 -0.188 0.608 -0.175 0.569 -0.16 0.526 -0.145 0.48 -0.128 0.428 -0.108 0.372 0 0zm0.552 0.626l1.115 0.759 0 0 -0.562 0.823 -0.509 0.733 -0.456 0.647 -0.407 0.566 -0.36 0.488 -0.317 0.413 -0.276 0.345 -0.24 0.282 -0.212 0.226 -0.199 0.181 -0.235 0.155 -0.439 0.09 -0.561 -0.343 -0.125 -0.388 0.008 -0.255 0.039 -0.229 0.058 -0.239 0.076 -0.26 0.091 -0.284 0.105 -0.306 0.116 -0.327 0.126 -0.346 0.134 -0.36 0.139 -0.373 0.142 -0.381 0.143 -0.386 0.142 -0.389 0.139 -0.387 0.133 -0.381 0.125 -0.372 0.116 -0.359 0.102 -0.343 1.297 0.374 -0.111 0.368 -0.122 0.381 -0.13 0.389 -0.138 0.394 -0.142 0.396 -0.144 0.395 -0.145 0.39 -0.143 0.383 -0.138 0.371 -0.132 0.356 -0.123 0.337 -0.112 0.315 -0.098 0.286 -0.082 0.255 -0.063 0.216 -0.041 0.168 -0.019 0.104 -0.002 -0.007 -0.082 -0.229 -0.463 -0.279 -0.28 0.049 -0.01 0.003 0.095 -0.088 0.156 -0.167 0.207 -0.243 0.254 -0.318 0.301 -0.394 0.349 -0.472 0.399 -0.553 0.449 -0.639 0.504 -0.725 0.558 -0.816 0 0zm21.201 -31.385l1.033 0.869 0 0 -0.203 0.253 -0.272 0.359 -0.332 0.454 -0.388 0.542 -0.439 0.626 -0.489 0.702 -0.532 0.773 -0.575 0.841 -0.613 0.901 -0.648 0.957 -0.68 1.008 -0.708 1.054 -0.734 1.094 -0.756 1.13 -0.775 1.159 -0.79 1.185 -0.803 1.206 -0.813 1.22 -0.819 1.23 -0.821 1.236 -0.822 1.234 -0.818 1.23 -0.811 1.219 -0.802 1.203 -0.788 1.183 -0.773 1.157 -0.752 1.127 -0.731 1.09 -0.704 1.05 -0.676 1.003 -0.643 0.953 -0.609 0.896 -1.115 -0.759 0.606 -0.894 0.642 -0.95 0.675 -1.002 0.704 -1.048 0.729 -1.09 0.753 -1.125 0.771 -1.157 0.788 -1.182 0.802 -1.203 0.811 -1.219 0.818 -1.229 0.821 -1.235 0.822 -1.235 0.819 -1.231 0.812 -1.22 0.804 -1.206 0.791 -1.186 0.775 -1.161 0.757 -1.13 0.735 -1.096 0.709 -1.055 0.681 -1.01 0.649 -0.959 0.615 -0.904 0.577 -0.843 0.536 -0.778 0.492 -0.708 0.444 -0.632 0.395 -0.553 0.343 -0.468 0.289 -0.382 0.236 -0.294 0 0zm4.643 0.912l-1.347 -0.076 0 0 0.023 -0.487 0.011 -0.436 0 -0.388 -0.01 -0.339 -0.02 -0.293 -0.028 -0.243 -0.034 -0.194 -0.038 -0.144 -0.033 -0.09 -0.019 -0.036 0.012 0.012 0.053 0.04 0.084 0.033 0.074 0.007 0.032 -0.003 -0.015 0.006 -0.054 0.029 -0.082 0.054 -0.103 0.08 -0.118 0.104 -0.13 0.126 -0.14 0.144 -0.149 0.161 -0.156 0.176 -0.162 0.188 -0.168 0.199 -0.172 0.209 -0.178 0.216 -0.18 0.221 -0.185 0.226 -0.188 0.227 -0.19 0.228 -1.033 -0.869 0.185 -0.221 0.183 -0.223 0.183 -0.223 0.182 -0.221 0.179 -0.219 0.178 -0.215 0.176 -0.209 0.174 -0.202 0.171 -0.193 0.17 -0.184 0.169 -0.174 0.168 -0.161 0.17 -0.149 0.173 -0.135 0.183 -0.121 0.197 -0.103 0.221 -0.078 0.256 -0.039 0.282 0.026 0.276 0.107 0.23 0.173 0.171 0.209 0.122 0.226 0.091 0.242 0.067 0.26 0.051 0.285 0.036 0.315 0.024 0.347 0.011 0.386 0 0.425 -0.012 0.468 -0.024 0.513 0 0zm-5.342 31.519l-1.334 -0.202 0 0 0.07 -0.447 0.091 -0.541 0.11 -0.63 0.128 -0.713 0.144 -0.791 0.159 -0.862 0.172 -0.928 0.184 -0.988 0.194 -1.041 0.204 -1.089 0.211 -1.129 0.218 -1.164 0.222 -1.193 0.226 -1.216 0.227 -1.232 0.229 -1.243 0.227 -1.246 0.224 -1.245 0.221 -1.236 0.216 -1.222 0.209 -1.201 0.201 -1.174 0.191 -1.141 0.18 -1.101 0.168 -1.055 0.154 -1.004 0.138 -0.946 0.122 -0.88 0.103 -0.809 0.084 -0.731 0.062 -0.644 0.04 -0.551 1.347 0.076 -0.042 0.589 -0.065 0.673 -0.086 0.75 -0.105 0.825 -0.123 0.893 -0.14 0.955 -0.156 1.012 -0.168 1.062 -0.182 1.107 -0.192 1.146 -0.201 1.178 -0.21 1.204 -0.216 1.225 -0.221 1.239 -0.226 1.247 -0.227 1.248 -0.228 1.244 -0.228 1.233 -0.226 1.217 -0.223 1.194 -0.217 1.165 -0.212 1.13 -0.203 1.088 -0.195 1.041 -0.184 0.986 -0.171 0.927 -0.159 0.86 -0.143 0.788 -0.127 0.708 -0.109 0.623 -0.089 0.531 -0.068 0.431 0 0zm-0.246 0.082l1.292 0.388 0 0 -0.106 0.348 -0.103 0.326 -0.1 0.305 -0.096 0.283 -0.093 0.263 -0.09 0.242 -0.087 0.22 -0.084 0.201 -0.082 0.182 -0.081 0.164 -0.082 0.149 -0.088 0.137 -0.104 0.133 -0.144 0.136 -0.246 0.133 -0.404 0.02 -0.354 -0.194 -0.164 -0.225 -0.072 -0.187 -0.035 -0.165 -0.021 -0.163 -0.01 -0.172 -0.003 -0.188 0.004 -0.205 0.011 -0.225 0.016 -0.245 0.023 -0.267 0.03 -0.29 0.036 -0.312 0.043 -0.335 0.049 -0.359 0.057 -0.382 1.334 0.202 -0.055 0.371 -0.047 0.346 -0.041 0.32 -0.035 0.296 -0.027 0.27 -0.021 0.245 -0.015 0.219 -0.009 0.192 -0.004 0.164 0.003 0.134 0.006 0.103 0.007 0.064 0.003 0.016 -0.021 -0.052 -0.103 -0.139 -0.283 -0.152 -0.322 0.014 -0.156 0.081 -0.041 0.038 0.007 -0.01 0.033 -0.052 0.047 -0.087 0.058 -0.116 0.065 -0.145 0.072 -0.171 0.077 -0.195 0.082 -0.22 0.086 -0.244 0.091 -0.267 0.095 -0.291 0.099 -0.314 0.103 -0.336 0 0zm15.564 -38.091l-1.331 0.221 1.229 0.25 -0.1 0.228 -0.178 0.431 -0.242 0.606 -0.301 0.766 -0.355 0.913 -0.404 1.045 -0.448 1.168 -0.488 1.277 -0.523 1.374 -0.553 1.458 -0.579 1.532 -0.601 1.592 -0.618 1.641 -0.63 1.677 -0.638 1.701 -0.64 1.714 -0.64 1.713 -0.633 1.702 -0.623 1.677 -0.607 1.641 -0.588 1.592 -0.564 1.532 -0.535 1.459 -0.501 1.374 -0.463 1.276 -0.421 1.168 -0.373 1.045 -0.321 0.912 -0.265 0.764 -0.203 0.604 -0.135 0.426 -1.292 -0.388 0.145 -0.459 0.208 -0.619 0.268 -0.774 0.323 -0.917 0.375 -1.05 0.422 -1.171 0.464 -1.279 0.502 -1.376 0.536 -1.461 0.564 -1.533 0.588 -1.594 0.608 -1.641 0.623 -1.678 0.634 -1.703 0.639 -1.715 0.642 -1.714 0.637 -1.702 0.631 -1.678 0.618 -1.642 0.601 -1.593 0.58 -1.533 0.554 -1.46 0.523 -1.375 0.489 -1.279 0.449 -1.169 0.404 -1.049 0.357 -0.916 0.303 -0.771 0.246 -0.616 0.186 -0.451 0.129 -0.292 1.316 0.119zm0 0c0.061,0.367 -0.188,0.715 -0.555,0.776 -0.367,0.061 -0.715,-0.188 -0.776,-0.555l1.331 -0.221z"/>
   </g>
   <g>
    <path class="fil0" d="M105.08 34.566c-0.318,0.194 -0.733,0.095 -0.928,-0.223 -0.195,-0.318 -0.095,-0.733 0.223,-0.928l0.705 1.151zm15.961 -7.525l0.147 1.342 0 0 -0.681 0.087 -0.69 0.111 -0.696 0.135 -0.701 0.156 -0.702 0.177 -0.704 0.194 -0.701 0.21 -0.699 0.224 -0.692 0.237 -0.684 0.248 -0.675 0.257 -0.664 0.263 -0.649 0.269 -0.634 0.272 -0.616 0.273 -0.597 0.273 -0.576 0.271 -0.551 0.267 -0.527 0.26 -0.5 0.253 -0.47 0.243 -0.439 0.231 -0.406 0.218 -0.371 0.203 -0.335 0.186 -0.296 0.167 -0.255 0.146 -0.212 0.123 -0.168 0.098 -0.121 0.073 -0.074 0.045 -0.022 0.013 -0.705 -1.151 0.03 -0.018 0.078 -0.047 0.127 -0.076 0.175 -0.103 0.219 -0.127 0.262 -0.15 0.304 -0.171 0.342 -0.19 0.38 -0.207 0.414 -0.223 0.449 -0.237 0.48 -0.248 0.51 -0.258 0.538 -0.266 0.564 -0.272 0.588 -0.277 0.61 -0.279 0.631 -0.28 0.65 -0.279 0.667 -0.275 0.681 -0.271 0.694 -0.264 0.706 -0.255 0.715 -0.245 0.723 -0.233 0.729 -0.218 0.733 -0.202 0.736 -0.185 0.736 -0.164 0.735 -0.142 0.732 -0.119 0.728 -0.093 0 0zm14.338 4.978l-1.28 0.427 0 0 -0.106 -0.287 -0.126 -0.276 -0.144 -0.268 -0.164 -0.259 -0.182 -0.249 -0.201 -0.242 -0.221 -0.232 -0.241 -0.224 -0.261 -0.215 -0.281 -0.205 -0.301 -0.197 -0.322 -0.186 -0.341 -0.177 -0.361 -0.166 -0.381 -0.156 -0.401 -0.144 -0.42 -0.133 -0.439 -0.121 -0.458 -0.109 -0.477 -0.097 -0.496 -0.084 -0.513 -0.072 -0.532 -0.058 -0.549 -0.045 -0.566 -0.032 -0.584 -0.018 -0.6 -0.005 -0.617 0.01 -0.633 0.025 -0.649 0.038 -0.664 0.053 -0.68 0.068 -0.147 -1.342 0.706 -0.07 0.692 -0.055 0.677 -0.04 0.662 -0.025 0.647 -0.011 0.632 0.005 0.616 0.019 0.601 0.033 0.585 0.049 0.569 0.062 0.553 0.077 0.537 0.092 0.52 0.105 0.503 0.12 0.486 0.134 0.47 0.149 0.452 0.163 0.435 0.177 0.416 0.191 0.399 0.206 0.379 0.221 0.361 0.236 0.342 0.25 0.321 0.264 0.301 0.28 0.28 0.294 0.257 0.308 0.236 0.323 0.212 0.336 0.188 0.349 0.164 0.362 0.139 0.374 0 0zm-27.455 10.607l0.262 -1.324 1.729 0.31 1.669 0.233 1.608 0.162 1.548 0.093 1.488 0.029 1.427 -0.031 1.368 -0.089 1.308 -0.142 1.248 -0.191 1.188 -0.237 1.129 -0.28 1.07 -0.317 1.01 -0.352 0.951 -0.383 0.892 -0.411 0.833 -0.434 0.774 -0.453 0.715 -0.47 0.656 -0.481 0.598 -0.49 0.538 -0.494 0.48 -0.495 0.42 -0.491 0.362 -0.482 0.304 -0.469 0.245 -0.452 0.188 -0.429 0.133 -0.401 0.078 -0.366 0.028 -0.326 -0.017 -0.282 -0.055 -0.235 1.28 -0.427 0.111 0.471 0.03 0.493 -0.043 0.507 -0.111 0.52 -0.174 0.53 -0.237 0.54 -0.297 0.547 -0.357 0.552 -0.416 0.555 -0.476 0.555 -0.536 0.552 -0.595 0.547 -0.654 0.536 -0.714 0.524 -0.773 0.508 -0.832 0.488 -0.892 0.464 -0.952 0.438 -1.011 0.407 -1.07 0.374 -1.13 0.335 -1.189 0.294 -1.249 0.249 -1.307 0.2 -1.366 0.148 -1.426 0.093 -1.484 0.033 -1.544 -0.031 -1.602 -0.096 -1.661 -0.167 -1.72 -0.241 -1.778 -0.318zm0 0c-0.365,-0.072 -0.603,-0.427 -0.531,-0.793 0.072,-0.365 0.428,-0.603 0.793,-0.531l-0.262 1.324z"/>
   </g>
   <g>
    <path class="fil0" d="M44.44 66.126c-0.373,-0.008 -0.668,-0.316 -0.661,-0.689 0.008,-0.372 0.317,-0.668 0.689,-0.66l-0.028 1.349zm69.037 -1.6l0.081 1.347 0 0 -2.039 0.111 -2.184 0.099 -2.316 0.087 -2.435 0.075 -2.539 0.064 -2.629 0.054 -2.706 0.045 -2.77 0.035 -2.819 0.027 -2.854 0.019 -2.877 0.011 -2.884 0.005 -2.879 -0.001 -2.859 -0.006 -2.825 -0.012 -2.778 -0.015 -2.717 -0.02 -2.642 -0.022 -2.553 -0.025 -2.451 -0.027 -2.334 -0.028 -2.203 -0.029 -2.06 -0.029 -1.901 -0.028 -1.73 -0.027 -1.544 -0.026 -1.344 -0.023 -1.131 -0.021 -0.905 -0.016 -0.663 -0.013 -0.408 -0.008 -0.139 -0.003 0.028 -1.349 0.139 0.002 0.407 0.009 0.662 0.012 0.903 0.017 1.13 0.021 1.344 0.023 1.543 0.026 1.728 0.027 1.901 0.028 2.058 0.029 2.202 0.029 2.333 0.028 2.449 0.027 2.551 0.025 2.641 0.022 2.714 0.019 2.777 0.016 2.822 0.012 2.857 0.006 2.876 0.001 2.881 -0.005 2.873 -0.012 2.851 -0.019 2.815 -0.026 2.765 -0.036 2.701 -0.044 2.624 -0.054 2.531 -0.064 2.427 -0.075 2.306 -0.086 2.173 -0.098 2.025 -0.111 0 0zm70.449 -4.019l0.075 1.348 -0.143 0.008 -0.419 0.023 -0.682 0.038 -0.928 0.052 -1.162 0.065 -1.381 0.077 -1.585 0.088 -1.776 0.1 -1.951 0.109 -2.113 0.119 -2.26 0.127 -2.393 0.134 -2.511 0.141 -2.616 0.147 -2.705 0.153 -2.781 0.157 -2.841 0.16 -2.888 0.164 -2.921 0.166 -2.939 0.167 -2.943 0.167 -2.931 0.167 -2.907 0.167 -2.868 0.164 -2.813 0.162 -2.746 0.159 -2.663 0.154 -2.566 0.15 -2.455 0.143 -2.33 0.138 -2.19 0.13 -2.036 0.122 -0.081 -1.347 2.036 -0.122 2.191 -0.13 2.33 -0.138 2.456 -0.143 2.567 -0.15 2.663 -0.154 2.746 -0.159 2.814 -0.162 2.868 -0.164 2.907 -0.167 2.932 -0.167 2.942 -0.167 2.939 -0.167 2.921 -0.166 2.889 -0.164 2.841 -0.161 2.781 -0.157 2.705 -0.152 2.616 -0.147 2.511 -0.142 2.393 -0.134 2.26 -0.127 2.113 -0.118 1.952 -0.11 1.775 -0.099 1.586 -0.089 1.381 -0.077 1.162 -0.065 0.929 -0.051 0.68 -0.038 0.42 -0.024 0.143 -0.008zm0 0c0.372,-0.02 0.691,0.265 0.711,0.636 0.02,0.372 -0.264,0.691 -0.636,0.712l-0.075 -1.348z"/>
   </g>
   <g>
    <path class="fil0" d="M49.504 77.918c-0.231,0.292 -0.656,0.342 -0.948,0.111 -0.292,-0.23 -0.342,-0.655 -0.112,-0.947l1.06 0.836zm27.594 -36.15l1.013 0.892 0 0 -0.73 0.837 -0.806 0.938 -0.874 1.03 -0.937 1.114 -0.992 1.189 -1.041 1.256 -1.084 1.315 -1.12 1.365 -1.149 1.407 -1.173 1.441 -1.19 1.466 -1.201 1.482 -1.204 1.492 -1.202 1.491 -1.193 1.484 -1.178 1.467 -1.156 1.443 -1.128 1.41 -1.094 1.368 -1.052 1.319 -1.005 1.262 -0.952 1.195 -0.891 1.12 -0.825 1.038 -0.752 0.947 -0.672 0.848 -0.586 0.74 -0.495 0.624 -0.395 0.499 -0.291 0.367 -0.178 0.227 -0.061 0.077 -1.06 -0.836 0.062 -0.078 0.179 -0.226 0.291 -0.368 0.395 -0.5 0.495 -0.624 0.587 -0.741 0.672 -0.848 0.752 -0.947 0.825 -1.038 0.892 -1.122 0.952 -1.195 1.006 -1.262 1.053 -1.32 1.094 -1.369 1.129 -1.411 1.156 -1.443 1.179 -1.468 1.194 -1.485 1.203 -1.493 1.205 -1.492 1.201 -1.484 1.191 -1.468 1.175 -1.442 1.151 -1.409 1.122 -1.367 1.086 -1.317 1.044 -1.259 0.995 -1.193 0.94 -1.119 0.879 -1.035 0.811 -0.945 0.738 -0.846 0 0zm19.128 -18.402l0.427 1.28 0 0 -0.199 0.08 -0.255 0.129 -0.301 0.177 -0.342 0.222 -0.377 0.266 -0.411 0.307 -0.441 0.347 -0.47 0.384 -0.495 0.419 -0.521 0.453 -0.544 0.486 -0.565 0.516 -0.586 0.544 -0.604 0.572 -0.621 0.597 -0.637 0.621 -0.651 0.644 -0.664 0.664 -0.676 0.684 -0.685 0.7 -0.694 0.717 -0.701 0.731 -0.707 0.744 -0.712 0.755 -0.714 0.765 -0.717 0.773 -0.716 0.779 -0.715 0.784 -0.713 0.788 -0.708 0.789 -0.704 0.789 -0.696 0.788 -1.013 -0.892 0.7 -0.792 0.707 -0.793 0.712 -0.793 0.716 -0.791 0.719 -0.788 0.72 -0.783 0.72 -0.777 0.718 -0.769 0.715 -0.759 0.712 -0.749 0.705 -0.735 0.699 -0.722 0.69 -0.706 0.681 -0.688 0.669 -0.67 0.657 -0.65 0.644 -0.627 0.629 -0.604 0.612 -0.58 0.594 -0.553 0.576 -0.525 0.555 -0.496 0.535 -0.465 0.511 -0.433 0.489 -0.399 0.463 -0.364 0.439 -0.328 0.413 -0.291 0.388 -0.253 0.365 -0.214 0.344 -0.173 0.331 -0.132 0 0zm2.833 4.319l-1.221 -0.575 0.081 -0.18 0.073 -0.178 0.065 -0.175 0.058 -0.174 0.048 -0.169 0.041 -0.165 0.033 -0.161 0.024 -0.154 0.016 -0.147 0.008 -0.139 0 -0.132 -0.007 -0.121 -0.014 -0.11 -0.019 -0.1 -0.025 -0.089 -0.029 -0.077 -0.032 -0.065 -0.035 -0.056 -0.036 -0.046 -0.04 -0.04 -0.043 -0.035 -0.05 -0.03 -0.059 -0.028 -0.071 -0.024 -0.086 -0.02 -0.102 -0.012 -0.119 -0.005 -0.138 0.007 -0.155 0.018 -0.173 0.032 -0.191 0.048 -0.208 0.063 -0.427 -1.28 0.274 -0.083 0.264 -0.066 0.256 -0.048 0.249 -0.029 0.24 -0.011 0.234 0.008 0.228 0.029 0.219 0.05 0.209 0.071 0.199 0.093 0.184 0.114 0.168 0.134 0.149 0.151 0.13 0.165 0.109 0.175 0.091 0.185 0.072 0.191 0.056 0.195 0.04 0.2 0.025 0.204 0.012 0.206 -0.001 0.208 -0.011 0.211 -0.023 0.213 -0.034 0.215 -0.044 0.217 -0.054 0.218 -0.063 0.22 -0.073 0.22 -0.082 0.221 -0.09 0.221 -0.1 0.221zm0 0c-0.158,0.337 -0.561,0.482 -0.898,0.323 -0.337,-0.159 -0.481,-0.561 -0.323,-0.898l1.221 0.575z"/>
   </g>
   <g>
    <path class="fil0" d="M83.393 22.223c0.153,-0.34 0.552,-0.491 0.892,-0.339 0.34,0.153 0.492,0.553 0.339,0.892l-1.231 -0.553zm-21.724 48.345l21.724 -48.345 1.231 0.553 -21.724 48.345 -1.231 -0.553zm1.231 0.553c-0.153,0.34 -0.552,0.492 -0.892,0.339 -0.34,-0.153 -0.492,-0.552 -0.339,-0.892l1.231 0.553z"/>
   </g>
  </g>
 </g>
</svg>
