<?xml version="1.0" encoding="UTF-8"?>
<!DOCTYPE svg PUBLIC "-//W3C//DTD SVG 1.1//EN" "http://www.w3.org/Graphics/SVG/1.1/DTD/svg11.dtd">
<!-- Creator: CorelDRAW 2019 (64-Bit) -->
<svg xmlns="http://www.w3.org/2000/svg" xml:space="preserve" width="200px" height="100px" version="1.1" style="shape-rendering:geometricPrecision; text-rendering:geometricPrecision; image-rendering:optimizeQuality; fill-rule:evenodd; clip-rule:evenodd"
viewBox="0 0 200 100"
 xmlns:xlink="http://www.w3.org/1999/xlink"
 xmlns:xodm="http://www.corel.com/coreldraw/odm/2003">
 <defs>
  <style type="text/css">
   <![CDATA[
    .fil0 {fill:black;fill-rule:nonzero}
   ]]>
  </style>
 </defs>
 <g id="Layer_x0020_1">
  <metadata id="CorelCorpID_0Corel-Layer"/>
  <g id="_2581025470448">
   <g>
    <path class="fil0" d="M80.734 33.399c-0.056,-0.41 0.232,-0.789 0.642,-0.844 0.411,-0.056 0.789,0.231 0.845,0.642l-1.487 0.202zm3.333 24.473l-3.333 -24.473 1.487 -0.202 3.332 24.473 -1.454 0.338 -0.032 -0.136zm0.885 -1.296l1.486 0.204 0 0 -0.036 0.25 -0.038 0.229 -0.04 0.208 -0.041 0.19 -0.043 0.172 -0.046 0.159 -0.049 0.147 -0.055 0.136 -0.064 0.13 -0.077 0.127 -0.096 0.126 -0.131 0.124 -0.175 0.11 -0.219 0.074 -0.235 0.013 -0.21 -0.041 -0.17 -0.076 -0.128 -0.087 -0.095 -0.086 -0.074 -0.082 -0.058 -0.076 -0.051 -0.075 -0.04 -0.068 -0.035 -0.063 -0.03 -0.061 -0.025 -0.053 -0.022 -0.05 -0.018 -0.045 -0.016 -0.04 -0.01 -0.028 -0.007 -0.021 -0.005 -0.015 1.423 -0.474 -0.003 -0.006 0.002 0.004 0.004 0.011 0.004 0.011 0.007 0.016 0.008 0.019 0.01 0.02 0.008 0.018 0.009 0.016 0.006 0.01 0 0.001 -0.005 -0.006 -0.017 -0.019 -0.036 -0.032 -0.065 -0.043 -0.105 -0.047 -0.143 -0.028 -0.166 0.01 -0.149 0.05 -0.103 0.065 -0.058 0.054 -0.023 0.03 -0.002 0.004 0.011 -0.025 0.021 -0.05 0.025 -0.074 0.029 -0.101 0.031 -0.124 0.032 -0.148 0.032 -0.173 0.033 -0.198 0.033 -0.223 0 0zm2.147 -10.638l1.15 0.963 0 0 -0.136 0.175 -0.129 0.195 -0.124 0.213 -0.116 0.231 -0.11 0.248 -0.103 0.265 -0.096 0.279 -0.089 0.292 -0.082 0.305 -0.075 0.316 -0.068 0.325 -0.062 0.334 -0.057 0.341 -0.051 0.347 -0.046 0.352 -0.042 0.356 -0.037 0.358 -0.033 0.359 -0.031 0.36 -0.027 0.358 -0.025 0.357 -0.024 0.354 -0.022 0.35 -0.021 0.345 -0.021 0.339 -0.021 0.331 -0.023 0.324 -0.022 0.315 -0.026 0.305 -0.027 0.294 -0.031 0.284 -0.034 0.272 -1.486 -0.204 0.03 -0.242 0.028 -0.259 0.026 -0.276 0.024 -0.291 0.022 -0.304 0.022 -0.316 0.021 -0.327 0.021 -0.338 0.021 -0.345 0.023 -0.354 0.023 -0.359 0.026 -0.365 0.028 -0.369 0.031 -0.372 0.036 -0.374 0.038 -0.375 0.044 -0.375 0.049 -0.374 0.055 -0.373 0.061 -0.369 0.069 -0.366 0.076 -0.361 0.084 -0.356 0.094 -0.348 0.103 -0.342 0.115 -0.334 0.126 -0.324 0.139 -0.315 0.154 -0.303 0.169 -0.291 0.185 -0.278 0.204 -0.263 0 0zm4.465 -1.937l-1.427 0.463 0 0 -0.049 -0.14 -0.044 -0.11 -0.038 -0.081 -0.028 -0.048 -0.011 -0.017 0.014 0.014 0.049 0.036 0.086 0.04 0.108 0.022 0.098 -0.003 0.068 -0.016 0.028 -0.011 -0.005 0.003 -0.029 0.022 -0.048 0.044 -0.062 0.062 -0.073 0.08 -0.082 0.096 -0.089 0.111 -0.097 0.125 -0.104 0.137 -0.111 0.148 -0.117 0.16 -0.123 0.168 -0.13 0.177 -0.136 0.185 -0.143 0.192 -0.149 0.198 -0.157 0.204 -0.164 0.209 -0.171 0.214 -0.179 0.216 -1.15 -0.963 0.165 -0.201 0.16 -0.198 0.154 -0.196 0.148 -0.193 0.143 -0.19 0.137 -0.185 0.134 -0.181 0.128 -0.175 0.124 -0.169 0.12 -0.164 0.117 -0.157 0.114 -0.15 0.111 -0.143 0.111 -0.137 0.11 -0.129 0.112 -0.123 0.115 -0.115 0.122 -0.11 0.135 -0.103 0.153 -0.093 0.18 -0.08 0.214 -0.053 0.24 -0.008 0.246 0.05 0.219 0.103 0.179 0.134 0.141 0.15 0.113 0.157 0.094 0.164 0.082 0.174 0.074 0.185 0.07 0.199 0 0zm0.494 11.082l-1.48 -0.246 0 -0.001 0.009 -0.064 0.011 -0.124 0.011 -0.168 0.011 -0.205 0.009 -0.238 0.008 -0.27 0.006 -0.296 0.006 -0.322 0.003 -0.344 0.003 -0.363 0 -0.38 -0.002 -0.395 -0.003 -0.408 -0.006 -0.418 -0.007 -0.425 -0.01 -0.43 -0.012 -0.433 -0.014 -0.433 -0.017 -0.431 -0.019 -0.426 -0.022 -0.419 -0.025 -0.41 -0.027 -0.398 -0.03 -0.384 -0.032 -0.366 -0.036 -0.346 -0.038 -0.323 -0.041 -0.298 -0.043 -0.269 -0.045 -0.235 -0.046 -0.198 -0.043 -0.153 1.427 -0.463 0.069 0.243 0.061 0.262 0.054 0.285 0.05 0.307 0.045 0.329 0.041 0.349 0.038 0.367 0.034 0.384 0.031 0.399 0.028 0.412 0.026 0.422 0.022 0.43 0.02 0.436 0.017 0.44 0.015 0.441 0.012 0.442 0.009 0.437 0.008 0.432 0.006 0.425 0.003 0.414 0.002 0.402 0 0.388 -0.002 0.371 -0.004 0.351 -0.006 0.331 -0.007 0.307 -0.008 0.281 -0.01 0.254 -0.012 0.226 -0.013 0.195 -0.015 0.169 -0.02 0.151 0 0zm1.2 -3.076l1.328 0.698 0 0 -0.067 0.122 -0.075 0.126 -0.082 0.127 -0.087 0.132 -0.095 0.136 -0.099 0.138 -0.104 0.141 -0.109 0.143 -0.113 0.144 -0.116 0.145 -0.118 0.144 -0.121 0.144 -0.121 0.142 -0.122 0.138 -0.122 0.135 -0.122 0.132 -0.12 0.126 -0.119 0.121 -0.117 0.114 -0.115 0.107 -0.114 0.102 -0.112 0.093 -0.113 0.086 -0.119 0.08 -0.132 0.075 -0.166 0.068 -0.237 0.045 -0.354 -0.053 -0.354 -0.263 -0.154 -0.324 -0.026 -0.246 0.017 -0.188 1.48 0.246 0.003 -0.033 -0.016 -0.129 -0.118 -0.245 -0.294 -0.219 -0.272 -0.043 -0.135 0.024 -0.044 0.017 0.006 -0.004 0.036 -0.024 0.057 -0.043 0.07 -0.059 0.08 -0.07 0.089 -0.084 0.095 -0.093 0.101 -0.102 0.104 -0.109 0.107 -0.116 0.109 -0.121 0.111 -0.126 0.11 -0.128 0.109 -0.13 0.107 -0.131 0.106 -0.132 0.101 -0.129 0.097 -0.128 0.092 -0.124 0.087 -0.12 0.078 -0.114 0.072 -0.106 0.061 -0.098 0.052 -0.085 0.039 -0.072 0 0zm-0.033 -8.38l1.498 0.065 0.001 0 -0.003 0.105 0 0.142 0.002 0.174 0.005 0.203 0.007 0.228 0.009 0.25 0.011 0.27 0.012 0.289 0.013 0.305 0.013 0.318 0.014 0.33 0.015 0.34 0.014 0.347 0.013 0.354 0.013 0.357 0.012 0.359 0.01 0.359 0.009 0.357 0.006 0.353 0.005 0.347 0.002 0.339 -0.002 0.33 -0.004 0.319 -0.008 0.306 -0.012 0.291 -0.016 0.277 -0.021 0.26 -0.028 0.243 -0.034 0.227 -0.044 0.214 -0.06 0.208 -0.091 0.212 -1.328 -0.698 0.001 -0.006 0.02 -0.069 0.025 -0.121 0.024 -0.161 0.021 -0.193 0.018 -0.221 0.015 -0.245 0.011 -0.267 0.007 -0.286 0.004 -0.303 0.001 -0.315 -0.002 -0.328 -0.004 -0.337 -0.006 -0.344 -0.009 -0.349 -0.01 -0.353 -0.011 -0.354 -0.013 -0.353 -0.013 -0.35 -0.014 -0.345 -0.014 -0.337 -0.015 -0.33 -0.013 -0.318 -0.013 -0.306 -0.012 -0.291 -0.011 -0.274 -0.009 -0.257 -0.007 -0.237 -0.006 -0.214 -0.002 -0.194 0 -0.171 0.004 -0.151 0 0zm2.621 3.44l-1.453 0.372 0 0 -0.054 -0.213 -0.054 -0.214 -0.053 -0.214 -0.052 -0.213 -0.052 -0.212 -0.051 -0.208 -0.05 -0.207 -0.05 -0.202 -0.048 -0.199 -0.047 -0.192 -0.046 -0.187 -0.044 -0.18 -0.044 -0.173 -0.041 -0.163 -0.041 -0.154 -0.038 -0.144 -0.037 -0.132 -0.034 -0.12 -0.032 -0.106 -0.029 -0.09 -0.024 -0.072 -0.019 -0.05 -0.009 -0.02 0.012 0.021 0.074 0.093 0.306 0.186 0.616 -0.095 0.233 -0.264 0.042 -0.11 0.005 -0.019 -0.004 0.035 -0.005 0.071 -1.498 -0.065 0.008 -0.132 0.014 -0.125 0.027 -0.138 0.071 -0.19 0.266 -0.305 0.653 -0.101 0.349 0.215 0.12 0.157 0.063 0.116 0.047 0.106 0.039 0.104 0.039 0.11 0.037 0.119 0.039 0.127 0.039 0.136 0.04 0.145 0.04 0.154 0.043 0.162 0.043 0.171 0.045 0.177 0.045 0.183 0.047 0.189 0.048 0.195 0.048 0.199 0.049 0.203 0.051 0.206 0.05 0.208 0.052 0.21 0.051 0.21 0.053 0.211 0.052 0.21 0.053 0.208 0 0zm0.747 7.291l-1.384 0.578 -0.001 -0.001 -0.053 -0.155 -0.034 -0.142 -0.026 -0.145 -0.023 -0.154 -0.019 -0.165 -0.018 -0.179 -0.017 -0.192 -0.017 -0.204 -0.015 -0.217 -0.015 -0.228 -0.015 -0.239 -0.014 -0.248 -0.015 -0.257 -0.015 -0.263 -0.017 -0.27 -0.016 -0.276 -0.018 -0.28 -0.018 -0.282 -0.02 -0.285 -0.021 -0.285 -0.023 -0.285 -0.024 -0.283 -0.026 -0.28 -0.028 -0.276 -0.03 -0.272 -0.033 -0.264 -0.034 -0.257 -0.038 -0.246 -0.039 -0.237 -0.043 -0.224 -0.044 -0.211 -0.047 -0.195 1.453 -0.372 0.057 0.237 0.053 0.247 0.047 0.256 0.045 0.262 0.04 0.271 0.038 0.277 0.034 0.282 0.032 0.286 0.03 0.29 0.027 0.292 0.025 0.294 0.024 0.293 0.021 0.293 0.021 0.291 0.019 0.288 0.017 0.284 0.017 0.278 0.016 0.271 0.015 0.265 0.015 0.255 0.015 0.245 0.014 0.234 0.015 0.222 0.015 0.207 0.015 0.192 0.015 0.175 0.016 0.156 0.016 0.134 0.015 0.11 0.015 0.079 0.01 0.042 -0.007 -0.016 0 -0.001zm0.486 0.492l1.497 -0.094 0 0.001 0.006 0.199 -0.009 0.193 -0.026 0.188 -0.045 0.185 -0.07 0.182 -0.098 0.174 -0.129 0.161 -0.157 0.137 -0.176 0.105 -0.184 0.071 -0.181 0.037 -0.173 0.012 -0.161 -0.009 -0.151 -0.024 -0.144 -0.035 -0.134 -0.044 -0.13 -0.052 -0.124 -0.058 -0.119 -0.064 -0.115 -0.068 -0.111 -0.072 -0.107 -0.076 -0.104 -0.08 -0.099 -0.083 -0.095 -0.086 -0.09 -0.087 -0.086 -0.091 -0.082 -0.096 -0.077 -0.099 -0.071 -0.103 -0.066 -0.113 -0.059 -0.125 1.384 -0.578 -0.002 -0.004 0.008 0.012 0.018 0.026 0.026 0.035 0.034 0.039 0.042 0.044 0.047 0.046 0.052 0.046 0.055 0.047 0.057 0.044 0.059 0.042 0.06 0.039 0.058 0.034 0.055 0.029 0.051 0.025 0.045 0.017 0.037 0.013 0.025 0.006 0.013 0.002 -0.002 0.001 -0.022 0.001 -0.038 0.009 -0.052 0.02 -0.053 0.032 -0.047 0.041 -0.032 0.039 -0.015 0.027 -0.003 0.009 0.004 -0.017 0.006 -0.045 0.003 -0.07 -0.003 -0.097 0 0zm0.536 -8.639l1.363 0.626 0 0 -0.062 0.147 -0.059 0.167 -0.057 0.186 -0.053 0.203 -0.049 0.219 -0.044 0.232 -0.04 0.244 -0.035 0.256 -0.031 0.264 -0.026 0.274 -0.023 0.28 -0.019 0.286 -0.015 0.289 -0.011 0.294 -0.008 0.296 -0.005 0.296 -0.002 0.297 0 0.295 0.003 0.293 0.005 0.289 0.006 0.285 0.009 0.279 0.009 0.273 0.011 0.264 0.011 0.256 0.013 0.246 0.012 0.235 0.013 0.223 0.011 0.21 0.013 0.195 0.011 0.182 0.01 0.164 -1.497 0.094 -0.01 -0.165 -0.012 -0.182 -0.012 -0.198 -0.012 -0.214 -0.013 -0.227 -0.013 -0.241 -0.012 -0.251 -0.012 -0.262 -0.011 -0.273 -0.01 -0.28 -0.008 -0.289 -0.007 -0.294 -0.005 -0.3 -0.003 -0.304 0 -0.307 0.002 -0.311 0.005 -0.312 0.009 -0.312 0.012 -0.311 0.016 -0.31 0.02 -0.307 0.024 -0.304 0.029 -0.3 0.035 -0.295 0.04 -0.289 0.046 -0.282 0.052 -0.275 0.059 -0.266 0.068 -0.259 0.076 -0.249 0.085 -0.24 0.098 -0.23 0 0zm3.452 2.641l-1.481 0.238 0 0 -0.043 -0.261 -0.045 -0.253 -0.045 -0.243 -0.046 -0.232 -0.047 -0.221 -0.049 -0.209 -0.048 -0.198 -0.05 -0.185 -0.049 -0.172 -0.05 -0.158 -0.049 -0.143 -0.049 -0.128 -0.047 -0.11 -0.044 -0.092 -0.04 -0.074 -0.033 -0.052 -0.023 -0.03 -0.006 -0.007 0.016 0.013 0.048 0.027 0.079 0.027 0.099 0.011 0.097 -0.011 0.07 -0.023 0.036 -0.02 0.006 -0.004 -0.019 0.02 -0.036 0.044 -0.049 0.07 -0.058 0.096 -0.064 0.121 -0.07 0.144 -1.363 -0.626 0.095 -0.197 0.098 -0.182 0.101 -0.169 0.109 -0.156 0.119 -0.146 0.133 -0.134 0.156 -0.123 0.185 -0.103 0.214 -0.073 0.24 -0.028 0.24 0.028 0.217 0.075 0.182 0.107 0.15 0.123 0.124 0.132 0.106 0.139 0.093 0.145 0.083 0.151 0.076 0.16 0.072 0.167 0.067 0.176 0.064 0.185 0.061 0.195 0.059 0.204 0.057 0.213 0.055 0.224 0.053 0.232 0.052 0.242 0.05 0.251 0.049 0.259 0.047 0.268 0.045 0.276 0 0zm1.172 0.764l1.382 0.584 0 0 -0.102 0.233 -0.106 0.219 -0.108 0.205 -0.111 0.193 -0.115 0.179 -0.12 0.168 -0.127 0.155 -0.134 0.142 -0.144 0.131 -0.157 0.116 -0.172 0.1 -0.19 0.08 -0.204 0.052 -0.216 0.019 -0.218 -0.018 -0.21 -0.054 -0.193 -0.084 -0.174 -0.109 -0.153 -0.126 -0.136 -0.14 -0.12 -0.151 -0.109 -0.162 -0.1 -0.173 -0.091 -0.182 -0.084 -0.195 -0.077 -0.206 -0.073 -0.218 -0.068 -0.231 -0.062 -0.243 -0.059 -0.257 -0.053 -0.27 -0.049 -0.283 1.481 -0.238 0.043 0.249 0.046 0.232 0.049 0.215 0.051 0.198 0.053 0.181 0.054 0.163 0.055 0.146 0.055 0.126 0.053 0.108 0.05 0.087 0.046 0.068 0.038 0.048 0.027 0.028 0.014 0.012 -0.002 -0.002 -0.02 -0.008 -0.033 -0.008 -0.038 -0.003 -0.033 0.003 -0.02 0.004 -0.003 0.002 0.016 -0.01 0.032 -0.024 0.046 -0.041 0.056 -0.061 0.065 -0.079 0.07 -0.098 0.076 -0.117 0.078 -0.137 0.082 -0.155 0.082 -0.172 0.084 -0.191 0 0zm0.389 -6.047l1.229 -0.86 0.124 0.189 0.113 0.198 0.099 0.203 0.089 0.208 0.078 0.214 0.067 0.218 0.057 0.222 0.047 0.225 0.039 0.229 0.03 0.232 0.021 0.234 0.014 0.238 0.006 0.239 -0.002 0.241 -0.008 0.243 -0.015 0.245 -0.022 0.246 -0.029 0.247 -0.034 0.248 -0.04 0.248 -0.045 0.249 -0.052 0.248 -0.056 0.248 -0.062 0.248 -0.066 0.247 -0.072 0.247 -0.075 0.244 -0.08 0.243 -0.085 0.241 -0.088 0.239 -0.093 0.236 -0.096 0.234 -1.382 -0.584 0.086 -0.208 0.083 -0.212 0.079 -0.213 0.075 -0.216 0.072 -0.217 0.068 -0.219 0.063 -0.218 0.059 -0.22 0.055 -0.219 0.049 -0.219 0.045 -0.218 0.04 -0.216 0.035 -0.216 0.029 -0.212 0.024 -0.212 0.019 -0.207 0.012 -0.205 0.008 -0.2 0.001 -0.197 -0.005 -0.193 -0.011 -0.186 -0.016 -0.182 -0.023 -0.176 -0.029 -0.169 -0.034 -0.164 -0.04 -0.156 -0.046 -0.148 -0.051 -0.141 -0.057 -0.134 -0.062 -0.126 -0.066 -0.118 -0.073 -0.11zm0 0c-0.237,-0.34 -0.154,-0.808 0.185,-1.045 0.339,-0.237 0.807,-0.155 1.044,0.185l-1.229 0.86z"/>
   </g>
   <g>
    <path class="fil0" d="M84.174 48.08c-0.4,0.109 -0.812,-0.127 -0.921,-0.526 -0.109,-0.4 0.127,-0.812 0.526,-0.921l0.395 1.447zm5.058 -0.691l-1.139 0.976 0 0 -0.071 -0.074 -0.079 -0.069 -0.092 -0.064 -0.102 -0.06 -0.113 -0.055 -0.125 -0.05 -0.136 -0.044 -0.144 -0.038 -0.152 -0.032 -0.16 -0.026 -0.166 -0.019 -0.169 -0.013 -0.173 -0.008 -0.174 -0.003 -0.174 0.002 -0.174 0.007 -0.172 0.011 -0.168 0.014 -0.164 0.017 -0.158 0.019 -0.151 0.022 -0.144 0.022 -0.134 0.023 -0.126 0.023 -0.112 0.022 -0.1 0.021 -0.089 0.02 -0.072 0.016 -0.059 0.014 -0.04 0.01 -0.023 0.006 -0.003 0.001 -0.395 -1.447 0.017 -0.004 0.035 -0.01 0.053 -0.013 0.071 -0.017 0.087 -0.02 0.102 -0.023 0.118 -0.024 0.132 -0.026 0.142 -0.026 0.156 -0.027 0.165 -0.025 0.175 -0.025 0.185 -0.022 0.192 -0.02 0.199 -0.017 0.205 -0.013 0.21 -0.008 0.215 -0.003 0.219 0.003 0.221 0.01 0.223 0.018 0.224 0.027 0.226 0.036 0.225 0.047 0.224 0.059 0.222 0.073 0.219 0.087 0.215 0.105 0.21 0.123 0.2 0.142 0.191 0.164 0.175 0.185 0 0zm1.564 6.867l-1.455 -0.364 0 0 0.018 -0.082 0.016 -0.102 0.015 -0.118 0.011 -0.132 0.008 -0.146 0.003 -0.157 0 -0.168 -0.005 -0.176 -0.009 -0.184 -0.013 -0.192 -0.017 -0.197 -0.022 -0.202 -0.026 -0.207 -0.031 -0.209 -0.035 -0.212 -0.039 -0.212 -0.043 -0.213 -0.048 -0.212 -0.051 -0.212 -0.056 -0.208 -0.06 -0.206 -0.064 -0.201 -0.067 -0.197 -0.071 -0.19 -0.075 -0.183 -0.077 -0.176 -0.081 -0.166 -0.083 -0.157 -0.085 -0.145 -0.086 -0.135 -0.088 -0.121 -0.087 -0.109 1.139 -0.976 0.143 0.177 0.133 0.186 0.125 0.193 0.117 0.201 0.111 0.208 0.103 0.214 0.097 0.22 0.092 0.224 0.085 0.229 0.08 0.233 0.075 0.235 0.069 0.238 0.064 0.24 0.059 0.241 0.054 0.241 0.049 0.242 0.044 0.241 0.04 0.238 0.034 0.237 0.03 0.234 0.025 0.23 0.02 0.226 0.015 0.222 0.01 0.216 0.006 0.211 0 0.204 -0.004 0.198 -0.01 0.191 -0.016 0.184 -0.021 0.176 -0.028 0.171 -0.037 0.166 0 0zm-14.125 -1.799l0.656 -1.349 0 0 0.363 0.17 0.392 0.169 0.418 0.168 0.441 0.166 0.46 0.162 0.478 0.16 0.492 0.155 0.505 0.151 0.513 0.145 0.521 0.14 0.525 0.133 0.526 0.126 0.526 0.119 0.522 0.112 0.516 0.103 0.507 0.094 0.497 0.085 0.482 0.075 0.466 0.065 0.446 0.054 0.425 0.044 0.399 0.032 0.37 0.02 0.339 0.008 0.303 -0.004 0.261 -0.016 0.214 -0.025 0.158 -0.032 0.09 -0.029 0.008 -0.002 -0.07 0.069 -0.079 0.167 1.455 0.364 -0.186 0.384 -0.272 0.254 -0.284 0.151 -0.286 0.094 -0.299 0.061 -0.317 0.039 -0.341 0.02 -0.364 0.005 -0.389 -0.009 -0.412 -0.023 -0.435 -0.034 -0.455 -0.047 -0.474 -0.057 -0.491 -0.069 -0.505 -0.079 -0.517 -0.088 -0.528 -0.098 -0.535 -0.107 -0.541 -0.116 -0.545 -0.123 -0.545 -0.131 -0.544 -0.138 -0.54 -0.145 -0.534 -0.151 -0.525 -0.156 -0.516 -0.163 -0.502 -0.168 -0.487 -0.172 -0.47 -0.177 -0.451 -0.181 -0.43 -0.186 -0.405 -0.189 0 0zm-15.07 -15.074l1.426 -0.465 0 0 0.315 0.908 0.336 0.864 0.357 0.822 0.374 0.781 0.392 0.741 0.408 0.702 0.422 0.666 0.436 0.631 0.447 0.597 0.459 0.564 0.468 0.534 0.476 0.504 0.484 0.476 0.489 0.448 0.494 0.424 0.498 0.398 0.5 0.377 0.502 0.354 0.501 0.334 0.499 0.315 0.497 0.297 0.494 0.28 0.488 0.265 0.482 0.251 0.474 0.238 0.465 0.226 0.456 0.216 0.444 0.208 0.433 0.2 0.418 0.194 0.404 0.189 0.388 0.186 -0.656 1.349 -0.374 -0.179 -0.396 -0.186 -0.415 -0.192 -0.434 -0.201 -0.451 -0.21 -0.466 -0.222 -0.481 -0.234 -0.492 -0.247 -0.503 -0.262 -0.513 -0.278 -0.52 -0.295 -0.526 -0.315 -0.532 -0.335 -0.534 -0.356 -0.536 -0.378 -0.536 -0.404 -0.535 -0.429 -0.532 -0.455 -0.528 -0.484 -0.521 -0.513 -0.515 -0.544 -0.505 -0.576 -0.494 -0.609 -0.483 -0.644 -0.469 -0.679 -0.454 -0.716 -0.437 -0.754 -0.419 -0.792 -0.4 -0.833 -0.379 -0.875 -0.357 -0.917 -0.333 -0.96 0 0zm19.86 -20.759l0.239 1.48 0 0 -0.946 0.17 -0.956 0.205 -0.962 0.24 -0.964 0.273 -0.964 0.307 -0.959 0.338 -0.951 0.371 -0.941 0.4 -0.926 0.431 -0.909 0.46 -0.888 0.488 -0.863 0.516 -0.836 0.541 -0.805 0.568 -0.771 0.591 -0.733 0.615 -0.693 0.638 -0.649 0.659 -0.603 0.679 -0.552 0.698 -0.501 0.716 -0.445 0.734 -0.387 0.749 -0.327 0.765 -0.264 0.779 -0.2 0.794 -0.131 0.809 -0.062 0.823 0.011 0.839 0.087 0.856 0.166 0.872 0.251 0.89 -1.426 0.465 -0.284 -1.01 -0.191 -0.999 -0.101 -0.987 -0.013 -0.972 0.072 -0.954 0.152 -0.935 0.23 -0.915 0.302 -0.892 0.371 -0.868 0.436 -0.844 0.497 -0.818 0.553 -0.793 0.607 -0.766 0.657 -0.74 0.702 -0.713 0.745 -0.686 0.785 -0.658 0.82 -0.63 0.854 -0.601 0.883 -0.573 0.91 -0.543 0.934 -0.514 0.953 -0.482 0.971 -0.452 0.985 -0.419 0.996 -0.388 1.004 -0.355 1.009 -0.32 1.01 -0.287 1.009 -0.251 1.004 -0.216 0.998 -0.178 0 0zm32.669 7.344l-0.948 1.163 0 0 -0.886 -0.697 -0.899 -0.658 -0.912 -0.621 -0.926 -0.584 -0.936 -0.549 -0.948 -0.514 -0.959 -0.479 -0.967 -0.446 -0.977 -0.412 -0.985 -0.381 -0.991 -0.349 -0.999 -0.319 -1.004 -0.289 -1.009 -0.259 -1.013 -0.231 -1.017 -0.203 -1.019 -0.176 -1.021 -0.149 -1.022 -0.123 -1.022 -0.099 -1.021 -0.074 -1.02 -0.051 -1.017 -0.027 -1.014 -0.006 -1.01 0.016 -1.005 0.037 -1 0.057 -0.993 0.076 -0.986 0.095 -0.977 0.113 -0.969 0.129 -0.958 0.146 -0.239 -1.48 0.985 -0.151 0.995 -0.133 1.006 -0.116 1.014 -0.097 1.022 -0.079 1.03 -0.058 1.036 -0.038 1.041 -0.017 1.047 0.006 1.05 0.028 1.054 0.053 1.056 0.076 1.057 0.102 1.058 0.128 1.059 0.155 1.057 0.182 1.056 0.211 1.053 0.24 1.05 0.27 1.046 0.301 1.04 0.331 1.034 0.365 1.028 0.397 1.02 0.431 1.011 0.466 1.002 0.501 0.991 0.537 0.98 0.574 0.968 0.612 0.955 0.65 0.942 0.689 0.926 0.728 0 0zm4.851 18.596l-1.174 -0.934 0 0 0.132 -0.175 0.143 -0.211 0.15 -0.242 0.153 -0.273 0.153 -0.303 0.15 -0.33 0.146 -0.356 0.137 -0.381 0.126 -0.405 0.114 -0.429 0.098 -0.449 0.079 -0.471 0.059 -0.49 0.036 -0.509 0.009 -0.526 -0.018 -0.544 -0.048 -0.56 -0.082 -0.575 -0.118 -0.59 -0.156 -0.604 -0.197 -0.618 -0.241 -0.63 -0.287 -0.643 -0.337 -0.653 -0.39 -0.664 -0.444 -0.674 -0.503 -0.683 -0.564 -0.691 -0.628 -0.697 -0.695 -0.704 -0.765 -0.707 -0.837 -0.712 0.948 -1.163 0.884 0.752 0.813 0.752 0.743 0.752 0.675 0.75 0.611 0.748 0.548 0.744 0.488 0.739 0.43 0.734 0.375 0.727 0.321 0.718 0.271 0.709 0.223 0.697 0.176 0.686 0.135 0.672 0.093 0.657 0.056 0.641 0.021 0.622 -0.012 0.604 -0.041 0.584 -0.067 0.563 -0.092 0.54 -0.112 0.517 -0.13 0.492 -0.146 0.467 -0.158 0.442 -0.169 0.413 -0.176 0.386 -0.181 0.357 -0.183 0.328 -0.184 0.297 -0.182 0.268 -0.179 0.238 0 0zm-11.416 9.664l-0.733 -1.309 0 0 0.236 -0.137 0.264 -0.164 0.29 -0.19 0.312 -0.213 0.332 -0.234 0.351 -0.254 0.367 -0.272 0.38 -0.287 0.393 -0.303 0.402 -0.315 0.411 -0.326 0.417 -0.336 0.421 -0.344 0.424 -0.351 0.425 -0.355 0.424 -0.359 0.421 -0.36 0.416 -0.361 0.41 -0.358 0.401 -0.356 0.392 -0.351 0.379 -0.345 0.365 -0.337 0.35 -0.327 0.332 -0.316 0.312 -0.303 0.291 -0.288 0.268 -0.272 0.242 -0.253 0.214 -0.232 0.183 -0.208 0.15 -0.182 1.174 0.934 -0.183 0.222 -0.21 0.239 -0.235 0.254 -0.259 0.271 -0.281 0.286 -0.304 0.301 -0.323 0.313 -0.341 0.325 -0.359 0.335 -0.373 0.345 -0.387 0.351 -0.398 0.357 -0.408 0.362 -0.417 0.365 -0.422 0.366 -0.428 0.366 -0.43 0.364 -0.431 0.36 -0.431 0.357 -0.429 0.35 -0.425 0.342 -0.419 0.333 -0.411 0.322 -0.403 0.31 -0.391 0.296 -0.379 0.281 -0.366 0.264 -0.349 0.247 -0.334 0.227 -0.315 0.207 -0.297 0.184 -0.278 0.162 0 0zm-13.734 12.31l-1.174 -0.934 0 0 0.363 -0.446 0.384 -0.455 0.404 -0.463 0.422 -0.468 0.438 -0.473 0.453 -0.478 0.467 -0.48 0.478 -0.482 0.489 -0.482 0.496 -0.482 0.504 -0.48 0.509 -0.477 0.512 -0.472 0.515 -0.467 0.514 -0.46 0.513 -0.453 0.51 -0.443 0.505 -0.432 0.499 -0.421 0.491 -0.408 0.481 -0.394 0.471 -0.379 0.457 -0.362 0.443 -0.344 0.427 -0.325 0.41 -0.306 0.39 -0.284 0.371 -0.262 0.349 -0.239 0.326 -0.214 0.304 -0.19 0.28 -0.164 0.733 1.309 -0.237 0.139 -0.27 0.168 -0.3 0.198 -0.328 0.224 -0.353 0.25 -0.376 0.273 -0.396 0.295 -0.415 0.317 -0.432 0.336 -0.447 0.354 -0.461 0.371 -0.472 0.386 -0.483 0.401 -0.49 0.414 -0.497 0.425 -0.502 0.436 -0.505 0.446 -0.506 0.452 -0.506 0.459 -0.503 0.465 -0.5 0.468 -0.495 0.471 -0.487 0.473 -0.478 0.472 -0.468 0.471 -0.455 0.469 -0.441 0.464 -0.425 0.459 -0.407 0.453 -0.388 0.443 -0.367 0.435 -0.344 0.423 0 0zm-2.682 16.911l-1.227 0.862 0 0 -0.334 -0.513 -0.296 -0.532 -0.259 -0.55 -0.223 -0.565 -0.189 -0.578 -0.155 -0.591 -0.123 -0.602 -0.091 -0.61 -0.062 -0.619 -0.033 -0.624 -0.006 -0.63 0.021 -0.634 0.046 -0.637 0.071 -0.638 0.093 -0.638 0.116 -0.638 0.138 -0.636 0.157 -0.632 0.178 -0.628 0.196 -0.623 0.213 -0.615 0.231 -0.608 0.246 -0.598 0.261 -0.588 0.276 -0.576 0.289 -0.563 0.302 -0.549 0.314 -0.534 0.325 -0.518 0.335 -0.499 0.344 -0.481 0.354 -0.46 1.174 0.934 -0.323 0.42 -0.317 0.442 -0.309 0.461 -0.301 0.479 -0.291 0.497 -0.282 0.512 -0.27 0.525 -0.257 0.539 -0.245 0.549 -0.23 0.56 -0.216 0.568 -0.199 0.574 -0.183 0.581 -0.165 0.585 -0.146 0.587 -0.128 0.588 -0.107 0.588 -0.086 0.586 -0.064 0.584 -0.042 0.579 -0.019 0.573 0.005 0.566 0.03 0.556 0.054 0.547 0.081 0.535 0.106 0.522 0.134 0.509 0.16 0.494 0.189 0.477 0.217 0.461 0.246 0.442 0.276 0.425 0 0zm12.6 -10.303l1.483 0.225 0 0 -0.131 0.699 -0.18 0.703 -0.226 0.702 -0.268 0.7 -0.308 0.696 -0.345 0.689 -0.378 0.681 -0.41 0.669 -0.438 0.656 -0.465 0.639 -0.488 0.622 -0.508 0.599 -0.528 0.576 -0.544 0.55 -0.558 0.521 -0.569 0.489 -0.579 0.454 -0.587 0.418 -0.592 0.378 -0.595 0.335 -0.599 0.289 -0.599 0.24 -0.598 0.187 -0.598 0.129 -0.594 0.066 -0.589 -0.003 -0.579 -0.08 -0.561 -0.161 -0.536 -0.248 -0.5 -0.335 -0.456 -0.419 -0.404 -0.501 1.227 -0.862 0.274 0.339 0.29 0.267 0.304 0.204 0.323 0.149 0.348 0.099 0.374 0.051 0.404 0.002 0.432 -0.048 0.457 -0.099 0.478 -0.15 0.497 -0.199 0.509 -0.246 0.519 -0.292 0.525 -0.335 0.527 -0.375 0.525 -0.413 0.521 -0.448 0.514 -0.479 0.502 -0.508 0.489 -0.534 0.473 -0.556 0.453 -0.577 0.43 -0.593 0.406 -0.606 0.377 -0.617 0.347 -0.625 0.315 -0.628 0.278 -0.629 0.24 -0.627 0.2 -0.621 0.157 -0.611 0.112 -0.598 0 0zm0.417 -15.294l1.483 -0.222 0 0 0.058 0.399 0.054 0.401 0.05 0.404 0.047 0.407 0.042 0.411 0.037 0.415 0.034 0.418 0.03 0.424 0.025 0.427 0.021 0.434 0.016 0.439 0.011 0.445 0.008 0.451 0.002 0.458 -0.003 0.465 -0.007 0.472 -0.013 0.48 -0.017 0.488 -0.023 0.497 -0.027 0.506 -0.033 0.515 -0.039 0.525 -0.043 0.534 -0.049 0.545 -0.055 0.556 -0.06 0.567 -0.066 0.578 -0.071 0.591 -0.078 0.603 -0.083 0.615 -0.089 0.629 -0.096 0.642 -1.483 -0.225 0.094 -0.633 0.088 -0.619 0.082 -0.605 0.076 -0.593 0.07 -0.58 0.065 -0.567 0.059 -0.556 0.053 -0.544 0.048 -0.532 0.043 -0.522 0.037 -0.512 0.032 -0.501 0.027 -0.492 0.022 -0.483 0.017 -0.473 0.012 -0.465 0.007 -0.457 0.003 -0.45 -0.002 -0.442 -0.007 -0.435 -0.011 -0.429 -0.016 -0.423 -0.02 -0.417 -0.024 -0.412 -0.029 -0.406 -0.032 -0.403 -0.037 -0.398 -0.04 -0.394 -0.045 -0.392 -0.047 -0.389 -0.053 -0.386 -0.055 -0.384 0 0zm-0.478 -17.555l1.5 0 0 0 0 0.306 -0.001 0.345 -0.002 0.382 -0.002 0.417 -0.003 0.449 -0.002 0.479 -0.002 0.507 -0.002 0.531 -0.002 0.555 -0.001 0.575 0 0.592 0.001 0.608 0.002 0.621 0.003 0.632 0.005 0.64 0.007 0.645 0.008 0.648 0.01 0.649 0.012 0.647 0.015 0.643 0.018 0.637 0.019 0.627 0.023 0.615 0.026 0.601 0.029 0.584 0.032 0.565 0.035 0.543 0.04 0.519 0.042 0.491 0.047 0.461 0.05 0.427 0.054 0.392 -1.483 0.222 -0.059 -0.424 -0.053 -0.455 -0.049 -0.483 -0.044 -0.51 -0.041 -0.534 -0.036 -0.557 -0.033 -0.577 -0.03 -0.595 -0.026 -0.61 -0.023 -0.624 -0.02 -0.634 -0.017 -0.643 -0.015 -0.649 -0.013 -0.653 -0.01 -0.654 -0.008 -0.652 -0.007 -0.649 -0.005 -0.643 -0.003 -0.635 -0.002 -0.624 -0.001 -0.611 0 -0.594 0.001 -0.578 0.002 -0.556 0.002 -0.533 0.002 -0.507 0.002 -0.48 0.003 -0.449 0.002 -0.416 0.001 -0.381 0.002 -0.343 0 -0.302 0 0zm0 -13.175l1.5 0 0 0.03 0 0.085 0 0.139 0 0.189 0 0.235 0 0.279 0 0.32 0 0.357 0 0.391 0 0.423 0 0.45 0 0.474 0 0.497 0 0.515 0 0.529 0 0.542 0 0.551 0 0.556 0 0.559 0 0.558 0 0.554 0 0.548 0 0.537 0 0.524 0 0.508 0 0.488 0 0.465 0 0.439 0 0.41 0 0.377 0 0.342 0 0.304 -1.5 0 0 -0.304 0 -0.342 0 -0.377 0 -0.41 0 -0.439 0 -0.465 0 -0.488 0 -0.508 0 -0.524 0 -0.537 0 -0.547 0 -0.555 0 -0.558 0 -0.559 0 -0.556 0 -0.551 0 -0.542 0 -0.529 0 -0.515 0 -0.497 0 -0.474 0 -0.45 0 -0.423 0 -0.391 0 -0.357 0 -0.32 0 -0.279 0 -0.235 0 -0.189 0 -0.139 0 -0.085 0 -0.03zm0 0c0,-0.414 0.336,-0.75 0.75,-0.75 0.414,0 0.75,0.336 0.75,0.75l-1.5 0z"/>
   </g>
   <g>
    <path class="fil0" d="M107.575 53.818c-0.06,0.41 -0.441,0.693 -0.851,0.634 -0.409,-0.06 -0.693,-0.441 -0.633,-0.851l1.484 0.217zm0.034 -9.376l1.468 0.31 0 0 -0.053 0.259 -0.056 0.279 -0.058 0.297 -0.059 0.315 -0.06 0.33 -0.061 0.342 -0.062 0.354 -0.063 0.362 -0.063 0.369 -0.063 0.375 -0.063 0.378 -0.062 0.379 -0.062 0.379 -0.06 0.377 -0.06 0.372 -0.058 0.366 -0.056 0.359 -0.055 0.349 -0.052 0.337 -0.05 0.324 -0.047 0.309 -0.045 0.291 -0.041 0.273 -0.038 0.251 -0.034 0.229 -0.031 0.205 -0.026 0.178 -0.023 0.149 -0.017 0.119 -0.013 0.087 -0.008 0.056 -0.003 0.017 -1.484 -0.217 0.003 -0.02 0.008 -0.052 0.012 -0.089 0.018 -0.122 0.023 -0.15 0.027 -0.178 0.03 -0.205 0.035 -0.23 0.038 -0.253 0.041 -0.273 0.045 -0.293 0.048 -0.309 0.049 -0.326 0.053 -0.339 0.055 -0.35 0.056 -0.36 0.059 -0.369 0.059 -0.374 0.061 -0.379 0.062 -0.381 0.063 -0.382 0.063 -0.38 0.064 -0.378 0.063 -0.373 0.064 -0.366 0.063 -0.358 0.062 -0.348 0.061 -0.335 0.061 -0.322 0.059 -0.306 0.057 -0.289 0.056 -0.271 0 0.001zm6.897 -3.197l-0.557 1.393 0 0 -0.075 -0.026 -0.098 -0.027 -0.118 -0.025 -0.134 -0.022 -0.149 -0.017 -0.162 -0.011 -0.174 -0.005 -0.183 0.001 -0.189 0.008 -0.197 0.014 -0.202 0.022 -0.204 0.03 -0.207 0.036 -0.207 0.045 -0.207 0.052 -0.205 0.061 -0.202 0.068 -0.197 0.076 -0.191 0.083 -0.185 0.092 -0.176 0.099 -0.168 0.106 -0.157 0.113 -0.147 0.12 -0.136 0.126 -0.123 0.133 -0.111 0.14 -0.099 0.147 -0.087 0.154 -0.073 0.163 -0.062 0.174 -0.047 0.184 -1.468 -0.31 0.08 -0.31 0.104 -0.296 0.127 -0.281 0.148 -0.264 0.167 -0.247 0.183 -0.231 0.198 -0.214 0.212 -0.197 0.221 -0.182 0.231 -0.165 0.238 -0.151 0.246 -0.138 0.25 -0.124 0.255 -0.112 0.257 -0.099 0.26 -0.088 0.26 -0.076 0.261 -0.066 0.26 -0.057 0.259 -0.046 0.255 -0.036 0.251 -0.028 0.248 -0.018 0.242 -0.01 0.237 -0.001 0.228 0.007 0.222 0.016 0.216 0.024 0.207 0.033 0.198 0.042 0.191 0.053 0.185 0.065 0 0zm0.229 9.875l-1.432 -0.445 0 0 0.063 -0.213 0.064 -0.236 0.065 -0.256 0.064 -0.274 0.063 -0.291 0.063 -0.304 0.06 -0.317 0.058 -0.328 0.055 -0.336 0.052 -0.342 0.049 -0.347 0.045 -0.35 0.041 -0.351 0.035 -0.351 0.031 -0.349 0.025 -0.343 0.02 -0.337 0.013 -0.329 0.007 -0.32 0 -0.306 -0.007 -0.292 -0.015 -0.274 -0.021 -0.257 -0.029 -0.234 -0.035 -0.208 -0.041 -0.18 -0.044 -0.146 -0.043 -0.11 -0.036 -0.068 -0.017 -0.024 0.013 0.01 0.048 0.026 0.557 -1.393 0.28 0.156 0.221 0.202 0.169 0.225 0.127 0.237 0.099 0.247 0.078 0.259 0.061 0.27 0.048 0.283 0.036 0.295 0.026 0.307 0.017 0.321 0.008 0.33 0 0.341 -0.008 0.348 -0.014 0.357 -0.021 0.362 -0.027 0.367 -0.032 0.369 -0.038 0.371 -0.043 0.37 -0.047 0.368 -0.051 0.365 -0.055 0.361 -0.059 0.353 -0.061 0.346 -0.064 0.335 -0.066 0.325 -0.068 0.312 -0.069 0.298 -0.072 0.282 -0.072 0.265 -0.074 0.248 0 0zm-4.085 0.945l1.427 -0.46 0 0 0.038 0.107 0.04 0.096 0.04 0.082 0.039 0.068 0.037 0.056 0.035 0.043 0.03 0.031 0.024 0.022 0.018 0.012 0.011 0.007 0.006 0.002 0 0.001 -0.002 -0.001 0 0 0.005 0 0.012 -0.003 0.019 -0.006 0.027 -0.013 0.036 -0.021 0.045 -0.032 0.051 -0.043 0.056 -0.055 0.061 -0.067 0.064 -0.081 0.067 -0.094 0.068 -0.107 0.068 -0.122 0.069 -0.136 0.068 -0.148 0.067 -0.163 0.064 -0.176 0.063 -0.189 1.432 0.445 -0.078 0.238 -0.083 0.226 -0.088 0.214 -0.093 0.204 -0.098 0.192 -0.103 0.183 -0.108 0.171 -0.114 0.161 -0.119 0.15 -0.126 0.139 -0.131 0.128 -0.14 0.117 -0.146 0.104 -0.156 0.091 -0.164 0.075 -0.172 0.059 -0.178 0.039 -0.183 0.019 -0.186 -0.004 -0.184 -0.027 -0.179 -0.049 -0.169 -0.07 -0.159 -0.088 -0.148 -0.105 -0.134 -0.117 -0.123 -0.13 -0.112 -0.14 -0.101 -0.15 -0.091 -0.159 -0.082 -0.167 -0.073 -0.175 -0.064 -0.184 0 0zm-1.232 -11.373l1.496 -0.106 0.002 0.028 0.005 0.079 0.01 0.13 0.013 0.176 0.016 0.219 0.02 0.26 0.022 0.296 0.025 0.33 0.028 0.36 0.031 0.387 0.033 0.411 0.036 0.432 0.038 0.45 0.039 0.463 0.041 0.475 0.043 0.482 0.045 0.487 0.046 0.489 0.047 0.486 0.048 0.481 0.049 0.473 0.05 0.461 0.05 0.446 0.05 0.427 0.051 0.405 0.05 0.381 0.051 0.351 0.049 0.318 0.049 0.28 0.047 0.239 0.043 0.188 0.036 0.129 -1.427 0.46 -0.063 -0.22 -0.057 -0.247 -0.054 -0.277 -0.054 -0.309 -0.053 -0.34 -0.053 -0.367 -0.052 -0.394 -0.052 -0.416 -0.052 -0.437 -0.05 -0.453 -0.051 -0.467 -0.05 -0.479 -0.048 -0.486 -0.048 -0.491 -0.046 -0.492 -0.045 -0.491 -0.043 -0.485 -0.042 -0.478 -0.039 -0.466 -0.038 -0.452 -0.036 -0.434 -0.033 -0.414 -0.031 -0.388 -0.028 -0.363 -0.026 -0.331 -0.022 -0.297 -0.02 -0.261 -0.016 -0.221 -0.013 -0.177 -0.01 -0.13 -0.005 -0.082 -0.002 -0.028zm0 0c-0.03,-0.413 0.282,-0.772 0.695,-0.801 0.413,-0.029 0.771,0.282 0.801,0.695l-1.496 0.106z"/>
   </g>
   <g>
    <path class="fil0" d="M95.552 47.977c-0.4,-0.105 -0.64,-0.515 -0.535,-0.915 0.105,-0.401 0.515,-0.64 0.916,-0.535l-0.381 1.45zm4.172 -2.217l1.2 0.901 0 -0.001 -0.175 0.215 -0.187 0.196 -0.197 0.176 -0.207 0.158 -0.214 0.141 -0.219 0.122 -0.222 0.107 -0.224 0.091 -0.226 0.078 -0.225 0.064 -0.224 0.053 -0.223 0.042 -0.219 0.033 -0.217 0.024 -0.212 0.015 -0.207 0.009 -0.2 0.003 -0.194 -0.003 -0.188 -0.008 -0.179 -0.011 -0.169 -0.015 -0.16 -0.017 -0.15 -0.019 -0.139 -0.02 -0.125 -0.02 -0.112 -0.02 -0.101 -0.019 -0.084 -0.017 -0.068 -0.015 -0.052 -0.012 -0.031 -0.008 -0.022 -0.006 0.381 -1.45 -0.004 -0.002 0.022 0.006 0.036 0.008 0.051 0.011 0.065 0.014 0.077 0.015 0.091 0.016 0.103 0.016 0.112 0.017 0.121 0.015 0.132 0.014 0.139 0.012 0.144 0.009 0.15 0.006 0.155 0.002 0.159 -0.002 0.161 -0.006 0.161 -0.012 0.163 -0.018 0.161 -0.024 0.16 -0.03 0.157 -0.037 0.154 -0.044 0.149 -0.051 0.144 -0.059 0.138 -0.066 0.131 -0.074 0.125 -0.081 0.118 -0.091 0.112 -0.099 0.105 -0.11 0.099 -0.121 0 -0.001zm-0.045 -0.657l-1 -1.118 0 0 0.136 -0.113 0.142 -0.101 0.146 -0.089 0.15 -0.077 0.154 -0.065 0.156 -0.052 0.159 -0.039 0.161 -0.026 0.161 -0.013 0.164 0.002 0.163 0.017 0.161 0.032 0.161 0.05 0.157 0.07 0.149 0.087 0.142 0.108 0.129 0.127 0.112 0.144 0.095 0.161 0.072 0.172 0.05 0.179 0.029 0.187 0.007 0.187 -0.012 0.188 -0.031 0.188 -0.047 0.189 -0.064 0.189 -0.08 0.191 -0.096 0.192 -0.11 0.194 -0.127 0.196 -0.144 0.201 -1.2 -0.901 0.104 -0.144 0.085 -0.133 0.07 -0.122 0.055 -0.11 0.04 -0.096 0.028 -0.083 0.018 -0.069 0.008 -0.054 0.003 -0.039 -0.001 -0.026 -0.001 -0.01 -0.001 -0.001 0.002 0.005 0.007 0.011 0.008 0.011 0.01 0.009 0.007 0.006 0.003 0.002 0 0 -0.007 -0.002 -0.017 -0.003 -0.021 -0.002 -0.027 -0.001 -0.034 0.003 -0.039 0.006 -0.043 0.011 -0.046 0.016 -0.049 0.02 -0.05 0.026 -0.053 0.031 -0.051 0.038 -0.053 0.043 0 0zm-0.739 1.888l-1.501 0 0 -0.016 0.001 -0.02 0.001 -0.028 0.001 -0.036 0.002 -0.048 0.004 -0.055 0.004 -0.06 0.006 -0.067 0.008 -0.074 0.01 -0.08 0.011 -0.085 0.014 -0.092 0.017 -0.096 0.019 -0.1 0.022 -0.105 0.026 -0.109 0.029 -0.113 0.033 -0.116 0.037 -0.117 0.041 -0.119 0.046 -0.123 0.051 -0.124 0.056 -0.125 0.062 -0.126 0.068 -0.126 0.074 -0.126 0.08 -0.125 0.089 -0.125 0.095 -0.121 0.102 -0.12 0.112 -0.117 0.119 -0.112 1 1.118 -0.061 0.058 -0.057 0.06 -0.055 0.064 -0.053 0.067 -0.048 0.068 -0.046 0.072 -0.044 0.075 -0.041 0.076 -0.038 0.077 -0.036 0.08 -0.033 0.08 -0.03 0.08 -0.028 0.082 -0.025 0.081 -0.023 0.079 -0.02 0.078 -0.018 0.076 -0.015 0.074 -0.014 0.072 -0.012 0.069 -0.01 0.064 -0.008 0.062 -0.007 0.057 -0.005 0.052 -0.005 0.047 -0.003 0.042 -0.002 0.032 -0.001 0.027 -0.001 0.023 0 0.015 0 0.007 0 -0.008zm0 0c0,0.415 -0.336,0.75 -0.75,0.75 -0.415,0 -0.751,-0.335 -0.751,-0.75l1.501 0z"/>
   </g>
   <g>
    <path class="fil0" d="M91.415 53.577c0.381,-0.161 0.821,0.018 0.982,0.4 0.161,0.381 -0.017,0.821 -0.399,0.982l-0.583 -1.382zm-0.105 0.976l-0.692 1.331 0 0 -0.127 -0.075 -0.127 -0.097 -0.121 -0.126 -0.106 -0.161 -0.075 -0.193 -0.03 -0.204 0.013 -0.192 0.043 -0.165 0.06 -0.137 0.069 -0.114 0.071 -0.095 0.071 -0.079 0.072 -0.071 0.072 -0.064 0.07 -0.056 0.07 -0.052 0.072 -0.05 0.069 -0.045 0.067 -0.041 0.066 -0.04 0.064 -0.036 0.062 -0.034 0.058 -0.03 0.056 -0.029 0.053 -0.027 0.047 -0.022 0.042 -0.02 0.036 -0.017 0.03 -0.013 0.026 -0.012 0.016 -0.006 0.008 -0.004 0.583 1.382 0 0 -0.008 0.004 -0.011 0.005 -0.02 0.009 -0.026 0.012 -0.03 0.013 -0.034 0.017 -0.036 0.018 -0.038 0.02 -0.042 0.022 -0.042 0.023 -0.042 0.023 -0.041 0.025 -0.04 0.024 -0.037 0.024 -0.032 0.022 -0.028 0.022 -0.024 0.019 -0.015 0.013 -0.008 0.007 0 0 0.012 -0.016 0.021 -0.035 0.025 -0.057 0.022 -0.086 0.007 -0.114 -0.019 -0.127 -0.045 -0.117 -0.058 -0.087 -0.051 -0.054 -0.036 -0.027 -0.012 -0.008 0 0zm3.903 0.432l1.448 0.389 0 0 -0.229 0.381 -0.208 0.148 -0.161 0.07 -0.146 0.045 -0.143 0.034 -0.148 0.027 -0.157 0.024 -0.168 0.02 -0.177 0.019 -0.186 0.015 -0.195 0.014 -0.203 0.012 -0.208 0.009 -0.215 0.008 -0.218 0.005 -0.221 0.003 -0.223 0.001 -0.223 -0.001 -0.222 -0.003 -0.221 -0.005 -0.217 -0.008 -0.212 -0.009 -0.206 -0.012 -0.2 -0.015 -0.192 -0.017 -0.183 -0.019 -0.175 -0.023 -0.165 -0.026 -0.157 -0.031 -0.153 -0.037 -0.15 -0.049 -0.161 -0.07 0.692 -1.331 -0.013 -0.006 0.035 0.01 0.069 0.017 0.097 0.019 0.119 0.019 0.138 0.018 0.153 0.016 0.166 0.015 0.177 0.013 0.187 0.011 0.195 0.008 0.2 0.008 0.205 0.004 0.207 0.003 0.209 0.001 0.209 -0.001 0.207 -0.003 0.204 -0.005 0.198 -0.007 0.192 -0.009 0.183 -0.01 0.175 -0.012 0.162 -0.014 0.148 -0.015 0.133 -0.017 0.114 -0.017 0.092 -0.017 0.062 -0.014 0.023 -0.007 -0.032 0.015 -0.123 0.09 -0.188 0.319 0 0zm-0.003 -0.144l1.376 -0.598 0.004 0.011 0.002 0.003 0.008 0.021 0.004 0.009 0.006 0.016 0.007 0.019 0.006 0.017 0.009 0.028 0.006 0.018 0.008 0.028 0.008 0.031 0.006 0.023 0.008 0.03 0.008 0.034 0.007 0.036 0.006 0.033 0.007 0.037 0.006 0.041 0.005 0.04 0.004 0.04 0.004 0.045 0.003 0.047 0.001 0.044 0 0.047 -0.001 0.054 -0.003 0.051 -0.003 0.049 -0.006 0.054 -0.008 0.056 -0.011 0.056 -0.011 0.055 -0.015 0.058 -1.448 -0.389 0.001 -0.005 0.002 -0.008 0.001 -0.006 0 -0.004 0.001 -0.008 0.001 -0.009 0 -0.009 0 -0.002 0 -0.01 0 -0.011 0 -0.006 -0.001 -0.007 -0.001 -0.01 -0.001 -0.009 -0.001 -0.006 -0.001 -0.007 -0.002 -0.01 -0.001 -0.005 -0.002 -0.005 -0.001 -0.006 -0.003 -0.011 0 -0.001 -0.001 -0.001 -0.002 -0.008 0.001 0.004 -0.001 -0.004 0 0.001 0.001 0.002 -0.001 -0.003 0.005 0.013 -0.001 -0.003 0.004 0.01zm0 0c-0.165,-0.38 0.009,-0.822 0.389,-0.987 0.38,-0.165 0.822,0.009 0.987,0.389l-1.376 0.598z"/>
   </g>
   <g>
    <path class="fil0" d="M36.748 59.291c0.403,0.095 0.654,0.498 0.559,0.901 -0.094,0.404 -0.498,0.654 -0.901,0.56l0.342 -1.461zm-0.19 -1.988l0.247 1.48 0 0 -0.421 0.075 -0.362 0.076 -0.304 0.075 -0.247 0.072 -0.19 0.068 -0.132 0.058 -0.074 0.041 -0.013 0.009 0.04 -0.047 0.059 -0.125 0.021 -0.174 -0.032 -0.149 -0.04 -0.078 -0.015 -0.019 0.019 0.016 0.051 0.036 0.077 0.046 0.098 0.052 0.113 0.053 0.125 0.053 0.132 0.053 0.136 0.05 0.137 0.047 0.134 0.044 0.129 0.039 0.12 0.036 0.109 0.03 0.094 0.026 0.078 0.02 0.057 0.015 0.036 0.008 0.008 0.002 -0.342 1.461 -0.02 -0.005 -0.043 -0.011 -0.07 -0.017 -0.089 -0.023 -0.109 -0.03 -0.125 -0.035 -0.138 -0.041 -0.149 -0.046 -0.157 -0.051 -0.163 -0.056 -0.168 -0.062 -0.169 -0.066 -0.169 -0.073 -0.167 -0.079 -0.165 -0.087 -0.161 -0.098 -0.158 -0.112 -0.155 -0.137 -0.149 -0.177 -0.129 -0.238 -0.069 -0.312 0.04 -0.34 0.138 -0.291 0.188 -0.215 0.208 -0.16 0.224 -0.127 0.249 -0.11 0.281 -0.1 0.318 -0.093 0.361 -0.089 0.407 -0.085 0.46 -0.083 0 0zm54.846 -2.925l-0.096 1.498 -1.42 -0.076 -1.532 -0.054 -1.635 -0.033 -1.727 -0.014 -1.811 0.005 -1.885 0.022 -1.95 0.039 -2.004 0.055 -2.051 0.068 -2.087 0.082 -2.114 0.093 -2.132 0.104 -2.141 0.114 -2.141 0.122 -2.13 0.13 -2.112 0.136 -2.083 0.142 -2.046 0.145 -1.999 0.148 -1.943 0.151 -1.878 0.15 -1.804 0.151 -1.72 0.149 -1.627 0.146 -1.524 0.142 -1.413 0.137 -1.292 0.132 -1.162 0.124 -1.022 0.115 -0.871 0.106 -0.711 0.094 -0.536 0.082 -0.247 -1.48 0.573 -0.087 0.733 -0.097 0.885 -0.108 1.033 -0.116 1.17 -0.125 1.299 -0.132 1.419 -0.138 1.53 -0.143 1.632 -0.147 1.724 -0.149 1.808 -0.151 1.883 -0.151 1.947 -0.15 2.004 -0.149 2.051 -0.146 2.088 -0.141 2.117 -0.137 2.136 -0.13 2.146 -0.123 2.147 -0.114 2.139 -0.105 2.122 -0.093 2.095 -0.082 2.059 -0.069 2.015 -0.054 1.961 -0.04 1.898 -0.022 1.825 -0.005 1.745 0.013 1.655 0.034 1.557 0.055 1.45 0.077zm0 0c0.413,0.027 0.727,0.384 0.7,0.797 -0.026,0.413 -0.383,0.727 -0.796,0.701l0.096 -1.498z"/>
   </g>
   <g>
    <path class="fil0" d="M34.383 50.634c0.411,0.053 0.7,0.43 0.647,0.841 -0.054,0.41 -0.43,0.7 -0.841,0.647l0.194 -1.488zm2.233 -0.733l0.13 1.495 0 0 -0.423 0.038 -0.382 0.038 -0.342 0.036 -0.304 0.036 -0.269 0.035 -0.232 0.033 -0.198 0.032 -0.166 0.031 -0.133 0.028 -0.1 0.024 -0.066 0.019 -0.028 0.01 0.019 -0.009 0.078 -0.054 0.138 -0.163 0.099 -0.352 -0.087 -0.349 -0.133 -0.169 -0.087 -0.065 -0.037 -0.02 -0.005 -0.002 0.013 0.004 0.026 0.007 0.034 0.009 0.04 0.009 0.041 0.008 0.038 0.008 0.038 0.006 0.027 0.005 0.024 0.003 0.016 0.003 -0.002 -0.001 -0.194 1.488 -0.016 -0.003 -0.021 -0.003 -0.036 -0.005 -0.049 -0.008 -0.053 -0.009 -0.063 -0.012 -0.067 -0.014 -0.071 -0.016 -0.078 -0.02 -0.083 -0.024 -0.088 -0.03 -0.095 -0.039 -0.115 -0.06 -0.145 -0.107 -0.171 -0.215 -0.101 -0.396 0.114 -0.402 0.184 -0.215 0.159 -0.109 0.139 -0.066 0.134 -0.049 0.142 -0.042 0.157 -0.039 0.176 -0.037 0.2 -0.036 0.227 -0.037 0.256 -0.037 0.286 -0.037 0.321 -0.038 0.357 -0.038 0.394 -0.038 0.433 -0.04 0 0zm47.546 -0.835l0.015 1.5 -0.122 0.001 -0.359 0.003 -0.578 0.006 -0.785 0.008 -0.975 0.011 -1.152 0.012 -1.314 0.014 -1.461 0.016 -1.592 0.018 -1.71 0.02 -1.812 0.021 -1.901 0.024 -1.973 0.024 -2.032 0.026 -2.075 0.027 -2.104 0.029 -2.118 0.03 -2.117 0.031 -2.101 0.032 -2.072 0.033 -2.026 0.034 -1.966 0.035 -1.892 0.036 -1.802 0.036 -1.698 0.036 -1.579 0.038 -1.444 0.038 -1.296 0.038 -1.131 0.038 -0.952 0.039 -0.755 0.038 -0.537 0.038 -0.13 -1.495 0.579 -0.04 0.775 -0.039 0.964 -0.04 1.14 -0.038 1.301 -0.039 1.449 -0.038 1.582 -0.037 1.701 -0.037 1.804 -0.036 1.894 -0.036 1.967 -0.035 2.028 -0.034 2.072 -0.033 2.103 -0.032 2.118 -0.031 2.118 -0.03 2.105 -0.029 2.076 -0.027 2.032 -0.026 1.974 -0.025 1.901 -0.023 1.813 -0.021 1.71 -0.02 1.593 -0.018 1.461 -0.016 1.313 -0.014 1.153 -0.013 0.976 -0.01 0.785 -0.008 0.578 -0.006 0.358 -0.003 0.123 -0.001zm0 0c0.414,-0.004 0.754,0.328 0.758,0.742 0.004,0.414 -0.329,0.754 -0.743,0.758l-0.015 -1.5z"/>
   </g>
   <g>
    <path class="fil0" d="M105.094 44.728c-0.41,0.053 -0.787,-0.236 -0.84,-0.647 -0.053,-0.411 0.236,-0.787 0.647,-0.841l0.193 1.488zm61.107 -9.813l0.272 1.475 0 0 -0.784 0.136 -1.04 0.167 -1.28 0.196 -1.502 0.223 -1.707 0.247 -1.892 0.269 -2.06 0.29 -2.208 0.307 -2.338 0.322 -2.45 0.335 -2.542 0.346 -2.615 0.353 -2.671 0.36 -2.707 0.363 -2.725 0.364 -2.724 0.362 -2.704 0.36 -2.665 0.353 -2.608 0.344 -2.532 0.334 -2.437 0.321 -2.323 0.305 -2.192 0.288 -2.04 0.267 -1.87 0.244 -1.681 0.22 -1.475 0.193 -1.248 0.162 -1.004 0.131 -0.74 0.096 -0.458 0.06 -0.157 0.02 -0.193 -1.488 0.157 -0.02 0.458 -0.06 0.74 -0.096 1.003 -0.13 1.248 -0.163 1.474 -0.193 1.682 -0.219 1.87 -0.245 2.039 -0.267 2.192 -0.287 2.322 -0.305 2.437 -0.321 2.532 -0.334 2.607 -0.345 2.665 -0.352 2.703 -0.36 2.723 -0.362 2.725 -0.364 2.706 -0.363 2.67 -0.359 2.615 -0.354 2.54 -0.345 2.449 -0.335 2.336 -0.322 2.207 -0.307 2.057 -0.289 1.889 -0.269 1.702 -0.247 1.497 -0.222 1.271 -0.194 1.026 -0.164 0.758 -0.132 0 0zm9.848 -1.571l0.155 1.492 -0.009 0.001 -0.021 0.003 -0.043 0.004 -0.062 0.007 -0.079 0.01 -0.097 0.011 -0.116 0.014 -0.134 0.017 -0.154 0.02 -0.173 0.022 -0.19 0.025 -0.211 0.028 -0.23 0.032 -0.248 0.035 -0.269 0.038 -0.289 0.042 -0.308 0.046 -0.329 0.049 -0.348 0.053 -0.369 0.057 -0.389 0.061 -0.409 0.066 -0.43 0.07 -0.452 0.074 -0.471 0.079 -0.493 0.084 -0.515 0.088 -0.535 0.093 -0.556 0.099 -0.579 0.103 -0.601 0.109 -0.622 0.114 -0.272 -1.475 0.626 -0.115 0.603 -0.109 0.582 -0.104 0.56 -0.099 0.539 -0.094 0.517 -0.089 0.497 -0.084 0.475 -0.08 0.454 -0.074 0.434 -0.071 0.413 -0.066 0.393 -0.062 0.372 -0.058 0.352 -0.054 0.332 -0.049 0.312 -0.046 0.292 -0.043 0.272 -0.039 0.254 -0.035 0.233 -0.032 0.214 -0.029 0.196 -0.026 0.175 -0.023 0.157 -0.019 0.139 -0.018 0.12 -0.014 0.101 -0.012 0.083 -0.01 0.064 -0.007 0.046 -0.005 0.032 -0.004 0.009 -0.001zm0 0c0.412,-0.042 0.781,0.257 0.824,0.669 0.042,0.412 -0.257,0.781 -0.669,0.823l-0.155 -1.492z"/>
   </g>
   <g>
    <path class="fil0" d="M104.499 52.404c-0.394,0.127 -0.817,-0.089 -0.944,-0.483 -0.127,-0.394 0.09,-0.817 0.484,-0.944l0.46 1.427zm18.43 -4.271l0.171 1.491 0 0 -1.417 0.163 -1.347 0.16 -1.278 0.154 -1.21 0.151 -1.146 0.146 -1.081 0.141 -1.019 0.137 -0.959 0.132 -0.9 0.127 -0.843 0.122 -0.787 0.118 -0.733 0.112 -0.681 0.108 -0.631 0.102 -0.581 0.098 -0.535 0.092 -0.489 0.087 -0.444 0.082 -0.402 0.076 -0.362 0.071 -0.322 0.066 -0.285 0.059 -0.249 0.055 -0.215 0.048 -0.183 0.043 -0.151 0.037 -0.123 0.031 -0.094 0.025 -0.07 0.019 -0.045 0.013 -0.021 0.006 0.002 -0.001 -0.46 -1.427 0.021 -0.007 0.04 -0.012 0.06 -0.017 0.083 -0.023 0.11 -0.029 0.136 -0.034 0.164 -0.04 0.195 -0.046 0.227 -0.051 0.26 -0.057 0.295 -0.062 0.332 -0.067 0.371 -0.073 0.411 -0.078 0.453 -0.083 0.496 -0.088 0.542 -0.094 0.589 -0.099 0.637 -0.103 0.688 -0.109 0.739 -0.114 0.794 -0.118 0.848 -0.123 0.906 -0.128 0.964 -0.133 1.024 -0.137 1.086 -0.142 1.15 -0.147 1.216 -0.15 1.282 -0.156 1.35 -0.16 1.421 -0.164 0 0zm57.363 -3.337l0 1.5 0 0 -0.753 0.005 -0.907 0.013 -1.051 0.022 -1.186 0.03 -1.311 0.039 -1.43 0.046 -1.538 0.055 -1.638 0.061 -1.73 0.069 -1.813 0.076 -1.889 0.082 -1.954 0.089 -2.013 0.095 -2.062 0.101 -2.103 0.106 -2.135 0.112 -2.16 0.118 -2.175 0.122 -2.183 0.127 -2.181 0.131 -2.171 0.135 -2.153 0.139 -2.126 0.144 -2.091 0.146 -2.047 0.15 -1.995 0.152 -1.935 0.156 -1.865 0.157 -1.788 0.16 -1.701 0.162 -1.606 0.163 -1.502 0.165 -0.171 -1.491 1.516 -0.166 1.617 -0.164 1.71 -0.163 1.795 -0.16 1.872 -0.158 1.94 -0.156 2.001 -0.153 2.052 -0.15 2.095 -0.147 2.13 -0.143 2.157 -0.14 2.175 -0.135 2.184 -0.132 2.185 -0.127 2.178 -0.122 2.163 -0.118 2.138 -0.111 2.105 -0.108 2.065 -0.101 2.016 -0.095 1.957 -0.088 1.891 -0.083 1.816 -0.076 1.733 -0.069 1.642 -0.061 1.541 -0.055 1.434 -0.047 1.317 -0.038 1.192 -0.031 1.059 -0.022 0.918 -0.013 0.769 -0.005 0 0zm11.638 2.832l-0.364 -1.456 0 0 0.244 -0.067 0.165 -0.056 0.072 -0.032 -0.048 0.038 -0.158 0.261 0.035 0.472 0.157 0.202 0.033 0.024 -0.072 -0.028 -0.148 -0.044 -0.208 -0.048 -0.258 -0.05 -0.303 -0.049 -0.346 -0.048 -0.383 -0.046 -0.418 -0.044 -0.451 -0.042 -0.481 -0.04 -0.51 -0.037 -0.534 -0.035 -0.559 -0.032 -0.58 -0.029 -0.6 -0.027 -0.616 -0.025 -0.632 -0.022 -0.645 -0.019 -0.656 -0.016 -0.665 -0.013 -0.672 -0.01 -0.677 -0.008 -0.679 -0.004 -0.681 -0.002 0 -1.5 0.687 0.001 0.687 0.005 0.683 0.008 0.679 0.01 0.672 0.014 0.662 0.016 0.653 0.019 0.639 0.022 0.625 0.025 0.608 0.027 0.589 0.03 0.569 0.033 0.547 0.035 0.522 0.039 0.496 0.041 0.468 0.043 0.438 0.046 0.407 0.049 0.375 0.052 0.342 0.056 0.309 0.059 0.277 0.065 0.251 0.075 0.236 0.094 0.246 0.15 0.272 0.334 0.046 0.606 -0.252 0.4 -0.254 0.181 -0.249 0.115 -0.274 0.094 -0.318 0.088 0 0zm-5.027 0.958l-0.099 -1.497 -0.004 0 0.009 -0.001 0.021 -0.001 0.031 -0.003 0.037 -0.003 0.044 -0.005 0.057 -0.006 0.066 -0.007 0.073 -0.009 0.085 -0.01 0.094 -0.013 0.103 -0.013 0.113 -0.017 0.124 -0.018 0.132 -0.02 0.142 -0.022 0.153 -0.026 0.162 -0.027 0.171 -0.03 0.182 -0.033 0.191 -0.036 0.202 -0.039 0.212 -0.041 0.222 -0.046 0.232 -0.048 0.242 -0.052 0.252 -0.055 0.262 -0.06 0.272 -0.063 0.283 -0.067 0.294 -0.071 0.303 -0.075 0.364 1.456 -0.311 0.076 -0.3 0.073 -0.291 0.069 -0.28 0.065 -0.27 0.06 -0.26 0.058 -0.25 0.053 -0.239 0.05 -0.23 0.047 -0.219 0.044 -0.21 0.04 -0.199 0.037 -0.19 0.035 -0.18 0.032 -0.17 0.028 -0.16 0.027 -0.151 0.024 -0.141 0.021 -0.131 0.019 -0.122 0.017 -0.112 0.015 -0.102 0.014 -0.093 0.011 -0.084 0.01 -0.074 0.008 -0.063 0.007 -0.059 0.006 -0.046 0.004 -0.033 0.003 -0.025 0.002 -0.019 0.002 -0.013 0.001zm0 0c-0.413,0.027 -0.77,-0.286 -0.798,-0.699 -0.027,-0.413 0.285,-0.771 0.699,-0.798l0.099 1.497z"/>
   </g>
   <g>
    <path class="fil0" d="M174.78 26.028c0.081,0.407 -0.183,0.802 -0.589,0.883 -0.406,0.081 -0.802,-0.182 -0.883,-0.588l1.472 -0.295zm1.034 -2.685l0 1.5 -0.151 0.004 -0.132 0.013 -0.115 0.019 -0.099 0.025 -0.083 0.027 -0.07 0.03 -0.059 0.032 -0.049 0.032 -0.042 0.034 -0.037 0.036 -0.033 0.037 -0.03 0.041 -0.026 0.042 -0.025 0.047 -0.022 0.052 -0.019 0.052 -0.016 0.057 -0.014 0.059 -0.011 0.061 -0.009 0.06 -0.005 0.06 -0.003 0.06 -0.002 0.056 0.001 0.052 0.002 0.051 0.003 0.044 0.003 0.037 0.004 0.031 0.003 0.025 0.002 0.013 0.001 0.004 -0.001 -0.008 -1.472 0.295 -0.003 -0.02 -0.006 -0.031 -0.006 -0.043 -0.007 -0.051 -0.007 -0.063 -0.007 -0.075 -0.005 -0.082 -0.004 -0.089 -0.001 -0.101 0.003 -0.106 0.006 -0.112 0.012 -0.12 0.017 -0.126 0.024 -0.129 0.031 -0.135 0.041 -0.138 0.051 -0.142 0.062 -0.143 0.075 -0.143 0.088 -0.143 0.103 -0.139 0.118 -0.135 0.133 -0.127 0.149 -0.119 0.163 -0.107 0.176 -0.095 0.19 -0.081 0.2 -0.067 0.212 -0.052 0.221 -0.036 0.234 -0.023 0.243 -0.007zm0 0c0.415,0 0.751,0.336 0.751,0.75 0,0.414 -0.336,0.75 -0.751,0.75l0 -1.5z"/>
   </g>
  </g>
 </g>
</svg>
