<?xml version="1.0" encoding="UTF-8"?>
<!DOCTYPE svg PUBLIC "-//W3C//DTD SVG 1.1//EN" "http://www.w3.org/Graphics/SVG/1.1/DTD/svg11.dtd">
<!-- Creator: CorelDRAW 2019 (64-Bit) -->
<svg xmlns="http://www.w3.org/2000/svg" xml:space="preserve" width="200px" height="100px" version="1.1" style="shape-rendering:geometricPrecision; text-rendering:geometricPrecision; image-rendering:optimizeQuality; fill-rule:evenodd; clip-rule:evenodd"
viewBox="0 0 200 100"
 xmlns:xlink="http://www.w3.org/1999/xlink"
 xmlns:xodm="http://www.corel.com/coreldraw/odm/2003">
 <defs>
  <style type="text/css">
   <![CDATA[
    .fil0 {fill:black;fill-rule:nonzero}
   ]]>
  </style>
 </defs>
 <g id="Layer_x0020_1">
  <metadata id="CorelCorpID_0Corel-Layer"/>
  <g id="_2581027070928">
   <g>
    <path class="fil0" d="M27.731 47.76c-0.415,0.005 -0.755,-0.326 -0.76,-0.74 -0.005,-0.415 0.326,-0.755 0.74,-0.76l0.02 1.5zm21.361 -2.187l0.192 1.488 0 0 -0.397 0.045 -0.467 0.042 -0.536 0.041 -0.6 0.039 -0.658 0.038 -0.711 0.036 -0.759 0.034 -0.802 0.034 -0.837 0.031 -0.867 0.031 -0.893 0.029 -0.911 0.028 -0.924 0.026 -0.931 0.026 -0.933 0.023 -0.927 0.022 -0.917 0.022 -0.901 0.019 -0.878 0.019 -0.851 0.016 -0.815 0.016 -0.776 0.014 -0.73 0.013 -0.679 0.012 -0.62 0.01 -0.557 0.009 -0.487 0.007 -0.412 0.006 -0.332 0.005 -0.243 0.003 -0.15 0.002 -0.052 0.001 -0.02 -1.5 0.051 -0.001 0.151 -0.002 0.242 -0.003 0.33 -0.005 0.412 -0.006 0.487 -0.008 0.556 -0.008 0.62 -0.011 0.677 -0.011 0.729 -0.013 0.775 -0.014 0.814 -0.016 0.849 -0.016 0.877 -0.019 0.899 -0.019 0.915 -0.021 0.926 -0.022 0.931 -0.024 0.928 -0.025 0.922 -0.027 0.908 -0.027 0.889 -0.029 0.863 -0.031 0.833 -0.031 0.796 -0.034 0.752 -0.034 0.703 -0.035 0.647 -0.037 0.586 -0.038 0.517 -0.04 0.44 -0.04 0.356 -0.04 0 0zm24.396 -1.504l-0.126 1.495 -0.641 -0.046 -0.682 -0.035 -0.719 -0.023 -0.752 -0.013 -0.782 -0.002 -0.809 0.007 -0.832 0.016 -0.851 0.025 -0.869 0.033 -0.881 0.04 -0.892 0.046 -0.898 0.053 -0.902 0.059 -0.903 0.063 -0.899 0.067 -0.894 0.071 -0.885 0.075 -0.871 0.076 -0.857 0.079 -0.837 0.079 -0.815 0.08 -0.791 0.08 -0.761 0.08 -0.731 0.079 -0.696 0.076 -0.657 0.074 -0.617 0.071 -0.572 0.067 -0.525 0.063 -0.474 0.058 -0.42 0.053 -0.363 0.046 -0.192 -1.488 0.368 -0.047 0.423 -0.053 0.478 -0.058 0.528 -0.063 0.576 -0.068 0.62 -0.071 0.661 -0.075 0.7 -0.077 0.734 -0.079 0.767 -0.08 0.794 -0.08 0.821 -0.081 0.842 -0.08 0.861 -0.079 0.878 -0.077 0.891 -0.075 0.9 -0.072 0.907 -0.067 0.91 -0.064 0.91 -0.059 0.908 -0.053 0.902 -0.048 0.892 -0.04 0.88 -0.034 0.866 -0.025 0.847 -0.016 0.825 -0.008 0.802 0.003 0.774 0.013 0.744 0.024 0.712 0.037 0.675 0.048zm0 0c0.413,0.035 0.72,0.398 0.685,0.811 -0.035,0.413 -0.398,0.719 -0.811,0.684l0.126 -1.495z"/>
   </g>
   <g>
    <path class="fil0" d="M75.446 34.368c-0.348,0.224 -0.813,0.122 -1.036,-0.226 -0.223,-0.349 -0.122,-0.813 0.227,-1.037l0.809 1.263zm9.662 -3.215l-0.282 1.474 0 0 -0.476 -0.081 -0.47 -0.061 -0.464 -0.041 -0.458 -0.023 -0.45 -0.006 -0.443 0.009 -0.434 0.025 -0.426 0.038 -0.416 0.05 -0.405 0.061 -0.395 0.072 -0.383 0.08 -0.371 0.088 -0.358 0.095 -0.344 0.1 -0.329 0.104 -0.316 0.107 -0.298 0.109 -0.283 0.109 -0.265 0.108 -0.248 0.107 -0.229 0.104 -0.209 0.098 -0.191 0.094 -0.169 0.086 -0.148 0.079 -0.126 0.069 -0.104 0.059 -0.08 0.046 -0.055 0.034 -0.034 0.021 -0.003 0.001 -0.809 -1.263 0.023 -0.015 0.044 -0.026 0.072 -0.044 0.097 -0.056 0.12 -0.068 0.144 -0.079 0.167 -0.089 0.19 -0.096 0.21 -0.104 0.232 -0.11 0.253 -0.114 0.273 -0.117 0.291 -0.119 0.31 -0.12 0.328 -0.12 0.345 -0.117 0.362 -0.114 0.378 -0.11 0.395 -0.104 0.408 -0.097 0.423 -0.089 0.436 -0.079 0.449 -0.068 0.463 -0.056 0.473 -0.042 0.484 -0.027 0.495 -0.011 0.505 0.008 0.513 0.025 0.523 0.047 0.529 0.068 0.536 0.091 0 0zm-14.737 18.584l1.493 -0.146 0 0 0.245 1.555 0.383 1.24 0.493 0.945 0.578 0.68 0.65 0.458 0.734 0.271 0.832 0.1 0.932 -0.072 1.015 -0.245 1.08 -0.41 1.124 -0.566 1.146 -0.709 1.152 -0.835 1.138 -0.949 1.11 -1.046 1.065 -1.127 1.003 -1.193 0.927 -1.242 0.834 -1.275 0.728 -1.292 0.606 -1.291 0.47 -1.272 0.322 -1.236 0.163 -1.181 -0.005 -1.108 -0.178 -1.022 -0.358 -0.931 -0.55 -0.841 -0.769 -0.754 -1.017 -0.659 -1.295 -0.546 -1.596 -0.411 0.282 -1.474 1.787 0.461 1.518 0.641 1.254 0.813 0.992 0.974 0.729 1.111 0.469 1.217 0.227 1.29 0.007 1.341 -0.188 1.373 -0.363 1.393 -0.518 1.402 -0.656 1.398 -0.779 1.384 -0.887 1.355 -0.98 1.314 -1.06 1.259 -1.123 1.19 -1.175 1.107 -1.213 1.01 -1.236 0.898 -1.249 0.771 -1.25 0.63 -1.242 0.471 -1.224 0.293 -1.197 0.091 -1.155 -0.141 -1.084 -0.404 -0.966 -0.681 -0.811 -0.953 -0.634 -1.213 -0.456 -1.471 -0.274 -1.74 0 0zm3.663 -15.691l0.86 1.229 -0.141 0.113 -0.154 0.157 -0.164 0.199 -0.168 0.24 -0.17 0.28 -0.17 0.315 -0.167 0.348 -0.164 0.38 -0.16 0.406 -0.154 0.433 -0.149 0.455 -0.143 0.476 -0.137 0.495 -0.129 0.511 -0.122 0.525 -0.115 0.536 -0.107 0.546 -0.099 0.554 -0.091 0.56 -0.082 0.562 -0.074 0.564 -0.064 0.562 -0.055 0.56 -0.046 0.554 -0.036 0.547 -0.027 0.538 -0.016 0.526 -0.006 0.511 0.004 0.497 0.015 0.477 0.025 0.456 0.036 0.433 -1.493 0.146 -0.04 -0.476 -0.027 -0.495 -0.016 -0.513 -0.004 -0.527 0.006 -0.542 0.017 -0.553 0.028 -0.564 0.038 -0.572 0.048 -0.579 0.057 -0.583 0.067 -0.586 0.077 -0.587 0.085 -0.585 0.095 -0.583 0.103 -0.578 0.112 -0.571 0.12 -0.563 0.129 -0.552 0.137 -0.54 0.145 -0.526 0.153 -0.509 0.161 -0.493 0.169 -0.473 0.178 -0.452 0.186 -0.43 0.195 -0.405 0.204 -0.381 0.216 -0.354 0.229 -0.327 0.244 -0.297 0.264 -0.265 0.287 -0.23zm0 0c0.339,-0.238 0.807,-0.155 1.045,0.184 0.237,0.339 0.154,0.807 -0.185,1.045l-0.86 -1.229z"/>
   </g>
   <g>
    <path class="fil0" d="M93.053 68.238c0.323,0.258 0.375,0.73 0.117,1.054 -0.259,0.323 -0.731,0.376 -1.054,0.117l0.937 -1.171zm-3.527 -6.686l1.5 0 0 0 0.006 0.478 0.019 0.457 0.029 0.436 0.041 0.416 0.049 0.397 0.058 0.376 0.067 0.358 0.072 0.338 0.079 0.32 0.085 0.302 0.089 0.285 0.091 0.266 0.096 0.25 0.096 0.234 0.098 0.217 0.099 0.202 0.097 0.185 0.097 0.171 0.094 0.156 0.091 0.142 0.088 0.129 0.082 0.113 0.078 0.101 0.072 0.087 0.065 0.076 0.057 0.062 0.048 0.051 0.038 0.038 0.029 0.027 0.021 0.018 0.009 0.008 -0.013 -0.01 -0.937 1.171 -0.026 -0.022 -0.03 -0.025 -0.042 -0.037 -0.055 -0.053 -0.066 -0.066 -0.075 -0.078 -0.083 -0.091 -0.09 -0.105 -0.097 -0.119 -0.104 -0.134 -0.108 -0.149 -0.111 -0.162 -0.115 -0.178 -0.117 -0.194 -0.118 -0.21 -0.119 -0.225 -0.117 -0.243 -0.117 -0.258 -0.114 -0.275 -0.111 -0.293 -0.107 -0.31 -0.102 -0.327 -0.096 -0.346 -0.09 -0.364 -0.083 -0.382 -0.074 -0.4 -0.065 -0.42 -0.054 -0.439 -0.045 -0.458 -0.032 -0.478 -0.02 -0.498 -0.007 -0.518 0 0zm4.617 -25.892l1.499 0.078 0 0 -0.028 0.302 -0.051 0.365 -0.072 0.438 -0.093 0.511 -0.111 0.581 -0.128 0.647 -0.144 0.708 -0.158 0.764 -0.171 0.815 -0.182 0.86 -0.19 0.902 -0.199 0.937 -0.205 0.967 -0.209 0.993 -0.212 1.011 -0.214 1.026 -0.212 1.036 -0.211 1.039 -0.207 1.038 -0.202 1.031 -0.195 1.019 -0.187 1.001 -0.176 0.978 -0.164 0.951 -0.151 0.916 -0.136 0.876 -0.119 0.832 -0.101 0.781 -0.08 0.725 -0.059 0.661 -0.036 0.591 -0.013 0.512 -1.5 0 0.014 -0.578 0.038 -0.639 0.063 -0.698 0.084 -0.753 0.103 -0.804 0.122 -0.851 0.138 -0.892 0.153 -0.929 0.167 -0.961 0.178 -0.988 0.187 -1.009 0.197 -1.026 0.203 -1.037 0.208 -1.043 0.212 -1.043 0.213 -1.039 0.214 -1.029 0.212 -1.014 0.21 -0.994 0.205 -0.968 0.199 -0.937 0.191 -0.901 0.181 -0.859 0.17 -0.812 0.157 -0.76 0.143 -0.701 0.127 -0.639 0.109 -0.568 0.089 -0.493 0.067 -0.41 0.044 -0.315 0.019 -0.202 0 0zm0.923 -17.504l1.5 0 0 0 -0.002 0.22 -0.008 0.279 -0.011 0.335 -0.015 0.39 -0.018 0.44 -0.022 0.487 -0.025 0.53 -0.028 0.568 -0.03 0.602 -0.033 0.633 -0.034 0.659 -0.037 0.681 -0.038 0.698 -0.038 0.713 -0.04 0.722 -0.041 0.726 -0.04 0.728 -0.041 0.725 -0.041 0.717 -0.04 0.705 -0.039 0.689 -0.038 0.67 -0.037 0.645 -0.036 0.617 -0.033 0.585 -0.031 0.547 -0.029 0.506 -0.027 0.461 -0.023 0.411 -0.02 0.358 -0.017 0.299 -0.012 0.236 -1.499 -0.078 0.013 -0.24 0.017 -0.301 0.02 -0.358 0.023 -0.412 0.027 -0.462 0.029 -0.506 0.031 -0.548 0.034 -0.584 0.035 -0.616 0.037 -0.646 0.038 -0.669 0.039 -0.689 0.041 -0.705 0.04 -0.717 0.041 -0.724 0.04 -0.727 0.041 -0.726 0.04 -0.721 0.039 -0.712 0.037 -0.697 0.036 -0.68 0.035 -0.658 0.032 -0.631 0.03 -0.601 0.028 -0.565 0.025 -0.527 0.022 -0.483 0.018 -0.435 0.015 -0.383 0.011 -0.326 0.006 -0.263 0.003 -0.192 0 0zm2.769 4.885l-1.499 -0.076 0 0 0.016 -0.399 0.007 -0.384 -0.002 -0.37 -0.009 -0.356 -0.017 -0.341 -0.025 -0.325 -0.03 -0.31 -0.035 -0.294 -0.041 -0.277 -0.044 -0.26 -0.049 -0.243 -0.051 -0.225 -0.053 -0.206 -0.055 -0.188 -0.055 -0.168 -0.054 -0.146 -0.052 -0.124 -0.048 -0.101 -0.041 -0.075 -0.03 -0.046 -0.011 -0.014 0.025 0.023 0.087 0.055 0.189 0.055 0.272 -0.027 0.218 -0.124 0.103 -0.121 0.031 -0.062 0.002 -0.004 -0.007 0.044 -0.008 0.084 -0.003 0.12 -1.5 0 0.005 -0.204 0.017 -0.191 0.033 -0.187 0.056 -0.188 0.098 -0.201 0.182 -0.217 0.308 -0.176 0.37 -0.036 0.295 0.088 0.202 0.13 0.144 0.139 0.113 0.142 0.097 0.15 0.089 0.16 0.082 0.173 0.078 0.187 0.075 0.202 0.071 0.217 0.069 0.233 0.064 0.251 0.061 0.266 0.056 0.282 0.051 0.298 0.046 0.314 0.04 0.33 0.033 0.345 0.027 0.36 0.019 0.375 0.01 0.39 0.002 0.403 -0.007 0.419 -0.017 0.431 0 0zm-7.203 11.126l-0.712 -1.321 0 0 0.398 -0.221 0.382 -0.227 0.369 -0.232 0.355 -0.239 0.34 -0.244 0.328 -0.249 0.313 -0.256 0.3 -0.26 0.287 -0.267 0.274 -0.272 0.261 -0.277 0.249 -0.283 0.236 -0.288 0.224 -0.294 0.212 -0.299 0.2 -0.305 0.188 -0.31 0.177 -0.316 0.165 -0.322 0.154 -0.327 0.143 -0.333 0.132 -0.34 0.121 -0.344 0.11 -0.351 0.099 -0.357 0.089 -0.363 0.077 -0.369 0.068 -0.375 0.057 -0.382 0.046 -0.386 0.037 -0.394 0.025 -0.399 1.499 0.076 -0.029 0.44 -0.039 0.434 -0.052 0.43 -0.064 0.424 -0.075 0.42 -0.088 0.414 -0.1 0.409 -0.112 0.403 -0.124 0.398 -0.138 0.393 -0.15 0.386 -0.164 0.381 -0.176 0.375 -0.189 0.368 -0.203 0.363 -0.216 0.355 -0.229 0.349 -0.242 0.343 -0.256 0.335 -0.269 0.329 -0.283 0.322 -0.297 0.314 -0.309 0.308 -0.324 0.3 -0.336 0.292 -0.351 0.286 -0.364 0.278 -0.377 0.27 -0.391 0.263 -0.405 0.255 -0.419 0.248 -0.432 0.241 0 0zm-17.335 1.277l1.411 0.51 -0.063 0.234 -0.009 0.14 0.014 0.064 0.024 0.039 0.062 0.057 0.137 0.077 0.223 0.08 0.304 0.065 0.375 0.043 0.437 0.017 0.49 -0.01 0.537 -0.037 0.578 -0.062 0.612 -0.087 0.642 -0.109 0.666 -0.13 0.685 -0.149 0.701 -0.167 0.71 -0.183 0.716 -0.197 0.717 -0.209 0.713 -0.22 0.706 -0.228 0.692 -0.235 0.676 -0.24 0.654 -0.243 0.629 -0.245 0.597 -0.244 0.563 -0.242 0.521 -0.237 0.477 -0.23 0.426 -0.22 0.712 1.321 -0.468 0.242 -0.511 0.246 -0.552 0.251 -0.588 0.252 -0.622 0.254 -0.65 0.254 -0.675 0.251 -0.696 0.247 -0.714 0.242 -0.725 0.235 -0.735 0.226 -0.738 0.215 -0.739 0.204 -0.735 0.189 -0.728 0.173 -0.715 0.156 -0.7 0.137 -0.681 0.116 -0.657 0.093 -0.631 0.068 -0.602 0.041 -0.571 0.011 -0.536 -0.021 -0.504 -0.058 -0.471 -0.103 -0.438 -0.158 -0.404 -0.235 -0.347 -0.331 -0.248 -0.431 -0.11 -0.489 0.023 -0.501 0.133 -0.499zm0 0c0.141,-0.389 0.571,-0.591 0.96,-0.451 0.39,0.141 0.592,0.571 0.451,0.961l-1.411 -0.51z"/>
   </g>
   <g>
    <path class="fil0" d="M97.265 44.374c-0.077,0.395 -0.471,0.655 -0.879,0.581 -0.409,-0.074 -0.678,-0.454 -0.602,-0.849l1.481 0.268zm16.052 -10.418l-0.378 1.409 -0.653 -0.147 -0.654 -0.115 -0.655 -0.083 -0.654 -0.051 -0.652 -0.02 -0.649 0.01 -0.644 0.04 -0.638 0.07 -0.632 0.099 -0.623 0.128 -0.614 0.156 -0.603 0.184 -0.592 0.21 -0.578 0.237 -0.564 0.264 -0.549 0.289 -0.532 0.315 -0.514 0.339 -0.495 0.364 -0.475 0.386 -0.453 0.411 -0.431 0.433 -0.407 0.455 -0.382 0.477 -0.357 0.498 -0.329 0.52 -0.301 0.54 -0.272 0.56 -0.242 0.581 -0.21 0.6 -0.177 0.62 -0.143 0.639 -1.481 -0.268 0.161 -0.719 0.2 -0.699 0.237 -0.677 0.274 -0.657 0.307 -0.634 0.341 -0.611 0.373 -0.588 0.403 -0.564 0.432 -0.539 0.46 -0.514 0.486 -0.489 0.511 -0.462 0.533 -0.435 0.556 -0.408 0.577 -0.381 0.596 -0.352 0.614 -0.324 0.63 -0.294 0.646 -0.266 0.66 -0.235 0.672 -0.204 0.685 -0.174 0.694 -0.142 0.702 -0.11 0.711 -0.078 0.717 -0.045 0.721 -0.011 0.725 0.022 0.727 0.057 0.729 0.092 0.727 0.127 0.726 0.164zm0 0c0.403,0.1 0.645,0.498 0.54,0.887 -0.104,0.389 -0.515,0.622 -0.918,0.522l0.378 -1.409z"/>
   </g>
   <g>
    <path class="fil0" d="M105.344 20.829c0.053,-0.411 0.43,-0.7 0.84,-0.647 0.411,0.053 0.701,0.43 0.648,0.84l-1.488 -0.193zm-5.194 39.934l5.194 -39.934 1.488 0.193 -5.194 39.934 -1.488 -0.193zm1.488 0.193c-0.053,0.411 -0.43,0.701 -0.841,0.648 -0.41,-0.054 -0.7,-0.43 -0.647,-0.841l1.488 0.193z"/>
   </g>
   <g>
    <path class="fil0" d="M123.256 24.46c0.406,-0.079 0.801,0.186 0.88,0.592 0.08,0.407 -0.185,0.801 -0.592,0.881l-0.288 -1.473zm-7.866 5.075l-1.061 -1.06 0 0 0.287 -0.272 0.302 -0.259 0.317 -0.247 0.328 -0.235 0.339 -0.225 0.348 -0.214 0.356 -0.204 0.362 -0.194 0.365 -0.185 0.369 -0.175 0.369 -0.167 0.369 -0.158 0.368 -0.148 0.363 -0.14 0.358 -0.132 0.352 -0.124 0.343 -0.116 0.334 -0.107 0.321 -0.1 0.308 -0.091 0.294 -0.084 0.276 -0.077 0.259 -0.069 0.239 -0.061 0.218 -0.054 0.194 -0.047 0.17 -0.039 0.142 -0.032 0.116 -0.025 0.086 -0.018 0.052 -0.011 0.023 -0.005 0.288 1.473 -0.011 0.002 -0.047 0.009 -0.076 0.016 -0.105 0.023 -0.134 0.031 -0.159 0.036 -0.183 0.044 -0.206 0.051 -0.227 0.059 -0.246 0.065 -0.263 0.073 -0.279 0.08 -0.293 0.087 -0.305 0.094 -0.316 0.102 -0.324 0.109 -0.332 0.117 -0.337 0.124 -0.342 0.132 -0.343 0.139 -0.342 0.146 -0.342 0.154 -0.338 0.161 -0.334 0.168 -0.326 0.176 -0.317 0.182 -0.308 0.189 -0.295 0.195 -0.281 0.201 -0.265 0.208 -0.249 0.212 -0.229 0.217 0 0zm0.964 8.958l-0.681 1.337 0 0 -0.599 -0.322 -0.551 -0.331 -0.504 -0.339 -0.458 -0.349 -0.414 -0.357 -0.37 -0.366 -0.328 -0.374 -0.286 -0.384 -0.244 -0.391 -0.203 -0.397 -0.162 -0.403 -0.122 -0.405 -0.083 -0.408 -0.047 -0.406 -0.01 -0.403 0.022 -0.399 0.053 -0.394 0.081 -0.386 0.106 -0.379 0.129 -0.371 0.151 -0.363 0.169 -0.355 0.186 -0.348 0.201 -0.338 0.214 -0.33 0.225 -0.322 0.236 -0.312 0.243 -0.304 0.249 -0.294 0.255 -0.285 0.258 -0.276 0.259 -0.264 1.061 1.06 -0.237 0.242 -0.235 0.25 -0.229 0.257 -0.223 0.264 -0.216 0.27 -0.207 0.274 -0.195 0.279 -0.184 0.282 -0.169 0.285 -0.153 0.287 -0.138 0.288 -0.119 0.287 -0.1 0.287 -0.08 0.286 -0.06 0.284 -0.038 0.281 -0.015 0.279 0.007 0.276 0.031 0.276 0.056 0.275 0.083 0.275 0.112 0.278 0.143 0.28 0.177 0.284 0.214 0.286 0.253 0.29 0.296 0.292 0.34 0.294 0.388 0.294 0.436 0.294 0.487 0.292 0.539 0.29 0 0zm11.347 8.372l-1.446 -0.402 0 0 0.074 -0.315 0.039 -0.282 0.008 -0.252 -0.019 -0.224 -0.043 -0.204 -0.067 -0.189 -0.09 -0.181 -0.116 -0.177 -0.145 -0.176 -0.177 -0.176 -0.209 -0.175 -0.241 -0.175 -0.274 -0.174 -0.303 -0.172 -0.333 -0.172 -0.361 -0.17 -0.387 -0.17 -0.411 -0.171 -0.434 -0.172 -0.455 -0.175 -0.475 -0.178 -0.494 -0.183 -0.511 -0.189 -0.527 -0.196 -0.542 -0.204 -0.555 -0.215 -0.566 -0.226 -0.577 -0.237 -0.587 -0.252 -0.595 -0.267 -0.601 -0.283 -0.608 -0.301 0.681 -1.337 0.579 0.287 0.576 0.271 0.571 0.256 0.565 0.243 0.559 0.23 0.552 0.22 0.542 0.209 0.532 0.202 0.522 0.194 0.51 0.188 0.497 0.184 0.484 0.182 0.469 0.179 0.452 0.18 0.437 0.181 0.419 0.185 0.402 0.19 0.383 0.197 0.363 0.206 0.343 0.219 0.322 0.233 0.298 0.251 0.273 0.272 0.244 0.295 0.21 0.321 0.172 0.346 0.129 0.37 0.082 0.388 0.034 0.405 -0.012 0.417 -0.059 0.429 -0.103 0.441 0 0.001zm-11.799 7.695l-0.239 -1.481 0 0 0.327 -0.057 0.344 -0.067 0.358 -0.078 0.371 -0.088 0.382 -0.099 0.392 -0.11 0.4 -0.12 0.406 -0.13 0.411 -0.141 0.415 -0.15 0.416 -0.161 0.415 -0.171 0.414 -0.181 0.412 -0.191 0.405 -0.201 0.401 -0.21 0.391 -0.22 0.383 -0.229 0.371 -0.238 0.359 -0.246 0.345 -0.255 0.329 -0.264 0.312 -0.271 0.294 -0.279 0.273 -0.286 0.252 -0.293 0.231 -0.298 0.206 -0.305 0.183 -0.311 0.157 -0.316 0.132 -0.322 0.105 -0.328 1.446 0.402 -0.142 0.44 -0.174 0.427 -0.205 0.412 -0.234 0.397 -0.258 0.383 -0.284 0.368 -0.305 0.353 -0.324 0.34 -0.344 0.326 -0.36 0.313 -0.375 0.301 -0.388 0.287 -0.401 0.275 -0.411 0.264 -0.421 0.252 -0.428 0.239 -0.434 0.229 -0.439 0.216 -0.443 0.206 -0.445 0.195 -0.445 0.183 -0.445 0.172 -0.442 0.161 -0.439 0.15 -0.434 0.139 -0.427 0.128 -0.419 0.117 -0.41 0.106 -0.4 0.096 -0.388 0.084 -0.374 0.073 -0.361 0.063 0 0zm-6.736 -3.682l1.461 0.343 -0.021 0.112 -0.01 0.105 0.002 0.097 0.011 0.094 0.021 0.091 0.03 0.09 0.041 0.09 0.052 0.091 0.063 0.092 0.078 0.092 0.091 0.094 0.104 0.092 0.119 0.092 0.133 0.089 0.148 0.086 0.16 0.082 0.174 0.078 0.187 0.073 0.199 0.067 0.21 0.061 0.221 0.054 0.233 0.047 0.242 0.039 0.252 0.031 0.261 0.023 0.269 0.013 0.277 0.005 0.285 -0.004 0.292 -0.015 0.298 -0.024 0.304 -0.034 0.31 -0.045 0.239 1.481 -0.356 0.052 -0.351 0.04 -0.347 0.028 -0.34 0.016 -0.334 0.005 -0.328 -0.005 -0.322 -0.017 -0.314 -0.027 -0.306 -0.038 -0.298 -0.048 -0.29 -0.058 -0.283 -0.069 -0.273 -0.079 -0.263 -0.089 -0.253 -0.099 -0.244 -0.109 -0.233 -0.12 -0.222 -0.13 -0.211 -0.141 -0.198 -0.152 -0.186 -0.164 -0.17 -0.176 -0.157 -0.188 -0.139 -0.201 -0.121 -0.211 -0.1 -0.223 -0.078 -0.233 -0.054 -0.242 -0.029 -0.247 -0.004 -0.252 0.021 -0.253 0.047 -0.252zm0 0c0.095,-0.403 0.499,-0.653 0.902,-0.559 0.403,0.095 0.653,0.499 0.559,0.902l-1.461 -0.343z"/>
   </g>
   <g>
    <path class="fil0" d="M132.64 39.077c0.365,0.195 0.504,0.649 0.309,1.015 -0.195,0.365 -0.65,0.503 -1.015,0.309l0.706 -1.324zm-0.294 -1.454l0.344 1.461 0 0 -0.142 0.036 -0.116 0.036 -0.09 0.033 -0.065 0.03 -0.04 0.021 -0.014 0.01 0.007 -0.006 0.023 -0.027 0.031 -0.05 0.03 -0.072 0.016 -0.079 0.001 -0.073 -0.009 -0.06 -0.012 -0.042 -0.01 -0.023 -0.004 -0.007 0.004 0.006 0.012 0.014 0.018 0.019 0.024 0.024 0.028 0.025 0.033 0.026 0.034 0.027 0.034 0.025 0.034 0.024 0.032 0.02 0.029 0.019 0.026 0.016 0.019 0.011 0.017 0.01 0.005 0.003 -0.005 -0.003 -0.706 1.324 -0.014 -0.008 -0.024 -0.013 -0.028 -0.016 -0.039 -0.024 -0.045 -0.028 -0.052 -0.032 -0.058 -0.039 -0.063 -0.043 -0.066 -0.049 -0.069 -0.053 -0.071 -0.059 -0.074 -0.066 -0.074 -0.072 -0.074 -0.081 -0.074 -0.089 -0.072 -0.102 -0.068 -0.116 -0.06 -0.134 -0.048 -0.156 -0.027 -0.174 0.004 -0.188 0.038 -0.195 0.076 -0.187 0.104 -0.164 0.122 -0.14 0.136 -0.117 0.145 -0.099 0.154 -0.084 0.163 -0.073 0.176 -0.065 0.19 -0.059 0.204 -0.053 0 0zm25.91 -4.165l0.229 1.482 -0.068 0.011 -0.2 0.031 -0.323 0.05 -0.438 0.068 -0.545 0.084 -0.643 0.1 -0.732 0.114 -0.813 0.126 -0.887 0.138 -0.95 0.149 -1.007 0.157 -1.055 0.165 -1.094 0.171 -1.124 0.177 -1.147 0.18 -1.162 0.183 -1.167 0.184 -1.164 0.185 -1.154 0.183 -1.134 0.181 -1.106 0.177 -1.069 0.172 -1.025 0.166 -0.972 0.158 -0.91 0.149 -0.84 0.14 -0.762 0.128 -0.674 0.115 -0.579 0.101 -0.472 0.086 -0.357 0.068 -0.222 0.047 -0.344 -1.461 0.272 -0.057 0.377 -0.073 0.484 -0.088 0.586 -0.102 0.679 -0.115 0.765 -0.129 0.843 -0.14 0.912 -0.15 0.974 -0.158 1.026 -0.166 1.071 -0.173 1.107 -0.176 1.134 -0.181 1.154 -0.184 1.166 -0.184 1.167 -0.185 1.162 -0.183 1.148 -0.18 1.125 -0.177 1.094 -0.171 1.055 -0.165 1.007 -0.158 0.952 -0.148 0.886 -0.138 0.813 -0.127 0.733 -0.113 0.643 -0.1 0.544 -0.085 0.439 -0.068 0.323 -0.05 0.2 -0.031 0.069 -0.01zm0 0c0.41,-0.064 0.793,0.217 0.856,0.626 0.063,0.41 -0.217,0.793 -0.627,0.856l-0.229 -1.482z"/>
   </g>
   <g>
    <path class="fil0" d="M171.701 36.103c-0.414,0 -0.75,-0.336 -0.75,-0.75 0,-0.414 0.336,-0.75 0.75,-0.75l0 1.5zm0.578 0l-0.578 0 0 -1.5 0.578 0 0 1.5zm0 -1.5c0.414,0 0.75,0.336 0.75,0.75 0,0.414 -0.336,0.75 -0.75,0.75l0 -1.5z"/>
   </g>
   <g>
    <path class="fil0" d="M165.238 71.881c-0.414,0 -0.75,-0.336 -0.75,-0.75 0,-0.414 0.336,-0.75 0.75,-0.75l0 1.5zm0.578 0l-0.578 0 0 -1.5 0.578 0 0 1.5zm0 -1.5c0.414,0 0.75,0.336 0.75,0.75 0,0.414 -0.336,0.75 -0.75,0.75l0 -1.5z"/>
   </g>
   <g>
    <path class="fil0" d="M73.543 83.131c-0.348,0.224 -0.812,0.123 -1.036,-0.225 -0.224,-0.348 -0.124,-0.812 0.224,-1.036l0.812 1.261zm79.417 -11.618l-0.076 1.498 0 0 -2.106 -0.097 -2.212 -0.085 -2.31 -0.072 -2.4 -0.056 -2.481 -0.039 -2.555 -0.022 -2.619 -0.001 -2.677 0.019 -2.726 0.042 -2.766 0.066 -2.798 0.091 -2.823 0.117 -2.839 0.147 -2.847 0.176 -2.846 0.207 -2.839 0.24 -2.821 0.274 -2.796 0.31 -2.763 0.346 -2.722 0.385 -2.672 0.425 -2.614 0.465 -2.548 0.508 -2.473 0.552 -2.39 0.596 -2.299 0.643 -2.199 0.691 -2.09 0.738 -1.974 0.788 -1.849 0.838 -1.714 0.889 -1.573 0.939 -0.812 -1.261 1.656 -0.989 1.789 -0.928 1.915 -0.868 2.034 -0.812 2.144 -0.758 2.247 -0.705 2.341 -0.655 2.429 -0.606 2.508 -0.56 2.58 -0.514 2.643 -0.471 2.698 -0.429 2.747 -0.388 2.785 -0.349 2.818 -0.312 2.84 -0.276 2.856 -0.241 2.863 -0.209 2.863 -0.177 2.854 -0.147 2.837 -0.118 2.812 -0.092 2.779 -0.066 2.738 -0.042 2.689 -0.02 2.631 0.002 2.566 0.022 2.493 0.039 2.411 0.057 2.321 0.071 2.224 0.086 2.118 0.098 0 0zm-2.875 -1.292l0.196 -1.487 0.151 0.026 0.186 0.038 0.234 0.054 0.282 0.067 0.325 0.08 0.362 0.093 0.392 0.102 0.417 0.113 0.435 0.121 0.448 0.128 0.453 0.133 0.454 0.139 0.446 0.142 0.435 0.145 0.416 0.147 0.393 0.148 0.365 0.148 0.333 0.15 0.298 0.155 0.269 0.167 0.251 0.212 0.236 0.354 0.02 0.621 -0.334 0.452 -0.352 0.183 -0.356 0.097 -0.41 0.061 -0.492 0.039 -0.591 0.02 -0.699 0.001 -0.819 -0.019 -0.945 -0.04 0.076 -1.498 0.92 0.039 0.786 0.018 0.658 -0.001 0.532 -0.018 0.41 -0.032 0.282 -0.042 0.141 -0.036 -0.037 0.025 -0.191 0.269 0.008 0.417 0.078 0.132 -0.038 -0.028 -0.138 -0.085 -0.214 -0.11 -0.272 -0.123 -0.321 -0.131 -0.36 -0.135 -0.389 -0.138 -0.413 -0.137 -0.429 -0.137 -0.438 -0.134 -0.441 -0.13 -0.435 -0.124 -0.425 -0.118 -0.407 -0.11 -0.382 -0.1 -0.352 -0.09 -0.313 -0.077 -0.269 -0.064 -0.215 -0.049 -0.152 -0.032 -0.059 -0.011zm0 0c-0.411,-0.053 -0.7,-0.43 -0.646,-0.841 0.054,-0.411 0.431,-0.7 0.842,-0.646l-0.196 1.487z"/>
   </g>
  </g>
 </g>
</svg>
