<?xml version="1.0" encoding="UTF-8"?>
<!DOCTYPE svg PUBLIC "-//W3C//DTD SVG 1.1//EN" "http://www.w3.org/Graphics/SVG/1.1/DTD/svg11.dtd">
<!-- Creator: CorelDRAW 2019 (64-Bit) -->
<svg xmlns="http://www.w3.org/2000/svg" xml:space="preserve" width="200px" height="100px" version="1.1" style="shape-rendering:geometricPrecision; text-rendering:geometricPrecision; image-rendering:optimizeQuality; fill-rule:evenodd; clip-rule:evenodd"
viewBox="0 0 200 100"
 xmlns:xlink="http://www.w3.org/1999/xlink"
 xmlns:xodm="http://www.corel.com/coreldraw/odm/2003">
 <defs>
  <style type="text/css">
   <![CDATA[
    .fil0 {fill:black;fill-rule:nonzero}
    .fil1 {fill:black;fill-rule:nonzero}
   ]]>
  </style>
   <clipPath id="id0">
    <rect x="914.006" y="-840.752" width="960.002" height="1280.003"/>
   </clipPath>
 </defs>
 <g id="Layer_x0020_1">
  <metadata id="CorelCorpID_0Corel-Layer"/>
  <g style="clip-path:url(#id0)">
   <image x="914.006" y="-840.752" width="960.002" height="1280.003" xlink:href="036_Images\036_ImgID1.png"/>
  </g>
  <g id="_1902912611760">
   <g>
    <path class="fil0" d="M71.616 24.501c0.275,-0.309 0.749,-0.337 1.059,-0.062 0.309,0.275 0.337,0.749 0.062,1.059l-1.121 -0.997zm-27.286 32.44l-1.111 -1.008 0 0 0.892 -0.983 0.891 -0.982 0.891 -0.982 0.891 -0.981 0.891 -0.98 0.89 -0.98 0.89 -0.98 0.89 -0.979 0.889 -0.978 0.889 -0.979 0.889 -0.978 0.888 -0.978 0.889 -0.979 0.888 -0.978 0.887 -0.978 0.887 -0.979 0.888 -0.979 0.887 -0.979 0.886 -0.981 0.887 -0.98 0.885 -0.981 0.886 -0.982 0.886 -0.983 0.885 -0.983 0.885 -0.985 0.885 -0.986 0.885 -0.986 0.884 -0.988 0.885 -0.989 0.883 -0.99 0.884 -0.992 0.884 -0.994 1.121 0.997 -0.885 0.994 -0.884 0.993 -0.885 0.991 -0.885 0.99 -0.885 0.989 -0.885 0.987 -0.886 0.986 -0.886 0.986 -0.886 0.984 -0.886 0.984 -0.886 0.982 -0.887 0.982 -0.886 0.981 -0.887 0.98 -0.887 0.98 -0.888 0.98 -0.887 0.978 -0.889 0.979 -0.888 0.979 -0.888 0.979 -0.888 0.978 -0.89 0.978 -0.889 0.979 -0.889 0.979 -0.89 0.978 -0.89 0.979 -0.89 0.98 -0.89 0.98 -0.891 0.981 -0.891 0.982 -0.891 0.982 -0.892 0.983 0 0zm-5.122 6.306l-0.741 1.304 0.001 0.001 -0.224 -0.165 -0.182 -0.22 -0.119 -0.25 -0.056 -0.249 -0.01 -0.237 0.023 -0.223 0.047 -0.215 0.065 -0.209 0.081 -0.21 0.095 -0.214 0.11 -0.218 0.124 -0.225 0.137 -0.232 0.15 -0.239 0.163 -0.247 0.175 -0.255 0.188 -0.263 0.198 -0.271 0.211 -0.278 0.221 -0.286 0.232 -0.293 0.242 -0.3 0.251 -0.307 0.261 -0.313 0.27 -0.32 0.277 -0.325 0.287 -0.331 0.293 -0.336 0.301 -0.34 0.307 -0.346 0.314 -0.349 0.319 -0.353 1.111 1.008 -0.316 0.349 -0.309 0.345 -0.304 0.341 -0.296 0.335 -0.288 0.33 -0.281 0.325 -0.272 0.318 -0.264 0.312 -0.253 0.305 -0.244 0.298 -0.234 0.29 -0.222 0.281 -0.212 0.273 -0.199 0.264 -0.186 0.254 -0.174 0.243 -0.16 0.233 -0.145 0.221 -0.131 0.209 -0.116 0.195 -0.099 0.18 -0.083 0.165 -0.066 0.146 -0.048 0.125 -0.031 0.101 -0.016 0.072 -0.005 0.036 0 -0.005 -0.011 -0.044 -0.035 -0.072 -0.06 -0.073 -0.063 -0.047 0.001 0.001zm54.011 -6.141l-0.031 1.5 -2.885 -0.039 -2.835 0.003 -2.781 0.04 -2.726 0.076 -2.668 0.11 -2.606 0.14 -2.543 0.168 -2.477 0.193 -2.407 0.216 -2.336 0.235 -2.262 0.253 -2.184 0.268 -2.106 0.279 -2.022 0.289 -1.938 0.295 -1.85 0.3 -1.76 0.301 -1.667 0.3 -1.572 0.296 -1.473 0.29 -1.373 0.28 -1.269 0.269 -1.163 0.254 -1.055 0.237 -0.943 0.218 -0.83 0.195 -0.714 0.17 -0.596 0.143 -0.477 0.114 -0.361 0.083 -0.261 0.051 -0.581 -0.082 0.741 -1.304 -0.398 -0.094 0.18 -0.037 0.337 -0.077 0.47 -0.112 0.597 -0.143 0.717 -0.172 0.836 -0.196 0.95 -0.22 1.063 -0.239 1.173 -0.256 1.279 -0.271 1.383 -0.282 1.485 -0.292 1.583 -0.298 1.68 -0.302 1.773 -0.304 1.863 -0.302 1.952 -0.297 2.037 -0.291 2.12 -0.282 2.2 -0.269 2.277 -0.254 2.352 -0.238 2.425 -0.217 2.494 -0.194 2.561 -0.169 2.625 -0.141 2.687 -0.111 2.746 -0.077 2.802 -0.041 2.856 -0.002 2.906 0.039zm0 0c0.414,0.009 0.743,0.352 0.734,0.766 -0.008,0.414 -0.351,0.742 -0.765,0.734l0.031 -1.5z"/>
   </g>
   <g>
    <path class="fil1" d="M89.226 55.346c-0.205,0.359 -0.664,0.484 -1.023,0.278 -0.36,-0.206 -0.484,-0.664 -0.278,-1.024l1.301 0.746zm7.709 -11.461l0.102 1.497 0 0 -0.102 0.019 -0.161 0.061 -0.209 0.111 -0.245 0.163 -0.272 0.212 -0.292 0.257 -0.308 0.297 -0.321 0.333 -0.329 0.365 -0.336 0.392 -0.341 0.415 -0.342 0.435 -0.343 0.45 -0.341 0.462 -0.338 0.47 -0.332 0.473 -0.325 0.474 -0.317 0.47 -0.306 0.463 -0.294 0.451 -0.279 0.437 -0.265 0.418 -0.247 0.395 -0.227 0.369 -0.208 0.34 -0.184 0.306 -0.161 0.27 -0.136 0.228 -0.107 0.183 -0.079 0.135 -0.048 0.083 -0.016 0.027 -1.301 -0.746 0.018 -0.031 0.05 -0.087 0.081 -0.139 0.111 -0.188 0.138 -0.233 0.164 -0.274 0.188 -0.312 0.211 -0.346 0.232 -0.376 0.251 -0.403 0.269 -0.425 0.285 -0.445 0.3 -0.46 0.312 -0.473 0.324 -0.481 0.334 -0.486 0.342 -0.486 0.347 -0.484 0.354 -0.479 0.357 -0.468 0.359 -0.457 0.36 -0.439 0.359 -0.419 0.359 -0.397 0.356 -0.37 0.353 -0.34 0.351 -0.309 0.351 -0.272 0.353 -0.235 0.361 -0.19 0.378 -0.14 0.402 -0.071 0 0zm-7.539 20.483l-0.73 1.31 0 0 -0.471 -0.481 -0.157 -0.58 0.034 -0.547 0.138 -0.555 0.216 -0.592 0.285 -0.643 0.346 -0.695 0.401 -0.745 0.449 -0.789 0.489 -0.83 0.523 -0.863 0.55 -0.891 0.567 -0.911 0.578 -0.925 0.582 -0.932 0.577 -0.932 0.565 -0.925 0.546 -0.911 0.518 -0.89 0.483 -0.86 0.439 -0.823 0.388 -0.779 0.329 -0.724 0.261 -0.659 0.188 -0.581 0.107 -0.486 0.029 -0.366 -0.027 -0.219 -0.033 -0.076 -0.035 -0.03 -0.15 -0.046 -0.344 -0.01 -0.102 -1.497 0.683 0.025 0.627 0.209 0.506 0.429 0.287 0.573 0.088 0.61 -0.046 0.625 -0.144 0.654 -0.223 0.695 -0.292 0.739 -0.355 0.781 -0.409 0.821 -0.457 0.855 -0.496 0.885 -0.529 0.908 -0.553 0.924 -0.571 0.935 -0.581 0.938 -0.583 0.935 -0.578 0.925 -0.565 0.907 -0.544 0.882 -0.516 0.851 -0.479 0.812 -0.435 0.765 -0.382 0.708 -0.321 0.644 -0.251 0.567 -0.174 0.476 -0.091 0.357 -0.016 0.194 -0.017 -0.024 -0.122 -0.122 0 0zm12.315 -15.849l-0.33 1.464 0.001 0 -0.025 0.001 -0.113 0.037 -0.208 0.12 -0.273 0.219 -0.317 0.312 -0.348 0.397 -0.371 0.473 -0.389 0.539 -0.404 0.598 -0.416 0.648 -0.426 0.69 -0.434 0.725 -0.44 0.752 -0.446 0.773 -0.448 0.786 -0.45 0.792 -0.451 0.791 -0.45 0.783 -0.447 0.768 -0.444 0.747 -0.44 0.718 -0.434 0.683 -0.428 0.642 -0.422 0.595 -0.415 0.542 -0.412 0.483 -0.41 0.421 -0.42 0.354 -0.444 0.278 -0.494 0.18 -0.553 0.028 -0.544 -0.18 0.73 -1.31 0.008 0.002 0.039 -0.005 0.14 -0.054 0.226 -0.145 0.286 -0.242 0.325 -0.334 0.354 -0.417 0.376 -0.49 0.393 -0.555 0.407 -0.611 0.419 -0.659 0.428 -0.699 0.436 -0.733 0.442 -0.758 0.446 -0.777 0.449 -0.788 0.451 -0.792 0.45 -0.79 0.45 -0.78 0.446 -0.763 0.443 -0.74 0.439 -0.71 0.432 -0.674 0.427 -0.631 0.42 -0.582 0.414 -0.528 0.411 -0.469 0.412 -0.404 0.423 -0.336 0.453 -0.257 0.511 -0.149 0.558 0.021 0.001 0zm-4.437 12.069l-0.668 1.344 0 0 -0.385 -0.293 -0.245 -0.399 -0.101 -0.413 -0.009 -0.403 0.05 -0.402 0.095 -0.412 0.131 -0.43 0.164 -0.448 0.193 -0.468 0.218 -0.486 0.24 -0.502 0.258 -0.515 0.273 -0.525 0.285 -0.532 0.292 -0.535 0.298 -0.536 0.298 -0.532 0.296 -0.525 0.289 -0.515 0.28 -0.499 0.266 -0.482 0.248 -0.458 0.228 -0.432 0.202 -0.4 0.173 -0.363 0.14 -0.32 0.103 -0.267 0.06 -0.2 0.02 -0.104 0.007 0.047 0.125 0.233 0.283 0.167 0.33 -1.464 0.496 0.286 0.234 0.467 0.02 0.388 -0.057 0.336 -0.1 0.332 -0.133 0.35 -0.164 0.374 -0.191 0.4 -0.216 0.427 -0.237 0.45 -0.256 0.472 -0.27 0.49 -0.283 0.504 -0.29 0.517 -0.295 0.523 -0.296 0.529 -0.294 0.529 -0.287 0.525 -0.277 0.518 -0.264 0.508 -0.247 0.492 -0.226 0.473 -0.201 0.448 -0.173 0.419 -0.14 0.384 -0.106 0.341 -0.066 0.288 -0.029 0.223 0.002 0.138 0.005 0.035 -0.033 -0.048 -0.063 -0.049 0 0zm8.155 -8.6l1.007 1.112 0 0 -0.087 0.085 -0.131 0.14 -0.165 0.185 -0.193 0.223 -0.218 0.257 -0.24 0.288 -0.261 0.315 -0.278 0.337 -0.296 0.358 -0.309 0.375 -0.322 0.389 -0.333 0.398 -0.343 0.407 -0.349 0.411 -0.355 0.412 -0.359 0.411 -0.362 0.406 -0.362 0.398 -0.361 0.388 -0.359 0.375 -0.355 0.357 -0.35 0.339 -0.344 0.317 -0.336 0.293 -0.33 0.266 -0.324 0.237 -0.319 0.205 -0.319 0.17 -0.329 0.131 -0.352 0.08 -0.387 0.001 -0.402 -0.122 0.668 -1.344 -0.065 -0.021 0 -0.002 0.081 -0.02 0.147 -0.06 0.195 -0.105 0.231 -0.148 0.259 -0.19 0.282 -0.227 0.299 -0.26 0.315 -0.29 0.325 -0.316 0.336 -0.339 0.342 -0.357 0.348 -0.374 0.351 -0.385 0.352 -0.396 0.351 -0.402 0.348 -0.403 0.344 -0.405 0.338 -0.401 0.329 -0.395 0.321 -0.385 0.307 -0.374 0.295 -0.357 0.28 -0.339 0.264 -0.318 0.245 -0.293 0.225 -0.267 0.206 -0.239 0.185 -0.207 0.166 -0.176 0.154 -0.149 -0.001 0zm-1.076 0.636l-1.237 -0.848 0 0 0.199 -0.277 0.199 -0.251 0.197 -0.225 0.197 -0.201 0.199 -0.176 0.2 -0.152 0.204 -0.131 0.209 -0.107 0.214 -0.082 0.218 -0.055 0.222 -0.027 0.222 0.005 0.216 0.037 0.205 0.067 0.189 0.095 0.168 0.117 0.148 0.135 0.124 0.147 0.104 0.157 0.085 0.164 0.066 0.169 0.048 0.173 0.033 0.177 0.015 0.18 -0.002 0.18 -0.019 0.182 -0.037 0.182 -0.057 0.18 -0.078 0.178 -0.1 0.172 -0.123 0.162 -0.145 0.149 -1.007 -1.112 0.014 -0.015 0.013 -0.016 0.011 -0.02 0.011 -0.025 0.009 -0.03 0.007 -0.033 0.004 -0.038 0 -0.04 -0.003 -0.038 -0.007 -0.037 -0.01 -0.035 -0.011 -0.029 -0.011 -0.022 -0.011 -0.016 -0.007 -0.009 -0.001 -0.001 0.002 0.001 0.007 0.003 0.007 0.002 0.003 0.001 -0.006 0 -0.021 0.002 -0.038 0.01 -0.056 0.021 -0.074 0.038 -0.091 0.058 -0.107 0.083 -0.121 0.106 -0.132 0.134 -0.143 0.163 -0.153 0.193 -0.161 0.225 0 0zm-2.275 6.634l0.063 1.499 0 0 -0.324 -0.036 -0.299 -0.135 -0.226 -0.197 -0.153 -0.216 -0.103 -0.218 -0.069 -0.22 -0.047 -0.224 -0.031 -0.231 -0.016 -0.241 -0.006 -0.252 0.006 -0.263 0.017 -0.275 0.026 -0.285 0.036 -0.296 0.045 -0.306 0.054 -0.313 0.064 -0.322 0.072 -0.328 0.082 -0.333 0.09 -0.337 0.099 -0.341 0.108 -0.343 0.116 -0.342 0.125 -0.344 0.133 -0.341 0.142 -0.338 0.151 -0.335 0.159 -0.329 0.167 -0.322 0.177 -0.315 0.186 -0.307 0.194 -0.296 1.237 0.848 -0.163 0.249 -0.158 0.261 -0.152 0.272 -0.147 0.283 -0.141 0.291 -0.134 0.298 -0.128 0.304 -0.12 0.307 -0.113 0.31 -0.105 0.312 -0.098 0.311 -0.09 0.31 -0.082 0.306 -0.074 0.302 -0.065 0.295 -0.057 0.288 -0.048 0.278 -0.04 0.267 -0.031 0.255 -0.022 0.24 -0.013 0.223 -0.004 0.205 0.003 0.183 0.011 0.159 0.017 0.13 0.02 0.097 0.018 0.058 0.005 0.012 -0.025 -0.033 -0.078 -0.066 -0.129 -0.057 -0.133 -0.016 0.001 0zm6.899 -6.031l1.41 0.513 0 0 -0.103 0.236 -0.128 0.225 -0.149 0.224 -0.171 0.23 -0.191 0.237 -0.211 0.247 -0.229 0.253 -0.245 0.261 -0.262 0.268 -0.275 0.273 -0.287 0.277 -0.298 0.279 -0.306 0.28 -0.313 0.281 -0.319 0.279 -0.321 0.277 -0.323 0.271 -0.323 0.267 -0.322 0.258 -0.317 0.25 -0.312 0.241 -0.305 0.228 -0.295 0.215 -0.287 0.202 -0.274 0.185 -0.261 0.169 -0.249 0.151 -0.235 0.133 -0.225 0.114 -0.218 0.093 -0.227 0.073 -0.265 0.04 -0.063 -1.499 -0.036 0.004 0.056 -0.019 0.115 -0.05 0.154 -0.078 0.184 -0.104 0.211 -0.128 0.231 -0.15 0.25 -0.169 0.265 -0.186 0.278 -0.203 0.289 -0.216 0.297 -0.229 0.305 -0.24 0.308 -0.248 0.311 -0.256 0.311 -0.262 0.31 -0.267 0.307 -0.268 0.301 -0.27 0.293 -0.269 0.284 -0.267 0.273 -0.262 0.259 -0.257 0.243 -0.249 0.226 -0.24 0.205 -0.228 0.183 -0.213 0.159 -0.197 0.13 -0.176 0.101 -0.151 0.066 -0.115 0.03 -0.068 0 0zm-1.493 1.248l-1.407 -0.52 0 0 0.103 -0.256 0.116 -0.242 0.127 -0.228 0.139 -0.213 0.146 -0.197 0.156 -0.182 0.163 -0.167 0.169 -0.152 0.176 -0.137 0.179 -0.12 0.183 -0.106 0.187 -0.091 0.188 -0.076 0.189 -0.06 0.19 -0.045 0.192 -0.03 0.19 -0.013 0.19 0.003 0.19 0.022 0.187 0.042 0.185 0.063 0.178 0.088 0.169 0.113 0.156 0.14 0.136 0.167 0.109 0.188 0.078 0.203 0.046 0.215 0.014 0.217 -0.015 0.215 -0.041 0.214 -0.065 0.21 -1.41 -0.513 0.02 -0.065 0.009 -0.045 0.002 -0.025 0 -0.007 0.002 0.009 0.006 0.016 0.011 0.02 0.014 0.017 0.011 0.01 0.003 0.003 -0.005 -0.003 -0.018 -0.006 -0.029 -0.006 -0.041 -0.005 -0.052 -0.001 -0.062 0.004 -0.071 0.011 -0.076 0.019 -0.084 0.026 -0.086 0.035 -0.091 0.044 -0.092 0.054 -0.095 0.063 -0.093 0.074 -0.095 0.084 -0.093 0.095 -0.091 0.106 -0.088 0.119 -0.084 0.13 -0.081 0.143 -0.075 0.157 -0.069 0.172 0 0zm1.145 1.707l0.621 1.366 0 0 -0.182 0.076 -0.183 0.065 -0.185 0.053 -0.185 0.04 -0.186 0.029 -0.186 0.016 -0.186 0.002 -0.185 -0.01 -0.183 -0.024 -0.18 -0.038 -0.177 -0.053 -0.173 -0.068 -0.167 -0.083 -0.159 -0.097 -0.152 -0.114 -0.141 -0.126 -0.13 -0.141 -0.117 -0.153 -0.104 -0.165 -0.089 -0.176 -0.075 -0.184 -0.059 -0.192 -0.044 -0.2 -0.03 -0.207 -0.014 -0.211 -0.001 -0.217 0.014 -0.223 0.029 -0.228 0.043 -0.233 0.057 -0.238 0.071 -0.244 0.086 -0.249 1.407 0.52 -0.064 0.185 -0.051 0.174 -0.039 0.163 -0.028 0.152 -0.017 0.141 -0.008 0.128 0 0.118 0.007 0.107 0.013 0.094 0.019 0.084 0.023 0.074 0.027 0.066 0.028 0.056 0.031 0.05 0.034 0.043 0.035 0.038 0.038 0.035 0.04 0.03 0.046 0.027 0.049 0.024 0.053 0.021 0.059 0.018 0.064 0.013 0.07 0.01 0.074 0.004 0.08 -0.001 0.084 -0.008 0.089 -0.013 0.093 -0.021 0.096 -0.027 0.098 -0.035 0.103 -0.043 -0.001 0zm3.796 -3.378l1.235 0.853 0 0 -0.054 0.074 -0.058 0.076 -0.067 0.083 -0.074 0.089 -0.083 0.098 -0.091 0.104 -0.098 0.111 -0.107 0.118 -0.114 0.124 -0.12 0.128 -0.127 0.134 -0.133 0.138 -0.138 0.14 -0.144 0.145 -0.147 0.145 -0.152 0.148 -0.157 0.148 -0.16 0.149 -0.162 0.147 -0.164 0.147 -0.167 0.145 -0.169 0.143 -0.17 0.139 -0.171 0.136 -0.172 0.132 -0.172 0.127 -0.173 0.121 -0.172 0.115 -0.173 0.109 -0.173 0.101 -0.174 0.092 -0.174 0.085 -0.621 -1.366 0.113 -0.054 0.122 -0.066 0.13 -0.075 0.134 -0.085 0.141 -0.094 0.144 -0.101 0.148 -0.109 0.149 -0.114 0.151 -0.12 0.153 -0.126 0.152 -0.129 0.152 -0.132 0.152 -0.135 0.151 -0.137 0.148 -0.138 0.145 -0.138 0.142 -0.138 0.139 -0.136 0.134 -0.135 0.13 -0.133 0.125 -0.128 0.118 -0.125 0.113 -0.121 0.105 -0.114 0.097 -0.108 0.09 -0.101 0.081 -0.092 0.07 -0.084 0.062 -0.073 0.049 -0.061 0.036 -0.048 0.02 -0.028 0 0zm1.368 -0.474l-1.342 -0.671 0.001 0 0.053 -0.095 0.082 -0.112 0.145 -0.135 0.266 -0.126 0.379 -0.005 0.31 0.154 0.157 0.169 0.076 0.132 0.041 0.106 0.026 0.094 0.016 0.08 0.011 0.072 0.008 0.075 0.005 0.076 0.003 0.074 0 0.076 -0.002 0.077 -0.004 0.077 -0.006 0.081 -0.008 0.081 -0.01 0.082 -0.013 0.084 -0.015 0.085 -0.018 0.084 -0.021 0.087 -0.024 0.088 -0.028 0.087 -0.033 0.089 -0.037 0.09 -0.043 0.09 -0.051 0.091 -0.057 0.09 -1.235 -0.853 0.003 -0.004 0.005 -0.009 0.008 -0.017 0.01 -0.023 0.01 -0.028 0.01 -0.034 0.011 -0.036 0.009 -0.039 0.009 -0.042 0.008 -0.043 0.006 -0.043 0.006 -0.045 0.004 -0.043 0.003 -0.041 0.002 -0.041 0.001 -0.037 0 -0.033 -0.001 -0.029 -0.001 -0.021 -0.002 -0.013 -0.001 -0.008 0.002 0.008 0.009 0.032 0.022 0.055 0.053 0.093 0.133 0.143 0.284 0.139 0.351 -0.004 0.236 -0.111 0.113 -0.104 0.048 -0.065 0.017 -0.031 0 0zm0.744 0.437l-1.409 0.515 0 0 0.004 0.01 0.002 0.005 0.001 0.002 -0.001 -0.001 -0.004 -0.006 -0.007 -0.008 -0.013 -0.015 -0.015 -0.015 -0.018 -0.017 -0.022 -0.02 -0.025 -0.021 -0.029 -0.025 -0.031 -0.025 -0.033 -0.027 -0.04 -0.032 -0.038 -0.032 -0.042 -0.035 -0.044 -0.039 -0.044 -0.041 -0.05 -0.049 -0.051 -0.055 -0.05 -0.059 -0.054 -0.074 -0.051 -0.083 -0.047 -0.094 -0.042 -0.113 -0.03 -0.123 -0.013 -0.129 0.003 -0.133 0.022 -0.133 0.037 -0.125 0.048 -0.111 1.342 0.671 0.017 -0.04 0.017 -0.055 0.011 -0.066 0.002 -0.068 -0.007 -0.065 -0.015 -0.062 -0.019 -0.053 -0.017 -0.034 -0.016 -0.025 -0.011 -0.016 -0.003 -0.003 0.001 0.001 0.007 0.007 0.017 0.015 0.019 0.017 0.025 0.021 0.03 0.025 0.031 0.025 0.038 0.031 0.042 0.034 0.041 0.035 0.047 0.041 0.048 0.044 0.051 0.048 0.05 0.052 0.051 0.054 0.053 0.064 0.051 0.068 0.052 0.076 0.047 0.082 0.045 0.088 0.039 0.096 0 0zm-0.441 1.227l-0.871 1.221 -0.001 0 -0.109 -0.088 -0.105 -0.104 -0.091 -0.118 -0.075 -0.127 -0.058 -0.137 -0.038 -0.141 -0.019 -0.135 -0.004 -0.128 0.009 -0.118 0.016 -0.108 0.023 -0.099 0.027 -0.091 0.03 -0.084 0.03 -0.077 0.031 -0.071 0.03 -0.067 0.03 -0.062 0.029 -0.058 0.026 -0.054 0.024 -0.049 0.022 -0.047 0.019 -0.039 0.014 -0.034 0.011 -0.028 0.007 -0.02 0.003 -0.01 0.001 -0.001 -0.001 0.009 -0.002 0.025 0.002 0.034 0.007 0.044 0.015 0.05 1.409 -0.515 0.04 0.14 0.022 0.136 0.005 0.128 -0.007 0.122 -0.017 0.108 -0.022 0.099 -0.027 0.092 -0.029 0.084 -0.03 0.076 -0.031 0.072 -0.031 0.067 -0.029 0.06 -0.029 0.059 -0.027 0.054 -0.023 0.049 -0.022 0.045 -0.019 0.041 -0.015 0.035 -0.012 0.029 -0.007 0.021 -0.004 0.012 0 0.003 0 -0.007 0.002 -0.02 -0.001 -0.031 -0.006 -0.04 -0.014 -0.05 -0.02 -0.047 -0.024 -0.041 -0.027 -0.034 -0.024 -0.025 -0.012 -0.01 -0.001 0zm-0.299 3.077l-0.983 -1.133 0 0 0.022 -0.02 0.024 -0.023 0.025 -0.028 0.027 -0.031 0.026 -0.033 0.025 -0.035 0.026 -0.039 0.026 -0.042 0.025 -0.041 0.022 -0.041 0.021 -0.043 0.019 -0.044 0.018 -0.044 0.016 -0.043 0.013 -0.04 0.011 -0.038 0.008 -0.037 0.007 -0.036 0.004 -0.033 0.003 -0.027 0.001 -0.022 -0.001 -0.017 -0.001 -0.014 -0.002 -0.008 0 -0.002 0 0.001 0.004 0.007 0.006 0.011 0.008 0.012 0.009 0.01 0.01 0.01 0.009 0.007 0.871 -1.221 0.109 0.086 0.099 0.096 0.087 0.103 0.075 0.111 0.064 0.116 0.051 0.117 0.039 0.116 0.029 0.117 0.019 0.116 0.011 0.113 0.004 0.113 -0.004 0.111 -0.009 0.107 -0.014 0.103 -0.019 0.102 -0.023 0.101 -0.028 0.101 -0.032 0.098 -0.035 0.094 -0.037 0.093 -0.041 0.091 -0.044 0.09 -0.048 0.089 -0.05 0.086 -0.052 0.082 -0.055 0.082 -0.059 0.081 -0.061 0.078 -0.063 0.074 -0.068 0.073 -0.07 0.07 -0.074 0.067 0 0zm-8.17 4.943l-0.807 -1.265 0 0.001 0.156 -0.099 0.179 -0.111 0.202 -0.123 0.222 -0.135 0.241 -0.145 0.26 -0.155 0.275 -0.164 0.289 -0.172 0.301 -0.178 0.312 -0.184 0.319 -0.189 0.326 -0.192 0.331 -0.195 0.334 -0.197 0.334 -0.197 0.334 -0.197 0.331 -0.195 0.326 -0.193 0.319 -0.189 0.31 -0.185 0.301 -0.179 0.288 -0.172 0.273 -0.165 0.257 -0.155 0.24 -0.146 0.218 -0.134 0.196 -0.123 0.171 -0.108 0.144 -0.093 0.113 -0.075 0.073 -0.052 0.019 -0.015 0.983 1.133 -0.109 0.087 -0.118 0.083 -0.136 0.092 -0.159 0.103 -0.183 0.116 -0.205 0.127 -0.224 0.139 -0.244 0.148 -0.261 0.158 -0.277 0.166 -0.29 0.174 -0.302 0.18 -0.313 0.186 -0.32 0.19 -0.327 0.193 -0.332 0.196 -0.334 0.197 -0.334 0.197 -0.334 0.197 -0.331 0.195 -0.326 0.192 -0.319 0.189 -0.31 0.183 -0.3 0.177 -0.287 0.171 -0.273 0.163 -0.256 0.153 -0.239 0.143 -0.218 0.133 -0.196 0.119 -0.17 0.106 -0.143 0.09 0 0zm-0.531 -0.577l0.581 1.383 0 0 -0.132 0.054 -0.128 0.049 -0.124 0.044 -0.12 0.039 -0.115 0.034 -0.113 0.029 -0.111 0.024 -0.11 0.019 -0.11 0.013 -0.114 0.006 -0.121 -0.003 -0.134 -0.018 -0.153 -0.042 -0.173 -0.084 -0.18 -0.151 -0.145 -0.221 -0.068 -0.247 0.002 -0.221 0.043 -0.178 0.058 -0.138 0.066 -0.114 0.071 -0.099 0.074 -0.089 0.081 -0.087 0.085 -0.083 0.092 -0.082 0.099 -0.083 0.108 -0.085 0.116 -0.086 0.124 -0.087 0.132 -0.091 0.143 -0.093 0.807 1.265 -0.12 0.078 -0.109 0.074 -0.097 0.068 -0.085 0.064 -0.074 0.058 -0.063 0.053 -0.051 0.046 -0.039 0.037 -0.025 0.026 -0.013 0.016 0.001 -0.002 0.015 -0.024 0.023 -0.057 0.025 -0.105 0.001 -0.156 -0.053 -0.191 -0.113 -0.174 -0.134 -0.112 -0.11 -0.054 -0.076 -0.021 -0.041 -0.006 -0.015 -0.001 0.008 0 0.025 -0.003 0.039 -0.007 0.05 -0.011 0.062 -0.016 0.072 -0.021 0.08 -0.026 0.087 -0.031 0.096 -0.037 0.103 -0.042 0 0zm29.202 -2.759l-0.141 1.493 0 0 -1.125 -0.093 -1.142 -0.068 -1.157 -0.046 -1.169 -0.024 -1.177 -0.003 -1.181 0.016 -1.183 0.034 -1.181 0.051 -1.176 0.066 -1.167 0.08 -1.156 0.093 -1.14 0.105 -1.123 0.115 -1.1 0.124 -1.076 0.131 -1.048 0.137 -1.016 0.143 -0.982 0.146 -0.943 0.148 -0.903 0.149 -0.858 0.149 -0.81 0.147 -0.759 0.144 -0.705 0.139 -0.646 0.134 -0.586 0.127 -0.521 0.118 -0.452 0.107 -0.38 0.096 -0.301 0.083 -0.214 0.065 -0.103 0.036 -0.581 -1.383 0.218 -0.079 0.267 -0.082 0.334 -0.091 0.403 -0.102 0.47 -0.112 0.536 -0.121 0.6 -0.13 0.659 -0.136 0.717 -0.142 0.771 -0.146 0.821 -0.149 0.87 -0.151 0.914 -0.151 0.956 -0.15 0.994 -0.148 1.028 -0.144 1.062 -0.139 1.089 -0.133 1.115 -0.125 1.137 -0.117 1.157 -0.106 1.173 -0.095 1.185 -0.081 1.195 -0.068 1.202 -0.051 1.205 -0.035 1.205 -0.016 1.202 0.003 1.197 0.024 1.187 0.047 1.174 0.071 1.159 0.096 0 0zm40.002 5.122l-0.303 1.469 -1.437 -0.291 -1.419 -0.278 -1.402 -0.264 -1.386 -0.252 -1.369 -0.24 -1.354 -0.229 -1.338 -0.217 -1.325 -0.207 -1.31 -0.196 -1.297 -0.187 -1.284 -0.178 -1.272 -0.17 -1.26 -0.162 -1.248 -0.154 -1.238 -0.147 -1.228 -0.14 -1.218 -0.135 -1.208 -0.129 -1.2 -0.124 -1.192 -0.12 -1.184 -0.116 -1.177 -0.112 -1.17 -0.11 -1.165 -0.107 -1.159 -0.105 -1.153 -0.105 -1.15 -0.102 -1.145 -0.103 -1.142 -0.103 -1.139 -0.104 -1.137 -0.104 -1.134 -0.107 0.141 -1.493 1.132 0.106 1.135 0.104 1.137 0.104 1.141 0.103 1.145 0.103 1.15 0.103 1.155 0.104 1.16 0.105 1.166 0.107 1.173 0.11 1.181 0.113 1.187 0.116 1.196 0.12 1.205 0.125 1.214 0.13 1.223 0.135 1.234 0.141 1.244 0.148 1.255 0.155 1.268 0.163 1.279 0.17 1.292 0.179 1.305 0.189 1.319 0.198 1.333 0.208 1.348 0.219 1.363 0.229 1.379 0.242 1.395 0.253 1.412 0.267 1.429 0.28 1.447 0.293zm0 0c0.405,0.084 0.666,0.481 0.583,0.886 -0.084,0.406 -0.481,0.667 -0.886,0.583l0.303 -1.469z"/>
   </g>
   <g>
    <path class="fil0" d="M30.696 75.5c-0.355,0.024 -0.661,-0.291 -0.681,-0.702 -0.021,-0.412 0.251,-0.765 0.606,-0.789l0.075 1.491zm80.366 -2.59l-0.092 1.49 0 0 -2.758 -0.206 -2.878 -0.173 -2.985 -0.142 -3.079 -0.114 -3.157 -0.085 -3.224 -0.061 -3.275 -0.036 -3.314 -0.014 -3.338 0.007 -3.349 0.026 -3.347 0.043 -3.33 0.059 -3.301 0.072 -3.257 0.084 -3.2 0.095 -3.13 0.103 -3.045 0.111 -2.947 0.116 -2.835 0.119 -2.711 0.121 -2.571 0.121 -2.42 0.12 -2.253 0.116 -2.074 0.112 -1.881 0.104 -1.674 0.097 -1.453 0.086 -1.22 0.074 -0.972 0.061 -0.711 0.045 -0.437 0.029 -0.148 0.01 -0.075 -1.491 0.15 -0.01 0.438 -0.029 0.712 -0.045 0.974 -0.061 1.222 -0.075 1.455 -0.086 1.676 -0.096 1.883 -0.105 2.076 -0.112 2.256 -0.116 2.422 -0.12 2.574 -0.121 2.714 -0.122 2.838 -0.119 2.95 -0.116 3.049 -0.11 3.133 -0.104 3.204 -0.095 3.261 -0.085 3.305 -0.072 3.336 -0.058 3.352 -0.044 3.355 -0.025 3.346 -0.007 3.32 0.014 3.284 0.036 3.232 0.06 3.168 0.087 3.09 0.113 2.998 0.143 2.893 0.174 2.775 0.207 0 0zm30.694 -2.853l0.883 -1.089 0 0 0.51 0.583 0.434 0.56 0.358 0.546 0.281 0.539 0.196 0.546 0.095 0.564 -0.032 0.575 -0.175 0.544 -0.299 0.465 -0.391 0.379 -0.469 0.308 -0.544 0.256 -0.624 0.215 -0.709 0.181 -0.798 0.151 -0.892 0.124 -0.988 0.097 -1.086 0.071 -1.187 0.048 -1.29 0.023 -1.393 0.001 -1.5 -0.021 -1.608 -0.043 -1.717 -0.065 -1.827 -0.085 -1.94 -0.105 -2.053 -0.125 -2.169 -0.144 -2.285 -0.162 -2.402 -0.181 -2.522 -0.198 -2.643 -0.215 0.092 -1.49 2.64 0.215 2.518 0.198 2.399 0.18 2.28 0.162 2.163 0.144 2.046 0.124 1.932 0.105 1.818 0.085 1.706 0.064 1.595 0.043 1.485 0.021 1.375 -0.001 1.268 -0.024 1.16 -0.046 1.055 -0.069 0.948 -0.093 0.843 -0.117 0.736 -0.139 0.63 -0.161 0.521 -0.179 0.411 -0.192 0.298 -0.195 0.189 -0.181 0.098 -0.151 0.043 -0.13 0.007 -0.158 -0.04 -0.229 -0.112 -0.309 -0.197 -0.376 -0.286 -0.435 -0.374 -0.483 -0.461 -0.526 0 0zm-17.163 -13.952l0.805 -1.167 0 0 0.217 0.193 0.261 0.219 0.302 0.242 0.34 0.265 0.374 0.284 0.407 0.304 0.438 0.323 0.466 0.341 0.492 0.358 0.517 0.374 0.538 0.391 0.558 0.405 0.577 0.42 0.592 0.433 0.607 0.447 0.618 0.46 0.629 0.47 0.637 0.483 0.643 0.494 0.647 0.503 0.649 0.513 0.649 0.522 0.649 0.53 0.644 0.538 0.638 0.545 0.631 0.552 0.622 0.558 0.61 0.564 0.597 0.569 0.582 0.573 0.565 0.577 0.545 0.58 -0.883 1.089 -0.525 -0.56 -0.547 -0.558 -0.564 -0.556 -0.581 -0.553 -0.596 -0.551 -0.609 -0.546 -0.618 -0.541 -0.628 -0.535 -0.634 -0.529 -0.638 -0.523 -0.641 -0.515 -0.641 -0.506 -0.64 -0.498 -0.636 -0.489 -0.631 -0.478 -0.624 -0.467 -0.614 -0.456 -0.603 -0.444 -0.59 -0.432 -0.574 -0.418 -0.557 -0.405 -0.538 -0.39 -0.517 -0.375 -0.495 -0.359 -0.469 -0.344 -0.443 -0.326 -0.415 -0.31 -0.384 -0.293 -0.353 -0.274 -0.32 -0.257 -0.286 -0.24 -0.252 -0.224 0 0zm60.853 1.152l-0.208 1.474 -6.047 -1.124 -5.645 -1.008 -5.256 -0.896 -4.88 -0.79 -4.518 -0.688 -4.169 -0.591 -3.833 -0.499 -3.511 -0.412 -3.201 -0.33 -2.904 -0.253 -2.622 -0.179 -2.351 -0.113 -2.093 -0.05 -1.849 0.007 -1.617 0.06 -1.398 0.106 -1.19 0.148 -0.994 0.183 -0.81 0.212 -0.635 0.231 -0.47 0.238 -0.317 0.229 -0.183 0.196 -0.082 0.148 -0.027 0.111 0.003 0.119 0.036 0.155 0.081 0.19 0.123 0.21 0.158 0.213 0.178 0.203 0.183 0.181 -0.805 1.167 -0.25 -0.248 -0.251 -0.286 -0.239 -0.326 -0.215 -0.369 -0.173 -0.419 -0.105 -0.476 -0.001 -0.524 0.135 -0.532 0.271 -0.487 0.388 -0.421 0.499 -0.36 0.617 -0.313 0.75 -0.273 0.901 -0.236 1.066 -0.196 1.249 -0.156 1.445 -0.11 1.657 -0.061 1.883 -0.007 2.122 0.05 2.376 0.114 2.642 0.181 2.924 0.255 3.217 0.331 3.526 0.414 3.846 0.501 4.181 0.593 4.529 0.689 4.891 0.791 5.265 0.898 5.653 1.01 6.054 1.125zm0 0c0.351,0.067 0.59,0.451 0.532,0.858 -0.057,0.407 -0.389,0.683 -0.74,0.616l0.208 -1.474z"/>
   </g>
  </g>
 </g>
</svg>
